<?xml version="1.0" encoding="utf-8"?>
<!-- Generator: Adobe Illustrator 19.1.0, SVG Export Plug-In . SVG Version: 6.00 Build 0)  -->
<svg version="1.1" id="Layer_1" xmlns="http://www.w3.org/2000/svg" xmlns:xlink="http://www.w3.org/1999/xlink" x="0px" y="0px"
	 viewBox="0 0 1280.7 800" style="enable-background:new 0 0 1280.7 800;" xml:space="preserve">
<style type="text/css">
	.st0{fill:#4D4D4D;}
	.st1{fill:#FFFCF9;}
	.st2{fill:#58595B;}
	.st3{fill:#58595B;stroke:#58595B;stroke-width:0.5;stroke-miterlimit:10;}
	.st4{fill:none;}
	.st5{fill:#F57C00;}
	.st6{fill:none;stroke:#BCBEC0;stroke-width:3;stroke-miterlimit:10;}
	.st7{fill:#E6E7E8;}
	.st8{fill:#A7A9AC;}
	.st9{fill:#BCBEC0;}
	.st10{fill:#FFFAF5;stroke:#BCBEC0;stroke-width:3;stroke-miterlimit:10;}
	.st11{fill:#D1D3D4;}
	.st12{opacity:6.000000e-02;fill:#7DCCED;}
	.st13{opacity:6.000000e-02;fill:#CB97C9;}
	.st14{opacity:6.000000e-02;fill:#FFDE17;}
	.st15{fill:none;stroke:#E6E7E8;stroke-width:2;stroke-miterlimit:10;}
	.st16{fill:none;stroke:#E6E7E8;stroke-width:4;stroke-miterlimit:10;}
	.st17{opacity:0.3;fill:none;stroke:#E6E7E8;stroke-width:4;stroke-miterlimit:10;}
	.st18{fill:#FFFFFF;}
	.st19{fill:#6D6E71;}
	.st20{opacity:0.2;fill:#FFFFFF;}
	.st21{fill:#808285;}
	.st22{fill:#7DCCED;}
	.st23{opacity:0.8;fill:#FFFFFF;}
	.st24{opacity:0.3;fill:#FFFFFF;}
	.st25{fill:#FED7B7;}
	.st26{fill-rule:evenodd;clip-rule:evenodd;stroke:#FFFFFF;stroke-miterlimit:10;}
	.st27{fill:#FFDE17;}
	.st28{fill:#CB97C9;}
	.st29{fill:#85D866;}
	.st30{fill:#F5844E;}
	.st31{fill:none;stroke:#F57C00;stroke-width:3;stroke-miterlimit:10;}
	.st32{fill:#FEF9F2;}
	.st33{fill:#9DE085;}
	.st34{fill:#97D6F1;}
	.st35{fill:none;stroke:#BCBEC0;stroke-width:2;stroke-miterlimit:10;}
	.st36{fill:#F1F2F2;}
	.st37{clip-path:url(#SVGID_22_);}
	.st38{fill:#FEFEFE;}
	.st39{fill:#FDFDFD;}
	.st40{fill:#030303;}
	.st41{fill:#EFEFEF;}
	.st42{fill:#040404;}
	.st43{fill:#050505;}
	.st44{fill:#070707;}
	.st45{fill:#020202;}
	.st46{fill:#010101;}
	.st47{fill:#FBFBFB;}
	.st48{fill:#F7F7F7;}
	.st49{fill:#FAC085;}
	.st50{fill:#F15A29;}
	.st51{fill:#80D3AB;}
	.st52{fill:#77ACD7;}
	.st53{fill:none;stroke:#FFFFFF;stroke-miterlimit:10;}
	.st54{fill:none;stroke:#FFFFFF;stroke-width:3;stroke-miterlimit:10;}
	.st55{opacity:0.7;fill:#F57C00;}
	.st56{fill:#58595B;stroke:#58595B;stroke-width:0.2;stroke-miterlimit:10;}
	.st57{fill:#FFFAF5;stroke:#BCBEC0;stroke-width:2;stroke-miterlimit:10;}
	.st58{fill:#B1E0F4;}
	.st59{fill:#FFEB74;}
	.st60{fill:#E0C1DF;}
	.st61{fill:none;stroke:#F57C00;stroke-width:2;stroke-miterlimit:10;}
	.st62{font-family:'BloggerSans-Medium';}
	.st63{font-size:6.0821px;}
	.st64{fill-rule:evenodd;clip-rule:evenodd;fill:none;}
	.st65{font-size:10.6436px;}
	.st66{font-size:13.1778px;}
	.st67{font-family:'BloggerSans-Bold';}
	.st68{font-size:12.1642px;}
	.st69{font-family:'Roboto-Medium';}
	.st70{font-size:6.1969px;}
	.st71{font-size:6.8855px;}
	.st72{clip-path:url(#SVGID_48_);}
	.st73{font-family:'BloggerSans-Light';}
	.st74{font-size:17.65px;}
	.st75{font-size:16px;}
	.st76{letter-spacing:1;}
	.st77{font-family:'BloggerSans';}
	.st78{font-size:14px;}
</style>
<rect y="0" class="st0" width="1280.7" height="800"/>
<g>
	<g>
		<rect x="65.8" y="117.6" class="st1" width="903.8" height="564.9"/>
	</g>
	<line class="st16" x1="421.6" y1="326.7" x2="545.7" y2="441.9"/>
	<line class="st16" x1="464.8" y1="540.5" x2="545.7" y2="443.2"/>
	<line class="st16" x1="545.7" y1="443.2" x2="695" y2="443.2"/>
	<circle class="st32" cx="421.9" cy="327.8" r="56.9"/>
	<circle class="st32" cx="693.5" cy="444.1" r="72.3"/>
	<circle class="st32" cx="464" cy="540.8" r="56.9"/>
	<line class="st17" x1="567" y1="286.5" x2="545.7" y2="443.4"/>
	<circle class="st28" cx="567" cy="288" r="23.2"/>
	<g>
		<g>
			<g>
				<g>
					<path class="st18" d="M571.7,284.2L571.7,284.2L571.7,284.2L571.7,284.2L571.7,284.2l1.1-1.1l0,0l1-1l0.7-0.2
						c0.4-0.1,1-0.6,1.4-1.2l1-1.6c0.4-0.6,0.6-1.1,0.5-1.2l0,0c0,0,0-0.4-0.5-0.5c-0.1,0-0.6,0.1-1.2,0.5l-1.6,1
						c-0.6,0.4-1.1,1-1.2,1.4l-0.2,0.7l-1.1,1.1l0,0l-1.1,1.1L571.7,284.2L571.7,284.2L571.7,284.2z"/>
					<path class="st18" d="M570.7,284.2c0.3,0.3,0.7,0.2,1,0l0,0l-1-0.9l0,0l0,0C570.4,283.6,570.5,284,570.7,284.2z"/>
					<polygon class="st18" points="570.6,283.2 570.6,283.2 570.6,283.2 					"/>
					<polygon class="st18" points="570.6,283.2 570.6,283.2 570.6,283.2 					"/>
				</g>
				<path class="st18" d="M574.6,298.8c-0.9,0-1.8-0.4-2.5-1c0,0-6.9-6.9-10-10c-0.4,0-0.8,0-1.3-0.1c-1.1-0.2-2.2-0.7-3-1.5
					c-1.1-1.1-1.7-2.7-1.6-4.3c0.1-0.7,0.6-1.3,1.2-1.3c0.4,0,0.8,0.2,1.1,0.5l1.8,1.8c0.2,0.2,0.5,0.2,0.6,0l1.2-1.2
					c0.2-0.2,0.2-0.5,0-0.6l-1.9-1.9c-0.4-0.4-0.6-1-0.4-1.5c0.2-0.5,0.6-0.8,1.2-0.9c0.2,0,0.4,0,0.7,0c1.5,0,2.8,0.6,3.9,1.6
					c0.9,0.9,1.5,2.1,1.6,3.4c0,0.4,0,0.8,0,1.1l9.9,9.9c0.7,0.7,1,1.5,1,2.5c0,0.9-0.4,1.8-1,2.5
					C576.4,298.4,575.6,298.8,574.6,298.8z M562.6,286.4l0.2,0.2c2.9,2.9,10.2,10.2,10.2,10.2c0.4,0.4,1,0.6,1.5,0.6
					c0.6,0,1.1-0.2,1.5-0.6c0.4-0.4,0.6-1,0.6-1.5c0-0.6-0.2-1.1-0.6-1.5l-10.4-10.4l0.1-0.3c0.1-0.4,0.1-0.8,0.1-1.1
					c-0.1-1-0.5-1.9-1.2-2.6c-0.8-0.8-1.8-1.2-3-1.2c-0.2,0-0.3,0-0.5,0c0,0-0.1,0-0.1,0c0,0,0,0.1,0.1,0.2l1.9,1.9
					c0.7,0.7,0.7,1.8,0,2.5l-1.2,1.2c-0.3,0.3-0.8,0.5-1.2,0.5c-0.5,0-0.9-0.2-1.2-0.5l-1.8-1.8c0-0.1-0.1-0.1-0.1-0.1
					c0,0,0,0,0,0.1c-0.1,1.2,0.3,2.4,1.2,3.3c0.6,0.6,1.4,1,2.3,1.2c0.4,0.1,0.8,0.1,1.2,0L562.6,286.4z M574.5,296.2
					c-0.3,0-0.5-0.1-0.7-0.3c-0.4-0.4-0.4-1.1,0-1.5c0.4-0.4,1.1-0.4,1.5,0c0.2,0.2,0.3,0.5,0.3,0.7c0,0.3-0.1,0.5-0.3,0.7
					S574.8,296.2,574.5,296.2z"/>
				<g>
					<g>
						<path class="st18" d="M564.6,294.1L564.6,294.1c0.2,0.2,0.7,0.3,0.9,0c0.2-0.3,0.3-0.7,0-0.9l0,0c-0.2-0.2-0.7-0.3-0.9,0
							C564.3,293.4,564.3,293.8,564.6,294.1L564.6,294.1z"/>
						<path class="st18" d="M561,290c-1.3,1.3-2.8,2.5-3.9,3.9c-1.3,1.7-0.4,4.3,1.8,4.8c1.6,0.4,2.7-0.7,3.7-1.7
							c1-1,1.9-1.9,2.9-2.9c0.6-0.6-0.3-1.5-0.9-0.9c-1.2,1.2-2.4,2.6-3.8,3.8c-1,0.9-2.7,0.5-3-0.9c-0.1-0.8,0.3-1.3,0.7-1.8
							c1.1-1.2,2.2-2.2,3.4-3.4C562.5,290.3,561.6,289.4,561,290L561,290z"/>
						<path class="st18" d="M561.9,290.9c0.1-0.1,0.1-0.1,0.2-0.2c0.2-0.2,0.3-0.7,0-0.9c-0.3-0.2-0.7-0.3-0.9,0
							c-0.1,0.1-0.1,0.1-0.2,0.2c-0.2,0.2-0.3,0.7,0,0.9C561.3,291.1,561.7,291.1,561.9,290.9c0.1-0.1,0.1-0.1,0.2-0.2
							c-0.3-0.3-0.6-0.6-0.9-0.9c-0.1,0.1-0.1,0.1-0.2,0.2c-0.2,0.2-0.3,0.7,0,0.9C561.3,291.1,561.7,291.1,561.9,290.9L561.9,290.9
							z"/>
						<path class="st18" d="M557.9,294.7c0.8,0,0.8-1.3,0-1.3C557,293.4,557,294.7,557.9,294.7L557.9,294.7z"/>
					</g>
					<path class="st18" d="M560.5,295.7c1.1-1.1,2.1-2.1,3.2-3.2c0.6-0.6-0.3-1.5-0.9-0.9c-1.1,1.1-2.1,2.1-3.2,3.2
						C559,295.3,559.9,296.2,560.5,295.7L560.5,295.7z"/>
				</g>
			</g>
		</g>
	</g>
	<line class="st17" x1="272.1" y1="481.8" x2="545.7" y2="444.7"/>
	<g>
		<path class="st21" d="M723.6,449.2c-2.5,0-4.5-2-4.5-4.5c0-2.5,2-4.5,4.5-4.5s4.5,2,4.5,4.5C728,447.2,726,449.2,723.6,449.2z
			 M723.6,440.8c-2.2,0-4,1.8-4,4c0,2.2,1.8,4,4,4s4-1.8,4-4C727.5,442.6,725.8,440.8,723.6,440.8z"/>
		<g>
			<path class="st21" d="M725.7,445.2h-4.3c-0.3,0-0.4-0.2-0.4-0.4c0-0.3,0.1-0.4,0.4-0.4h4.3c0.3,0,0.4,0.1,0.4,0.4
				C726.1,445.1,726,445.2,725.7,445.2z"/>
		</g>
	</g>
	<g>
		<path class="st21" d="M663.2,449.2c-2.5,0-4.5-2-4.5-4.5c0-2.5,2-4.5,4.5-4.5c2.5,0,4.5,2,4.5,4.5
			C667.7,447.2,665.7,449.2,663.2,449.2z M663.2,440.8c-2.2,0-4,1.8-4,4c0,2.2,1.8,4,4,4c2.2,0,4-1.8,4-4
			C667.2,442.6,665.4,440.8,663.2,440.8z"/>
		<g>
			<path class="st21" d="M665.4,445.2h-4.3c-0.3,0-0.4-0.2-0.4-0.4c0-0.3,0.1-0.4,0.4-0.4h4.3c0.3,0,0.4,0.1,0.4,0.4
				C665.8,445.1,665.6,445.2,665.4,445.2z"/>
		</g>
		<g>
			<path class="st21" d="M665.4,443.8h-4.3c-0.3,0-0.4-0.2-0.4-0.4c0-0.3,0.1-0.4,0.4-0.4h4.3c0.3,0,0.4,0.1,0.4,0.4
				C665.8,443.6,665.6,443.7,665.4,443.8z"/>
		</g>
		<g>
			<path class="st21" d="M665.4,446.7h-4.3c-0.3,0-0.4-0.2-0.4-0.4c0-0.3,0.1-0.4,0.4-0.4h4.3c0.3,0,0.4,0.1,0.4,0.4
				C665.8,446.6,665.6,446.7,665.4,446.7z"/>
		</g>
	</g>
	<g>
		<path class="st21" d="M494.1,546.8c-2.5,0-4.5-2-4.5-4.5s2-4.5,4.5-4.5c2.5,0,4.5,2,4.5,4.5S496.6,546.8,494.1,546.8z
			 M494.1,538.3c-2.2,0-4,1.8-4,4c0,2.2,1.8,4,4,4s4-1.8,4-4C498.1,540.1,496.3,538.3,494.1,538.3z"/>
		<g>
			<path class="st21" d="M496.3,542.8H492c-0.3,0-0.4-0.2-0.4-0.4c0-0.3,0.1-0.4,0.4-0.4h4.3c0.3,0,0.4,0.1,0.4,0.4
				C496.7,542.6,496.5,542.8,496.3,542.8z"/>
		</g>
	</g>
	<g>
		<path class="st21" d="M433.7,546.8c-2.5,0-4.5-2-4.5-4.5s2-4.5,4.5-4.5c2.5,0,4.5,2,4.5,4.5S436.2,546.8,433.7,546.8z
			 M433.7,538.3c-2.2,0-4,1.8-4,4c0,2.2,1.8,4,4,4c2.2,0,4-1.8,4-4C437.7,540.1,435.9,538.3,433.7,538.3z"/>
		<g>
			<path class="st21" d="M435.9,542.8h-4.3c-0.3,0-0.4-0.2-0.4-0.4c0-0.3,0.1-0.4,0.4-0.4h4.3c0.3,0,0.4,0.1,0.4,0.4
				C436.3,542.6,436.2,542.8,435.9,542.8z"/>
		</g>
		<g>
			<path class="st21" d="M435.9,541.3h-4.3c-0.3,0-0.4-0.2-0.4-0.4c0-0.3,0.1-0.4,0.4-0.4h4.3c0.3,0,0.4,0.1,0.4,0.4
				C436.3,541.1,436.2,541.3,435.9,541.3z"/>
		</g>
		<g>
			<path class="st21" d="M435.9,544.3h-4.3c-0.3,0-0.4-0.2-0.4-0.4c0-0.3,0.1-0.4,0.4-0.4h4.3c0.3,0,0.4,0.1,0.4,0.4
				C436.3,544.1,436.2,544.3,435.9,544.3z"/>
		</g>
	</g>
	<g>
		<path class="st21" d="M451.8,335.7c-2.5,0-4.5-2-4.5-4.5c0-2.5,2-4.5,4.5-4.5c2.5,0,4.5,2,4.5,4.5
			C456.2,333.7,454.2,335.7,451.8,335.7z M451.8,327.2c-2.2,0-4,1.8-4,4c0,2.2,1.8,4,4,4c2.2,0,4-1.8,4-4
			C455.7,329,453.9,327.2,451.8,327.2z"/>
		<g>
			<path class="st21" d="M453.9,331.7h-4.3c-0.3,0-0.4-0.2-0.4-0.4c0-0.3,0.1-0.4,0.4-0.4h4.3c0.3,0,0.4,0.1,0.4,0.4
				C454.3,331.5,454.2,331.6,453.9,331.7z"/>
		</g>
	</g>
	<g>
		<path class="st21" d="M391.4,335.7c-2.5,0-4.5-2-4.5-4.5c0-2.5,2-4.5,4.5-4.5c2.5,0,4.5,2,4.5,4.5
			C395.9,333.7,393.9,335.7,391.4,335.7z M391.4,327.2c-2.2,0-4,1.8-4,4c0,2.2,1.8,4,4,4s4-1.8,4-4
			C395.3,329,393.6,327.2,391.4,327.2z"/>
		<g>
			<path class="st21" d="M393.5,331.7h-4.3c-0.3,0-0.4-0.2-0.4-0.4c0-0.3,0.1-0.4,0.4-0.4h4.3c0.3,0,0.4,0.1,0.4,0.4
				C394,331.5,393.8,331.6,393.5,331.7z"/>
		</g>
		<g>
			<path class="st21" d="M393.5,330.2h-4.3c-0.3,0-0.4-0.2-0.4-0.4c0-0.3,0.1-0.4,0.4-0.4h4.3c0.3,0,0.4,0.1,0.4,0.4
				C394,330,393.8,330.2,393.5,330.2z"/>
		</g>
		<g>
			<path class="st21" d="M393.5,333.2h-4.3c-0.3,0-0.4-0.2-0.4-0.4c0-0.3,0.1-0.4,0.4-0.4h4.3c0.3,0,0.4,0.1,0.4,0.4
				C394,333,393.8,333.2,393.5,333.2z"/>
		</g>
	</g>
	<g>
		<path class="st4" d="M592.4,322.5h-49.1c-2.3,0-4.2-1.9-4.2-4.2l0,0c0-2.3,1.9-4.2,4.2-4.2h49.1c2.3,0,4.2,1.9,4.2,4.2l0,0
			C596.6,320.6,594.7,322.5,592.4,322.5z"/>
		<rect x="535.2" y="315.6" class="st4" width="64.1" height="6.4"/>
		<text transform="matrix(1 0 0 1 544.1151 319.9601)" class="st2 st62 st63">Developer Tools</text>
	</g>
	<g>
		<path class="st21" d="M597.5,294c-2.6,0-4.8-2.1-4.8-4.8c0-2.6,2.1-4.8,4.8-4.8c2.6,0,4.8,2.1,4.8,4.8
			C602.3,291.8,600.2,294,597.5,294z M597.5,284.9c-2.4,0-4.3,1.9-4.3,4.3s1.9,4.3,4.3,4.3s4.3-1.9,4.3-4.3S599.9,284.9,597.5,284.9
			z"/>
		<g>
			<path class="st21" d="M597.1,288.9v-1.7c0-0.3,0.2-0.4,0.4-0.4c0.3,0,0.4,0.1,0.4,0.4v1.7h1.7c0.3,0,0.4,0.1,0.4,0.4
				c0,0.3-0.2,0.4-0.4,0.4h-1.7v1.7c0,0.3-0.1,0.4-0.4,0.4c-0.3,0-0.4-0.2-0.4-0.4v-1.7h-1.7c-0.3,0-0.4-0.2-0.4-0.4
				c0-0.3,0.1-0.4,0.4-0.4H597.1z"/>
		</g>
	</g>
	<g>
		<path class="st21" d="M301.6,486.5c-2.6,0-4.8-2.1-4.8-4.8c0-2.6,2.1-4.8,4.8-4.8c2.6,0,4.8,2.1,4.8,4.8
			C306.4,484.4,304.2,486.5,301.6,486.5z M301.6,477.4c-2.4,0-4.3,1.9-4.3,4.3s1.9,4.3,4.3,4.3s4.3-1.9,4.3-4.3
			S303.9,477.4,301.6,477.4z"/>
		<g>
			<path class="st21" d="M301.2,481.4v-1.7c0-0.3,0.2-0.4,0.4-0.4c0.3,0,0.4,0.1,0.4,0.4v1.7h1.7c0.3,0,0.4,0.1,0.4,0.4
				c0,0.3-0.2,0.4-0.4,0.4H302v1.7c0,0.3-0.1,0.4-0.4,0.4c-0.3,0-0.4-0.2-0.4-0.4v-1.7h-1.7c-0.3,0-0.4-0.2-0.4-0.4
				c0-0.3,0.1-0.4,0.4-0.4H301.2z"/>
		</g>
	</g>
	<g>
		<circle class="st29" cx="693.5" cy="444.6" r="23.2"/>
		<g>
			<path class="st18" d="M707.1,447.4c-0.1-0.2-0.1-0.4-0.1-0.5c-0.1-0.3-0.2-0.7-0.2-1.1c-0.1-0.4-0.2-0.8-0.3-1.2
				c-0.1-0.3-0.2-0.7-0.2-1.1c-0.3-1.3-0.5-2.6-1.1-3.6c-0.5-0.9-1.3-1.7-2.2-2.2c-1-0.6-2.2-0.9-3.4-0.9c-0.6,0-1.3,0.1-1.9,0.3
				c-0.6,0.2-1.2,0.5-1.6,0.8c-0.4,0.3-0.8,0.5-1.1,0.5c-0.3,0-0.6,0.1-0.8,0.1c-0.8,0-1.1-0.2-1.8-0.6c-0.5-0.3-1-0.6-1.8-0.8
				c-0.6-0.2-1.3-0.2-1.7-0.2c-0.2,0-0.5,0-0.7,0c-2.1,0.2-4,1.2-4.9,2.7c-0.7,1-0.9,2.3-1.2,3.6c-0.1,0.4-0.2,0.9-0.3,1.3l-0.3,1.1
				c-0.1,0.4-0.2,0.9-0.3,1.3c0,0.2-0.1,0.4-0.2,0.6c-0.2,0.7-0.4,1.3-0.4,2l0,0.1v0c0,1.1,0.5,2.2,1.4,2.9c0.9,0.8,2,1.2,3.1,1.2
				c0.7,0,1.3-0.1,2-0.4c1-0.5,1.7-1.3,2.2-2l0.1-0.1c0.1-0.2,0.3-0.4,0.4-0.5c0.2-0.2,0.5-0.7,0.6-0.8c0.2-0.1,0.5-0.1,1-0.1
				c0.3,0,0.7,0,1.1,0c0.5,0,1,0,1.6,0c0.4,0,0.9,0,1.4,0c0.4,0,0.9,0,1.3,0c0.6,0,0.8,0,1,0.1c0,0,0.1,0.1,0.3,0.3
				c0.2,0.2,0.4,0.5,0.5,0.7c0.1,0.1,0.2,0.2,0.2,0.3l0.2,0.2c0.5,0.7,1.1,1.5,2.3,1.9c0.5,0.2,1.1,0.3,1.7,0.3
				c0.9,0,1.9-0.3,2.7-0.8c0.8-0.5,1.4-1.2,1.7-2c0.2-0.4,0.2-0.9,0.2-1.3C707.4,448.7,707.2,448,707.1,447.4L707.1,447.4z
				 M705.9,450.4c-0.5,1.4-2.5,2.4-4.3,1.7c-0.9-0.3-1.3-1.1-1.8-1.7c-0.3-0.4-1-1.6-1.7-1.8c-1-0.3-2.8-0.1-4.1-0.1
				c-1.6,0-3-0.2-4.1,0.1c-0.8,0.2-1.2,1.2-1.7,1.8c-0.5,0.6-1,1.3-1.8,1.7c-2.1,0.9-4.5-0.5-4.6-2.6c0-0.7,0.3-1.6,0.5-2.4
				c0.2-0.8,0.4-1.6,0.6-2.4c0.4-1.7,0.6-3.4,1.3-4.6c0.8-1.2,2.3-1.9,3.9-2.1c0.6,0,1.4,0,2,0.1c1.8,0.5,2.2,1.8,4.9,1.4
				c1.1-0.2,1.9-1.1,2.8-1.4c2.6-0.7,5.1,0.6,6,2.2c0.6,1.2,0.9,3,1.2,4.4c0.2,0.8,0.3,1.6,0.5,2.3
				C705.9,448.1,706.3,449.3,705.9,450.4L705.9,450.4z M702.3,443.2 M703.3,444.2c0,0.5-0.4,0.9-0.9,0.9s-0.9-0.4-0.9-0.9
				c0-0.5,0.4-0.9,0.9-0.9S703.3,443.7,703.3,444.2z M701.3,442.2c0,0.5-0.4,0.9-0.9,0.9c-0.5,0-0.9-0.4-0.9-0.9
				c0-0.5,0.4-0.9,0.9-0.9C700.9,441.3,701.3,441.7,701.3,442.2z M701.3,446.1c0,0.5-0.4,0.9-0.9,0.9c-0.5,0-0.9-0.4-0.9-0.9
				c0-0.5,0.4-0.9,0.9-0.9C700.9,445.1,701.3,445.6,701.3,446.1z M699.4,444.2c0,0.5-0.4,0.9-0.9,0.9c-0.5,0-0.9-0.4-0.9-0.9
				c0-0.5,0.4-0.9,0.9-0.9C698.9,443.3,699.4,443.7,699.4,444.2z M687.8,447L687.8,447c-0.5,0-0.9-0.4-0.9-0.9v-3.9
				c0-0.5,0.4-0.9,0.9-0.9l0,0c0.5,0,0.9,0.4,0.9,0.9v3.9C688.7,446.6,688.3,447,687.8,447z M684.9,444.2L684.9,444.2
				c0-0.5,0.4-0.9,0.9-0.9h3.9c0.5,0,0.9,0.4,0.9,0.9l0,0c0,0.5-0.4,0.9-0.9,0.9h-3.9C685.3,445.1,684.9,444.7,684.9,444.2z"/>
		</g>
	</g>
	<g>
		
			<image style="overflow:visible;opacity:0.1;" width="93" height="93" xlink:href="13E2B34EF228C549.png"  transform="matrix(0.24 0 0 0.24 739.4437 480.3873)">
		</image>
		<g>
			<circle class="st33" cx="749.6" cy="490.5" r="5.1"/>
		</g>
	</g>
	<g>
		
			<image style="overflow:visible;opacity:0.1;" width="93" height="93" xlink:href="13E2B34EF228C54B.png"  transform="matrix(0.24 0 0 0.24 655.8151 367.362)">
		</image>
		<g>
			<circle class="st33" cx="665.9" cy="377.5" r="5.1"/>
		</g>
	</g>
	<g>
		
			<image style="overflow:visible;opacity:0.1;" width="93" height="93" xlink:href="13E2B34EF228C54E.png"  transform="matrix(0.24 0 0 0.24 359.8207 293.8703)">
		</image>
		<g>
			<circle class="st27" cx="369.9" cy="304" r="5.1"/>
		</g>
	</g>
	<g>
		
			<image style="overflow:visible;opacity:0.1;" width="93" height="93" xlink:href="13E2B34EF228C54F.png"  transform="matrix(0.24 0 0 0.24 510.8589 541.7149)">
		</image>
		<g>
			<circle class="st34" cx="521" cy="551.8" r="5.1"/>
		</g>
	</g>
	<g>
		
			<image style="overflow:visible;opacity:0.1;" width="115" height="115" xlink:href="13E2B34EF228C54A.png"  transform="matrix(0.24 0 0 0.24 697.8963 361.856)">
		</image>
		<g>
			<circle class="st33" cx="710.7" cy="374.7" r="7.8"/>
		</g>
	</g>
	<g>
		
			<image style="overflow:visible;opacity:0.1;" width="115" height="115" xlink:href="13E2B34EF228C545.png"  transform="matrix(0.24 0 0 0.24 629.9798 381.1159)">
		</image>
		<g>
			<circle class="st33" cx="642.8" cy="393.9" r="7.8"/>
		</g>
	</g>
	<g>
		
			<image style="overflow:visible;opacity:0.1;" width="115" height="115" xlink:href="13E2B34EF228C546.png"  transform="matrix(0.24 0 0 0.24 616.2951 466.7718)">
		</image>
		<g>
			<circle class="st33" cx="629.1" cy="479.6" r="7.8"/>
		</g>
	</g>
	<g>
		
			<image style="overflow:visible;opacity:0.1;" width="115" height="115" xlink:href="13E2B34EF228C547.png"  transform="matrix(0.24 0 0 0.24 416.6003 259.4743)">
		</image>
		<g>
			<circle class="st27" cx="429.4" cy="272.3" r="7.8"/>
		</g>
	</g>
	<g>
		
			<image style="overflow:visible;opacity:0.1;" width="115" height="115" xlink:href="13E2B34EF228C559.png"  transform="matrix(0.24 0 0 0.24 442.9559 587.3997)">
		</image>
		<g>
			<circle class="st34" cx="455.8" cy="600.2" r="7.8"/>
		</g>
	</g>
	<g>
		
			<image style="overflow:visible;opacity:0.1;" width="115" height="115" xlink:href="DFC3EA68FFE48392.png"  transform="matrix(0.24 0 0 0.24 408.4908 491.1001)">
		</image>
		<g>
			<circle class="st34" cx="421.3" cy="503.9" r="7.8"/>
		</g>
	</g>
	<g>
		
			<image style="overflow:visible;opacity:0.1;" width="139" height="139" xlink:href="DFC3EA68FFE48395.png"  transform="matrix(0.24 0 0 0.24 641.5788 489.8913)">
		</image>
		<g>
			<circle class="st33" cx="657.2" cy="505.5" r="10.6"/>
		</g>
	</g>
	<g>
		
			<image style="overflow:visible;opacity:0.1;" width="139" height="139" xlink:href="DFC3EA68FFE48396.png"  transform="matrix(0.24 0 0 0.24 605.5932 424.509)">
		</image>
		<g>
			<circle class="st33" cx="621.2" cy="440.1" r="10.6"/>
		</g>
	</g>
	<g>
		
			<image style="overflow:visible;opacity:0.1;" width="139" height="139" xlink:href="DFC3EA68FFE48394.png"  transform="matrix(0.24 0 0 0.24 750.0425 440.221)">
		</image>
		<g>
			<circle class="st33" cx="765.6" cy="455.8" r="10.6"/>
		</g>
	</g>
	<g>
		
			<image style="overflow:visible;opacity:0.1;" width="139" height="139" xlink:href="DFC3EA68FFE48393.png"  transform="matrix(0.24 0 0 0.24 695.3038 500.5349)">
		</image>
		<g>
			<circle class="st33" cx="710.9" cy="516.1" r="10.6"/>
		</g>
	</g>
	<g>
		
			<image style="overflow:visible;opacity:0.1;" width="139" height="139" xlink:href="DFC3EA68FFE4838D.png"  transform="matrix(0.24 0 0 0.24 741.933 397.1396)">
		</image>
		<g>
			<circle class="st33" cx="757.5" cy="412.7" r="10.6"/>
		</g>
	</g>
	<g>
		
			<image style="overflow:visible;opacity:0.1;" width="139" height="139" xlink:href="DFC3EA68FFE4838E.png"  transform="matrix(0.24 0 0 0.24 463.1712 314.5247)">
		</image>
		<g>
			<circle class="st27" cx="478.8" cy="330.1" r="10.6"/>
		</g>
	</g>
	<g>
		
			<image style="overflow:visible;opacity:0.1;" width="139" height="139" xlink:href="DFC3EA68FFE4838C.png"  transform="matrix(0.24 0 0 0.24 463.1712 471.6451)">
		</image>
		<g>
			<circle class="st34" cx="478.8" cy="487.2" r="10.6"/>
		</g>
	</g>
	<g>
		<path class="st4" d="M701.5,479.1h-15.2c-2.3,0-4.2-1.9-4.2-4.2l0,0c0-2.3,1.9-4.2,4.2-4.2h15.2c2.3,0,4.2,1.9,4.2,4.2l0,0
			C705.8,477.2,703.9,479.1,701.5,479.1z"/>
		<rect x="680.2" y="472.1" class="st4" width="27.6" height="7.3"/>
		<text transform="matrix(1 0 0 1 686.5985 476.5265)" class="st2 st62 st63">Game</text>
	</g>
	<g>
		<circle class="st22" cx="464" cy="542.2" r="23.2"/>
		<g>
			<g>
				<path class="st18" d="M463.2,553.3c-0.3,0-0.6-0.1-0.8-0.2c-0.4-0.3-0.7-0.7-0.7-1.3c0-1.8-0.7-3.4-2-4.6c-1.1-1-2.5-1.5-4-1.5
					c-0.3,0-0.5,0-0.8,0.1c-0.1,0-0.1,0-0.2,0c-0.4,0-0.9-0.2-1.1-0.5c-0.3-0.4-0.4-0.9-0.3-1.4c0.3-1,0.8-2,1.6-2.8
					c1.5-1.7,3.6-2.6,5.8-2.6c0.4,0,0.9,0,1.3,0.1l3.7-4.2c0.8-0.9,1.7-1.5,2.7-2l3.8-1.8c0.6-0.3,1.4-0.2,1.9,0.3
					c0.5,0.5,0.7,1.2,0.5,1.9l-1.3,4c-0.3,1.1-0.9,2.1-1.7,2.9l-3.7,4.2c0.8,2.6,0.2,5.3-1.6,7.4c-0.7,0.8-1.6,1.5-2.6,1.9
					C463.6,553.2,463.4,553.3,463.2,553.3z M455.7,544.2c1.8,0,3.6,0.7,5,1.9c1.6,1.4,2.6,3.5,2.6,5.7c0.8-0.4,1.4-0.9,2-1.5
					c1.5-1.7,1.9-4.1,1.1-6.2l-0.2-0.4l4.3-4.9c0.6-0.7,1.1-1.5,1.3-2.4l1.3-4c0-0.1,0-0.2-0.1-0.2c-0.1-0.1-0.2-0.1-0.3,0l-3.8,1.8
					c-0.8,0.4-1.6,0.9-2.2,1.6l-4.3,4.9l-0.5-0.1c-0.5-0.1-1-0.2-1.4-0.2c-1.8,0-3.4,0.8-4.6,2.1c-0.6,0.6-1,1.4-1.2,2.2
					C455,544.2,455.4,544.2,455.7,544.2z"/>
			</g>
			<path class="st18" d="M457.6,548.1c0-0.2-0.1-0.4-0.3-0.5c-0.1-0.1-0.3-0.2-0.5-0.2c-0.2,0-0.4,0.1-0.6,0.3l-2.6,3
				c-0.1,0.2-0.2,0.4-0.2,0.6c0,0.2,0.1,0.4,0.3,0.5c0.3,0.3,0.8,0.2,1.1-0.1l2.6-3C457.6,548.5,457.7,548.3,457.6,548.1z"/>
			<path class="st18" d="M459.1,549.3c-0.2,0-0.4,0.1-0.6,0.3l-2.6,3c-0.1,0.2-0.2,0.4-0.2,0.6c0,0.2,0.1,0.4,0.3,0.5
				c0.3,0.3,0.8,0.2,1.1-0.1l2.6-3c0.1-0.2,0.2-0.4,0.2-0.6c0-0.2-0.1-0.4-0.3-0.5C459.4,549.4,459.3,549.3,459.1,549.3z"/>
			<circle class="st18" cx="468.5" cy="537.2" r="1.3"/>
		</g>
	</g>
	<g>
		<path class="st4" d="M481.3,577H447c-2.3,0-4.2-1.9-4.2-4.2v0c0-2.3,1.9-4.2,4.2-4.2h34.3c2.3,0,4.2,1.9,4.2,4.2v0
			C485.6,575.1,483.7,577,481.3,577z"/>
		<rect x="440.8" y="570" class="st4" width="46.4" height="6.4"/>
		<text transform="matrix(1 0 0 1 445.5262 574.4297)" class="st2 st62 st63">Productivity</text>
	</g>
	<circle class="st30" cx="271" cy="481.7" r="23.2"/>
	<g>
		<g>
			<g>
				<g>
					<path class="st18" d="M281.6,477.6c1.1-2.3,0.4-4.8-1.6-6.3c-0.2-0.1-0.4-0.1-0.6,0c-2.1,1.4-2.8,4-1.6,6.3
						c0.1,0.2,0.3,0.3,0.5,0.3c1,0,1.9,0,2.9,0c0.7,0,0.7-1.1,0-1.1c-1,0-1.9,0-2.9,0c0.2,0.1,0.3,0.2,0.5,0.3
						c-0.8-1.7-0.3-3.6,1.2-4.7c-0.2,0-0.4,0-0.6,0c1.6,1.1,2.1,3,1.2,4.7C280.3,477.7,281.3,478.3,281.6,477.6z"/>
					<path class="st18" d="M281.1,477.9c0.7,0,0.7-1.1,0-1.1C280.4,476.8,280.4,477.9,281.1,477.9L281.1,477.9z"/>
				</g>
				<path class="st18" d="M269.9,492.5L269.9,492.5c-4.6,0-8.6-3.1-9.8-7.5c-0.7-2.6-0.3-5.4,1-7.7c1.4-2.3,3.6-4,6.2-4.7
					c0.2-0.1,0.4-0.1,0.6-0.1c1.5-0.3,3.1,0.2,4.2,1.4c0.9,0.9,1.3,2.1,1.2,3.4c-0.2,1.8-0.1,3.2,0.2,4.2c0.3,1.1,0.9,2.3,1.9,3.8
					c0.8,1.2,1,2.6,0.6,4c-0.4,1.4-1.5,2.4-2.8,2.8c-0.2,0.1-0.4,0.1-0.6,0.2C271.7,492.3,270.8,492.5,269.9,492.5z M268.8,473.4
					c-0.2,0-0.4,0-0.7,0.1c-0.2,0-0.4,0.1-0.6,0.1c-2.3,0.6-4.3,2.1-5.5,4.2c-1.2,2.1-1.5,4.5-0.9,6.9c1.1,3.9,4.6,6.7,8.7,6.7h0
					c0.8,0,1.6-0.1,2.3-0.3c0.2,0,0.4-0.1,0.5-0.2c1-0.3,1.8-1.1,2.1-2.1c0.3-1,0.2-2.1-0.4-3c-1.1-1.6-1.8-2.9-2.1-4.1
					c-0.3-1.2-0.4-2.7-0.2-4.6c0.1-0.9-0.2-1.9-0.9-2.6C270.6,473.8,269.7,473.4,268.8,473.4z"/>
			</g>
			<path class="st18" d="M279.7,492c-0.7,0-1.2-0.5-1.3-1.2l-0.9-9.4c0-0.2,0-0.5,0.2-0.7c0.1-0.2,0.3-0.3,0.8-0.4
				c0.1,0,0.2,0,0.8,0c0.7,0,1.5,0,1.5,0h0c0.5,0,1,0.3,1,1l0,0l-0.8,9.5C280.9,491.5,280.3,492,279.7,492z M278.7,481.4l0.8,9.3
				c0,0.1,0.1,0.1,0.2,0.1c0.1,0,0.1-0.1,0.2-0.1l0.8-9.3c-0.3,0-0.9,0-1.4,0C278.9,481.4,278.8,481.4,278.7,481.4z"/>
		</g>
		<path class="st18" d="M278.2,479.7c1,0,1.9,0,2.9,0c0.7,0,0.7-1.1,0-1.1c-1,0-1.9,0-2.9,0C277.5,478.5,277.5,479.7,278.2,479.7
			L278.2,479.7z"/>
		<circle class="st18" cx="266.8" cy="477.3" r="1.1"/>
		<circle class="st18" cx="264.1" cy="481" r="1.1"/>
		<circle class="st18" cx="265.2" cy="485.8" r="1.1"/>
		<circle class="st18" cx="269.5" cy="488.3" r="1.1"/>
	</g>
	<g>
		<path class="st4" d="M295.8,515.5h-47.5c-2.3,0-4.2-1.9-4.2-4.2l0,0c0-2.3,1.9-4.2,4.2-4.2h47.5c2.3,0,4.2,1.9,4.2,4.2l0,0
			C300,513.6,298.2,515.5,295.8,515.5z"/>
		<g>
			<rect x="244.1" y="508.5" class="st4" width="55.9" height="6.4"/>
			<text transform="matrix(1 0 0 1 248.33 512.9395)" class="st2 st62 st63">Graphics&amp;Design</text>
		</g>
	</g>
	<g>
		<circle class="st27" cx="421.4" cy="330.3" r="23.2"/>
		<g>
			<g>
				<path class="st18" d="M427.1,335.8c1,0,2.1-0.4,2.9-1.1c0.7-0.6,1.2-1.5,1.3-2.3l0,0c0,0,0,0,0,0v-11.1c0-0.4-0.4-0.8-0.9-0.8
					h-11.9c-0.5,0-0.9,0.3-0.9,0.8v12.9l-0.4-0.1c-0.2,0-0.4-0.1-0.6-0.1c-1,0-2.1,0.4-2.9,1.1c-1.5,1.2-1.7,3.1-0.5,4.1
					c0.5,0.4,1.2,0.6,1.9,0.6c1,0,2.1-0.4,2.9-1.1c0.8-0.7,1.2-1.5,1.3-2.4l0-0.1c0,0,0-0.1,0-0.1v-10.6h10.2v4.6l-0.4-0.1
					c-0.2,0-0.4,0-0.6,0c-1,0-2.1,0.4-2.9,1.1c-1.5,1.2-1.7,3.1-0.5,4.1C425.6,335.6,426.3,335.8,427.1,335.8z M428,324.2h-7.8
					c-0.4,0-0.8-0.2-1-0.6l0,0v-0.5l0,0c0.1-0.4,0.5-0.6,1-0.6h7.8c0.6,0,1,0.4,1,0.9C429,323.8,428.6,324.2,428,324.2z"/>
			</g>
		</g>
	</g>
	<g>
		<path class="st4" d="M429,364h-15.2c-2.3,0-4.2-1.9-4.2-4.2v0c0-2.3,1.9-4.2,4.2-4.2H429c2.3,0,4.2,1.9,4.2,4.2v0
			C433.2,362.1,431.3,364,429,364z"/>
		<g>
			<rect x="407.6" y="357.1" class="st4" width="27.6" height="6.4"/>
			<text transform="matrix(1 0 0 1 413.2269 361.4962)" class="st2 st62 st63">Music</text>
		</g>
	</g>
	<g>
		<path class="st26" d="M769.9,455.8v8.4l2.5-1.1l1.7,3.9l1.4-0.7l-1.7-3.9l2.4-1L769.9,455.8z M769.9,455.8"/>
	</g>
	<path class="st5" d="M129.3,155.8c-0.8-0.7-1.8-1.1-2.9-1.1s-2.1,0.4-2.9,1.1c-0.8,0.7-1.2,1.7-1.2,2.7c0,1.1,0.4,2,1.2,2.7
		c0.8,0.7,1.8,1.1,2.9,1.1s2.1-0.4,2.9-1.1c0.8-0.7,1.2-1.7,1.2-2.7C130.5,157.5,130.1,156.5,129.3,155.8z M129.1,164.7
		c-0.7-0.6-1.7-1-2.7-1c-1,0-2.1,0.3-2.8,1c-0.7,0.7-1.3,1.5-1.3,2.4v17.4c0,1,0.5,1.8,1.3,2.5c0.7,0.6,1.7,1,2.7,1c1,0,2-0.3,2.8-1
		c0.7-0.7,1.2-1.5,1.2-2.5v-17.4C130.3,166.2,129.8,165.4,129.1,164.7z M153.3,167.1c0-1-0.7-1.8-1.4-2.5c-0.7-0.6-1.7-0.9-2.7-0.9
		c-0.7,0-1.5,0.2-2.2,0.6c-0.7,0.4-1.2,1-1.5,1.8l-2.3,7.4c-0.3,1.1-0.6,2.3-0.8,3.4c-0.2-1.1-0.5-2.3-0.8-3.4l-2.4-7.4
		c-0.3-0.7-0.7-1.3-1.4-1.8c-0.7-0.4-1.4-0.6-2.1-0.6c-1,0-1.6,0.3-2.4,0.9c-0.8,0.6-1,1.5-1,2.5v0.4c0,0.2-0.1,0.4,0,0.6l6.1,16.9
		c0.4,1,0.8,1.8,1.5,2.3c0.7,0.5,1.5,0.8,2.7,0.8c1.1,0,2-0.3,2.6-0.8c0.6-0.5,1.1-1.3,1.5-2.4l6.3-16.8c0.1-0.2,0.4-0.4,0.4-0.6
		V167.1z M205.2,164.6c-0.8-0.6-1.6-0.9-2.5-0.9c-0.7,0-1.4,0.2-2.1,0.5c-0.7,0.4-1.2,1-1.5,1.8l-2.4,7.4c-0.2,0.7-0.4,1.5-0.6,2.2
		c-0.2-0.8-0.4-1.6-0.7-2.3l-2.8-7.4c-0.3-0.8-0.8-1.4-1.4-1.7c-0.6-0.4-1.3-0.6-2-0.6c-1,0-1.9,0.3-2.6,0.9
		c-0.8,0.6-1.1,1.4-1.1,2.4c0,0.2,0,0.4,0.1,0.6c0,0.2,0.1,0.5,0.2,0.8l6.7,17.3c-0.5,1.5-1,2.6-1.5,3.3c-0.4,0.6-1,0.9-1.8,0.9
		c-1.1,0.1-2,0.4-2.6,1.1c-0.7,0.6-1,1.4-1,2.3c0,1,0.4,1.8,1.1,2.4c0.7,0.6,1.6,0.9,2.7,0.9c1.8,0,3.3-0.3,4.5-1
		c1.2-0.7,2.2-1.6,3.1-2.8c0.8-1.1,1.5-2.5,2.1-4.1c0.6-1.5,1.2-3.2,1.8-5l5.4-15.7c0.1-0.3,0.2-0.6,0.2-1
		C206.5,166.1,206.1,165.3,205.2,164.6z M118,182.9c-0.3-0.3,0-0.5,0-0.5c0-0.1,0.3-0.3,0.3-0.8v-23.8c0-1-0.7-1.8-1.5-2.5
		c-0.7-0.6-1.8-1-2.8-1c-1,0-1.9,0.3-2.6,1c-0.7,0.7-1.1,1.5-1.1,2.4v24.3c0,1.3,0,2.2,0.4,3c0.3,0.8,0.7,1.4,1.2,1.9
		c0.5,0.4,1,0.7,1.7,0.9c0.5,0.1,1.1,0.2,1.5,0.2c1.2,0,2.1-0.2,2.8-0.7c0.8-0.5,1.2-1.3,1.2-2.4c0-0.6-0.1-1-0.4-1.3
		C118.5,183.4,118.3,183.1,118,182.9z M183.9,182.9c-0.3-0.3-0.5-0.5-0.5-0.5c0-0.1-0.1-0.3-0.1-0.8v-23.8c0-1-0.3-1.8-1-2.5
		c-0.7-0.6-1.6-1-2.6-1c-1,0-1.7,0.3-2.5,1c-0.7,0.7-0.9,1.5-0.9,2.4v24.3c0,1.3,0,2.2,0.3,3c0.3,0.8,0.6,1.4,1.1,1.9
		c0.5,0.4,1,0.7,1.7,0.9c0.5,0.1,1,0.2,1.5,0.2c1.2,0,2.1-0.2,2.8-0.7c0.8-0.5,1.2-1.3,1.2-2.4c0-0.6-0.1-1-0.4-1.3
		C184.4,183.4,184.2,183.1,183.9,182.9z M162.4,179.2c0.5,0,1.2,0.1,1.8,0.1c3.2,0,5.5-0.7,7-1.9c1.5-1.3,2.3-3.2,2.3-5.5
		c0-2.4-0.8-4.4-2.4-5.9c-1.6-1.5-3.9-2.3-7-2.3c-1.6,0-3,0.2-4.3,0.6c-1.3,0.4-2.3,1-3.2,1.8c-0.9,0.8-1.4,1.7-1.8,2.8
		c-0.4,1-0.5,2.2-0.5,3.4v7.4c0,1.2,0.1,2.3,0.5,3.3c0.5,1,1,1.9,1.9,2.7c0.8,0.8,1.8,1.3,3.1,1.8c1.2,0.4,2.6,0.6,4.1,0.6
		c0.7,0,1.6-0.1,2.6-0.2c1-0.1,2-0.3,2.9-0.7c1-0.3,1.8-0.8,2.5-1.3c0.8-0.6,1.2-1.5,1.2-2.4c0-0.3-0.1-0.7-0.2-1
		c-0.1-0.4-0.3-0.7-0.6-1c-0.3-0.3-0.6-0.6-1.1-0.8c-0.4-0.2-1-0.3-1.6-0.3c-0.5,0-0.8,0-1.1,0.1c-0.2,0.1-0.4,0.1-0.6,0.2
		c-0.7,0.3-1.3,0.5-1.8,0.7c-0.6,0.1-1.2,0.2-1.8,0.2c-1,0-1.9-0.2-2.3-0.5c-0.4-0.3-0.7-0.7-0.7-1.3v-0.7
		C161.3,179.1,162.1,179.2,162.4,179.2z M161.3,171.9c0-0.7,0.3-1.2,0.7-1.6c0.4-0.4,1.1-0.6,2-0.6c0.7,0,1.2,0.1,1.5,0.4
		c0.3,0.2,0.4,0.7,0.4,1.4c0,0.7-0.1,1.2-0.4,1.4c-0.4,0.3-0.9,0.4-1.6,0.4c-0.2,0-0.7,0-1.3,0c-0.4,0-1.4,0-1.4-0.1V171.9z
		 M231.1,157.9c0,0,0.6,0,0.6-0.1c0,0,0.6,0,0.6,0v0c-1-0.4-0.9-0.7-1.1-1.1c-0.2-0.2-0.7-0.4-0.9-0.6c0,0-0.2,0-0.2,0l-1.9-1.3
		c-0.1-0.1-0.3-0.2-0.4-0.3c-0.4-0.4-0.8-0.9-0.8-1.5c0-0.5,0.3-1.1,0.8-1.5c0.1-0.1,0.2-0.2,0.3-0.3l1.8-1.3c0,0,0,0,0.1,0
		c0.2-0.2,1-0.4,1.2-0.6c0.3-0.3,0.1-0.7,1.1-1.1v0c0-0.4-0.5-0.7-0.5-1.1c-0.1-0.7-0.6-1.4-1-2c-0.2-0.3-0.5-0.5-0.8-0.8
		c0,0-0.1,0-0.1,0c-0.2-0.2-0.4-0.4-0.6-0.5c0,0,0,0,0,0c-0.7-0.5-1.7-0.7-2.6-0.5c0,0,0,0,0,0c0,0,0,0,0,0
		c-0.4,0.1-0.8,0.2-1.1,0.5c0,0-2,1.5-2,1.5c-0.1,0-0.1,0.1-0.2,0.1c-0.5,0.3-1.2,0.5-1.8,0.2c-0.4-0.2-0.8-0.7-1-1.2
		c-0.3-0.8-0.5-1.7-0.8-2.5c-0.1-0.3-0.2-0.5-0.4-0.7c-0.1-0.1-0.2-0.3-0.3-0.4c-0.2-0.3-0.5-0.5-0.8-0.7c-0.3-0.2-0.6-0.3-0.9-0.4
		c-0.2,0-0.4,0-0.6,0c-0.2,0-0.4,0-0.6,0c-0.3,0-0.6,0.1-1,0.2c0,0,0,0-0.1,0c0,0,0,0,0,0c-0.5,0.2-1,0.4-1.4,0.7c0,0,0,0,0,0
		c-0.8,0.6-1.3,1.5-1.3,2.6c0,0.3,0,0.7,0.1,1l0.8,2.3c0,0.1,0.1,0.2,0.1,0.3c0.1,0.5,0,1.1-0.2,1.5c-0.3,0.6-1.1,0.8-1.8,0.8
		l-2.4,0c-0.4,0-0.8,0.1-1.2,0.2c-1,0.4-1.4,1.2-1.7,2.2c-0.1,0.4,0.1,0.8,0.1,1.3v0c0,0.4-0.2,0.8-0.1,1.3c0.3,1,0.8,1.9,1.8,2.2
		c0.4,0.2,0.7,0.2,1.1,0.2l2.4,0c0.7,0,1.4,0.2,1.8,0.8c0.2,0.4,0.3,1,0.2,1.5c0,0.1-0.1,0.2-0.1,0.3l-0.8,2.3
		c-0.1,0.3-0.1,0.7-0.1,1c0,1,0.5,1.9,1.3,2.6c0,0,0,0,0,0c0.1,0.1,0.2,0.2,0.4,0.2c0.6,0.4,1.3,0.6,2,0.7c0.4,0,0.8,0.1,1.2,0
		c0.3-0.1,0.7-0.2,0.9-0.4c0.3-0.2,0.6-0.4,0.8-0.7c0.1-0.1,0.2-0.3,0.3-0.4c0.1-0.2,0.3-0.4,0.4-0.7c0,0,0.7-2.3,0.7-2.3
		c0.2-0.5,0.5-1,1-1.3c0,0,0,0,0,0c0.6-0.3,1.3-0.2,1.8,0.2c0.1,0,0.1,0.1,0.2,0.1l2,1.5c0.3,0.3,0.8,0.1,1.2,0.2
		c0.2,0,0.4-0.3,0.5-0.3h0c0.7,0,1.4,0.2,2-0.2c0,0,0,0.2,0,0.2c0.1-0.1,0.3-0.1,0.4-0.3c0.2-0.2,0.4-0.3,0.6-0.6c0,0,0,0,0,0
		c0.3-0.4,0.6-0.8,0.7-1.3c0,0,0-0.1,0-0.1c0.1-0.2,0.1-0.5,0.1-0.7C231.2,158.5,231.2,158.2,231.1,157.9z"/>
	<g>
		<circle class="st1" cx="545.7" cy="443.4" r="21.3"/>
		<path class="st5" d="M542.8,429.6c-0.2,0-0.4,0-0.6,0.1c-0.3,0-0.7,0.1-1,0.2c0,0,0,0-0.1,0c0,0,0,0,0,0c-0.5,0.2-1,0.4-1.4,0.8
			c0,0,0,0,0,0c-0.8,0.7-1.4,1.6-1.3,2.7c0,0.3,0,0.7,0.1,1l0.8,2.5c0,0.1,0.1,0.2,0.1,0.3c0.1,0.6,0,1.1-0.2,1.6
			c-0.3,0.6-1.2,0.9-1.9,0.9l-2.6,0c-0.4,0-0.9,0.1-1.2,0.3c-1,0.4-1.7,1.3-2,2.4c-0.1,0.4-0.1,0.9-0.1,1.3v0c0,0.5,0,0.9,0.1,1.3
			c0.3,1.1,0.9,2,2,2.4c0.4,0.2,0.8,0.3,1.2,0.3l2.6,0c0.7,0,1.4,0.3,1.9,0.9c0.3,0.5,0.3,1,0.2,1.6c0,0.1-0.1,0.2-0.1,0.3l-0.8,2.5
			c-0.1,0.3-0.2,0.7-0.1,1c0,1.1,0.5,2,1.3,2.7c0,0,0,0,0,0c0.1,0.1,0.3,0.2,0.4,0.3c0.6,0.4,1.4,0.7,2.2,0.7c0.4,0.1,0.9,0.1,1.3,0
			c0.3-0.1,0.7-0.2,1-0.4c0.3-0.2,0.6-0.4,0.8-0.7c0.1-0.1,0.2-0.3,0.3-0.4c0.2-0.2,0.3-0.5,0.4-0.8c0,0,0.8-2.5,0.8-2.5
			c0.2-0.6,0.6-1.1,1.1-1.4c0,0,0,0,0,0c0.6-0.3,1.4-0.2,1.9,0.2c0.1,0,0.1,0.1,0.2,0.2l2.1,1.5c0.4,0.3,0.6,0.5,1.2,0.8
			c0.2,0.1,1.2,0.7,2.7-0.5c0,0,0.5-0.6,0.5-0.6c0.2-0.2,0.6-0.7,0.6-0.7c1-1.4,1.4-1.4,1.4-1.4c0.6-1.2,0.7-2.1,0.7-2.1v0
			c0-0.8-0.9-0.8-1.2-1.1c-0.2-0.2-1-0.7-1.1-0.7l-2.1-1.4c-0.1-0.1-0.3-0.2-0.4-0.3c-0.5-0.4-0.8-1-0.9-1.6c0-0.6,0.3-1.2,0.8-1.6
			c0.1-0.1,0.2-0.2,0.4-0.3l1.9-1.4c0,0,0,0,0.1,0c0.2-0.2,0.6-0.4,0.8-0.7c0.3-0.3,0.5-0.5,0.7-1.1c0,0,0.1-0.4,0-1.2
			c-0.1-0.7-0.4-1.5-0.8-2.1c-0.2-0.3-0.4-0.6-0.7-0.8c0,0,0,0,0,0c-0.2-0.2-0.4-0.4-0.7-0.5c0,0,0,0,0,0c-0.8-0.6-1.8-0.7-2.7-0.5
			c0,0,0,0,0,0s0,0,0,0c-0.4,0.1-0.8,0.3-1.1,0.5c0,0-2.1,1.5-2.1,1.5c-0.1,0.1-0.1,0.1-0.2,0.2c-0.6,0.3-1.3,0.5-1.9,0.2
			c-0.5-0.3-0.9-0.7-1-1.2c-0.3-0.9-0.6-1.8-0.8-2.6c-0.1-0.3-0.2-0.5-0.4-0.8c-0.1-0.1-0.2-0.3-0.3-0.4c-0.2-0.3-0.5-0.5-0.8-0.7
			c-0.3-0.2-0.7-0.3-1-0.4C543.3,429.6,543.1,429.6,542.8,429.6z"/>
	</g>
	<circle class="st35" cx="151.4" cy="245.7" r="10"/>
	<circle class="st35" cx="151.4" cy="273.8" r="10"/>
	<rect x="170.5" y="242.4" class="st64" width="70.5" height="23.3"/>
	<text transform="matrix(1 0 0 1 170.472 250.1427)" class="st8 st62 st65">PROJECTS</text>
	<g>
		<rect x="170.5" y="269.4" class="st4" width="82.6" height="23.3"/>
		<text transform="matrix(1 0 0 1 170.472 277.1212)" class="st7 st62 st65">ACTIVE SESSIONS</text>
	</g>
	<circle class="st35" cx="151.4" cy="301.5" r="10"/>
	<g>
		<rect x="170.5" y="297.2" class="st4" width="82.6" height="23.3"/>
		<text transform="matrix(1 0 0 1 170.472 304.8724)" class="st7 st62 st65">Users Map</text>
	</g>
	<circle class="st35" cx="911" cy="245.3" r="10"/>
	<path class="st9" d="M909.8,246.3c0.1,0.1,0.2,0.3,0.2,0.4v4.5c0,0.3,0.3,0.4,0.5,0.2l1.3-1.4c0.2-0.2,0.3-0.3,0.3-0.5v-2.8
		c0-0.2,0.1-0.3,0.2-0.4l3.6-3.9c0.3-0.3,0.1-0.8-0.3-0.8h-9c-0.4,0-0.6,0.5-0.3,0.8L909.8,246.3z M909.8,246.3"/>
	<path class="st57" d="M883.3,255.3H725.8c-5.5,0-10-4.5-10-10v0c0-5.5,4.5-10,10-10h157.5c5.5,0,10,4.5,10,10v0
		C893.3,250.8,888.8,255.3,883.3,255.3z"/>
	<g>
		<path class="st11" d="M734.4,250.7c0.4,0.4,0.4,0.9,0,1.2c-0.4,0.3-0.9,0.3-1.2,0l-3.4-3.4c-0.9,0.6-1.9,1-3,1
			c-2.9,0-5.2-2.3-5.2-5.2c0-2.9,2.3-5.2,5.2-5.2c2.9,0,5.2,2.3,5.2,5.2c0,1.1-0.4,2.1-1,3L734.4,250.7L734.4,250.7z M726.7,248.3
			c2.2,0,4-1.8,4-4s-1.8-4-4-4s-4,1.8-4,4S724.5,248.3,726.7,248.3L726.7,248.3z M726.7,248.3"/>
	</g>
	<circle class="st5" cx="151.4" cy="245.7" r="4.6"/>
	<g>
		<rect x="771.3" y="169.6" class="st64" width="64.4" height="23.3"/>
		<text transform="matrix(1 0 0 1 784.5009 179.1602)" class="st2 st62 st66">ABOUT</text>
		<rect x="688.8" y="169.6" class="st64" width="86.2" height="23.3"/>
		<text transform="matrix(1 0 0 1 700.7396 179.1602)" class="st2 st62 st66">TUTORIALS</text>
		<rect x="614.6" y="169.6" class="st64" width="82.9" height="23.3"/>
		<text transform="matrix(1 0 0 1 633.7982 179.147)" class="st56 st67 st66">CREATE</text>
		<g>
			<rect x="857.7" y="169.6" class="st4" width="82.9" height="23.3"/>
			<text transform="matrix(1 0 0 1 880.3729 178.4273)" class="st2 st62 st68">SIGN IN</text>
		</g>
		<g>
			<circle class="st4" cx="634.4" cy="174.5" r="2"/>
			<circle class="st4" cx="718.5" cy="174.5" r="2"/>
			<circle class="st4" cx="870.5" cy="174.5" r="2"/>
		</g>
	</g>
	<path class="st61" d="M675.9,184.8h-38.7c-6,0-10.9-4.9-10.9-10.9v0c0-6,4.9-10.9,10.9-10.9h38.7c6,0,10.9,4.9,10.9,10.9v0
		C686.8,179.9,681.9,184.8,675.9,184.8z"/>
	<g>
		<g>
			
				<image style="overflow:visible;opacity:0.15;" width="937" height="652" xlink:href="DFC3EA68FFE483B2.png"  transform="matrix(0.24 0 0 0.24 695.3601 286.8126)">
			</image>
			<g>
				<path class="st0" d="M896.7,423.1h-184c-3,0-5.4-2.4-5.4-5.4V302.2c0-3,2.4-5.4,5.4-5.4h184c3,0,5.4,2.4,5.4,5.4v115.6
					C902.1,420.7,899.7,423.1,896.7,423.1z"/>
			</g>
		</g>
		<path class="st0" d="M900.3,317.2c0-2.1-2.6-4.2-4.8-4.2H714c-0.7,0-1.2,0.4-1.8,0.7c-1.2,0.7-1.9,2.1-1.9,3.6v40.7v55.5v3.1
			c0,2.2,1.6,3.5,3.8,3.5h181.3c2.2,0,4.9-1.3,4.9-3.5V410V317.2z"/>
		<g>
			<circle class="st5" cx="893.5" cy="305.8" r="4.3"/>
			<g>
				<path class="st18" d="M895.3,308.1c-0.1,0-0.2,0-0.3-0.1l-3.7-3.7c-0.2-0.2-0.2-0.4,0-0.6c0.2-0.2,0.4-0.2,0.6,0l3.7,3.7
					c0.2,0.2,0.2,0.4,0,0.6C895.5,308,895.4,308.1,895.3,308.1z"/>
				<path class="st18" d="M891.6,308.1c-0.1,0-0.2,0-0.3-0.1c-0.2-0.2-0.2-0.4,0-0.6l3.7-3.7c0.2-0.2,0.4-0.2,0.6,0
					c0.2,0.2,0.2,0.4,0,0.6l-3.7,3.7C891.8,308,891.7,308.1,891.6,308.1z"/>
			</g>
		</g>
		<rect x="726.9" y="305.1" class="st4" width="73.3" height="7.3"/>
		<text transform="matrix(1 0 0 1 726.8538 309.7896)"><tspan x="0" y="0" class="st18 st69 st70">Pon</tspan><tspan x="12.9" y="0" class="st18 st69 st70">g</tspan></text>
		<path class="st0" d="M893,418.6h-67.2c-3.6,0-6.5-2.9-6.5-6.5l0,0c0-3.6,2.9-6.5,6.5-6.5H893c3.6,0,6.5,2.9,6.5,6.5l0,0
			C899.5,415.7,896.6,418.6,893,418.6z"/>
		<g>
			<g>
				<path class="st18" d="M884,416.2l-0.6-0.6c-2.1-1.8-3.4-3-3.4-4.5c0-1.2,0.9-2.2,2.2-2.2c0.7,0,1.3,0.3,1.8,0.8
					c0.4-0.5,1.1-0.8,1.8-0.8c1.2,0,2.2,0.9,2.2,2.2c0,1.5-1.3,2.7-3.4,4.5L884,416.2z M884,416.2"/>
			</g>
		</g>
		<g>
			<rect x="827.8" y="409.6" class="st4" width="13.5" height="9.8"/>
			<text transform="matrix(1 0 0 1 827.8362 414.858)" class="st18 st69 st71">121</text>
		</g>
		<g>
			<rect x="860.3" y="409.6" class="st4" width="16.3" height="9.8"/>
			<text transform="matrix(1 0 0 1 860.2664 414.858)" class="st18 st69 st71">1134</text>
		</g>
		<g>
			<g>
				<path class="st18" d="M849.3,409.6c-3.3,0-5.1,2.4-5.1,2.8c0,0.4,1.7,2.8,5.1,2.8c3.3,0,5.1-2.4,5.1-2.8
					C854.4,412.1,852.6,409.6,849.3,409.6L849.3,409.6z M849.3,414.6c-1.2,0-2.2-1-2.2-2.2c0-1.2,1-2.2,2.2-2.2c1.2,0,2.2,1,2.2,2.2
					C851.5,413.7,850.5,414.6,849.3,414.6L849.3,414.6z M850.4,412.5c0,0.6-0.5,1.1-1.1,1.1c-0.6,0-1.1-0.5-1.1-1.1
					c0-0.6,0.5-1.1,1.1-1.1c0.3,0-0.2,0.9,0,1.1C849.5,412.7,850.4,412.2,850.4,412.5L850.4,412.5z M850.4,412.5"/>
			</g>
		</g>
		<g>
			<circle class="st21" cx="719.9" cy="411.7" r="6.3"/>
			<g>
				<path class="st36" d="M719.9,404.7c-3.9,0-7,3.1-7,7c0,3.9,3.1,7,7,7c3.9,0,7-3.1,7-7C726.9,407.8,723.7,404.7,719.9,404.7
					L719.9,404.7z M719.9,406.8c1.3,0,2.3,1,2.3,2.3c0,1.3-1,2.3-2.3,2.3c-1.3,0-2.3-1-2.3-2.3C717.6,407.8,718.6,406.8,719.9,406.8
					L719.9,406.8z M719.9,416.8c-1.3,0-2.4-0.5-3.3-1.2c-0.2-0.2-0.3-0.5-0.3-0.7c0-1.3,1-2.3,2.3-2.3h2.7c1.3,0,2.3,1,2.3,2.3
					c0,0.3-0.1,0.6-0.3,0.7C722.3,416.4,721.1,416.8,719.9,416.8L719.9,416.8z M719.9,416.8"/>
			</g>
		</g>
		<rect x="732.5" y="409.4" class="st4" width="87.8" height="13"/>
		<text transform="matrix(1 0 0 1 732.5408 414.6734)" class="st18 st69 st71">Camila</text>
		<g>
			<circle class="st29" cx="716.6" cy="307.7" r="5.7"/>
			<g>
				<path class="st18" d="M719.9,308.4c0,0,0-0.1,0-0.1c0-0.1,0-0.2-0.1-0.3c0-0.1,0-0.2-0.1-0.3c0-0.1,0-0.2-0.1-0.3
					c-0.1-0.3-0.1-0.6-0.3-0.9c-0.1-0.2-0.3-0.4-0.6-0.5c-0.3-0.1-0.5-0.2-0.8-0.2c-0.2,0-0.3,0-0.5,0.1c-0.2,0-0.3,0.1-0.4,0.2
					c-0.1,0.1-0.2,0.1-0.3,0.1c-0.1,0-0.1,0-0.2,0c-0.2,0-0.3-0.1-0.4-0.1c-0.1-0.1-0.2-0.1-0.4-0.2c-0.1,0-0.3,0-0.4,0
					c-0.1,0-0.1,0-0.2,0c-0.5,0-1,0.3-1.2,0.7c-0.2,0.3-0.2,0.6-0.3,0.9c0,0.1,0,0.2-0.1,0.3l-0.1,0.3c0,0.1-0.1,0.2-0.1,0.3
					c0,0.1,0,0.1,0,0.2c0,0.2-0.1,0.3-0.1,0.5l0,0v0c0,0.3,0.1,0.5,0.4,0.7c0.2,0.2,0.5,0.3,0.8,0.3c0.2,0,0.3,0,0.5-0.1
					c0.3-0.1,0.4-0.3,0.5-0.5l0,0c0,0,0.1-0.1,0.1-0.1c0-0.1,0.1-0.2,0.2-0.2c0.1,0,0.1,0,0.2,0c0.1,0,0.2,0,0.3,0
					c0.1,0,0.2,0,0.4,0c0.1,0,0.2,0,0.3,0c0.1,0,0.2,0,0.3,0c0.1,0,0.2,0,0.2,0c0,0,0,0,0.1,0.1c0,0.1,0.1,0.1,0.1,0.2
					c0,0,0,0.1,0.1,0.1l0,0.1c0.1,0.2,0.3,0.4,0.6,0.5c0.1,0.1,0.3,0.1,0.4,0.1c0.2,0,0.5-0.1,0.7-0.2c0.2-0.1,0.3-0.3,0.4-0.5
					c0-0.1,0.1-0.2,0.1-0.3C720,308.7,719.9,308.6,719.9,308.4L719.9,308.4z M719.6,309.1c-0.1,0.3-0.6,0.6-1.1,0.4
					c-0.2-0.1-0.3-0.3-0.4-0.4c-0.1-0.1-0.2-0.4-0.4-0.4c-0.2-0.1-0.7,0-1,0c-0.4,0-0.7-0.1-1,0c-0.2,0.1-0.3,0.3-0.4,0.4
					c-0.1,0.1-0.2,0.3-0.4,0.4c-0.5,0.2-1.1-0.1-1.1-0.6c0-0.2,0.1-0.4,0.1-0.6c0-0.2,0.1-0.4,0.1-0.6c0.1-0.4,0.1-0.8,0.3-1.1
					c0.2-0.3,0.6-0.5,1-0.5c0.1,0,0.4,0,0.5,0c0.4,0.1,0.5,0.4,1.2,0.3c0.3,0,0.5-0.3,0.7-0.3c0.6-0.2,1.3,0.2,1.5,0.6
					c0.2,0.3,0.2,0.7,0.3,1.1c0,0.2,0.1,0.4,0.1,0.6C719.6,308.6,719.7,308.9,719.6,309.1L719.6,309.1z M718.7,307.4 M718.9,307.6
					c0,0.1-0.1,0.2-0.2,0.2c-0.1,0-0.2-0.1-0.2-0.2s0.1-0.2,0.2-0.2C718.8,307.4,718.9,307.5,718.9,307.6z M718.5,307.1
					c0,0.1-0.1,0.2-0.2,0.2c-0.1,0-0.2-0.1-0.2-0.2s0.1-0.2,0.2-0.2C718.4,306.9,718.5,307,718.5,307.1z M718.5,308.1
					c0,0.1-0.1,0.2-0.2,0.2c-0.1,0-0.2-0.1-0.2-0.2s0.1-0.2,0.2-0.2C718.4,307.9,718.5,308,718.5,308.1z M718,307.6
					c0,0.1-0.1,0.2-0.2,0.2c-0.1,0-0.2-0.1-0.2-0.2s0.1-0.2,0.2-0.2C717.9,307.4,718,307.5,718,307.6z M715.1,308.3L715.1,308.3
					c-0.1,0-0.2-0.1-0.2-0.2v-1c0-0.1,0.1-0.2,0.2-0.2l0,0c0.1,0,0.2,0.1,0.2,0.2v1C715.4,308.2,715.3,308.3,715.1,308.3z
					 M714.4,307.6L714.4,307.6c0-0.1,0.1-0.2,0.2-0.2h1c0.1,0,0.2,0.1,0.2,0.2l0,0c0,0.1-0.1,0.2-0.2,0.2h-1
					C714.5,307.8,714.4,307.7,714.4,307.6z"/>
			</g>
		</g>
		<g>
			<defs>
				<path id="SVGID_47_" d="M896.5,318.3H713c-1.6,0-2.9,1.3-2.9,2.9v77.2c0,1.6,1.3,2.9,2.9,2.9h183.4c1.6,0,2.9-1.3,2.9-2.9v-77.2
					C899.4,319.6,898.1,318.3,896.5,318.3z"/>
			</defs>
			<clipPath id="SVGID_2_">
				<use xlink:href="#SVGID_47_"  style="overflow:visible;"/>
			</clipPath>
			<g style="clip-path:url(#SVGID_2_);">
				<g>
					<path d="M804.9,413.4c-31.4,0-62.7,0-94.1,0c-0.5,0-0.7-0.1-0.7-0.7c0-31.2,0-62.4,0-93.6c0-0.6,0.1-0.6,0.7-0.6
						c62.7,0,125.5,0,188.2,0c0.5,0,0.7,0.1,0.7,0.6c0,31.2,0,62.4,0,93.7c0,0.5-0.1,0.6-0.6,0.6
						C867.7,413.4,836.3,413.4,804.9,413.4z"/>
					<path class="st38" d="M714.2,377.2c0-3.2,0-6.4,0-9.6c0-0.5,0.1-0.6,0.6-0.6c1.9,0,3.7,0,5.6,0c0.4,0,0.6,0.1,0.6,0.6
						c0,6.4,0,12.8,0,19.2c0,0.4-0.1,0.6-0.6,0.6c-1.9,0-3.8,0-5.7,0c-0.4,0-0.6-0.1-0.6-0.6C714.2,383.7,714.2,380.4,714.2,377.2z"
						/>
					<path class="st38" d="M889.1,378.8c0-3.2,0-6.3,0-9.5c0-0.5,0.1-0.6,0.6-0.6c1.9,0,3.7,0,5.6,0c0.4,0,0.6,0.1,0.6,0.6
						c0,6.4,0,12.8,0,19.2c0,0.4-0.1,0.6-0.6,0.6c-1.9,0-3.8,0-5.7,0c-0.4,0-0.6-0.1-0.6-0.6C889.1,385.3,889.1,382,889.1,378.8z"/>
					<path class="st38" d="M796.9,406.4c3.1,0,6.3,0,9.4,0c0.5,0,0.6,0.1,0.6,0.6c0,1.5,0,3.1,0,4.6c0,0.4-0.1,0.5-0.5,0.5
						c-6.4,0-12.7,0-19.1,0c-0.4,0-0.5-0.1-0.5-0.5c0-1.6,0-3.1,0-4.7c0-0.4,0.1-0.6,0.6-0.6C790.6,406.4,793.7,406.4,796.9,406.4z"
						/>
					<path class="st38" d="M821.4,411.9c-0.1,0.2-0.4,0.1-0.5,0.1c-4,0-8,0-12.1,0c-0.4,0-0.6-0.1-0.6-0.5c0-1.6,0-3.1,0-4.7
						c0-0.4,0.1-0.5,0.5-0.5c6.4,0,12.7,0,19.1,0c0.4,0,0.5,0.1,0.5,0.5c0,1.6,0,3.2,0,4.8c0,0.2,0,0.4-0.3,0.4c-2.1,0-4.2,0-6.3,0
						c0,0-0.1-0.1-0.1-0.1c0-0.2,0.1-0.4,0.1-0.5c0-0.5,0.2-0.7,0.7-0.6c0.5,0.1,0.8-0.2,1-0.6c0.2-0.5,0.1-1.2-0.3-1.5
						c-0.4-0.3-0.9-0.1-1.3,0c-0.3,0.1-0.2,0.3-0.2,0.5c0,0.7,0,1.4,0,2C821.6,411.4,821.6,411.7,821.4,411.9z"/>
					<path class="st38" d="M804.3,368.7c-2,0-3.3-1.5-3.3-3.5c0-2,1.5-3.3,3.5-3.3c1.9,0,3.3,1.5,3.3,3.4
						C807.7,367.3,806.3,368.7,804.3,368.7z"/>
					<path class="st39" d="M814.1,327.3c0,0.8-0.1,1.5-0.4,2.2c-0.3,0.7-0.9,0.9-1.6,0.9c-0.7,0-1.3-0.3-1.5-1c-0.5-1.3-0.5-2.6,0-4
						c0.3-0.7,0.9-1.1,1.6-1c0.8,0,1.3,0.4,1.6,1.1C814.1,326.1,814.1,326.7,814.1,327.3z"/>
					<path class="st39" d="M804.4,327.3c0,0.8,0,1.5-0.4,2.1c-0.4,0.6-0.9,0.9-1.6,0.9c-0.7,0-1.3-0.3-1.5-1c-0.5-1.3-0.5-2.6,0-4
						c0.3-0.7,0.8-1,1.6-1c0.8,0,1.3,0.4,1.6,1C804.3,326,804.4,326.7,804.4,327.3z"/>
					<path class="st40" d="M821.4,411.9c0-1.1,0-2.2,0-3.4c0-0.1,0-0.3,0.1-0.3c0.6,0.3,1.2-0.4,1.8,0.2c0.4,0.4,0.5,0.9,0.4,1.5
						c-0.2,0.9-0.7,1.2-1.7,0.9c-0.3,0.3,0.3,0.9-0.3,1.1C821.5,411.9,821.5,411.9,821.4,411.9z"/>
					<path class="st41" d="M807.2,327.7c-0.2,0-0.4,0-0.7,0c-0.3,0-0.4-0.1-0.4-0.4c0-0.3,0.1-0.5,0.4-0.5c0.5,0,0.9,0,1.4,0
						c0.3,0,0.5,0.1,0.5,0.5c0,0.4-0.1,0.5-0.5,0.4C807.7,327.7,807.5,327.7,807.2,327.7z"/>
					<path class="st42" d="M798,408c0.8,0,1,0.2,1,1c0,0.1,0,0.2,0,0.3c-0.1,0.5,0.2,1.4-0.1,1.3c-0.5-0.1-1,0.2-1.5,0.1
						c-0.4-0.1-0.7-0.3-0.7-0.7c0-0.4,0.2-0.7,0.5-0.8c0.3-0.1,0.6-0.1,0.9-0.2c0.1,0,0.3,0,0.3-0.2c0-0.2-0.1-0.4-0.3-0.4
						c-0.3-0.1-0.7-0.1-0.9,0.3c-0.1,0.2-0.3,0.2-0.5,0.1c-0.1-0.1,0-0.3,0.1-0.4C797.3,408,797.6,408,798,408z"/>
					<path class="st42" d="M793.9,410.7c-0.4,0-0.8-0.1-1-0.5c-0.1-0.1-0.2-0.3,0-0.4c0.1-0.1,0.3-0.1,0.4,0.1
						c0.1,0.2,0.2,0.3,0.5,0.3c0.3,0,0.6,0,0.7-0.3c0.1-0.3-0.2-0.4-0.5-0.4c-0.2-0.1-0.4-0.1-0.6-0.2c-0.4-0.1-0.6-0.4-0.5-0.8
						c0.1-0.4,0.3-0.6,0.7-0.6c0.4,0,0.9-0.1,1.2,0.4c0.1,0.1,0.1,0.3,0,0.4c-0.1,0.1-0.3,0.2-0.4,0c-0.1-0.1-0.2-0.2-0.3-0.3
						c-0.3-0.1-0.6-0.1-0.7,0.2c-0.1,0.4,0.3,0.3,0.5,0.4c0.1,0.1,0.2,0,0.3,0.1c0.5,0.1,0.9,0.3,0.8,0.9
						C794.9,410.6,794.4,410.8,793.9,410.7z"/>
					<path class="st43" d="M796,407.2c0.2,0.4-0.2,0.9,0.4,0.9c0,0,0.1,0.2,0,0.3c-0.5,0.6-0.5,1.4,0,1.9c0.1,0.1,0.1,0.2,0.1,0.3
						c0,0-0.1,0.1-0.2,0.1c-0.4,0-0.7,0-0.7-0.6c0-0.4,0-0.9,0-1.3c0-0.2,0.1-0.4-0.2-0.5c-0.1,0-0.2-0.2-0.1-0.2
						C795.8,408,795.5,407.3,796,407.2z"/>
					<path class="st44" d="M801.1,408.1c0.2-0.1,0.5-0.1,0.4-0.5c-0.1-0.3,0.1-0.4,0.4-0.4c0.1,0.3-0.1,0.8,0.4,0.9
						c0.1,0,0.1,0.2,0,0.3c-0.5,0.3-0.5,1.6,0,1.9c0.1,0.1,0.2,0.2,0.2,0.3c0,0.2-0.2,0.1-0.3,0.2c-0.4,0-0.6-0.1-0.6-0.6
						c0-0.4,0-0.9,0-1.3c0-0.4-0.1-0.5-0.4-0.6C801.1,408.2,801.1,408.2,801.1,408.1z"/>
					<path class="st45" d="M801.1,408.1c0,0.1,0,0.1,0,0.2c0,0,0,0.1,0,0.1c-1.1,0-0.9,0.8-0.9,1.4c0,0.2,0,0.4,0,0.6
						c0,0.2-0.1,0.3-0.2,0.2c-0.2,0-0.2-0.1-0.2-0.3c0-0.7,0-1.5,0-2.2c0-0.1,0-0.2,0.1-0.2C800.3,408.3,800.7,407.8,801.1,408.1z"
						/>
					<path class="st42" d="M818.4,409.6c0-0.9,0.4-1.3,1.2-1.3c0.8,0,1.3,0.5,1.2,1.4c0,0.9-0.4,1.3-1.2,1.3
						C818.8,411,818.4,410.5,818.4,409.6z"/>
					<path class="st42" d="M815.6,408.3c0.3,0,0.6,0.1,0.8,0.3c0.1,0.1,0.2,0.3,0,0.4c-0.1,0.1-0.3,0.1-0.4,0
						c-0.1-0.1-0.1-0.2-0.2-0.2c-0.3-0.1-0.6-0.2-0.8,0.2c-0.1,0.4,0.3,0.3,0.5,0.4c0.2,0.1,0.4,0.1,0.6,0.2
						c0.4,0.1,0.6,0.3,0.6,0.7c0,0.4-0.3,0.7-0.6,0.8c-0.5,0.1-1.1,0.2-1.4-0.4c-0.1-0.1-0.2-0.3,0-0.4c0.2-0.1,0.3-0.1,0.4,0.1
						c0.1,0.2,0.3,0.4,0.6,0.4c0.2,0,0.5,0,0.5-0.3c0.1-0.3-0.2-0.4-0.4-0.4c-0.1,0-0.3-0.1-0.4-0.1c-0.5-0.1-0.9-0.3-0.8-0.9
						C814.7,408.3,815.1,408.3,815.6,408.3z"/>
					<path class="st44" d="M817.6,407.5c0.1,0.3-0.1,0.9,0.5,1c0.1,0,0.1,0.2,0,0.3c-0.5,0.4-0.5,1.5,0,1.9c0.1,0.1,0.2,0.2,0.2,0.3
						c0,0.2-0.2,0.1-0.3,0.1c-0.4,0-0.7-0.1-0.7-0.6c0-0.4,0-0.7,0-1.1c0-0.2,0.2-0.6-0.2-0.7c0,0,0-0.1-0.1-0.1
						C817.4,408.3,817,407.6,817.6,407.5z"/>
					<path class="st46" d="M813.2,327.4c0,0.5,0,1.1-0.2,1.6c-0.2,0.4-0.4,0.7-0.9,0.7c-0.4,0-0.7-0.3-0.9-0.7
						c-0.3-1.1-0.3-2.1,0-3.2c0.1-0.4,0.4-0.7,0.8-0.7c0.4,0,0.7,0.3,0.9,0.7C813.2,326.3,813.2,326.8,813.2,327.4z"/>
					<path class="st46" d="M801.4,327.3c0-0.5,0-1,0.2-1.5c0.1-0.4,0.4-0.7,0.9-0.7c0.4,0,0.8,0.3,0.9,0.7c0.3,1,0.3,2,0,3.1
						c-0.1,0.4-0.4,0.7-0.9,0.7c-0.5,0-0.8-0.3-0.9-0.8C801.4,328.3,801.3,327.8,801.4,327.3z"/>
					<path class="st47" d="M821.8,409.7c0-0.6,0.1-1.1,0.7-1.1c0.6,0,0.7,0.5,0.7,1c0,0.5-0.1,1-0.7,1
						C821.9,410.6,821.8,410.1,821.8,409.7z"/>
					<path class="st48" d="M797.7,410.3c-0.2,0-0.5-0.1-0.4-0.4c0.1-0.5,0.6-0.4,1-0.5c0.2,0,0.3-0.1,0.3,0.2
						C798.5,410.1,798.2,410.3,797.7,410.3z"/>
					<path class="st47" d="M820.4,409.8c0,0.4-0.2,0.8-0.7,0.8c-0.4,0-0.8-0.4-0.8-1c0-0.5,0.2-0.9,0.8-0.9
						C820.1,408.6,820.4,409.1,820.4,409.8z"/>
				</g>
			</g>
		</g>
		<path class="st20" d="M892.6,401.3H716.9c-3.7,0-6.8-3-6.8-6.8v-69.2c0-3.7,3-6.8,6.8-6.8h175.7c3.7,0,6.8,3,6.8,6.8v69.2
			C899.4,398.3,896.4,401.3,892.6,401.3z"/>
	</g>
</g>
<rect x="247.5" y="166.3" class="st4" width="363.6" height="39.1"/>
<text transform="matrix(1 0 0 1 247.469 179.2681)" class="st5 st73 st74">A world where ideas come alive.</text>
<rect x="1029.4" y="240.2" class="st4" width="196.5" height="55.5"/>
<text transform="matrix(1 0 0 1 1029.426 251.7933)" class="st18 st62 st75 st76">Search &amp; Filter</text>
<rect x="1028.9" y="352.7" class="st4" width="196.5" height="27.7"/>
<text transform="matrix(1 0 0 1 1028.926 364.3097)" class="st18 st62 st75 st76">Project Preview</text>
<rect x="1028.9" y="406.3" class="st4" width="196.5" height="43"/>
<text transform="matrix(1 0 0 1 1028.926 417.8329)"><tspan x="0" y="0" class="st18 st62 st75 st76">Number of veiws</tspan><tspan x="0" y="18.8" class="st18 st62 st75 st76">Number of likes</tspan></text>
<rect x="1028.9" y="483" class="st4" width="196.5" height="27.7"/>
<text transform="matrix(1 0 0 1 1028.926 494.5826)" class="st18 st62 st75 st76">Different Sizes</text>
<rect x="1043.3" y="505.1" class="st4" width="197" height="92.6"/>
<text transform="matrix(1 0 0 1 1043.2898 515.2613)"><tspan x="0" y="0" class="st18 st77 st78 st76">Based on the popularity, </tspan><tspan x="0" y="16.8" class="st18 st77 st78 st76">projects could be presented  </tspan><tspan x="0" y="33.6" class="st18 st77 st78 st76">in different sizes.  </tspan></text>
<rect x="1043.3" y="262.3" class="st4" width="197" height="55"/>
<text transform="matrix(1 0 0 1 1043.2898 272.4439)"><tspan x="0" y="0" class="st18 st77 st78 st76">The filter could be time, </tspan><tspan x="0" y="16.8" class="st18 st77 st78 st76">popularity, different </tspan><tspan x="0" y="33.6" class="st18 st77 st78 st76">categories etc.</tspan></text>
<g>
	
		<image style="overflow:visible;opacity:0.1;" width="396" height="49" xlink:href="DFC3EA68FFE483B5.png"  transform="matrix(0.24 0 0 0.24 926.1231 242.7425)">
	</image>
	<g>
		<g>
			<rect x="930" y="245.6" class="st5" width="83.3" height="2"/>
			<circle class="st5" cx="930" cy="246.6" r="2.8"/>
			<circle class="st5" cx="1013.3" cy="246.6" r="2.8"/>
		</g>
	</g>
</g>
<g>
	
		<image style="overflow:visible;opacity:0.1;" width="396" height="49" xlink:href="DFC3EA68FFE483A9.png"  transform="matrix(0.24 0 0 0.24 926.1231 408.8916)">
	</image>
	<g>
		<g>
			<rect x="930" y="411.7" class="st5" width="83.3" height="2"/>
			<circle class="st5" cx="930" cy="412.7" r="2.8"/>
			<circle class="st5" cx="1013.3" cy="412.7" r="2.8"/>
		</g>
	</g>
</g>
<g>
	
		<image style="overflow:visible;opacity:0.1;" width="995" height="49" xlink:href="DFC3EA68FFE483AB.png"  transform="matrix(0.24 0 0 0.24 782.4565 486.6828)">
	</image>
	<g>
		<g>
			<rect x="786.3" y="489.5" class="st5" width="227" height="2"/>
			<circle class="st5" cx="786.3" cy="490.5" r="2.8"/>
			<circle class="st5" cx="1013.3" cy="490.5" r="2.8"/>
		</g>
	</g>
</g>
<g>
	
		<image style="overflow:visible;opacity:0.1;" width="396" height="49" xlink:href="DFC3EA68FFE483A8.png"  transform="matrix(0.24 0 0 0.24 926.1231 356.1359)">
	</image>
	<g>
		<g>
			<rect x="930" y="359" class="st5" width="83.3" height="2"/>
			<circle class="st5" cx="930" cy="360" r="2.8"/>
			<circle class="st5" cx="1013.3" cy="360" r="2.8"/>
		</g>
	</g>
</g>
</svg>
