<?xml version="1.0" encoding="utf-8"?>
<!-- Generator: Adobe Illustrator 19.1.0, SVG Export Plug-In . SVG Version: 6.00 Build 0)  -->
<svg version="1.1" id="Layer_1" xmlns="http://www.w3.org/2000/svg" xmlns:xlink="http://www.w3.org/1999/xlink" x="0px" y="0px"
	 viewBox="0 0 1280 800" style="enable-background:new 0 0 1280 800;" xml:space="preserve">
<style type="text/css">
	.st0{fill:#4D4D4D;}
	.st1{fill:#FFFCF9;}
	.st2{fill-rule:evenodd;clip-rule:evenodd;fill:none;}
	.st3{fill:#58595B;}
	.st4{font-family:'BloggerSans-Medium';}
	.st5{font-size:18.7145px;}
	.st6{fill:#58595B;stroke:#58595B;stroke-width:0.5;stroke-miterlimit:10;}
	.st7{font-family:'BloggerSans-Bold';}
	.st8{fill:none;}
	.st9{font-size:17.2749px;}
	.st10{fill:#F57C00;}
	.st11{fill:none;stroke:#BCBEC0;stroke-width:3;stroke-miterlimit:10;}
	.st12{fill:#E6E7E8;}
	.st13{font-size:15.1156px;}
	.st14{fill:#A7A9AC;}
	.st15{fill:#BCBEC0;}
	.st16{fill:#FFFAF5;stroke:#BCBEC0;stroke-width:3;stroke-miterlimit:10;}
	.st17{fill:#D1D3D4;}
	.st18{opacity:6.000000e-02;fill:#7DCCED;}
	.st19{opacity:6.000000e-02;fill:#CB97C9;}
	.st20{opacity:6.000000e-02;fill:#FFDE17;}
	.st21{fill:none;stroke:#E6E7E8;stroke-width:2;stroke-miterlimit:10;}
	.st22{fill:none;stroke:#E6E7E8;stroke-width:4;stroke-miterlimit:10;}
	.st23{opacity:0.3;fill:none;stroke:#E6E7E8;stroke-width:4;stroke-miterlimit:10;}
	.st24{fill:#FFFFFF;}
	.st25{fill:#6D6E71;}
	.st26{font-family:'FZY3JW--GB1-0';}
	.st27{font-size:19.3643px;}
	.st28{letter-spacing:1;}
	.st29{opacity:0.2;fill:#FFFFFF;}
	.st30{fill:#808285;}
	.st31{fill:#7DCCED;}
	.st32{font-size:10.077px;}
	.st33{font-size:14.3958px;}
	.st34{opacity:0.8;fill:#FFFFFF;}
	.st35{opacity:0.3;fill:#FFFFFF;}
	.st36{fill:#FED7B7;}
	.st37{fill-rule:evenodd;clip-rule:evenodd;stroke:#FFFFFF;stroke-miterlimit:10;}
	.st38{fill:#FFDE17;}
	.st39{fill:#CB97C9;}
	.st40{fill:#85D866;}
	.st41{fill:#F5844E;}
	.st42{fill:none;stroke:#F57C00;stroke-width:3;stroke-miterlimit:10;}
	.st43{fill:#FEF9F2;}
	.st44{fill:#9DE085;}
	.st45{fill:#97D6F1;}
	.st46{fill:none;stroke:#BCBEC0;stroke-width:2;stroke-miterlimit:10;}
	.st47{fill:#F1F2F2;}
	.st48{clip-path:url(#SVGID_22_);}
	.st49{fill:#FEFEFE;}
	.st50{fill:#FDFDFD;}
	.st51{fill:#030303;}
	.st52{fill:#EFEFEF;}
	.st53{fill:#040404;}
	.st54{fill:#050505;}
	.st55{fill:#070707;}
	.st56{fill:#020202;}
	.st57{fill:#010101;}
	.st58{fill:#FBFBFB;}
	.st59{fill:#F7F7F7;}
	.st60{fill:#FAC085;}
	.st61{font-size:8.505px;}
	.st62{fill:#F15A29;}
	.st63{fill:#80D3AB;}
	.st64{font-size:7.3534px;}
	.st65{fill:#77ACD7;}
	.st66{font-size:6.6259px;}
	.st67{fill:none;stroke:#FFFFFF;stroke-miterlimit:10;}
	.st68{fill:none;stroke:#FFFFFF;stroke-width:3;stroke-miterlimit:10;}
	.st69{opacity:0.7;fill:#F57C00;}
	.st70{font-family:'BloggerSans-Light';}
	.st71{font-size:25px;}
	.st72{fill:#58595B;stroke:#58595B;stroke-width:0.2;stroke-miterlimit:10;}
	.st73{fill:#FFFAF5;stroke:#BCBEC0;stroke-width:2;stroke-miterlimit:10;}
	.st74{fill:#B1E0F4;}
	.st75{fill:#FFEB74;}
	.st76{fill:#E0C1DF;}
	.st77{fill:none;stroke:#F57C00;stroke-width:2;stroke-miterlimit:10;}
	.st78{clip-path:url(#SVGID_48_);}
</style>
<rect x="0" y="0" class="st1" width="1280" height="800"/>
<rect x="0" y="0" class="st1" width="1279" height="800"/>
<g>
	<rect x="1000.9" y="73.6" class="st2" width="91.4" height="33.1"/>
	<text transform="matrix(1 0 0 1 1019.5844 87.1416)" class="st3 st4 st5">ABOUT</text>
	<rect x="883.7" y="73.6" class="st2" width="122.4" height="33.1"/>
	<text transform="matrix(1 0 0 1 900.6307 87.1416)" class="st3 st4 st5">TUTORIALS</text>
	<rect x="776.3" y="73.6" class="st2" width="117.7" height="33.1"/>
	<text transform="matrix(1 0 0 1 803.5542 87.123)" class="st6 st7 st5">CREATE</text>
	<g>
		<rect x="1123.5" y="73.6" class="st8" width="117.7" height="33.1"/>
		<text transform="matrix(1 0 0 1 1155.7367 86.1011)" class="st3 st4 st9">SIGN IN</text>
	</g>
	<g>
		<circle class="st8" cx="806.4" cy="80.6" r="2.9"/>
		<circle class="st8" cx="925.9" cy="80.6" r="2.9"/>
		<circle class="st8" cx="1141.7" cy="80.6" r="2.9"/>
	</g>
</g>
<path class="st10" d="M89.1,54.3c-1.1-1-2.5-1.5-4.2-1.5s-3,0.5-4.2,1.5c-1.2,1.1-1.7,2.3-1.7,3.8c0,1.5,0.6,2.8,1.7,3.8
	c1.1,1,2.5,1.5,4.2,1.5c1.6,0,3-0.5,4.2-1.5c1.2-1.1,1.7-2.3,1.7-3.8C90.8,56.7,90.2,55.4,89.1,54.3z M88.5,67
	c-1-0.9-2.2-1.4-3.7-1.4c-1.5,0-2.5,0.5-3.5,1.4c-1.1,0.9-1.3,2.1-1.3,3.4v24.8c0,1.4,0.3,2.6,1.4,3.5c1,0.9,2.2,1.4,3.6,1.4
	c1.5,0,2.5-0.5,3.6-1.4c1.1-0.9,1.4-2.1,1.4-3.5V70.4C90,69.1,89.6,67.9,88.5,67z M122,70.4c0-1.4-0.4-2.6-1.5-3.5
	c-1-0.8-2.1-1.3-3.5-1.3c-1,0-2,0.3-2.9,0.9c-1,0.6-1.7,1.4-2,2.5l-3.3,10.5c-0.5,1.6-0.8,3.2-1.1,4.8c-0.3-1.6-0.7-3.3-1.2-4.9
	l-3.5-10.6c-0.4-1.1-1-1.9-2-2.5c-0.9-0.6-1.9-0.9-2.9-0.9c-1.4,0-2.5,0.4-3.5,1.3c-1.1,0.9-1.6,2.1-1.6,3.5v0.5
	c0,0.3,0,0.6,0.1,0.9l8.7,24c0.5,1.5,1.2,2.6,2.1,3.3c0.9,0.7,2.2,1.1,3.8,1.1c1.6,0,2.8-0.4,3.7-1.1c0.9-0.7,1.6-1.8,2.2-3.3
	l8.4-23.8c0.1-0.3,0-0.6,0-0.9V70.4z M197,66.9c-1.1-0.9-2.3-1.3-3.6-1.3c-1,0-2,0.2-2.9,0.7c-1,0.5-1.7,1.4-2.1,2.6l-3.4,10.5
	c-0.3,1-0.6,2.1-0.9,3.2c-0.3-1.1-0.6-2.2-1-3.2l-4-10.6c-0.4-1.1-1.1-1.9-2-2.5c-0.9-0.5-1.9-0.8-2.9-0.8c-1.4,0-2.7,0.4-3.7,1.3
	c-1.1,0.9-1.6,2-1.6,3.4c0,0.3,0,0.6,0.1,0.9c0.1,0.3,0.2,0.7,0.3,1.1l9.6,24.6c-0.7,2.2-1.4,3.7-2.1,4.7c-0.6,0.8-1.5,1.3-2.6,1.3
	c-1.5,0.1-2.8,0.6-3.7,1.5c-0.9,0.9-1.4,2-1.4,3.2c0,1.4,0.5,2.6,1.6,3.5c1,0.9,2.3,1.3,3.8,1.3c2.5,0,4.7-0.5,6.4-1.4
	c1.7-0.9,3.2-2.2,4.4-3.9c1.2-1.6,2.2-3.6,3-5.8c0.8-2.1,1.7-4.5,2.6-7.1l7.7-22.3c0.2-0.4,0.3-0.9,0.3-1.5
	C198.7,69,198.1,67.8,197,66.9z M73.1,92.8c-0.5-0.5-0.8-0.7-0.8-0.7c0-0.1-0.3-0.4-0.3-1.2V57.2c0-1.4-0.3-2.6-1.4-3.5
	c-1-0.9-2.2-1.4-3.6-1.4c-1.5,0-2.6,0.5-3.6,1.4c-1,1-1.4,2.1-1.4,3.5v34.5c0,1.8,0.1,3.2,0.6,4.3c0.5,1.1,1,2,1.7,2.6
	c0.7,0.6,1.5,1.1,2.4,1.2c0.8,0.2,1.5,0.2,2.2,0.2c1.7,0,3-0.3,4-1c1.1-0.7,1.7-1.9,1.7-3.4c0-0.8-0.2-1.4-0.5-1.9
	C73.8,93.5,73.5,93.1,73.1,92.8z M166.7,92.8c-0.5-0.5-0.6-0.7-0.6-0.7c0-0.1-0.1-0.4-0.1-1.2V57.2c0-1.4-0.5-2.6-1.6-3.5
	c-1-0.9-2.3-1.4-3.7-1.4c-1.5,0-2.9,0.5-3.9,1.4c-1,1-1.8,2.1-1.8,3.5v34.5c0,1.8,0.4,3.2,0.8,4.3c0.5,1.1,1.1,2,1.8,2.6
	c0.7,0.6,1.6,1.1,2.5,1.2c0.8,0.2,1.5,0.2,2.2,0.2c1.7,0,3-0.3,4-1c1.1-0.7,1.7-1.9,1.7-3.4c0-0.8-0.2-1.4-0.5-1.9
	C167.3,93.5,167,93.1,166.7,92.8z M135.8,87.5c0.8,0.1,1.8,0.1,2.6,0.1c4.5,0,7.9-0.9,10-2.8c2.1-1.9,3.3-4.5,3.3-7.8
	c0-3.4-1.1-6.3-3.3-8.4c-2.2-2.1-5.6-3.2-9.9-3.2c-2.3,0-4.3,0.3-6.1,0.9c-1.8,0.6-3.3,1.5-4.5,2.6c-1.2,1.1-2.7,2.4-3.4,3.9
	c-0.6,1.5-1.5,3.1-1.5,4.8v10.5c0,1.7,0.9,3.3,1.5,4.7c0.6,1.5,1.9,2.8,3.1,3.8c1.2,1.1,2.8,1.9,4.6,2.5c1.7,0.6,3.8,0.9,6,0.9
	c1,0,2.3-0.1,3.7-0.3c1.4-0.2,2.9-0.5,4.2-0.9c1.4-0.5,2.6-1.1,3.5-1.9c1.1-0.9,1.7-2.1,1.7-3.5c0-0.5-0.1-1-0.2-1.5
	c-0.2-0.5-0.4-1-0.8-1.5c-0.4-0.4-0.9-0.8-1.5-1.1c-0.6-0.3-1.4-0.4-2.3-0.4c-0.6,0-1.1,0.1-1.5,0.2c-0.4,0.1-0.6,0.2-0.8,0.3
	c-0.9,0.4-1.8,0.7-2.6,1c-0.8,0.2-1.7,0.3-2.6,0.3c-1.5,0-2.9-0.2-3.6-0.7c-0.6-0.4-1.2-1-1.2-1.8v-0.9
	C135,87.4,135.4,87.5,135.8,87.5z M134,77.2c0-1,0.7-1.7,1.3-2.3c0.6-0.6,1.7-0.8,3-0.8c1,0,1.8,0.2,2.3,0.6c0.4,0.3,0.7,1,0.7,1.9
	c0,1-0.2,1.7-0.6,2c-0.5,0.4-1.3,0.6-2.3,0.6c-0.3,0-1.3,0-2.1-0.1c-0.6,0-1.2-0.1-2.2-0.1V77.2z M233.7,57.3c0,0,0.2-0.1,0.1-0.1
	c0,0,0.2,0,0.2-0.1v0c-1-0.5-0.6-1.1-0.9-1.5c-0.2-0.3-0.6-0.6-0.9-0.9c0,0-0.1,0-0.1-0.1l-2.6-1.8c-0.2-0.1-0.3-0.2-0.5-0.4
	c-0.6-0.6-1.1-1.3-1.1-2.1c0-0.8,0.5-1.5,1.1-2.1c0.2-0.1,0.3-0.2,0.5-0.4L232,46c0,0,0,0,0.1-0.1c0.3-0.2,0.8-0.6,1-0.9
	c0.4-0.5-0.1-1,0.9-1.5v0c0-0.5,0-1,0-1.5c-0.1-1-0.5-2-1.1-2.8c-0.2-0.4-0.6-0.7-0.9-1.1c0,0,0,0,0,0c-0.3-0.3-0.6-0.5-0.9-0.7
	c0,0,0,0,0,0c-1-0.7-2.4-1-3.6-0.7c0,0,0,0-0.1,0c0,0,0,0-0.1,0c-0.5,0.1-1.1,0.3-1.5,0.7c0,0-2.8,2.1-2.8,2.1
	c-0.1,0.1-0.2,0.1-0.3,0.2c-0.8,0.4-1.8,0.7-2.6,0.3c-0.6-0.3-1.2-1-1.4-1.6c-0.4-1.2-0.7-2.3-1.1-3.5c-0.1-0.4-0.3-0.7-0.5-1
	c-0.1-0.2-0.3-0.4-0.4-0.6c-0.3-0.4-0.7-0.7-1.1-1c-0.4-0.2-0.9-0.4-1.3-0.5c-0.2,0-0.6,0-0.9,0c-0.3,0-0.6,0-0.8,0.1
	c-0.4,0-0.9,0.1-1.4,0.3c0,0-0.1,0-0.1,0c0,0,0,0,0,0c-0.7,0.2-1.4,0.6-1.9,1c0,0,0,0,0,0c-1.1,0.9-1.8,2.2-1.8,3.6
	c0,0.5,0,0.9,0.2,1.4l1.1,3.3c0,0.1,0.1,0.3,0.1,0.4c0.1,0.7,0.1,1.5-0.3,2.1c-0.5,0.8-1.6,1.1-2.5,1.1l-3.5,0
	c-0.6,0-1.1,0.1-1.7,0.3c-1.4,0.6-2.2,1.8-2.7,3.2c-0.2,0.6-0.1,1.2-0.1,1.8v0c0,0.6-0.1,1.2,0.1,1.8c0.5,1.4,1.2,2.6,2.7,3.2
	c0.5,0.2,1.1,0.3,1.6,0.3l3.5,0c0.9,0,1.9,0.3,2.5,1.1c0.3,0.6,0.4,1.4,0.3,2.1c0,0.1-0.1,0.3-0.1,0.4l-1.1,3.3
	c-0.1,0.5-0.2,0.9-0.2,1.4c0,1.5,0.7,2.7,1.8,3.6c0,0,0,0,0,0c0.2,0.1,0.3,0.2,0.5,0.3c0.9,0.6,1.9,0.9,2.9,1c0.5,0.1,1.2,0.1,1.7,0
	c0.5-0.1,0.9-0.3,1.3-0.5c0.4-0.3,0.8-0.6,1.1-1c0.1-0.2,0.3-0.4,0.4-0.6c0.2-0.3,0.4-0.6,0.5-1c0,0,1-3.3,1-3.3
	c0.2-0.7,0.8-1.5,1.4-1.8c0,0,0,0,0,0c0.8-0.4,1.9-0.3,2.6,0.3c0.1,0.1,0.2,0.1,0.3,0.2l2.8,2.1c0.5,0.4,1.1,1,1.6,1.2
	c0.3,0,0.5,0.6,0.8,0.6h0c0.9,0,2.1-0.7,2.8-1.3c0,0,0-0.2,0-0.2c0.2-0.1,0.4-0.4,0.6-0.6c0.3-0.2,0.6-0.6,0.8-0.9
	c0,0,0-0.1,0.1-0.1c0.4-0.6,0.9-1.2,1-1.9c0-0.1,0-0.2,0.1-0.2c0.1-0.3,0.2-0.7,0.2-1C233.8,58.2,233.8,57.7,233.7,57.3z"/>
<circle class="st11" cx="120.4" cy="182" r="14.2"/>
<circle class="st11" cx="120.4" cy="221.8" r="14.2"/>
<rect x="147.6" y="177.4" class="st2" width="100.1" height="33.1"/>
<text transform="matrix(1 0 0 1 147.5707 188.2905)" class="st12 st4 st13">PROJECTS</text>
<g>
	<rect x="147.6" y="215.7" class="st8" width="130" height="33.1"/>
	<text transform="matrix(1 0 0 1 147.5702 226.6035)" class="st14 st4 st13">ACTIVE SESSIONS</text>
</g>
<circle class="st11" cx="1199.2" cy="181.4" r="14.2"/>
<path class="st15" d="M1197.5,182.8c0.1,0.2,0.2,0.4,0.2,0.6v6.4c0,0.4,0.5,0.6,0.7,0.3l1.8-2.1c0.2-0.3,0.4-0.4,0.4-0.7v-4
	c0-0.2,0.1-0.4,0.2-0.6l5.2-5.6c0.4-0.4,0.1-1.1-0.5-1.1h-12.7c-0.6,0-0.9,0.7-0.5,1.1L1197.5,182.8z M1197.5,182.8"/>
<path class="st16" d="M1159.9,195.6H936.2c-7.8,0-14.2-6.3-14.2-14.2v0c0-7.8,6.3-14.2,14.2-14.2h223.7c7.8,0,14.2,6.3,14.2,14.2v0
	C1174.1,189.2,1167.7,195.6,1159.9,195.6z"/>
<g>
	<path class="st17" d="M948.4,189.1c0.5,0.5,0.5,1.2,0,1.7c-0.5,0.4-1.3,0.4-1.7,0l-4.9-4.9c-1.2,0.9-2.7,1.4-4.3,1.4
		c-4.1,0-7.4-3.3-7.4-7.4c0-4.1,3.3-7.4,7.4-7.4c4.1,0,7.4,3.3,7.4,7.4c0,1.6-0.5,3-1.4,4.3L948.4,189.1L948.4,189.1z M937.5,185.6
		c3.1,0,5.7-2.5,5.7-5.7s-2.5-5.7-5.7-5.7c-3.1,0-5.7,2.5-5.7,5.7S934.4,185.6,937.5,185.6L937.5,185.6z M937.5,185.6"/>
</g>
<circle class="st10" cx="120.4" cy="221.8" r="6.5"/>
<g>
	<circle class="st18" cx="913.1" cy="422.6" r="45.6"/>
	<circle class="st18" cx="940.3" cy="522.9" r="45.6"/>
	<circle class="st18" cx="867.5" cy="585" r="45.6"/>
	<circle class="st18" cx="772.3" cy="567.4" r="45.6"/>
	<circle class="st18" cx="833" cy="357.2" r="45.6"/>
	<circle class="st18" cx="744.8" cy="389.4" r="45.6"/>
	<circle class="st19" cx="482.5" cy="528.2" r="45.6"/>
	<circle class="st20" cx="435.7" cy="385.7" r="45.6"/>
	<circle class="st20" cx="505.4" cy="252.4" r="45.6"/>
	<circle class="st20" cx="386.7" cy="225.7" r="45.6"/>
	<circle class="st20" cx="343.9" cy="310.3" r="45.6"/>
	<circle class="st19" cx="414.3" cy="624.9" r="45.6"/>
	<circle class="st19" cx="549" cy="660.8" r="45.6"/>
</g>
<line class="st21" x1="504.7" y1="252.4" x2="438.7" y2="304.8"/>
<line class="st21" x1="438.7" y1="304.8" x2="434.5" y2="389.9"/>
<line class="st21" x1="868.8" y1="585" x2="824.9" y2="471.5"/>
<line class="st21" x1="772.3" y1="567.4" x2="824.9" y2="471.5"/>
<line class="st21" x1="500.1" y1="608.4" x2="482.5" y2="530"/>
<line class="st21" x1="438.7" y1="304.8" x2="386" y2="225.7"/>
<line class="st21" x1="438.7" y1="304.8" x2="343.2" y2="310.3"/>
<line class="st21" x1="414.3" y1="624.9" x2="500.1" y2="608.4"/>
<line class="st21" x1="500.1" y1="608.4" x2="549" y2="660.8"/>
<line class="st21" x1="833" y1="359.3" x2="824.9" y2="471.5"/>
<line class="st21" x1="913.1" y1="422.6" x2="824.9" y2="471.5"/>
<line class="st21" x1="744.8" y1="389.4" x2="824.9" y2="471.5"/>
<line class="st21" x1="940.3" y1="522.8" x2="824.9" y2="471.5"/>
<line class="st22" x1="615" y1="470.2" x2="827" y2="470.2"/>
<line class="st22" x1="500.1" y1="608.4" x2="615" y2="470.2"/>
<line class="st22" x1="438.7" y1="304.8" x2="615" y2="468.3"/>
<line class="st23" x1="226.4" y1="522.8" x2="615" y2="470.2"/>
<line class="st23" x1="645.2" y1="245.6" x2="615" y2="468.3"/>
<g>
	<g>
		
			<image style="overflow:visible;opacity:0.15;" width="235" height="235" xlink:href="13D1DD357E0C1CB7.png"  transform="matrix(0.24 0 0 0.24 842.6825 558.8569)">
		</image>
		<g>
			<circle class="st24" cx="868.8" cy="585" r="22.1"/>
		</g>
	</g>
	<g>
		<rect x="848.2" y="578.1" class="st8" width="41.3" height="28.5"/>
		<text transform="matrix(1 0 0 1 863.8539 593.6787)" class="st25 st26 st27 st28">L</text>
	</g>
</g>
<g>
	<g>
		
			<image style="overflow:visible;opacity:0.1;" width="228" height="228" xlink:href="13D1DD357E0C1CB5.png"  transform="matrix(0.24 0 0 0.24 746.9716 542.1328)">
		</image>
		<g>
			<g>
				<g>
					<g>
						<g>
							<defs>
								<circle id="SVGID_3_" cx="772.3" cy="567.5" r="21.9"/>
							</defs>
							<clipPath id="SVGID_2_">
								<use xlink:href="#SVGID_3_"  style="overflow:visible;"/>
							</clipPath>
						</g>
					</g>
				</g>
			</g>
			<g>
				<g>
					<circle class="st24" cx="772.3" cy="567.4" r="24.3"/>
					<g>
						<circle class="st24" cx="772.3" cy="567.5" r="21.9"/>
						<g>
							<defs>
								<circle id="SVGID_5_" cx="772.3" cy="567.5" r="21.9"/>
							</defs>
							<clipPath id="SVGID_4_">
								<use xlink:href="#SVGID_5_"  style="overflow:visible;"/>
							</clipPath>
						</g>
					</g>
				</g>
				<circle class="st29" cx="772.3" cy="567.4" r="24.3"/>
			</g>
			<g>
				<g>
					<g>
						<g>
							<defs>
								<circle id="SVGID_7_" cx="772.3" cy="567.5" r="21.9"/>
							</defs>
							<clipPath id="SVGID_6_">
								<use xlink:href="#SVGID_7_"  style="overflow:visible;"/>
							</clipPath>
						</g>
					</g>
				</g>
			</g>
		</g>
	</g>
	<g>
		<rect x="751.6" y="559.5" class="st8" width="41.3" height="28.5"/>
		<text transform="matrix(1 0 0 1 765.4608 574.9844)" class="st25 st26 st27 st28">H</text>
	</g>
</g>
<g>
	
		<image style="overflow:visible;opacity:0.1;" width="210" height="210" xlink:href="13D1DD357E0C1CBB.png"  transform="matrix(0.24 0 0 0.24 809.84 334.0236)">
	</image>
	<g>
		<g>
			<circle class="st24" cx="833" cy="357.2" r="22.1"/>
			<g>
				<rect x="812.3" y="350.3" class="st8" width="41.3" height="28.5"/>
				<text transform="matrix(1 0 0 1 824.5546 365.8457)" class="st25 st26 st27 st28">M</text>
			</g>
		</g>
	</g>
</g>
<g>
	
		<image style="overflow:visible;opacity:0.1;" width="210" height="210" xlink:href="13D1DD357E0C1CBD.png"  transform="matrix(0.24 0 0 0.24 362.8736 202.5758)">
	</image>
	<g>
		<g>
			<circle class="st24" cx="386" cy="225.7" r="22.1"/>
			<g>
				<rect x="365.4" y="218.9" class="st8" width="41.3" height="28.5"/>
				<text transform="matrix(1 0 0 1 377.5887 234.3979)" class="st25 st26 st27 st28">M</text>
			</g>
		</g>
	</g>
</g>
<g>
	
		<image style="overflow:visible;opacity:0.1;" width="210" height="210" xlink:href="13D1DD357E0C1CBF.png"  transform="matrix(0.24 0 0 0.24 481.5458 229.2656)">
	</image>
	<g>
		<g>
			<circle class="st24" cx="504.7" cy="252.4" r="22.1"/>
			<g>
				<rect x="484" y="245.6" class="st8" width="41.3" height="28.5"/>
				<text transform="matrix(1 0 0 1 497.8387 261.0879)" class="st25 st26 st27 st28">D</text>
			</g>
		</g>
	</g>
</g>
<g>
	
		<image style="overflow:visible;opacity:0.1;" width="210" height="210" xlink:href="13D1DD357E0C1CBC.png"  transform="matrix(0.24 0 0 0.24 320.0738 287.1233)">
	</image>
	<g>
		<g>
			<circle class="st24" cx="343.2" cy="310.3" r="22.1"/>
			<g>
				<rect x="322.6" y="303.4" class="st8" width="41.3" height="28.5"/>
				<text transform="matrix(1 0 0 1 337.3158 318.9448)" class="st25 st26 st27 st28">C</text>
			</g>
		</g>
	</g>
</g>
<g>
	
		<image style="overflow:visible;opacity:0.1;" width="210" height="210" xlink:href="13D1DD357E0C1CB4.png"  transform="matrix(0.24 0 0 0.24 411.8156 362.5712)">
	</image>
	<g>
		<g>
			<circle class="st24" cx="435" cy="385.7" r="22.1"/>
			<g>
				<rect x="414.3" y="378.9" class="st8" width="41.3" height="28.5"/>
				<text transform="matrix(1 0 0 1 426.0365 394.3931)" class="st25 st26 st27 st28">W</text>
			</g>
		</g>
	</g>
</g>
<g>
	
		<image style="overflow:visible;opacity:0.1;" width="210" height="210" xlink:href="13D1DD357E0C1CB6.png"  transform="matrix(0.24 0 0 0.24 459.3979 506.8488)">
	</image>
	<g>
		<g>
			<circle class="st24" cx="482.5" cy="530" r="22.1"/>
			<g>
				<rect x="461.9" y="523.1" class="st8" width="41.3" height="28.5"/>
				<text transform="matrix(1 0 0 1 477.3075 538.6719)" class="st25 st26 st27 st28">T</text>
			</g>
		</g>
	</g>
</g>
<g>
	
		<image style="overflow:visible;opacity:0.1;" width="210" height="210" xlink:href="13D1DD357E0C1CB2.png"  transform="matrix(0.24 0 0 0.24 391.1637 601.7725)">
	</image>
	<g>
		<g>
			<circle class="st24" cx="414.3" cy="624.9" r="22.1"/>
			<g>
				<rect x="393.7" y="618.1" class="st8" width="41.3" height="28.5"/>
				<text transform="matrix(1 0 0 1 408.4833 633.5947)" class="st25 st26 st27 st28">K</text>
			</g>
		</g>
	</g>
</g>
<g>
	
		<image style="overflow:visible;opacity:0.1;" width="210" height="210" xlink:href="DD54F8BB37C02674.png"  transform="matrix(0.24 0 0 0.24 525.8415 637.6111)">
	</image>
	<g>
		<g>
			<circle class="st24" cx="549" cy="660.8" r="22.1"/>
			<g>
				<rect x="528.3" y="653.9" class="st8" width="41.3" height="28.5"/>
				<text transform="matrix(1 0 0 1 541.9506 669.4336)" class="st25 st26 st27 st28">O</text>
			</g>
		</g>
	</g>
</g>
<g>
	
		<image style="overflow:visible;opacity:0.1;" width="210" height="210" xlink:href="DD54F8BB37C02673.png"  transform="matrix(0.24 0 0 0.24 889.9783 396.9479)">
	</image>
	<g>
		<g>
			<circle class="st24" cx="913.1" cy="420.1" r="22.1"/>
			<g>
				<rect x="892.5" y="413.2" class="st8" width="41.3" height="28.5"/>
				<text transform="matrix(1 0 0 1 906.7264 428.7705)" class="st30 st26 st27 st28">A</text>
			</g>
		</g>
	</g>
</g>
<g>
	<circle class="st25" cx="645.2" cy="244.8" r="24.5"/>
	<g>
		<g>
			<path class="st24" d="M657,240.4c1.2,0,2.2-1,2.2-2.3v-3c0-1.3-1-2.3-2.2-2.3h-23.4c-1.2,0-2.2,1-2.2,2.3v3c0,1.3,1,2.3,2.2,2.3
				h10.4v0.6h-10.4c-1.2,0-2.2,1-2.2,2.3v3c0,1.3,1,2.3,2.2,2.3h10.4v0.5h-10.4c-1.2,0-2.2,1-2.2,2.3v3c0,1.3,1,2.3,2.2,2.3H657
				c1.2,0,2.2-1,2.2-2.3v-3c0-1.3-1-2.3-2.2-2.3h-10.4v-0.5H657c1.2,0,2.2-1,2.2-2.3v-3c0-1.3-1-2.3-2.2-2.3h-10.4v-0.6H657z
				 M632.3,238v-3c0-0.7,0.5-1.2,1.2-1.2H657c0.7,0,1.2,0.6,1.2,1.2v3c0,0.7-0.5,1.2-1.2,1.2h-23.4
				C632.9,239.3,632.3,238.7,632.3,238L632.3,238z M658.2,251.5v3c0,0.7-0.5,1.2-1.2,1.2h-23.4c-0.7,0-1.2-0.6-1.2-1.2v-3
				c0-0.7,0.5-1.2,1.2-1.2H657C657.6,250.3,658.2,250.8,658.2,251.5L658.2,251.5z M645.5,249.2H645v-0.5h0.5V249.2z M658.2,243.3v3
				c0,0.7-0.5,1.2-1.2,1.2h-23.4c-0.7,0-1.2-0.6-1.2-1.2v-3c0-0.7,0.5-1.2,1.2-1.2H657C657.6,242,658.2,242.6,658.2,243.3
				L658.2,243.3z M645.5,240.9H645v-0.6h0.5V240.9z M645.5,240.9"/>
		</g>
		<g>
			<circle class="st24" cx="635" cy="236.6" r="0.8"/>
			<circle class="st24" cx="651.8" cy="236.6" r="0.8"/>
			<circle class="st24" cx="655.5" cy="236.6" r="0.8"/>
			<g>
				<circle class="st24" cx="648" cy="236.6" r="0.8"/>
				<circle class="st24" cx="639.1" cy="236.6" r="0.8"/>
				<rect x="639.1" y="235.8" class="st24" width="8.9" height="1.6"/>
			</g>
		</g>
		<g>
			<circle class="st24" cx="635" cy="244.8" r="0.8"/>
			<circle class="st24" cx="651.8" cy="244.8" r="0.8"/>
			<circle class="st24" cx="655.5" cy="244.8" r="0.8"/>
			<g>
				<circle class="st24" cx="648" cy="244.8" r="0.8"/>
				<circle class="st24" cx="639.1" cy="244.8" r="0.8"/>
				<rect x="639.1" y="244" class="st24" width="8.9" height="1.6"/>
			</g>
		</g>
		<g>
			<circle class="st24" cx="635" cy="253.1" r="0.8"/>
			<circle class="st24" cx="651.8" cy="253.1" r="0.8"/>
			<circle class="st24" cx="655.5" cy="253.1" r="0.8"/>
			<g>
				<circle class="st24" cx="648" cy="253.1" r="0.8"/>
				<circle class="st24" cx="639.1" cy="253.1" r="0.8"/>
				<rect x="639.1" y="252.3" class="st24" width="8.9" height="1.6"/>
			</g>
		</g>
	</g>
</g>
<g>
	<circle class="st25" cx="824.9" cy="471.5" r="24.5"/>
	<g>
		<g>
			<path class="st24" d="M836.6,467.1c1.2,0,2.2-1,2.2-2.3v-3c0-1.3-1-2.3-2.2-2.3h-23.4c-1.2,0-2.2,1-2.2,2.3v3
				c0,1.3,1,2.3,2.2,2.3h10.4v0.6h-10.4c-1.2,0-2.2,1-2.2,2.3v3c0,1.3,1,2.3,2.2,2.3h10.4v0.5h-10.4c-1.2,0-2.2,1-2.2,2.3v3
				c0,1.3,1,2.3,2.2,2.3h23.4c1.2,0,2.2-1,2.2-2.3v-3c0-1.3-1-2.3-2.2-2.3h-10.4v-0.5h10.4c1.2,0,2.2-1,2.2-2.3v-3
				c0-1.3-1-2.3-2.2-2.3h-10.4v-0.6H836.6z M812,464.7v-3c0-0.7,0.5-1.2,1.2-1.2h23.4c0.7,0,1.2,0.6,1.2,1.2v3
				c0,0.7-0.5,1.2-1.2,1.2h-23.4C812.5,466,812,465.4,812,464.7L812,464.7z M837.8,478.2v3c0,0.7-0.5,1.2-1.2,1.2h-23.4
				c-0.7,0-1.2-0.6-1.2-1.2v-3c0-0.7,0.5-1.2,1.2-1.2h23.4C837.3,477,837.8,477.5,837.8,478.2L837.8,478.2z M825.2,475.9h-0.5v-0.5
				h0.5V475.9z M837.8,470v3c0,0.7-0.5,1.2-1.2,1.2h-23.4c-0.7,0-1.2-0.6-1.2-1.2v-3c0-0.7,0.5-1.2,1.2-1.2h23.4
				C837.3,468.7,837.8,469.3,837.8,470L837.8,470z M825.2,467.6h-0.5v-0.6h0.5V467.6z M825.2,467.6"/>
		</g>
		<g>
			<circle class="st24" cx="814.6" cy="463.3" r="0.8"/>
			<circle class="st24" cx="831.5" cy="463.3" r="0.8"/>
			<circle class="st24" cx="835.2" cy="463.3" r="0.8"/>
			<g>
				<circle class="st24" cx="827.6" cy="463.3" r="0.8"/>
				<circle class="st24" cx="818.7" cy="463.3" r="0.8"/>
				<rect x="818.7" y="462.5" class="st24" width="8.9" height="1.6"/>
			</g>
		</g>
		<g>
			<circle class="st24" cx="814.6" cy="471.5" r="0.8"/>
			<circle class="st24" cx="831.5" cy="471.5" r="0.8"/>
			<circle class="st24" cx="835.2" cy="471.5" r="0.8"/>
			<g>
				<circle class="st24" cx="827.6" cy="471.5" r="0.8"/>
				<circle class="st24" cx="818.7" cy="471.5" r="0.8"/>
				<rect x="818.7" y="470.7" class="st24" width="8.9" height="1.6"/>
			</g>
		</g>
		<g>
			<circle class="st24" cx="814.6" cy="479.8" r="0.8"/>
			<circle class="st24" cx="831.5" cy="479.8" r="0.8"/>
			<circle class="st24" cx="835.2" cy="479.8" r="0.8"/>
			<g>
				<circle class="st24" cx="827.6" cy="479.8" r="0.8"/>
				<circle class="st24" cx="818.7" cy="479.8" r="0.8"/>
				<rect x="818.7" y="479" class="st24" width="8.9" height="1.6"/>
			</g>
		</g>
	</g>
</g>
<g>
	
		<image style="overflow:visible;opacity:0.1;" width="228" height="228" xlink:href="DD54F8BB37C0268C.png"  transform="matrix(0.24 0 0 0.24 915.027 497.5534)">
	</image>
	<g>
		<g>
			<g>
				<g>
					<defs>
						<circle id="SVGID_9_" cx="940.3" cy="522.9" r="21.9"/>
					</defs>
					<clipPath id="SVGID_8_">
						<use xlink:href="#SVGID_9_"  style="overflow:visible;"/>
					</clipPath>
				</g>
			</g>
		</g>
		<g>
			<g>
				<circle class="st24" cx="940.3" cy="522.8" r="24.3"/>
				<g>
					<defs>
						<circle id="SVGID_11_" cx="940.3" cy="522.9" r="21.9"/>
					</defs>
					<clipPath id="SVGID_10_">
						<use xlink:href="#SVGID_11_"  style="overflow:visible;"/>
					</clipPath>
					<g transform="matrix(1 0 0 1 0 3.051758e-05)" style="clip-path:url(#SVGID_10_);">
						
							<image style="overflow:visible;" width="384" height="384" xlink:href="DD54F8BB37C0268F.png"  transform="matrix(0.1139 0 0 0.1139 918.4626 501.0323)">
						</image>
					</g>
				</g>
			</g>
			<circle class="st29" cx="940.3" cy="522.8" r="24.3"/>
		</g>
		<g>
			<g>
				<g>
					<defs>
						<circle id="SVGID_13_" cx="940.3" cy="522.9" r="21.9"/>
					</defs>
					<clipPath id="SVGID_12_">
						<use xlink:href="#SVGID_13_"  style="overflow:visible;"/>
					</clipPath>
				</g>
			</g>
		</g>
	</g>
</g>
<g>
	<path class="st31" d="M870.3,478.1h-21.5c-3.3,0-6-2.7-6-6v0c0-3.3,2.7-6,6-6h21.5c3.3,0,6,2.7,6,6v0
		C876.3,475.4,873.6,478.1,870.3,478.1z"/>
	<rect x="840" y="468.2" class="st8" width="39.1" height="10.3"/>
	<text transform="matrix(1 0 0 1 848.1078 476.2776)" class="st24 st26 st32">CDM</text>
</g>
<g>
	<circle class="st31" cx="792" cy="472.5" r="6"/>
	<rect x="772.3" y="465.4" class="st8" width="39.1" height="12"/>
	<text transform="matrix(1 0 0 1 789.3719 476.9724)" class="st24 st26 st33 st28">-</text>
</g>
<circle class="st34" cx="913.1" cy="420.1" r="22.2"/>
<circle class="st35" cx="940.3" cy="522.9" r="22.2"/>
<g>
	<g>
		
			<image style="overflow:visible;opacity:0.1;" width="228" height="228" xlink:href="DD54F8BB37C0268D.png"  transform="matrix(0.24 0 0 0.24 719.5107 364.0754)">
		</image>
		<g>
			<g>
				<g>
					<g>
						<defs>
							<circle id="SVGID_15_" cx="744.8" cy="389.4" r="21.9"/>
						</defs>
						<clipPath id="SVGID_14_">
							<use xlink:href="#SVGID_15_"  style="overflow:visible;"/>
						</clipPath>
					</g>
				</g>
			</g>
			<g>
				<g>
					<circle class="st24" cx="744.8" cy="389.4" r="24.3"/>
					<g>
						<defs>
							<circle id="SVGID_17_" cx="744.8" cy="389.4" r="21.9"/>
						</defs>
						<clipPath id="SVGID_16_">
							<use xlink:href="#SVGID_17_"  style="overflow:visible;"/>
						</clipPath>
						<g transform="matrix(1 0 0 1 0 0)" style="clip-path:url(#SVGID_16_);">
							
								<image style="overflow:visible;" width="384" height="386" xlink:href="DD54F8BB37C02693.png"  transform="matrix(0.1133 0 0 0.1133 723.0596 367.5543)">
							</image>
						</g>
					</g>
				</g>
				<circle class="st29" cx="744.8" cy="389.4" r="24.3"/>
			</g>
			<g>
				<g>
					<g>
						<defs>
							<circle id="SVGID_19_" cx="744.8" cy="389.4" r="21.9"/>
						</defs>
						<clipPath id="SVGID_18_">
							<use xlink:href="#SVGID_19_"  style="overflow:visible;"/>
						</clipPath>
					</g>
				</g>
			</g>
		</g>
	</g>
	<circle class="st35" cx="744.8" cy="389.4" r="22.2"/>
</g>
<rect x="894.5" y="417" class="st8" width="37.2" height="11.2"/>
<text transform="matrix(1 0 0 1 898.6351 425.1279)" class="st25 st26 st32">Alexia</text>
<g>
	
		<image style="overflow:visible;opacity:5.000000e-02;" width="83" height="83" xlink:href="DD54F8BB37C02694.png"  transform="matrix(0.24 0 0 0.24 719.0037 337.5822)">
	</image>
	<g>
		<circle class="st36" cx="728" cy="346.5" r="7"/>
	</g>
</g>
<g>
	
		<image style="overflow:visible;opacity:5.000000e-02;" width="83" height="83" xlink:href="DD54F8BB37C02697.png"  transform="matrix(0.24 0 0 0.24 495.7357 197.8151)">
	</image>
	<g>
		<circle class="st36" cx="504.7" cy="206.8" r="7"/>
	</g>
</g>
<g>
	
		<image style="overflow:visible;opacity:5.000000e-02;" width="83" height="83" xlink:href="DD54F8BB37C02695.png"  transform="matrix(0.24 0 0 0.24 331.4231 209.9099)">
	</image>
	<g>
		<circle class="st36" cx="340.4" cy="218.9" r="7"/>
	</g>
</g>
<g>
	
		<image style="overflow:visible;opacity:5.000000e-02;" width="83" height="83" xlink:href="DD54F8BB37C02692.png"  transform="matrix(0.24 0 0 0.24 690.208 374.9841)">
	</image>
	<g>
		<circle class="st36" cx="699.2" cy="383.9" r="7"/>
	</g>
</g>
<g>
	
		<image style="overflow:visible;opacity:5.000000e-02;" width="83" height="83" xlink:href="DD54F8BB37C026B7.png"  transform="matrix(0.24 0 0 0.24 451.44 414.0853)">
	</image>
	<g>
		<circle class="st36" cx="460.4" cy="423" r="7"/>
	</g>
</g>
<g>
	
		<image style="overflow:visible;opacity:5.000000e-02;" width="83" height="83" xlink:href="DD54F8BB37C026B1.png"  transform="matrix(0.24 0 0 0.24 732.9196 426.0536)">
	</image>
	<g>
		<circle class="st36" cx="741.9" cy="435" r="7"/>
	</g>
</g>
<g>
	
		<image style="overflow:visible;opacity:5.000000e-02;" width="83" height="83" xlink:href="DD54F8BB37C026B3.png"  transform="matrix(0.24 0 0 0.24 345.339 344.5402)">
	</image>
	<g>
		<circle class="st36" cx="354.3" cy="353.5" r="7"/>
	</g>
</g>
<g>
	
		<image style="overflow:visible;opacity:5.000000e-02;" width="83" height="83" xlink:href="DD54F8BB37C026BE.png"  transform="matrix(0.24 0 0 0.24 818.8834 302.573)">
	</image>
	<g>
		<circle class="st36" cx="827.8" cy="311.5" r="7"/>
	</g>
</g>
<g>
	
		<image style="overflow:visible;opacity:5.000000e-02;" width="83" height="83" xlink:href="DD54F8BB37C026BF.png"  transform="matrix(0.24 0 0 0.24 928.0845 374.984)">
	</image>
	<g>
		<circle class="st36" cx="937" cy="383.9" r="7"/>
	</g>
</g>
<g>
	
		<image style="overflow:visible;opacity:5.000000e-02;" width="107" height="107" xlink:href="DD54F8BB37C026B2.png"  transform="matrix(0.24 0 0 0.24 945.8393 418.837)">
	</image>
	<g>
		<circle class="st24" cx="957.7" cy="430.7" r="9.8"/>
	</g>
</g>
<g>
	
		<image style="overflow:visible;opacity:5.000000e-02;" width="107" height="107" xlink:href="DD54F8BB37C026B5.png"  transform="matrix(0.24 0 0 0.24 945.8393 418.837)">
	</image>
	<g>
		<circle class="st36" cx="957.7" cy="430.7" r="9.8"/>
	</g>
</g>
<g>
	
		<image style="overflow:visible;opacity:5.000000e-02;" width="83" height="83" xlink:href="DD54F8BB37C026B6.png"  transform="matrix(0.24 0 0 0.24 895.0508 605.1526)">
	</image>
	<g>
		<circle class="st36" cx="904" cy="614.1" r="7"/>
	</g>
</g>
<g>
	
		<image style="overflow:visible;opacity:5.000000e-02;" width="83" height="83" xlink:href="DD54F8BB37C026B4.png"  transform="matrix(0.24 0 0 0.24 548.6079 697.4415)">
	</image>
	<g>
		<circle class="st36" cx="557.6" cy="706.4" r="7"/>
	</g>
</g>
<g>
	
		<image style="overflow:visible;opacity:5.000000e-02;" width="83" height="83" xlink:href="DD54F8BB37C0268E.png"  transform="matrix(0.24 0 0 0.24 937.6657 445.0524)">
	</image>
	<g>
		<circle class="st36" cx="946.6" cy="454" r="7"/>
	</g>
</g>
<g>
	
		<image style="overflow:visible;opacity:5.000000e-02;" width="83" height="83" xlink:href="DD54F8BB37C026D6.png"  transform="matrix(0.24 0 0 0.24 973.8873 530.4064)">
	</image>
	<g>
		<circle class="st36" cx="982.8" cy="539.4" r="7"/>
	</g>
</g>
<g>
	
		<image style="overflow:visible;opacity:5.000000e-02;" width="83" height="83" xlink:href="DD54F8BB37C026E9.png"  transform="matrix(0.24 0 0 0.24 914.027 459.1098)">
	</image>
	<g>
		<circle class="st36" cx="923" cy="468.1" r="7"/>
	</g>
</g>
<g>
	
		<image style="overflow:visible;opacity:5.000000e-02;" width="83" height="83" xlink:href="DD54F8BB37C026EA.png"  transform="matrix(0.24 0 0 0.24 359.7131 613.8197)">
	</image>
	<g>
		<circle class="st36" cx="368.7" cy="622.8" r="7"/>
	</g>
</g>
<g>
	
		<image style="overflow:visible;opacity:5.000000e-02;" width="83" height="83" xlink:href="DD54F8BB37C026E8.png"  transform="matrix(0.24 0 0 0.24 962.077 480.4989)">
	</image>
	<g>
		<circle class="st36" cx="971" cy="489.5" r="7"/>
	</g>
</g>
<g>
	
		<image style="overflow:visible;opacity:5.000000e-02;" width="83" height="83" xlink:href="DD54F8BB37C026EE.png"  transform="matrix(0.24 0 0 0.24 945.8393 395.9479)">
	</image>
	<g>
		<circle class="st36" cx="954.8" cy="404.9" r="7"/>
	</g>
</g>
<g>
	
		<image style="overflow:visible;opacity:5.000000e-02;" width="83" height="83" xlink:href="DD54F8BB37C026EB.png"  transform="matrix(0.24 0 0 0.24 739.0136 595.1033)">
	</image>
	<g>
		<circle class="st36" cx="748" cy="604.1" r="7"/>
	</g>
</g>
<g>
	
		<image style="overflow:visible;opacity:5.000000e-02;" width="83" height="83" xlink:href="DD54F8BB37C026E6.png"  transform="matrix(0.24 0 0 0.24 416.4626 570.322)">
	</image>
	<g>
		<circle class="st36" cx="425.4" cy="579.3" r="7"/>
	</g>
</g>
<g>
	
		<image style="overflow:visible;opacity:5.000000e-02;" width="83" height="83" xlink:href="DD54F8BB37C026E7.png"  transform="matrix(0.24 0 0 0.24 728.8905 530.4064)">
	</image>
	<g>
		<circle class="st36" cx="737.8" cy="539.4" r="7"/>
	</g>
</g>
<g>
	
		<image style="overflow:visible;opacity:5.000000e-02;" width="83" height="83" xlink:href="DD54F8BB37C026F6.png"  transform="matrix(0.24 0 0 0.24 495.7357 479.3438)">
	</image>
	<g>
		<circle class="st36" cx="504.7" cy="488.3" r="7"/>
	</g>
</g>
<g>
	
		<image style="overflow:visible;opacity:5.000000e-02;" width="83" height="83" xlink:href="DD54F8BB37C026F9.png"  transform="matrix(0.24 0 0 0.24 898.8897 368.0261)">
	</image>
	<g>
		<circle class="st36" cx="907.8" cy="377" r="7"/>
	</g>
</g>
<g>
	
		<image style="overflow:visible;opacity:5.000000e-02;" width="83" height="83" xlink:href="DD54F8BB37C026C5.png"  transform="matrix(0.24 0 0 0.24 873.1241 380.4131)">
	</image>
	<g>
		<circle class="st36" cx="882.1" cy="389.4" r="7"/>
	</g>
</g>
<g>
	<path class="st37" d="M960.1,431.3v12l3.6-1.6l2.4,5.6l2-1l-2.3-5.5l3.3-1.5L960.1,431.3z M960.1,431.3"/>
</g>
<g>
	<circle class="st25" cx="438.7" cy="303.4" r="24.5"/>
	<g>
		<g>
			<path class="st24" d="M450.4,299c1.2,0,2.2-1,2.2-2.3v-3c0-1.3-1-2.3-2.2-2.3h-23.4c-1.2,0-2.2,1-2.2,2.3v3c0,1.3,1,2.3,2.2,2.3
				h10.4v0.6h-10.4c-1.2,0-2.2,1-2.2,2.3v3c0,1.3,1,2.3,2.2,2.3h10.4v0.5h-10.4c-1.2,0-2.2,1-2.2,2.3v3c0,1.3,1,2.3,2.2,2.3h23.4
				c1.2,0,2.2-1,2.2-2.3v-3c0-1.3-1-2.3-2.2-2.3H440v-0.5h10.4c1.2,0,2.2-1,2.2-2.3v-3c0-1.3-1-2.3-2.2-2.3H440V299H450.4z
				 M425.8,296.7v-3c0-0.7,0.5-1.2,1.2-1.2h23.4c0.7,0,1.2,0.6,1.2,1.2v3c0,0.7-0.5,1.2-1.2,1.2h-23.4
				C426.3,297.9,425.8,297.4,425.8,296.7L425.8,296.7z M451.6,310.2v3c0,0.7-0.5,1.2-1.2,1.2h-23.4c-0.7,0-1.2-0.6-1.2-1.2v-3
				c0-0.7,0.5-1.2,1.2-1.2h23.4C451,308.9,451.6,309.5,451.6,310.2L451.6,310.2z M438.9,307.8h-0.5v-0.5h0.5V307.8z M451.6,301.9v3
				c0,0.7-0.5,1.2-1.2,1.2h-23.4c-0.7,0-1.2-0.6-1.2-1.2v-3c0-0.7,0.5-1.2,1.2-1.2h23.4C451,300.7,451.6,301.2,451.6,301.9
				L451.6,301.9z M438.9,299.6h-0.5V299h0.5V299.6z M438.9,299.6"/>
		</g>
		<g>
			<circle class="st24" cx="428.4" cy="295.3" r="0.8"/>
			<circle class="st24" cx="445.2" cy="295.3" r="0.8"/>
			<circle class="st24" cx="448.9" cy="295.3" r="0.8"/>
			<g>
				<circle class="st24" cx="441.4" cy="295.3" r="0.8"/>
				<circle class="st24" cx="432.5" cy="295.3" r="0.8"/>
				<rect x="432.5" y="294.5" class="st24" width="8.9" height="1.6"/>
			</g>
		</g>
		<g>
			<circle class="st24" cx="428.4" cy="303.4" r="0.8"/>
			<circle class="st24" cx="445.2" cy="303.4" r="0.8"/>
			<circle class="st24" cx="448.9" cy="303.4" r="0.8"/>
			<g>
				<circle class="st24" cx="441.4" cy="303.4" r="0.8"/>
				<circle class="st24" cx="432.5" cy="303.4" r="0.8"/>
				<rect x="432.5" y="302.6" class="st24" width="8.9" height="1.6"/>
			</g>
		</g>
		<g>
			<circle class="st24" cx="428.4" cy="311.7" r="0.8"/>
			<circle class="st24" cx="445.2" cy="311.7" r="0.8"/>
			<circle class="st24" cx="448.9" cy="311.7" r="0.8"/>
			<g>
				<circle class="st24" cx="441.4" cy="311.7" r="0.8"/>
				<circle class="st24" cx="432.5" cy="311.7" r="0.8"/>
				<rect x="432.5" y="310.9" class="st24" width="8.9" height="1.6"/>
			</g>
		</g>
	</g>
</g>
<g>
	<path class="st38" d="M485.9,310.8h-21.5c-3.3,0-6-2.7-6-6v0c0-3.3,2.7-6,6-6h21.5c3.3,0,6,2.7,6,6v0
		C491.9,308.1,489.3,310.8,485.9,310.8z"/>
	<g>
		<rect x="455.6" y="300.9" class="st8" width="39.1" height="9.1"/>
		<text transform="matrix(1 0 0 1 465.4796 309.0195)" class="st25 st26 st32 st28">MIT</text>
	</g>
</g>
<g>
	<circle class="st25" cx="500.1" cy="608.4" r="24.5"/>
	<g>
		<g>
			<path class="st24" d="M511.8,604c1.2,0,2.2-1,2.2-2.3v-3c0-1.3-1-2.3-2.2-2.3h-23.4c-1.2,0-2.2,1-2.2,2.3v3c0,1.3,1,2.3,2.2,2.3
				h10.4v0.6h-10.4c-1.2,0-2.2,1-2.2,2.3v3c0,1.3,1,2.3,2.2,2.3h10.4v0.5h-10.4c-1.2,0-2.2,1-2.2,2.3v3c0,1.3,1,2.3,2.2,2.3h23.4
				c1.2,0,2.2-1,2.2-2.3v-3c0-1.3-1-2.3-2.2-2.3h-10.4v-0.5h10.4c1.2,0,2.2-1,2.2-2.3v-3c0-1.3-1-2.3-2.2-2.3h-10.4V604H511.8z
				 M487.2,601.6v-3c0-0.7,0.5-1.2,1.2-1.2h23.4c0.7,0,1.2,0.6,1.2,1.2v3c0,0.7-0.5,1.2-1.2,1.2h-23.4
				C487.7,602.9,487.2,602.3,487.2,601.6L487.2,601.6z M513,615.1v3c0,0.7-0.5,1.2-1.2,1.2h-23.4c-0.7,0-1.2-0.6-1.2-1.2v-3
				c0-0.7,0.5-1.2,1.2-1.2h23.4C512.5,613.9,513,614.4,513,615.1L513,615.1z M500.4,612.8h-0.5v-0.5h0.5V612.8z M513,606.9v3
				c0,0.7-0.5,1.2-1.2,1.2h-23.4c-0.7,0-1.2-0.6-1.2-1.2v-3c0-0.7,0.5-1.2,1.2-1.2h23.4C512.5,605.6,513,606.2,513,606.9L513,606.9z
				 M500.4,604.5h-0.5V604h0.5V604.5z M500.4,604.5"/>
		</g>
		<g>
			<circle class="st24" cx="489.8" cy="600.2" r="0.8"/>
			<circle class="st24" cx="506.7" cy="600.2" r="0.8"/>
			<circle class="st24" cx="510.4" cy="600.2" r="0.8"/>
			<g>
				<circle class="st24" cx="502.9" cy="600.2" r="0.8"/>
				<circle class="st24" cx="494" cy="600.2" r="0.8"/>
				<rect x="494" y="599.4" class="st24" width="8.9" height="1.6"/>
			</g>
		</g>
		<g>
			<circle class="st24" cx="489.8" cy="608.4" r="0.8"/>
			<circle class="st24" cx="506.7" cy="608.4" r="0.8"/>
			<circle class="st24" cx="510.4" cy="608.4" r="0.8"/>
			<g>
				<circle class="st24" cx="502.9" cy="608.4" r="0.8"/>
				<circle class="st24" cx="494" cy="608.4" r="0.8"/>
				<rect x="494" y="607.6" class="st24" width="8.9" height="1.6"/>
			</g>
		</g>
		<g>
			<circle class="st24" cx="489.8" cy="616.7" r="0.8"/>
			<circle class="st24" cx="506.7" cy="616.7" r="0.8"/>
			<circle class="st24" cx="510.4" cy="616.7" r="0.8"/>
			<g>
				<circle class="st24" cx="502.9" cy="616.7" r="0.8"/>
				<circle class="st24" cx="494" cy="616.7" r="0.8"/>
				<rect x="494" y="615.9" class="st24" width="8.9" height="1.6"/>
			</g>
		</g>
	</g>
</g>
<g>
	<path class="st39" d="M547.7,615.2h-21.5c-3.3,0-6-2.7-6-6l0,0c0-3.3,2.7-6,6-6h21.5c3.3,0,6,2.7,6,6l0,0
		C553.7,612.5,551,615.2,547.7,615.2z"/>
	<rect x="517.3" y="605.3" class="st8" width="39.1" height="9.1"/>
	<text transform="matrix(1 0 0 1 528.6415 613.4097)" class="st24 st26 st32 st28">ITP</text>
</g>
<g>
	<path class="st40" d="M690.9,250.8h-21.5c-3.3,0-6-2.7-6-6v0c0-3.3,2.7-6,6-6h21.5c3.3,0,6,2.7,6,6v0
		C696.9,248.1,694.2,250.8,690.9,250.8z"/>
	<rect x="660.6" y="240.9" class="st8" width="39.1" height="9.1"/>
	<text transform="matrix(1 0 0 1 669.3026 248.9854)" class="st24 st26 st32 st28">UBC</text>
</g>
<g>
	<circle class="st25" cx="225.8" cy="522.8" r="24.5"/>
	<g>
		<g>
			<path class="st24" d="M237.5,518.4c1.2,0,2.2-1,2.2-2.3v-3c0-1.3-1-2.3-2.2-2.3h-23.4c-1.2,0-2.2,1-2.2,2.3v3
				c0,1.3,1,2.3,2.2,2.3h10.4v0.6h-10.4c-1.2,0-2.2,1-2.2,2.3v3c0,1.3,1,2.3,2.2,2.3h10.4v0.5h-10.4c-1.2,0-2.2,1-2.2,2.3v3
				c0,1.3,1,2.3,2.2,2.3h23.4c1.2,0,2.2-1,2.2-2.3v-3c0-1.3-1-2.3-2.2-2.3h-10.4v-0.5h10.4c1.2,0,2.2-1,2.2-2.3v-3
				c0-1.3-1-2.3-2.2-2.3h-10.4v-0.6H237.5z M212.9,516v-3c0-0.7,0.5-1.2,1.2-1.2h23.4c0.7,0,1.2,0.6,1.2,1.2v3
				c0,0.7-0.5,1.2-1.2,1.2h-23.4C213.4,517.3,212.9,516.7,212.9,516L212.9,516z M238.7,529.5v3c0,0.7-0.5,1.2-1.2,1.2h-23.4
				c-0.7,0-1.2-0.6-1.2-1.2v-3c0-0.7,0.5-1.2,1.2-1.2h23.4C238.1,528.3,238.7,528.8,238.7,529.5L238.7,529.5z M226,527.2h-0.5v-0.5
				h0.5V527.2z M238.7,521.3v3c0,0.7-0.5,1.2-1.2,1.2h-23.4c-0.7,0-1.2-0.6-1.2-1.2v-3c0-0.7,0.5-1.2,1.2-1.2h23.4
				C238.1,520,238.7,520.6,238.7,521.3L238.7,521.3z M226,518.9h-0.5v-0.6h0.5V518.9z M226,518.9"/>
		</g>
		<g>
			<circle class="st24" cx="215.5" cy="514.6" r="0.8"/>
			<circle class="st24" cx="232.4" cy="514.6" r="0.8"/>
			<circle class="st24" cx="236" cy="514.6" r="0.8"/>
			<g>
				<circle class="st24" cx="228.5" cy="514.6" r="0.8"/>
				<circle class="st24" cx="219.6" cy="514.6" r="0.8"/>
				<rect x="219.6" y="513.8" class="st24" width="8.9" height="1.6"/>
			</g>
		</g>
		<g>
			<circle class="st24" cx="215.5" cy="522.8" r="0.8"/>
			<circle class="st24" cx="232.4" cy="522.8" r="0.8"/>
			<circle class="st24" cx="236" cy="522.8" r="0.8"/>
			<g>
				<circle class="st24" cx="228.5" cy="522.8" r="0.8"/>
				<circle class="st24" cx="219.6" cy="522.8" r="0.8"/>
				<rect x="219.6" y="522" class="st24" width="8.9" height="1.6"/>
			</g>
		</g>
		<g>
			<circle class="st24" cx="215.5" cy="531.1" r="0.8"/>
			<circle class="st24" cx="232.4" cy="531.1" r="0.8"/>
			<circle class="st24" cx="236" cy="531.1" r="0.8"/>
			<g>
				<circle class="st24" cx="228.5" cy="531.1" r="0.8"/>
				<circle class="st24" cx="219.6" cy="531.1" r="0.8"/>
				<rect x="219.6" y="530.3" class="st24" width="8.9" height="1.6"/>
			</g>
		</g>
	</g>
</g>
<g>
	<path class="st41" d="M270.1,529h-21.5c-3.3,0-6-2.7-6-6l0,0c0-3.3,2.7-6,6-6h21.5c3.3,0,6,2.7,6,6l0,0
		C276.1,526.3,273.4,529,270.1,529z"/>
	<g>
		<rect x="239.7" y="519.1" class="st8" width="39.1" height="9.1"/>
		<text transform="matrix(1 0 0 1 249.2101 527.1895)" class="st24 st26 st32 st28">SFU</text>
	</g>
</g>
<g>
	<circle class="st40" cx="610.9" cy="245.6" r="6.4"/>
	<rect x="591.3" y="238.5" class="st8" width="39.1" height="14.2"/>
	<text transform="matrix(1 0 0 1 605.9806 249.9965)" class="st24 st26 st33 st28">+</text>
</g>
<g>
	<circle class="st38" cx="405.2" cy="303" r="6.4"/>
	<rect x="385.3" y="295.5" class="st8" width="39.1" height="14.2"/>
	<text transform="matrix(1 0 0 1 402.4335 307.0487)" class="st3 st26 st33 st28">-</text>
</g>
<g>
	<circle class="st39" cx="466.6" cy="609.9" r="6"/>
	<rect x="447" y="602.8" class="st8" width="39.1" height="14.2"/>
	<text transform="matrix(1 0 0 1 464.1156 614.3367)" class="st24 st26 st33 st28">-</text>
</g>
<g>
	<circle class="st41" cx="191.4" cy="523" r="6.4"/>
	<rect x="171.8" y="515.7" class="st8" width="39.1" height="14.2"/>
	<text transform="matrix(1 0 0 1 186.5084 527.2012)" class="st24 st26 st33 st28">+</text>
</g>
<g>
	<circle class="st1" cx="614.7" cy="469.4" r="30.1"/>
	<path class="st10" d="M610.5,450c-0.3,0-0.6,0-0.9,0.1c-0.5,0-1,0.1-1.5,0.3c0,0-0.1,0-0.1,0c0,0,0,0,0,0c-0.7,0.2-1.4,0.6-2,1.1
		c0,0,0,0,0,0c-1.2,0.9-1.9,2.3-1.9,3.8c0,0.5,0,1,0.2,1.5l1.2,3.5c0.1,0.2,0.1,0.3,0.1,0.4c0.1,0.8,0.1,1.6-0.3,2.3
		c-0.5,0.9-1.7,1.2-2.7,1.2l-3.7,0c-0.6,0-1.2,0.1-1.8,0.4c-1.5,0.6-2.5,1.9-3,3.4c-0.2,0.6-0.2,1.3-0.2,1.9v0
		c0,0.6,0.1,1.3,0.2,1.9c0.5,1.5,1.4,2.8,2.9,3.4c0.5,0.2,1.2,0.4,1.8,0.4l3.7,0c1,0,2.1,0.4,2.7,1.2c0.4,0.6,0.5,1.5,0.3,2.3
		c0,0.1-0.1,0.3-0.1,0.4l-1.2,3.5c-0.2,0.5-0.2,1-0.2,1.5c0,1.5,0.7,2.9,1.9,3.8c0,0,0,0,0,0c0.2,0.1,0.4,0.3,0.5,0.4
		c0.9,0.6,2,1,3.1,1.1c0.6,0.1,1.3,0.1,1.8,0c0.5-0.1,1-0.3,1.4-0.6c0.5-0.3,0.9-0.6,1.2-1c0.2-0.2,0.3-0.4,0.4-0.6
		c0.2-0.3,0.4-0.7,0.5-1.1c0,0,1.1-3.5,1.1-3.5c0.3-0.8,0.8-1.5,1.5-1.9c0,0,0,0,0,0c0.8-0.5,2-0.3,2.8,0.3c0.1,0.1,0.2,0.1,0.3,0.2
		l3,2.2c0.5,0.4,0.9,0.7,1.7,1.1c0.3,0.1,1.7,1,3.8-0.8c0,0,0.7-0.8,0.7-0.8c0.3-0.3,0.9-1,0.9-1c1.4-2,1.5-2,1.5-2
		c0.9-1.7,0.6-3,0.6-3v0c0-1.1-0.9-1.1-1.3-1.6c-0.3-0.3-1.3-1-1.3-1l-2.8-1.9c-0.2-0.1-0.4-0.3-0.6-0.4c-0.7-0.6-1.2-1.4-1.2-2.2
		c0.1-0.8,0.5-1.6,1.2-2.2c0.2-0.1,0.3-0.3,0.5-0.4l2.7-1.9c0,0,0.1,0,0.1-0.1c0.3-0.3,0.8-0.6,1.1-0.9c0.4-0.5,0.7-0.8,1-1.6
		c0,0,0.1-0.6,0-1.6c-0.2-1.1-0.5-2.1-1.1-3c-0.3-0.4-0.6-0.8-1-1.1c0,0,0,0,0,0c-0.3-0.3-0.6-0.5-0.9-0.8c0,0,0,0,0,0
		c-1.1-0.8-2.6-1-3.8-0.8c0,0,0,0-0.1,0s0,0-0.1,0c-0.6,0.1-1.1,0.4-1.6,0.7c0,0-3,2.2-3,2.2c-0.1,0.1-0.2,0.1-0.3,0.2
		c-0.8,0.5-1.9,0.8-2.8,0.3c-0.7-0.4-1.2-1-1.5-1.7c-0.4-1.2-0.8-2.5-1.2-3.7c-0.1-0.4-0.3-0.7-0.5-1.1c-0.1-0.2-0.3-0.4-0.4-0.6
		c-0.3-0.4-0.7-0.7-1.2-1c-0.4-0.3-0.9-0.5-1.4-0.6C611.2,450,610.8,449.9,610.5,450z"/>
</g>
<path class="st42" d="M867.3,95.2h-62.7c-6.4,0-11.5-5.2-11.5-11.5v-7.9c0-6.4,5.2-11.5,11.5-11.5h62.7c6.4,0,11.5,5.2,11.5,11.5
	v7.9C878.8,90,873.7,95.2,867.3,95.2z"/>
<g>
	<g>
		
			<image style="overflow:visible;opacity:0.1;" width="1011" height="564" xlink:href="DD54F8BB37C026C7.png"  transform="matrix(0.24 0 0 0.24 969.7296 289.7117)">
		</image>
		<g>
			<g>
				<path class="st0" d="M1193.3,410.9H984.8c-2.8,0-5-2.2-5-5V304.7c0-2.8,2.2-5,5-5h208.6c2.8,0,5,2.2,5,5v101.1
					C1198.3,408.7,1196.1,410.9,1193.3,410.9z"/>
				<path class="st24" d="M1191.2,378.2H987.1c-1.8,0-3.3-1.5-3.3-3.3v-46.2c0-1.8,1.5-3.3,3.3-3.3h204.1c1.8,0,3.3,1.5,3.3,3.3V375
					C1194.5,376.8,1193.1,378.2,1191.2,378.2z"/>
				<circle class="st60" cx="992.3" cy="312.6" r="6.1"/>
				<rect x="1003.8" y="309.7" class="st8" width="54.3" height="9.1"/>
				<text transform="matrix(1 0 0 1 1003.8388 316.48)" class="st47 st26 st61">FLAPPY BIRD</text>
				<rect x="996" y="333" class="st12" width="186.1" height="10.5"/>
				<rect x="996" y="345.8" class="st12" width="186.1" height="10.5"/>
				<rect x="996" y="358.5" class="st12" width="135.8" height="10.5"/>
				<g>
					<circle class="st62" cx="1187.9" cy="311.6" r="5.2"/>
					<g>
						<path class="st24" d="M1185.6,309.9c1.3,1.3,2.6,2.6,3.9,4c0.4,0.4,1-0.2,0.6-0.6c-1.3-1.3-2.6-2.6-3.9-4
							C1185.8,309,1185.3,309.6,1185.6,309.9L1185.6,309.9z"/>
						<path class="st24" d="M1189.6,309.4c-1.3,1.3-2.6,2.6-4,3.9c-0.4,0.4,0.2,1,0.6,0.6c1.3-1.3,2.6-2.6,4-3.9
							C1190.6,309.6,1190,309,1189.6,309.4L1189.6,309.4z"/>
					</g>
				</g>
			</g>
		</g>
	</g>
	<g>
		<g>
			
				<image style="overflow:visible;opacity:0.1;" width="95" height="95" xlink:href="DD54F8BB37C026C4.png"  transform="matrix(0.24 0 0 0.24 986.8177 385.2263)">
			</image>
			<g>
				<g>
					<g>
						<g>
							<defs>
								<circle id="SVGID_23_" cx="996.1" cy="394.6" r="7.5"/>
							</defs>
							<clipPath id="SVGID_20_">
								<use xlink:href="#SVGID_23_"  style="overflow:visible;"/>
							</clipPath>
						</g>
					</g>
				</g>
				<g>
					<g>
						<circle class="st24" cx="996.1" cy="394.5" r="8.3"/>
						<g>
							<defs>
								<circle id="SVGID_25_" cx="996.1" cy="394.6" r="7.5"/>
							</defs>
							<clipPath id="SVGID_22_">
								<use xlink:href="#SVGID_25_"  style="overflow:visible;"/>
							</clipPath>
							<g class="st48">
								
									<image style="overflow:visible;" width="384" height="386" xlink:href="DD54F8BB37C026DB.png"  transform="matrix(3.875606e-02 0 0 3.875606e-02 988.6898 387.0745)">
								</image>
							</g>
						</g>
					</g>
					<circle class="st29" cx="996.1" cy="394.5" r="8.3"/>
				</g>
				<g>
					<g>
						<g>
							<defs>
								<circle id="SVGID_27_" cx="996.1" cy="394.6" r="7.5"/>
							</defs>
							<clipPath id="SVGID_24_">
								<use xlink:href="#SVGID_27_"  style="overflow:visible;"/>
							</clipPath>
						</g>
					</g>
				</g>
			</g>
		</g>
		<circle class="st35" cx="996.1" cy="394.6" r="7.6"/>
	</g>
	<g>
		<circle class="st63" cx="1040.7" cy="394.6" r="8.4"/>
		<g>
			<rect x="1032.9" y="392" class="st8" width="15.7" height="10.8"/>
			<text transform="matrix(1 0 0 1 1038.8083 397.9307)" class="st24 st26 st64">L</text>
		</g>
	</g>
	<g>
		<g>
			
				<image style="overflow:visible;opacity:0.1;" width="95" height="95" xlink:href="DD54F8BB37C026DD.png"  transform="matrix(0.24 0 0 0.24 1008.7199 385.2263)">
			</image>
			<g>
				<g>
					<g>
						<circle class="st65" cx="1018" cy="394.5" r="8.3"/>
					</g>
				</g>
			</g>
		</g>
		<g>
			<rect x="1011" y="391.8" class="st8" width="14.1" height="9.7"/>
			<text transform="matrix(1 0 0 1 1015.7049 397.1255)" class="st24 st26 st66">H</text>
		</g>
	</g>
	<g>
		<g>
			<g>
				<g>
					<path class="st24" d="M1179.5,394.8c1.5,0,3,0,4.4,0c0.6,0,0.6-1,0-1c-1.5,0-3,0-4.4,0C1178.9,393.8,1178.9,394.8,1179.5,394.8
						L1179.5,394.8z"/>
				</g>
			</g>
			<g>
				<g>
					<path class="st24" d="M1181.3,392.1c0,1.5,0,3,0,4.4c0,0.6,1,0.6,1,0c0-1.5,0-3,0-4.4C1182.3,391.4,1181.3,391.4,1181.3,392.1
						L1181.3,392.1z"/>
				</g>
			</g>
		</g>
		<circle class="st67" cx="1181.8" cy="394.3" r="6.6"/>
	</g>
</g>
<circle class="st11" cx="119.9" cy="263" r="14.2"/>
<g>
	<rect x="147.1" y="256.8" class="st8" width="130" height="33.1"/>
	<text transform="matrix(1 0 0 1 147.0654 267.7681)" class="st12 st4 st13">Users Map</text>
</g>
<rect x="262.7" y="69.1" class="st8" width="515" height="55.4"/>
<text transform="matrix(1 0 0 1 262.6549 87.4075)" class="st10 st70 st71">A world where ideas come alive.</text>
</svg>
