<?xml version="1.0" encoding="utf-8"?>
<!-- Generator: Adobe Illustrator 19.1.0, SVG Export Plug-In . SVG Version: 6.00 Build 0)  -->
<svg version="1.1" id="Layer_1" xmlns="http://www.w3.org/2000/svg" xmlns:xlink="http://www.w3.org/1999/xlink" x="0px" y="0px"
	 viewBox="0 0 1280 800" style="enable-background:new 0 0 1280 800;" xml:space="preserve">
<style type="text/css">
	.st0{fill:#4D4D4D;}
	.st1{fill:#FFFCF9;}
	.st2{fill:#58595B;}
	.st3{fill:#58595B;stroke:#58595B;stroke-width:0.5;stroke-miterlimit:10;}
	.st4{fill:none;}
	.st5{fill:#F57C00;}
	.st6{fill:none;stroke:#BCBEC0;stroke-width:3;stroke-miterlimit:10;}
	.st7{fill:#E6E7E8;}
	.st8{fill:#A7A9AC;}
	.st9{fill:#BCBEC0;}
	.st10{fill:#FFFAF5;stroke:#BCBEC0;stroke-width:3;stroke-miterlimit:10;}
	.st11{fill:#D1D3D4;}
	.st12{opacity:6.000000e-02;fill:#7DCCED;}
	.st13{opacity:6.000000e-02;fill:#CB97C9;}
	.st14{opacity:6.000000e-02;fill:#FFDE17;}
	.st15{fill:none;stroke:#E6E7E8;stroke-width:2;stroke-miterlimit:10;}
	.st16{fill:none;stroke:#E6E7E8;stroke-width:4;stroke-miterlimit:10;}
	.st17{opacity:0.3;fill:none;stroke:#E6E7E8;stroke-width:4;stroke-miterlimit:10;}
	.st18{fill:#FFFFFF;}
	.st19{fill:#6D6E71;}
	.st20{opacity:0.2;fill:#FFFFFF;}
	.st21{fill:#808285;}
	.st22{fill:#7DCCED;}
	.st23{opacity:0.8;fill:#FFFFFF;}
	.st24{opacity:0.3;fill:#FFFFFF;}
	.st25{fill:#FED7B7;}
	.st26{fill-rule:evenodd;clip-rule:evenodd;stroke:#FFFFFF;stroke-miterlimit:10;}
	.st27{fill:#FFDE17;}
	.st28{fill:#CB97C9;}
	.st29{fill:#85D866;}
	.st30{fill:#F5844E;}
	.st31{fill:none;stroke:#F57C00;stroke-width:3;stroke-miterlimit:10;}
	.st32{fill:#FEF9F2;}
	.st33{font-family:'BloggerSans-Medium';}
	.st34{font-size:8.6136px;}
	.st35{fill:#9DE085;}
	.st36{fill:#97D6F1;}
	.st37{fill-rule:evenodd;clip-rule:evenodd;fill:none;}
	.st38{font-size:15.0737px;}
	.st39{fill:none;stroke:#BCBEC0;stroke-width:2;stroke-miterlimit:10;}
	.st40{font-size:18.6627px;}
	.st41{font-family:'BloggerSans-Bold';}
	.st42{font-size:17.2271px;}
	.st43{font-family:'Roboto-Medium';}
	.st44{font-size:8.7762px;}
	.st45{letter-spacing:1;}
	.st46{font-size:9.7514px;}
	.st47{fill:#F1F2F2;}
	.st48{clip-path:url(#SVGID_22_);}
	.st49{fill:#FEFEFE;}
	.st50{fill:#FDFDFD;}
	.st51{fill:#030303;}
	.st52{fill:#EFEFEF;}
	.st53{fill:#040404;}
	.st54{fill:#050505;}
	.st55{fill:#070707;}
	.st56{fill:#020202;}
	.st57{fill:#010101;}
	.st58{fill:#FBFBFB;}
	.st59{fill:#F7F7F7;}
	.st60{fill:#FAC085;}
	.st61{fill:#F15A29;}
	.st62{fill:#80D3AB;}
	.st63{fill:#77ACD7;}
	.st64{fill:none;stroke:#FFFFFF;stroke-miterlimit:10;}
	.st65{fill:none;stroke:#FFFFFF;stroke-width:3;stroke-miterlimit:10;}
	.st66{font-size:15.1156px;}
	.st67{opacity:0.7;fill:#F57C00;}
	.st68{font-family:'BloggerSans-Light';}
	.st69{font-size:25px;}
	.st70{fill:#58595B;stroke:#58595B;stroke-width:0.2;stroke-miterlimit:10;}
	.st71{fill:#FFFAF5;stroke:#BCBEC0;stroke-width:2;stroke-miterlimit:10;}
	.st72{fill:#B1E0F4;}
	.st73{fill:#FFEB74;}
	.st74{fill:#E0C1DF;}
	.st75{fill:none;stroke:#F57C00;stroke-width:2;stroke-miterlimit:10;}
	.st76{clip-path:url(#SVGID_48_);}
</style>
<rect class="st0" width="1280" height="800"/>
<rect class="st1" width="1280" height="800"/>
<line class="st16" x1="503.8" y1="296.2" x2="679.7" y2="459.3"/>
<line class="st16" x1="565.1" y1="599" x2="679.7" y2="461.2"/>
<line class="st16" x1="679.7" y1="461.2" x2="891" y2="461.2"/>
<circle class="st32" cx="504.2" cy="297.8" r="80.6"/>
<circle class="st32" cx="889" cy="462.4" r="102.4"/>
<circle class="st32" cx="563.8" cy="599.4" r="80.6"/>
<line class="st17" x1="709.8" y1="239.3" x2="679.7" y2="461.4"/>
<circle class="st28" cx="709.8" cy="241.4" r="32.8"/>
<g>
	<g>
		<g>
			<g>
				<path class="st18" d="M716.4,236l0.1,0.1L716.4,236L716.4,236L716.4,236l1.6-1.6l0,0l1.4-1.4l1-0.2c0.5-0.1,1.4-0.9,1.9-1.7
					l1.5-2.2c0.6-0.9,0.8-1.6,0.7-1.7l0,0c0,0,0-0.6-0.7-0.7c-0.1-0.1-0.8,0.1-1.7,0.7l-2.2,1.5c-0.8,0.5-1.6,1.4-1.7,1.9l-0.2,1
					l-1.5,1.5l0,0l-1.6,1.6L716.4,236L716.4,236L716.4,236z"/>
				<path class="st18" d="M715.1,236.1c0.4,0.4,1,0.3,1.4,0l0,0l-1.4-1.3l0,0l0,0C714.6,235.1,714.7,235.7,715.1,236.1z"/>
				<polygon class="st18" points="714.9,234.6 714.9,234.6 714.9,234.6 				"/>
				<polygon class="st18" points="714.9,234.6 714.9,234.6 714.9,234.6 				"/>
			</g>
			<path class="st18" d="M720.6,256.6c-1.3,0-2.5-0.5-3.5-1.4c0,0-9.8-9.8-14.2-14.2c-0.6,0-1.2,0-1.8-0.1c-1.6-0.3-3.1-1-4.3-2.2
				c-1.6-1.6-2.4-3.8-2.2-6.1c0.1-1.1,0.8-1.8,1.7-1.8c0.5,0,1.1,0.3,1.6,0.7l2.6,2.6c0.2,0.2,0.7,0.2,0.9,0l1.7-1.7
				c0.2-0.2,0.2-0.7,0-0.9l-2.7-2.7c-0.6-0.6-0.9-1.4-0.6-2.2c0.2-0.7,0.8-1.1,1.6-1.2c0.3,0,0.6-0.1,0.9-0.1c2.1,0,4,0.8,5.5,2.3
				c1.3,1.3,2.1,3,2.2,4.8c0,0.5,0,1.1,0,1.6l14,14c0.9,0.9,1.4,2.2,1.4,3.5c0,1.3-0.5,2.5-1.4,3.5
				C723.1,256.1,721.9,256.6,720.6,256.6z M703.6,239.1l0.3,0.3c4.2,4.2,14.5,14.5,14.5,14.5c0.6,0.6,1.4,0.9,2.2,0.9
				c0.8,0,1.6-0.3,2.2-0.9c0.6-0.6,0.9-1.4,0.9-2.2c0-0.8-0.3-1.6-0.9-2.2l-14.7-14.7l0.1-0.5c0.1-0.5,0.1-1.1,0.1-1.6
				c-0.1-1.4-0.7-2.7-1.7-3.7c-1.1-1.1-2.6-1.7-4.2-1.7c-0.2,0-0.5,0-0.7,0c-0.1,0-0.1,0-0.1,0c0,0.1,0.1,0.1,0.2,0.2l2.7,2.7
				c1,1,1,2.5,0,3.5l-1.7,1.7c-0.5,0.5-1.1,0.7-1.7,0.7c-0.7,0-1.3-0.3-1.7-0.7l-2.6-2.6c-0.1-0.1-0.1-0.1-0.2-0.1c0,0,0,0,0,0.1
				c-0.1,1.7,0.5,3.4,1.7,4.6c0.9,0.9,2,1.5,3.3,1.7c0.6,0.1,1.1,0.1,1.7,0L703.6,239.1z M720.4,253c-0.4,0-0.8-0.2-1.1-0.4
				c-0.6-0.6-0.6-1.5,0-2.1c0.6-0.6,1.6-0.6,2.1,0c0.3,0.3,0.4,0.7,0.4,1.1c0,0.4-0.2,0.8-0.4,1.1S720.8,253,720.4,253z"/>
			<g>
				<g>
					<path class="st18" d="M706.3,250L706.3,250c0.3,0.3,1,0.4,1.3,0c0.3-0.4,0.4-0.9,0-1.3l0,0c-0.3-0.3-1-0.4-1.3,0
						C706,249.1,705.9,249.6,706.3,250L706.3,250z"/>
					<path class="st18" d="M701.3,244.2c-1.8,1.8-4,3.5-5.5,5.6c-1.8,2.4-0.5,6.1,2.5,6.7c2.3,0.5,3.8-0.9,5.2-2.4
						c1.4-1.4,2.7-2.7,4.1-4.1c0.8-0.8-0.5-2.1-1.3-1.3c-1.8,1.8-3.4,3.7-5.3,5.3c-1.4,1.2-3.8,0.8-4.2-1.3c-0.2-1.1,0.4-1.8,1-2.6
						c1.5-1.6,3.2-3.2,4.8-4.8C703.4,244.6,702.1,243.3,701.3,244.2L701.3,244.2z"/>
					<path class="st18" d="M702.6,245.5c0.1-0.1,0.2-0.2,0.3-0.3c0.3-0.3,0.4-1,0-1.3c-0.4-0.3-0.9-0.4-1.3,0
						c-0.1,0.1-0.2,0.2-0.3,0.3c-0.3,0.3-0.4,1,0,1.3C701.7,245.8,702.2,245.8,702.6,245.5c0.1-0.1,0.2-0.2,0.3-0.3
						c-0.4-0.4-0.9-0.9-1.3-1.3c-0.1,0.1-0.2,0.2-0.3,0.3c-0.3,0.3-0.4,1,0,1.3C701.7,245.8,702.2,245.8,702.6,245.5L702.6,245.5z"
						/>
					<path class="st18" d="M696.8,250.8c1.2,0,1.2-1.8,0-1.8C695.6,249,695.6,250.8,696.8,250.8L696.8,250.8z"/>
				</g>
				<path class="st18" d="M700.6,252.2c1.5-1.5,3-3,4.6-4.5c0.8-0.8-0.5-2.1-1.3-1.3c-1.5,1.5-3,3-4.6,4.5
					C698.5,251.8,699.8,253,700.6,252.2L700.6,252.2z"/>
			</g>
		</g>
	</g>
</g>
<line class="st17" x1="292.1" y1="515.8" x2="679.7" y2="463.3"/>
<g>
	<path class="st21" d="M931.5,469.7c-3.5,0-6.3-2.8-6.3-6.3s2.8-6.3,6.3-6.3s6.3,2.8,6.3,6.3S935,469.7,931.5,469.7z M931.5,457.8
		c-3.1,0-5.6,2.5-5.6,5.6s2.5,5.6,5.6,5.6c3.1,0,5.6-2.5,5.6-5.6S934.6,457.8,931.5,457.8z"/>
	<g>
		<path class="st21" d="M934.6,464.1h-6.1c-0.4,0-0.6-0.2-0.6-0.6c0-0.4,0.2-0.6,0.6-0.6h6.1c0.4,0,0.6,0.2,0.6,0.6
			C935.1,463.8,934.9,464,934.6,464.1z"/>
	</g>
</g>
<g>
	<path class="st21" d="M846,469.7c-3.5,0-6.3-2.8-6.3-6.3s2.8-6.3,6.3-6.3c3.5,0,6.3,2.8,6.3,6.3S849.5,469.7,846,469.7z M846,457.8
		c-3.1,0-5.6,2.5-5.6,5.6s2.5,5.6,5.6,5.6s5.6-2.5,5.6-5.6S849.1,457.8,846,457.8z"/>
	<g>
		<path class="st21" d="M849.1,464.1H843c-0.4,0-0.6-0.2-0.6-0.6c0-0.4,0.2-0.6,0.6-0.6h6.1c0.4,0,0.6,0.2,0.6,0.6
			C849.6,463.8,849.4,464,849.1,464.1z"/>
	</g>
	<g>
		<path class="st21" d="M849.1,462H843c-0.4,0-0.6-0.2-0.6-0.6c0-0.4,0.2-0.6,0.6-0.6h6.1c0.4,0,0.6,0.2,0.6,0.6
			C849.6,461.7,849.4,462,849.1,462z"/>
	</g>
	<g>
		<path class="st21" d="M849.1,466.2H843c-0.4,0-0.6-0.2-0.6-0.6c0-0.4,0.2-0.6,0.6-0.6h6.1c0.4,0,0.6,0.2,0.6,0.6
			C849.6,466,849.4,466.2,849.1,466.2z"/>
	</g>
</g>
<g>
	<path class="st21" d="M606.5,607.9c-3.5,0-6.3-2.8-6.3-6.3s2.8-6.3,6.3-6.3s6.3,2.8,6.3,6.3S610,607.9,606.5,607.9z M606.5,595.9
		c-3.1,0-5.6,2.5-5.6,5.6s2.5,5.6,5.6,5.6s5.6-2.5,5.6-5.6S609.6,595.9,606.5,595.9z"/>
	<g>
		<path class="st21" d="M609.6,602.2h-6.1c-0.4,0-0.6-0.2-0.6-0.6c0-0.4,0.2-0.6,0.6-0.6h6.1c0.4,0,0.6,0.2,0.6,0.6
			C610.2,602,610,602.2,609.6,602.2z"/>
	</g>
</g>
<g>
	<path class="st21" d="M521,607.9c-3.5,0-6.3-2.8-6.3-6.3s2.8-6.3,6.3-6.3c3.5,0,6.3,2.8,6.3,6.3S524.5,607.9,521,607.9z M521,595.9
		c-3.1,0-5.6,2.5-5.6,5.6s2.5,5.6,5.6,5.6s5.6-2.5,5.6-5.6S524.1,595.9,521,595.9z"/>
	<g>
		<path class="st21" d="M524.1,602.2H518c-0.4,0-0.6-0.2-0.6-0.6c0-0.4,0.2-0.6,0.6-0.6h6.1c0.4,0,0.6,0.2,0.6,0.6
			C524.7,602,524.5,602.2,524.1,602.2z"/>
	</g>
	<g>
		<path class="st21" d="M524.1,600.1H518c-0.4,0-0.6-0.2-0.6-0.6c0-0.4,0.2-0.6,0.6-0.6h6.1c0.4,0,0.6,0.2,0.6,0.6
			C524.7,599.9,524.5,600.1,524.1,600.1z"/>
	</g>
	<g>
		<path class="st21" d="M524.1,604.3H518c-0.4,0-0.6-0.2-0.6-0.6c0-0.4,0.2-0.6,0.6-0.6h6.1c0.4,0,0.6,0.2,0.6,0.6
			C524.7,604.1,524.5,604.3,524.1,604.3z"/>
	</g>
</g>
<g>
	<path class="st21" d="M546.5,308.9c-3.5,0-6.3-2.8-6.3-6.3s2.8-6.3,6.3-6.3s6.3,2.8,6.3,6.3S550,308.9,546.5,308.9z M546.5,296.9
		c-3.1,0-5.6,2.5-5.6,5.6c0,3.1,2.5,5.6,5.6,5.6s5.6-2.5,5.6-5.6C552.2,299.5,549.6,296.9,546.5,296.9z"/>
	<g>
		<path class="st21" d="M549.6,303.2h-6.1c-0.4,0-0.6-0.2-0.6-0.6c0-0.4,0.2-0.6,0.6-0.6h6.1c0.4,0,0.6,0.2,0.6,0.6
			C550.2,303,550,303.2,549.6,303.2z"/>
	</g>
</g>
<g>
	<path class="st21" d="M461,308.9c-3.5,0-6.3-2.8-6.3-6.3s2.8-6.3,6.3-6.3c3.5,0,6.3,2.8,6.3,6.3S464.5,308.9,461,308.9z M461,296.9
		c-3.1,0-5.6,2.5-5.6,5.6c0,3.1,2.5,5.6,5.6,5.6c3.1,0,5.6-2.5,5.6-5.6C466.7,299.5,464.1,296.9,461,296.9z"/>
	<g>
		<path class="st21" d="M464.1,303.2H458c-0.4,0-0.6-0.2-0.6-0.6c0-0.4,0.2-0.6,0.6-0.6h6.1c0.4,0,0.6,0.2,0.6,0.6
			C464.7,303,464.5,303.2,464.1,303.2z"/>
	</g>
	<g>
		<path class="st21" d="M464.1,301.2H458c-0.4,0-0.6-0.2-0.6-0.6c0-0.4,0.2-0.6,0.6-0.6h6.1c0.4,0,0.6,0.2,0.6,0.6
			C464.7,300.9,464.5,301.1,464.1,301.2z"/>
	</g>
	<g>
		<path class="st21" d="M464.1,305.4H458c-0.4,0-0.6-0.2-0.6-0.6c0-0.4,0.2-0.6,0.6-0.6h6.1c0.4,0,0.6,0.2,0.6,0.6
			C464.7,305.1,464.5,305.3,464.1,305.4z"/>
	</g>
</g>
<g>
	<path class="st4" d="M747.2,290.2h-72.6c-2.5,0-4.5-2-4.5-4.5v-3.1c0-2.5,2-4.5,4.5-4.5h72.6c2.5,0,4.5,2,4.5,4.5v3.1
		C751.6,288.2,749.7,290.2,747.2,290.2z"/>
	<rect x="664.7" y="280.4" class="st4" width="90.7" height="9.1"/>
	<text transform="matrix(1 0 0 1 677.3486 286.646)" class="st2 st33 st34">Developer Tools</text>
</g>
<g>
	<path class="st21" d="M753,249.8c-3.7,0-6.8-3-6.8-6.8c0-3.7,3-6.8,6.8-6.8c3.7,0,6.8,3,6.8,6.8C759.8,246.8,756.7,249.8,753,249.8
		z M753,237c-3.3,0-6.1,2.7-6.1,6.1c0,3.3,2.7,6.1,6.1,6.1s6.1-2.7,6.1-6.1C759,239.7,756.3,237,753,237z"/>
	<g>
		<path class="st21" d="M752.4,242.7v-2.5c0-0.4,0.2-0.6,0.6-0.6c0.4,0,0.6,0.2,0.6,0.6v2.5h2.5c0.4,0,0.6,0.2,0.6,0.6
			c0,0.4-0.2,0.6-0.6,0.6h-2.5v2.4c0,0.4-0.2,0.6-0.6,0.6c-0.4,0-0.6-0.2-0.6-0.6v-2.4H750c-0.4,0-0.6-0.2-0.6-0.6
			c0-0.4,0.2-0.6,0.6-0.6H752.4z"/>
	</g>
</g>
<g>
	<path class="st21" d="M333.9,522.5c-3.7,0-6.8-3-6.8-6.8c0-3.7,3-6.8,6.8-6.8c3.7,0,6.8,3,6.8,6.8
		C340.6,519.5,337.6,522.5,333.9,522.5z M333.9,509.7c-3.3,0-6.1,2.7-6.1,6.1c0,3.3,2.7,6.1,6.1,6.1c3.3,0,6.1-2.7,6.1-6.1
		C339.9,512.4,337.2,509.7,333.9,509.7z"/>
	<g>
		<path class="st21" d="M333.3,515.3v-2.5c0-0.4,0.2-0.6,0.6-0.6c0.4,0,0.6,0.2,0.6,0.6v2.5h2.5c0.4,0,0.6,0.2,0.6,0.6
			c0,0.4-0.2,0.6-0.6,0.6h-2.5v2.4c0,0.4-0.2,0.6-0.6,0.6c-0.4,0-0.6-0.2-0.6-0.6v-2.4h-2.4c-0.4,0-0.6-0.2-0.6-0.6
			c0-0.4,0.2-0.6,0.6-0.6H333.3z"/>
	</g>
</g>
<g>
	<circle class="st29" cx="889" cy="463.2" r="32.8"/>
	<g>
		<path class="st18" d="M908.1,467.2c-0.1-0.3-0.1-0.5-0.2-0.8c-0.1-0.5-0.2-1-0.3-1.5c-0.1-0.6-0.2-1.1-0.4-1.7
			c-0.1-0.5-0.2-1-0.3-1.5c-0.4-1.8-0.7-3.7-1.5-5.2c-0.7-1.2-1.8-2.3-3.2-3.1c-1.5-0.9-3.2-1.3-4.9-1.3c-0.9,0-1.8,0.1-2.7,0.4
			c-0.9,0.3-1.6,0.7-2.3,1.1c-0.6,0.4-1.1,0.7-1.5,0.7c-0.4,0.1-0.8,0.1-1.1,0.1c-1.1,0-1.6-0.3-2.5-0.8c-0.7-0.4-1.4-0.8-2.5-1.1
			c-0.8-0.2-1.8-0.3-2.5-0.3c-0.4,0-0.7,0-1,0c-3,0.2-5.6,1.7-7,3.8c-0.9,1.5-1.3,3.3-1.7,5.2c-0.1,0.6-0.3,1.2-0.4,1.8l-0.4,1.5
			c-0.1,0.6-0.3,1.2-0.4,1.8c-0.1,0.3-0.2,0.6-0.2,0.9c-0.3,0.9-0.5,1.9-0.5,2.8l0,0.2v0c0.1,1.6,0.8,3.1,2,4.1
			c1.2,1.1,2.8,1.6,4.4,1.6c1,0,1.9-0.2,2.8-0.6c1.5-0.7,2.4-1.8,3.1-2.8l0.1-0.1c0.2-0.2,0.4-0.5,0.5-0.7c0.2-0.3,0.7-1,0.9-1.1
			c0.3-0.1,0.8-0.1,1.4-0.1c0.5,0,1,0,1.6,0c0.7,0,1.4,0.1,2.2,0.1c0.6,0,1.3,0,1.9-0.1c0.6,0,1.3-0.1,1.9-0.1
			c0.8,0,1.2,0.1,1.4,0.1c0,0,0.2,0.1,0.5,0.4c0.3,0.3,0.5,0.7,0.7,1c0.1,0.2,0.2,0.3,0.3,0.5l0.2,0.3c0.7,1,1.6,2.1,3.2,2.7
			c0.8,0.3,1.6,0.4,2.4,0.4c1.3,0,2.7-0.4,3.8-1.1c1.1-0.7,2-1.7,2.4-2.8c0.2-0.6,0.3-1.2,0.3-1.9C908.6,469,908.4,468,908.1,467.2
			L908.1,467.2z M906.5,471.4c-0.7,2-3.5,3.4-6.1,2.4c-1.2-0.5-1.9-1.5-2.6-2.4c-0.5-0.6-1.4-2.2-2.4-2.5c-1.4-0.4-4-0.1-5.8-0.1
			c-2.3,0-4.3-0.3-5.7,0.1c-1.1,0.3-1.8,1.7-2.4,2.5c-0.7,0.9-1.4,1.9-2.5,2.3c-3,1.3-6.4-0.7-6.5-3.7c0-1,0.4-2.2,0.7-3.4
			c0.3-1.1,0.5-2.3,0.8-3.4c0.6-2.4,0.8-4.8,1.9-6.5c1.1-1.7,3.3-2.7,5.6-2.9c0.8-0.1,2.1,0,2.8,0.2c2.5,0.7,3.1,2.5,7,1.9
			c1.6-0.2,2.6-1.5,4-1.9c3.8-1.1,7.3,0.9,8.5,3.2c0.9,1.6,1.2,4.3,1.7,6.3c0.3,1.2,0.5,2.2,0.7,3.3
			C906.4,468.2,907.1,469.8,906.5,471.4L906.5,471.4z M901.3,461.1 M902.8,462.6c0,0.7-0.6,1.3-1.3,1.3s-1.3-0.6-1.3-1.3
			c0-0.7,0.6-1.3,1.3-1.3S902.8,461.9,902.8,462.6z M900,459.8c0,0.7-0.6,1.3-1.3,1.3c-0.7,0-1.3-0.6-1.3-1.3c0-0.7,0.6-1.3,1.3-1.3
			C899.4,458.4,900,459,900,459.8z M900,465.3c0,0.7-0.6,1.3-1.3,1.3c-0.7,0-1.3-0.6-1.3-1.3s0.6-1.3,1.3-1.3
			C899.4,463.9,900,464.5,900,465.3z M897.2,462.6c0,0.7-0.6,1.3-1.3,1.3c-0.7,0-1.3-0.6-1.3-1.3c0-0.7,0.6-1.3,1.3-1.3
			C896.6,461.3,897.2,461.9,897.2,462.6z M881.1,466.6h-0.7c-0.5,0-1-0.4-1-1v-6.2c0-0.5,0.4-1,1-1h0.7c0.5,0,1,0.4,1,1v6.2
			C882.1,466.2,881.7,466.6,881.1,466.6z M876.7,462.9v-0.7c0-0.5,0.4-1,1-1h6.2c0.5,0,1,0.4,1,1v0.7c0,0.5-0.4,1-1,1h-6.2
			C877.2,463.9,876.7,463.4,876.7,462.9z"/>
	</g>
</g>
<g>
	
		<image style="overflow:visible;opacity:0.1;" width="111" height="111" xlink:href="13C97228C3FDC86C.png"  transform="matrix(0.24 0 0 0.24 956.0574 515.9272)">
	</image>
	<g>
		<circle class="st35" cx="968.3" cy="528.2" r="7.3"/>
	</g>
</g>
<g>
	
		<image style="overflow:visible;opacity:0.1;" width="111" height="111" xlink:href="13C97228C3FDC86D.png"  transform="matrix(0.24 0 0 0.24 837.621 355.8586)">
	</image>
	<g>
		<circle class="st35" cx="849.9" cy="368.1" r="7.3"/>
	</g>
</g>
<g>
	
		<image style="overflow:visible;opacity:0.1;" width="111" height="111" xlink:href="13C97228C3FDC86B.png"  transform="matrix(0.24 0 0 0.24 418.4278 251.778)">
	</image>
	<g>
		<circle class="st27" cx="430.7" cy="264" r="7.3"/>
	</g>
</g>
<g>
	
		<image style="overflow:visible;opacity:0.1;" width="111" height="111" xlink:href="13C97228C3FDC874.png"  transform="matrix(0.24 0 0 0.24 632.3312 602.7806)">
	</image>
	<g>
		<circle class="st36" cx="644.6" cy="615" r="7.3"/>
	</g>
</g>
<g>
	
		<image style="overflow:visible;opacity:0.1;" width="143" height="143" xlink:href="13C97228C3FDC877.png"  transform="matrix(0.24 0 0 0.24 897.2173 348.0608)">
	</image>
	<g>
		<circle class="st35" cx="913.3" cy="364.1" r="11"/>
	</g>
</g>
<g>
	
		<image style="overflow:visible;opacity:0.1;" width="143" height="143" xlink:href="13C97228C3FDC875.png"  transform="matrix(0.24 0 0 0.24 801.0325 375.337)">
	</image>
	<g>
		<circle class="st35" cx="817.1" cy="391.4" r="11"/>
	</g>
</g>
<g>
	
		<image style="overflow:visible;opacity:0.1;" width="143" height="143" xlink:href="13C97228C3FDC87B.png"  transform="matrix(0.24 0 0 0.24 781.652 496.6447)">
	</image>
	<g>
		<circle class="st35" cx="797.7" cy="512.7" r="11"/>
	</g>
</g>
<g>
	
		<image style="overflow:visible;opacity:0.1;" width="143" height="143" xlink:href="13C97228C3FDC87C.png"  transform="matrix(0.24 0 0 0.24 498.8402 203.0658)">
	</image>
	<g>
		<circle class="st27" cx="514.9" cy="219.1" r="11"/>
	</g>
</g>
<g>
	
		<image style="overflow:visible;opacity:0.1;" width="143" height="143" xlink:href="13C97228C3FDC87F.png"  transform="matrix(0.24 0 0 0.24 536.1656 667.4802)">
	</image>
	<g>
		<circle class="st36" cx="552.2" cy="683.5" r="11"/>
	</g>
</g>
<g>
	
		<image style="overflow:visible;opacity:0.1;" width="143" height="143" xlink:href="DC1D7FE453ADF7FB.png"  transform="matrix(0.24 0 0 0.24 487.3554 531.0989)">
	</image>
	<g>
		<circle class="st36" cx="503.4" cy="547.1" r="11"/>
	</g>
</g>
<g>
	
		<image style="overflow:visible;opacity:0.1;" width="175" height="175" xlink:href="DC1D7FE453ADF7F9.png"  transform="matrix(0.24 0 0 0.24 817.4593 529.387)">
	</image>
	<g>
		<circle class="st35" cx="837.5" cy="549.4" r="15"/>
	</g>
</g>
<g>
	
		<image style="overflow:visible;opacity:0.1;" width="175" height="175" xlink:href="DC1D7FE453ADF7FF.png"  transform="matrix(0.24 0 0 0.24 766.4957 436.7912)">
	</image>
	<g>
		<circle class="st35" cx="786.5" cy="456.8" r="15"/>
	</g>
</g>
<g>
	
		<image style="overflow:visible;opacity:0.1;" width="175" height="175" xlink:href="DC1D7FE453ADF7FA.png"  transform="matrix(0.24 0 0 0.24 971.0678 459.0429)">
	</image>
	<g>
		<circle class="st35" cx="991.1" cy="479" r="15"/>
	</g>
</g>
<g>
	
		<image style="overflow:visible;opacity:0.1;" width="175" height="175" xlink:href="DC1D7FE453ADF7E5.png"  transform="matrix(0.24 0 0 0.24 893.5458 544.4607)">
	</image>
	<g>
		<circle class="st35" cx="913.5" cy="564.5" r="15"/>
	</g>
</g>
<g>
	
		<image style="overflow:visible;opacity:0.1;" width="175" height="175" xlink:href="DC1D7FE453ADF7E6.png"  transform="matrix(0.24 0 0 0.24 959.5831 398.0302)">
	</image>
	<g>
		<circle class="st35" cx="979.6" cy="418" r="15"/>
	</g>
</g>
<g>
	
		<image style="overflow:visible;opacity:0.1;" width="175" height="175" xlink:href="DC1D7FE453ADF7E7.png"  transform="matrix(0.24 0 0 0.24 564.7949 281.0293)">
	</image>
	<g>
		<circle class="st27" cx="584.8" cy="301" r="15"/>
	</g>
</g>
<g>
	
		<image style="overflow:visible;opacity:0.1;" width="175" height="175" xlink:href="DC1D7FE453ADF7E9.png"  transform="matrix(0.24 0 0 0.24 564.7949 503.5463)">
	</image>
	<g>
		<circle class="st36" cx="584.8" cy="523.5" r="15"/>
	</g>
</g>
<g>
	<path class="st4" d="M901.8,512h-24.5c-2.5,0-4.5-2-4.5-4.5v-3.1c0-2.5,2-4.5,4.5-4.5h24.5c2.5,0,4.5,2,4.5,4.5v3.1
		C906.3,510,904.3,512,901.8,512z"/>
	<rect x="870" y="502.2" class="st4" width="39" height="10.3"/>
	<text transform="matrix(1 0 0 1 879.1362 508.3789)" class="st2 st33 st34">Game</text>
</g>
<g>
	<circle class="st22" cx="563.8" cy="601.3" r="32.8"/>
	<g>
		<g>
			<path class="st18" d="M562.7,617.1c-0.4,0-0.8-0.1-1.2-0.3c-0.6-0.4-1-1-1-1.8c0-2.5-1-4.8-2.9-6.5c-1.6-1.4-3.6-2.1-5.6-2.1
				c-0.4,0-0.8,0-1.1,0.1c-0.1,0-0.2,0-0.3,0c-0.6,0-1.2-0.3-1.6-0.8c-0.5-0.6-0.6-1.3-0.4-2c0.5-1.5,1.2-2.8,2.2-3.9
				c2.1-2.3,5-3.7,8.2-3.7c0.6,0,1.3,0.1,1.9,0.2l5.2-5.9c1.1-1.2,2.4-2.2,3.8-2.9l5.4-2.5c0.9-0.4,2-0.3,2.7,0.4
				c0.8,0.7,1,1.7,0.7,2.7l-1.8,5.7c-0.5,1.5-1.3,2.9-2.4,4.1l-5.2,5.9c1.1,3.6,0.3,7.6-2.2,10.4c-1,1.2-2.2,2.1-3.6,2.7
				C563.3,617,563,617.1,562.7,617.1z M552.1,604.2c2.6,0,5.1,1,7.1,2.7c2.3,2,3.6,4.9,3.6,8c1.1-0.5,2-1.2,2.8-2.1
				c2.1-2.4,2.8-5.8,1.6-8.8l-0.2-0.6l6.1-6.9c0.9-1,1.5-2.1,1.9-3.4l1.8-5.7c0-0.1,0-0.3-0.1-0.4c-0.1-0.1-0.2-0.1-0.4,0l-5.4,2.5
				c-1.2,0.6-2.2,1.3-3.1,2.3l-6.1,6.9l-0.6-0.2c-0.7-0.2-1.3-0.2-2-0.2c-2.5,0-4.9,1.1-6.5,3c-0.8,0.9-1.4,1.9-1.7,3.1
				C551.2,604.2,551.6,604.2,552.1,604.2z"/>
		</g>
		<path class="st18" d="M554.9,609.7c0-0.3-0.2-0.6-0.4-0.8c-0.2-0.2-0.5-0.3-0.7-0.3c-0.3,0-0.6,0.1-0.8,0.4l-3.7,4.2
			c-0.2,0.2-0.3,0.5-0.3,0.8c0,0.3,0.2,0.6,0.4,0.8c0.4,0.4,1.2,0.3,1.6-0.1l3.7-4.2C554.8,610.3,554.9,610,554.9,609.7z"/>
		<path class="st18" d="M556.9,611.4c-0.3,0-0.6,0.1-0.8,0.4l-3.7,4.2c-0.2,0.2-0.3,0.5-0.3,0.8c0,0.3,0.2,0.6,0.4,0.8
			c0.5,0.4,1.2,0.3,1.6-0.1l3.7-4.2c0.2-0.2,0.3-0.5,0.3-0.8c0-0.3-0.2-0.6-0.4-0.8C557.4,611.5,557.2,611.4,556.9,611.4z"/>
		<circle class="st18" cx="570.2" cy="594.4" r="1.9"/>
	</g>
</g>
<g>
	<path class="st4" d="M590,650.6h-51.7c-2.5,0-4.5-2-4.5-4.5v-3.1c0-2.5,2-4.5,4.5-4.5H590c2.5,0,4.5,2,4.5,4.5v3.1
		C594.4,648.6,592.4,650.6,590,650.6z"/>
	<rect x="531" y="640.8" class="st4" width="65.7" height="9.1"/>
	<text transform="matrix(1 0 0 1 537.7251 647.0312)" class="st2 st33 st34">Productivity</text>
</g>
<circle class="st30" cx="290.5" cy="515.6" r="32.8"/>
<g>
	<g>
		<g>
			<g>
				<path class="st18" d="M305.5,509.9c1.6-3.2,0.6-6.8-2.3-8.9c-0.2-0.2-0.6-0.2-0.8,0c-3,2-3.9,5.6-2.3,8.9
					c0.1,0.2,0.4,0.4,0.7,0.4c1.4,0,2.7,0,4.1,0c1,0,1-1.6,0-1.6c-1.4,0-2.7,0-4.1,0c0.2,0.1,0.5,0.3,0.7,0.4
					c-1.2-2.4-0.4-5.1,1.8-6.7c-0.3,0-0.5,0-0.8,0c2.2,1.5,2.9,4.2,1.8,6.7C303.7,510.1,305.1,510.9,305.5,509.9z"/>
				<path class="st18" d="M304.8,510.3c1,0,1-1.6,0-1.6C303.8,508.7,303.8,510.3,304.8,510.3L304.8,510.3z"/>
			</g>
			<path class="st18" d="M289,530.9L289,530.9c-6.5,0-12.2-4.4-13.9-10.7c-1-3.7-0.5-7.6,1.4-10.9c1.9-3.3,5-5.7,8.8-6.7
				c0.3-0.1,0.6-0.1,0.9-0.2c2.2-0.4,4.4,0.3,5.9,1.9c1.2,1.3,1.8,3,1.6,4.8c-0.2,2.5-0.1,4.5,0.3,6c0.4,1.5,1.3,3.3,2.8,5.3
				c1.2,1.7,1.5,3.7,0.8,5.6c-0.6,1.9-2.1,3.4-4,4c-0.3,0.1-0.6,0.2-0.9,0.3C291.5,530.8,290.3,530.9,289,530.9z M287.5,503.9
				c-0.3,0-0.6,0-0.9,0.1c-0.3,0.1-0.5,0.1-0.8,0.2c-3.3,0.9-6.1,3-7.8,5.9c-1.7,3-2.2,6.4-1.3,9.7c1.5,5.6,6.6,9.5,12.3,9.5h0
				c1.1,0,2.2-0.1,3.3-0.4c0.2-0.1,0.5-0.1,0.8-0.2c1.4-0.5,2.5-1.6,3-3c0.5-1.4,0.3-3-0.6-4.2c-1.5-2.2-2.5-4.2-3-5.8
				c-0.4-1.7-0.5-3.9-0.3-6.6c0.1-1.3-0.3-2.6-1.2-3.6C290,504.5,288.8,503.9,287.5,503.9z"/>
		</g>
		<path class="st18" d="M302.8,530.3c-0.9,0-1.7-0.7-1.8-1.6l-1.2-13.4c0-0.3,0-0.7,0.3-1c0.2-0.2,0.5-0.5,1.1-0.5
			c0.1,0,0.3,0,1.1,0c0.9,0,2.1,0,2.1,0h0c0.7,0,1.4,0.5,1.4,1.4l0,0.1l-1.2,13.4C304.6,529.6,303.8,530.3,302.8,530.3z
			 M301.4,515.3l1.2,13.1c0,0.1,0.1,0.2,0.2,0.2c0.1,0,0.2-0.1,0.2-0.2l1.1-13.1c-0.4,0-1.2,0-2,0
			C301.8,515.3,301.5,515.3,301.4,515.3z"/>
	</g>
	<path class="st18" d="M300.7,512.8c1.4,0,2.7,0,4.1,0c1,0,1-1.6,0-1.6c-1.4,0-2.7,0-4.1,0C299.7,511.2,299.7,512.8,300.7,512.8
		L300.7,512.8z"/>
	<circle class="st18" cx="284.6" cy="509.5" r="1.6"/>
	<circle class="st18" cx="280.7" cy="514.7" r="1.6"/>
	<circle class="st18" cx="282.3" cy="521.5" r="1.6"/>
	<circle class="st18" cx="288.4" cy="525.1" r="1.6"/>
</g>
<g>
	<path class="st4" d="M327.2,563.5h-70.3c-2.5,0-4.5-2-4.5-4.5V556c0-2.5,2-4.5,4.5-4.5h70.3c2.5,0,4.5,2,4.5,4.5v3.1
		C331.7,561.6,329.7,563.5,327.2,563.5z"/>
	<g>
		<rect x="252.5" y="553.7" class="st4" width="79.2" height="9.1"/>
		<text transform="matrix(1 0 0 1 258.4512 559.9473)" class="st2 st33 st34">Graphics&amp;Design</text>
	</g>
</g>
<g>
	<circle class="st27" cx="503.6" cy="301.3" r="32.8"/>
	<g>
		<g>
			<path class="st18" d="M511.6,309.1c1.4,0,2.9-0.6,4.1-1.5c1.1-0.9,1.7-2.1,1.8-3.3l0,0c0,0,0,0,0-0.1v-15.7
				c0-0.6-0.6-1.1-1.3-1.1h-16.9c-0.7,0-1.3,0.5-1.3,1.1v18.2l-0.5-0.1c-0.3,0-0.6-0.1-0.9-0.1c-1.4,0-2.9,0.6-4.1,1.5
				c-2.1,1.8-2.4,4.3-0.7,5.8c0.7,0.6,1.7,0.9,2.8,0.9c1.4,0,2.9-0.6,4.1-1.5c1.1-0.9,1.8-2.2,1.8-3.4l0-0.1c0-0.1,0-0.1,0-0.2
				v-15.1h14.4v6.5l-0.5-0.1c-0.3,0-0.6-0.1-0.8-0.1c-1.4,0-2.9,0.6-4.1,1.5c-2.1,1.8-2.4,4.3-0.7,5.8
				C509.5,308.7,510.5,309.1,511.6,309.1z M512.9,292.6h-11c-0.6,0-1.2-0.3-1.4-0.8l0-0.1v-0.7l0-0.1c0.2-0.5,0.8-0.8,1.4-0.8h11
				c0.8,0,1.4,0.5,1.4,1.2C514.4,292.1,513.7,292.6,512.9,292.6z"/>
		</g>
	</g>
</g>
<g>
	<path class="st4" d="M515.8,349.1h-24.5c-2.5,0-4.5-2-4.5-4.5v-3.1c0-2.5,2-4.5,4.5-4.5h24.5c2.5,0,4.5,2,4.5,4.5v3.1
		C520.3,347.1,518.3,349.1,515.8,349.1z"/>
	<g>
		<rect x="484" y="339.2" class="st4" width="39" height="9.1"/>
		<text transform="matrix(1 0 0 1 491.9824 345.4712)" class="st2 st33 st34">Music</text>
	</g>
</g>
<g>
	<path class="st26" d="M997.1,479V491l3.6-1.6l2.4,5.6l2-1l-2.3-5.5l3.3-1.5L997.1,479z M997.1,479"/>
</g>
<path class="st5" d="M89.9,54.2c-1.1-1-2.5-1.5-4.1-1.5c-1.6,0-3,0.5-4.1,1.5c-1.2,1-1.7,2.3-1.7,3.8c0,1.5,0.6,2.8,1.7,3.8
	c1.1,1,2.5,1.5,4.1,1.5c1.6,0,3-0.5,4.1-1.5c1.2-1,1.7-2.3,1.7-3.8C91.6,56.5,91,55.2,89.9,54.2z M89.4,66.8c-1-0.9-2.3-1.4-3.7-1.4
	c-1.5,0-2.9,0.5-3.9,1.4c-1,0.9-1.8,2.1-1.8,3.4v24.7c0,1.4,0.7,2.6,1.8,3.5c1,0.9,2.4,1.4,3.8,1.4c1.5,0,2.8-0.5,3.8-1.4
	c1-0.9,1.6-2.1,1.6-3.5V70.2C91,68.9,90.5,67.7,89.4,66.8z M123,70.2c0-1.4-0.5-2.6-1.6-3.5c-1-0.8-2.2-1.3-3.6-1.3
	c-1,0-2,0.3-2.9,0.9c-1,0.6-1.7,1.4-2,2.5l-3.3,10.5c-0.5,1.6-0.8,3.2-1.1,4.8c-0.3-1.6-0.7-3.2-1.2-4.9l-3.5-10.5
	c-0.4-1.1-1-1.9-2-2.5c-0.9-0.6-1.9-0.9-2.9-0.9c-1.4,0-2.4,0.4-3.4,1.3c-1.1,0.9-1.5,2.1-1.5,3.5v0.5c0,0.3-0.1,0.6,0,0.9l8.6,23.9
	c0.5,1.5,1.2,2.6,2.1,3.3c0.9,0.7,2.2,1.1,3.8,1.1c1.6,0,2.8-0.4,3.7-1.1c0.9-0.7,1.6-1.8,2.1-3.3l8.5-23.7c0.1-0.3,0.1-0.6,0.1-0.9
	V70.2z M197.4,66.7c-1.1-0.8-2.3-1.3-3.6-1.3c-1,0-2,0.2-2.9,0.7c-1,0.5-1.7,1.4-2.1,2.6l-3.4,10.5c-0.3,1-0.6,2.1-0.9,3.2
	c-0.3-1.1-0.6-2.2-1-3.2l-3.9-10.5c-0.4-1.1-1.1-1.9-2-2.5c-0.9-0.5-1.8-0.8-2.9-0.8c-1.4,0-2.7,0.4-3.7,1.3c-1.1,0.9-1.6,2-1.6,3.4
	c0,0.3,0,0.6,0.1,0.9c0.1,0.3,0.2,0.7,0.3,1.1l9.5,24.6c-0.7,2.2-1.4,3.7-2.1,4.7c-0.6,0.8-1.5,1.3-2.6,1.3
	c-1.5,0.1-2.8,0.6-3.7,1.5c-0.9,0.9-1.4,2-1.4,3.2c0,1.4,0.5,2.5,1.6,3.5c1,0.9,2.3,1.3,3.8,1.3c2.5,0,4.7-0.5,6.4-1.4
	c1.7-0.9,3.2-2.2,4.3-3.9c1.2-1.6,2.2-3.5,3-5.7c0.8-2.1,1.7-4.5,2.5-7.1l7.6-22.3c0.2-0.4,0.3-0.9,0.3-1.5
	C199.2,68.8,198.6,67.6,197.4,66.7z M73.9,92.5c-0.5-0.5-0.2-0.7-0.2-0.7c0-0.1,0.3-0.4,0.3-1.2V57c0-1.4-0.9-2.5-1.9-3.5
	c-1-0.9-2.5-1.4-3.9-1.4c-1.5,0-2.6,0.5-3.7,1.4c-1,1-1.5,2.1-1.5,3.5v34.4c0,1.8,0,3.2,0.5,4.3c0.5,1.1,0.9,2,1.6,2.6
	c0.7,0.6,1.5,1.1,2.4,1.2c0.8,0.2,1.5,0.2,2.2,0.2c1.7,0,3-0.3,4-1c1.1-0.7,1.7-1.9,1.7-3.4c0-0.8-0.2-1.4-0.5-1.9
	C74.6,93.2,74.3,92.9,73.9,92.5z M167.2,92.5c-0.5-0.5-0.9-0.7-0.9-0.7c0-0.1-0.4-0.4-0.4-1.2V57c0-1.4-0.2-2.5-1.3-3.5
	c-1-0.9-2.1-1.4-3.6-1.4c-1.5,0-2.6,0.5-3.6,1.4c-1,1-1.5,2.1-1.5,3.5v34.4c0,1.8,0.2,3.2,0.6,4.3c0.5,1.1,1,2,1.7,2.6
	c0.7,0.6,1.5,1.1,2.4,1.2c0.8,0.2,1.5,0.2,2.2,0.2c1.7,0,3-0.3,4-1c1.1-0.7,1.7-1.9,1.7-3.4c0-0.8-0.2-1.4-0.5-1.9
	C167.9,93.2,167.6,92.9,167.2,92.5z M136.6,87.3c0.8,0.1,1.7,0.1,2.5,0.1c4.5,0,7.9-0.9,10-2.7c2.1-1.9,3.3-4.5,3.3-7.8
	c0-3.4-1.1-6.3-3.3-8.4c-2.2-2.1-5.5-3.2-9.9-3.2c-2.3,0-4.3,0.3-6.1,0.9c-1.8,0.6-3.3,1.5-4.5,2.5c-1.2,1.1-2.6,2.4-3.2,3.9
	c-0.6,1.5-1.3,3.1-1.3,4.8v10.5c0,1.7,0.7,3.3,1.4,4.7c0.6,1.5,1.8,2.8,3,3.8c1.2,1.1,2.8,1.9,4.5,2.5c1.7,0.6,3.7,0.9,5.9,0.9
	c1,0,2.3-0.1,3.7-0.3c1.4-0.2,2.8-0.5,4.2-0.9c1.4-0.5,2.5-1.1,3.5-1.9c1.1-0.9,1.7-2.1,1.7-3.5c0-0.5-0.1-1-0.2-1.5
	c-0.2-0.5-0.4-1-0.8-1.5c-0.4-0.4-0.9-0.8-1.5-1.1c-0.6-0.3-1.4-0.4-2.3-0.4c-0.6,0-1.1,0.1-1.5,0.2c-0.4,0.1-0.6,0.2-0.8,0.3
	c-0.9,0.4-1.8,0.7-2.6,1c-0.8,0.2-1.7,0.3-2.6,0.3c-1.5,0-2.8-0.2-3.4-0.7c-0.6-0.4-1-1-1-1.8v-0.9C135,87.2,136.2,87.2,136.6,87.3z
	 M135,77c0-1,0.5-1.7,1.1-2.2c0.6-0.6,1.6-0.8,2.9-0.8c1,0,1.7,0.2,2.2,0.6c0.4,0.3,0.6,1,0.6,1.9c0,1-0.2,1.7-0.6,2
	c-0.5,0.4-1.3,0.6-2.3,0.6c-0.3,0-1.1,0-1.9-0.1c-0.6,0-2-0.1-2-0.1V77z M234.1,57.1c0,0,0.5-0.1,0.5-0.1c0,0,0.5,0,0.5-0.1v0
	c-2-0.5-0.9-1.1-1.2-1.5c-0.2-0.3-0.8-0.6-1.1-0.9c0,0-0.2,0-0.2-0.1l-2.6-1.8c-0.2-0.1-0.3-0.2-0.5-0.4c-0.6-0.6-1.1-1.3-1.1-2.1
	c0-0.8,0.5-1.5,1.1-2.1c0.2-0.1,0.3-0.2,0.5-0.4l2.6-1.8c0,0,0,0,0.1-0.1c0.3-0.2,1.1-0.6,1.3-0.9c0.4-0.5-0.8-1,1.2-1.5v0
	c0-0.5-0.3-1-0.3-1.5c-0.1-1-0.7-2-1.2-2.8c-0.2-0.4-0.7-0.7-1-1.1c0,0-0.1,0-0.1,0c-0.3-0.3-0.6-0.5-0.9-0.7c0,0,0,0,0,0
	c-1-0.7-2.4-1-3.6-0.7c0,0,0,0-0.1,0c0,0,0,0-0.1,0c-0.5,0.1-1.1,0.3-1.5,0.7c0,0-2.8,2.1-2.8,2.1c-0.1,0.1-0.2,0.1-0.3,0.2
	c-0.8,0.4-1.8,0.7-2.6,0.3c-0.6-0.3-1.2-1-1.4-1.6c-0.4-1.2-0.7-2.3-1.1-3.5c-0.1-0.4-0.3-0.7-0.5-1c-0.1-0.2-0.3-0.4-0.4-0.6
	c-0.3-0.4-0.7-0.7-1.1-1c-0.4-0.2-0.9-0.4-1.3-0.5c-0.2,0-0.6,0-0.9,0c-0.3,0-0.6,0-0.8,0.1c-0.4,0-0.9,0.1-1.4,0.3c0,0-0.1,0-0.1,0
	c0,0,0,0,0,0c-0.7,0.2-1.4,0.6-1.9,1c0,0,0,0,0,0c-1.1,0.9-1.8,2.2-1.8,3.6c0,0.5,0,0.9,0.2,1.4l1.1,3.3c0,0.1,0.1,0.3,0.1,0.4
	c0.1,0.7,0.1,1.5-0.3,2.1c-0.5,0.8-1.6,1.1-2.5,1.1l-3.5,0c-0.6,0-1.1,0.1-1.7,0.3c-1.4,0.6-2.5,1.8-2.9,3.2
	c-0.2,0.6-0.3,1.2-0.3,1.8v0c0,0.6,0.2,1.2,0.3,1.8c0.5,1.4,1.4,2.6,2.8,3.2c0.5,0.2,1.1,0.3,1.7,0.3l3.5,0c0.9,0,1.9,0.3,2.5,1.1
	c0.3,0.6,0.4,1.4,0.3,2.1c0,0.1-0.1,0.3-0.1,0.4l-1.1,3.3c-0.1,0.5-0.2,0.9-0.2,1.4c0,1.5,0.7,2.7,1.8,3.6c0,0,0,0,0,0
	c0.2,0.1,0.3,0.2,0.5,0.3c0.9,0.6,1.9,0.9,2.9,1c0.5,0.1,1.2,0.1,1.7,0c0.5-0.1,0.9-0.3,1.3-0.5c0.4-0.3,0.8-0.6,1.1-1
	c0.1-0.2,0.3-0.4,0.4-0.6c0.2-0.3,0.4-0.6,0.5-1c0,0,1-3.3,1-3.3c0.2-0.7,0.8-1.4,1.4-1.8c0,0,0,0,0,0c0.8-0.4,1.9-0.3,2.6,0.3
	c0.1,0.1,0.2,0.1,0.3,0.2l2.8,2.1c0.5,0.4,1.1,0.6,1.6,0.7c0.3,0,0.5,0.1,0.8,0.1h0c0.9,0,2-0.3,2.8-0.9c0,0,0,0,0,0
	c0.2-0.1,0.4-0.3,0.6-0.5c0.3-0.2,0.6-0.6,0.8-0.8c0,0,0-0.1,0.1-0.1c0.4-0.6,0.9-1.2,1-1.9c0-0.1,0-0.1,0.1-0.2
	c0.1-0.3,0.2-0.7,0.2-1C234.2,58,234.2,57.6,234.1,57.1z"/>
<g>
	<circle class="st1" cx="679.7" cy="461.4" r="30.1"/>
	<path class="st5" d="M675.5,442c-0.3,0-0.6,0-0.9,0.1c-0.5,0-1,0.1-1.5,0.3c0,0-0.1,0-0.1,0c0,0,0,0,0,0c-0.7,0.2-1.4,0.6-2,1.1
		c0,0,0,0,0,0c-1.2,0.9-1.9,2.3-1.9,3.8c0,0.5,0,1,0.2,1.5l1.2,3.5c0.1,0.2,0.1,0.3,0.1,0.4c0.1,0.8,0.1,1.6-0.3,2.3
		c-0.5,0.9-1.7,1.2-2.7,1.2l-3.7,0c-0.6,0-1.2,0.1-1.8,0.4c-1.5,0.6-2.5,1.9-3,3.4c-0.2,0.6-0.2,1.3-0.2,1.9v0
		c0,0.6,0.1,1.3,0.2,1.9c0.5,1.5,1.4,2.8,2.9,3.4c0.5,0.2,1.2,0.4,1.8,0.4l3.7,0c1,0,2.1,0.4,2.7,1.2c0.4,0.6,0.5,1.5,0.3,2.3
		c0,0.1-0.1,0.3-0.1,0.4l-1.2,3.5c-0.2,0.5-0.2,1-0.2,1.5c0,1.5,0.7,2.9,1.9,3.8c0,0,0,0,0,0c0.2,0.1,0.4,0.3,0.5,0.4
		c0.9,0.6,2,1,3.1,1.1c0.6,0.1,1.3,0.1,1.8,0c0.5-0.1,1-0.3,1.4-0.6c0.5-0.3,0.9-0.6,1.2-1c0.2-0.2,0.3-0.4,0.4-0.6
		c0.2-0.3,0.4-0.7,0.5-1.1c0,0,1.1-3.5,1.1-3.5c0.3-0.8,0.8-1.5,1.5-1.9c0,0,0,0,0,0c0.8-0.5,2-0.3,2.8,0.3c0.1,0.1,0.2,0.1,0.3,0.2
		l3,2.2c0.5,0.4,0.9,0.7,1.7,1.1c0.3,0.1,1.7,1,3.8-0.8c0,0,0.7-0.8,0.7-0.8c0.3-0.3,0.9-1,0.9-1c1.4-2,1.5-2,1.5-2
		c0.9-1.7,0.6-3,0.6-3v0c0-1.1-0.9-1.1-1.3-1.6c-0.3-0.3-1.3-1-1.3-1l-2.8-1.9c-0.2-0.1-0.4-0.3-0.6-0.4c-0.7-0.6-1.2-1.4-1.2-2.2
		c0.1-0.8,0.5-1.6,1.2-2.2c0.2-0.1,0.3-0.3,0.5-0.4l2.7-1.9c0,0,0.1,0,0.1-0.1c0.3-0.3,0.8-0.6,1.1-0.9c0.4-0.5,0.7-0.8,1-1.6
		c0,0,0.1-0.6,0-1.6c-0.2-1.1-0.5-2.1-1.1-3c-0.3-0.4-0.6-0.8-1-1.1c0,0,0,0,0,0c-0.3-0.3-0.6-0.5-0.9-0.8c0,0,0,0,0,0
		c-1.1-0.8-2.6-1-3.8-0.8c0,0,0,0-0.1,0c0,0,0,0-0.1,0c-0.6,0.1-1.1,0.4-1.6,0.7c0,0-3,2.2-3,2.2c-0.1,0.1-0.2,0.1-0.3,0.2
		c-0.8,0.5-1.9,0.8-2.8,0.3c-0.7-0.4-1.2-1-1.5-1.7c-0.4-1.2-0.8-2.5-1.2-3.7c-0.1-0.4-0.3-0.7-0.5-1.1c-0.1-0.2-0.3-0.4-0.4-0.6
		c-0.3-0.4-0.7-0.7-1.2-1c-0.4-0.3-0.9-0.5-1.4-0.6C676.2,442,675.8,441.9,675.5,442z"/>
</g>
<circle class="st6" cx="121.1" cy="181.5" r="14.2"/>
<circle class="st6" cx="121.1" cy="222.2" r="14.2"/>
<rect x="148.2" y="176.9" class="st37" width="99.8" height="33"/>
<text transform="matrix(1 0 0 1 148.1875 187.7695)" class="st8 st33 st38">PROJECTS</text>
<g>
	<rect x="148.2" y="216.1" class="st4" width="117" height="33"/>
	<text transform="matrix(1 0 0 1 148.1875 226.9766)" class="st7 st33 st38">ACTIVE SESSIONS</text>
</g>
<circle class="st39" cx="1196.9" cy="180.9" r="14.1"/>
<path class="st9" d="M1195.2,182.3c0.1,0.2,0.2,0.4,0.2,0.6v6.4c0,0.4,0.5,0.6,0.7,0.3l1.8-2.1c0.2-0.3,0.4-0.4,0.4-0.7v-4
	c0-0.2,0.1-0.4,0.2-0.6l5.1-5.6c0.4-0.4,0.1-1.1-0.5-1.1h-12.7c-0.6,0-0.9,0.7-0.5,1.1L1195.2,182.3z M1195.2,182.3"/>
<path class="st10" d="M1157.7,195H934.6c-7.8,0-14.1-6.3-14.1-14.1v0c0-7.8,6.3-14.1,14.1-14.1h223.1c7.8,0,14.1,6.3,14.1,14.1v0
	C1171.8,188.7,1165.5,195,1157.7,195z"/>
<g>
	<path class="st11" d="M946.8,188.6c0.5,0.5,0.5,1.2,0,1.7c-0.5,0.4-1.3,0.4-1.7,0l-4.9-4.9c-1.2,0.9-2.7,1.4-4.2,1.4
		c-4.1,0-7.4-3.3-7.4-7.4c0-4.1,3.3-7.4,7.4-7.4c4.1,0,7.4,3.3,7.4,7.4c0,1.6-0.5,3-1.4,4.2L946.8,188.6L946.8,188.6z M935.9,185.1
		c3.1,0,5.6-2.5,5.6-5.6c0-3.1-2.5-5.6-5.6-5.6c-3.1,0-5.6,2.5-5.6,5.6C930.3,182.6,932.8,185.1,935.9,185.1L935.9,185.1z
		 M935.9,185.1"/>
</g>
<circle class="st5" cx="121.1" cy="181.5" r="6.5"/>
<g>
	<rect x="999.1" y="73.7" class="st37" width="91.2" height="33"/>
	<text transform="matrix(1 0 0 1 1017.7881 87.2427)" class="st2 st33 st40">ABOUT</text>
	<rect x="882.3" y="73.7" class="st37" width="122.1" height="33"/>
	<text transform="matrix(1 0 0 1 899.1636 87.2427)" class="st2 st33 st40">TUTORIALS</text>
	<rect x="774.4" y="73.7" class="st37" width="117.4" height="33"/>
	<text transform="matrix(1 0 0 1 801.6083 87.2236)" class="st3 st41 st40">CREATE</text>
	<g>
		<rect x="1121.4" y="73.7" class="st4" width="117.4" height="33"/>
		<text transform="matrix(1 0 0 1 1153.564 86.2046)" class="st2 st33 st42">SIGN IN</text>
	</g>
	<g>
		<circle class="st4" cx="805.2" cy="80.7" r="2.9"/>
		<circle class="st4" cx="924.4" cy="80.7" r="2.9"/>
		<circle class="st4" cx="1139.6" cy="80.7" r="2.9"/>
	</g>
</g>
<path class="st31" d="M863.8,95.2h-62.7c-6.4,0-11.5-5.2-11.5-11.5v-7.9c0-6.4,5.2-11.5,11.5-11.5h62.7c6.4,0,11.5,5.2,11.5,11.5
	v7.9C875.3,90,870.2,95.2,863.8,95.2z"/>
<g>
	<g>
		
			<image style="overflow:visible;opacity:0.15;" width="1275" height="871" xlink:href="DC1D7FE453ADF7EB.png"  transform="matrix(0.24 0 0 0.24 896.539 243.8639)">
		</image>
		<g>
			<path class="st0" d="M1176.7,432.8H916.1c-4.2,0-7.6-3.4-7.6-7.6V261.5c0-4.2,3.4-7.6,7.6-7.6h260.6c4.2,0,7.6,3.4,7.6,7.6v163.7
				C1184.3,429.3,1180.9,432.8,1176.7,432.8z"/>
		</g>
	</g>
	<path class="st0" d="M1181,282.8c0-3-2.9-5.8-6-5.8H917.9c-0.9,0-2.1,0.4-2.8,0.8c-1.7,0.9-3.1,2.9-3.1,5v57.6V419v4.3
		c0,3.1,3,5.7,6.1,5.7h256.8c3.1,0,6.1-2.6,6.1-5.7v-9.2V282.8z"/>
	<g>
		<circle class="st5" cx="1172.1" cy="266.5" r="6.1"/>
		<g>
			<path class="st18" d="M1174.7,269.8c-0.2,0-0.3-0.1-0.4-0.2l-5.3-5.3c-0.2-0.2-0.2-0.6,0-0.9c0.2-0.2,0.6-0.2,0.9,0l5.3,5.3
				c0.2,0.2,0.2,0.6,0,0.9C1175.1,269.7,1174.9,269.8,1174.7,269.8z"/>
			<path class="st18" d="M1169.4,269.8c-0.2,0-0.3-0.1-0.4-0.2c-0.2-0.2-0.2-0.6,0-0.9l5.3-5.3c0.2-0.2,0.6-0.2,0.9,0s0.2,0.6,0,0.9
				l-5.3,5.3C1169.8,269.7,1169.6,269.8,1169.4,269.8z"/>
		</g>
	</g>
	<rect x="936.1" y="265.6" class="st4" width="103.8" height="10.3"/>
	<text transform="matrix(1 0 0 1 936.1465 272.2422)"><tspan x="0" y="0" class="st18 st43 st44">Pon</tspan><tspan x="18.2" y="0" class="st18 st43 st44 st45">g</tspan></text>
	<path class="st0" d="M1173.8,426.4h-99.9c-3.8,0-6.9-3.1-6.9-6.9v-4.7c0-3.8,3.1-6.9,6.9-6.9h99.9c3.8,0,6.9,3.1,6.9,6.9v4.7
		C1180.6,423.3,1177.5,426.4,1173.8,426.4z"/>
	<g>
		<g>
			<path class="st18" d="M1158.7,422.9l-0.8-0.8c-2.9-2.6-4.8-4.3-4.8-6.4c0-1.7,1.3-3.1,3.1-3.1c1,0,1.9,0.4,2.5,1.2
				c0.6-0.7,1.6-1.2,2.5-1.2c1.7,0,3.1,1.3,3.1,3.1c0,2.1-1.9,3.9-4.8,6.4L1158.7,422.9z M1158.7,422.9"/>
		</g>
	</g>
	<g>
		<rect x="1079.2" y="413.6" class="st4" width="19.1" height="13.9"/>
		<text transform="matrix(1 0 0 1 1079.1602 421.0435)" class="st18 st43 st46">121</text>
	</g>
	<g>
		<rect x="1125.1" y="413.6" class="st4" width="23.1" height="13.9"/>
		<text transform="matrix(1 0 0 1 1125.0889 421.0435)" class="st18 st43 st46">1134</text>
	</g>
	<g>
		<g>
			<path class="st18" d="M1109.6,413.6c-4.7,0-7.2,3.5-7.2,4c0,0.5,2.5,4,7.2,4s7.2-3.5,7.2-4
				C1116.7,417.1,1114.3,413.6,1109.6,413.6L1109.6,413.6z M1109.6,420.7c-1.8,0-3.2-1.4-3.2-3.1c0-1.7,1.4-3.1,3.2-3.1
				s3.2,1.4,3.2,3.1C1112.7,419.4,1111.3,420.7,1109.6,420.7L1109.6,420.7z M1111.1,417.6c0,0.9-0.7,1.5-1.6,1.5s-1.6-0.7-1.6-1.5
				c0-0.9,0.7-1.5,1.6-1.5c0.5,0-0.3,1.2,0,1.5C1109.8,417.9,1111.1,417.3,1111.1,417.6L1111.1,417.6z M1111.1,417.6"/>
		</g>
	</g>
	<g>
		<circle class="st21" cx="926.2" cy="416.5" r="8.9"/>
		<g>
			<path class="st47" d="M926.2,406.6c-5.5,0-9.9,4.4-9.9,9.9c0,5.5,4.4,9.9,9.9,9.9c5.5,0,9.9-4.4,9.9-9.9
				C936.1,411.1,931.7,406.6,926.2,406.6L926.2,406.6z M926.2,409.6c1.8,0,3.3,1.5,3.3,3.3c0,1.8-1.5,3.3-3.3,3.3
				c-1.8,0-3.3-1.5-3.3-3.3C923,411.1,924.4,409.6,926.2,409.6L926.2,409.6z M926.2,423.8c-1.8,0-3.5-0.7-4.7-1.7
				c-0.3-0.3-0.5-0.7-0.5-1.1c0-1.8,1.5-3.3,3.3-3.3h3.8c1.8,0,3.3,1.5,3.3,3.3c0,0.4-0.2,0.8-0.5,1.1
				C929.7,423.2,928,423.8,926.2,423.8L926.2,423.8z M926.2,423.8"/>
		</g>
	</g>
	<rect x="944.2" y="413.4" class="st4" width="124.3" height="18.4"/>
	<text transform="matrix(1 0 0 1 944.2012 420.7818)" class="st18 st43 st46">Camila</text>
	<g>
		<circle class="st29" cx="921.6" cy="269.3" r="8"/>
		<g>
			<path class="st18" d="M926.3,270.3c0-0.1,0-0.1-0.1-0.2c0-0.1-0.1-0.2-0.1-0.4c0-0.1-0.1-0.3-0.1-0.4c0-0.1-0.1-0.2-0.1-0.4
				c-0.1-0.4-0.2-0.9-0.4-1.3c-0.2-0.3-0.4-0.6-0.8-0.8c-0.4-0.2-0.8-0.3-1.2-0.3c-0.2,0-0.4,0-0.7,0.1c-0.2,0.1-0.4,0.2-0.6,0.3
				c-0.1,0.1-0.3,0.2-0.4,0.2c-0.1,0-0.2,0-0.3,0c-0.3,0-0.4-0.1-0.6-0.2c-0.2-0.1-0.4-0.2-0.6-0.3c-0.2-0.1-0.4-0.1-0.6-0.1
				c-0.1,0-0.2,0-0.2,0c-0.7,0.1-1.4,0.4-1.7,0.9c-0.2,0.4-0.3,0.8-0.4,1.3c0,0.1-0.1,0.3-0.1,0.4l-0.1,0.4c0,0.2-0.1,0.3-0.1,0.5
				c0,0.1,0,0.1-0.1,0.2c-0.1,0.2-0.1,0.5-0.1,0.7l0,0v0c0,0.4,0.2,0.7,0.5,1c0.3,0.3,0.7,0.4,1.1,0.4c0.2,0,0.5,0,0.7-0.1
				c0.4-0.2,0.6-0.4,0.8-0.7l0,0c0-0.1,0.1-0.1,0.1-0.2c0.1-0.1,0.2-0.2,0.2-0.3c0.1,0,0.2,0,0.3,0c0.1,0,0.3,0,0.4,0
				c0.2,0,0.3,0,0.5,0c0.2,0,0.3,0,0.5,0c0.2,0,0.3,0,0.5,0c0.2,0,0.3,0,0.3,0c0,0,0,0,0.1,0.1c0.1,0.1,0.1,0.2,0.2,0.2
				c0,0,0.1,0.1,0.1,0.1l0.1,0.1c0.2,0.2,0.4,0.5,0.8,0.7c0.2,0.1,0.4,0.1,0.6,0.1c0.3,0,0.7-0.1,0.9-0.3c0.3-0.2,0.5-0.4,0.6-0.7
				c0.1-0.1,0.1-0.3,0.1-0.5C926.4,270.8,926.3,270.5,926.3,270.3L926.3,270.3z M925.9,271.3c-0.2,0.5-0.9,0.8-1.5,0.6
				c-0.3-0.1-0.5-0.4-0.6-0.6c-0.1-0.2-0.3-0.5-0.6-0.6c-0.3-0.1-1,0-1.4,0c-0.6,0-1-0.1-1.4,0c-0.3,0.1-0.4,0.4-0.6,0.6
				c-0.2,0.2-0.3,0.5-0.6,0.6c-0.7,0.3-1.6-0.2-1.6-0.9c0-0.2,0.1-0.5,0.2-0.8c0.1-0.3,0.1-0.6,0.2-0.8c0.1-0.6,0.2-1.2,0.5-1.6
				c0.3-0.4,0.8-0.7,1.4-0.7c0.2,0,0.5,0,0.7,0c0.6,0.2,0.8,0.6,1.7,0.5c0.4-0.1,0.6-0.4,1-0.5c0.9-0.3,1.8,0.2,2.1,0.8
				c0.2,0.4,0.3,1.1,0.4,1.5c0.1,0.3,0.1,0.5,0.2,0.8C925.8,270.5,926,271,925.9,271.3L925.9,271.3z M924.6,268.8 M924.9,269.2
				c0,0.2-0.1,0.3-0.3,0.3s-0.3-0.1-0.3-0.3c0-0.2,0.1-0.3,0.3-0.3S924.9,269,924.9,269.2z M924.3,268.5c0,0.2-0.1,0.3-0.3,0.3
				s-0.3-0.1-0.3-0.3s0.1-0.3,0.3-0.3S924.3,268.3,924.3,268.5z M924.3,269.8c0,0.2-0.1,0.3-0.3,0.3s-0.3-0.1-0.3-0.3
				s0.1-0.3,0.3-0.3S924.3,269.7,924.3,269.8z M923.6,269.2c0,0.2-0.1,0.3-0.3,0.3s-0.3-0.1-0.3-0.3c0-0.2,0.1-0.3,0.3-0.3
				S923.6,269,923.6,269.2z M919.6,270.2h-0.2c-0.1,0-0.2-0.1-0.2-0.2v-1.5c0-0.1,0.1-0.2,0.2-0.2h0.2c0.1,0,0.2,0.1,0.2,0.2v1.5
				C919.9,270.1,919.8,270.2,919.6,270.2z M918.6,269.2v-0.2c0-0.1,0.1-0.2,0.2-0.2h1.5c0.1,0,0.2,0.1,0.2,0.2v0.2
				c0,0.1-0.1,0.2-0.2,0.2h-1.5C918.7,269.5,918.6,269.4,918.6,269.2z"/>
		</g>
	</g>
	<g>
		<defs>
			<path id="SVGID_21_" d="M1176.4,284.2H916.6c-2.3,0-4.1,1.8-4.1,4.1v109.4c0,2.3,1.8,4.1,4.1,4.1h259.8c2.3,0,4.1-1.8,4.1-4.1
				V288.4C1180.5,286.1,1178.7,284.2,1176.4,284.2z"/>
		</defs>
		<clipPath id="SVGID_2_">
			<use xlink:href="#SVGID_21_"  style="overflow:visible;"/>
		</clipPath>
		<g style="clip-path:url(#SVGID_2_);">
			<g>
				<path d="M1046.7,419c-44.4,0-88.8,0-133.2,0c-0.8,0-1-0.1-1-1c0-44.2,0-88.4,0-132.5c0-0.8,0.2-0.9,0.9-0.9
					c88.8,0,177.7,0,266.5,0c0.7,0,1,0.1,1,0.9c0,44.2,0,88.4,0,132.6c0,0.7-0.2,0.9-0.9,0.9C1135.6,419,1091.1,419,1046.7,419z"/>
				<path class="st49" d="M918.2,367.8c0-4.5,0-9,0-13.5c0-0.7,0.2-0.9,0.9-0.9c2.7,0,5.3,0,8,0c0.6,0,0.8,0.2,0.8,0.8
					c0,9.1,0,18.2,0,27.3c0,0.6-0.2,0.8-0.8,0.8c-2.7,0-5.4,0-8.1,0c-0.6,0-0.8-0.2-0.8-0.8C918.3,376.9,918.2,372.3,918.2,367.8z"
					/>
				<path class="st49" d="M1165.9,370c0-4.5,0-9,0-13.4c0-0.7,0.2-0.9,0.9-0.9c2.7,0,5.3,0,8,0c0.6,0,0.8,0.2,0.8,0.8
					c0,9.1,0,18.2,0,27.3c0,0.6-0.2,0.8-0.8,0.8c-2.7,0-5.4,0-8.1,0c-0.6,0-0.8-0.2-0.8-0.8C1165.9,379.1,1165.9,374.5,1165.9,370z"
					/>
				<path class="st49" d="M1035.3,409c4.4,0,8.9,0,13.3,0c0.7,0,0.9,0.2,0.9,0.9c-0.1,2.2,0,4.4,0,6.5c0,0.5-0.1,0.7-0.7,0.7
					c-9,0-18,0-27.1,0c-0.5,0-0.7-0.1-0.7-0.7c0-2.2,0-4.4,0-6.6c0-0.6,0.2-0.8,0.8-0.8C1026.4,409.1,1030.9,409,1035.3,409z"/>
				<path class="st49" d="M1070.1,416.9c-0.2,0.4-0.5,0.2-0.8,0.2c-5.7,0-11.4,0-17.1,0c-0.6,0-0.8-0.1-0.8-0.8c0-2.2,0-4.4,0-6.6
					c0-0.5,0.1-0.7,0.7-0.7c9,0,18,0,27.1,0c0.5,0,0.7,0.1,0.7,0.7c0,2.3,0,4.5,0,6.8c0,0.3,0,0.6-0.5,0.6c-3,0-5.9,0-8.9,0
					c-0.1,0-0.1-0.1-0.2-0.2c0.1-0.2,0.1-0.5,0.1-0.8c0-0.7,0.3-1,1-0.9c0.7,0.1,1.2-0.2,1.4-0.8c0.3-0.7,0.1-1.8-0.4-2.2
					c-0.6-0.5-1.2-0.2-1.8-0.1c-0.4,0.1-0.3,0.4-0.3,0.7c0,1,0,1.9,0,2.9C1070.3,416.2,1070.4,416.6,1070.1,416.9z"/>
				<path class="st49" d="M1045.8,355.7c-2.8,0-4.7-2.1-4.7-4.9c0-2.8,2.1-4.7,4.9-4.7c2.7,0,4.7,2.1,4.7,4.9
					C1050.7,353.7,1048.7,355.7,1045.8,355.7z"/>
				<path class="st50" d="M1059.7,297c0,1.2-0.1,2.1-0.6,3.1c-0.5,0.9-1.2,1.3-2.3,1.3c-1,0-1.8-0.5-2.1-1.4c-0.7-1.8-0.8-3.7,0-5.6
					c0.4-1,1.2-1.5,2.3-1.5c1.1,0,1.8,0.6,2.2,1.5C1059.7,295.3,1059.8,296.2,1059.7,297z"/>
				<path class="st50" d="M1045.9,297c0,1.2-0.1,2.1-0.5,3c-0.5,0.9-1.3,1.3-2.3,1.3c-1,0-1.8-0.5-2.1-1.4c-0.7-1.8-0.7-3.7,0-5.6
					c0.4-1,1.2-1.5,2.3-1.5c1.1,0,1.8,0.5,2.3,1.5C1045.9,295.3,1046,296.2,1045.9,297z"/>
				<path class="st51" d="M1070.1,416.9c0-1.6,0-3.2-0.1-4.8c0-0.1,0-0.4,0.2-0.4c0.8,0.4,1.8-0.5,2.5,0.3c0.6,0.6,0.7,1.3,0.5,2.1
					c-0.3,1.3-1,1.7-2.4,1.2c-0.4,0.4,0.4,1.2-0.5,1.5C1070.2,416.9,1070.2,416.9,1070.1,416.9z"/>
				<path class="st52" d="M1050,297.7c-0.3,0-0.6,0-1,0c-0.4,0-0.6-0.1-0.6-0.6c0-0.5,0.1-0.7,0.6-0.7c0.7,0,1.3,0,2,0
					c0.5,0,0.7,0.1,0.7,0.6c0,0.5-0.2,0.7-0.7,0.6C1050.7,297.6,1050.3,297.7,1050,297.7z"/>
				<path class="st53" d="M1037,411.3c1.2,0,1.4,0.3,1.5,1.5c0,0.1,0,0.3,0,0.4c-0.2,0.7,0.3,2-0.2,1.9c-0.8-0.1-1.4,0.3-2.1,0.2
					c-0.6-0.1-0.9-0.4-1-1c-0.1-0.6,0.2-1,0.8-1.2c0.4-0.1,0.9-0.2,1.3-0.2c0.2,0,0.5,0,0.5-0.3c0-0.3-0.2-0.5-0.4-0.6
					c-0.5-0.1-1-0.2-1.3,0.4c-0.2,0.3-0.4,0.3-0.6,0.1c-0.2-0.2,0-0.4,0.1-0.6C1035.9,411.4,1036.4,411.3,1037,411.3z"/>
				<path class="st53" d="M1031.1,415.2c-0.6,0-1.1-0.1-1.4-0.6c-0.1-0.2-0.3-0.4,0-0.6c0.2-0.1,0.4-0.2,0.6,0.1
					c0.1,0.3,0.3,0.5,0.7,0.5c0.4,0.1,0.8,0,1-0.4c0.1-0.5-0.3-0.5-0.6-0.6c-0.3-0.1-0.5-0.2-0.8-0.2c-0.6-0.2-0.8-0.5-0.8-1.1
					c0.1-0.6,0.5-0.9,1-0.9c0.6,0,1.2-0.1,1.6,0.5c0.1,0.2,0.2,0.4,0,0.5c-0.2,0.1-0.4,0.2-0.6,0c-0.1-0.1-0.2-0.3-0.4-0.4
					c-0.4-0.1-0.9-0.2-1,0.2c-0.2,0.5,0.4,0.5,0.6,0.6c0.1,0.1,0.3,0.1,0.5,0.1c0.7,0.2,1.3,0.4,1.1,1.3
					C1032.5,415.1,1031.8,415.2,1031.1,415.2z"/>
				<path class="st54" d="M1034.1,410.1c0.2,0.5-0.2,1.2,0.6,1.3c0.1,0,0.1,0.3,0,0.4c-0.7,0.8-0.7,2,0,2.8c0.1,0.1,0.1,0.3,0.1,0.4
					c0,0-0.2,0.1-0.3,0.1c-0.6,0.1-1-0.1-1-0.8c0-0.6,0-1.2,0-1.8c0-0.3,0.1-0.6-0.3-0.7c-0.1,0-0.2-0.3-0.2-0.3
					C1033.7,411.4,1033.3,410.4,1034.1,410.1z"/>
				<path class="st55" d="M1041.3,411.5c0.3-0.1,0.7-0.1,0.6-0.7c-0.1-0.4,0.2-0.5,0.6-0.6c0.2,0.5-0.2,1.2,0.6,1.3
					c0.1,0,0.2,0.3-0.1,0.4c-0.7,0.5-0.7,2.2-0.1,2.6c0.2,0.1,0.3,0.2,0.3,0.4c0,0.3-0.3,0.2-0.4,0.2c-0.6,0-0.9-0.2-0.9-0.8
					c0-0.6,0-1.2,0-1.8c0.1-0.5-0.2-0.7-0.6-0.8C1041.2,411.7,1041.2,411.6,1041.3,411.5z"/>
				<path class="st56" d="M1041.3,411.5c0,0.1,0,0.2,0,0.3c0,0.1,0,0.2,0,0.2c-1.5,0-1.3,1.1-1.3,2c0,0.3,0,0.6,0,0.9
					c0,0.2-0.1,0.4-0.3,0.3c-0.3,0-0.3-0.2-0.3-0.4c0-1,0-2.1,0-3.1c0-0.1,0-0.3,0.1-0.3C1040.1,411.7,1040.7,411,1041.3,411.5z"/>
				<path class="st53" d="M1065.8,413.6c0-1.3,0.6-1.9,1.7-1.9c1.2,0,1.8,0.7,1.8,2c0,1.2-0.6,1.9-1.8,1.9
					C1066.4,415.6,1065.8,414.9,1065.8,413.6z"/>
				<path class="st53" d="M1061.9,411.7c0.4,0,0.8,0.1,1.1,0.5c0.1,0.2,0.3,0.4,0.1,0.6c-0.2,0.1-0.4,0.2-0.6-0.1
					c-0.1-0.1-0.2-0.3-0.3-0.3c-0.4-0.1-0.9-0.2-1.1,0.2c-0.2,0.5,0.4,0.5,0.7,0.6c0.3,0.1,0.5,0.2,0.8,0.2c0.5,0.1,0.8,0.5,0.8,1
					c0,0.6-0.4,1-0.9,1.1c-0.8,0.1-1.6,0.2-2-0.6c-0.1-0.2-0.3-0.4,0-0.6c0.2-0.1,0.4-0.1,0.5,0.2c0.2,0.3,0.5,0.5,0.9,0.5
					c0.3,0,0.7-0.1,0.8-0.4c0.1-0.4-0.3-0.5-0.6-0.6c-0.2,0-0.4-0.1-0.5-0.2c-0.7-0.1-1.2-0.5-1.1-1.3
					C1060.5,411.8,1061.1,411.7,1061.9,411.7z"/>
				<path class="st55" d="M1064.7,410.6c0.2,0.5-0.2,1.2,0.7,1.4c0.1,0,0.1,0.3-0.1,0.4c-0.7,0.6-0.8,2.2,0,2.7
					c0.2,0.1,0.2,0.3,0.2,0.5c0,0.2-0.2,0.2-0.4,0.2c-0.6,0.1-1-0.2-1-0.9c0-0.5,0-1,0-1.5c0-0.3,0.2-0.8-0.3-0.9
					c0,0-0.1-0.1-0.1-0.1C1064.3,411.8,1063.9,410.8,1064.7,410.6z"/>
				<path class="st57" d="M1058.5,297.1c0,0.8,0,1.5-0.3,2.3c-0.2,0.5-0.6,0.9-1.2,0.9c-0.6,0-1-0.4-1.2-0.9c-0.4-1.5-0.4-3,0-4.5
					c0.2-0.6,0.6-1,1.2-0.9c0.6,0,1,0.4,1.2,0.9C1058.5,295.6,1058.4,296.4,1058.5,297.1z"/>
				<path class="st57" d="M1041.7,297.1c-0.1-0.8,0.1-1.4,0.3-2.1c0.2-0.6,0.6-1,1.2-1.1c0.6,0,1.1,0.4,1.2,1c0.4,1.4,0.4,2.9,0,4.3
					c-0.2,0.6-0.6,1-1.2,1.1c-0.7,0-1.1-0.5-1.3-1.1C1041.7,298.5,1041.6,297.8,1041.7,297.1z"/>
				<path class="st58" d="M1070.7,413.8c0-0.9,0.2-1.5,1-1.5c0.8,0,1,0.7,1,1.4c0,0.7-0.2,1.4-1,1.3
					C1070.8,415,1070.6,414.3,1070.7,413.8z"/>
				<path class="st59" d="M1036.5,414.6c-0.3,0-0.7-0.1-0.6-0.5c0.2-0.7,0.9-0.5,1.4-0.7c0.3-0.1,0.4-0.1,0.4,0.3
					C1037.6,414.4,1037.3,414.7,1036.5,414.6z"/>
				<path class="st58" d="M1068.6,413.9c0,0.5-0.3,1.1-1.1,1.1c-0.6,0-1.1-0.6-1.1-1.4c0-0.7,0.3-1.3,1.1-1.3
					C1068.2,412.2,1068.6,412.9,1068.6,413.9z"/>
			</g>
		</g>
	</g>
	<path class="st20" d="M1173.7,401.9H919.2c-3.7,0-6.8-3-6.8-6.8V291.4c0-3.7,3-6.8,6.8-6.8h254.5c3.7,0,6.8,3,6.8,6.8v103.6
		C1180.5,398.8,1177.5,401.9,1173.7,401.9z"/>
</g>
<circle class="st6" cx="120.9" cy="263" r="14.2"/>
<g>
	<rect x="148.1" y="256.8" class="st4" width="130" height="33.1"/>
	<text transform="matrix(1 0 0 1 148.0654 267.7681)" class="st7 st33 st66">Users Map</text>
</g>
<rect x="252" y="69.1" class="st4" width="515" height="55.4"/>
<text transform="matrix(1 0 0 1 252.0183 87.4075)" class="st5 st68 st69">A world where ideas come alive.</text>
</svg>
