<?xml version="1.0" encoding="utf-8"?>
<!-- Generator: Adobe Illustrator 19.1.0, SVG Export Plug-In . SVG Version: 6.00 Build 0)  -->
<svg version="1.1" id="Layer_1" xmlns="http://www.w3.org/2000/svg" xmlns:xlink="http://www.w3.org/1999/xlink" x="0px" y="0px"
	 viewBox="0 0 1280 800" style="enable-background:new 0 0 1280 800;" xml:space="preserve">
<style type="text/css">
	.st0{fill:#4D4D4D;}
	.st1{fill:#FFFCF9;}
	.st2{fill:#58595B;}
	.st3{fill:#58595B;stroke:#58595B;stroke-width:0.5;stroke-miterlimit:10;}
	.st4{fill:none;}
	.st5{fill:#F57C00;}
	.st6{fill:none;stroke:#BCBEC0;stroke-width:3;stroke-miterlimit:10;}
	.st7{fill:#E6E7E8;}
	.st8{fill:#A7A9AC;}
	.st9{fill:#BCBEC0;}
	.st10{fill:#FFFAF5;stroke:#BCBEC0;stroke-width:3;stroke-miterlimit:10;}
	.st11{fill:#D1D3D4;}
	.st12{opacity:6.000000e-02;fill:#7DCCED;}
	.st13{opacity:6.000000e-02;fill:#CB97C9;}
	.st14{opacity:6.000000e-02;fill:#FFDE17;}
	.st15{fill:none;stroke:#E6E7E8;stroke-width:2;stroke-miterlimit:10;}
	.st16{fill:none;stroke:#E6E7E8;stroke-width:4;stroke-miterlimit:10;}
	.st17{opacity:0.3;fill:none;stroke:#E6E7E8;stroke-width:4;stroke-miterlimit:10;}
	.st18{fill:#FFFFFF;}
	.st19{fill:#6D6E71;}
	.st20{opacity:0.2;fill:#FFFFFF;}
	.st21{fill:#808285;}
	.st22{fill:#7DCCED;}
	.st23{opacity:0.8;fill:#FFFFFF;}
	.st24{opacity:0.3;fill:#FFFFFF;}
	.st25{fill:#FED7B7;}
	.st26{fill-rule:evenodd;clip-rule:evenodd;stroke:#FFFFFF;stroke-miterlimit:10;}
	.st27{fill:#FFDE17;}
	.st28{fill:#CB97C9;}
	.st29{fill:#85D866;}
	.st30{fill:#F5844E;}
	.st31{fill:none;stroke:#F57C00;stroke-width:3;stroke-miterlimit:10;}
	.st32{fill:#FEF9F2;}
	.st33{fill:#9DE085;}
	.st34{fill:#97D6F1;}
	.st35{fill:none;stroke:#BCBEC0;stroke-width:2;stroke-miterlimit:10;}
	.st36{fill:#F1F2F2;}
	.st37{clip-path:url(#SVGID_22_);}
	.st38{fill:#FEFEFE;}
	.st39{fill:#FDFDFD;}
	.st40{fill:#030303;}
	.st41{fill:#EFEFEF;}
	.st42{fill:#040404;}
	.st43{fill:#050505;}
	.st44{fill:#070707;}
	.st45{fill:#020202;}
	.st46{fill:#010101;}
	.st47{fill:#FBFBFB;}
	.st48{fill:#F7F7F7;}
	.st49{fill:#FAC085;}
	.st50{fill:#F15A29;}
	.st51{fill:#80D3AB;}
	.st52{fill:#77ACD7;}
	.st53{fill:none;stroke:#FFFFFF;stroke-miterlimit:10;}
	.st54{fill-rule:evenodd;clip-rule:evenodd;fill:none;}
	.st55{font-family:'BloggerSans-Medium';}
	.st56{font-size:18.7145px;}
	.st57{font-family:'BloggerSans-Bold';}
	.st58{font-size:17.2749px;}
	.st59{fill:none;stroke:#FFFFFF;stroke-width:3;stroke-miterlimit:10;}
	.st60{font-size:15.1156px;}
	.st61{opacity:0.7;fill:#F57C00;}
	.st62{font-size:4.5px;}
	.st63{font-size:5.2048px;}
	.st64{font-size:11px;}
	.st65{font-family:'BloggerSans-Light';}
	.st66{font-size:25px;}
	.st67{fill:#58595B;stroke:#58595B;stroke-width:0.2;stroke-miterlimit:10;}
	.st68{fill:#FFFAF5;stroke:#BCBEC0;stroke-width:2;stroke-miterlimit:10;}
	.st69{fill:#B1E0F4;}
	.st70{fill:#FFEB74;}
	.st71{fill:#E0C1DF;}
	.st72{fill:none;stroke:#F57C00;stroke-width:2;stroke-miterlimit:10;}
	.st73{clip-path:url(#SVGID_48_);}
</style>
<rect x="0" y="0" class="st1" width="1280" height="800"/>
<rect x="0" y="0" class="st1" width="1279" height="800"/>
<g>
	<defs>
		<rect id="SVGID_1_" x="0" y="137" width="1280" height="663"/>
	</defs>
	<clipPath id="SVGID_2_">
		<use xlink:href="#SVGID_1_"  style="overflow:visible;"/>
	</clipPath>
	<g style="clip-path:url(#SVGID_2_);">
		
			<image style="overflow:visible;" width="2304" height="1584" xlink:href="13DA4842381A70FE.png"  transform="matrix(0.5556 0 0 0.5523 4.813088e-02 -12.8434)">
		</image>
	</g>
</g>
<path class="st31" d="M867.4,96.1h-61.1c-6.9,0-12.5-5.6-12.5-12.5v-6.2c0-6.9,5.6-12.5,12.5-12.5h61.1c6.9,0,12.5,5.6,12.5,12.5
	v6.2C879.9,90.5,874.3,96.1,867.4,96.1z"/>
<g>
	<rect x="1000.9" y="73.6" class="st54" width="91.4" height="33.1"/>
	<text transform="matrix(1 0 0 1 1019.6323 87.1417)" class="st2 st55 st56">ABOUT</text>
	<rect x="883.7" y="73.6" class="st54" width="122.4" height="33.1"/>
	<text transform="matrix(1 0 0 1 900.6787 87.1417)" class="st2 st55 st56">TUTORIALS</text>
	<rect x="778.3" y="73.6" class="st54" width="117.7" height="33.1"/>
	<text transform="matrix(1 0 0 1 805.6116 87.1231)" class="st3 st57 st56">CREATE</text>
	<g>
		<rect x="1123.5" y="73.6" class="st4" width="117.7" height="33.1"/>
		<text transform="matrix(1 0 0 1 1155.7847 86.1011)" class="st2 st55 st58">SIGN IN</text>
	</g>
	<g>
		<circle class="st4" cx="806.4" cy="80.6" r="2.9"/>
		<circle class="st4" cx="926" cy="80.6" r="2.9"/>
		<circle class="st4" cx="1141.8" cy="80.6" r="2.9"/>
	</g>
</g>
<path class="st5" d="M89.1,54.3c-1.1-1-2.5-1.5-4.2-1.5s-3,0.5-4.2,1.5c-1.2,1.1-1.7,2.3-1.7,3.8c0,1.5,0.6,2.8,1.7,3.8
	c1.1,1,2.5,1.5,4.2,1.5c1.6,0,3-0.5,4.2-1.5c1.2-1.1,1.7-2.3,1.7-3.8C90.9,56.7,90.3,55.4,89.1,54.3z M88.9,67
	c-1-0.9-2.4-1.4-3.8-1.4c-1.5,0-2.3,0.5-3.3,1.4c-1.1,0.9-1.1,2.1-1.1,3.4v24.8c0,1.4,0.1,2.6,1.1,3.5c1,0.9,2,1.4,3.5,1.4
	c1.5,0,2.7-0.5,3.8-1.4c1.1-0.9,1.6-2.1,1.6-3.5V70.4C90.6,69.1,89.9,67.9,88.9,67z M122.6,70.4c0-1.4-0.6-2.6-1.7-3.5
	c-1-0.8-2.3-1.3-3.6-1.3c-1,0-2,0.3-3,0.9c-1,0.6-1.7,1.4-2.1,2.5l-3.3,10.5c-0.5,1.6-0.8,3.2-1.1,4.8c-0.3-1.6-0.7-3.3-1.2-4.9
	l-3.5-10.6c-0.4-1.1-1-1.9-2-2.5c-0.9-0.6-1.9-0.9-2.9-0.9c-1.4,0-2.2,0.4-3.3,1.3c-1.1,0.9-1.3,2.1-1.3,3.5v0.5
	c0,0.3-0.3,0.6-0.2,0.9l8.5,24c0.5,1.5,1.2,2.6,2.1,3.3c0.9,0.7,2.2,1.1,3.8,1.1c1.6,0,2.8-0.4,3.7-1.1c0.9-0.7,1.6-1.8,2.1-3.3
	l8.7-23.8c0.1-0.3,0.3-0.6,0.3-0.9V70.4z M197,66.9c-1.1-0.9-2.3-1.3-3.6-1.3c-1,0-2,0.2-2.9,0.7c-1,0.5-1.7,1.4-2.1,2.6L185,79.5
	c-0.3,1-0.6,2.1-0.9,3.2c-0.3-1.1-0.6-2.2-1-3.2l-4-10.6c-0.4-1.1-1.1-1.9-2-2.5c-0.9-0.5-1.9-0.8-2.9-0.8c-1.4,0-2.7,0.4-3.7,1.3
	c-1.1,0.9-1.6,2-1.6,3.4c0,0.3,0,0.6,0.1,0.9c0.1,0.3,0.2,0.7,0.3,1.1l9.6,24.6c-0.7,2.2-1.4,3.7-2.1,4.7c-0.6,0.8-1.5,1.3-2.6,1.3
	c-1.5,0.1-2.8,0.6-3.7,1.5c-0.9,0.9-1.4,2-1.4,3.2c0,1.4,0.5,2.6,1.6,3.5c1,0.9,2.3,1.3,3.8,1.3c2.5,0,4.7-0.5,6.4-1.4
	c1.7-0.9,3.2-2.2,4.4-3.9c1.2-1.6,2.2-3.6,3-5.8c0.8-2.1,1.7-4.5,2.6-7.1l7.7-22.3c0.2-0.4,0.3-0.9,0.3-1.5
	C198.7,69,198.2,67.8,197,66.9z M73.2,92.8c-0.5-0.5-0.5-0.7-0.5-0.7c0-0.1,0-0.4,0-1.2V57.2c0-1.4-0.6-2.6-1.6-3.5
	c-1-0.9-2.3-1.4-3.8-1.4c-1.5,0-2.4,0.5-3.4,1.4c-1,1-1.2,2.1-1.2,3.5v34.5c0,1.8-0.2,3.2,0.3,4.3c0.5,1.1,0.9,2,1.5,2.6
	c0.7,0.6,1.4,1.1,2.3,1.2c0.8,0.2,1.5,0.2,2.2,0.2c1.7,0,3-0.3,4-1c1.1-0.7,1.7-1.9,1.7-3.4c0-0.8-0.2-1.4-0.5-1.9
	C73.8,93.5,73.5,93.1,73.2,92.8z M166.7,92.8c-0.5-0.5-0.3-0.7-0.3-0.7c0-0.1,0.2-0.4,0.2-1.2V57.2c0-1.4-0.8-2.6-1.8-3.5
	c-1-0.9-2.4-1.4-3.9-1.4c-1.5,0-2.7,0.5-3.7,1.4c-1,1-1.5,2.1-1.5,3.5v34.5c0,1.8,0.1,3.2,0.6,4.3c0.5,1.1,1,2,1.7,2.6
	c0.7,0.6,1.5,1.1,2.4,1.2c0.8,0.2,1.5,0.2,2.2,0.2c1.7,0,3-0.3,4-1c1.1-0.7,1.7-1.9,1.7-3.4c0-0.8-0.2-1.4-0.5-1.9
	C167.4,93.5,167.1,93.1,166.7,92.8z M136.1,87.5c0.8,0.1,1.6,0.1,2.5,0.1c4.5,0,7.9-0.9,10-2.8c2.1-1.9,3.2-4.5,3.2-7.8
	c0-3.4-1.1-6.3-3.3-8.4c-2.2-2.1-5.6-3.2-10-3.2c-2.3,0-4.3,0.3-6.1,0.9c-1.8,0.6-3.3,1.5-4.6,2.6c-1.2,1.1-2.5,2.4-3.1,3.9
	c-0.6,1.5-1.2,3.1-1.2,4.8v10.5c0,1.7,0.6,3.3,1.2,4.7c0.6,1.5,1.7,2.8,2.9,3.8c1.2,1.1,2.8,1.9,4.5,2.5c1.7,0.6,3.7,0.9,5.9,0.9
	c1,0,2.3-0.1,3.7-0.3c1.4-0.2,2.9-0.5,4.2-0.9c1.4-0.5,2.6-1.1,3.5-1.9c1.1-0.9,1.7-2.1,1.7-3.5c0-0.5-0.1-1-0.2-1.5
	c-0.2-0.5-0.4-1-0.8-1.5c-0.4-0.4-0.9-0.8-1.5-1.1c-0.6-0.3-1.4-0.4-2.3-0.4c-0.6,0-1.1,0.1-1.5,0.2c-0.4,0.1-0.6,0.2-0.8,0.3
	c-0.9,0.4-1.8,0.7-2.6,1c-0.8,0.2-1.7,0.3-2.6,0.3c-1.5,0-2.7-0.2-3.3-0.7c-0.6-0.4-1-1-1-1.8v-0.9
	C135.6,87.4,135.7,87.5,136.1,87.5z M134.6,77.2c0-1,0.4-1.7,1-2.3c0.6-0.6,1.6-0.8,2.8-0.8c1,0,1.7,0.2,2.2,0.6
	c0.4,0.3,0.6,1,0.6,1.9c0,1-0.2,1.7-0.6,2c-0.5,0.4-1.3,0.6-2.3,0.6c-0.3,0-1,0-1.8-0.1c-0.6,0-0.9-0.1-1.9-0.1V77.2z M233.7,57.3
	c0,0,0.4-0.1,0.4-0.1c0,0,0.4,0,0.4-0.1v0c-1-0.5-0.8-1.1-1.2-1.5c-0.2-0.3-0.7-0.6-1.1-0.9c0,0-0.2,0-0.2-0.1l-2.6-1.8
	c-0.2-0.1-0.3-0.2-0.5-0.4c-0.6-0.6-1.1-1.3-1.1-2.1c0-0.8,0.5-1.5,1.1-2.1c0.2-0.1,0.3-0.2,0.5-0.4L232,46c0,0,0,0,0.1-0.1
	c0.3-0.2,1-0.6,1.3-0.9c0.4-0.5,0.2-1,1.2-1.5v0c0-0.5-0.3-1-0.3-1.5c-0.1-1-0.6-2-1.2-2.8c-0.2-0.4-0.7-0.7-1-1.1c0,0-0.1,0-0.1,0
	c-0.3-0.3-0.6-0.5-0.9-0.7c0,0,0,0,0,0c-1-0.7-2.4-1-3.6-0.7c0,0,0,0-0.1,0c0,0,0,0-0.1,0c-0.5,0.1-1.1,0.3-1.5,0.7
	c0,0-2.8,2.1-2.8,2.1c-0.1,0.1-0.2,0.1-0.3,0.2c-0.8,0.4-1.8,0.7-2.6,0.3c-0.6-0.3-1.2-1-1.4-1.6c-0.4-1.2-0.7-2.3-1.1-3.5
	c-0.1-0.4-0.3-0.7-0.5-1c-0.1-0.2-0.3-0.4-0.4-0.6c-0.3-0.4-0.7-0.7-1.1-1c-0.4-0.2-0.9-0.4-1.3-0.5c-0.2,0-0.6,0-0.9,0
	c-0.3,0-0.6,0-0.8,0.1c-0.4,0-0.9,0.1-1.4,0.3c0,0-0.1,0-0.1,0c0,0,0,0,0,0c-0.7,0.2-1.4,0.6-1.9,1c0,0,0,0,0,0
	c-1.1,0.9-1.8,2.2-1.8,3.6c0,0.5,0,0.9,0.2,1.4l1.1,3.3c0,0.1,0.1,0.3,0.1,0.4c0.1,0.7,0.1,1.5-0.3,2.1c-0.5,0.8-1.6,1.1-2.5,1.1
	l-3.5,0c-0.6,0-1.1,0.1-1.7,0.3c-1.4,0.6-1.9,1.8-2.4,3.2c-0.2,0.6,0.2,1.2,0.2,1.8v0c0,0.6-0.4,1.2-0.2,1.8
	c0.5,1.4,1.1,2.6,2.6,3.2c0.5,0.2,1,0.3,1.6,0.3l3.4,0c0.9,0,1.9,0.3,2.5,1.1c0.3,0.6,0.4,1.4,0.3,2.1c0,0.1-0.1,0.3-0.1,0.4
	l-1.1,3.3c-0.1,0.5-0.2,0.9-0.2,1.4c0,1.5,0.7,2.7,1.8,3.6c0,0,0,0,0,0c0.2,0.1,0.3,0.2,0.5,0.3c0.9,0.6,1.9,0.9,2.9,1
	c0.5,0.1,1.2,0.1,1.7,0c0.5-0.1,0.9-0.3,1.3-0.5c0.4-0.3,0.8-0.6,1.1-1c0.1-0.2,0.3-0.4,0.4-0.6c0.2-0.3,0.4-0.6,0.5-1
	c0,0,1-3.3,1-3.3c0.2-0.7,0.8-1.5,1.4-1.8c0,0,0,0,0,0c0.8-0.4,1.9-0.3,2.6,0.3c0.1,0.1,0.2,0.1,0.3,0.2l2.8,2.1
	c0.5,0.4,1.1,1,1.6,1.2c0.3,0,0.5,0.6,0.8,0.6h0c0.9,0,2.1-0.7,2.8-1.3c0,0,0-0.2,0-0.2c0.2-0.1,0.4-0.4,0.6-0.6
	c0.3-0.2,0.6-0.6,0.8-0.9c0,0,0-0.1,0.1-0.1c0.4-0.6,0.9-1.2,1-1.9c0-0.1,0-0.2,0.1-0.2c0.1-0.3,0.2-0.7,0.2-1
	C233.9,58.2,233.8,57.7,233.7,57.3z"/>
<circle class="st59" cx="120.5" cy="182" r="14.2"/>
<circle class="st59" cx="120.5" cy="221.8" r="14.2"/>
<rect x="147.6" y="177.4" class="st54" width="100.1" height="33.1"/>
<text transform="matrix(1 0 0 1 147.6187 188.2906)" class="st18 st55 st60">PROJECTS</text>
<g>
	<rect x="147.6" y="215.7" class="st4" width="130" height="33.1"/>
	<text transform="matrix(1 0 0 1 147.6182 226.6036)" class="st18 st55 st60">ACTIVE SESSIONS</text>
</g>
<circle class="st59" cx="120.5" cy="263" r="14.2"/>
<rect x="147.6" y="256.8" class="st54" width="130" height="33.1"/>
<text transform="matrix(1 0 0 1 147.6182 267.7681)" class="st5 st55 st60">Users Map</text>
<circle class="st59" cx="1199.2" cy="181.4" r="14.2"/>
<path class="st18" d="M1197.5,182.8c0.1,0.2,0.2,0.4,0.2,0.6v6.4c0,0.4,0.5,0.6,0.7,0.3l1.8-2.1c0.2-0.3,0.4-0.4,0.4-0.7v-4
	c0-0.2,0.1-0.4,0.2-0.6l5.2-5.6c0.4-0.4,0.1-1.1-0.5-1.1h-12.7c-0.6,0-0.9,0.7-0.5,1.1L1197.5,182.8z M1197.5,182.8"/>
<path class="st59" d="M1159.9,195.6H936.3c-7.8,0-14.2-6.3-14.2-14.2v0c0-7.8,6.3-14.2,14.2-14.2h223.7c7.8,0,14.2,6.3,14.2,14.2v0
	C1174.1,189.2,1167.8,195.6,1159.9,195.6z"/>
<g>
	<path class="st18" d="M948.4,189.1c0.5,0.5,0.5,1.2,0,1.7c-0.5,0.4-1.3,0.4-1.7,0l-4.9-4.9c-1.2,0.9-2.7,1.4-4.3,1.4
		c-4.1,0-7.4-3.3-7.4-7.4c0-4.1,3.3-7.4,7.4-7.4c4.1,0,7.4,3.3,7.4,7.4c0,1.6-0.5,3-1.4,4.3L948.4,189.1L948.4,189.1z M937.5,185.6
		c3.1,0,5.7-2.5,5.7-5.7s-2.5-5.7-5.7-5.7s-5.7,2.5-5.7,5.7S934.4,185.6,937.5,185.6L937.5,185.6z M937.5,185.6"/>
</g>
<circle class="st5" cx="120.5" cy="263" r="6.5"/>
<circle class="st61" cx="217.8" cy="367.9" r="7.6"/>
<rect x="214.3" y="366.7" class="st4" width="9.8" height="5.2"/>
<text transform="matrix(1 0 0 1 214.2968 369.9894)" class="st18 st55 st62">2 K</text>
<circle class="st61" cx="639.5" cy="366.7" r="7.6"/>
<rect x="636" y="365.5" class="st4" width="9.8" height="5.2"/>
<text transform="matrix(1 0 0 1 635.9896 368.788)" class="st18 st55 st62">2 K</text>
<circle class="st61" cx="966.4" cy="431.2" r="8.8"/>
<rect x="962.3" y="429.8" class="st4" width="11.3" height="6.1"/>
<text transform="matrix(1 0 0 1 962.2778 433.5695)" class="st18 st55 st63">4 K</text>
<circle class="st61" cx="225.5" cy="422.7" r="18.4"/>
<rect x="216.2" y="419.3" class="st4" width="18.1" height="10.5"/>
<text transform="matrix(1 0 0 1 216.2409 427.2311)" class="st18 st55 st64">1 M</text>
<rect x="265.7" y="69.1" class="st4" width="515" height="55.4"/>
<text transform="matrix(1 0 0 1 265.6602 87.4082)" class="st5 st65 st66">A world where ideas come alive.</text>
<g>
	<path class="st59" d="M145.3,771.4H95.6c-2.9,0-5.2-2.3-5.2-5.2v-19.7c0-2.9,2.3-5.2,5.2-5.2h49.7c2.9,0,5.2,2.3,5.2,5.2v19.7
		C150.5,769.1,148.2,771.4,145.3,771.4z"/>
	<g>
		<g>
			<g>
				<path class="st18" d="M100.6,757.9c3.4,0,6.9,0,10.3,0c1.9,0,1.9-3,0-3c-3.4,0-6.9,0-10.3,0C98.7,754.9,98.7,757.9,100.6,757.9
					L100.6,757.9z"/>
			</g>
		</g>
		<g>
			<g>
				<path class="st18" d="M104.3,751.3c0,3.4,0,6.9,0,10.3c0,1.9,3,1.9,3,0c0-3.4,0-6.9,0-10.3C107.3,749.3,104.3,749.3,104.3,751.3
					L104.3,751.3z"/>
			</g>
		</g>
	</g>
	<g>
		<g>
			<path class="st18" d="M130.1,757.9c3.4,0,6.9,0,10.3,0c1.9,0,1.9-3,0-3c-3.4,0-6.9,0-10.3,0C128.2,754.9,128.2,757.9,130.1,757.9
				L130.1,757.9z"/>
		</g>
	</g>
	<line class="st59" x1="120.5" y1="771.4" x2="120.5" y2="741.4"/>
</g>
</svg>
