<?xml version="1.0" encoding="utf-8"?>
<!-- Generator: Adobe Illustrator 19.1.0, SVG Export Plug-In . SVG Version: 6.00 Build 0)  -->
<svg version="1.1" id="Layer_1" xmlns="http://www.w3.org/2000/svg" xmlns:xlink="http://www.w3.org/1999/xlink" x="0px" y="0px"
	 viewBox="0 0 1280.7 800" style="enable-background:new 0 0 1280.7 800;" xml:space="preserve">
<style type="text/css">
	.st0{fill:#4D4D4D;}
	.st1{fill:#FFFCF9;}
	.st2{fill:#58595B;}
	.st3{fill:#58595B;stroke:#58595B;stroke-width:0.5;stroke-miterlimit:10;}
	.st4{fill:none;}
	.st5{fill:#F57C00;}
	.st6{fill:none;stroke:#BCBEC0;stroke-width:3;stroke-miterlimit:10;}
	.st7{fill:#E6E7E8;}
	.st8{fill:#A7A9AC;}
	.st9{fill:#BCBEC0;}
	.st10{fill:#FFFAF5;stroke:#BCBEC0;stroke-width:3;stroke-miterlimit:10;}
	.st11{fill:#D1D3D4;}
	.st12{opacity:6.000000e-02;fill:#7DCCED;}
	.st13{opacity:6.000000e-02;fill:#CB97C9;}
	.st14{opacity:6.000000e-02;fill:#FFDE17;}
	.st15{fill:none;stroke:#E6E7E8;stroke-width:2;stroke-miterlimit:10;}
	.st16{fill:none;stroke:#E6E7E8;stroke-width:4;stroke-miterlimit:10;}
	.st17{opacity:0.3;fill:none;stroke:#E6E7E8;stroke-width:4;stroke-miterlimit:10;}
	.st18{fill:#FFFFFF;}
	.st19{fill:#6D6E71;}
	.st20{opacity:0.2;fill:#FFFFFF;}
	.st21{fill:#808285;}
	.st22{fill:#7DCCED;}
	.st23{opacity:0.8;fill:#FFFFFF;}
	.st24{opacity:0.3;fill:#FFFFFF;}
	.st25{fill:#FED7B7;}
	.st26{fill-rule:evenodd;clip-rule:evenodd;stroke:#FFFFFF;stroke-miterlimit:10;}
	.st27{fill:#FFDE17;}
	.st28{fill:#CB97C9;}
	.st29{fill:#85D866;}
	.st30{fill:#F5844E;}
	.st31{fill:none;stroke:#F57C00;stroke-width:3;stroke-miterlimit:10;}
	.st32{fill:#FEF9F2;}
	.st33{fill:#9DE085;}
	.st34{fill:#97D6F1;}
	.st35{fill:none;stroke:#BCBEC0;stroke-width:2;stroke-miterlimit:10;}
	.st36{fill:#F1F2F2;}
	.st37{clip-path:url(#SVGID_22_);}
	.st38{fill:#FEFEFE;}
	.st39{fill:#FDFDFD;}
	.st40{fill:#030303;}
	.st41{fill:#EFEFEF;}
	.st42{fill:#040404;}
	.st43{fill:#050505;}
	.st44{fill:#070707;}
	.st45{fill:#020202;}
	.st46{fill:#010101;}
	.st47{fill:#FBFBFB;}
	.st48{fill:#F7F7F7;}
	.st49{fill:#FAC085;}
	.st50{fill:#F15A29;}
	.st51{fill:#80D3AB;}
	.st52{fill:#77ACD7;}
	.st53{fill:none;stroke:#FFFFFF;stroke-miterlimit:10;}
	.st54{fill:none;stroke:#FFFFFF;stroke-width:3;stroke-miterlimit:10;}
	.st55{opacity:0.7;fill:#F57C00;}
	.st56{fill-rule:evenodd;clip-rule:evenodd;fill:none;}
	.st57{font-family:'BloggerSans-Medium';}
	.st58{font-size:13.2144px;}
	.st59{fill:#58595B;stroke:#58595B;stroke-width:0.2;stroke-miterlimit:10;}
	.st60{font-family:'BloggerSans-Bold';}
	.st61{font-size:12.1979px;}
	.st62{font-size:10.6732px;}
	.st63{fill:#FFFAF5;stroke:#BCBEC0;stroke-width:2;stroke-miterlimit:10;}
	.st64{font-family:'FZY3JW--GB1-0';}
	.st65{font-size:13.6732px;}
	.st66{letter-spacing:1;}
	.st67{font-size:7.1154px;}
	.st68{font-size:10.1649px;}
	.st69{fill:#B1E0F4;}
	.st70{fill:#FFEB74;}
	.st71{fill:#E0C1DF;}
	.st72{fill:none;stroke:#F57C00;stroke-width:2;stroke-miterlimit:10;}
	.st73{clip-path:url(#SVGID_48_);}
	.st74{font-size:5.9823px;}
	.st75{font-size:5.1722px;}
	.st76{font-size:4.6605px;}
	.st77{font-family:'BloggerSans-Light';}
	.st78{font-size:17.65px;}
	.st79{font-family:'BloggerSans';}
	.st80{font-size:14px;}
	.st81{font-size:16px;}
</style>
<rect y="0" class="st0" width="1280.7" height="800"/>
<g>
	<rect x="65.5" y="117.6" class="st1" width="903.8" height="564.9"/>
	<rect x="65.4" y="117.6" class="st1" width="903.1" height="564.9"/>
	<g>
		<rect x="772.2" y="169.5" class="st56" width="64.5" height="23.4"/>
		<text transform="matrix(1 0 0 1 785.4151 179.0889)" class="st2 st57 st58">ABOUT</text>
		<rect x="689.5" y="169.5" class="st56" width="86.4" height="23.4"/>
		<text transform="matrix(1 0 0 1 701.4214 179.0889)" class="st2 st57 st58">TUTORIALS</text>
		<rect x="613.8" y="169.5" class="st56" width="83.1" height="23.4"/>
		<text transform="matrix(1 0 0 1 633.0411 179.0758)" class="st59 st60 st58">CREATE</text>
		<g>
			<rect x="858.8" y="169.5" class="st4" width="83.1" height="23.4"/>
			<text transform="matrix(1 0 0 1 881.5533 178.3541)" class="st2 st57 st61">SIGN IN</text>
		</g>
		<g>
			<circle class="st4" cx="634.9" cy="174.4" r="2"/>
			<circle class="st4" cx="719.3" cy="174.4" r="2"/>
			<circle class="st4" cx="871.7" cy="174.4" r="2"/>
		</g>
	</g>
	<path class="st5" d="M128.4,155.9c-0.8-0.7-1.8-1.1-2.9-1.1c-1.2,0-2.1,0.4-2.9,1.1c-0.8,0.7-1.2,1.7-1.2,2.7c0,1.1,0.4,2,1.2,2.7
		c0.8,0.7,1.8,1.1,2.9,1.1s2.1-0.4,2.9-1.1c0.8-0.7,1.2-1.7,1.2-2.7C129.6,157.6,129.2,156.7,128.4,155.9z M127.9,164.9
		c-0.7-0.6-1.5-1-2.6-1c-1,0-1.8,0.3-2.5,1c-0.7,0.7-1,1.5-1,2.4v17.5c0,1,0.3,1.8,1,2.5c0.7,0.6,1.6,1,2.6,1c1,0,1.7-0.3,2.4-1
		c0.7-0.7,0.9-1.5,0.9-2.5v-17.5C128.8,166.3,128.6,165.5,127.9,164.9z M151.8,167.2c0-1-0.4-1.9-1.1-2.5c-0.7-0.6-1.6-0.9-2.5-0.9
		c-0.7,0-1.4,0.2-2.1,0.6c-0.7,0.4-1.2,1-1.4,1.8l-2.3,7.4c-0.3,1.1-0.6,2.3-0.8,3.4c-0.2-1.1-0.5-2.3-0.8-3.4l-2.4-7.5
		c-0.3-0.7-0.7-1.3-1.4-1.8c-0.7-0.4-1.4-0.6-2.1-0.6c-1,0-1.9,0.3-2.6,0.9c-0.8,0.6-1.3,1.5-1.3,2.5v0.4c0,0.2,0.1,0.4,0.2,0.6
		l6.2,16.9c0.4,1,0.9,1.8,1.5,2.3c0.7,0.5,1.6,0.8,2.7,0.8c1.1,0,2-0.3,2.7-0.8c0.6-0.5,1.1-1.3,1.5-2.4l6-16.8
		c0.1-0.2,0.1-0.4,0.1-0.6V167.2z M204.6,164.8c-0.8-0.6-1.6-0.9-2.5-0.9c-0.7,0-1.4,0.2-2.1,0.5c-0.7,0.4-1.2,1-1.5,1.8l-2.4,7.4
		c-0.2,0.7-0.4,1.5-0.6,2.3c-0.2-0.8-0.4-1.6-0.7-2.3l-2.8-7.5c-0.3-0.8-0.8-1.4-1.4-1.7c-0.6-0.4-1.3-0.6-2-0.6
		c-1,0-1.9,0.3-2.6,0.9c-0.8,0.6-1.1,1.4-1.1,2.4c0,0.2,0,0.4,0.1,0.6c0,0.2,0.1,0.5,0.2,0.8l6.7,17.4c-0.5,1.5-1,2.6-1.5,3.3
		c-0.5,0.6-1,0.9-1.8,0.9c-1.1,0.1-2,0.4-2.6,1.1c-0.7,0.7-1,1.4-1,2.3c0,1,0.4,1.8,1.1,2.4c0.7,0.6,1.6,0.9,2.7,0.9
		c1.8,0,3.3-0.3,4.5-1c1.2-0.7,2.2-1.6,3.1-2.8c0.8-1.1,1.5-2.5,2.1-4.1c0.6-1.5,1.2-3.2,1.8-5l5.4-15.8c0.1-0.3,0.2-0.6,0.2-1
		C205.8,166.3,205.4,165.4,204.6,164.8z M117.1,183.1c-0.3-0.3-0.8-0.5-0.8-0.5c0-0.1-0.5-0.3-0.5-0.8v-23.8c0-1,0-1.8-0.7-2.5
		c-0.7-0.6-1.4-1-2.4-1c-1,0-2,0.3-2.7,1c-0.7,0.7-1.2,1.5-1.2,2.4v24.4c0,1.3,0.3,2.3,0.6,3c0.3,0.8,0.8,1.4,1.3,1.9
		c0.5,0.5,1.1,0.7,1.7,0.9c0.5,0.1,1.1,0.2,1.6,0.2c1.2,0,2.1-0.2,2.8-0.7c0.8-0.5,1.2-1.4,1.2-2.4c0-0.6-0.1-1-0.4-1.3
		C117.6,183.6,117.4,183.3,117.1,183.1z M183.2,183.1c-0.3-0.3-0.3-0.5-0.3-0.5c0-0.1,0-0.3,0-0.8v-23.8c0-1-0.4-1.8-1.2-2.5
		c-0.7-0.6-1.6-1-2.7-1c-1,0-1.6,0.3-2.3,1c-0.7,0.7-0.8,1.5-0.8,2.4v24.4c0,1.3-0.2,2.3,0.1,3c0.3,0.8,0.6,1.4,1.1,1.9
		c0.5,0.5,1,0.7,1.6,0.9c0.5,0.1,1,0.2,1.5,0.2c1.2,0,2.1-0.2,2.8-0.7c0.8-0.5,1.2-1.4,1.2-2.4c0-0.6-0.1-1-0.4-1.3
		C183.6,183.6,183.4,183.3,183.2,183.1z M161.7,179.4c0.5,0,1.1,0.1,1.7,0.1c3.2,0,5.5-0.7,7-1.9c1.5-1.3,2.3-3.2,2.3-5.5
		c0-2.4-0.8-4.4-2.4-6c-1.6-1.5-3.9-2.3-7-2.3c-1.6,0-3.1,0.2-4.3,0.6c-1.3,0.4-2.3,1-3.2,1.8c-0.9,0.8-1.7,1.7-2.1,2.8
		c-0.4,1-0.8,2.2-0.8,3.4v7.4c0,1.2,0.4,2.3,0.8,3.3c0.5,1,1.2,1.9,2,2.7c0.8,0.8,1.9,1.4,3.2,1.8c1.2,0.4,2.6,0.6,4.2,0.6
		c0.7,0,1.6-0.1,2.6-0.2c1-0.1,2-0.3,2.9-0.7c1-0.3,1.8-0.8,2.5-1.3c0.8-0.6,1.2-1.5,1.2-2.5c0-0.3-0.1-0.7-0.2-1
		c-0.1-0.4-0.3-0.7-0.6-1c-0.3-0.3-0.6-0.6-1.1-0.8c-0.4-0.2-1-0.3-1.6-0.3c-0.5,0-0.8,0-1.1,0.1c-0.2,0.1-0.4,0.1-0.6,0.2
		c-0.7,0.3-1.3,0.5-1.8,0.7c-0.6,0.1-1.2,0.2-1.8,0.2c-1,0-1.7-0.2-2.2-0.5c-0.4-0.3-0.5-0.7-0.5-1.3v-0.7
		C161.8,179.3,161.4,179.3,161.7,179.4z M160.8,172.1c0-0.7,0.1-1.2,0.5-1.6c0.4-0.4,1-0.6,1.9-0.6c0.7,0,1.2,0.1,1.5,0.4
		c0.3,0.2,0.4,0.7,0.4,1.4c0,0.7-0.2,1.2-0.4,1.4c-0.4,0.3-0.9,0.4-1.6,0.4c-0.2,0-0.5,0-1.1,0c-0.4,0-0.2,0-1.2-0.1V172.1z
		 M230.5,158c0,0,0.2,0,0.2-0.1c0,0,0.2,0,0.2,0v0c-1-0.4-0.5-0.7-0.7-1.1c-0.2-0.2-0.5-0.4-0.7-0.6c0,0-0.1,0-0.1,0l-1.8-1.3
		c-0.1-0.1-0.2-0.2-0.4-0.3c-0.4-0.4-0.8-0.9-0.8-1.5c0-0.5,0.3-1.1,0.8-1.5c0.1-0.1,0.2-0.2,0.3-0.3l1.8-1.3c0,0,0,0,0.1,0
		c0.2-0.2,0.6-0.4,0.8-0.6c0.3-0.3-0.3-0.7,0.7-1.1v0c0-0.4-0.1-0.7-0.1-1.1c-0.1-0.7-0.4-1.4-0.8-2c-0.2-0.3-0.4-0.5-0.7-0.8
		c0,0,0,0,0,0c-0.2-0.2-0.4-0.4-0.6-0.5c0,0,0,0,0,0c-0.7-0.5-1.7-0.7-2.6-0.5c0,0,0,0,0,0c0,0,0,0,0,0c-0.4,0.1-0.8,0.2-1.1,0.5
		c0,0-2,1.5-2,1.5c-0.1,0-0.1,0.1-0.2,0.1c-0.5,0.3-1.3,0.5-1.8,0.2c-0.4-0.2-0.8-0.7-1-1.2c-0.3-0.8-0.5-1.7-0.8-2.5
		c-0.1-0.3-0.2-0.5-0.4-0.7c-0.1-0.1-0.2-0.3-0.3-0.4c-0.2-0.3-0.5-0.5-0.8-0.7c-0.3-0.2-0.6-0.3-0.9-0.4c-0.2,0-0.4,0-0.6,0
		c-0.2,0-0.4,0-0.6,0c-0.3,0-0.6,0.1-1,0.2c0,0,0,0-0.1,0c0,0,0,0,0,0c-0.5,0.2-1,0.4-1.4,0.7c0,0,0,0,0,0c-0.8,0.6-1.3,1.5-1.3,2.6
		c0,0.3,0,0.7,0.1,1l0.8,2.3c0,0.1,0.1,0.2,0.1,0.3c0.1,0.5,0,1.1-0.2,1.5c-0.3,0.6-1.1,0.8-1.8,0.8l-2.5,0c-0.4,0-0.8,0.1-1.2,0.2
		c-1,0.4-1.3,1.3-1.6,2.2c-0.1,0.4,0.2,0.9,0.2,1.3v0c0,0.4-0.3,0.9-0.2,1.3c0.3,1,0.7,1.9,1.8,2.2c0.4,0.2,0.7,0.2,1.1,0.2l2.4,0
		c0.7,0,1.3,0.2,1.7,0.8c0.2,0.4,0.3,1,0.2,1.5c0,0.1-0.1,0.2-0.1,0.3l-0.8,2.3c-0.1,0.3-0.1,0.7-0.1,1c0,1,0.5,1.9,1.3,2.6
		c0,0,0,0,0,0c0.1,0.1,0.2,0.2,0.4,0.2c0.6,0.4,1.3,0.6,2.1,0.7c0.4,0,0.8,0.1,1.2,0c0.3-0.1,0.7-0.2,0.9-0.4
		c0.3-0.2,0.6-0.4,0.8-0.7c0.1-0.1,0.2-0.3,0.3-0.4c0.1-0.2,0.3-0.4,0.4-0.7c0,0,0.7-2.3,0.7-2.3c0.2-0.5,0.5-1,1-1.3c0,0,0,0,0,0
		c0.6-0.3,1.3-0.2,1.8,0.2c0.1,0,0.1,0.1,0.2,0.1l2,1.5c0.3,0.3,0.8,0.5,1.2,0.6c0.2,0,0.4,0.2,0.5,0.2h0c0.7,0,1.4-0.3,2-0.7
		c0,0,0-0.1,0-0.1c0.1-0.1,0.3-0.2,0.4-0.4c0.2-0.2,0.4-0.4,0.6-0.6c0,0,0,0,0-0.1c0.3-0.4,0.6-0.9,0.7-1.3c0,0,0-0.1,0-0.2
		c0.1-0.2,0.1-0.5,0.1-0.7C230.6,158.7,230.6,158.3,230.5,158z"/>
	<circle class="st35" cx="150.5" cy="246.1" r="10"/>
	<circle class="st35" cx="150.5" cy="274.2" r="10"/>
	<rect x="169.7" y="242.8" class="st56" width="70.6" height="23.4"/>
	<text transform="matrix(1 0 0 1 169.6817 250.5108)" class="st7 st57 st62">PROJECTS</text>
	<g>
		<rect x="169.7" y="269.8" class="st4" width="91.8" height="23.4"/>
		<text transform="matrix(1 0 0 1 169.6817 277.5645)" class="st8 st57 st62">ACTIVE SESSIONS</text>
	</g>
	<circle class="st35" cx="150.5" cy="302.6" r="10"/>
	<g>
		<rect x="169.7" y="298.3" class="st4" width="91.8" height="23.4"/>
		<text transform="matrix(1 0 0 1 169.6817 305.9857)" class="st7 st57 st62">Users Map</text>
	</g>
	<circle class="st35" cx="912.2" cy="245.6" r="10"/>
	<path class="st9" d="M911,246.7c0.1,0.1,0.2,0.3,0.2,0.4v4.5c0,0.3,0.3,0.4,0.5,0.2l1.3-1.5c0.2-0.2,0.3-0.3,0.3-0.5v-2.8
		c0-0.2,0.1-0.3,0.2-0.4l3.6-3.9c0.3-0.3,0.1-0.8-0.3-0.8h-9c-0.4,0-0.6,0.5-0.3,0.8L911,246.7z M911,246.7"/>
	<path class="st63" d="M884.6,255.6H726.4c-5.5,0-9.9-4.4-9.9-9.9v-0.2c0-5.5,4.4-9.9,9.9-9.9h158.1c5.5,0,9.9,4.4,9.9,9.9v0.2
		C894.5,251.2,890,255.6,884.6,255.6z"/>
	<g>
		<path class="st11" d="M735.1,251.1c0.4,0.4,0.4,0.9,0,1.2c-0.4,0.3-0.9,0.3-1.2,0l-3.4-3.4c-0.9,0.6-1.9,1-3,1
			c-2.9,0-5.2-2.3-5.2-5.2c0-2.9,2.3-5.2,5.2-5.2c2.9,0,5.2,2.3,5.2,5.2c0,1.1-0.4,2.2-1,3L735.1,251.1L735.1,251.1z M727.4,248.6
			c2.2,0,4-1.8,4-4c0-2.2-1.8-4-4-4c-2.2,0-4,1.8-4,4C723.5,246.9,725.2,248.6,727.4,248.6L727.4,248.6z M727.4,248.6"/>
	</g>
	<circle class="st5" cx="150.5" cy="274.2" r="4.6"/>
	<g>
		<circle class="st12" cx="710.2" cy="416" r="32.2"/>
		<circle class="st12" cx="729.4" cy="486.8" r="32.2"/>
		<circle class="st12" cx="678" cy="530.6" r="32.2"/>
		<circle class="st12" cx="610.8" cy="518.2" r="32.2"/>
		<circle class="st12" cx="653.7" cy="369.8" r="32.2"/>
		<circle class="st12" cx="591.4" cy="392.5" r="32.2"/>
		<circle class="st13" cx="406.2" cy="490.6" r="32.2"/>
		<circle class="st14" cx="373.1" cy="389.9" r="32.2"/>
		<circle class="st14" cx="422.4" cy="295.8" r="32.2"/>
		<circle class="st14" cx="338.6" cy="276.9" r="32.2"/>
		<circle class="st14" cx="308.3" cy="336.6" r="32.2"/>
		<circle class="st13" cx="358" cy="558.8" r="32.2"/>
		<circle class="st13" cx="453.1" cy="584.1" r="32.2"/>
	</g>
	<line class="st15" x1="421.8" y1="295.8" x2="375.2" y2="332.8"/>
	<line class="st15" x1="375.2" y1="332.8" x2="372.3" y2="392.9"/>
	<line class="st15" x1="679" y1="530.6" x2="647.9" y2="450.5"/>
	<line class="st15" x1="610.8" y1="518.2" x2="647.9" y2="450.5"/>
	<line class="st15" x1="418.6" y1="547.1" x2="406.2" y2="491.8"/>
	<line class="st15" x1="375.2" y1="332.8" x2="338.1" y2="276.9"/>
	<line class="st15" x1="375.2" y1="332.8" x2="307.8" y2="336.6"/>
	<line class="st15" x1="358" y1="558.8" x2="418.6" y2="547.1"/>
	<line class="st15" x1="418.6" y1="547.1" x2="453.1" y2="584.1"/>
	<line class="st15" x1="653.7" y1="371.3" x2="647.9" y2="450.5"/>
	<line class="st15" x1="710.2" y1="416" x2="647.9" y2="450.5"/>
	<line class="st15" x1="591.4" y1="392.5" x2="647.9" y2="450.5"/>
	<line class="st15" x1="729.4" y1="486.7" x2="647.9" y2="450.5"/>
	<line class="st16" x1="499.7" y1="449.6" x2="649.4" y2="449.6"/>
	<line class="st16" x1="418.6" y1="547.1" x2="499.7" y2="449.6"/>
	<line class="st16" x1="375.2" y1="332.8" x2="499.7" y2="448.2"/>
	<line class="st17" x1="225.3" y1="486.7" x2="499.7" y2="449.6"/>
	<line class="st17" x1="521.1" y1="290.9" x2="499.7" y2="448.2"/>
	<g>
		<g>
			
				<image style="overflow:visible;opacity:0.15;" width="181" height="181" xlink:href="13EB1E5BAC371990.png"  transform="matrix(0.24 0 0 0.24 659.3281 510.9941)">
			</image>
			<g>
				<circle class="st18" cx="679" cy="530.6" r="15.6"/>
			</g>
		</g>
		<g>
			<rect x="664.4" y="525.8" class="st4" width="29.2" height="20.1"/>
			<text transform="matrix(1 0 0 1 675.4527 536.7574)" class="st19 st64 st65 st66">L</text>
		</g>
	</g>
	<g>
		<g>
			
				<image style="overflow:visible;opacity:0.1;" width="168" height="168" xlink:href="13EB1E5BAC371991.png"  transform="matrix(0.24 0 0 0.24 592.6279 500.0668)">
			</image>
			<g>
				<g>
					<g>
						<g>
							<g>
								<defs>
									<circle id="SVGID_29_" cx="610.8" cy="518.3" r="15.4"/>
								</defs>
								<clipPath id="SVGID_2_">
									<use xlink:href="#SVGID_29_"  style="overflow:visible;"/>
								</clipPath>
							</g>
						</g>
					</g>
				</g>
				<g>
					<g>
						<circle class="st18" cx="610.8" cy="518.2" r="17.2"/>
						<g>
							<circle class="st18" cx="610.8" cy="518.3" r="15.4"/>
							<g>
								<defs>
									<circle id="SVGID_31_" cx="610.8" cy="518.3" r="15.4"/>
								</defs>
								<clipPath id="SVGID_4_">
									<use xlink:href="#SVGID_31_"  style="overflow:visible;"/>
								</clipPath>
							</g>
						</g>
					</g>
					<circle class="st20" cx="610.8" cy="518.2" r="17.2"/>
				</g>
				<g>
					<g>
						<g>
							<g>
								<defs>
									<circle id="SVGID_33_" cx="610.8" cy="518.3" r="15.4"/>
								</defs>
								<clipPath id="SVGID_6_">
									<use xlink:href="#SVGID_33_"  style="overflow:visible;"/>
								</clipPath>
							</g>
						</g>
					</g>
				</g>
			</g>
		</g>
		<g>
			<rect x="596.2" y="512.6" class="st4" width="29.2" height="20.1"/>
			<text transform="matrix(1 0 0 1 605.9771 523.5567)" class="st19 st64 st65 st66">H</text>
		</g>
	</g>
	<g>
		
			<image style="overflow:visible;opacity:0.1;" width="156" height="156" xlink:href="13EB1E5BAC371997.png"  transform="matrix(0.24 0 0 0.24 637.0195 353.1198)">
		</image>
		<g>
			<g>
				<circle class="st18" cx="653.7" cy="369.8" r="15.6"/>
				<g>
					<rect x="639.1" y="364.9" class="st4" width="29.2" height="20.1"/>
					<text transform="matrix(1 0 0 1 647.7037 375.8834)" class="st19 st64 st65 st66">M</text>
				</g>
			</g>
		</g>
	</g>
	<g>
		
			<image style="overflow:visible;opacity:0.1;" width="156" height="156" xlink:href="13EB1E5BAC371992.png"  transform="matrix(0.24 0 0 0.24 321.4144 260.3039)">
		</image>
		<g>
			<g>
				<circle class="st18" cx="338.1" cy="276.9" r="15.6"/>
				<g>
					<rect x="323.5" y="272.1" class="st4" width="29.2" height="20.1"/>
					<text transform="matrix(1 0 0 1 332.0987 283.0675)" class="st19 st64 st65 st66">M</text>
				</g>
			</g>
		</g>
	</g>
	<g>
		
			<image style="overflow:visible;opacity:0.1;" width="156" height="156" xlink:href="13EB1E5BAC371993.png"  transform="matrix(0.24 0 0 0.24 405.2094 279.1497)">
		</image>
		<g>
			<g>
				<circle class="st18" cx="421.8" cy="295.8" r="15.6"/>
				<g>
					<rect x="407.3" y="290.9" class="st4" width="29.2" height="20.1"/>
					<text transform="matrix(1 0 0 1 417.0079 301.9132)" class="st19 st64 st65 st66">D</text>
				</g>
			</g>
		</g>
	</g>
	<g>
		
			<image style="overflow:visible;opacity:0.1;" width="156" height="156" xlink:href="13EB1E5BAC37199E.png"  transform="matrix(0.24 0 0 0.24 291.1932 320.0033)">
		</image>
		<g>
			<g>
				<circle class="st18" cx="307.8" cy="336.6" r="15.6"/>
				<g>
					<rect x="293.2" y="331.8" class="st4" width="29.2" height="20.1"/>
					<text transform="matrix(1 0 0 1 303.6617 342.7667)" class="st19 st64 st65 st66">C</text>
				</g>
			</g>
		</g>
	</g>
	<g>
		
			<image style="overflow:visible;opacity:0.1;" width="156" height="156" xlink:href="13EB1E5BAC37199F.png"  transform="matrix(0.24 0 0 0.24 355.9726 373.2774)">
		</image>
		<g>
			<g>
				<circle class="st18" cx="372.6" cy="389.9" r="15.6"/>
				<g>
					<rect x="358" y="385.1" class="st4" width="29.2" height="20.1"/>
					<text transform="matrix(1 0 0 1 366.3082 396.0406)" class="st19 st64 st65 st66">W</text>
				</g>
			</g>
		</g>
	</g>
	<g>
		
			<image style="overflow:visible;opacity:0.1;" width="156" height="156" xlink:href="13EB1E5BAC371994.png"  transform="matrix(0.24 0 0 0.24 389.5706 475.1526)">
		</image>
		<g>
			<g>
				<circle class="st18" cx="406.2" cy="491.8" r="15.6"/>
				<g>
					<rect x="391.6" y="487" class="st4" width="29.2" height="20.1"/>
					<text transform="matrix(1 0 0 1 402.5108 497.9156)" class="st19 st64 st65 st66">T</text>
				</g>
			</g>
		</g>
	</g>
	<g>
		
			<image style="overflow:visible;opacity:0.1;" width="156" height="156" xlink:href="13EB1E5BAC371995.png"  transform="matrix(0.24 0 0 0.24 341.3901 542.1786)">
		</image>
		<g>
			<g>
				<circle class="st18" cx="358" cy="558.8" r="15.6"/>
				<g>
					<rect x="343.4" y="554" class="st4" width="29.2" height="20.1"/>
					<text transform="matrix(1 0 0 1 353.9131 564.942)" class="st19 st64 st65 st66">K</text>
				</g>
			</g>
		</g>
	</g>
	<g>
		
			<image style="overflow:visible;opacity:0.1;" width="156" height="156" xlink:href="E0FB633FE3F6B22F.png"  transform="matrix(0.24 0 0 0.24 436.4868 567.4845)">
		</image>
		<g>
			<g>
				<circle class="st18" cx="453.1" cy="584.1" r="15.6"/>
				<g>
					<rect x="438.5" y="579.3" class="st4" width="29.2" height="20.1"/>
					<text transform="matrix(1 0 0 1 448.1553 590.2481)" class="st19 st64 st65 st66">O</text>
				</g>
			</g>
		</g>
	</g>
	<g>
		
			<image style="overflow:visible;opacity:0.1;" width="156" height="156" xlink:href="E0FB633FE3F6B22D.png"  transform="matrix(0.24 0 0 0.24 693.6056 397.551)">
		</image>
		<g>
			<g>
				<circle class="st18" cx="710.2" cy="414.2" r="15.6"/>
				<g>
					<rect x="695.7" y="409.3" class="st4" width="29.2" height="20.1"/>
					<text transform="matrix(1 0 0 1 705.7256 420.3145)" class="st21 st64 st65 st66">A</text>
				</g>
			</g>
		</g>
	</g>
	<g>
		<circle class="st19" cx="521.1" cy="290.4" r="17.3"/>
		<g>
			<g>
				<path class="st18" d="M529.4,287.3c0.9,0,1.6-0.7,1.6-1.6v-2.1c0-0.9-0.7-1.6-1.6-1.6h-16.6c-0.9,0-1.6,0.7-1.6,1.6v2.1
					c0,0.9,0.7,1.6,1.6,1.6h7.4v0.4h-7.4c-0.9,0-1.6,0.7-1.6,1.6v2.1c0,0.9,0.7,1.6,1.6,1.6h7.4v0.4h-7.4c-0.9,0-1.6,0.7-1.6,1.6
					v2.1c0,0.9,0.7,1.6,1.6,1.6h16.6c0.9,0,1.6-0.7,1.6-1.6v-2.1c0-0.9-0.7-1.6-1.6-1.6H522v-0.4h7.3c0.9,0,1.6-0.7,1.6-1.6v-2.1
					c0-0.9-0.7-1.6-1.6-1.6H522v-0.4H529.4z M512,285.6v-2.1c0-0.5,0.4-0.9,0.8-0.9h16.6c0.5,0,0.8,0.4,0.8,0.9v2.1
					c0,0.5-0.4,0.9-0.8,0.9h-16.6C512.4,286.5,512,286.1,512,285.6L512,285.6z M530.2,295.1v2.1c0,0.5-0.4,0.9-0.8,0.9h-16.6
					c-0.5,0-0.8-0.4-0.8-0.9v-2.1c0-0.5,0.4-0.9,0.8-0.9h16.6C529.8,294.3,530.2,294.7,530.2,295.1L530.2,295.1z M521.3,293.5h-0.4
					v-0.4h0.4V293.5z M530.2,289.3v2.1c0,0.5-0.4,0.9-0.8,0.9h-16.6c-0.5,0-0.8-0.4-0.8-0.9v-2.1c0-0.5,0.4-0.9,0.8-0.9h16.6
					C529.8,288.4,530.2,288.8,530.2,289.3L530.2,289.3z M521.3,287.7h-0.4v-0.4h0.4V287.7z M521.3,287.7"/>
			</g>
			<g>
				<circle class="st18" cx="513.8" cy="284.6" r="0.6"/>
				<circle class="st18" cx="525.7" cy="284.6" r="0.6"/>
				<circle class="st18" cx="528.3" cy="284.6" r="0.6"/>
				<g>
					<circle class="st18" cx="523" cy="284.6" r="0.6"/>
					<circle class="st18" cx="516.7" cy="284.6" r="0.6"/>
					<rect x="516.7" y="284.1" class="st18" width="6.3" height="1.1"/>
				</g>
			</g>
			<g>
				<circle class="st18" cx="513.8" cy="290.4" r="0.6"/>
				<circle class="st18" cx="525.7" cy="290.4" r="0.6"/>
				<circle class="st18" cx="528.3" cy="290.4" r="0.6"/>
				<g>
					<circle class="st18" cx="523" cy="290.4" r="0.6"/>
					<circle class="st18" cx="516.7" cy="290.4" r="0.6"/>
					<rect x="516.7" y="289.8" class="st18" width="6.3" height="1.1"/>
				</g>
			</g>
			<g>
				<circle class="st18" cx="513.8" cy="296.3" r="0.6"/>
				<circle class="st18" cx="525.7" cy="296.3" r="0.6"/>
				<circle class="st18" cx="528.3" cy="296.3" r="0.6"/>
				<g>
					<circle class="st18" cx="523" cy="296.3" r="0.6"/>
					<circle class="st18" cx="516.7" cy="296.3" r="0.6"/>
					<rect x="516.7" y="295.7" class="st18" width="6.3" height="1.1"/>
				</g>
			</g>
		</g>
	</g>
	<g>
		<circle class="st19" cx="647.9" cy="450.5" r="17.3"/>
		<g>
			<g>
				<path class="st18" d="M656.2,447.4c0.9,0,1.6-0.7,1.6-1.6v-2.1c0-0.9-0.7-1.6-1.6-1.6h-16.6c-0.9,0-1.6,0.7-1.6,1.6v2.1
					c0,0.9,0.7,1.6,1.6,1.6h7.4v0.4h-7.4c-0.9,0-1.6,0.7-1.6,1.6v2.1c0,0.9,0.7,1.6,1.6,1.6h7.4v0.4h-7.4c-0.9,0-1.6,0.7-1.6,1.6
					v2.1c0,0.9,0.7,1.6,1.6,1.6h16.6c0.9,0,1.6-0.7,1.6-1.6v-2.1c0-0.9-0.7-1.6-1.6-1.6h-7.3v-0.4h7.3c0.9,0,1.6-0.7,1.6-1.6v-2.1
					c0-0.9-0.7-1.6-1.6-1.6h-7.3v-0.4H656.2z M638.8,445.7v-2.1c0-0.5,0.4-0.9,0.8-0.9h16.6c0.5,0,0.8,0.4,0.8,0.9v2.1
					c0,0.5-0.4,0.9-0.8,0.9h-16.6C639.2,446.6,638.8,446.2,638.8,445.7L638.8,445.7z M657.1,455.2v2.1c0,0.5-0.4,0.9-0.8,0.9h-16.6
					c-0.5,0-0.8-0.4-0.8-0.9v-2.1c0-0.5,0.4-0.9,0.8-0.9h16.6C656.7,454.4,657.1,454.7,657.1,455.2L657.1,455.2z M648.1,453.6h-0.4
					v-0.4h0.4V453.6z M657.1,449.4v2.1c0,0.5-0.4,0.9-0.8,0.9h-16.6c-0.5,0-0.8-0.4-0.8-0.9v-2.1c0-0.5,0.4-0.9,0.8-0.9h16.6
					C656.7,448.5,657.1,448.9,657.1,449.4L657.1,449.4z M648.1,447.8h-0.4v-0.4h0.4V447.8z M648.1,447.8"/>
			</g>
			<g>
				<circle class="st18" cx="640.7" cy="444.7" r="0.6"/>
				<circle class="st18" cx="652.6" cy="444.7" r="0.6"/>
				<circle class="st18" cx="655.2" cy="444.7" r="0.6"/>
				<g>
					<circle class="st18" cx="649.9" cy="444.7" r="0.6"/>
					<circle class="st18" cx="643.6" cy="444.7" r="0.6"/>
					<rect x="643.6" y="444.1" class="st18" width="6.3" height="1.1"/>
				</g>
			</g>
			<g>
				<circle class="st18" cx="640.7" cy="450.5" r="0.6"/>
				<circle class="st18" cx="652.6" cy="450.5" r="0.6"/>
				<circle class="st18" cx="655.2" cy="450.5" r="0.6"/>
				<g>
					<circle class="st18" cx="649.9" cy="450.5" r="0.6"/>
					<circle class="st18" cx="643.6" cy="450.5" r="0.6"/>
					<rect x="643.6" y="449.9" class="st18" width="6.3" height="1.1"/>
				</g>
			</g>
			<g>
				<circle class="st18" cx="640.7" cy="456.4" r="0.6"/>
				<circle class="st18" cx="652.6" cy="456.4" r="0.6"/>
				<circle class="st18" cx="655.2" cy="456.4" r="0.6"/>
				<g>
					<circle class="st18" cx="649.9" cy="456.4" r="0.6"/>
					<circle class="st18" cx="643.6" cy="456.4" r="0.6"/>
					<rect x="643.6" y="455.8" class="st18" width="6.3" height="1.1"/>
				</g>
			</g>
		</g>
	</g>
	<g>
		
			<image style="overflow:visible;opacity:0.1;" width="168" height="168" xlink:href="E0FB633FE3F6B22B.png"  transform="matrix(0.24 0 0 0.24 711.2926 468.5891)">
		</image>
		<g>
			<g>
				<g>
					<g>
						<defs>
							<circle id="SVGID_35_" cx="729.4" cy="486.8" r="15.4"/>
						</defs>
						<clipPath id="SVGID_8_">
							<use xlink:href="#SVGID_35_"  style="overflow:visible;"/>
						</clipPath>
					</g>
				</g>
			</g>
			<g>
				<g>
					<circle class="st18" cx="729.4" cy="486.7" r="17.2"/>
					<g>
						<defs>
							<circle id="SVGID_37_" cx="729.4" cy="486.8" r="15.4"/>
						</defs>
						<clipPath id="SVGID_10_">
							<use xlink:href="#SVGID_37_"  style="overflow:visible;"/>
						</clipPath>
						<g style="clip-path:url(#SVGID_10_);">
							
								<image style="overflow:visible;" width="384" height="384" xlink:href="E0FB633FE3F6B225.png"  transform="matrix(8.039377e-02 0 0 8.039377e-02 714.0125 471.3394)">
							</image>
						</g>
					</g>
				</g>
				<circle class="st20" cx="729.4" cy="486.7" r="17.2"/>
			</g>
			<g>
				<g>
					<g>
						<defs>
							<circle id="SVGID_39_" cx="729.4" cy="486.8" r="15.4"/>
						</defs>
						<clipPath id="SVGID_12_">
							<use xlink:href="#SVGID_39_"  style="overflow:visible;"/>
						</clipPath>
					</g>
				</g>
			</g>
		</g>
	</g>
	<g>
		<path class="st22" d="M680,455.1h-15.3c-2.3,0-4.2-1.9-4.2-4.2v-0.1c0-2.3,1.9-4.2,4.2-4.2H680c2.3,0,4.2,1.9,4.2,4.2v0.1
			C684.2,453.2,682.4,455.1,680,455.1z"/>
		<rect x="658.6" y="448.2" class="st4" width="27.6" height="7.3"/>
		<text transform="matrix(1 0 0 1 664.3345 453.859)" class="st18 st64 st67">CDM</text>
	</g>
	<g>
		<circle class="st22" cx="624.7" cy="451.2" r="4.2"/>
		<rect x="610.8" y="446.2" class="st4" width="27.6" height="8.5"/>
		<text transform="matrix(1 0 0 1 622.8609 454.3512)" class="st18 st64 st68 st66">-</text>
	</g>
	<circle class="st23" cx="710.2" cy="414.2" r="15.7"/>
	<circle class="st24" cx="729.4" cy="486.8" r="15.7"/>
	<g>
		<g>
			
				<image style="overflow:visible;opacity:0.1;" width="168" height="168" xlink:href="E0FB633FE3F6B227.png"  transform="matrix(0.24 0 0 0.24 573.2375 374.3395)">
			</image>
			<g>
				<g>
					<g>
						<g>
							<defs>
								<circle id="SVGID_41_" cx="591.4" cy="392.5" r="15.4"/>
							</defs>
							<clipPath id="SVGID_14_">
								<use xlink:href="#SVGID_41_"  style="overflow:visible;"/>
							</clipPath>
						</g>
					</g>
				</g>
				<g>
					<g>
						<circle class="st18" cx="591.4" cy="392.5" r="17.2"/>
						<g>
							<defs>
								<circle id="SVGID_43_" cx="591.4" cy="392.5" r="15.4"/>
							</defs>
							<clipPath id="SVGID_16_">
								<use xlink:href="#SVGID_43_"  style="overflow:visible;"/>
							</clipPath>
							<g style="clip-path:url(#SVGID_16_);">
								
									<image style="overflow:visible;" width="384" height="386" xlink:href="E0FB633FE3F6B23A.png"  transform="matrix(7.997722e-02 0 0 7.997722e-02 576.0374 377.0899)">
								</image>
							</g>
						</g>
					</g>
					<circle class="st20" cx="591.4" cy="392.5" r="17.2"/>
				</g>
				<g>
					<g>
						<g>
							<defs>
								<circle id="SVGID_45_" cx="591.4" cy="392.5" r="15.4"/>
							</defs>
							<clipPath id="SVGID_18_">
								<use xlink:href="#SVGID_45_"  style="overflow:visible;"/>
							</clipPath>
						</g>
					</g>
				</g>
			</g>
		</g>
		<circle class="st24" cx="591.4" cy="392.5" r="15.7"/>
	</g>
	<rect x="697.1" y="412" class="st4" width="26.3" height="7.9"/>
	<text transform="matrix(1 0 0 1 700.0128 417.7428)" class="st19 st64 st67">Alexia</text>
	<g>
		
			<image style="overflow:visible;opacity:5.000000e-02;" width="66" height="66" xlink:href="E0FB633FE3F6B23B.png"  transform="matrix(0.24 0 0 0.24 572.5857 355.3387)">
		</image>
		<g>
			<circle class="st69" cx="579.5" cy="362.3" r="4.9"/>
		</g>
	</g>
	<g>
		
			<image style="overflow:visible;opacity:5.000000e-02;" width="66" height="66" xlink:href="E0FB633FE3F6B23D.png"  transform="matrix(0.24 0 0 0.24 414.9351 256.6485)">
		</image>
		<g>
			<circle class="st70" cx="421.8" cy="263.6" r="4.9"/>
		</g>
	</g>
	<g>
		
			<image style="overflow:visible;opacity:5.000000e-02;" width="66" height="66" xlink:href="E0FB633FE3F6B23F.png"  transform="matrix(0.24 0 0 0.24 298.9131 265.1886)">
		</image>
		<g>
			<circle class="st70" cx="305.8" cy="272.1" r="4.9"/>
		</g>
	</g>
	<g>
		
			<image style="overflow:visible;opacity:5.000000e-02;" width="66" height="66" xlink:href="E0FB633FE3F6B238.png"  transform="matrix(0.24 0 0 0.24 552.2529 381.7483)">
		</image>
		<g>
			<circle class="st69" cx="559.2" cy="388.7" r="4.9"/>
		</g>
	</g>
	<g>
		
			<image style="overflow:visible;opacity:5.000000e-02;" width="66" height="66" xlink:href="E0FB633FE3F6B25E.png"  transform="matrix(0.24 0 0 0.24 383.6576 409.3579)">
		</image>
		<g>
			<circle class="st70" cx="390.6" cy="416.3" r="4.9"/>
		</g>
	</g>
	<g>
		
			<image style="overflow:visible;opacity:5.000000e-02;" width="66" height="66" xlink:href="E0FB633FE3F6B25D.png"  transform="matrix(0.24 0 0 0.24 582.4117 417.8088)">
		</image>
		<g>
			<circle class="st69" cx="589.3" cy="424.7" r="4.9"/>
		</g>
	</g>
	<g>
		
			<image style="overflow:visible;opacity:5.000000e-02;" width="66" height="66" xlink:href="E0FB633FE3F6B25A.png"  transform="matrix(0.24 0 0 0.24 308.7392 360.2517)">
		</image>
		<g>
			<circle class="st70" cx="315.7" cy="367.2" r="4.9"/>
		</g>
	</g>
	<g>
		
			<image style="overflow:visible;opacity:5.000000e-02;" width="66" height="66" xlink:href="E0FB633FE3F6B255.png"  transform="matrix(0.24 0 0 0.24 643.1112 330.6186)">
		</image>
		<g>
			<circle class="st69" cx="650" cy="337.5" r="4.9"/>
		</g>
	</g>
	<g>
		
			<image style="overflow:visible;opacity:5.000000e-02;" width="66" height="66" xlink:href="E0FB633FE3F6B256.png"  transform="matrix(0.24 0 0 0.24 720.2187 381.7483)">
		</image>
		<g>
			<circle class="st69" cx="727.1" cy="388.7" r="4.9"/>
		</g>
	</g>
	<g>
		
			<image style="overflow:visible;opacity:5.000000e-02;" width="83" height="83" xlink:href="E0FB633FE3F6B254.png"  transform="matrix(0.24 0 0 0.24 732.7554 412.7131)">
		</image>
		<g>
			<circle class="st18" cx="741.7" cy="421.7" r="6.9"/>
		</g>
	</g>
	<g>
		
			<image style="overflow:visible;opacity:5.000000e-02;" width="83" height="83" xlink:href="E0FB633FE3F6B24A.png"  transform="matrix(0.24 0 0 0.24 732.7554 412.7131)">
		</image>
		<g>
			<circle class="st69" cx="741.7" cy="421.7" r="6.9"/>
		</g>
	</g>
	<g>
		
			<image style="overflow:visible;opacity:5.000000e-02;" width="66" height="66" xlink:href="E0FB633FE3F6B24D.png"  transform="matrix(0.24 0 0 0.24 696.8934 544.2715)">
		</image>
		<g>
			<circle class="st69" cx="703.8" cy="551.2" r="4.9"/>
		</g>
	</g>
	<g>
		
			<image style="overflow:visible;opacity:5.000000e-02;" width="66" height="66" xlink:href="E0FB633FE3F6B24E.png"  transform="matrix(0.24 0 0 0.24 452.2684 609.4371)">
		</image>
		<g>
			<circle class="st71" cx="459.2" cy="616.4" r="4.9"/>
		</g>
	</g>
	<g>
		
			<image style="overflow:visible;opacity:5.000000e-02;" width="66" height="66" xlink:href="E0FB633FE3F6B24C.png"  transform="matrix(0.24 0 0 0.24 726.984 431.224)">
		</image>
		<g>
			<circle class="st69" cx="733.9" cy="438.1" r="4.9"/>
		</g>
	</g>
	<g>
		
			<image style="overflow:visible;opacity:5.000000e-02;" width="66" height="66" xlink:href="E0FB633FE3F6B271.png"  transform="matrix(0.24 0 0 0.24 752.5603 491.4928)">
		</image>
		<g>
			<circle class="st69" cx="759.5" cy="498.4" r="4.9"/>
		</g>
	</g>
	<g>
		
			<image style="overflow:visible;opacity:5.000000e-02;" width="66" height="66" xlink:href="E0FB633FE3F6B26F.png"  transform="matrix(0.24 0 0 0.24 710.2926 441.1499)">
		</image>
		<g>
			<circle class="st69" cx="717.2" cy="448.1" r="4.9"/>
		</g>
	</g>
	<g>
		
			<image style="overflow:visible;opacity:5.000000e-02;" width="66" height="66" xlink:href="E0FB633FE3F6B251.png"  transform="matrix(0.24 0 0 0.24 318.8889 550.3914)">
		</image>
		<g>
			<circle class="st71" cx="325.8" cy="557.3" r="4.9"/>
		</g>
	</g>
	<g>
		
			<image style="overflow:visible;opacity:5.000000e-02;" width="66" height="66" xlink:href="E0FB633FE3F6B253.png"  transform="matrix(0.24 0 0 0.24 744.2209 456.2529)">
		</image>
		<g>
			<circle class="st69" cx="751.1" cy="463.2" r="4.9"/>
		</g>
	</g>
	<g>
		
			<image style="overflow:visible;opacity:5.000000e-02;" width="66" height="66" xlink:href="E0FB633FE3F6B250.png"  transform="matrix(0.24 0 0 0.24 732.7554 396.551)">
		</image>
		<g>
			<circle class="st69" cx="739.7" cy="403.5" r="4.9"/>
		</g>
	</g>
	<g>
		
			<image style="overflow:visible;opacity:5.000000e-02;" width="66" height="66" xlink:href="E0FB633FE3F6B257.png"  transform="matrix(0.24 0 0 0.24 586.7148 537.1757)">
		</image>
		<g>
			<circle class="st69" cx="593.6" cy="544.1" r="4.9"/>
		</g>
	</g>
	<g>
		
			<image style="overflow:visible;opacity:5.000000e-02;" width="66" height="66" xlink:href="E0FB633FE3F6B252.png"  transform="matrix(0.24 0 0 0.24 358.9599 519.6774)">
		</image>
		<g>
			<circle class="st71" cx="365.9" cy="526.6" r="4.9"/>
		</g>
	</g>
	<g>
		
			<image style="overflow:visible;opacity:5.000000e-02;" width="66" height="66" xlink:href="E0FB633FE3F6B25F.png"  transform="matrix(0.24 0 0 0.24 579.5668 491.4928)">
		</image>
		<g>
			<circle class="st69" cx="586.5" cy="498.4" r="4.9"/>
		</g>
	</g>
	<g>
		
			<image style="overflow:visible;opacity:5.000000e-02;" width="66" height="66" xlink:href="E0FB633FE3F6B25C.png"  transform="matrix(0.24 0 0 0.24 414.9351 455.4373)">
		</image>
		<g>
			<circle class="st71" cx="421.8" cy="462.4" r="4.9"/>
		</g>
	</g>
	<g>
		
			<image style="overflow:visible;opacity:5.000000e-02;" width="66" height="66" xlink:href="E0FB633FE3F6B248.png"  transform="matrix(0.24 0 0 0.24 699.6041 376.8353)">
		</image>
		<g>
			<circle class="st69" cx="706.5" cy="383.7" r="4.9"/>
		</g>
	</g>
	<g>
		
			<image style="overflow:visible;opacity:5.000000e-02;" width="66" height="66" xlink:href="E0FB633FE3F6B2BC.png"  transform="matrix(0.24 0 0 0.24 681.4109 385.5818)">
		</image>
		<g>
			<circle class="st69" cx="688.3" cy="392.5" r="4.9"/>
		</g>
	</g>
	<g>
		<path class="st26" d="M741.7,422.1v8.4l2.5-1.1l1.7,3.9l1.4-0.7l-1.7-3.9l2.4-1.1L741.7,422.1z M741.7,422.1"/>
	</g>
	<g>
		<circle class="st19" cx="375.2" cy="331.8" r="17.3"/>
		<g>
			<g>
				<path class="st18" d="M383.5,328.7c0.9,0,1.6-0.7,1.6-1.6v-2.1c0-0.9-0.7-1.6-1.6-1.6h-16.6c-0.9,0-1.6,0.7-1.6,1.6v2.1
					c0,0.9,0.7,1.6,1.6,1.6h7.4v0.4h-7.4c-0.9,0-1.6,0.7-1.6,1.6v2.1c0,0.9,0.7,1.6,1.6,1.6h7.4v0.4h-7.4c-0.9,0-1.6,0.7-1.6,1.6
					v2.1c0,0.9,0.7,1.6,1.6,1.6h16.6c0.9,0,1.6-0.7,1.6-1.6v-2.1c0-0.9-0.7-1.6-1.6-1.6h-7.3v-0.4h7.3c0.9,0,1.6-0.7,1.6-1.6v-2.1
					c0-0.9-0.7-1.6-1.6-1.6h-7.3v-0.4H383.5z M366.1,327v-2.1c0-0.5,0.4-0.9,0.8-0.9h16.6c0.5,0,0.8,0.4,0.8,0.9v2.1
					c0,0.5-0.4,0.9-0.8,0.9h-16.6C366.5,327.9,366.1,327.5,366.1,327L366.1,327z M384.3,336.6v2.1c0,0.5-0.4,0.9-0.8,0.9h-16.6
					c-0.5,0-0.8-0.4-0.8-0.9v-2.1c0-0.5,0.4-0.9,0.8-0.9h16.6C384,335.7,384.3,336.1,384.3,336.6L384.3,336.6z M375.4,334.9H375
					v-0.4h0.4V334.9z M384.3,330.7v2.1c0,0.5-0.4,0.9-0.8,0.9h-16.6c-0.5,0-0.8-0.4-0.8-0.9v-2.1c0-0.5,0.4-0.9,0.8-0.9h16.6
					C384,329.9,384.3,330.3,384.3,330.7L384.3,330.7z M375.4,329.1H375v-0.4h0.4V329.1z M375.4,329.1"/>
			</g>
			<g>
				<circle class="st18" cx="368" cy="326" r="0.6"/>
				<circle class="st18" cx="379.9" cy="326" r="0.6"/>
				<circle class="st18" cx="382.5" cy="326" r="0.6"/>
				<g>
					<circle class="st18" cx="377.2" cy="326" r="0.6"/>
					<circle class="st18" cx="370.9" cy="326" r="0.6"/>
					<rect x="370.9" y="325.5" class="st18" width="6.3" height="1.1"/>
				</g>
			</g>
			<g>
				<circle class="st18" cx="368" cy="331.8" r="0.6"/>
				<circle class="st18" cx="379.9" cy="331.8" r="0.6"/>
				<circle class="st18" cx="382.5" cy="331.8" r="0.6"/>
				<g>
					<circle class="st18" cx="377.2" cy="331.8" r="0.6"/>
					<circle class="st18" cx="370.9" cy="331.8" r="0.6"/>
					<rect x="370.9" y="331.2" class="st18" width="6.3" height="1.1"/>
				</g>
			</g>
			<g>
				<circle class="st18" cx="368" cy="337.7" r="0.6"/>
				<circle class="st18" cx="379.9" cy="337.7" r="0.6"/>
				<circle class="st18" cx="382.5" cy="337.7" r="0.6"/>
				<g>
					<circle class="st18" cx="377.2" cy="337.7" r="0.6"/>
					<circle class="st18" cx="370.9" cy="337.7" r="0.6"/>
					<rect x="370.9" y="337.1" class="st18" width="6.3" height="1.1"/>
				</g>
			</g>
		</g>
	</g>
	<g>
		<path class="st27" d="M408.6,337h-15.3c-2.3,0-4.2-1.9-4.2-4.2v-0.1c0-2.3,1.9-4.2,4.2-4.2h15.3c2.3,0,4.2,1.9,4.2,4.2v0.1
			C412.8,335.1,411,337,408.6,337z"/>
		<g>
			<rect x="387.2" y="330.1" class="st4" width="27.6" height="6.5"/>
			<text transform="matrix(1 0 0 1 394.1592 335.7574)" class="st19 st64 st67">MIT</text>
		</g>
	</g>
	<g>
		<circle class="st19" cx="418.6" cy="547.1" r="17.3"/>
		<g>
			<g>
				<path class="st18" d="M426.9,544c0.9,0,1.6-0.7,1.6-1.6v-2.1c0-0.9-0.7-1.6-1.6-1.6h-16.6c-0.9,0-1.6,0.7-1.6,1.6v2.1
					c0,0.9,0.7,1.6,1.6,1.6h7.4v0.4h-7.4c-0.9,0-1.6,0.7-1.6,1.6v2.1c0,0.9,0.7,1.6,1.6,1.6h7.4v0.4h-7.4c-0.9,0-1.6,0.7-1.6,1.6
					v2.1c0,0.9,0.7,1.6,1.6,1.6h16.6c0.9,0,1.6-0.7,1.6-1.6v-2.1c0-0.9-0.7-1.6-1.6-1.6h-7.3v-0.4h7.3c0.9,0,1.6-0.7,1.6-1.6v-2.1
					c0-0.9-0.7-1.6-1.6-1.6h-7.3V544H426.9z M409.5,542.4v-2.1c0-0.5,0.4-0.9,0.8-0.9h16.6c0.5,0,0.8,0.4,0.8,0.9v2.1
					c0,0.5-0.4,0.9-0.8,0.9h-16.6C409.9,543.3,409.5,542.9,409.5,542.4L409.5,542.4z M427.7,551.9v2.1c0,0.5-0.4,0.9-0.8,0.9h-16.6
					c-0.5,0-0.8-0.4-0.8-0.9v-2.1c0-0.5,0.4-0.9,0.8-0.9h16.6C427.4,551,427.7,551.4,427.7,551.9L427.7,551.9z M418.8,550.2h-0.4
					v-0.4h0.4V550.2z M427.7,546.1v2.1c0,0.5-0.4,0.9-0.8,0.9h-16.6c-0.5,0-0.8-0.4-0.8-0.9v-2.1c0-0.5,0.4-0.9,0.8-0.9h16.6
					C427.4,545.2,427.7,545.6,427.7,546.1L427.7,546.1z M418.8,544.4h-0.4V544h0.4V544.4z M418.8,544.4"/>
			</g>
			<g>
				<circle class="st18" cx="411.4" cy="541.4" r="0.6"/>
				<circle class="st18" cx="423.3" cy="541.4" r="0.6"/>
				<circle class="st18" cx="425.9" cy="541.4" r="0.6"/>
				<g>
					<circle class="st18" cx="420.6" cy="541.4" r="0.6"/>
					<circle class="st18" cx="414.3" cy="541.4" r="0.6"/>
					<rect x="414.3" y="540.8" class="st18" width="6.3" height="1.1"/>
				</g>
			</g>
			<g>
				<circle class="st18" cx="411.4" cy="547.1" r="0.6"/>
				<circle class="st18" cx="423.3" cy="547.1" r="0.6"/>
				<circle class="st18" cx="425.9" cy="547.1" r="0.6"/>
				<g>
					<circle class="st18" cx="420.6" cy="547.1" r="0.6"/>
					<circle class="st18" cx="414.3" cy="547.1" r="0.6"/>
					<rect x="414.3" y="546.6" class="st18" width="6.3" height="1.1"/>
				</g>
			</g>
			<g>
				<circle class="st18" cx="411.4" cy="553" r="0.6"/>
				<circle class="st18" cx="423.3" cy="553" r="0.6"/>
				<circle class="st18" cx="425.9" cy="553" r="0.6"/>
				<g>
					<circle class="st18" cx="420.6" cy="553" r="0.6"/>
					<circle class="st18" cx="414.3" cy="553" r="0.6"/>
					<rect x="414.3" y="552.5" class="st18" width="6.3" height="1.1"/>
				</g>
			</g>
		</g>
	</g>
	<g>
		<path class="st28" d="M452.2,551.9H437c-2.3,0-4.2-1.9-4.2-4.2v-0.1c0-2.3,1.9-4.2,4.2-4.2h15.3c2.3,0,4.2,1.9,4.2,4.2v0.1
			C456.4,550.1,454.5,551.9,452.2,551.9z"/>
		<rect x="430.8" y="545" class="st4" width="27.6" height="6.5"/>
		<text transform="matrix(1 0 0 1 438.7584 550.689)" class="st18 st64 st67">ITP</text>
	</g>
	<g>
		<path class="st29" d="M553.4,294.6h-15.3c-2.3,0-4.2-1.9-4.2-4.2v-0.1c0-2.3,1.9-4.2,4.2-4.2h15.3c2.3,0,4.2,1.9,4.2,4.2v0.1
			C557.6,292.7,555.7,294.6,553.4,294.6z"/>
		<rect x="531.9" y="287.7" class="st4" width="27.6" height="6.5"/>
		<text transform="matrix(1 0 0 1 538.0792 293.3678)" class="st18 st64 st67">UBC</text>
	</g>
	<g>
		<circle class="st19" cx="224.9" cy="486.7" r="17.3"/>
		<g>
			<g>
				<path class="st18" d="M233.2,483.6c0.9,0,1.6-0.7,1.6-1.6v-2.1c0-0.9-0.7-1.6-1.6-1.6h-16.6c-0.9,0-1.6,0.7-1.6,1.6v2.1
					c0,0.9,0.7,1.6,1.6,1.6h7.4v0.4h-7.4c-0.9,0-1.6,0.7-1.6,1.6v2.1c0,0.9,0.7,1.6,1.6,1.6h7.4v0.4h-7.4c-0.9,0-1.6,0.7-1.6,1.6
					v2.1c0,0.9,0.7,1.6,1.6,1.6h16.6c0.9,0,1.6-0.7,1.6-1.6v-2.1c0-0.9-0.7-1.6-1.6-1.6h-7.3v-0.4h7.3c0.9,0,1.6-0.7,1.6-1.6v-2.1
					c0-0.9-0.7-1.6-1.6-1.6h-7.3v-0.4H233.2z M215.8,481.9v-2.1c0-0.5,0.4-0.9,0.8-0.9h16.6c0.5,0,0.8,0.4,0.8,0.9v2.1
					c0,0.5-0.4,0.9-0.8,0.9h-16.6C216.2,482.8,215.8,482.4,215.8,481.9L215.8,481.9z M234,491.4v2.1c0,0.5-0.4,0.9-0.8,0.9h-16.6
					c-0.5,0-0.8-0.4-0.8-0.9v-2.1c0-0.5,0.4-0.9,0.8-0.9h16.6C233.6,490.6,234,491,234,491.4L234,491.4z M225.1,489.8h-0.4v-0.4h0.4
					V489.8z M234,485.6v2.1c0,0.5-0.4,0.9-0.8,0.9h-16.6c-0.5,0-0.8-0.4-0.8-0.9v-2.1c0-0.5,0.4-0.9,0.8-0.9h16.6
					C233.6,484.7,234,485.1,234,485.6L234,485.6z M225.1,484h-0.4v-0.4h0.4V484z M225.1,484"/>
			</g>
			<g>
				<circle class="st18" cx="217.7" cy="480.9" r="0.6"/>
				<circle class="st18" cx="229.5" cy="480.9" r="0.6"/>
				<circle class="st18" cx="232.1" cy="480.9" r="0.6"/>
				<g>
					<circle class="st18" cx="226.8" cy="480.9" r="0.6"/>
					<circle class="st18" cx="220.5" cy="480.9" r="0.6"/>
					<rect x="220.5" y="480.4" class="st18" width="6.3" height="1.1"/>
				</g>
			</g>
			<g>
				<circle class="st18" cx="217.7" cy="486.7" r="0.6"/>
				<circle class="st18" cx="229.5" cy="486.7" r="0.6"/>
				<circle class="st18" cx="232.1" cy="486.7" r="0.6"/>
				<g>
					<circle class="st18" cx="226.8" cy="486.7" r="0.6"/>
					<circle class="st18" cx="220.5" cy="486.7" r="0.6"/>
					<rect x="220.5" y="486.1" class="st18" width="6.3" height="1.1"/>
				</g>
			</g>
			<g>
				<circle class="st18" cx="217.7" cy="492.6" r="0.6"/>
				<circle class="st18" cx="229.5" cy="492.6" r="0.6"/>
				<circle class="st18" cx="232.1" cy="492.6" r="0.6"/>
				<g>
					<circle class="st18" cx="226.8" cy="492.6" r="0.6"/>
					<circle class="st18" cx="220.5" cy="492.6" r="0.6"/>
					<rect x="220.5" y="492" class="st18" width="6.3" height="1.1"/>
				</g>
			</g>
		</g>
	</g>
	<g>
		<path class="st30" d="M256.2,491.1h-15.3c-2.3,0-4.2-1.9-4.2-4.2v-0.1c0-2.3,1.9-4.2,4.2-4.2h15.3c2.3,0,4.2,1.9,4.2,4.2v0.1
			C260.4,489.2,258.5,491.1,256.2,491.1z"/>
		<g>
			<rect x="234.8" y="484.1" class="st4" width="27.6" height="6.5"/>
			<text transform="matrix(1 0 0 1 241.4498 489.8087)" class="st18 st64 st67">SFU</text>
		</g>
	</g>
	<g>
		<circle class="st29" cx="496.8" cy="290.9" r="4.5"/>
		<rect x="483" y="285.9" class="st4" width="27.6" height="10"/>
		<text transform="matrix(1 0 0 1 493.3672 294.0816)" class="st18 st64 st68 st66">+</text>
	</g>
	<g>
		<circle class="st27" cx="351.6" cy="331.5" r="4.5"/>
		<rect x="337.6" y="326.2" class="st4" width="27.6" height="10"/>
		<text transform="matrix(1 0 0 1 349.6417 334.3663)" class="st2 st64 st68 st66">-</text>
	</g>
	<g>
		<circle class="st28" cx="394.9" cy="548.2" r="4.3"/>
		<rect x="381.1" y="543.2" class="st4" width="27.6" height="10"/>
		<text transform="matrix(1 0 0 1 393.1959 551.3443)" class="st18 st64 st68 st66">-</text>
	</g>
	<g>
		<circle class="st30" cx="200.6" cy="486.8" r="4.5"/>
		<rect x="186.8" y="481.7" class="st4" width="27.6" height="10"/>
		<text transform="matrix(1 0 0 1 197.1758 489.8175)" class="st18 st64 st68 st66">+</text>
	</g>
	<path class="st72" d="M674.8,185.4h-39c-6,0-10.9-4.9-10.9-10.9v-0.2c0-6,4.9-10.9,10.9-10.9h39c6,0,10.9,4.9,10.9,10.9v0.2
		C685.7,180.5,680.8,185.4,674.8,185.4z"/>
	<g>
		<circle class="st1" cx="499.5" cy="449" r="21.3"/>
		<path class="st5" d="M496.6,435.3c-0.2,0-0.4,0-0.6,0.1c-0.3,0-0.7,0.1-1,0.2c0,0,0,0-0.1,0c0,0,0,0,0,0c-0.5,0.2-1,0.4-1.4,0.8
			c0,0,0,0,0,0c-0.8,0.7-1.4,1.6-1.3,2.7c0,0.3,0,0.7,0.1,1l0.8,2.5c0,0.1,0.1,0.2,0.1,0.3c0.1,0.6,0,1.1-0.2,1.6
			c-0.3,0.6-1.2,0.9-1.9,0.9l-2.6,0c-0.4,0-0.9,0.1-1.2,0.3c-1,0.4-1.3,1.3-1.6,2.4c-0.1,0.4,0.3,0.9,0.3,1.3v0
			c0,0.5-0.4,0.9-0.3,1.3c0.3,1.1,0.7,2,1.8,2.4c0.4,0.2,0.7,0.3,1.1,0.3l2.5,0c0.7,0,1.4,0.3,1.8,0.9c0.3,0.5,0.3,1,0.2,1.6
			c0,0.1-0.1,0.2-0.1,0.3l-0.8,2.5c-0.1,0.3-0.2,0.7-0.1,1c0,1.1,0.5,2,1.3,2.7c0,0,0,0,0,0c0.1,0.1,0.3,0.2,0.4,0.3
			c0.6,0.4,1.4,0.7,2.2,0.7c0.4,0.1,0.9,0.1,1.3,0c0.3-0.1,0.7-0.2,1-0.4c0.3-0.2,0.6-0.4,0.8-0.7c0.1-0.1,0.2-0.3,0.3-0.4
			c0.2-0.2,0.3-0.5,0.4-0.8c0,0,0.8-2.5,0.8-2.5c0.2-0.6,0.6-1.1,1.1-1.4c0,0,0,0,0,0c0.6-0.3,1.4-0.2,1.9,0.2
			c0.1,0,0.1,0.1,0.2,0.2l2.1,1.5c0.4,0.3,0.6,0.5,1.2,0.8c0.2,0.1,1.2,0.7,2.7-0.5c0,0,0.5-0.6,0.5-0.6c0.2-0.2,0.6-0.7,0.6-0.7
			c1-1.4,1.3-1.4,1.3-1.4c0.6-1.2,0.6-2.1,0.6-2.1v0c0-0.8-0.8-0.8-1.1-1.1c-0.2-0.2-1-0.7-1-0.7l-2-1.4c-0.1-0.1-0.3-0.2-0.4-0.3
			c-0.5-0.4-0.8-1-0.9-1.6c0-0.6,0.4-1.2,0.8-1.6c0.1-0.1,0.2-0.2,0.4-0.3l1.9-1.4c0,0,0,0,0.1,0c0.2-0.2,0.6-0.4,0.8-0.7
			c0.3-0.3,0.5-0.5,0.7-1.1c0,0,0.1-0.4,0-1.2c-0.1-0.7-0.4-1.5-0.8-2.1c-0.2-0.3-0.4-0.6-0.7-0.8c0,0,0,0,0,0
			c-0.2-0.2-0.4-0.4-0.7-0.5c0,0,0,0,0,0c-0.8-0.6-1.8-0.7-2.7-0.5c0,0,0,0,0,0c0,0,0,0,0,0c-0.4,0.1-0.8,0.3-1.1,0.5
			c0,0-2.1,1.5-2.1,1.5c-0.1,0.1-0.1,0.1-0.2,0.2c-0.6,0.3-1.3,0.5-1.9,0.2c-0.5-0.3-0.9-0.7-1-1.2c-0.3-0.9-0.6-1.8-0.8-2.6
			c-0.1-0.3-0.2-0.5-0.4-0.8c-0.1-0.1-0.2-0.3-0.3-0.4c-0.2-0.3-0.5-0.5-0.8-0.7c-0.3-0.2-0.7-0.3-1-0.4
			C497,435.3,496.8,435.3,496.6,435.3z"/>
	</g>
</g>
<g>
	<g>
		
			<image style="overflow:visible;opacity:0.1;" width="741" height="426" xlink:href="E0FB633FE3F6B2BF.png"  transform="matrix(0.24 0 0 0.24 741.3496 311.2583)">
		</image>
		<g>
			<g>
				<path class="st0" d="M900.1,399.5H756.4c-2.8,0-5-2.2-5-5v-68.2c0-2.8,2.2-5,5-5h143.7c2.8,0,5,2.2,5,5v68.2
					C905.1,397.2,902.9,399.5,900.1,399.5z"/>
				<path class="st18" d="M899.2,376.5H757.5c-1.8,0-3.3-1.5-3.3-3.3v-30.6c0-1.8,1.5-3.3,3.3-3.3h141.6c1.8,0,3.3,1.5,3.3,3.3v30.6
					C902.4,375,901,376.5,899.2,376.5z"/>
				<circle class="st49" cx="760.2" cy="330.4" r="4.3"/>
				<rect x="768.3" y="328.3" class="st4" width="38.2" height="6.4"/>
				<text transform="matrix(1 0 0 1 768.3084 333.0526)" class="st36 st64 st74">FLAPPY BIRD</text>
				<rect x="762.8" y="344.7" class="st7" width="130.9" height="7.4"/>
				<rect x="762.8" y="353.7" class="st7" width="130.9" height="7.4"/>
				<rect x="762.8" y="362.6" class="st7" width="95.5" height="7.4"/>
				<g>
					<circle class="st50" cx="897.8" cy="329.6" r="3.6"/>
					<g>
						<path class="st18" d="M896.2,328.5c0.9,0.9,1.8,1.9,2.8,2.8c0.3,0.3,0.7-0.1,0.4-0.4c-0.9-0.9-1.8-1.9-2.8-2.8
							C896.3,327.8,895.9,328.2,896.2,328.5L896.2,328.5z"/>
						<path class="st18" d="M899,328c-0.9,0.9-1.9,1.9-2.8,2.8c-0.3,0.3,0.1,0.7,0.4,0.4c0.9-0.9,1.9-1.9,2.8-2.8
							C899.6,328.2,899.2,327.8,899,328L899,328z"/>
					</g>
				</g>
			</g>
		</g>
	</g>
	<g>
		<g>
			
				<image style="overflow:visible;opacity:0.1;" width="74" height="74" xlink:href="E0FB633FE3F6B2BD.png"  transform="matrix(0.24 0 0 0.24 756.0386 381.1108)">
			</image>
			<g>
				<g>
					<g>
						<g>
							<defs>
								<circle id="SVGID_49_" cx="762.9" cy="388" r="5.3"/>
							</defs>
							<clipPath id="SVGID_20_">
								<use xlink:href="#SVGID_49_"  style="overflow:visible;"/>
							</clipPath>
						</g>
					</g>
				</g>
				<g>
					<g>
						<circle class="st18" cx="762.9" cy="388" r="5.8"/>
						<g>
							<defs>
								<circle id="SVGID_51_" cx="762.9" cy="388" r="5.3"/>
							</defs>
							<clipPath id="SVGID_22_">
								<use xlink:href="#SVGID_51_"  style="overflow:visible;"/>
							</clipPath>
							<g class="st37">
								
									<image style="overflow:visible;" width="384" height="386" xlink:href="E0FB633FE3F6B2BB.png"  transform="matrix(2.726017e-02 0 0 2.726017e-02 757.652 382.7074)">
								</image>
							</g>
						</g>
					</g>
					<circle class="st20" cx="762.9" cy="388" r="5.8"/>
				</g>
				<g>
					<g>
						<g>
							<defs>
								<circle id="SVGID_53_" cx="762.9" cy="388" r="5.3"/>
							</defs>
							<clipPath id="SVGID_24_">
								<use xlink:href="#SVGID_53_"  style="overflow:visible;"/>
							</clipPath>
						</g>
					</g>
				</g>
			</g>
		</g>
		<circle class="st24" cx="762.9" cy="388" r="5.3"/>
	</g>
	<g>
		<circle class="st51" cx="794.2" cy="388" r="5.9"/>
		<g>
			<rect x="788.7" y="386.2" class="st4" width="11" height="7.6"/>
			<text transform="matrix(1 0 0 1 792.9042 390.3431)" class="st18 st64 st75">L</text>
		</g>
	</g>
	<g>
		<g>
			
				<image style="overflow:visible;opacity:0.1;" width="74" height="74" xlink:href="E0FB633FE3F6B2B4.png"  transform="matrix(0.24 0 0 0.24 771.4442 381.1108)">
			</image>
			<g>
				<g>
					<g>
						<circle class="st52" cx="778.3" cy="388" r="5.8"/>
					</g>
				</g>
			</g>
		</g>
		<g>
			<rect x="773.3" y="386" class="st4" width="9.9" height="6.9"/>
			<text transform="matrix(1 0 0 1 776.6541 389.7762)" class="st18 st64 st76">H</text>
		</g>
	</g>
	<g>
		<g>
			<g>
				<g>
					<path class="st18" d="M891.9,388.3c1,0,2.1,0,3.1,0c0.6,0,0.6-1,0-1c-1,0-2.1,0-3.1,0C891.2,387.3,891.2,388.3,891.9,388.3
						L891.9,388.3z"/>
				</g>
			</g>
			<g>
				<g>
					<path class="st18" d="M893,386.2c0,1,0,2.1,0,3.1c0,0.6,1,0.6,1,0c0-1,0-2.1,0-3.1C894,385.6,893,385.6,893,386.2L893,386.2z"
						/>
				</g>
			</g>
		</g>
		<circle class="st53" cx="893.5" cy="387.8" r="4.6"/>
	</g>
</g>
<rect x="249" y="166.3" class="st4" width="363.6" height="39.1"/>
<text transform="matrix(1 0 0 1 248.9807 179.268)" class="st5 st77 st78">A world where ideas come alive.</text>
<rect x="1054.8" y="528.4" class="st4" width="197" height="92.6"/>
<text transform="matrix(1 0 0 1 1054.8411 538.5723)"><tspan x="0" y="0" class="st18 st79 st80 st66">Users could have differnet </tspan><tspan x="0" y="16.8" class="st18 st79 st80 st66">default avatar based on </tspan><tspan x="0" y="33.6" class="st18 st79 st80 st66">their name and they can </tspan><tspan x="0" y="50.4" class="st18 st79 st80 st66">also custmize it. </tspan></text>
<rect x="1054.8" y="408.3" class="st4" width="197" height="85.1"/>
<text transform="matrix(1 0 0 1 1054.8411 418.4088)"><tspan x="0" y="0" class="st18 st79 st80 st66">A world is a place under </tspan><tspan x="0" y="16.8" class="st18 st79 st80 st66">development and many </tspan><tspan x="0" y="33.6" class="st18 st79 st80 st66">people could collaborate to </tspan><tspan x="0" y="50.4" class="st18 st79 st80 st66">work on one world at the </tspan><tspan x="0" y="67.2" class="st18 st79 st80 st66">same time.</tspan></text>
<rect x="1054.8" y="262.3" class="st4" width="197" height="55"/>
<text transform="matrix(1 0 0 1 1054.8411 272.4442)"><tspan x="0" y="0" class="st18 st79 st80 st66">The filter could be time, </tspan><tspan x="0" y="16.8" class="st18 st79 st80 st66">popularity, different </tspan><tspan x="0" y="33.6" class="st18 st79 st80 st66">categories etc.</tspan></text>
<g>
	<rect x="1039.8" y="507.1" class="st4" width="196.5" height="55.5"/>
	<text transform="matrix(1 0 0 1 1039.8112 518.6226)" class="st18 st57 st81 st66">Custmized Avatar</text>
</g>
<g>
	<rect x="1039.8" y="240.4" class="st4" width="196.5" height="55.5"/>
	<text transform="matrix(1 0 0 1 1039.8112 252.0076)" class="st18 st57 st81 st66">Search &amp; Filter </text>
</g>
<g>
	<rect x="1039.8" y="353.1" class="st4" width="196.5" height="25.7"/>
	<text transform="matrix(1 0 0 1 1039.8116 364.6544)" class="st18 st57 st81 st66">Preview</text>
</g>
<g>
	<rect x="1039.8" y="385.7" class="st4" width="196.5" height="25.7"/>
	<text transform="matrix(1 0 0 1 1039.8116 397.2445)" class="st18 st57 st81 st66">Collaboration</text>
</g>
<g>
	
		<image style="overflow:visible;opacity:0.1;" width="396" height="49" xlink:href="E0FB633FE3F6B2B7.png"  transform="matrix(0.24 0 0 0.24 934.3972 242.7425)">
	</image>
	<g>
		<g>
			<rect x="938.2" y="245.6" class="st5" width="83.3" height="2"/>
			<circle class="st5" cx="938.2" cy="246.6" r="2.8"/>
			<circle class="st5" cx="1021.6" cy="246.6" r="2.8"/>
		</g>
	</g>
</g>
<g>
	
		<image style="overflow:visible;opacity:0.1;" width="396" height="49" xlink:href="E0FB633FE3F6B2B5.png"  transform="matrix(0.24 0 0 0.24 934.3972 356.5281)">
	</image>
	<g>
		<g>
			<rect x="938.2" y="359.4" class="st5" width="83.3" height="2"/>
			<circle class="st5" cx="938.2" cy="360.4" r="2.8"/>
			<circle class="st5" cx="1021.6" cy="360.4" r="2.8"/>
		</g>
	</g>
</g>
<g>
	
		<image style="overflow:visible;opacity:0.1;" width="396" height="49" xlink:href="E0FB633FE3F6B2AB.png"  transform="matrix(0.24 0 0 0.24 934.3972 386.1642)">
	</image>
	<g>
		<g>
			<rect x="938.2" y="389" class="st5" width="83.3" height="2"/>
			<circle class="st5" cx="938.2" cy="390" r="2.8"/>
			<circle class="st5" cx="1021.6" cy="390" r="2.8"/>
		</g>
	</g>
</g>
<g>
	
		<image style="overflow:visible;opacity:0.1;" width="1063" height="49" xlink:href="E0FB633FE3F6B2AC.png"  transform="matrix(0.24 0 0 0.24 774.4582 510.0301)">
	</image>
	<g>
		<g>
			<rect x="778.3" y="512.9" class="st5" width="243.3" height="2"/>
			<circle class="st5" cx="778.3" cy="513.9" r="2.8"/>
			<circle class="st5" cx="1021.6" cy="513.9" r="2.8"/>
		</g>
	</g>
</g>
</svg>
