<?xml version="1.0" encoding="utf-8"?>
<!-- Generator: Adobe Illustrator 19.1.0, SVG Export Plug-In . SVG Version: 6.00 Build 0)  -->
<svg version="1.1" id="Layer_1" xmlns="http://www.w3.org/2000/svg" xmlns:xlink="http://www.w3.org/1999/xlink" x="0px" y="0px"
	 viewBox="0 0 1280.7 800" style="enable-background:new 0 0 1280.7 800;" xml:space="preserve">
<style type="text/css">
	.st0{fill:#4D4D4D;}
	.st1{fill:#FFFCF9;}
	.st2{fill:#58595B;}
	.st3{fill:#58595B;stroke:#58595B;stroke-width:0.5;stroke-miterlimit:10;}
	.st4{fill:none;}
	.st5{fill:#F57C00;}
	.st6{fill:none;stroke:#BCBEC0;stroke-width:3;stroke-miterlimit:10;}
	.st7{fill:#E6E7E8;}
	.st8{fill:#A7A9AC;}
	.st9{fill:#BCBEC0;}
	.st10{fill:#FFFAF5;stroke:#BCBEC0;stroke-width:3;stroke-miterlimit:10;}
	.st11{fill:#D1D3D4;}
	.st12{opacity:6.000000e-02;fill:#7DCCED;}
	.st13{opacity:6.000000e-02;fill:#CB97C9;}
	.st14{opacity:6.000000e-02;fill:#FFDE17;}
	.st15{fill:none;stroke:#E6E7E8;stroke-width:2;stroke-miterlimit:10;}
	.st16{fill:none;stroke:#E6E7E8;stroke-width:4;stroke-miterlimit:10;}
	.st17{opacity:0.3;fill:none;stroke:#E6E7E8;stroke-width:4;stroke-miterlimit:10;}
	.st18{fill:#FFFFFF;}
	.st19{fill:#6D6E71;}
	.st20{opacity:0.2;fill:#FFFFFF;}
	.st21{fill:#808285;}
	.st22{fill:#7DCCED;}
	.st23{opacity:0.8;fill:#FFFFFF;}
	.st24{opacity:0.3;fill:#FFFFFF;}
	.st25{fill:#FED7B7;}
	.st26{fill-rule:evenodd;clip-rule:evenodd;stroke:#FFFFFF;stroke-miterlimit:10;}
	.st27{fill:#FFDE17;}
	.st28{fill:#CB97C9;}
	.st29{fill:#85D866;}
	.st30{fill:#F5844E;}
	.st31{fill:none;stroke:#F57C00;stroke-width:3;stroke-miterlimit:10;}
	.st32{fill:#FEF9F2;}
	.st33{fill:#9DE085;}
	.st34{fill:#97D6F1;}
	.st35{fill:none;stroke:#BCBEC0;stroke-width:2;stroke-miterlimit:10;}
	.st36{fill:#F1F2F2;}
	.st37{clip-path:url(#SVGID_22_);}
	.st38{fill:#FEFEFE;}
	.st39{fill:#FDFDFD;}
	.st40{fill:#030303;}
	.st41{fill:#EFEFEF;}
	.st42{fill:#040404;}
	.st43{fill:#050505;}
	.st44{fill:#070707;}
	.st45{fill:#020202;}
	.st46{fill:#010101;}
	.st47{fill:#FBFBFB;}
	.st48{fill:#F7F7F7;}
	.st49{fill:#FAC085;}
	.st50{fill:#F15A29;}
	.st51{fill:#80D3AB;}
	.st52{fill:#77ACD7;}
	.st53{fill:none;stroke:#FFFFFF;stroke-miterlimit:10;}
	.st54{fill:none;stroke:#FFFFFF;stroke-width:3;stroke-miterlimit:10;}
	.st55{opacity:0.7;fill:#F57C00;}
	.st56{fill:#58595B;stroke:#58595B;stroke-width:0.2;stroke-miterlimit:10;}
	.st57{fill:#FFFAF5;stroke:#BCBEC0;stroke-width:2;stroke-miterlimit:10;}
	.st58{fill:#B1E0F4;}
	.st59{fill:#FFEB74;}
	.st60{fill:#E0C1DF;}
	.st61{fill:none;stroke:#F57C00;stroke-width:2;stroke-miterlimit:10;}
	.st62{clip-path:url(#SVGID_48_);}
	.st63{font-family:'FZY3JW--GB1-0';}
	.st64{font-size:5.9823px;}
	.st65{font-size:5.1722px;}
	.st66{font-size:4.6605px;}
	.st67{font-family:'BloggerSans-Light';}
	.st68{font-size:16px;}
	.st69{fill-rule:evenodd;clip-rule:evenodd;fill:none;}
	.st70{font-family:'BloggerSans-Medium';}
	.st71{font-size:13.2124px;}
	.st72{font-family:'BloggerSans-Bold';}
	.st73{font-size:12.196px;}
	.st74{font-size:10.6715px;}
	.st75{font-size:3.177px;}
	.st76{font-size:3.6746px;}
	.st77{font-size:7.766px;}
	.st78{font-size:4.517px;}
	.st79{font-size:17.65px;}
	.st80{font-family:'BloggerSans';}
	.st81{font-size:14px;}
	.st82{letter-spacing:1;}
</style>
<rect y="0" class="st0" width="1280.7" height="800"/>
<g>
	<g>
		
			<image style="overflow:visible;opacity:0.1;" width="741" height="426" xlink:href="13F3896866456DDB.png"  transform="matrix(0.24 0 0 0.24 741.3496 311.2583)">
		</image>
		<g>
			<g>
				<path class="st0" d="M900.1,399.5H756.4c-2.8,0-5-2.2-5-5v-68.2c0-2.8,2.2-5,5-5h143.7c2.8,0,5,2.2,5,5v68.2
					C905.1,397.2,902.9,399.5,900.1,399.5z"/>
				<path class="st18" d="M899.2,376.5H757.5c-1.8,0-3.3-1.5-3.3-3.3v-30.6c0-1.8,1.5-3.3,3.3-3.3h141.6c1.8,0,3.3,1.5,3.3,3.3v30.6
					C902.4,375,901,376.5,899.2,376.5z"/>
				<circle class="st49" cx="760.2" cy="330.4" r="4.3"/>
				<rect x="768.3" y="328.3" class="st4" width="38.2" height="6.4"/>
				<text transform="matrix(1 0 0 1 768.3085 333.0523)" class="st36 st63 st64">FLAPPY BIRD</text>
				<rect x="762.8" y="344.7" class="st7" width="130.9" height="7.4"/>
				<rect x="762.8" y="353.7" class="st7" width="130.9" height="7.4"/>
				<rect x="762.8" y="362.6" class="st7" width="95.5" height="7.4"/>
				<g>
					<circle class="st50" cx="897.8" cy="329.6" r="3.6"/>
					<g>
						<path class="st18" d="M896.2,328.5c0.9,0.9,1.8,1.9,2.8,2.8c0.3,0.3,0.7-0.1,0.4-0.4c-0.9-0.9-1.8-1.9-2.8-2.8
							C896.3,327.8,895.9,328.2,896.2,328.5L896.2,328.5z"/>
						<path class="st18" d="M899,328c-0.9,0.9-1.9,1.9-2.8,2.8c-0.3,0.3,0.1,0.7,0.4,0.4c0.9-0.9,1.9-1.9,2.8-2.8
							C899.6,328.2,899.2,327.8,899,328L899,328z"/>
					</g>
				</g>
			</g>
		</g>
	</g>
	<g>
		<g>
			
				<image style="overflow:visible;opacity:0.1;" width="74" height="74" xlink:href="13F3896866456DD9.png"  transform="matrix(0.24 0 0 0.24 756.0386 381.1108)">
			</image>
			<g>
				<g>
					<g>
						<g>
							<defs>
								<circle id="SVGID_55_" cx="762.9" cy="388" r="5.3"/>
							</defs>
							<clipPath id="SVGID_2_">
								<use xlink:href="#SVGID_55_"  style="overflow:visible;"/>
							</clipPath>
						</g>
					</g>
				</g>
				<g>
					<g>
						<circle class="st18" cx="762.9" cy="388" r="5.8"/>
						<g>
							<defs>
								<circle id="SVGID_57_" cx="762.9" cy="388" r="5.3"/>
							</defs>
							<clipPath id="SVGID_4_">
								<use xlink:href="#SVGID_57_"  style="overflow:visible;"/>
							</clipPath>
							<g style="clip-path:url(#SVGID_4_);">
								
									<image style="overflow:visible;" width="384" height="386" xlink:href="13F3896866456DDF.png"  transform="matrix(2.726017e-02 0 0 2.726017e-02 757.6521 382.7074)">
								</image>
							</g>
						</g>
					</g>
					<circle class="st20" cx="762.9" cy="388" r="5.8"/>
				</g>
				<g>
					<g>
						<g>
							<defs>
								<circle id="SVGID_59_" cx="762.9" cy="388" r="5.3"/>
							</defs>
							<clipPath id="SVGID_6_">
								<use xlink:href="#SVGID_59_"  style="overflow:visible;"/>
							</clipPath>
						</g>
					</g>
				</g>
			</g>
		</g>
		<circle class="st24" cx="762.9" cy="388" r="5.3"/>
	</g>
	<g>
		<circle class="st51" cx="794.2" cy="388" r="5.9"/>
		<g>
			<rect x="788.7" y="386.2" class="st4" width="11" height="7.6"/>
			<text transform="matrix(1 0 0 1 792.9043 390.3429)" class="st18 st63 st65">L</text>
		</g>
	</g>
	<g>
		<g>
			
				<image style="overflow:visible;opacity:0.1;" width="74" height="74" xlink:href="13F3896866456DD8.png"  transform="matrix(0.24 0 0 0.24 771.4442 381.1108)">
			</image>
			<g>
				<g>
					<g>
						<circle class="st52" cx="778.3" cy="388" r="5.8"/>
					</g>
				</g>
			</g>
		</g>
		<g>
			<rect x="773.3" y="386" class="st4" width="9.9" height="6.9"/>
			<text transform="matrix(1 0 0 1 776.6542 389.776)" class="st18 st63 st66">H</text>
		</g>
	</g>
	<g>
		<g>
			<g>
				<g>
					<path class="st18" d="M891.9,388.3c1,0,2.1,0,3.1,0c0.6,0,0.6-1,0-1c-1,0-2.1,0-3.1,0C891.2,387.3,891.2,388.3,891.9,388.3
						L891.9,388.3z"/>
				</g>
			</g>
			<g>
				<g>
					<path class="st18" d="M893,386.2c0,1,0,2.1,0,3.1c0,0.6,1,0.6,1,0c0-1,0-2.1,0-3.1C894,385.6,893,385.6,893,386.2L893,386.2z"
						/>
				</g>
			</g>
		</g>
		<circle class="st53" cx="893.5" cy="387.8" r="4.6"/>
	</g>
</g>
<rect x="250.6" y="165.2" class="st4" width="515" height="55.4"/>
<text transform="matrix(1 0 0 1 250.5941 176.9556)" class="st5 st67 st68">A world where ideas come alive.</text>
<rect x="65.5" y="117.6" class="st1" width="903.7" height="564.8"/>
<rect x="65.5" y="117.6" class="st1" width="903" height="564.8"/>
<g>
	<defs>
		<rect id="SVGID_61_" x="65.5" y="214.3" width="903.7" height="468.1"/>
	</defs>
	<clipPath id="SVGID_8_">
		<use xlink:href="#SVGID_61_"  style="overflow:visible;"/>
	</clipPath>
	<g style="clip-path:url(#SVGID_8_);">
		
			<image style="overflow:visible;" width="2304" height="1584" xlink:href="13F3896866456DD6.png"  transform="matrix(0.3922 0 0 0.3899 65.5154 108.4906)">
		</image>
	</g>
</g>
<path class="st31" d="M677.3,185.4h-42c-5.2,0-9.4-4.2-9.4-9.4v-3.2c0-5.2,4.2-9.4,9.4-9.4h42c5.2,0,9.4,4.2,9.4,9.4v3.2
	C686.7,181.2,682.5,185.4,677.3,185.4z"/>
<g>
	<rect x="772.1" y="169.5" class="st69" width="64.5" height="23.4"/>
	<text transform="matrix(1 0 0 1 785.3396 179.0794)" class="st2 st70 st71">ABOUT</text>
	<rect x="689.4" y="169.5" class="st69" width="86.4" height="23.4"/>
	<text transform="matrix(1 0 0 1 701.3582 179.0794)" class="st2 st70 st71">TUTORIALS</text>
	<rect x="615" y="169.5" class="st69" width="83.1" height="23.4"/>
	<text transform="matrix(1 0 0 1 634.241 179.0662)" class="st3 st72 st71">CREATE</text>
	<g>
		<rect x="858.7" y="169.5" class="st4" width="83.1" height="23.4"/>
		<text transform="matrix(1 0 0 1 881.4626 178.345)" class="st2 st70 st73">SIGN IN</text>
	</g>
	<g>
		<circle class="st4" cx="634.8" cy="174.4" r="2"/>
		<circle class="st4" cx="719.2" cy="174.4" r="2"/>
		<circle class="st4" cx="871.6" cy="174.4" r="2"/>
	</g>
</g>
<path class="st5" d="M128.4,155.9c-0.8-0.7-1.8-1.1-2.9-1.1c-1.2,0-2.1,0.4-2.9,1.1c-0.8,0.7-1.2,1.7-1.2,2.7c0,1.1,0.4,2,1.2,2.7
	c0.8,0.7,1.8,1.1,2.9,1.1c1.2,0,2.1-0.4,2.9-1.1c0.8-0.7,1.2-1.7,1.2-2.7C129.6,157.6,129.2,156.7,128.4,155.9z M128,164.8
	c-0.7-0.6-1.5-1-2.6-1c-1,0-1.8,0.3-2.5,1c-0.7,0.7-1,1.5-1,2.4v17.5c0,1,0.2,1.8,1,2.5c0.7,0.6,1.5,1,2.6,1c1,0,1.8-0.3,2.5-1
	c0.7-0.7,1-1.5,1-2.5v-17.5C129,166.3,128.7,165.5,128,164.8z M152,167.2c0-1-0.4-1.9-1.2-2.5c-0.7-0.6-1.6-0.9-2.6-0.9
	c-0.7,0-1.4,0.2-2.1,0.6c-0.7,0.4-1.2,1-1.5,1.8l-2.3,7.4c-0.3,1.1-0.6,2.3-0.8,3.4c-0.2-1.1-0.5-2.3-0.8-3.4l-2.4-7.5
	c-0.3-0.7-0.7-1.3-1.4-1.8c-0.7-0.4-1.4-0.6-2.1-0.6c-1,0-1.4,0.3-2.1,0.9c-0.8,0.6-0.7,1.5-0.7,2.5v0.4c0,0.2-0.4,0.4-0.3,0.6
	l5.9,16.9c0.4,1,0.8,1.8,1.4,2.3c0.7,0.5,1.5,0.8,2.6,0.8c1.1,0,2-0.3,2.6-0.8c0.6-0.5,1.1-1.3,1.5-2.4l6.1-16.8
	c0.1-0.2,0.1-0.4,0.1-0.6V167.2z M204.6,164.8c-0.8-0.6-1.6-0.9-2.5-0.9c-0.7,0-1.4,0.2-2.1,0.5c-0.7,0.4-1.2,1-1.5,1.8l-2.4,7.4
	c-0.2,0.7-0.4,1.5-0.6,2.3c-0.2-0.8-0.4-1.6-0.7-2.3l-2.8-7.5c-0.3-0.8-0.8-1.4-1.4-1.7c-0.6-0.4-1.3-0.6-2-0.6
	c-1,0-1.9,0.3-2.6,0.9c-0.8,0.6-1.1,1.4-1.1,2.4c0,0.2,0,0.4,0.1,0.6c0,0.2,0.1,0.5,0.2,0.8l6.7,17.4c-0.5,1.5-1,2.6-1.5,3.3
	c-0.5,0.6-1,0.9-1.8,0.9c-1.1,0.1-2,0.4-2.6,1.1c-0.7,0.7-1,1.4-1,2.3c0,1,0.4,1.8,1.1,2.4c0.7,0.6,1.6,0.9,2.7,0.9
	c1.8,0,3.3-0.3,4.5-1c1.2-0.7,2.2-1.6,3.1-2.8c0.8-1.1,1.5-2.5,2.1-4.1c0.6-1.5,1.2-3.2,1.8-5l5.4-15.8c0.1-0.3,0.2-0.6,0.2-1
	C205.8,166.3,205.4,165.4,204.6,164.8z M117.1,183.1c-0.3-0.3-0.7-0.5-0.8-0.5c0-0.1-0.4-0.3-0.4-0.8v-23.8c0-1,0-1.8-0.8-2.5
	c-0.7-0.6-1.4-1-2.5-1c-1,0-1.9,0.3-2.7,1c-0.7,0.7-1.1,1.5-1.1,2.4v24.4c0,1.3,0.2,2.3,0.6,3c0.3,0.8,0.8,1.4,1.3,1.9
	c0.5,0.5,1.1,0.7,1.7,0.9c0.5,0.1,1.1,0.2,1.6,0.2c1.2,0,2.1-0.2,2.8-0.7c0.8-0.5,1.2-1.4,1.2-2.4c0-0.6-0.1-1-0.4-1.3
	C117.6,183.6,117.4,183.3,117.1,183.1z M183.2,183.1c-0.3-0.3-0.3-0.5-0.3-0.5c0-0.1,0.1-0.3,0.1-0.8v-23.8c0-1-0.5-1.8-1.2-2.5
	c-0.7-0.6-1.7-1-2.7-1c-1,0-2.1,0.3-2.8,1c-0.7,0.7-1.3,1.5-1.3,2.4v24.4c0,1.3,0.3,2.3,0.6,3c0.3,0.8,0.8,1.4,1.3,1.9
	c0.5,0.5,1.1,0.7,1.7,0.9c0.5,0.1,1.1,0.2,1.6,0.2c1.2,0,2.1-0.2,2.8-0.7c0.8-0.5,1.2-1.4,1.2-2.4c0-0.6-0.1-1-0.4-1.3
	C183.7,183.6,183.4,183.3,183.2,183.1z M161.8,179.4c0.5,0,1,0.1,1.6,0.1c3.2,0,5.5-0.7,7-1.9c1.5-1.3,2.3-3.2,2.3-5.5
	c0-2.4-0.8-4.4-2.4-6c-1.6-1.5-3.9-2.3-7-2.3c-1.6,0-3.1,0.2-4.3,0.6c-1.3,0.4-2.3,1-3.2,1.8c-0.9,0.8-2.1,1.7-2.6,2.8
	c-0.4,1-1.2,2.2-1.2,3.4v7.4c0,1.2,0.8,2.3,1.3,3.3c0.5,1,1.4,1.9,2.3,2.7c0.8,0.8,2,1.4,3.3,1.8c1.2,0.4,2.7,0.6,4.2,0.6
	c0.7,0,1.6-0.1,2.7-0.2c1-0.1,2-0.3,3-0.7c1-0.3,1.8-0.8,2.5-1.3c0.8-0.6,1.2-1.5,1.2-2.5c0-0.3-0.1-0.7-0.2-1
	c-0.1-0.4-0.3-0.7-0.6-1c-0.3-0.3-0.6-0.6-1.1-0.8c-0.4-0.2-1-0.3-1.6-0.3c-0.5,0-0.8,0-1.1,0.1c-0.2,0.1-0.4,0.1-0.6,0.2
	c-0.7,0.3-1.3,0.5-1.8,0.7c-0.6,0.1-1.2,0.2-1.8,0.2c-1,0-1.7-0.2-2.1-0.5c-0.4-0.3-0.4-0.7-0.4-1.3v-0.7
	C161,179.3,161.5,179.3,161.8,179.4z M161,172.1c0-0.7,0.1-1.2,0.5-1.6c0.4-0.4,1-0.6,1.9-0.6c0.7,0,1.2,0.1,1.5,0.4
	c0.3,0.2,0.4,0.7,0.4,1.4c0,0.7-0.2,1.2-0.5,1.4c-0.4,0.3-0.9,0.4-1.6,0.4c-0.2,0-0.5,0-1.1,0c-0.4,0-1.1,0-1.1-0.1V172.1z
	 M230.5,158c0,0,0.2,0,0.2-0.1c0,0,0.2,0,0.2,0v0c-1-0.4-0.5-0.7-0.8-1.1c-0.2-0.2-0.5-0.4-0.7-0.6c0,0-0.1,0-0.1,0l-1.8-1.3
	c-0.1-0.1-0.2-0.2-0.4-0.3c-0.4-0.4-0.8-0.9-0.8-1.5c0-0.5,0.3-1.1,0.8-1.5c0.1-0.1,0.2-0.2,0.3-0.3l1.8-1.3c0,0,0,0,0.1,0
	c0.2-0.2,0.7-0.4,0.8-0.6c0.3-0.3-0.2-0.7,0.8-1.1v0c0-0.4-0.1-0.7-0.1-1.1c-0.1-0.7-0.4-1.4-0.8-2c-0.2-0.3-0.4-0.5-0.7-0.8
	c0,0,0,0,0,0c-0.2-0.2-0.4-0.4-0.6-0.5c0,0,0,0,0,0c-0.7-0.5-1.7-0.7-2.6-0.5c0,0,0,0,0,0c0,0,0,0,0,0c-0.4,0.1-0.8,0.2-1.1,0.5
	c0,0-2,1.5-2,1.5c-0.1,0-0.1,0.1-0.2,0.1c-0.5,0.3-1.3,0.5-1.8,0.2c-0.4-0.2-0.8-0.7-1-1.2c-0.3-0.8-0.5-1.7-0.8-2.5
	c-0.1-0.3-0.2-0.5-0.4-0.7c-0.1-0.1-0.2-0.3-0.3-0.4c-0.2-0.3-0.5-0.5-0.8-0.7c-0.3-0.2-0.6-0.3-0.9-0.4c-0.2,0-0.4,0-0.6,0
	c-0.2,0-0.4,0-0.6,0c-0.3,0-0.6,0.1-1,0.2c0,0,0,0-0.1,0c0,0,0,0,0,0c-0.5,0.2-1,0.4-1.4,0.7c0,0,0,0,0,0c-0.8,0.6-1.3,1.5-1.3,2.6
	c0,0.3,0,0.7,0.1,1l0.8,2.3c0,0.1,0.1,0.2,0.1,0.3c0.1,0.5,0,1.1-0.2,1.5c-0.3,0.6-1.1,0.8-1.8,0.8l-2.5,0c-0.4,0-0.8,0.1-1.2,0.2
	c-1,0.4-1.7,1.3-2.1,2.2c-0.1,0.4-0.2,0.9-0.2,1.3v0c0,0.4,0.1,0.9,0.2,1.3c0.3,1,1,1.9,2,2.2c0.4,0.2,0.8,0.2,1.2,0.2l2.5,0
	c0.7,0,1.4,0.2,1.8,0.8c0.2,0.4,0.3,1,0.2,1.5c0,0.1-0.1,0.2-0.1,0.3l-0.8,2.3c-0.1,0.3-0.1,0.7-0.1,1c0,1,0.5,1.9,1.3,2.6
	c0,0,0,0,0,0c0.1,0.1,0.2,0.2,0.4,0.2c0.6,0.4,1.3,0.6,2.1,0.7c0.4,0,0.8,0.1,1.2,0c0.3-0.1,0.7-0.2,0.9-0.4
	c0.3-0.2,0.6-0.4,0.8-0.7c0.1-0.1,0.2-0.3,0.3-0.4c0.1-0.2,0.3-0.4,0.4-0.7c0,0,0.7-2.3,0.7-2.3c0.2-0.5,0.5-1,1-1.3c0,0,0,0,0,0
	c0.6-0.3,1.3-0.2,1.8,0.2c0.1,0,0.1,0.1,0.2,0.1l2,1.5c0.3,0.3,0.8,1,1.2,1.1c0.2,0,0.4,0.7,0.5,0.7h0c0.7,0,1.4-0.8,2-1.2
	c0,0,0-0.3,0-0.3c0.1-0.1,0.3-0.4,0.4-0.5c0.2-0.2,0.4-0.5,0.6-0.7c0,0,0-0.1,0-0.1c0.3-0.4,0.6-0.9,0.7-1.4c0,0,0-0.1,0-0.2
	c0.1-0.2,0.1-0.5,0.1-0.7C230.6,158.7,230.6,158.3,230.5,158z"/>
<circle class="st54" cx="150.5" cy="246.1" r="10"/>
<circle class="st54" cx="150.5" cy="274.2" r="10"/>
<rect x="169.7" y="242.8" class="st69" width="70.6" height="23.4"/>
<text transform="matrix(1 0 0 1 169.6999 250.4906)" class="st18 st70 st74">PROJECTS</text>
<g>
	<rect x="169.7" y="269.8" class="st4" width="91.8" height="23.4"/>
	<text transform="matrix(1 0 0 1 169.6999 277.5394)" class="st18 st70 st74">ACTIVE SESSIONS</text>
</g>
<circle class="st54" cx="150.5" cy="303.2" r="10"/>
<rect x="169.7" y="298.9" class="st69" width="91.8" height="23.4"/>
<text transform="matrix(1 0 0 1 169.6999 306.6019)" class="st5 st70 st74">Users Map</text>
<circle class="st54" cx="912.1" cy="245.6" r="10"/>
<path class="st18" d="M910.9,246.6c0.1,0.1,0.2,0.3,0.2,0.4v4.5c0,0.3,0.3,0.4,0.5,0.2l1.3-1.5c0.2-0.2,0.3-0.3,0.3-0.5v-2.8
	c0-0.2,0.1-0.3,0.2-0.4l3.6-3.9c0.3-0.3,0.1-0.8-0.3-0.8h-9c-0.4,0-0.6,0.5-0.3,0.8L910.9,246.6z M910.9,246.6"/>
<path class="st54" d="M885.9,255.6H725c-4.7,0-8.5-3.8-8.5-8.5v-2.9c0-4.7,3.8-8.5,8.5-8.5h160.8c4.7,0,8.5,3.8,8.5,8.5v2.9
	C894.4,251.8,890.6,255.6,885.9,255.6z"/>
<g>
	<path class="st18" d="M735.1,251.1c0.4,0.4,0.4,0.9,0,1.2c-0.4,0.3-0.9,0.3-1.2,0l-3.4-3.4c-0.9,0.6-1.9,1-3,1
		c-2.9,0-5.2-2.3-5.2-5.2c0-2.9,2.3-5.2,5.2-5.2c2.9,0,5.2,2.3,5.2,5.2c0,1.1-0.4,2.2-1,3L735.1,251.1L735.1,251.1z M727.4,248.6
		c2.2,0,4-1.8,4-4s-1.8-4-4-4s-4,1.8-4,4S725.2,248.6,727.4,248.6L727.4,248.6z M727.4,248.6"/>
</g>
<circle class="st5" cx="150.5" cy="303.2" r="4.6"/>
<circle class="st55" cx="219.3" cy="377.3" r="5.4"/>
<rect x="216.8" y="376.5" class="st4" width="6.9" height="3.7"/>
<text transform="matrix(1 0 0 1 216.7732 378.7694)" class="st18 st70 st75">2 K</text>
<circle class="st55" cx="517" cy="376.5" r="5.4"/>
<rect x="514.5" y="375.6" class="st4" width="6.9" height="3.7"/>
<text transform="matrix(1 0 0 1 514.489 377.9217)" class="st18 st70 st75">2 K</text>
<circle class="st55" cx="747.7" cy="422" r="6.2"/>
<rect x="744.8" y="421" class="st4" width="8" height="4.3"/>
<text transform="matrix(1 0 0 1 744.8474 423.6566)" class="st18 st70 st76">4 K</text>
<circle class="st55" cx="224.7" cy="416" r="13"/>
<rect x="218.1" y="413.6" class="st4" width="12.8" height="7.4"/>
<text transform="matrix(1 0 0 1 218.1462 419.182)" class="st18 st70 st77">1 M</text>
<circle class="st55" cx="315.4" cy="441.8" r="7.5"/>
<rect x="310.9" y="440.4" class="st4" width="10.8" height="4.3"/>
<text transform="matrix(1 0 0 1 310.9109 443.7098)" class="st18 st70 st78">10 K</text>
<rect x="253" y="166.3" class="st4" width="363.6" height="39.1"/>
<text transform="matrix(1 0 0 1 253.0368 179.2679)" class="st5 st67 st79">A world where ideas come alive.</text>
<rect x="1056" y="262.3" class="st4" width="197" height="55"/>
<text transform="matrix(1 0 0 1 1055.9645 272.4439)"><tspan x="0" y="0" class="st18 st80 st81 st82">The filter could be time, </tspan><tspan x="0" y="16.8" class="st18 st80 st81 st82">popularity, different </tspan><tspan x="0" y="33.6" class="st18 st80 st81 st82">categories etc.</tspan></text>
<g>
	<rect x="1039.8" y="415.7" class="st4" width="196.5" height="55.5"/>
	<text transform="matrix(1 0 0 1 1039.8112 427.3165)" class="st18 st70 st68 st82">Show User Numbers</text>
</g>
<g>
	<rect x="1039.8" y="240.4" class="st4" width="196.5" height="55.5"/>
	<text transform="matrix(1 0 0 1 1039.8112 252.0074)" class="st18 st70 st68 st82">Search &amp; Filter </text>
</g>
<g>
	
		<image style="overflow:visible;opacity:0.1;" width="396" height="49" xlink:href="13F3896866456DD7.png"  transform="matrix(0.24 0 0 0.24 934.3972 242.7425)">
	</image>
	<g>
		<g>
			<rect x="938.2" y="245.6" class="st5" width="83.3" height="2"/>
			<circle class="st5" cx="938.2" cy="246.6" r="2.8"/>
			<circle class="st5" cx="1021.6" cy="246.6" r="2.8"/>
		</g>
	</g>
</g>
<g>
	
		<image style="overflow:visible;opacity:0.1;" width="1063" height="49" xlink:href="13F3896866456DE7.png"  transform="matrix(0.24 0 0 0.24 774.4582 418.1477)">
	</image>
	<g>
		<g>
			<rect x="778.3" y="421" class="st5" width="243.3" height="2"/>
			<circle class="st5" cx="778.3" cy="422" r="2.8"/>
			<circle class="st5" cx="1021.6" cy="422" r="2.8"/>
		</g>
	</g>
</g>
</svg>
