<?xml version="1.0" encoding="utf-8"?>
<!-- Generator: Adobe Illustrator 19.1.0, SVG Export Plug-In . SVG Version: 6.00 Build 0)  -->
<svg version="1.1" id="Layer_1" xmlns="http://www.w3.org/2000/svg" xmlns:xlink="http://www.w3.org/1999/xlink" x="0px" y="0px"
	 viewBox="0 0 709.5 621" style="enable-background:new 0 0 709.5 621;" xml:space="preserve">
<style type="text/css">
	.st0{fill:#4D4D4D;}
	.st1{fill:#808080;stroke:#4D4D4D;stroke-width:0.2517;stroke-miterlimit:10;}
	.st2{fill:#808080;}
	.st3{fill:#FFFFFF;}
	.st4{fill:#F57C00;}
	.st5{fill:none;stroke:#FFFFFF;stroke-width:0.8981;stroke-linecap:round;stroke-linejoin:round;stroke-miterlimit:10;}
	.st6{fill:#CCCCCC;}
	.st7{stroke:#000000;stroke-width:0.3831;stroke-miterlimit:10;}
	.st8{fill:#F2F2F2;}
	.st9{fill:#FFFFFF;stroke:#FFFFFF;stroke-width:0.5;stroke-miterlimit:10;}
	.st10{display:none;}
	.st11{display:inline;}
	.st12{fill:none;stroke:#FFFFFF;stroke-width:2;stroke-linecap:round;stroke-linejoin:round;stroke-miterlimit:10;}
	.st13{fill:none;stroke:#FFFFFF;stroke-width:0.8927;stroke-linecap:round;stroke-linejoin:round;stroke-miterlimit:10;}
	.st14{fill:#E6E6E6;stroke:#CCCCCC;stroke-width:0.2864;stroke-miterlimit:10;}
	.st15{fill:#F57C00;stroke:#A67C52;stroke-width:0.2311;stroke-miterlimit:10;}
	.st16{fill:none;stroke:#F57C00;stroke-width:2;stroke-linecap:round;stroke-linejoin:round;stroke-miterlimit:10;}
	.st17{fill:#E6E6E6;stroke:#CCCCCC;stroke-width:0.2627;stroke-miterlimit:10;}
	.st18{fill:none;stroke:#FFFFFF;stroke-width:0.5062;stroke-linecap:round;stroke-linejoin:round;stroke-miterlimit:10;}
	.st19{fill:none;stroke:#4D4D4D;stroke-linecap:round;stroke-linejoin:round;}
	.st20{font-family:'Roboto-Regular';}
	.st21{font-size:11.8303px;}
	.st22{font-family:'Roboto-Medium';}
	.st23{font-size:16px;}
	.st24{font-family:'Roboto-Light';}
	.st25{font-size:14.0211px;}
	.st26{clip-path:url(#SVGID_6_);}
	.st27{opacity:0.7;clip-path:url(#SVGID_6_);fill:#FFFFFF;}
	.st28{clip-path:url(#SVGID_8_);}
</style>
<path id="bck_1_" class="st0" d="M689,611H20.3c-8.6,0-15.6-7.1-15.6-15.9V27c0-8.8,7-15.9,15.6-15.9H689c8.6,0,15.6,7.1,15.6,15.9
	v568.2C704.6,603.9,697.6,611,689,611z"/>
<g>
	<g>
		<g>
			<defs>
				<rect id="SVGID_3_" x="24.1" y="155.1" width="657.6" height="388.7"/>
			</defs>
			<clipPath id="SVGID_2_">
				<use xlink:href="#SVGID_3_"  style="overflow:visible;"/>
			</clipPath>
			<g style="clip-path:url(#SVGID_2_);">
				
					<image style="overflow:visible;" width="1826" height="1188" xlink:href="6A515FAB8F3C4BC6.png"  transform="matrix(0.3709 0 0 0.3709 16.5923 111.4855)">
				</image>
			</g>
			<g style="clip-path:url(#SVGID_2_);">
				
					<image style="overflow:visible;" width="1806" height="1108" xlink:href="6A515FAB8F3C4BCA.png"  transform="matrix(0.3687 0 0 0.3687 22.4195 132.8903)">
				</image>
			</g>
		</g>
		<g>
			<g>
				<path class="st4" d="M678.1,267.5H28.9c-5.1,0-9.3-4.2-9.3-9.3v-1.4c0-5.1,4.2-9.3,9.3-9.3h649.2c5.1,0,9.3,4.2,9.3,9.3v1.4
					C687.3,263.4,683.2,267.5,678.1,267.5z"/>
			</g>
		</g>
	</g>
	<g>
		<g>
			<g>
				<path class="st8" d="M667.4,140.2H32.2c-5.1,0-9.3-4.2-9.3-9.3v-1.4c0-5.1,4.2-9.3,9.3-9.3h635.2c5.1,0,9.3,4.2,9.3,9.3v1.4
					C676.7,136.1,672.5,140.2,667.4,140.2z"/>
			</g>
		</g>
		<g>
			<g>
				<path class="st4" d="M656.5,140.2h10.9c5.1,0,9.3-4.2,9.3-9.3v-1.4c0-5.1-4.2-9.3-9.3-9.3h-10.9V140.2z"/>
			</g>
		</g>
		<path class="st3" d="M671.7,128.1c-0.3-2.2-2.1-3.9-4.4-3.9c-0.2,0-0.4,0-0.5,0c-2.4,0.3-4.1,2.5-3.8,4.9c0.1,1.1,0.7,2,1.4,2.7
			l-2.9,3.8c-0.1,0.2-0.1,0.5,0.1,0.6c0.1,0.1,0.2,0.1,0.3,0.1c0.1,0,0.3-0.1,0.3-0.2l3-3.8c0.7,0.4,1.5,0.6,2.3,0.6
			c0.2,0,0.4,0,0.5,0C670.3,132.7,672,130.5,671.7,128.1z M667.8,132.2c-0.2,0-0.3,0-0.5,0c-1.8,0-3.3-1.3-3.5-3.1
			c-0.2-2,1.2-3.7,3.1-4c0.2,0,0.3,0,0.5,0c1.8,0,3.3,1.3,3.5,3.1C671.1,130.1,669.7,131.9,667.8,132.2z"/>
		<g>
			<text transform="matrix(1 0 0 1 32.0077 134.7411)" class="st2 st20 st21">File Name</text>
		</g>
	</g>
</g>
<g>
	<g>
		<g>
			<circle class="st4" cx="680" cy="34.6" r="7.4"/>
			<g>
				<line class="st5" x1="676.4" y1="31" x2="683.8" y2="38.4"/>
				<line class="st5" x1="676.4" y1="38.4" x2="683.8" y2="31"/>
			</g>
		</g>
	</g>
</g>
<g>
	<text transform="matrix(1 0 0 1 52.6497 40.3903)" class="st3 st22 st23">Search</text>
	<g>
		<path class="st6" d="M34.3,23.1c-1.4,0-2.7,0.2-4,0.7c-2.9,1.1-5.2,3.3-6.4,6.1c-1.2,2.8-1.3,5.9-0.2,8.8c1.7,4.5,6,7.5,10.8,7.5
			c1.4,0,2.7-0.2,4-0.7c2.9-1.1,5.2-3.3,6.4-6.1c1.2-2.8,1.3-5.9,0.2-8.8C43.4,26.1,39,23.1,34.3,23.1z"/>
		<path class="st2" d="M40.3,32.2C40,29.8,38,28,35.6,28c-0.2,0-0.4,0-0.6,0c-2.6,0.3-4.5,2.7-4.2,5.4c0.1,1.2,0.7,2.2,1.5,3
			l-3.2,4.1c-0.1,0.2-0.1,0.5,0.1,0.6c0.1,0.1,0.2,0.1,0.3,0.1c0.1,0,0.3-0.1,0.4-0.2l3.2-4.1c0.7,0.4,1.6,0.7,2.5,0.7
			c0.2,0,0.4,0,0.6,0C38.8,37.2,40.7,34.8,40.3,32.2z M36,36.6c-0.2,0-0.3,0-0.5,0c-1.9,0-3.6-1.5-3.8-3.4c-0.2-2.1,1.3-4.1,3.4-4.4
			c0.2,0,0.3,0,0.5,0c1.9,0,3.6,1.5,3.8,3.4C39.7,34.4,38.2,36.3,36,36.6z"/>
	</g>
</g>
<g>
	<text transform="matrix(1 0 0 1 59.1766 86.5607)" class="st3 st24 st25">Search Code</text>
</g>
<g>
	<text transform="matrix(1 0 0 1 224.6502 78.1476)"><tspan x="0" y="0" class="st3 st24 st25">Search world, </tspan><tspan x="-14.3" y="16.8" class="st3 st24 st25">modules and parts</tspan></text>
</g>
<g>
	<text transform="matrix(1 0 0 1 566.3148 86.5607)" class="st2 st22 st25">Search in Files</text>
</g>
<g>
	<text transform="matrix(1 0 0 1 401.4286 86.5607)" class="st3 st24 st25">Search Files</text>
</g>
</svg>
