<?xml version="1.0" encoding="utf-8"?>
<!-- Generator: Adobe Illustrator 19.1.0, SVG Export Plug-In . SVG Version: 6.00 Build 0)  -->
<svg version="1.1" id="Layer_1" xmlns="http://www.w3.org/2000/svg" xmlns:xlink="http://www.w3.org/1999/xlink" x="0px" y="0px"
	 viewBox="0 0 2189.9 1312.2" style="enable-background:new 0 0 2189.9 1312.2;" xml:space="preserve">
<style type="text/css">
	.st0{fill:#4D4D4D;}
	.st1{fill:#808080;stroke:#4D4D4D;stroke-width:0.2517;stroke-miterlimit:10;}
	.st2{fill:#808080;}
	.st3{fill:#FFFFFF;}
	.st4{fill:#F57C00;}
	.st5{fill:none;stroke:#FFFFFF;stroke-width:0.8981;stroke-linecap:round;stroke-linejoin:round;stroke-miterlimit:10;}
	.st6{fill:#CCCCCC;}
	.st7{font-family:'Roboto-Medium';}
	.st8{font-size:16px;}
	.st9{stroke:#000000;stroke-width:0.3831;stroke-miterlimit:10;}
	.st10{fill:#F2F2F2;}
	.st11{font-family:'Roboto-Regular';}
	.st12{font-size:11.8303px;}
	.st13{fill:#FFFFFF;stroke:#FFFFFF;stroke-width:0.5;stroke-miterlimit:10;}
	.st14{font-size:14.0211px;}
	.st15{font-family:'Roboto-Light';}
	.st16{display:none;}
	.st17{display:inline;}
	.st18{font-size:12px;}
	.st19{fill:none;stroke:#FFFFFF;stroke-width:2;stroke-linecap:round;stroke-linejoin:round;stroke-miterlimit:10;}
	.st20{font-family:'MyriadPro-Bold';}
	.st21{font-size:30.1109px;}
	.st22{fill:none;stroke:#FFFFFF;stroke-width:0.8927;stroke-linecap:round;stroke-linejoin:round;stroke-miterlimit:10;}
	.st23{fill:#E6E6E6;stroke:#CCCCCC;stroke-width:0.2864;stroke-miterlimit:10;}
	.st24{fill:#F57C00;stroke:#A67C52;stroke-width:0.2311;stroke-miterlimit:10;}
	.st25{font-size:14px;}
	.st26{fill:none;stroke:#F57C00;stroke-width:2;stroke-linecap:round;stroke-linejoin:round;stroke-miterlimit:10;}
	.st27{fill:#E6E6E6;stroke:#CCCCCC;stroke-width:0.2627;stroke-miterlimit:10;}
	.st28{fill:none;stroke:#FFFFFF;stroke-width:0.5062;stroke-linecap:round;stroke-linejoin:round;stroke-miterlimit:10;}
	.st29{fill:none;stroke:#4D4D4D;stroke-linecap:round;stroke-linejoin:round;}
	.st30{clip-path:url(#SVGID_6_);}
	.st31{opacity:0.7;clip-path:url(#SVGID_6_);fill:#FFFFFF;}
	.st32{clip-path:url(#SVGID_8_);}
</style>
<g>
	<path id="bck_3_" class="st0" d="M705.6,681.7H36.9c-8.6,0-15.6-7.1-15.6-15.9V97.7c0-8.8,7-15.9,15.6-15.9h668.7
		c8.6,0,15.6,7.1,15.6,15.9v568.2C721.3,674.6,714.3,681.7,705.6,681.7z"/>
	<g>
		<path class="st1" d="M700.6,210.9h-398v-35.3c0-6.5-5.2-11.7-11.5-11.7H177.3c-6.1,0-11.1,5-11.1,11.2v35.7H41.6
			c-6.2,0-11.2,5.1-11.2,11.3v79.3v351.7v9c0,6.4,5.2,11.7,11.5,11.7h658.4c6.4,0,11.5-5.2,11.5-11.7v-9V242.4v-20.1
			C711.8,215.9,706.8,210.9,700.6,210.9z"/>
		<path class="st1" d="M700.6,210.9h-261v-35.3c0-6.5-5.2-11.7-11.5-11.7H313.3c-6.1,0-11.1,5-11.1,11.2v35.7H41.6
			c-6.2,0-11.2,5.1-11.2,11.3v79.3v351.7v9c0,6.4,5.2,11.7,11.5,11.7h658.4c6.4,0,11.5-5.2,11.5-11.7v-9V242.4v-20.1
			C711.8,215.9,706.8,210.9,700.6,210.9z"/>
		<path class="st1" d="M711.8,222.2c0-6.3-5-11.4-11.2-11.4H575.6v-35.3c0-6.5-5.2-11.7-11.5-11.7H450.7c-6.1,0-11.1,5-11.1,11.2
			v35.7H41.6c-1.9,0-3.7,0.5-5.3,1.4c-3.5,1.9-5.8,5.7-5.8,10v79.3v351.7v9c0,6.4,5.2,11.7,11.5,11.7h658.4
			c6.4,0,11.5-5.2,11.5-11.7v-9V643v0V222.2z"/>
		<g>
			<path class="st2" d="M575.2,210.9v-35.7c0-6.2,5-11.2,11.1-11.2h114.2c6.4,0,11.5,5.2,11.5,11.7v485.3c0,6.4-5.2,12.7-11.5,12.7
				H42.1c-6.4,0-11.5-6.3-11.5-12.7V221.2c0-6.3,5-10.3,11.2-10.3H575.2z"/>
			<g>
				<path class="st0" d="M576.7,210.9c0-10.4,0-20.8,0-31.2c0-6.7,1.1-13.8,9.6-14.3c1.7-0.1,3.4,0,5.1,0c24,0,48,0,72,0
					c10.4,0,20.8,0,31.2,0c7.4,0,15.4,0.5,15.8,10.5c0.3,7.4,0,14.9,0,22.3c0,40.5,0,80.9,0,121.4c0,54.8,0,109.6,0,164.4
					c0,45.4,0,90.8,0,136.2c0,11.7,0,23.5,0,35.2c0,1.8,0.1,3.7,0,5.5c-0.3,7-5.3,11.2-11.8,11.3c-22.3,0.4-44.6,0-66.9,0
					c-45.1,0-90.3,0-135.4,0c-55.2,0-110.3,0-165.5,0c-51.9,0-103.8,0-155.6,0c-35.9,0-71.8,0-107.6,0c-7.8,0-15.6,0-23.4,0
					c-6.5,0-11.8-4.1-12.2-11.2c-0.1-1.8,0-3.6,0-5.4c0-33.6,0-67.2,0-100.7c0-54.1,0-108.2,0-162.4c0-45.7,0-91.3,0-137
					c0-10.6,0-21.2,0-31.8c0-6,2.7-11,9.7-11.3c1.7-0.1,3.5,0,5.2,0c29.9,0,59.8,0,89.8,0c51.6,0,103.1,0,154.7,0
					c53.7,0,107.4,0,161.1,0c35.8,0,71.6,0,107.3,0c5.1,0,10.2,0,15.3,0c1.9,0,1.9-3,0-3c-20.9,0-41.7,0-62.6,0
					c-48.9,0-97.8,0-146.6,0c-55.8,0-111.6,0-167.4,0c-42.1,0-84.2,0-126.3,0c-9.4,0-18.8,0-28.2,0c-4.8,0-9.7,0.7-12.8,5
					c-2.3,3.2-2.2,6.7-2.2,10.4c0,32.7,0,65.5,0,98.2c0,54.9,0,109.8,0,164.7c0,46.5,0,93,0,139.5c0,10.5,0,21,0,31.5
					c0,6.4,2.3,12.9,8.7,15.5c2.4,1,4.8,0.9,7.3,0.9c24.5,0,49.1,0,73.6,0c47.2,0,94.4,0,141.6,0c56.2,0,112.5,0,168.7,0
					c51.6,0,103.2,0,154.8,0c33.3,0,66.6,0,99.9,0c5.5,0,11.1,0.3,16.6,0c13-0.7,13.1-13.1,13.1-22.7c0-34.8,0-69.5,0-104.3
					c0-54.8,0-109.5,0-164.3c0-49.7,0-99.4,0-149.1c0-15.2,0-30.4,0-45.6c0-7.7,1.8-18.7-5.1-24c-5.3-4.1-13.9-2.8-20.2-2.8
					c-12.3,0-24.6,0-36.9,0c-21.4,0-42.8-0.4-64.1,0c-4.3,0.1-8.2,1.5-10.8,5c-2.9,3.8-2.6,8.2-2.6,12.7c0,10.3,0,20.6,0,30.9
					C573.7,212.8,576.7,212.8,576.7,210.9z"/>
			</g>
		</g>
		<g>
			<path class="st3" d="M165.9,210.9v-35.7c0-6.2-5-11.2-11.1-11.2H42.1c-6.4,0-11.5,5.2-11.5,11.7v486.5c0,6.4,5.2,11.7,11.5,11.7
				h658.4c6.4,0,11.5-5.2,11.5-11.7V222.2c0-6.3-5-11.3-11.2-11.3H165.9z"/>
		</g>
	</g>
	<g>
		<g>
			<g>
				<circle class="st4" cx="695.7" cy="102.3" r="7.4"/>
				<g>
					<line class="st5" x1="692" y1="98.7" x2="699.5" y2="106.1"/>
					<line class="st5" x1="692" y1="106.1" x2="699.5" y2="98.7"/>
				</g>
			</g>
		</g>
		<g>
			<circle class="st6" cx="670.7" cy="102.3" r="7.4"/>
			<g>
				<g>
					<path class="st0" d="M674.6,102.6h-8c-0.3,0-0.5-0.2-0.5-0.5s0.2-0.5,0.5-0.5h8c0.3,0,0.5,0.2,0.5,0.5S674.9,102.6,674.6,102.6
						z"/>
				</g>
			</g>
		</g>
	</g>
	<g>
		<text transform="matrix(1 0 0 1 69.3076 108.0353)" class="st3 st7 st8">Style Editor</text>
		<g>
			<path class="st6" d="M50.9,90.7c-1.4,0-2.7,0.2-4,0.7c-2.9,1.1-5.2,3.3-6.4,6.1c-1.2,2.8-1.3,5.9-0.2,8.8c1.7,4.5,6,7.5,10.8,7.5
				c1.4,0,2.7-0.2,4-0.7c2.9-1.1,5.2-3.3,6.4-6.1c1.2-2.8,1.3-5.9,0.2-8.8C60,93.8,55.7,90.7,50.9,90.7z"/>
		</g>
		<g>
			<g>
				<g>
					<path class="st9" d="M56,104.2c1.3-2.4,0.3-5.5-2.3-7.2c-1.3-0.8-2.9-1.1-4.4-0.8c-1.5,0.3-2.8,1.3-3.6,2.6
						c-0.8,1.3-1.1,2.9-0.8,4.4c0.3,1.5,1.3,2.8,2.6,3.6c0.3,0.2,0.7,0.1,0.9-0.2c0.1-0.2,0.1-0.3,0.1-0.4l0,0l0-0.1
						c0-0.3,0-0.6,0.2-0.9c0.4-0.6,1.3-0.8,1.9-0.4l1,0.7c0.9,0.5,1.9,0.6,2.8,0.3l0.6,0.5c-1.2,0.6-2.6,0.6-3.8-0.2l-1-0.7
						c-0.3-0.2-0.7-0.1-0.9,0.2c-0.1,0.1-0.1,0.3-0.1,0.5c0.1,0.3,0,0.6-0.2,1c-0.4,0.6-1.3,0.8-1.9,0.4c-1.5-0.9-2.5-2.4-2.9-4.1
						c-0.4-1.7-0.1-3.5,0.8-4.9s2.4-2.5,4.1-2.9c1.7-0.4,3.5-0.1,4.9,0.8c3,1.9,4.1,5.6,2.5,8.4L56,104.2z"/>
				</g>
			</g>
			<g>
				<path class="st9" d="M57.9,107.8c0,0,0.1,0,0.1,0l0,0c0.1,0,0.1,0,0.2-0.1c0-0.1,0-0.2,0-0.2l-1.3-1.5c-0.4-0.5-0.9-1-1.3-1.5
					l-1.1-1.2c0,0-0.5-0.6-0.5-0.6l-0.1-0.1c-0.1-0.1-0.1-0.1-0.2-0.2c-0.1-0.1-0.2-0.2-0.3-0.3c-0.2-0.2-0.4-0.4-0.6-0.6
					c-0.1-0.1-0.3-0.2-0.5-0.2c-0.3,0-0.5,0.1-0.6,0.4c-0.1,0.2-0.1,0.4,0,0.6c0,0.1,0.2,0.3,0.4,0.5l0.2,0.1
					c0.2,0.2,0.5,0.4,0.7,0.6c0.2,0.2,0.4,0.3,0.6,0.5l0,0l3.3,2.9C57.2,107.2,57.6,107.5,57.9,107.8z"/>
				<path class="st9" d="M51,99.4L51,99.4c-0.2-0.2-0.2-0.2-0.3-0.3l0,0c-0.2-0.2-0.5-0.3-0.7-0.4c-0.4-0.1-0.8-0.2-1.2-0.2
					c0.2,0.2,0.5,0.4,0.6,0.9c0.1,0.2,0.1,0.4,0.2,0.7c0,0.1,0,0.1,0,0.2l0,0.1c0.1,0.3,0.3,0.5,0.7,0.6c0,0,0.1,0,0.1,0
					c0.4,0,0.8-0.3,0.9-0.6C51.3,100.1,51.3,99.8,51,99.4C51,99.5,51,99.5,51,99.4z"/>
			</g>
		</g>
	</g>
	<g>
		<g>
			<g>
				<g>
					<path class="st10" d="M616.4,150.6H80.3c-5.1,0-9.3-4.2-9.3-9.3V140c0-5.1,4.2-9.3,9.3-9.3h536.1c5.1,0,9.3,4.2,9.3,9.3v1.4
						C625.7,146.5,621.5,150.6,616.4,150.6z"/>
				</g>
			</g>
			<g>
				<text transform="matrix(1 0 0 1 79.0237 145.1294)" class="st2 st11 st12">Text_7</text>
			</g>
		</g>
		<g>
			<path class="st4" d="M648.4,138.9c1.2,6.2-4.2,11.6-10.4,10.4c-3.5-0.7-6.3-3.5-6.9-6.9c-1.2-6.2,4.2-11.6,10.4-10.4
				C644.9,132.7,647.7,135.5,648.4,138.9z"/>
			<g>
				<path class="st3" d="M645.1,140h-0.7c-0.3-2-1.9-3.7-4-4v-0.7c0-0.4-0.3-0.7-0.7-0.7c-0.4,0-0.7,0.3-0.7,0.7v0.7
					c-2,0.3-3.7,1.9-4,4h-0.7c-0.4,0-0.7,0.3-0.7,0.7c0,0.4,0.3,0.7,0.7,0.7h0.7c0.3,2,1.9,3.7,4,4v0.7c0,0.4,0.3,0.7,0.7,0.7
					c0.4,0,0.7-0.3,0.7-0.7v-0.7c2-0.3,3.7-1.9,4-4h0.7c0.4,0,0.7-0.3,0.7-0.7C645.7,140.3,645.4,140,645.1,140z M640.4,143.9v-0.6
					c0-0.4-0.3-0.7-0.7-0.7c-0.4,0-0.7,0.3-0.7,0.7v0.6c-1.3-0.3-2.3-1.3-2.6-2.6h0.6c0.4,0,0.7-0.3,0.7-0.7c0-0.4-0.3-0.7-0.7-0.7
					h-0.6c0.3-1.3,1.3-2.3,2.6-2.6v0.6c0,0.4,0.3,0.7,0.7,0.7c0.4,0,0.7-0.3,0.7-0.7v-0.6c1.3,0.3,2.3,1.3,2.6,2.6h-0.6
					c-0.4,0-0.7,0.3-0.7,0.7c0,0.4,0.3,0.7,0.7,0.7h0.6C642.7,142.6,641.7,143.7,640.4,143.9z"/>
				<circle class="st3" cx="639.8" cy="140.7" r="0.7"/>
			</g>
		</g>
		<g>
			<path class="st4" d="M671.2,138.9c1.2,6.2-4.2,11.6-10.4,10.4c-3.5-0.7-6.3-3.5-6.9-6.9c-1.2-6.2,4.2-11.6,10.4-10.4
				C667.8,132.7,670.6,135.5,671.2,138.9z"/>
			<g>
				<g>
					<path class="st13" d="M658,145.6c0.1,0,0.3,0,0.3-0.1l2.9-2.9l0.2,0.1c0.5,0.3,1.1,0.6,1.7,0.6c0.2,0,0.3,0,0.5,0l0,0
						c1,0,2-0.4,2.7-1.1c0.7-0.7,1.1-1.7,1.1-2.7c0-1.9-1.5-3.6-3.4-3.8c-0.2,0-0.3,0-0.5,0l0,0c-1,0-2,0.4-2.7,1.1
						c-0.7,0.7-1.1,1.7-1.1,2.7c0,0.8,0.3,1.6,0.8,2.3l0.1,0.2l-2.9,2.9c-0.1,0.1-0.1,0.2-0.1,0.3c0,0.1,0,0.2,0.1,0.3
						C657.9,145.6,657.9,145.6,658,145.6z M660.6,139.6c0-0.8,0.3-1.6,0.9-2.1c0.6-0.6,1.3-0.9,2.1-0.9l0,0c0.1,0,0.2,0,0.4,0
						c1.5,0.2,2.7,1.5,2.7,3c0,0.8-0.3,1.6-0.9,2.1c-0.6,0.6-1.3,0.9-2.1,0.9l0,0c-0.1,0-0.2,0-0.4,0
						C661.7,142.4,660.6,141.1,660.6,139.6z"/>
				</g>
			</g>
		</g>
	</g>
	<g>
		<text transform="matrix(1 0 0 1 84.5376 191.2509)" class="st2 st7 st14">View</text>
	</g>
	<g>
		<text transform="matrix(1 0 0 1 618.9318 191.2513)" class="st3 st15 st14">Custom</text>
	</g>
	<g>
		<text transform="matrix(1 0 0 1 350.5431 191.2513)" class="st3 st15 st14">Layout</text>
	</g>
	<g>
		<text transform="matrix(1 0 0 1 494.6354 191.2513)" class="st3 st15 st14">Text</text>
	</g>
	<g>
		<text transform="matrix(1 0 0 1 221.8755 191.2513)" class="st3 st15 st14">CSS</text>
	</g>
</g>
<g>
	<path id="bck_5_" class="st0" d="M1430,681.7H761.3c-8.6,0-15.6-7.1-15.6-15.9V97.7c0-8.8,7-15.9,15.6-15.9H1430
		c8.6,0,15.6,7.1,15.6,15.9v568.2C1445.6,674.6,1438.6,681.7,1430,681.7z"/>
	<g>
		<path class="st1" d="M1425,210.9h-261v-35.3c0-6.5-5.2-11.7-11.5-11.7h-114.8c-6.1,0-11.1,5-11.1,11.2v35.7H765.9
			c-6.2,0-11.2,5.1-11.2,11.3v79.3v351.7v9c0,6.4,5.2,11.7,11.5,11.7h658.4c6.4,0,11.5-5.2,11.5-11.7v-9V242.4v-20.1
			C1436.2,215.9,1431.1,210.9,1425,210.9z"/>
		<path class="st1" d="M1436.2,222.2c0-6.3-5-11.4-11.2-11.4h-125.1v-35.3c0-6.5-5.2-11.7-11.5-11.7h-113.3c-6.1,0-11.1,5-11.1,11.2
			v35.7H765.9c-1.9,0-3.7,0.5-5.3,1.4c-3.5,1.9-5.8,5.7-5.8,10v79.3v351.7v9c0,6.4,5.2,11.7,11.5,11.7h658.4
			c6.4,0,11.5-5.2,11.5-11.7v-9V643v0V222.2z"/>
		<g>
			<path class="st2" d="M1299.6,210.9v-35.7c0-6.2,5-11.2,11.1-11.2h114.2c6.4,0,11.5,5.2,11.5,11.7v485.3c0,6.4-5.2,12.7-11.5,12.7
				H766.4c-6.4,0-11.5-6.3-11.5-12.7V221.2c0-6.3,5-10.3,11.2-10.3H1299.6z"/>
			<g>
				<path class="st0" d="M1301.1,210.9c0-10.4,0-20.8,0-31.2c0-6.7,1.1-13.8,9.6-14.3c1.7-0.1,3.4,0,5.1,0c24,0,48,0,72,0
					c10.4,0,20.8,0,31.2,0c7.4,0,15.4,0.5,15.8,10.5c0.3,7.4,0,14.9,0,22.3c0,40.5,0,80.9,0,121.4c0,54.8,0,109.6,0,164.4
					c0,45.4,0,90.8,0,136.2c0,11.7,0,23.5,0,35.2c0,1.8,0.1,3.7,0,5.5c-0.3,7-5.3,11.2-11.8,11.3c-22.3,0.4-44.6,0-66.9,0
					c-45.1,0-90.3,0-135.4,0c-55.2,0-110.3,0-165.5,0c-51.9,0-103.8,0-155.6,0c-35.9,0-71.8,0-107.6,0c-7.8,0-15.6,0-23.4,0
					c-6.5,0-11.8-4.1-12.2-11.2c-0.1-1.8,0-3.6,0-5.4c0-33.6,0-67.2,0-100.7c0-54.1,0-108.2,0-162.4c0-45.7,0-91.3,0-137
					c0-10.6,0-21.2,0-31.8c0-6,2.7-11,9.7-11.3c1.7-0.1,3.5,0,5.2,0c29.9,0,59.8,0,89.8,0c51.6,0,103.1,0,154.7,0
					c53.7,0,107.4,0,161.1,0c35.8,0,71.6,0,107.3,0c5.1,0,10.2,0,15.3,0c1.9,0,1.9-3,0-3c-20.9,0-41.7,0-62.6,0
					c-48.9,0-97.8,0-146.6,0c-55.8,0-111.6,0-167.4,0c-42.1,0-84.2,0-126.3,0c-9.4,0-18.8,0-28.2,0c-4.8,0-9.7,0.7-12.8,5
					c-2.3,3.2-2.2,6.7-2.2,10.4c0,32.7,0,65.5,0,98.2c0,54.9,0,109.8,0,164.7c0,46.5,0,93,0,139.5c0,10.5,0,21,0,31.5
					c0,6.4,2.3,12.9,8.7,15.5c2.4,1,4.8,0.9,7.3,0.9c24.5,0,49.1,0,73.6,0c47.2,0,94.4,0,141.6,0c56.2,0,112.5,0,168.7,0
					c51.6,0,103.2,0,154.8,0c33.3,0,66.6,0,99.9,0c5.5,0,11.1,0.3,16.6,0c13-0.7,13.1-13.1,13.1-22.7c0-34.8,0-69.5,0-104.3
					c0-54.8,0-109.5,0-164.3c0-49.7,0-99.4,0-149.1c0-15.2,0-30.4,0-45.6c0-7.7,1.8-18.7-5.1-24c-5.3-4.1-13.9-2.8-20.2-2.8
					c-12.3,0-24.6,0-36.9,0c-21.4,0-42.8-0.4-64.1,0c-4.3,0.1-8.2,1.5-10.8,5c-2.9,3.8-2.6,8.2-2.6,12.7c0,10.3,0,20.6,0,30.9
					C1298.1,212.8,1301.1,212.8,1301.1,210.9z"/>
			</g>
		</g>
		<g>
			<path class="st2" d="M890.2,210.9v-35.7c0-6.2-5-11.2-11.1-11.2H766.4c-6.4,0-11.5,5.2-11.5,11.7v486.5c0,6.4,5.2,11.7,11.5,11.7
				h658.4c6.4,0,11.5-5.2,11.5-11.7V222.2c0-6.3-5-11.3-11.2-11.3H890.2z"/>
			<g>
				<path class="st0" d="M891.7,210.9c0-10.6,0-21.3,0-31.9c0-4.9-0.2-9.6-4.1-13.3c-2.9-2.7-6.3-3.3-10-3.3
					c-22.4-0.2-44.7,0-67.1,0c-11.6,0-23.2,0-34.7,0c-7.4,0-15.7-1.1-20.3,6.2c-3.7,5.8-2,16.2-2,22.7c0,38.8,0,77.6,0,116.4
					c0,55.6,0,111.1,0,166.7c0,47.4,0,94.8,0,142.1c0,12.8,0,25.5,0,38.3c0,2.3-0.1,4.7,0,7c0.2,7.6,5.7,13.2,13.3,13.4
					c19.8,0.6,39.8,0,59.7,0c44.6,0,89.3,0,133.9,0c55.7,0,111.5,0,167.2,0c53.2,0,106.4,0,159.6,0c37,0,74.1,0,111.1,0
					c8.1,0,16.2,0,24.3,0c3.8,0,7.4-0.4,10.5-3c4.1-3.4,4.7-8.2,4.7-13.1c0-32.1,0-64.2,0-96.3c0-54.8,0-109.6,0-164.4
					c0-46.9,0-93.9,0-140.8c0-10.9,0-21.8,0-32.8c0-5.3-1-10.4-5.9-13.5c-3.1-2-6.4-2-9.9-2c-28.4,0-56.8,0-85.2,0
					c-51.9,0-103.8,0-155.7,0c-54.7,0-109.5,0-164.2,0c-36.9,0-73.8,0-110.7,0c-5.3,0-10.6,0-16,0c-1.9,0-1.9,3,0,3
					c20.3,0,40.5,0,60.8,0c47.6,0,95.2,0,142.8,0c55,0,110,0,165,0c42.9,0,85.9,0,128.8,0c10.8,0,21.6,0,32.5,0c1.7,0,3.4-0.1,5,0
					c7.4,0.4,9.7,6.3,9.7,12.5c0,30.8,0,61.6,0,92.4c0,53.8,0,107.5,0,161.3c0,47.4,0,94.8,0,142.2c0,12.2,0,24.3,0,36.5
					c0,2.3,0.3,4.9-0.3,7.2c-1.5,6.2-6.8,7.9-12.2,7.9c-23.2,0-46.4,0-69.5,0c-45.6,0-91.2,0-136.8,0c-55.1,0-110.2,0-165.3,0
					c-51.8,0-103.5,0-155.3,0c-35.2,0-70.4,0-105.6,0c-7.3,0-14.6,0.1-21.9,0c-6.1-0.1-11.2-3.6-11.6-10.3c-0.1-2,0-4,0-5.9
					c0-32.2,0-64.4,0-96.5c0-53.2,0-106.4,0-159.7c0-50.7,0-101.3,0-152c0-16.8,0-33.6,0-50.4c0-7.2-0.3-14.5,0-21.7
					c0.5-10.3,9.1-10.4,16.6-10.4c10.7,0,21.4,0,32.1,0c23.4,0,46.7,0,70.1,0c2,0,4.1-0.2,6.1,0.2c7.3,1.7,7.4,8.7,7.4,14.7
					c0,10.2,0,20.3,0,30.5C888.7,212.8,891.7,212.8,891.7,210.9z"/>
			</g>
		</g>
		<path class="st3" d="M1425,210.9h-398v-35.3c0-6.5-5.2-11.7-11.5-11.7H901.7c-6.1,0-11.1,5-11.1,11.2v35.7H765.9
			c-6.2,0-11.2,5.1-11.2,11.3v79.3v351.7v9c0,6.4,5.2,11.7,11.5,11.7h658.4c6.4,0,11.5-5.2,11.5-11.7v-9V242.4v-20.1
			C1436.2,215.9,1431.1,210.9,1425,210.9z"/>
	</g>
	<g>
		<g>
			<g>
				<circle class="st4" cx="1420" cy="102.3" r="7.4"/>
				<g>
					<line class="st5" x1="1416.4" y1="98.7" x2="1423.8" y2="106.1"/>
					<line class="st5" x1="1416.4" y1="106.1" x2="1423.8" y2="98.7"/>
				</g>
			</g>
		</g>
		<g>
			<circle class="st6" cx="1395" cy="102.3" r="7.4"/>
			<g>
				<g>
					<path class="st0" d="M1399,102.6h-8c-0.3,0-0.5-0.2-0.5-0.5s0.2-0.5,0.5-0.5h8c0.3,0,0.5,0.2,0.5,0.5S1399.3,102.6,1399,102.6z
						"/>
				</g>
			</g>
		</g>
	</g>
	<g>
		<text transform="matrix(1 0 0 1 793.665 108.0353)" class="st3 st7 st8">Style Editor</text>
		<g>
			<path class="st6" d="M775.3,90.7c-1.4,0-2.7,0.2-4,0.7c-2.9,1.1-5.2,3.3-6.4,6.1c-1.2,2.8-1.3,5.9-0.2,8.8
				c1.7,4.5,6,7.5,10.8,7.5c1.4,0,2.7-0.2,4-0.7c2.9-1.1,5.2-3.3,6.4-6.1c1.2-2.8,1.3-5.9,0.2-8.8C784.4,93.8,780.1,90.7,775.3,90.7
				z"/>
		</g>
		<g>
			<g>
				<g>
					<path class="st9" d="M780.4,104.2c1.3-2.4,0.3-5.5-2.3-7.2c-1.3-0.8-2.9-1.1-4.4-0.8c-1.5,0.3-2.8,1.3-3.6,2.6
						c-0.8,1.3-1.1,2.9-0.8,4.4c0.3,1.5,1.3,2.8,2.6,3.6c0.3,0.2,0.7,0.1,0.9-0.2c0.1-0.2,0.1-0.3,0.1-0.4l0,0l0-0.1
						c0-0.3,0-0.6,0.2-0.9c0.4-0.6,1.3-0.8,1.9-0.4l1,0.7c0.9,0.5,1.9,0.6,2.8,0.3l0.6,0.5c-1.2,0.6-2.6,0.6-3.8-0.2l-1-0.7
						c-0.3-0.2-0.7-0.1-0.9,0.2c-0.1,0.1-0.1,0.3-0.1,0.5c0.1,0.3,0,0.6-0.2,1c-0.4,0.6-1.3,0.8-1.9,0.4c-1.5-0.9-2.5-2.4-2.9-4.1
						c-0.4-1.7-0.1-3.5,0.8-4.9s2.4-2.5,4.1-2.9c1.7-0.4,3.5-0.1,4.9,0.8c3,1.9,4.1,5.6,2.5,8.4L780.4,104.2z"/>
				</g>
			</g>
			<g>
				<path class="st9" d="M782.2,107.8c0,0,0.1,0,0.1,0l0,0c0.1,0,0.1,0,0.2-0.1c0-0.1,0-0.2,0-0.2l-1.3-1.5c-0.4-0.5-0.9-1-1.3-1.5
					l-1.1-1.2c0,0-0.5-0.6-0.5-0.6l-0.1-0.1c-0.1-0.1-0.1-0.1-0.2-0.2c-0.1-0.1-0.2-0.2-0.3-0.3c-0.2-0.2-0.4-0.4-0.6-0.6
					c-0.1-0.1-0.3-0.2-0.5-0.2c-0.3,0-0.5,0.1-0.6,0.4c-0.1,0.2-0.1,0.4,0,0.6c0,0.1,0.2,0.3,0.4,0.5l0.2,0.1
					c0.2,0.2,0.5,0.4,0.7,0.6c0.2,0.2,0.4,0.3,0.6,0.5l0,0l3.3,2.9C781.6,107.2,781.9,107.5,782.2,107.8z"/>
				<path class="st9" d="M775.4,99.4L775.4,99.4c-0.2-0.2-0.2-0.2-0.3-0.3l0,0c-0.2-0.2-0.5-0.3-0.7-0.4c-0.4-0.1-0.8-0.2-1.2-0.2
					c0.2,0.2,0.5,0.4,0.6,0.9c0.1,0.2,0.1,0.4,0.2,0.7c0,0.1,0,0.1,0,0.2l0,0.1c0.1,0.3,0.3,0.5,0.7,0.6c0,0,0.1,0,0.1,0
					c0.4,0,0.8-0.3,0.9-0.6C775.7,100.1,775.6,99.8,775.4,99.4C775.4,99.5,775.4,99.5,775.4,99.4z"/>
			</g>
		</g>
	</g>
	<g>
		<g>
			<g>
				<g>
					<path class="st10" d="M1340.8,150.6H804.6c-5.1,0-9.3-4.2-9.3-9.3V140c0-5.1,4.2-9.3,9.3-9.3h536.1c5.1,0,9.3,4.2,9.3,9.3v1.4
						C1350,146.5,1345.9,150.6,1340.8,150.6z"/>
				</g>
			</g>
			<g>
				<text transform="matrix(1 0 0 1 803.3811 145.1294)" class="st2 st11 st12">Text_7</text>
			</g>
		</g>
		<g>
			<path class="st4" d="M1372.8,138.9c1.2,6.2-4.2,11.6-10.4,10.4c-3.5-0.7-6.3-3.5-6.9-6.9c-1.2-6.2,4.2-11.6,10.4-10.4
				C1369.3,132.7,1372.1,135.5,1372.8,138.9z"/>
			<g>
				<path class="st3" d="M1369.4,140h-0.7c-0.3-2-1.9-3.7-4-4v-0.7c0-0.4-0.3-0.7-0.7-0.7c-0.4,0-0.7,0.3-0.7,0.7v0.7
					c-2,0.3-3.7,1.9-4,4h-0.7c-0.4,0-0.7,0.3-0.7,0.7c0,0.4,0.3,0.7,0.7,0.7h0.7c0.3,2,1.9,3.7,4,4v0.7c0,0.4,0.3,0.7,0.7,0.7
					c0.4,0,0.7-0.3,0.7-0.7v-0.7c2-0.3,3.7-1.9,4-4h0.7c0.4,0,0.7-0.3,0.7-0.7C1370.1,140.3,1369.8,140,1369.4,140z M1364.8,143.9
					v-0.6c0-0.4-0.3-0.7-0.7-0.7c-0.4,0-0.7,0.3-0.7,0.7v0.6c-1.3-0.3-2.3-1.3-2.6-2.6h0.6c0.4,0,0.7-0.3,0.7-0.7
					c0-0.4-0.3-0.7-0.7-0.7h-0.6c0.3-1.3,1.3-2.3,2.6-2.6v0.6c0,0.4,0.3,0.7,0.7,0.7c0.4,0,0.7-0.3,0.7-0.7v-0.6
					c1.3,0.3,2.3,1.3,2.6,2.6h-0.6c-0.4,0-0.7,0.3-0.7,0.7c0,0.4,0.3,0.7,0.7,0.7h0.6C1367.1,142.6,1366.1,143.7,1364.8,143.9z"/>
				<circle class="st3" cx="1364.1" cy="140.7" r="0.7"/>
			</g>
		</g>
		<g>
			<path class="st4" d="M1395.6,138.9c1.2,6.2-4.2,11.6-10.4,10.4c-3.5-0.7-6.3-3.5-6.9-6.9c-1.2-6.2,4.2-11.6,10.4-10.4
				C1392.1,132.7,1394.9,135.5,1395.6,138.9z"/>
			<g>
				<g>
					<path class="st13" d="M1382.4,145.6c0.1,0,0.3,0,0.3-0.1l2.9-2.9l0.2,0.1c0.5,0.3,1.1,0.6,1.7,0.6c0.2,0,0.3,0,0.5,0l0,0
						c1,0,2-0.4,2.7-1.1c0.7-0.7,1.1-1.7,1.1-2.7c0-1.9-1.5-3.6-3.4-3.8c-0.2,0-0.3,0-0.5,0l0,0c-1,0-2,0.4-2.7,1.1
						c-0.7,0.7-1.1,1.7-1.1,2.7c0,0.8,0.3,1.6,0.8,2.3l0.1,0.2l-2.9,2.9c-0.1,0.1-0.1,0.2-0.1,0.3c0,0.1,0,0.2,0.1,0.3
						C1382.2,145.6,1382.3,145.6,1382.4,145.6z M1384.9,139.6c0-0.8,0.3-1.6,0.9-2.1c0.6-0.6,1.3-0.9,2.1-0.9l0,0c0.1,0,0.2,0,0.4,0
						c1.5,0.2,2.7,1.5,2.7,3c0,0.8-0.3,1.6-0.9,2.1c-0.6,0.6-1.3,0.9-2.1,0.9l0,0c-0.1,0-0.2,0-0.4,0
						C1386.1,142.4,1384.9,141.1,1384.9,139.6z"/>
				</g>
			</g>
		</g>
	</g>
	<g>
		<text transform="matrix(1 0 0 1 808.895 191.2509)" class="st3 st15 st14">View</text>
	</g>
	<g>
		<text transform="matrix(1 0 0 1 1343.2892 191.2513)" class="st3 st15 st14">Custom</text>
	</g>
	<g>
		<text transform="matrix(1 0 0 1 1074.9005 191.2513)" class="st3 st15 st14">Layout</text>
	</g>
	<g>
		<text transform="matrix(1 0 0 1 1218.9929 191.2513)" class="st3 st15 st14">Text</text>
	</g>
	<g>
		<text transform="matrix(1 0 0 1 946.233 191.2513)" class="st2 st7 st14">CSS</text>
	</g>
</g>
<g>
	<path id="bck_8_" class="st0" d="M2155,681.7h-668.7c-8.6,0-15.6-7.1-15.6-15.9V97.7c0-8.8,7-15.9,15.6-15.9H2155
		c8.6,0,15.6,7.1,15.6,15.9v568.2C2170.6,674.6,2163.6,681.7,2155,681.7z"/>
	<g>
		<path class="st1" d="M2161.2,222.2c0-6.3-5-11.4-11.2-11.4h-125.1v-35.3c0-6.5-5.2-11.7-11.5-11.7h-113.3c-6.1,0-11.1,5-11.1,11.2
			v35.7h-398.1c-1.9,0-3.7,0.5-5.3,1.4c-3.5,1.9-5.8,5.7-5.8,10v79.3v351.7v9c0,6.4,5.2,11.7,11.5,11.7h658.4
			c6.4,0,11.5-5.2,11.5-11.7v-9V643v0V222.2z"/>
		<g>
			<path class="st2" d="M2024.6,210.9v-35.7c0-6.2,5-11.2,11.1-11.2h114.2c6.4,0,11.5,5.2,11.5,11.7v485.3c0,6.4-5.2,12.7-11.5,12.7
				h-658.4c-6.4,0-11.5-6.3-11.5-12.7V221.2c0-6.3,5-10.3,11.2-10.3H2024.6z"/>
			<g>
				<path class="st0" d="M2026.1,210.9c0-10.4,0-20.8,0-31.2c0-6.7,1.1-13.8,9.6-14.3c1.7-0.1,3.4,0,5.1,0c24,0,48,0,72,0
					c10.4,0,20.8,0,31.2,0c7.4,0,15.4,0.5,15.8,10.5c0.3,7.4,0,14.9,0,22.3c0,40.5,0,80.9,0,121.4c0,54.8,0,109.6,0,164.4
					c0,45.4,0,90.8,0,136.2c0,11.7,0,23.5,0,35.2c0,1.8,0.1,3.7,0,5.5c-0.3,7-5.3,11.2-11.8,11.3c-22.3,0.4-44.6,0-66.9,0
					c-45.1,0-90.3,0-135.4,0c-55.2,0-110.3,0-165.5,0c-51.9,0-103.8,0-155.6,0c-35.9,0-71.8,0-107.6,0c-7.8,0-15.6,0-23.4,0
					c-6.5,0-11.8-4.1-12.2-11.2c-0.1-1.8,0-3.6,0-5.4c0-33.6,0-67.2,0-100.7c0-54.1,0-108.2,0-162.4c0-45.7,0-91.3,0-137
					c0-10.6,0-21.2,0-31.8c0-6,2.7-11,9.7-11.3c1.7-0.1,3.5,0,5.2,0c29.9,0,59.8,0,89.8,0c51.6,0,103.1,0,154.7,0
					c53.7,0,107.4,0,161.1,0c35.8,0,71.6,0,107.3,0c5.1,0,10.2,0,15.3,0c1.9,0,1.9-3,0-3c-20.9,0-41.7,0-62.6,0
					c-48.9,0-97.8,0-146.6,0c-55.8,0-111.6,0-167.4,0c-42.1,0-84.2,0-126.3,0c-9.4,0-18.8,0-28.2,0c-4.8,0-9.7,0.7-12.8,5
					c-2.3,3.2-2.2,6.7-2.2,10.4c0,32.7,0,65.5,0,98.2c0,54.9,0,109.8,0,164.7c0,46.5,0,93,0,139.5c0,10.5,0,21,0,31.5
					c0,6.4,2.3,12.9,8.7,15.5c2.4,1,4.8,0.9,7.3,0.9c24.5,0,49.1,0,73.6,0c47.2,0,94.4,0,141.6,0c56.2,0,112.5,0,168.7,0
					c51.6,0,103.2,0,154.8,0c33.3,0,66.6,0,99.9,0c5.5,0,11.1,0.3,16.6,0c13-0.7,13.1-13.1,13.1-22.7c0-34.8,0-69.5,0-104.3
					c0-54.8,0-109.5,0-164.3c0-49.7,0-99.4,0-149.1c0-15.2,0-30.4,0-45.6c0-7.7,1.8-18.7-5.1-24c-5.3-4.1-13.9-2.8-20.2-2.8
					c-12.3,0-24.6,0-36.9,0c-21.4,0-42.8-0.4-64.1,0c-4.3,0.1-8.2,1.5-10.8,5c-2.9,3.8-2.6,8.2-2.6,12.7c0,10.3,0,20.6,0,30.9
					C2023.1,212.8,2026.1,212.8,2026.1,210.9z"/>
			</g>
		</g>
		<g>
			<path class="st2" d="M1615.2,210.9v-35.7c0-6.2-5-11.2-11.1-11.2h-112.7c-6.4,0-11.5,5.2-11.5,11.7v486.5
				c0,6.4,5.2,11.7,11.5,11.7h658.4c6.4,0,11.5-5.2,11.5-11.7V222.2c0-6.3-5-11.3-11.2-11.3H1615.2z"/>
			<g>
				<path class="st0" d="M1616.7,210.9c0-10.6,0-21.3,0-31.9c0-4.9-0.2-9.6-4.1-13.3c-2.9-2.7-6.3-3.3-10-3.3
					c-22.4-0.2-44.7,0-67.1,0c-11.6,0-23.2,0-34.7,0c-7.4,0-15.7-1.1-20.3,6.2c-3.7,5.8-2,16.2-2,22.7c0,38.8,0,77.6,0,116.4
					c0,55.6,0,111.1,0,166.7c0,47.4,0,94.8,0,142.1c0,12.8,0,25.5,0,38.3c0,2.3-0.1,4.7,0,7c0.2,7.6,5.7,13.2,13.3,13.4
					c19.8,0.6,39.8,0,59.7,0c44.6,0,89.3,0,133.9,0c55.7,0,111.5,0,167.2,0c53.2,0,106.4,0,159.6,0c37,0,74.1,0,111.1,0
					c8.1,0,16.2,0,24.3,0c3.8,0,7.4-0.4,10.5-3c4.1-3.4,4.7-8.2,4.7-13.1c0-32.1,0-64.2,0-96.3c0-54.8,0-109.6,0-164.4
					c0-46.9,0-93.9,0-140.8c0-10.9,0-21.8,0-32.8c0-5.3-1-10.4-5.9-13.5c-3.1-2-6.4-2-9.9-2c-28.4,0-56.8,0-85.2,0
					c-51.9,0-103.8,0-155.7,0c-54.7,0-109.5,0-164.2,0c-36.9,0-73.8,0-110.7,0c-5.3,0-10.6,0-16,0c-1.9,0-1.9,3,0,3
					c20.3,0,40.5,0,60.8,0c47.6,0,95.2,0,142.8,0c55,0,110,0,165,0c42.9,0,85.9,0,128.8,0c10.8,0,21.6,0,32.5,0c1.7,0,3.4-0.1,5,0
					c7.4,0.4,9.7,6.3,9.7,12.5c0,30.8,0,61.6,0,92.4c0,53.8,0,107.5,0,161.3c0,47.4,0,94.8,0,142.2c0,12.2,0,24.3,0,36.5
					c0,2.3,0.3,4.9-0.3,7.2c-1.5,6.2-6.8,7.9-12.2,7.9c-23.2,0-46.4,0-69.5,0c-45.6,0-91.2,0-136.8,0c-55.1,0-110.2,0-165.3,0
					c-51.8,0-103.5,0-155.3,0c-35.2,0-70.4,0-105.6,0c-7.3,0-14.6,0.1-21.9,0c-6.1-0.1-11.2-3.6-11.6-10.3c-0.1-2,0-4,0-5.9
					c0-32.2,0-64.4,0-96.5c0-53.2,0-106.4,0-159.7c0-50.7,0-101.3,0-152c0-16.8,0-33.6,0-50.4c0-7.2-0.3-14.5,0-21.7
					c0.5-10.3,9.1-10.4,16.6-10.4c10.7,0,21.4,0,32.1,0c23.4,0,46.7,0,70.1,0c2,0,4.1-0.2,6.1,0.2c7.3,1.7,7.4,8.7,7.4,14.7
					c0,10.2,0,20.3,0,30.5C1613.7,212.8,1616.7,212.8,1616.7,210.9z"/>
			</g>
		</g>
		<path class="st1" d="M2150,210.9h-398v-35.3c0-6.5-5.2-11.7-11.5-11.7h-113.8c-6.1,0-11.1,5-11.1,11.2v35.7h-124.7
			c-6.2,0-11.2,5.1-11.2,11.3v79.3v351.7v9c0,6.4,5.2,11.7,11.5,11.7h658.4c6.4,0,11.5-5.2,11.5-11.7v-9V242.4v-20.1
			C2161.2,215.9,2156.1,210.9,2150,210.9z"/>
		<path class="st3" d="M2150,210.9h-261v-35.3c0-6.5-5.2-11.7-11.5-11.7h-114.8c-6.1,0-11.1,5-11.1,11.2v35.7h-260.7
			c-6.2,0-11.2,5.1-11.2,11.3v79.3v351.7v9c0,6.4,5.2,11.7,11.5,11.7h658.4c6.4,0,11.5-5.2,11.5-11.7v-9V242.4v-20.1
			C2161.2,215.9,2156.1,210.9,2150,210.9z"/>
	</g>
	<g>
		<g>
			<g>
				<circle class="st4" cx="2145" cy="102.3" r="7.4"/>
				<g>
					<line class="st5" x1="2141.4" y1="98.7" x2="2148.8" y2="106.1"/>
					<line class="st5" x1="2141.4" y1="106.1" x2="2148.8" y2="98.7"/>
				</g>
			</g>
		</g>
		<g>
			<circle class="st6" cx="2120" cy="102.3" r="7.4"/>
			<g>
				<g>
					<path class="st0" d="M2124,102.6h-8c-0.3,0-0.5-0.2-0.5-0.5s0.2-0.5,0.5-0.5h8c0.3,0,0.5,0.2,0.5,0.5S2124.3,102.6,2124,102.6z
						"/>
				</g>
			</g>
		</g>
	</g>
	<g>
		<text transform="matrix(1 0 0 1 1518.665 108.0353)" class="st3 st7 st8">Style Editor</text>
		<g>
			<path class="st6" d="M1500.3,90.7c-1.4,0-2.7,0.2-4,0.7c-2.9,1.1-5.2,3.3-6.4,6.1c-1.2,2.8-1.3,5.9-0.2,8.8
				c1.7,4.5,6,7.5,10.8,7.5c1.4,0,2.7-0.2,4-0.7c2.9-1.1,5.2-3.3,6.4-6.1c1.2-2.8,1.3-5.9,0.2-8.8
				C1509.4,93.8,1505.1,90.7,1500.3,90.7z"/>
		</g>
		<g>
			<g>
				<g>
					<path class="st9" d="M1505.4,104.2c1.3-2.4,0.3-5.5-2.3-7.2c-1.3-0.8-2.9-1.1-4.4-0.8c-1.5,0.3-2.8,1.3-3.6,2.6
						c-0.8,1.3-1.1,2.9-0.8,4.4c0.3,1.5,1.3,2.8,2.6,3.6c0.3,0.2,0.7,0.1,0.9-0.2c0.1-0.2,0.1-0.3,0.1-0.4l0,0l0-0.1
						c0-0.3,0-0.6,0.2-0.9c0.4-0.6,1.3-0.8,1.9-0.4l1,0.7c0.9,0.5,1.9,0.6,2.8,0.3l0.6,0.5c-1.2,0.6-2.6,0.6-3.8-0.2l-1-0.7
						c-0.3-0.2-0.7-0.1-0.9,0.2c-0.1,0.1-0.1,0.3-0.1,0.5c0.1,0.3,0,0.6-0.2,1c-0.4,0.6-1.3,0.8-1.9,0.4c-1.5-0.9-2.5-2.4-2.9-4.1
						c-0.4-1.7-0.1-3.5,0.8-4.9s2.4-2.5,4.1-2.9c1.7-0.4,3.5-0.1,4.9,0.8c3,1.9,4.1,5.6,2.5,8.4L1505.4,104.2z"/>
				</g>
			</g>
			<g>
				<path class="st9" d="M1507.2,107.8c0,0,0.1,0,0.1,0l0,0c0.1,0,0.1,0,0.2-0.1c0-0.1,0-0.2,0-0.2l-1.3-1.5c-0.4-0.5-0.9-1-1.3-1.5
					l-1.1-1.2c0,0-0.5-0.6-0.5-0.6l-0.1-0.1c-0.1-0.1-0.1-0.1-0.2-0.2c-0.1-0.1-0.2-0.2-0.3-0.3c-0.2-0.2-0.4-0.4-0.6-0.6
					c-0.1-0.1-0.3-0.2-0.5-0.2c-0.3,0-0.5,0.1-0.6,0.4c-0.1,0.2-0.1,0.4,0,0.6c0,0.1,0.2,0.3,0.4,0.5l0.2,0.1
					c0.2,0.2,0.5,0.4,0.7,0.6c0.2,0.2,0.4,0.3,0.6,0.5l0,0l3.3,2.9C1506.6,107.2,1506.9,107.5,1507.2,107.8z"/>
				<path class="st9" d="M1500.4,99.4L1500.4,99.4c-0.2-0.2-0.2-0.2-0.3-0.3l0,0c-0.2-0.2-0.5-0.3-0.7-0.4c-0.4-0.1-0.8-0.2-1.2-0.2
					c0.2,0.2,0.5,0.4,0.6,0.9c0.1,0.2,0.1,0.4,0.2,0.7c0,0.1,0,0.1,0,0.2l0,0.1c0.1,0.3,0.3,0.5,0.7,0.6c0,0,0.1,0,0.1,0
					c0.4,0,0.8-0.3,0.9-0.6C1500.7,100.1,1500.6,99.8,1500.4,99.4C1500.4,99.5,1500.4,99.5,1500.4,99.4z"/>
			</g>
		</g>
	</g>
	<g>
		<g>
			<g>
				<g>
					<path class="st10" d="M2065.8,150.6h-536.1c-5.1,0-9.3-4.2-9.3-9.3V140c0-5.1,4.2-9.3,9.3-9.3h536.1c5.1,0,9.3,4.2,9.3,9.3v1.4
						C2075,146.5,2070.9,150.6,2065.8,150.6z"/>
				</g>
			</g>
			<g>
				<text transform="matrix(1 0 0 1 1528.3811 145.1294)" class="st2 st11 st12">Text_7</text>
			</g>
		</g>
		<g>
			<path class="st4" d="M2097.8,138.9c1.2,6.2-4.2,11.6-10.4,10.4c-3.5-0.7-6.3-3.5-6.9-6.9c-1.2-6.2,4.2-11.6,10.4-10.4
				C2094.3,132.7,2097.1,135.5,2097.8,138.9z"/>
			<g>
				<path class="st3" d="M2094.4,140h-0.7c-0.3-2-1.9-3.7-4-4v-0.7c0-0.4-0.3-0.7-0.7-0.7c-0.4,0-0.7,0.3-0.7,0.7v0.7
					c-2,0.3-3.7,1.9-4,4h-0.7c-0.4,0-0.7,0.3-0.7,0.7c0,0.4,0.3,0.7,0.7,0.7h0.7c0.3,2,1.9,3.7,4,4v0.7c0,0.4,0.3,0.7,0.7,0.7
					c0.4,0,0.7-0.3,0.7-0.7v-0.7c2-0.3,3.7-1.9,4-4h0.7c0.4,0,0.7-0.3,0.7-0.7C2095.1,140.3,2094.8,140,2094.4,140z M2089.8,143.9
					v-0.6c0-0.4-0.3-0.7-0.7-0.7c-0.4,0-0.7,0.3-0.7,0.7v0.6c-1.3-0.3-2.3-1.3-2.6-2.6h0.6c0.4,0,0.7-0.3,0.7-0.7
					c0-0.4-0.3-0.7-0.7-0.7h-0.6c0.3-1.3,1.3-2.3,2.6-2.6v0.6c0,0.4,0.3,0.7,0.7,0.7c0.4,0,0.7-0.3,0.7-0.7v-0.6
					c1.3,0.3,2.3,1.3,2.6,2.6h-0.6c-0.4,0-0.7,0.3-0.7,0.7c0,0.4,0.3,0.7,0.7,0.7h0.6C2092.1,142.6,2091.1,143.7,2089.8,143.9z"/>
				<circle class="st3" cx="2089.1" cy="140.7" r="0.7"/>
			</g>
		</g>
		<g>
			<path class="st4" d="M2120.6,138.9c1.2,6.2-4.2,11.6-10.4,10.4c-3.5-0.7-6.3-3.5-6.9-6.9c-1.2-6.2,4.2-11.6,10.4-10.4
				C2117.1,132.7,2119.9,135.5,2120.6,138.9z"/>
			<g>
				<g>
					<path class="st13" d="M2107.4,145.6c0.1,0,0.3,0,0.3-0.1l2.9-2.9l0.2,0.1c0.5,0.3,1.1,0.6,1.7,0.6c0.2,0,0.3,0,0.5,0l0,0
						c1,0,2-0.4,2.7-1.1c0.7-0.7,1.1-1.7,1.1-2.7c0-1.9-1.5-3.6-3.4-3.8c-0.2,0-0.3,0-0.5,0l0,0c-1,0-2,0.4-2.7,1.1
						c-0.7,0.7-1.1,1.7-1.1,2.7c0,0.8,0.3,1.6,0.8,2.3l0.1,0.2l-2.9,2.9c-0.1,0.1-0.1,0.2-0.1,0.3c0,0.1,0,0.2,0.1,0.3
						C2107.2,145.6,2107.3,145.6,2107.4,145.6z M2109.9,139.6c0-0.8,0.3-1.6,0.9-2.1c0.6-0.6,1.3-0.9,2.1-0.9l0,0c0.1,0,0.2,0,0.4,0
						c1.5,0.2,2.7,1.5,2.7,3c0,0.8-0.3,1.6-0.9,2.1c-0.6,0.6-1.3,0.9-2.1,0.9l0,0c-0.1,0-0.2,0-0.4,0
						C2111.1,142.4,2109.9,141.1,2109.9,139.6z"/>
				</g>
			</g>
		</g>
	</g>
	<g>
		<text transform="matrix(1 0 0 1 1533.895 191.2509)" class="st3 st15 st14">View</text>
	</g>
	<g>
		<text transform="matrix(1 0 0 1 2068.2891 191.2513)" class="st3 st15 st14">Custom</text>
	</g>
	<g>
		<text transform="matrix(1 0 0 1 1799.9005 191.2513)" class="st2 st7 st14">Layout</text>
	</g>
	<g>
		<text transform="matrix(1 0 0 1 1943.9929 191.2513)" class="st3 st15 st14">Text</text>
	</g>
	<g>
		<text transform="matrix(1 0 0 1 1671.233 191.2513)" class="st3 st15 st14">CSS</text>
	</g>
</g>
<g>
	<path id="bck_9_" class="st0" d="M704,1295.7H35.3c-8.6,0-15.6-7.1-15.6-15.9V711.7c0-8.8,7-15.9,15.6-15.9H704
		c8.6,0,15.6,7.1,15.6,15.9v568.2C719.6,1288.6,712.6,1295.7,704,1295.7z"/>
	<g>
		<g>
			<path class="st2" d="M573.6,824.9v-35.7c0-6.2,5-11.2,11.1-11.2h114.2c6.4,0,11.5,5.2,11.5,11.7v485.3c0,6.4-5.2,12.7-11.5,12.7
				H40.4c-6.4,0-11.5-6.3-11.5-12.7V835.2c0-6.3,5-10.3,11.2-10.3H573.6z"/>
			<g>
				<path class="st0" d="M575.1,824.9c0-10.4,0-20.8,0-31.2c0-6.7,1.1-13.8,9.6-14.3c1.7-0.1,3.4,0,5.1,0c24,0,48,0,72,0
					c10.4,0,20.8,0,31.2,0c7.4,0,15.4,0.5,15.8,10.5c0.3,7.4,0,14.9,0,22.3c0,40.5,0,80.9,0,121.4c0,54.8,0,109.6,0,164.4
					c0,45.4,0,90.8,0,136.2c0,11.7,0,23.5,0,35.2c0,1.8,0.1,3.7,0,5.5c-0.3,7-5.3,11.2-11.8,11.3c-22.3,0.4-44.6,0-66.9,0
					c-45.1,0-90.3,0-135.4,0c-55.2,0-110.3,0-165.5,0c-51.9,0-103.8,0-155.6,0c-35.9,0-71.8,0-107.6,0c-7.8,0-15.6,0-23.4,0
					c-6.5,0-11.8-4.1-12.2-11.2c-0.1-1.8,0-3.6,0-5.4c0-33.6,0-67.2,0-100.7c0-54.1,0-108.2,0-162.4c0-45.7,0-91.3,0-137
					c0-10.6,0-21.2,0-31.8c0-6,2.7-11,9.7-11.3c1.7-0.1,3.5,0,5.2,0c29.9,0,59.8,0,89.8,0c51.6,0,103.1,0,154.7,0
					c53.7,0,107.4,0,161.1,0c35.8,0,71.6,0,107.3,0c5.1,0,10.2,0,15.3,0c1.9,0,1.9-3,0-3c-20.9,0-41.7,0-62.6,0
					c-48.9,0-97.8,0-146.6,0c-55.8,0-111.6,0-167.4,0c-42.1,0-84.2,0-126.3,0c-9.4,0-18.8,0-28.2,0c-4.8,0-9.7,0.7-12.8,5
					c-2.3,3.2-2.2,6.7-2.2,10.4c0,32.7,0,65.5,0,98.2c0,54.9,0,109.8,0,164.7c0,46.5,0,93,0,139.5c0,10.5,0,21,0,31.5
					c0,6.4,2.3,12.9,8.7,15.5c2.4,1,4.8,0.9,7.3,0.9c24.5,0,49.1,0,73.6,0c47.2,0,94.4,0,141.6,0c56.2,0,112.5,0,168.7,0
					c51.6,0,103.2,0,154.8,0c33.3,0,66.6,0,99.9,0c5.5,0,11.1,0.3,16.6,0c13-0.7,13.1-13.1,13.1-22.7c0-34.8,0-69.5,0-104.3
					c0-54.8,0-109.5,0-164.3c0-49.7,0-99.4,0-149.1c0-15.2,0-30.4,0-45.6c0-7.7,1.8-18.7-5.1-24c-5.3-4.1-13.9-2.8-20.2-2.8
					c-12.3,0-24.6,0-36.9,0c-21.4,0-42.8-0.4-64.1,0c-4.3,0.1-8.2,1.5-10.8,5c-2.9,3.8-2.6,8.2-2.6,12.7c0,10.3,0,20.6,0,30.9
					C572.1,826.8,575.1,826.8,575.1,824.9z"/>
			</g>
		</g>
		<g>
			<path class="st2" d="M164.2,824.9v-35.7c0-6.2-5-11.2-11.1-11.2H40.4c-6.4,0-11.5,5.2-11.5,11.7v486.5c0,6.4,5.2,11.7,11.5,11.7
				h658.4c6.4,0,11.5-5.2,11.5-11.7V836.2c0-6.3-5-11.3-11.2-11.3H164.2z"/>
			<g>
				<path class="st0" d="M165.7,824.9c0-10.6,0-21.3,0-31.9c0-4.9-0.2-9.6-4.1-13.3c-2.9-2.7-6.3-3.3-10-3.3
					c-22.4-0.2-44.7,0-67.1,0c-11.6,0-23.2,0-34.7,0c-7.4,0-15.7-1.1-20.3,6.2c-3.7,5.8-2,16.2-2,22.7c0,38.8,0,77.6,0,116.4
					c0,55.6,0,111.1,0,166.7c0,47.4,0,94.8,0,142.1c0,12.8,0,25.5,0,38.3c0,2.3-0.1,4.7,0,7c0.2,7.6,5.7,13.2,13.3,13.4
					c19.8,0.6,39.8,0,59.7,0c44.6,0,89.3,0,133.9,0c55.7,0,111.5,0,167.2,0c53.2,0,106.4,0,159.6,0c37,0,74.1,0,111.1,0
					c8.1,0,16.2,0,24.3,0c3.8,0,7.4-0.4,10.5-3c4.1-3.4,4.7-8.2,4.7-13.1c0-32.1,0-64.2,0-96.3c0-54.8,0-109.6,0-164.4
					c0-46.9,0-93.9,0-140.8c0-10.9,0-21.8,0-32.8c0-5.3-1-10.4-5.9-13.5c-3.1-2-6.4-2-9.9-2c-28.4,0-56.8,0-85.2,0
					c-51.9,0-103.8,0-155.7,0c-54.7,0-109.5,0-164.2,0c-36.9,0-73.8,0-110.7,0c-5.3,0-10.6,0-16,0c-1.9,0-1.9,3,0,3
					c20.3,0,40.5,0,60.8,0c47.6,0,95.2,0,142.8,0c55,0,110,0,165,0c42.9,0,85.9,0,128.8,0c10.8,0,21.6,0,32.5,0c1.7,0,3.4-0.1,5,0
					c7.4,0.4,9.7,6.3,9.7,12.5c0,30.8,0,61.6,0,92.4c0,53.8,0,107.5,0,161.3c0,47.4,0,94.8,0,142.2c0,12.2,0,24.3,0,36.5
					c0,2.3,0.3,4.9-0.3,7.2c-1.5,6.2-6.8,7.9-12.2,7.9c-23.2,0-46.4,0-69.5,0c-45.6,0-91.2,0-136.8,0c-55.1,0-110.2,0-165.3,0
					c-51.8,0-103.5,0-155.3,0c-35.2,0-70.4,0-105.6,0c-7.3,0-14.6,0.1-21.9,0c-6.1-0.1-11.2-3.6-11.6-10.3c-0.1-2,0-4,0-5.9
					c0-32.2,0-64.4,0-96.5c0-53.2,0-106.4,0-159.7c0-50.7,0-101.3,0-152c0-16.8,0-33.6,0-50.4c0-7.2-0.3-14.5,0-21.7
					c0.5-10.3,9.1-10.4,16.6-10.4c10.7,0,21.4,0,32.1,0c23.4,0,46.7,0,70.1,0c2,0,4.1-0.2,6.1,0.2c7.3,1.7,7.4,8.7,7.4,14.7
					c0,10.2,0,20.3,0,30.5C162.7,826.8,165.7,826.8,165.7,824.9z"/>
			</g>
		</g>
		<path class="st1" d="M699,824.9H301v-35.3c0-6.5-5.2-11.7-11.5-11.7H175.7c-6.1,0-11.1,5-11.1,11.2v35.7H39.9
			c-6.2,0-11.2,5.1-11.2,11.3v79.3v351.7v9c0,6.4,5.2,11.7,11.5,11.7h658.4c6.4,0,11.5-5.2,11.5-11.7v-9V856.4v-20.1
			C710.2,829.9,705.1,824.9,699,824.9z"/>
		<path class="st1" d="M699,824.9H438v-35.3c0-6.5-5.2-11.7-11.5-11.7H311.7c-6.1,0-11.1,5-11.1,11.2v35.7H39.9
			c-6.2,0-11.2,5.1-11.2,11.3v79.3v351.7v9c0,6.4,5.2,11.7,11.5,11.7h658.4c6.4,0,11.5-5.2,11.5-11.7v-9V856.4v-20.1
			C710.2,829.9,705.1,824.9,699,824.9z"/>
		<path class="st3" d="M710.2,836.2c0-6.3-5-11.4-11.2-11.4H573.9v-35.3c0-6.5-5.2-11.7-11.5-11.7H449.1c-6.1,0-11.1,5-11.1,11.2
			v35.7H39.9c-1.9,0-3.7,0.5-5.3,1.4c-3.5,1.9-5.8,5.7-5.8,10v79.3v351.7v9c0,6.4,5.2,11.7,11.5,11.7h658.4
			c6.4,0,11.5-5.2,11.5-11.7v-9V1257v0V836.2z"/>
	</g>
	<g>
		<g>
			<g>
				<circle class="st4" cx="694" cy="716.3" r="7.4"/>
				<g>
					<line class="st5" x1="690.4" y1="712.7" x2="697.8" y2="720.1"/>
					<line class="st5" x1="690.4" y1="720.1" x2="697.8" y2="712.7"/>
				</g>
			</g>
		</g>
		<g>
			<circle class="st6" cx="669" cy="716.3" r="7.4"/>
			<g>
				<g>
					<path class="st0" d="M673,716.6h-8c-0.3,0-0.5-0.2-0.5-0.5s0.2-0.5,0.5-0.5h8c0.3,0,0.5,0.2,0.5,0.5S673.3,716.6,673,716.6z"/>
				</g>
			</g>
		</g>
	</g>
	<g>
		<text transform="matrix(1 0 0 1 67.665 722.0353)" class="st3 st7 st8">Style Editor</text>
		<g>
			<path class="st6" d="M49.3,704.7c-1.4,0-2.7,0.2-4,0.7c-2.9,1.1-5.2,3.3-6.4,6.1c-1.2,2.8-1.3,5.9-0.2,8.8
				c1.7,4.5,6,7.5,10.8,7.5c1.4,0,2.7-0.2,4-0.7c2.9-1.1,5.2-3.3,6.4-6.1c1.2-2.8,1.3-5.9,0.2-8.8C58.4,707.8,54.1,704.7,49.3,704.7
				z"/>
		</g>
		<g>
			<g>
				<g>
					<path class="st9" d="M54.4,718.2c1.3-2.4,0.3-5.5-2.3-7.2c-1.3-0.8-2.9-1.1-4.4-0.8c-1.5,0.3-2.8,1.3-3.6,2.6s-1.1,2.9-0.8,4.4
						c0.3,1.5,1.3,2.8,2.6,3.6c0.3,0.2,0.7,0.1,0.9-0.2c0.1-0.2,0.1-0.3,0.1-0.4l0,0l0-0.1c0-0.3,0-0.6,0.2-0.9
						c0.4-0.6,1.3-0.8,1.9-0.4l1,0.7c0.9,0.5,1.9,0.6,2.8,0.3l0.6,0.5c-1.2,0.6-2.6,0.6-3.8-0.2l-1-0.7c-0.3-0.2-0.7-0.1-0.9,0.2
						c-0.1,0.1-0.1,0.3-0.1,0.5c0.1,0.3,0,0.6-0.2,1c-0.4,0.6-1.3,0.8-1.9,0.4c-1.5-0.9-2.5-2.4-2.9-4.1c-0.4-1.7-0.1-3.5,0.8-4.9
						c0.9-1.5,2.4-2.5,4.1-2.9s3.5-0.1,4.9,0.8c3,1.9,4.1,5.6,2.5,8.4L54.4,718.2z"/>
				</g>
			</g>
			<g>
				<path class="st9" d="M56.2,721.8c0,0,0.1,0,0.1,0l0,0c0.1,0,0.1,0,0.2-0.1c0-0.1,0-0.2,0-0.2l-1.3-1.5c-0.4-0.5-0.9-1-1.3-1.5
					l-1.1-1.2c0,0-0.5-0.6-0.5-0.6l-0.1-0.1c-0.1-0.1-0.1-0.1-0.2-0.2c-0.1-0.1-0.2-0.2-0.3-0.3c-0.2-0.2-0.4-0.4-0.6-0.6
					c-0.1-0.1-0.3-0.2-0.5-0.2c-0.3,0-0.5,0.1-0.6,0.4c-0.1,0.2-0.1,0.4,0,0.6c0,0.1,0.2,0.3,0.4,0.5l0.2,0.1
					c0.2,0.2,0.5,0.4,0.7,0.6c0.2,0.2,0.4,0.3,0.6,0.5l0,0l3.3,2.9C55.6,721.2,55.9,721.5,56.2,721.8z"/>
				<path class="st9" d="M49.4,713.4L49.4,713.4c-0.2-0.2-0.2-0.2-0.3-0.3l0,0c-0.2-0.2-0.5-0.3-0.7-0.4c-0.4-0.1-0.8-0.2-1.2-0.2
					c0.2,0.2,0.5,0.4,0.6,0.9c0.1,0.2,0.1,0.4,0.2,0.7c0,0.1,0,0.1,0,0.2l0,0.1c0.1,0.3,0.3,0.5,0.7,0.6c0,0,0.1,0,0.1,0
					c0.4,0,0.8-0.3,0.9-0.6C49.7,714.1,49.6,713.8,49.4,713.4C49.4,713.5,49.4,713.5,49.4,713.4z"/>
			</g>
		</g>
	</g>
	<g>
		<g>
			<g>
				<g>
					<path class="st10" d="M614.8,764.6H78.6c-5.1,0-9.3-4.2-9.3-9.3V754c0-5.1,4.2-9.3,9.3-9.3h536.1c5.1,0,9.3,4.2,9.3,9.3v1.4
						C624,760.5,619.9,764.6,614.8,764.6z"/>
				</g>
			</g>
			<g>
				<text transform="matrix(1 0 0 1 77.3811 759.1294)" class="st2 st11 st12">Text_7</text>
			</g>
		</g>
		<g>
			<path class="st4" d="M646.8,752.9c1.2,6.2-4.2,11.6-10.4,10.4c-3.5-0.7-6.3-3.5-6.9-6.9c-1.2-6.2,4.2-11.6,10.4-10.4
				C643.3,746.7,646.1,749.5,646.8,752.9z"/>
			<g>
				<path class="st3" d="M643.4,754h-0.7c-0.3-2-1.9-3.7-4-4v-0.7c0-0.4-0.3-0.7-0.7-0.7c-0.4,0-0.7,0.3-0.7,0.7v0.7
					c-2,0.3-3.7,1.9-4,4h-0.7c-0.4,0-0.7,0.3-0.7,0.7c0,0.4,0.3,0.7,0.7,0.7h0.7c0.3,2,1.9,3.7,4,4v0.7c0,0.4,0.3,0.7,0.7,0.7
					c0.4,0,0.7-0.3,0.7-0.7v-0.7c2-0.3,3.7-1.9,4-4h0.7c0.4,0,0.7-0.3,0.7-0.7C644.1,754.3,643.8,754,643.4,754z M638.8,757.9v-0.6
					c0-0.4-0.3-0.7-0.7-0.7c-0.4,0-0.7,0.3-0.7,0.7v0.6c-1.3-0.3-2.3-1.3-2.6-2.6h0.6c0.4,0,0.7-0.3,0.7-0.7c0-0.4-0.3-0.7-0.7-0.7
					h-0.6c0.3-1.3,1.3-2.3,2.6-2.6v0.6c0,0.4,0.3,0.7,0.7,0.7c0.4,0,0.7-0.3,0.7-0.7v-0.6c1.3,0.3,2.3,1.3,2.6,2.6h-0.6
					c-0.4,0-0.7,0.3-0.7,0.7c0,0.4,0.3,0.7,0.7,0.7h0.6C641.1,756.6,640.1,757.7,638.8,757.9z"/>
				<circle class="st3" cx="638.1" cy="754.7" r="0.7"/>
			</g>
		</g>
		<g>
			<path class="st4" d="M669.6,752.9c1.2,6.2-4.2,11.6-10.4,10.4c-3.5-0.7-6.3-3.5-6.9-6.9c-1.2-6.2,4.2-11.6,10.4-10.4
				C666.1,746.7,668.9,749.5,669.6,752.9z"/>
			<g>
				<g>
					<path class="st13" d="M656.4,759.6c0.1,0,0.3,0,0.3-0.1l2.9-2.9l0.2,0.1c0.5,0.3,1.1,0.6,1.7,0.6c0.2,0,0.3,0,0.5,0l0,0
						c1,0,2-0.4,2.7-1.1c0.7-0.7,1.1-1.7,1.1-2.7c0-1.9-1.5-3.6-3.4-3.8c-0.2,0-0.3,0-0.5,0l0,0c-1,0-2,0.4-2.7,1.1
						c-0.7,0.7-1.1,1.7-1.1,2.7c0,0.8,0.3,1.6,0.8,2.3l0.1,0.2l-2.9,2.9c-0.1,0.1-0.1,0.2-0.1,0.3c0,0.1,0,0.2,0.1,0.3
						C656.2,759.6,656.3,759.6,656.4,759.6z M658.9,753.6c0-0.8,0.3-1.6,0.9-2.1c0.6-0.6,1.3-0.9,2.1-0.9l0,0c0.1,0,0.2,0,0.4,0
						c1.5,0.2,2.7,1.5,2.7,3c0,0.8-0.3,1.6-0.9,2.1c-0.6,0.6-1.3,0.9-2.1,0.9l0,0c-0.1,0-0.2,0-0.4,0
						C660.1,756.4,658.9,755.1,658.9,753.6z"/>
				</g>
			</g>
		</g>
	</g>
	<g>
		<text transform="matrix(1 0 0 1 82.895 805.251)" class="st3 st15 st14">View</text>
	</g>
	<g>
		<text transform="matrix(1 0 0 1 617.2891 805.2513)" class="st3 st15 st14">Custom</text>
	</g>
	<g>
		<text transform="matrix(1 0 0 1 348.9005 805.2513)" class="st3 st15 st14">Layout</text>
	</g>
	<g>
		<text transform="matrix(1 0 0 1 492.9929 805.2513)" class="st2 st7 st14">Text</text>
	</g>
	<g>
		<text transform="matrix(1 0 0 1 220.233 805.2513)" class="st3 st15 st14">CSS</text>
	</g>
</g>
<g>
	<path id="bck_4_" class="st0" d="M1434,1295.7H765.3c-8.6,0-15.6-7.1-15.6-15.9V711.7c0-8.8,7-15.9,15.6-15.9H1434
		c8.6,0,15.6,7.1,15.6,15.9v568.2C1449.6,1288.6,1442.6,1295.7,1434,1295.7z"/>
	<g>
		<g>
			<path class="st2" d="M1303.6,824.9v-35.7c0-6.2,5-11.2,11.1-11.2h114.2c6.4,0,11.5,5.2,11.5,11.7v485.3c0,6.4-5.2,12.7-11.5,12.7
				H770.4c-6.4,0-11.5-6.3-11.5-12.7V835.2c0-6.3,5-10.3,11.2-10.3H1303.6z"/>
			<g>
				<path class="st0" d="M1305.1,824.9c0-10.4,0-20.8,0-31.2c0-6.7,1.1-13.8,9.6-14.3c1.7-0.1,3.4,0,5.1,0c24,0,48,0,72,0
					c10.4,0,20.8,0,31.2,0c7.4,0,15.4,0.5,15.8,10.5c0.3,7.4,0,14.9,0,22.3c0,40.5,0,80.9,0,121.4c0,54.8,0,109.6,0,164.4
					c0,45.4,0,90.8,0,136.2c0,11.7,0,23.5,0,35.2c0,1.8,0.1,3.7,0,5.5c-0.3,7-5.3,11.2-11.8,11.3c-22.3,0.4-44.6,0-66.9,0
					c-45.1,0-90.3,0-135.4,0c-55.2,0-110.3,0-165.5,0c-51.9,0-103.8,0-155.6,0c-35.9,0-71.8,0-107.6,0c-7.8,0-15.6,0-23.4,0
					c-6.5,0-11.8-4.1-12.2-11.2c-0.1-1.8,0-3.6,0-5.4c0-33.6,0-67.2,0-100.7c0-54.1,0-108.2,0-162.4c0-45.7,0-91.3,0-137
					c0-10.6,0-21.2,0-31.8c0-6,2.7-11,9.7-11.3c1.7-0.1,3.5,0,5.2,0c29.9,0,59.8,0,89.8,0c51.6,0,103.1,0,154.7,0
					c53.7,0,107.4,0,161.1,0c35.8,0,71.6,0,107.3,0c5.1,0,10.2,0,15.3,0c1.9,0,1.9-3,0-3c-20.9,0-41.7,0-62.6,0
					c-48.9,0-97.8,0-146.6,0c-55.8,0-111.6,0-167.4,0c-42.1,0-84.2,0-126.3,0c-9.4,0-18.8,0-28.2,0c-4.8,0-9.7,0.7-12.8,5
					c-2.3,3.2-2.2,6.7-2.2,10.4c0,32.7,0,65.5,0,98.2c0,54.9,0,109.8,0,164.7c0,46.5,0,93,0,139.5c0,10.5,0,21,0,31.5
					c0,6.4,2.3,12.9,8.7,15.5c2.4,1,4.8,0.9,7.3,0.9c24.5,0,49.1,0,73.6,0c47.2,0,94.4,0,141.6,0c56.2,0,112.5,0,168.7,0
					c51.6,0,103.2,0,154.8,0c33.3,0,66.6,0,99.9,0c5.5,0,11.1,0.3,16.6,0c13-0.7,13.1-13.1,13.1-22.7c0-34.8,0-69.5,0-104.3
					c0-54.8,0-109.5,0-164.3c0-49.7,0-99.4,0-149.1c0-15.2,0-30.4,0-45.6c0-7.7,1.8-18.7-5.1-24c-5.3-4.1-13.9-2.8-20.2-2.8
					c-12.3,0-24.6,0-36.9,0c-21.4,0-42.8-0.4-64.1,0c-4.3,0.1-8.2,1.5-10.8,5c-2.9,3.8-2.6,8.2-2.6,12.7c0,10.3,0,20.6,0,30.9
					C1302.1,826.8,1305.1,826.8,1305.1,824.9z"/>
			</g>
		</g>
		<g>
			<path class="st2" d="M894.2,824.9v-35.7c0-6.2-5-11.2-11.1-11.2H770.4c-6.4,0-11.5,5.2-11.5,11.7v486.5c0,6.4,5.2,11.7,11.5,11.7
				h658.4c6.4,0,11.5-5.2,11.5-11.7V836.2c0-6.3-5-11.3-11.2-11.3H894.2z"/>
			<g>
				<path class="st0" d="M895.7,824.9c0-10.6,0-21.3,0-31.9c0-4.9-0.2-9.6-4.1-13.3c-2.9-2.7-6.3-3.3-10-3.3
					c-22.4-0.2-44.7,0-67.1,0c-11.6,0-23.2,0-34.7,0c-7.4,0-15.7-1.1-20.3,6.2c-3.7,5.8-2,16.2-2,22.7c0,38.8,0,77.6,0,116.4
					c0,55.6,0,111.1,0,166.7c0,47.4,0,94.8,0,142.1c0,12.8,0,25.5,0,38.3c0,2.3-0.1,4.7,0,7c0.2,7.6,5.7,13.2,13.3,13.4
					c19.8,0.6,39.8,0,59.7,0c44.6,0,89.3,0,133.9,0c55.7,0,111.5,0,167.2,0c53.2,0,106.4,0,159.6,0c37,0,74.1,0,111.1,0
					c8.1,0,16.2,0,24.3,0c3.8,0,7.4-0.4,10.5-3c4.1-3.4,4.7-8.2,4.7-13.1c0-32.1,0-64.2,0-96.3c0-54.8,0-109.6,0-164.4
					c0-46.9,0-93.9,0-140.8c0-10.9,0-21.8,0-32.8c0-5.3-1-10.4-5.9-13.5c-3.1-2-6.4-2-9.9-2c-28.4,0-56.8,0-85.2,0
					c-51.9,0-103.8,0-155.7,0c-54.7,0-109.5,0-164.2,0c-36.9,0-73.8,0-110.7,0c-5.3,0-10.6,0-16,0c-1.9,0-1.9,3,0,3
					c20.3,0,40.5,0,60.8,0c47.6,0,95.2,0,142.8,0c55,0,110,0,165,0c42.9,0,85.9,0,128.8,0c10.8,0,21.6,0,32.5,0c1.7,0,3.4-0.1,5,0
					c7.4,0.4,9.7,6.3,9.7,12.5c0,30.8,0,61.6,0,92.4c0,53.8,0,107.5,0,161.3c0,47.4,0,94.8,0,142.2c0,12.2,0,24.3,0,36.5
					c0,2.3,0.3,4.9-0.3,7.2c-1.5,6.2-6.8,7.9-12.2,7.9c-23.2,0-46.4,0-69.5,0c-45.6,0-91.2,0-136.8,0c-55.1,0-110.2,0-165.3,0
					c-51.8,0-103.5,0-155.3,0c-35.2,0-70.4,0-105.6,0c-7.3,0-14.6,0.1-21.9,0c-6.1-0.1-11.2-3.6-11.6-10.3c-0.1-2,0-4,0-5.9
					c0-32.2,0-64.4,0-96.5c0-53.2,0-106.4,0-159.7c0-50.7,0-101.3,0-152c0-16.8,0-33.6,0-50.4c0-7.2-0.3-14.5,0-21.7
					c0.5-10.3,9.1-10.4,16.6-10.4c10.7,0,21.4,0,32.1,0c23.4,0,46.7,0,70.1,0c2,0,4.1-0.2,6.1,0.2c7.3,1.7,7.4,8.7,7.4,14.7
					c0,10.2,0,20.3,0,30.5C892.7,826.8,895.7,826.8,895.7,824.9z"/>
			</g>
		</g>
		<path class="st1" d="M1429,824.9h-398v-35.3c0-6.5-5.2-11.7-11.5-11.7H905.7c-6.1,0-11.1,5-11.1,11.2v35.7H769.9
			c-6.2,0-11.2,5.1-11.2,11.3v79.3v351.7v9c0,6.4,5.2,11.7,11.5,11.7h658.4c6.4,0,11.5-5.2,11.5-11.7v-9V856.4v-20.1
			C1440.2,829.9,1435.1,824.9,1429,824.9z"/>
		<path class="st1" d="M1429,824.9h-261v-35.3c0-6.5-5.2-11.7-11.5-11.7h-114.8c-6.1,0-11.1,5-11.1,11.2v35.7H769.9
			c-6.2,0-11.2,5.1-11.2,11.3v79.3v351.7v9c0,6.4,5.2,11.7,11.5,11.7h658.4c6.4,0,11.5-5.2,11.5-11.7v-9V856.4v-20.1
			C1440.2,829.9,1435.1,824.9,1429,824.9z"/>
		<path class="st3" d="M1440.2,836.2c0-6.3-5-11.4-11.2-11.4h-125.1v-35.3c0-6.5-5.2-11.7-11.5-11.7h-113.3c-6.1,0-11.1,5-11.1,11.2
			v35.7H769.9c-1.9,0-3.7,0.5-5.3,1.4c-3.5,1.9-5.8,5.7-5.8,10v79.3v351.7v9c0,6.4,5.2,11.7,11.5,11.7h658.4
			c6.4,0,11.5-5.2,11.5-11.7v-9V1257v0V836.2z"/>
	</g>
	<g>
		<g>
			<g>
				<circle class="st4" cx="1424" cy="716.3" r="7.4"/>
				<g>
					<line class="st5" x1="1420.4" y1="712.7" x2="1427.8" y2="720.1"/>
					<line class="st5" x1="1420.4" y1="720.1" x2="1427.8" y2="712.7"/>
				</g>
			</g>
		</g>
		<g>
			<circle class="st6" cx="1399" cy="716.3" r="7.4"/>
			<g>
				<g>
					<path class="st0" d="M1403,716.6h-8c-0.3,0-0.5-0.2-0.5-0.5s0.2-0.5,0.5-0.5h8c0.3,0,0.5,0.2,0.5,0.5S1403.3,716.6,1403,716.6z
						"/>
				</g>
			</g>
		</g>
	</g>
	<g>
		<text transform="matrix(1 0 0 1 797.665 722.0353)" class="st3 st7 st8">Style Editor</text>
		<g>
			<path class="st6" d="M779.3,704.7c-1.4,0-2.7,0.2-4,0.7c-2.9,1.1-5.2,3.3-6.4,6.1c-1.2,2.8-1.3,5.9-0.2,8.8
				c1.7,4.5,6,7.5,10.8,7.5c1.4,0,2.7-0.2,4-0.7c2.9-1.1,5.2-3.3,6.4-6.1c1.2-2.8,1.3-5.9,0.2-8.8
				C788.4,707.8,784.1,704.7,779.3,704.7z"/>
		</g>
		<g>
			<g>
				<g>
					<path class="st9" d="M784.4,718.2c1.3-2.4,0.3-5.5-2.3-7.2c-1.3-0.8-2.9-1.1-4.4-0.8c-1.5,0.3-2.8,1.3-3.6,2.6
						c-0.8,1.3-1.1,2.9-0.8,4.4c0.3,1.5,1.3,2.8,2.6,3.6c0.3,0.2,0.7,0.1,0.9-0.2c0.1-0.2,0.1-0.3,0.1-0.4l0,0l0-0.1
						c0-0.3,0-0.6,0.2-0.9c0.4-0.6,1.3-0.8,1.9-0.4l1,0.7c0.9,0.5,1.9,0.6,2.8,0.3l0.6,0.5c-1.2,0.6-2.6,0.6-3.8-0.2l-1-0.7
						c-0.3-0.2-0.7-0.1-0.9,0.2c-0.1,0.1-0.1,0.3-0.1,0.5c0.1,0.3,0,0.6-0.2,1c-0.4,0.6-1.3,0.8-1.9,0.4c-1.5-0.9-2.5-2.4-2.9-4.1
						c-0.4-1.7-0.1-3.5,0.8-4.9c0.9-1.5,2.4-2.5,4.1-2.9s3.5-0.1,4.9,0.8c3,1.9,4.1,5.6,2.5,8.4L784.4,718.2z"/>
				</g>
			</g>
			<g>
				<path class="st9" d="M786.2,721.8c0,0,0.1,0,0.1,0l0,0c0.1,0,0.1,0,0.2-0.1c0-0.1,0-0.2,0-0.2l-1.3-1.5c-0.4-0.5-0.9-1-1.3-1.5
					l-1.1-1.2c0,0-0.5-0.6-0.5-0.6l-0.1-0.1c-0.1-0.1-0.1-0.1-0.2-0.2c-0.1-0.1-0.2-0.2-0.3-0.3c-0.2-0.2-0.4-0.4-0.6-0.6
					c-0.1-0.1-0.3-0.2-0.5-0.2c-0.3,0-0.5,0.1-0.6,0.4c-0.1,0.2-0.1,0.4,0,0.6c0,0.1,0.2,0.3,0.4,0.5l0.2,0.1
					c0.2,0.2,0.5,0.4,0.7,0.6c0.2,0.2,0.4,0.3,0.6,0.5l0,0l3.3,2.9C785.6,721.2,785.9,721.5,786.2,721.8z"/>
				<path class="st9" d="M779.4,713.4L779.4,713.4c-0.2-0.2-0.2-0.2-0.3-0.3l0,0c-0.2-0.2-0.5-0.3-0.7-0.4c-0.4-0.1-0.8-0.2-1.2-0.2
					c0.2,0.2,0.5,0.4,0.6,0.9c0.1,0.2,0.1,0.4,0.2,0.7c0,0.1,0,0.1,0,0.2l0,0.1c0.1,0.3,0.3,0.5,0.7,0.6c0,0,0.1,0,0.1,0
					c0.4,0,0.8-0.3,0.9-0.6C779.7,714.1,779.6,713.8,779.4,713.4C779.4,713.5,779.4,713.5,779.4,713.4z"/>
			</g>
		</g>
	</g>
	<g>
		<g>
			<g>
				<g>
					<path class="st10" d="M1344.8,764.6H808.6c-5.1,0-9.3-4.2-9.3-9.3V754c0-5.1,4.2-9.3,9.3-9.3h536.1c5.1,0,9.3,4.2,9.3,9.3v1.4
						C1354,760.5,1349.9,764.6,1344.8,764.6z"/>
				</g>
			</g>
			<g>
				<text transform="matrix(1 0 0 1 807.3811 759.1294)" class="st2 st11 st12">Text_7</text>
			</g>
		</g>
		<g>
			<path class="st4" d="M1376.8,752.9c1.2,6.2-4.2,11.6-10.4,10.4c-3.5-0.7-6.3-3.5-6.9-6.9c-1.2-6.2,4.2-11.6,10.4-10.4
				C1373.3,746.7,1376.1,749.5,1376.8,752.9z"/>
			<g>
				<path class="st3" d="M1373.4,754h-0.7c-0.3-2-1.9-3.7-4-4v-0.7c0-0.4-0.3-0.7-0.7-0.7c-0.4,0-0.7,0.3-0.7,0.7v0.7
					c-2,0.3-3.7,1.9-4,4h-0.7c-0.4,0-0.7,0.3-0.7,0.7c0,0.4,0.3,0.7,0.7,0.7h0.7c0.3,2,1.9,3.7,4,4v0.7c0,0.4,0.3,0.7,0.7,0.7
					c0.4,0,0.7-0.3,0.7-0.7v-0.7c2-0.3,3.7-1.9,4-4h0.7c0.4,0,0.7-0.3,0.7-0.7C1374.1,754.3,1373.8,754,1373.4,754z M1368.8,757.9
					v-0.6c0-0.4-0.3-0.7-0.7-0.7c-0.4,0-0.7,0.3-0.7,0.7v0.6c-1.3-0.3-2.3-1.3-2.6-2.6h0.6c0.4,0,0.7-0.3,0.7-0.7
					c0-0.4-0.3-0.7-0.7-0.7h-0.6c0.3-1.3,1.3-2.3,2.6-2.6v0.6c0,0.4,0.3,0.7,0.7,0.7c0.4,0,0.7-0.3,0.7-0.7v-0.6
					c1.3,0.3,2.3,1.3,2.6,2.6h-0.6c-0.4,0-0.7,0.3-0.7,0.7c0,0.4,0.3,0.7,0.7,0.7h0.6C1371.1,756.6,1370.1,757.7,1368.8,757.9z"/>
				<circle class="st3" cx="1368.1" cy="754.7" r="0.7"/>
			</g>
		</g>
		<g>
			<path class="st4" d="M1399.6,752.9c1.2,6.2-4.2,11.6-10.4,10.4c-3.5-0.7-6.3-3.5-6.9-6.9c-1.2-6.2,4.2-11.6,10.4-10.4
				C1396.1,746.7,1398.9,749.5,1399.6,752.9z"/>
			<g>
				<g>
					<path class="st13" d="M1386.4,759.6c0.1,0,0.3,0,0.3-0.1l2.9-2.9l0.2,0.1c0.5,0.3,1.1,0.6,1.7,0.6c0.2,0,0.3,0,0.5,0l0,0
						c1,0,2-0.4,2.7-1.1c0.7-0.7,1.1-1.7,1.1-2.7c0-1.9-1.5-3.6-3.4-3.8c-0.2,0-0.3,0-0.5,0l0,0c-1,0-2,0.4-2.7,1.1
						c-0.7,0.7-1.1,1.7-1.1,2.7c0,0.8,0.3,1.6,0.8,2.3l0.1,0.2l-2.9,2.9c-0.1,0.1-0.1,0.2-0.1,0.3c0,0.1,0,0.2,0.1,0.3
						C1386.2,759.6,1386.3,759.6,1386.4,759.6z M1388.9,753.6c0-0.8,0.3-1.6,0.9-2.1c0.6-0.6,1.3-0.9,2.1-0.9l0,0c0.1,0,0.2,0,0.4,0
						c1.5,0.2,2.7,1.5,2.7,3c0,0.8-0.3,1.6-0.9,2.1c-0.6,0.6-1.3,0.9-2.1,0.9l0,0c-0.1,0-0.2,0-0.4,0
						C1390.1,756.4,1388.9,755.1,1388.9,753.6z"/>
				</g>
			</g>
		</g>
	</g>
	<g>
		<text transform="matrix(1 0 0 1 812.895 805.251)" class="st3 st15 st14">View</text>
	</g>
	<g>
		<text transform="matrix(1 0 0 1 1347.2891 805.2513)" class="st3 st15 st14">Custom</text>
	</g>
	<g>
		<text transform="matrix(1 0 0 1 1078.9004 805.2513)" class="st3 st15 st14">Layout</text>
	</g>
	<g>
		<text transform="matrix(1 0 0 1 1222.9929 805.2513)" class="st2 st7 st14">Text</text>
	</g>
	<g>
		<text transform="matrix(1 0 0 1 950.2329 805.2513)" class="st3 st15 st14">CSS</text>
	</g>
</g>
<g>
	<path id="bck_6_" class="st0" d="M2157,1295.7h-668.7c-8.6,0-15.6-7.1-15.6-15.9V711.7c0-8.8,7-15.9,15.6-15.9H2157
		c8.6,0,15.6,7.1,15.6,15.9v568.2C2172.6,1288.6,2165.6,1295.7,2157,1295.7z"/>
	<g>
		<g>
			<path class="st2" d="M1617.2,824.9v-35.7c0-6.2-5-11.2-11.1-11.2h-112.7c-6.4,0-11.5,5.2-11.5,11.7v486.5
				c0,6.4,5.2,11.7,11.5,11.7h658.4c6.4,0,11.5-5.2,11.5-11.7V836.2c0-6.3-5-11.3-11.2-11.3H1617.2z"/>
			<g>
				<path class="st0" d="M1618.7,824.9c0-10.6,0-21.3,0-31.9c0-4.9-0.2-9.6-4.1-13.3c-2.9-2.7-6.3-3.3-10-3.3
					c-22.4-0.2-44.7,0-67.1,0c-11.6,0-23.2,0-34.7,0c-7.4,0-15.7-1.1-20.3,6.2c-3.7,5.8-2,16.2-2,22.7c0,38.8,0,77.6,0,116.4
					c0,55.6,0,111.1,0,166.7c0,47.4,0,94.8,0,142.1c0,12.8,0,25.5,0,38.3c0,2.3-0.1,4.7,0,7c0.2,7.6,5.7,13.2,13.3,13.4
					c19.8,0.6,39.8,0,59.7,0c44.6,0,89.3,0,133.9,0c55.7,0,111.5,0,167.2,0c53.2,0,106.4,0,159.6,0c37,0,74.1,0,111.1,0
					c8.1,0,16.2,0,24.3,0c3.8,0,7.4-0.4,10.5-3c4.1-3.4,4.7-8.2,4.7-13.1c0-32.1,0-64.2,0-96.3c0-54.8,0-109.6,0-164.4
					c0-46.9,0-93.9,0-140.8c0-10.9,0-21.8,0-32.8c0-5.3-1-10.4-5.9-13.5c-3.1-2-6.4-2-9.9-2c-28.4,0-56.8,0-85.2,0
					c-51.9,0-103.8,0-155.7,0c-54.7,0-109.5,0-164.2,0c-36.9,0-73.8,0-110.7,0c-5.3,0-10.6,0-16,0c-1.9,0-1.9,3,0,3
					c20.3,0,40.5,0,60.8,0c47.6,0,95.2,0,142.8,0c55,0,110,0,165,0c42.9,0,85.9,0,128.8,0c10.8,0,21.6,0,32.5,0c1.7,0,3.4-0.1,5,0
					c7.4,0.4,9.7,6.3,9.7,12.5c0,30.8,0,61.6,0,92.4c0,53.8,0,107.5,0,161.3c0,47.4,0,94.8,0,142.2c0,12.2,0,24.3,0,36.5
					c0,2.3,0.3,4.9-0.3,7.2c-1.5,6.2-6.8,7.9-12.2,7.9c-23.2,0-46.4,0-69.5,0c-45.6,0-91.2,0-136.8,0c-55.1,0-110.2,0-165.3,0
					c-51.8,0-103.5,0-155.3,0c-35.2,0-70.4,0-105.6,0c-7.3,0-14.6,0.1-21.9,0c-6.1-0.1-11.2-3.6-11.6-10.3c-0.1-2,0-4,0-5.9
					c0-32.2,0-64.4,0-96.5c0-53.2,0-106.4,0-159.7c0-50.7,0-101.3,0-152c0-16.8,0-33.6,0-50.4c0-7.2-0.3-14.5,0-21.7
					c0.5-10.3,9.1-10.4,16.6-10.4c10.7,0,21.4,0,32.1,0c23.4,0,46.7,0,70.1,0c2,0,4.1-0.2,6.1,0.2c7.3,1.7,7.4,8.7,7.4,14.7
					c0,10.2,0,20.3,0,30.5C1615.7,826.8,1618.7,826.8,1618.7,824.9z"/>
			</g>
		</g>
		<path class="st1" d="M2152,824.9h-398v-35.3c0-6.5-5.2-11.7-11.5-11.7h-113.8c-6.1,0-11.1,5-11.1,11.2v35.7h-124.7
			c-6.2,0-11.2,5.1-11.2,11.3v79.3v351.7v9c0,6.4,5.2,11.7,11.5,11.7h658.4c6.4,0,11.5-5.2,11.5-11.7v-9V856.4v-20.1
			C2163.2,829.9,2158.1,824.9,2152,824.9z"/>
		<path class="st1" d="M2152,824.9h-261v-35.3c0-6.5-5.2-11.7-11.5-11.7h-114.8c-6.1,0-11.1,5-11.1,11.2v35.7h-260.7
			c-6.2,0-11.2,5.1-11.2,11.3v79.3v351.7v9c0,6.4,5.2,11.7,11.5,11.7h658.4c6.4,0,11.5-5.2,11.5-11.7v-9V856.4v-20.1
			C2163.2,829.9,2158.1,824.9,2152,824.9z"/>
		<path class="st1" d="M2163.2,836.2c0-6.3-5-11.4-11.2-11.4h-125.1v-35.3c0-6.5-5.2-11.7-11.5-11.7h-113.3c-6.1,0-11.1,5-11.1,11.2
			v35.7h-398.1c-1.9,0-3.7,0.5-5.3,1.4c-3.5,1.9-5.8,5.7-5.8,10v79.3v351.7v9c0,6.4,5.2,11.7,11.5,11.7h658.4
			c6.4,0,11.5-5.2,11.5-11.7v-9V1257v0V836.2z"/>
		<g>
			<path class="st3" d="M2026.6,824.9v-35.7c0-6.2,5-11.2,11.1-11.2h114.2c6.4,0,11.5,5.2,11.5,11.7v485.3c0,6.4-5.2,12.7-11.5,12.7
				h-658.4c-6.4,0-11.5-6.3-11.5-12.7V835.2c0-6.3,5-10.3,11.2-10.3H2026.6z"/>
		</g>
	</g>
	<g>
		<g>
			<g>
				<circle class="st4" cx="2147" cy="716.3" r="7.4"/>
				<g>
					<line class="st5" x1="2143.4" y1="712.7" x2="2150.8" y2="720.1"/>
					<line class="st5" x1="2143.4" y1="720.1" x2="2150.8" y2="712.7"/>
				</g>
			</g>
		</g>
		<g>
			<circle class="st6" cx="2122" cy="716.3" r="7.4"/>
			<g>
				<g>
					<path class="st0" d="M2126,716.6h-8c-0.3,0-0.5-0.2-0.5-0.5s0.2-0.5,0.5-0.5h8c0.3,0,0.5,0.2,0.5,0.5S2126.3,716.6,2126,716.6z
						"/>
				</g>
			</g>
		</g>
	</g>
	<g>
		<text transform="matrix(1 0 0 1 1520.665 722.0353)" class="st3 st7 st8">Style Editor</text>
		<g>
			<path class="st6" d="M1502.3,704.7c-1.4,0-2.7,0.2-4,0.7c-2.9,1.1-5.2,3.3-6.4,6.1c-1.2,2.8-1.3,5.9-0.2,8.8
				c1.7,4.5,6,7.5,10.8,7.5c1.4,0,2.7-0.2,4-0.7c2.9-1.1,5.2-3.3,6.4-6.1c1.2-2.8,1.3-5.9,0.2-8.8
				C1511.4,707.8,1507.1,704.7,1502.3,704.7z"/>
		</g>
		<g>
			<g>
				<g>
					<path class="st9" d="M1507.4,718.2c1.3-2.4,0.3-5.5-2.3-7.2c-1.3-0.8-2.9-1.1-4.4-0.8c-1.5,0.3-2.8,1.3-3.6,2.6
						s-1.1,2.9-0.8,4.4c0.3,1.5,1.3,2.8,2.6,3.6c0.3,0.2,0.7,0.1,0.9-0.2c0.1-0.2,0.1-0.3,0.1-0.4l0,0l0-0.1c0-0.3,0-0.6,0.2-0.9
						c0.4-0.6,1.3-0.8,1.9-0.4l1,0.7c0.9,0.5,1.9,0.6,2.8,0.3l0.6,0.5c-1.2,0.6-2.6,0.6-3.8-0.2l-1-0.7c-0.3-0.2-0.7-0.1-0.9,0.2
						c-0.1,0.1-0.1,0.3-0.1,0.5c0.1,0.3,0,0.6-0.2,1c-0.4,0.6-1.3,0.8-1.9,0.4c-1.5-0.9-2.5-2.4-2.9-4.1c-0.4-1.7-0.1-3.5,0.8-4.9
						c0.9-1.5,2.4-2.5,4.1-2.9c1.7-0.4,3.5-0.1,4.9,0.8c3,1.9,4.1,5.6,2.5,8.4L1507.4,718.2z"/>
				</g>
			</g>
			<g>
				<path class="st9" d="M1509.2,721.8c0,0,0.1,0,0.1,0l0,0c0.1,0,0.1,0,0.2-0.1c0-0.1,0-0.2,0-0.2l-1.3-1.5c-0.4-0.5-0.9-1-1.3-1.5
					l-1.1-1.2c0,0-0.5-0.6-0.5-0.6l-0.1-0.1c-0.1-0.1-0.1-0.1-0.2-0.2c-0.1-0.1-0.2-0.2-0.3-0.3c-0.2-0.2-0.4-0.4-0.6-0.6
					c-0.1-0.1-0.3-0.2-0.5-0.2c-0.3,0-0.5,0.1-0.6,0.4c-0.1,0.2-0.1,0.4,0,0.6c0,0.1,0.2,0.3,0.4,0.5l0.2,0.1
					c0.2,0.2,0.5,0.4,0.7,0.6c0.2,0.2,0.4,0.3,0.6,0.5l0,0l3.3,2.9C1508.6,721.2,1508.9,721.5,1509.2,721.8z"/>
				<path class="st9" d="M1502.4,713.4L1502.4,713.4c-0.2-0.2-0.2-0.2-0.3-0.3l0,0c-0.2-0.2-0.5-0.3-0.7-0.4
					c-0.4-0.1-0.8-0.2-1.2-0.2c0.2,0.2,0.5,0.4,0.6,0.9c0.1,0.2,0.1,0.4,0.2,0.7c0,0.1,0,0.1,0,0.2l0,0.1c0.1,0.3,0.3,0.5,0.7,0.6
					c0,0,0.1,0,0.1,0c0.4,0,0.8-0.3,0.9-0.6C1502.7,714.1,1502.6,713.8,1502.4,713.4C1502.4,713.5,1502.4,713.5,1502.4,713.4z"/>
			</g>
		</g>
	</g>
	<g>
		<g>
			<g>
				<g>
					<path class="st10" d="M2067.8,764.6h-536.1c-5.1,0-9.3-4.2-9.3-9.3V754c0-5.1,4.2-9.3,9.3-9.3h536.1c5.1,0,9.3,4.2,9.3,9.3v1.4
						C2077,760.5,2072.9,764.6,2067.8,764.6z"/>
				</g>
			</g>
			<g>
				<text transform="matrix(1 0 0 1 1530.3811 759.1294)" class="st2 st11 st12">Text_7</text>
			</g>
		</g>
		<g>
			<path class="st4" d="M2099.8,752.9c1.2,6.2-4.2,11.6-10.4,10.4c-3.5-0.7-6.3-3.5-6.9-6.9c-1.2-6.2,4.2-11.6,10.4-10.4
				C2096.3,746.7,2099.1,749.5,2099.8,752.9z"/>
			<g>
				<path class="st3" d="M2096.4,754h-0.7c-0.3-2-1.9-3.7-4-4v-0.7c0-0.4-0.3-0.7-0.7-0.7c-0.4,0-0.7,0.3-0.7,0.7v0.7
					c-2,0.3-3.7,1.9-4,4h-0.7c-0.4,0-0.7,0.3-0.7,0.7c0,0.4,0.3,0.7,0.7,0.7h0.7c0.3,2,1.9,3.7,4,4v0.7c0,0.4,0.3,0.7,0.7,0.7
					c0.4,0,0.7-0.3,0.7-0.7v-0.7c2-0.3,3.7-1.9,4-4h0.7c0.4,0,0.7-0.3,0.7-0.7C2097.1,754.3,2096.8,754,2096.4,754z M2091.8,757.9
					v-0.6c0-0.4-0.3-0.7-0.7-0.7c-0.4,0-0.7,0.3-0.7,0.7v0.6c-1.3-0.3-2.3-1.3-2.6-2.6h0.6c0.4,0,0.7-0.3,0.7-0.7
					c0-0.4-0.3-0.7-0.7-0.7h-0.6c0.3-1.3,1.3-2.3,2.6-2.6v0.6c0,0.4,0.3,0.7,0.7,0.7c0.4,0,0.7-0.3,0.7-0.7v-0.6
					c1.3,0.3,2.3,1.3,2.6,2.6h-0.6c-0.4,0-0.7,0.3-0.7,0.7c0,0.4,0.3,0.7,0.7,0.7h0.6C2094.1,756.6,2093.1,757.7,2091.8,757.9z"/>
				<circle class="st3" cx="2091.1" cy="754.7" r="0.7"/>
			</g>
		</g>
		<g>
			<path class="st4" d="M2122.6,752.9c1.2,6.2-4.2,11.6-10.4,10.4c-3.5-0.7-6.3-3.5-6.9-6.9c-1.2-6.2,4.2-11.6,10.4-10.4
				C2119.1,746.7,2121.9,749.5,2122.6,752.9z"/>
			<g>
				<g>
					<path class="st13" d="M2109.4,759.6c0.1,0,0.3,0,0.3-0.1l2.9-2.9l0.2,0.1c0.5,0.3,1.1,0.6,1.7,0.6c0.2,0,0.3,0,0.5,0l0,0
						c1,0,2-0.4,2.7-1.1c0.7-0.7,1.1-1.7,1.1-2.7c0-1.9-1.5-3.6-3.4-3.8c-0.2,0-0.3,0-0.5,0l0,0c-1,0-2,0.4-2.7,1.1
						c-0.7,0.7-1.1,1.7-1.1,2.7c0,0.8,0.3,1.6,0.8,2.3l0.1,0.2l-2.9,2.9c-0.1,0.1-0.1,0.2-0.1,0.3c0,0.1,0,0.2,0.1,0.3
						C2109.2,759.6,2109.3,759.6,2109.4,759.6z M2111.9,753.6c0-0.8,0.3-1.6,0.9-2.1c0.6-0.6,1.3-0.9,2.1-0.9l0,0c0.1,0,0.2,0,0.4,0
						c1.5,0.2,2.7,1.5,2.7,3c0,0.8-0.3,1.6-0.9,2.1c-0.6,0.6-1.3,0.9-2.1,0.9l0,0c-0.1,0-0.2,0-0.4,0
						C2113.1,756.4,2111.9,755.1,2111.9,753.6z"/>
				</g>
			</g>
		</g>
	</g>
	<g>
		<text transform="matrix(1 0 0 1 1535.895 805.251)" class="st3 st15 st14">View</text>
	</g>
	<g>
		<text transform="matrix(1 0 0 1 2070.2891 805.2513)" class="st2 st7 st14">Custom</text>
	</g>
	<g>
		<text transform="matrix(1 0 0 1 1801.9004 805.2513)" class="st3 st15 st14">Layout</text>
	</g>
	<g>
		<text transform="matrix(1 0 0 1 1945.9929 805.2513)" class="st3 st15 st14">Text</text>
	</g>
	<g>
		<text transform="matrix(1 0 0 1 1673.2329 805.2513)" class="st3 st15 st14">CSS</text>
	</g>
</g>
<g class="st16">
	<g class="st17">
		<path id="bck_2_" class="st0" d="M2323,681.7h-668.7c-8.6,0-15.6-7.1-15.6-15.9V97.7c0-8.8,7-15.9,15.6-15.9H2323
			c8.6,0,15.6,7.1,15.6,15.9v568.2C2338.6,674.6,2331.6,681.7,2323,681.7z"/>
		<path class="st3" d="M2329.5,175c0-6.1-4.8-11.1-10.9-11.1h-659.3c-6.4,0-11.5,5.6-11.5,12v486.4c0,6.4,5.2,11.5,11.5,11.5H2318
			c6.4,0,11.5-5.2,11.5-11.5V175z"/>
		<g>
			<text transform="matrix(1 0 0 1 1686.665 108.0353)" class="st3 st7 st8">Style Editor</text>
			<g>
				<path class="st6" d="M1668.3,90.7c-1.4,0-2.7,0.2-4,0.7c-2.9,1.1-5.2,3.3-6.4,6.1c-1.2,2.8-1.3,5.9-0.2,8.8
					c1.7,4.5,6,7.5,10.8,7.5c1.4,0,2.7-0.2,4-0.7c2.9-1.1,5.2-3.3,6.4-6.1c1.2-2.8,1.3-5.9,0.2-8.8
					C1677.4,93.8,1673.1,90.7,1668.3,90.7z"/>
			</g>
			<g>
				<g>
					<g>
						<path class="st9" d="M1673.4,104.2c1.3-2.4,0.3-5.5-2.3-7.2c-1.3-0.8-2.9-1.1-4.4-0.8c-1.5,0.3-2.8,1.3-3.6,2.6
							c-0.8,1.3-1.1,2.9-0.8,4.4c0.3,1.5,1.3,2.8,2.6,3.6c0.3,0.2,0.7,0.1,0.9-0.2c0.1-0.2,0.1-0.3,0.1-0.4l0,0l0-0.1
							c0-0.3,0-0.6,0.2-0.9c0.4-0.6,1.3-0.8,1.9-0.4l1,0.7c0.9,0.5,1.9,0.6,2.8,0.3l0.6,0.5c-1.2,0.6-2.6,0.6-3.8-0.2l-1-0.7
							c-0.3-0.2-0.7-0.1-0.9,0.2c-0.1,0.1-0.1,0.3-0.1,0.5c0.1,0.3,0,0.6-0.2,1c-0.4,0.6-1.3,0.8-1.9,0.4c-1.5-0.9-2.5-2.4-2.9-4.1
							c-0.4-1.7-0.1-3.5,0.8-4.9s2.4-2.5,4.1-2.9c1.7-0.4,3.5-0.1,4.9,0.8c3,1.9,4.1,5.6,2.5,8.4L1673.4,104.2z"/>
					</g>
				</g>
				<g>
					<path class="st9" d="M1675.2,107.8c0,0,0.1,0,0.1,0l0,0c0.1,0,0.1,0,0.2-0.1c0-0.1,0-0.2,0-0.2l-1.3-1.5
						c-0.4-0.5-0.9-1-1.3-1.5l-1.1-1.2c0,0-0.5-0.6-0.5-0.6l-0.1-0.1c-0.1-0.1-0.1-0.1-0.2-0.2c-0.1-0.1-0.2-0.2-0.3-0.3
						c-0.2-0.2-0.4-0.4-0.6-0.6c-0.1-0.1-0.3-0.2-0.5-0.2c-0.3,0-0.5,0.1-0.6,0.4c-0.1,0.2-0.1,0.4,0,0.6c0,0.1,0.2,0.3,0.4,0.5
						l0.2,0.1c0.2,0.2,0.5,0.4,0.7,0.6c0.2,0.2,0.4,0.3,0.6,0.5l0,0l3.3,2.9C1674.6,107.2,1674.9,107.5,1675.2,107.8z"/>
					<path class="st9" d="M1668.4,99.4L1668.4,99.4c-0.2-0.2-0.2-0.2-0.3-0.3l0,0c-0.2-0.2-0.5-0.3-0.7-0.4
						c-0.4-0.1-0.8-0.2-1.2-0.2c0.2,0.2,0.5,0.4,0.6,0.9c0.1,0.2,0.1,0.4,0.2,0.7c0,0.1,0,0.1,0,0.2l0,0.1c0.1,0.3,0.3,0.5,0.7,0.6
						c0,0,0.1,0,0.1,0c0.4,0,0.8-0.3,0.9-0.6C1668.7,100.1,1668.6,99.8,1668.4,99.4C1668.4,99.5,1668.4,99.5,1668.4,99.4z"/>
				</g>
			</g>
		</g>
	</g>
	<g class="st17">
		<g>
			<g>
				<g>
					<path class="st10" d="M1784.4,213.3h-86.4c-5.1,0-9.3-4.2-9.3-9.3v-1.4c0-5.1,4.2-9.3,9.3-9.3h86.4c5.1,0,9.3,4.2,9.3,9.3v1.4
						C1793.7,209.1,1789.5,213.3,1784.4,213.3z"/>
				</g>
			</g>
			<g>
				<text transform="matrix(1 0 0 1 1724.0127 207.8112)" class="st2 st11 st18">View</text>
			</g>
		</g>
		<g>
			<g>
				<g>
					<path class="st10" d="M2279.2,213.3h-86.4c-5.1,0-9.3-4.2-9.3-9.3v-1.4c0-5.1,4.2-9.3,9.3-9.3h86.4c5.1,0,9.3,4.2,9.3,9.3v1.4
						C2288.5,209.1,2284.3,213.3,2279.2,213.3z"/>
				</g>
			</g>
		</g>
		<g>
			<g>
				<g>
					<path class="st10" d="M2031.8,213.3h-86.4c-5.1,0-9.3-4.2-9.3-9.3v-1.4c0-5.1,4.2-9.3,9.3-9.3h86.4c5.1,0,9.3,4.2,9.3,9.3v1.4
						C2041.1,209.1,2036.9,213.3,2031.8,213.3z"/>
				</g>
			</g>
			<g>
				<text transform="matrix(1 0 0 1 1970.6241 206.8109)" class="st2 st11 st18">Layout</text>
			</g>
		</g>
		<g>
			<g>
				<g>
					<path class="st10" d="M2155.5,213.3h-86.4c-5.1,0-9.3-4.2-9.3-9.3v-1.4c0-5.1,4.2-9.3,9.3-9.3h86.4c5.1,0,9.3,4.2,9.3,9.3v1.4
						C2164.8,209.1,2160.6,213.3,2155.5,213.3z"/>
				</g>
			</g>
			<g>
				<text transform="matrix(1 0 0 1 2100.8545 206.8109)" class="st2 st11 st18">Text</text>
			</g>
		</g>
		<g>
			<g>
				<g>
					<path class="st4" d="M1908.1,213.3h-86.4c-5.1,0-9.3-4.2-9.3-9.3v-1.4c0-5.1,4.2-9.3,9.3-9.3h86.4c5.1,0,9.3,4.2,9.3,9.3v1.4
						C1917.4,209.1,1913.2,213.3,1908.1,213.3z"/>
				</g>
			</g>
			<g>
				<text transform="matrix(1 0 0 1 1853.8322 206.8109)" class="st3 st11 st18">CSS</text>
			</g>
		</g>
		<g>
			<g>
				<polygon class="st19" points="1894.1,208.8 1885.8,202 1887,212.7 1889.8,211.2 1892.6,216.5 1893.5,216 1890.6,210.7 				"/>
				<polygon points="1894.1,208.8 1885.8,202 1887,212.7 1889.8,211.2 1892.6,216.5 1893.5,216 1890.6,210.7 				"/>
			</g>
		</g>
	</g>
	<g class="st17">
		<g>
			<g>
				<g>
					<path class="st10" d="M2233.8,150.6h-536.1c-5.1,0-9.3-4.2-9.3-9.3V140c0-5.1,4.2-9.3,9.3-9.3h536.1c5.1,0,9.3,4.2,9.3,9.3v1.4
						C2243,146.5,2238.9,150.6,2233.8,150.6z"/>
				</g>
			</g>
			<g>
				<text transform="matrix(1 0 0 1 1696.3811 145.1294)" class="st2 st11 st12">Text_7</text>
			</g>
		</g>
	</g>
</g>
<text transform="matrix(1 0 0 1 19.8923 57.8077)" class="st20 st21">Style Editor Window - UI</text>
<g>
	<g>
		<g>
			<text transform="matrix(1 0 0 1 827.1252 995.0763)" class="st2 st7 st18">Align</text>
		</g>
		<g>
			<g>
				<g>
					<path class="st10" d="M1028.6,1019.6H836.4c-5.1,0-9.3-4.2-9.3-9.3v-1.4c0-5.1,4.2-9.3,9.3-9.3h192.2c5.1,0,9.3,4.2,9.3,9.3
						v1.4C1037.9,1015.4,1033.7,1019.6,1028.6,1019.6z"/>
				</g>
			</g>
			<g>
				<g>
					<path class="st4" d="M1017.7,999.7h10.9c5.1,0,9.3,4.2,9.3,9.3v1.4c0,5.1-4.2,9.3-9.3,9.3h-10.9V999.7z"/>
				</g>
			</g>
			<g>
				<polyline class="st22" points="1031.3,1011.6 1027.8,1015.1 1024.2,1011.6 				"/>
				<polyline class="st22" points="1024.2,1007.7 1027.8,1004.2 1031.3,1007.7 				"/>
			</g>
		</g>
		<g>
			<text transform="matrix(1 0 0 1 832.7163 1014.1124)" class="st2 st11 st12">Left</text>
		</g>
	</g>
	<g>
		<g>
			<text transform="matrix(1 0 0 1 827.1252 1044.7428)" class="st2 st7 st18">Vertical Align</text>
		</g>
		<g>
			<g>
				<g>
					<path class="st10" d="M1028.6,1069.3H836.4c-5.1,0-9.3-4.2-9.3-9.3v-1.4c0-5.1,4.2-9.3,9.3-9.3h192.2c5.1,0,9.3,4.2,9.3,9.3
						v1.4C1037.9,1065.1,1033.7,1069.3,1028.6,1069.3z"/>
				</g>
			</g>
			<g>
				<g>
					<path class="st4" d="M1017.7,1049.4h10.9c5.1,0,9.3,4.2,9.3,9.3v1.4c0,5.1-4.2,9.3-9.3,9.3h-10.9V1049.4z"/>
				</g>
			</g>
			<g>
				<polyline class="st22" points="1031.3,1061.3 1027.8,1064.8 1024.2,1061.3 				"/>
				<polyline class="st22" points="1024.2,1057.4 1027.8,1053.8 1031.3,1057.4 				"/>
			</g>
		</g>
		<g>
			<text transform="matrix(1 0 0 1 832.7163 1063.7792)" class="st2 st11 st12">Top</text>
		</g>
	</g>
	<g>
		<g>
			<text transform="matrix(1 0 0 1 827.1252 1144.4047)" class="st2 st7 st18">Display</text>
		</g>
		<g>
			<g>
				<g>
					<path class="st10" d="M1028.6,1168.9H836.4c-5.1,0-9.3-4.2-9.3-9.3v-1.4c0-5.1,4.2-9.3,9.3-9.3h192.2c5.1,0,9.3,4.2,9.3,9.3
						v1.4C1037.9,1164.8,1033.7,1168.9,1028.6,1168.9z"/>
				</g>
			</g>
			<g>
				<g>
					<path class="st4" d="M1017.7,1149h10.9c5.1,0,9.3,4.2,9.3,9.3v1.4c0,5.1-4.2,9.3-9.3,9.3h-10.9V1149z"/>
				</g>
			</g>
			<g>
				<polyline class="st22" points="1031.3,1160.9 1027.8,1164.5 1024.2,1160.9 				"/>
				<polyline class="st22" points="1024.2,1157 1027.8,1153.5 1031.3,1157 				"/>
			</g>
		</g>
		<g>
			<text transform="matrix(1 0 0 1 832.7163 1163.4408)" class="st2 st11 st12">Inline</text>
		</g>
	</g>
	<g>
		<g>
			<text transform="matrix(1 0 0 1 827.1252 1194.2811)" class="st2 st7 st18">White Space</text>
		</g>
		<g>
			<g>
				<g>
					<path class="st10" d="M1028.6,1218.8H836.4c-5.1,0-9.3-4.2-9.3-9.3v-1.4c0-5.1,4.2-9.3,9.3-9.3h192.2c5.1,0,9.3,4.2,9.3,9.3
						v1.4C1037.9,1214.6,1033.7,1218.8,1028.6,1218.8z"/>
				</g>
			</g>
			<g>
				<g>
					<path class="st4" d="M1017.7,1198.9h10.9c5.1,0,9.3,4.2,9.3,9.3v1.4c0,5.1-4.2,9.3-9.3,9.3h-10.9V1198.9z"/>
				</g>
			</g>
			<g>
				<polyline class="st22" points="1031.3,1210.8 1027.8,1214.3 1024.2,1210.8 				"/>
				<polyline class="st22" points="1024.2,1206.9 1027.8,1203.4 1031.3,1206.9 				"/>
			</g>
		</g>
		<g>
			<text transform="matrix(1 0 0 1 832.7163 1213.3175)" class="st2 st11 st12">Pre-Wrap</text>
		</g>
	</g>
	<g>
		<g>
			<text transform="matrix(1 0 0 1 827.1252 1244.0714)" class="st2 st7 st18">Word Break</text>
		</g>
		<g>
			<g>
				<g>
					<path class="st10" d="M1028.6,1268.6H836.4c-5.1,0-9.3-4.2-9.3-9.3v-1.4c0-5.1,4.2-9.3,9.3-9.3h192.2c5.1,0,9.3,4.2,9.3,9.3
						v1.4C1037.9,1264.4,1033.7,1268.6,1028.6,1268.6z"/>
				</g>
			</g>
			<g>
				<g>
					<path class="st4" d="M1017.7,1248.7h10.9c5.1,0,9.3,4.2,9.3,9.3v1.4c0,5.1-4.2,9.3-9.3,9.3h-10.9V1248.7z"/>
				</g>
			</g>
			<g>
				<polyline class="st22" points="1031.3,1260.6 1027.8,1264.1 1024.2,1260.6 				"/>
				<polyline class="st22" points="1024.2,1256.7 1027.8,1253.2 1031.3,1256.7 				"/>
			</g>
		</g>
		<g>
			<text transform="matrix(1 0 0 1 832.7163 1263.1075)" class="st2 st11 st12">Normal</text>
		</g>
	</g>
	<g>
		<g>
			<text transform="matrix(1 0 0 1 1149.2407 1144.4047)" class="st2 st7 st18">Fixed Width</text>
		</g>
		<g>
			<circle class="st23" cx="1140.9" cy="1139.5" r="5.5"/>
			<circle class="st4" cx="1140.9" cy="1139.5" r="3.1"/>
		</g>
	</g>
	<g>
		<g>
			<text transform="matrix(1 0 0 1 1149.2407 1194.2806)" class="st2 st7 st18">Fixed Height</text>
		</g>
		<g>
			<circle class="st23" cx="1140.9" cy="1189.2" r="5.5"/>
			<circle class="st4" cx="1140.9" cy="1189.2" r="3.1"/>
		</g>
	</g>
	<g>
		<g>
			<text transform="matrix(1 0 0 1 1149.2407 1044.7426)" class="st2 st7 st18">Allow Input</text>
		</g>
		<g>
			<circle class="st23" cx="1140.9" cy="1039.8" r="5.5"/>
			<circle class="st4" cx="1140.9" cy="1039.8" r="3.1"/>
		</g>
	</g>
	<g>
		<g>
			<text transform="matrix(1 0 0 1 1149.2407 1094.222)" class="st2 st7 st18">Selectable</text>
		</g>
		<g>
			<circle class="st23" cx="1140.9" cy="1089.6" r="5.5"/>
			<circle class="st4" cx="1140.9" cy="1089.6" r="3.1"/>
		</g>
	</g>
	<g>
		<g>
			<text transform="matrix(1 0 0 1 1149.2407 1244.0709)" class="st2 st7 st18">Syntax Highlight</text>
		</g>
		<g>
			<circle class="st23" cx="1140.9" cy="1239.1" r="5.5"/>
			<circle class="st4" cx="1140.9" cy="1239.1" r="3.1"/>
		</g>
	</g>
	<g>
		<g>
			<text transform="matrix(1 0 0 1 1135.3923 995.0756)" class="st2 st7 st18">Padding</text>
		</g>
		<g>
			<g>
				<path class="st10" d="M1336.9,1019.6h-192.2c-5.1,0-9.3-4.2-9.3-9.3v-1.4c0-5.1,4.2-9.3,9.3-9.3h192.2c5.1,0,9.3,4.2,9.3,9.3
					v1.4C1346.1,1015.4,1342,1019.6,1336.9,1019.6z"/>
			</g>
		</g>
	</g>
	<g>
		<g>
			<text transform="matrix(1 0 0 1 827.1255 1094.2218)" class="st2 st7 st18">Line Height</text>
		</g>
		<g>
			<g>
				<path class="st10" d="M1028.6,1119.1H836.4c-5.1,0-9.3-4.2-9.3-9.3v-1.4c0-5.1,4.2-9.3,9.3-9.3h192.2c5.1,0,9.3,4.2,9.3,9.3v1.4
					C1037.9,1114.9,1033.7,1119.1,1028.6,1119.1z"/>
			</g>
		</g>
		<g>
			<g>
				<path class="st24" d="M846.4,1116.6h-8.6c-3.8,0-7-3.1-7-7v-1c0-3.8,3.1-7,7-7h8.6c3.8,0,7,3.1,7,7v1
					C853.3,1113.5,850.2,1116.6,846.4,1116.6z"/>
			</g>
		</g>
		<g>
			<text transform="matrix(1 0 0 1 1043.0891 1112.5692)" class="st2 st11 st12">1</text>
		</g>
	</g>
</g>
<g>
	<g>
		<text transform="matrix(1 0 0 1 804.072 955.2809)" class="st4 st7 st25">Text</text>
	</g>
	<line class="st26" x1="787" y1="963.6" x2="1387" y2="963.6"/>
</g>
<g>
	<g>
		<g>
			<text transform="matrix(1 0 0 1 1522.344 906.0763)" class="st2 st11 st12">Custom property:pt(0,0)</text>
		</g>
		<g>
			<g>
				<circle class="st0" cx="1529.8" cy="918.4" r="7.4"/>
				<g>
					<g>
						<path class="st3" d="M1529.1,914.9c0,2.4,0,4.8,0,7.2c0,1.1,1.7,1.1,1.7,0c0-2.4,0-4.8,0-7.2
							C1530.8,913.8,1529.1,913.8,1529.1,914.9L1529.1,914.9z"/>
					</g>
				</g>
				<g>
					<g>
						<path class="st3" d="M1526.4,919.4c2.4,0,4.8,0,7.2,0c1.1,0,1.1-1.7,0-1.7c-2.4,0-4.8,0-7.2,0
							C1525.2,917.6,1525.2,919.4,1526.4,919.4L1526.4,919.4z"/>
					</g>
				</g>
			</g>
		</g>
	</g>
	<g>
		<text transform="matrix(1 0 0 1 1522.344 871.2809)" class="st4 st7 st25">Custom Properties</text>
	</g>
	<line class="st26" x1="1523" y1="879.6" x2="2123" y2="879.6"/>
</g>
<g>
	<g>
		<g>
			<text transform="matrix(1 0 0 1 86.9783 1137.2809)" class="st4 st7 st25">Text</text>
		</g>
		<line class="st26" x1="70" y1="1145.6" x2="670" y2="1145.6"/>
	</g>
	<g>
		<g>
			<text transform="matrix(1 0 0 1 86.9783 878.2809)" class="st4 st7 st25">Emphasis</text>
		</g>
		<line class="st26" x1="70" y1="886.6" x2="670" y2="886.6"/>
	</g>
	<g>
		<g>
			<g>
				<text transform="matrix(1 0 0 1 109.844 917.6615)" class="st2 st7 st18">Font Family</text>
			</g>
			<g>
				<g>
					<g>
						<path class="st10" d="M311.3,942.2H119.1c-5.1,0-9.3-4.2-9.3-9.3v-1.4c0-5.1,4.2-9.3,9.3-9.3h192.2c5.1,0,9.3,4.2,9.3,9.3v1.4
							C320.6,938,316.4,942.2,311.3,942.2z"/>
					</g>
				</g>
				<g>
					<g>
						<path class="st4" d="M300.4,922.3h10.9c5.1,0,9.3,4.2,9.3,9.3v1.4c0,5.1-4.2,9.3-9.3,9.3h-10.9V922.3z"/>
					</g>
				</g>
				<g>
					<polyline class="st22" points="314,934.2 310.5,937.7 307,934.2 					"/>
					<polyline class="st22" points="307,930.3 310.5,926.8 314,930.3 					"/>
				</g>
			</g>
			<g>
				<text transform="matrix(1 0 0 1 115.4351 936.6979)" class="st2 st11 st12">Arial, San-Serif</text>
			</g>
		</g>
		<g>
			<g>
				<text transform="matrix(1 0 0 1 109.8438 967.328)" class="st2 st7 st18">Weight</text>
			</g>
			<g>
				<g>
					<g>
						<path class="st10" d="M311.3,991.9H119.1c-5.1,0-9.3-4.2-9.3-9.3v-1.4c0-5.1,4.2-9.3,9.3-9.3h192.2c5.1,0,9.3,4.2,9.3,9.3v1.4
							C320.6,987.7,316.4,991.9,311.3,991.9z"/>
					</g>
				</g>
				<g>
					<g>
						<path class="st4" d="M300.4,972h10.9c5.1,0,9.3,4.2,9.3,9.3v1.4c0,5.1-4.2,9.3-9.3,9.3h-10.9V972z"/>
					</g>
				</g>
				<g>
					<polyline class="st22" points="314,983.9 310.5,987.4 307,983.9 					"/>
					<polyline class="st22" points="307,979.9 310.5,976.4 314,979.9 					"/>
				</g>
			</g>
			<g>
				<text transform="matrix(1 0 0 1 115.4348 986.3644)" class="st2 st11 st12">Normal</text>
			</g>
		</g>
		<g>
			<g>
				<text transform="matrix(1 0 0 1 109.8442 1017.3038)" class="st2 st7 st18">Style</text>
			</g>
			<g>
				<g>
					<g>
						<path class="st10" d="M311.3,1041.8H119.1c-5.1,0-9.3-4.2-9.3-9.3v-1.4c0-5.1,4.2-9.3,9.3-9.3h192.2c5.1,0,9.3,4.2,9.3,9.3
							v1.4C320.6,1037.7,316.4,1041.8,311.3,1041.8z"/>
					</g>
				</g>
				<g>
					<g>
						<path class="st4" d="M300.4,1021.9h10.9c5.1,0,9.3,4.2,9.3,9.3v1.4c0,5.1-4.2,9.3-9.3,9.3h-10.9V1021.9z"/>
					</g>
				</g>
				<g>
					<polyline class="st22" points="314,1033.8 310.5,1037.4 307,1033.8 					"/>
					<polyline class="st22" points="307,1029.9 310.5,1026.4 314,1029.9 					"/>
				</g>
			</g>
			<g>
				<text transform="matrix(1 0 0 1 115.4351 1036.34)" class="st2 st11 st12">Normal</text>
			</g>
		</g>
		<g>
			<g>
				<text transform="matrix(1 0 0 1 109.844 1067.1803)" class="st2 st7 st18">Decoration</text>
			</g>
			<g>
				<g>
					<g>
						<path class="st10" d="M311.3,1091.7H119.1c-5.1,0-9.3-4.2-9.3-9.3v-1.4c0-5.1,4.2-9.3,9.3-9.3h192.2c5.1,0,9.3,4.2,9.3,9.3
							v1.4C320.6,1087.5,316.4,1091.7,311.3,1091.7z"/>
					</g>
				</g>
				<g>
					<g>
						<path class="st4" d="M300.4,1071.8h10.9c5.1,0,9.3,4.2,9.3,9.3v1.4c0,5.1-4.2,9.3-9.3,9.3h-10.9V1071.8z"/>
					</g>
				</g>
				<g>
					<polyline class="st22" points="314,1083.7 310.5,1087.2 307,1083.7 					"/>
					<polyline class="st22" points="307,1079.8 310.5,1076.3 314,1079.8 					"/>
				</g>
			</g>
			<g>
				<text transform="matrix(1 0 0 1 115.4351 1086.2167)" class="st2 st11 st12">None</text>
			</g>
		</g>
		<g>
			<g>
				<text transform="matrix(1 0 0 1 418.1111 917.662)" class="st2 st7 st18">Size</text>
			</g>
			<g>
				<g>
					<path class="st10" d="M619.6,942.5H427.4c-5.1,0-9.3-4.2-9.3-9.3v-1.4c0-5.1,4.2-9.3,9.3-9.3h192.2c5.1,0,9.3,4.2,9.3,9.3v1.4
						C628.8,938.3,624.7,942.5,619.6,942.5z"/>
				</g>
			</g>
			<g>
				<g>
					<path class="st24" d="M437.4,940h-8.6c-3.8,0-7-3.1-7-7v-1c0-3.8,3.1-7,7-7h8.6c3.8,0,7,3.1,7,7v1
						C444.3,936.9,441.2,940,437.4,940z"/>
				</g>
			</g>
			<g>
				<text transform="matrix(1 0 0 1 634.0747 936.0094)" class="st2 st11 st12">14</text>
			</g>
		</g>
		<g>
			<g>
				<text transform="matrix(1 0 0 1 418.1118 967.3278)" class="st2 st7 st18">Font Color</text>
			</g>
			<path class="st10" d="M432.4,991.9h-8.9c-3,0-5.4-2.4-5.4-5.4v-8.9c0-3,2.4-5.4,5.4-5.4h8.9c3,0,5.4,2.4,5.4,5.4v8.9
				C437.8,989.5,435.4,991.9,432.4,991.9z"/>
		</g>
		<g>
			<g>
				<text transform="matrix(1 0 0 1 418.1118 1017.3031)" class="st2 st7 st18">Background Color</text>
			</g>
			<path class="st10" d="M432.4,1041.9h-8.9c-3,0-5.4-2.4-5.4-5.4v-8.9c0-3,2.4-5.4,5.4-5.4h8.9c3,0,5.4,2.4,5.4,5.4v8.9
				C437.8,1039.5,435.4,1041.9,432.4,1041.9z"/>
		</g>
	</g>
	<g>
		<path class="st27" d="M77.3,878.2h-5.4c-1.4,0-2.5-1.1-2.5-2.5v-5.4c0-1.4,1.1-2.5,2.5-2.5h5.4c1.4,0,2.5,1.1,2.5,2.5v5.4
			C79.7,877.1,78.6,878.2,77.3,878.2z"/>
		<path class="st4" d="M76.6,877h-4.2c-1.1,0-1.9-0.9-1.9-1.9v-4.2c0-1.1,0.9-1.9,1.9-1.9h4.2c1.1,0,1.9,0.9,1.9,1.9v4.2
			C78.5,876.2,77.7,877,76.6,877z"/>
		<g>
			<g>
				<g>
					<line class="st28" x1="72.2" y1="873.2" x2="74" y2="874.9"/>
					<line class="st28" x1="74" y1="874.8" x2="76.8" y2="871.2"/>
				</g>
			</g>
		</g>
	</g>
	<g>
		<path class="st27" d="M77.3,1137.2h-5.4c-1.4,0-2.5-1.1-2.5-2.5v-5.4c0-1.4,1.1-2.5,2.5-2.5h5.4c1.4,0,2.5,1.1,2.5,2.5v5.4
			C79.7,1136.1,78.6,1137.2,77.3,1137.2z"/>
		<g>
			<g>
				<g>
				</g>
			</g>
		</g>
	</g>
</g>
<g>
	<g>
		<g>
			<text transform="matrix(1 0 0 1 1538.2595 314.2809)" class="st4 st7 st25">Layout properties</text>
		</g>
		<line class="st26" x1="1521" y1="322.6" x2="2121" y2="322.6"/>
	</g>
	<g>
		<g>
			<text transform="matrix(1 0 0 1 1538.2595 508.2809)" class="st4 st7 st25">Layouter</text>
		</g>
		<line class="st26" x1="1521" y1="516.6" x2="2121" y2="516.6"/>
	</g>
	<g>
		<g>
			<text transform="matrix(1 0 0 1 1538.2595 264.2809)" class="st2 st7 st25">Inform submorphs</text>
		</g>
	</g>
	<g>
		<g>
			<g>
				<g>
					<g>
						<path class="st10" d="M1916.7,569.5h-192.2c-5.1,0-9.3-4.2-9.3-9.3v-1.4c0-5.1,4.2-9.3,9.3-9.3h192.2c5.1,0,9.3,4.2,9.3,9.3
							v1.4C1926,565.4,1921.8,569.5,1916.7,569.5z"/>
					</g>
				</g>
				<g>
					<g>
						<path class="st4" d="M1905.8,549.6h10.9c5.1,0,9.3,4.2,9.3,9.3v1.4c0,5.1-4.2,9.3-9.3,9.3h-10.9V549.6z"/>
					</g>
				</g>
				<g>
					<polyline class="st22" points="1919.4,561.5 1915.9,565.1 1912.4,561.5 					"/>
					<polyline class="st22" points="1912.4,557.6 1915.9,554.1 1919.4,557.6 					"/>
				</g>
			</g>
			<g>
				<text transform="matrix(1 0 0 1 1720.8501 564.0311)" class="st2 st11 st12">None</text>
			</g>
		</g>
	</g>
	<g>
		<g>
			<circle class="st23" cx="1832.3" cy="389" r="5.5"/>
			<circle class="st4" cx="1832.3" cy="389" r="3.1"/>
		</g>
		<g>
			<circle class="st23" cx="1832.3" cy="412.7" r="5.5"/>
			<circle class="st4" cx="1832.3" cy="412.7" r="3.1"/>
		</g>
		<g>
			<circle class="st23" cx="1832.3" cy="436" r="5.5"/>
			<circle class="st4" cx="1832.3" cy="436" r="3.1"/>
		</g>
		<g>
			<circle class="st23" cx="1832.3" cy="460" r="5.5"/>
			<circle class="st4" cx="1832.3" cy="460" r="3.1"/>
		</g>
		<g>
			<circle class="st23" cx="1873.6" cy="389" r="5.5"/>
			<circle class="st4" cx="1873.6" cy="389" r="3.1"/>
		</g>
		<g>
			<circle class="st23" cx="1873.6" cy="412.7" r="5.5"/>
			<circle class="st4" cx="1873.6" cy="412.7" r="3.1"/>
		</g>
		<g>
			<circle class="st23" cx="1873.6" cy="436" r="5.5"/>
			<circle class="st4" cx="1873.6" cy="436" r="3.1"/>
		</g>
		<g>
			<circle class="st23" cx="1873.6" cy="460" r="5.5"/>
			<circle class="st4" cx="1873.6" cy="460" r="3.1"/>
		</g>
		<g>
			<text transform="matrix(1 0 0 1 1760.1252 392.4681)" class="st2 st11 st12">Resize</text>
		</g>
		<g>
			<text transform="matrix(1 0 0 1 1760.1252 416.1346)" class="st2 st11 st12">Move</text>
		</g>
		<g>
			<text transform="matrix(1 0 0 1 1760.1252 439.8014)" class="st2 st11 st12">Center</text>
		</g>
		<g>
			<text transform="matrix(1 0 0 1 1760.1252 463.4684)" class="st2 st11 st12">Scale</text>
		</g>
		<g>
			<line class="st29" x1="1832.5" y1="354.6" x2="1832.5" y2="364.6"/>
			<g>
				<polygon class="st0" points="1830.3,355.6 1832.3,352.1 1834.3,355.6 				"/>
			</g>
			<g>
				<polygon class="st0" points="1830.3,363.6 1832.3,367.1 1834.3,363.6 				"/>
			</g>
		</g>
		<g>
			<g>
				<line class="st29" x1="1878" y1="359.1" x2="1869" y2="359.1"/>
				<g>
					<polygon class="st0" points="1878,357.5 1881.5,359.5 1878,361.5 					"/>
				</g>
				<g>
					<polygon class="st0" points="1870,357.5 1866.5,359.5 1870,361.5 					"/>
				</g>
			</g>
		</g>
	</g>
	<g>
		<path class="st27" d="M1528.8,264.2h-5.4c-1.4,0-2.5-1.1-2.5-2.5v-5.4c0-1.4,1.1-2.5,2.5-2.5h5.4c1.4,0,2.5,1.1,2.5,2.5v5.4
			C1531.3,263.1,1530.2,264.2,1528.8,264.2z"/>
		<path class="st4" d="M1528.2,263h-4.2c-1.1,0-1.9-0.9-1.9-1.9v-4.2c0-1.1,0.9-1.9,1.9-1.9h4.2c1.1,0,1.9,0.9,1.9,1.9v4.2
			C1530.1,262.2,1529.2,263,1528.2,263z"/>
		<g>
			<g>
				<g>
					<line class="st28" x1="1523.8" y1="259.2" x2="1525.5" y2="260.9"/>
					<line class="st28" x1="1525.5" y1="260.8" x2="1528.4" y2="257.2"/>
				</g>
			</g>
		</g>
	</g>
	<g>
		<path class="st27" d="M1528.8,508.2h-5.4c-1.4,0-2.5-1.1-2.5-2.5v-5.4c0-1.4,1.1-2.5,2.5-2.5h5.4c1.4,0,2.5,1.1,2.5,2.5v5.4
			C1531.3,507.1,1530.2,508.2,1528.8,508.2z"/>
		<path class="st4" d="M1528.2,507h-4.2c-1.1,0-1.9-0.9-1.9-1.9v-4.2c0-1.1,0.9-1.9,1.9-1.9h4.2c1.1,0,1.9,0.9,1.9,1.9v4.2
			C1530.1,506.2,1529.2,507,1528.2,507z"/>
		<g>
			<g>
				<g>
					<line class="st28" x1="1523.8" y1="503.2" x2="1525.5" y2="504.9"/>
					<line class="st28" x1="1525.5" y1="504.8" x2="1528.4" y2="501.2"/>
				</g>
			</g>
		</g>
	</g>
	<g>
		<path class="st27" d="M1528.8,314.2h-5.4c-1.4,0-2.5-1.1-2.5-2.5v-5.4c0-1.4,1.1-2.5,2.5-2.5h5.4c1.4,0,2.5,1.1,2.5,2.5v5.4
			C1531.3,313.1,1530.2,314.2,1528.8,314.2z"/>
		<path class="st4" d="M1528.2,313h-4.2c-1.1,0-1.9-0.9-1.9-1.9v-4.2c0-1.1,0.9-1.9,1.9-1.9h4.2c1.1,0,1.9,0.9,1.9,1.9v4.2
			C1530.1,312.2,1529.2,313,1528.2,313z"/>
		<g>
			<g>
				<g>
					<line class="st28" x1="1523.8" y1="309.2" x2="1525.5" y2="310.9"/>
					<line class="st28" x1="1525.5" y1="310.8" x2="1528.4" y2="307.2"/>
				</g>
			</g>
		</g>
	</g>
</g>
<g>
	<g>
		<g>
			<text transform="matrix(1 0 0 1 1057.2893 628.0803)" class="st2 st7 st25">Classname(s):</text>
		</g>
		<g>
			<g>
				<path class="st10" d="M1315.8,633.9h-156.2c-5.1,0-9.3-4.2-9.3-9.3v-1.4c0-5.1,4.2-9.3,9.3-9.3h156.2c5.1,0,9.3,4.2,9.3,9.3v1.4
					C1325.1,629.8,1320.9,633.9,1315.8,633.9z"/>
			</g>
		</g>
		<g>
			<text transform="matrix(1 0 0 1 1156.3979 627.446)" class="st2 st11 st12">Morph Box</text>
		</g>
	</g>
	<g>
		<g>
			<g>
				<path class="st0" d="M1386.4,633.9h-46.8c-5,0-9.1-4.1-9.1-9.1V623c0-5,4.1-9.1,9.1-9.1l46.8,0c5,0,9.1,4.1,9.1,9.1v1.8
					C1395.5,629.8,1391.4,633.9,1386.4,633.9z"/>
			</g>
		</g>
		<g>
			<text transform="matrix(1 0 0 1 1348.0154 628.0579)" class="st3 st11 st18">Apply</text>
		</g>
	</g>
</g>
<g>
	<defs>
		<rect id="SVGID_1_" x="791.4" y="242.9" width="200" height="111"/>
	</defs>
	<clipPath id="SVGID_2_">
		<use xlink:href="#SVGID_1_"  style="overflow:visible;"/>
	</clipPath>
</g>
<g>
	<g>
		<polygon class="st19" points="0.7,255.8 -7.6,249 -6.3,259.7 -3.6,258.2 -0.7,263.5 0.1,263 -2.7,257.7 		"/>
		<polygon points="0.7,255.8 -7.6,249 -6.3,259.7 -3.6,258.2 -0.7,263.5 0.1,263 -2.7,257.7 		"/>
	</g>
</g>
<g>
	<g>
		<g>
			<text transform="matrix(1 0 0 1 88.9138 264.2809)" class="st4 st7 st25">Fill</text>
		</g>
		<line class="st26" x1="71" y1="272.6" x2="671" y2="272.6"/>
	</g>
	<g>
		<g>
			<g>
				<text transform="matrix(1 0 0 1 111.7791 293.8268)" class="st2 st7 st18">Opacity</text>
			</g>
			<g>
				<g>
					<path class="st10" d="M313.3,318.7H121c-5.1,0-9.3-4.2-9.3-9.3V308c0-5.1,4.2-9.3,9.3-9.3h192.2c5.1,0,9.3,4.2,9.3,9.3v1.4
						C322.5,314.5,318.3,318.7,313.3,318.7z"/>
				</g>
			</g>
			<g>
				<g>
					<path class="st24" d="M131,316.2h-8.6c-3.8,0-7-3.1-7-7v-1c0-3.8,3.1-7,7-7h8.6c3.8,0,7,3.1,7,7v1
						C138,313.1,134.9,316.2,131,316.2z"/>
				</g>
			</g>
			<g>
				<text transform="matrix(1 0 0 1 327.7427 312.1742)" class="st2 st11 st12">1</text>
			</g>
		</g>
		<g>
			<g>
				<text transform="matrix(1 0 0 1 420.0469 293.8268)" class="st2 st7 st18">Color</text>
			</g>
			<path class="st10" d="M434.3,318.4h-8.9c-3,0-5.4-2.4-5.4-5.4v-8.9c0-3,2.4-5.4,5.4-5.4h8.9c3,0,5.4,2.4,5.4,5.4v8.9
				C439.7,316,437.3,318.4,434.3,318.4z"/>
		</g>
	</g>
	<g>
		<g>
			<text transform="matrix(1 0 0 1 111.7791 403.7433)" class="st2 st7 st18">Width</text>
		</g>
		<g>
			<g>
				<path class="st10" d="M313.3,428.6l-192.2,0c-5.1,0-9.3-4.2-9.3-9.3v-1.4c0-5.1,4.2-9.3,9.3-9.3h192.2c5.1,0,9.3,4.2,9.3,9.3
					v1.4C322.5,424.4,318.3,428.6,313.3,428.6z"/>
			</g>
		</g>
		<g>
			<g>
				<path class="st24" d="M131,426.1h-8.6c-3.8,0-7-3.1-7-7v-1c0-3.8,3.1-7,7-7h8.6c3.8,0,7,3.1,7,7v1
					C138,423,134.9,426.1,131,426.1z"/>
			</g>
		</g>
		<g>
			<text transform="matrix(1 0 0 1 327.7427 422.0907)" class="st2 st11 st12">1</text>
		</g>
	</g>
	<g>
		<g>
			<text transform="matrix(1 0 0 1 111.7791 448.409)" class="st2 st7 st18">Radius</text>
		</g>
		<g>
			<g>
				<path class="st10" d="M313.3,473.3H121c-5.1,0-9.3-4.2-9.3-9.3v-1.4c0-5.1,4.2-9.3,9.3-9.3h192.2c5.1,0,9.3,4.2,9.3,9.3v1.4
					C322.5,469.1,318.3,473.3,313.3,473.3z"/>
			</g>
		</g>
		<g>
			<g>
				<path class="st24" d="M131,470.8h-8.6c-3.8,0-7-3.1-7-7v-1c0-3.8,3.1-7,7-7h8.6c3.8,0,7,3.1,7,7v1
					C138,467.7,134.9,470.8,131,470.8z"/>
			</g>
		</g>
		<g>
			<text transform="matrix(1 0 0 1 327.7427 466.7564)" class="st2 st11 st12">0</text>
		</g>
	</g>
	<g>
		<g>
			<text transform="matrix(1 0 0 1 88.9138 374.2809)" class="st4 st7 st25">Border</text>
		</g>
		<line class="st26" x1="71" y1="382.6" x2="671" y2="382.6"/>
	</g>
	<g>
		<g>
			<text transform="matrix(1 0 0 1 420.0469 403.7435)" class="st2 st7 st18">Color</text>
		</g>
		<path class="st10" d="M434.3,428.3h-8.9c-3,0-5.4-2.4-5.4-5.4v-8.9c0-3,2.4-5.4,5.4-5.4h8.9c3,0,5.4,2.4,5.4,5.4v8.9
			C439.7,425.9,437.3,428.3,434.3,428.3z"/>
	</g>
	<g>
		<g>
			<text transform="matrix(1 0 0 1 420.0469 448.4095)" class="st2 st7 st18">Style</text>
		</g>
		<g>
			<g>
				<g>
					<path class="st10" d="M621.5,472.9H429.3c-5.1,0-9.3-4.2-9.3-9.3v-1.4c0-5.1,4.2-9.3,9.3-9.3h192.2c5.1,0,9.3,4.2,9.3,9.3v1.4
						C630.8,468.8,626.6,472.9,621.5,472.9z"/>
				</g>
			</g>
			<g>
				<g>
					<path class="st4" d="M610.6,453h10.9c5.1,0,9.3,4.2,9.3,9.3v1.4c0,5.1-4.2,9.3-9.3,9.3h-10.9V453z"/>
				</g>
			</g>
			<g>
				<polyline class="st22" points="624.2,465 620.7,468.5 617.2,465 				"/>
				<polyline class="st22" points="617.2,461 620.7,457.5 624.2,461 				"/>
			</g>
		</g>
		<g>
			<text transform="matrix(1 0 0 1 425.6379 467.4456)" class="st2 st11 st12">Solid</text>
		</g>
	</g>
	<g>
		<g>
			<text transform="matrix(1 0 0 1 88.9138 535.2809)" class="st4 st7 st25">Misc</text>
		</g>
		<line class="st26" x1="71" y1="543.6" x2="671" y2="543.6"/>
	</g>
	<g>
		<g>
			<text transform="matrix(1 0 0 1 111.7793 564.7435)" class="st2 st7 st18">Clip Mode</text>
		</g>
		<g>
			<g>
				<g>
					<path class="st10" d="M313.3,589.3H121c-5.1,0-9.3-4.2-9.3-9.3v-1.4c0-5.1,4.2-9.3,9.3-9.3h192.2c5.1,0,9.3,4.2,9.3,9.3v1.4
						C322.5,585.1,318.3,589.3,313.3,589.3z"/>
				</g>
			</g>
			<g>
				<g>
					<path class="st4" d="M302.3,569.4h10.9c5.1,0,9.3,4.2,9.3,9.3v1.4c0,5.1-4.2,9.3-9.3,9.3h-10.9V569.4z"/>
				</g>
			</g>
			<g>
				<polyline class="st22" points="315.9,581.3 312.4,584.8 308.9,581.3 				"/>
				<polyline class="st22" points="308.9,577.4 312.4,573.8 315.9,577.4 				"/>
			</g>
		</g>
		<g>
			<text transform="matrix(1 0 0 1 117.3704 583.7797)" class="st2 st11 st12">Visible</text>
		</g>
	</g>
	<g>
		<g>
			<text transform="matrix(1 0 0 1 420.0471 564.7435)" class="st2 st7 st18">Tooltip</text>
		</g>
		<g>
			<g>
				<g>
					<path class="st10" d="M621.5,589.3H429.3c-5.1,0-9.3-4.2-9.3-9.3v-1.4c0-5.1,4.2-9.3,9.3-9.3h192.2c5.1,0,9.3,4.2,9.3,9.3v1.4
						C630.8,585.1,626.6,589.3,621.5,589.3z"/>
				</g>
			</g>
		</g>
	</g>
	<g>
		<g>
			<text transform="matrix(1 0 0 1 111.7793 609.4095)" class="st2 st7 st18">Hand style</text>
		</g>
		<g>
			<g>
				<g>
					<path class="st10" d="M313.3,633.9H121c-5.1,0-9.3-4.2-9.3-9.3v-1.4c0-5.1,4.2-9.3,9.3-9.3h192.2c5.1,0,9.3,4.2,9.3,9.3v1.4
						C322.5,629.8,318.3,633.9,313.3,633.9z"/>
				</g>
			</g>
			<g>
				<g>
					<path class="st4" d="M302.3,614h10.9c5.1,0,9.3,4.2,9.3,9.3v1.4c0,5.1-4.2,9.3-9.3,9.3h-10.9V614z"/>
				</g>
			</g>
			<g>
				<polyline class="st22" points="315.9,626 312.4,629.5 308.9,626 				"/>
				<polyline class="st22" points="308.9,622 312.4,618.5 315.9,622 				"/>
			</g>
		</g>
		<g>
			<text transform="matrix(1 0 0 1 117.3704 628.4458)" class="st2 st11 st12">Auto</text>
		</g>
	</g>
	<g>
		<path class="st27" d="M79.3,264.2h-5.4c-1.4,0-2.5-1.1-2.5-2.5v-5.4c0-1.4,1.1-2.5,2.5-2.5h5.4c1.4,0,2.5,1.1,2.5,2.5v5.4
			C81.7,263.1,80.6,264.2,79.3,264.2z"/>
		<path class="st4" d="M78.6,263h-4.2c-1.1,0-1.9-0.9-1.9-1.9v-4.2c0-1.1,0.9-1.9,1.9-1.9h4.2c1.1,0,1.9,0.9,1.9,1.9v4.2
			C80.5,262.2,79.7,263,78.6,263z"/>
		<g>
			<g>
				<g>
					<line class="st28" x1="74.2" y1="259.2" x2="76" y2="260.9"/>
					<line class="st28" x1="76" y1="260.8" x2="78.8" y2="257.2"/>
				</g>
			</g>
		</g>
	</g>
	<g>
		<path class="st27" d="M79.3,535.2h-5.4c-1.4,0-2.5-1.1-2.5-2.5v-5.4c0-1.4,1.1-2.5,2.5-2.5h5.4c1.4,0,2.5,1.1,2.5,2.5v5.4
			C81.7,534.1,80.6,535.2,79.3,535.2z"/>
		<path class="st4" d="M78.6,534h-4.2c-1.1,0-1.9-0.9-1.9-1.9v-4.2c0-1.1,0.9-1.9,1.9-1.9h4.2c1.1,0,1.9,0.9,1.9,1.9v4.2
			C80.5,533.2,79.7,534,78.6,534z"/>
		<g>
			<g>
				<g>
					<line class="st28" x1="74.2" y1="530.2" x2="76" y2="531.9"/>
					<line class="st28" x1="76" y1="531.8" x2="78.8" y2="528.2"/>
				</g>
			</g>
		</g>
	</g>
	<g>
		<path class="st27" d="M79.3,374.2h-5.4c-1.4,0-2.5-1.1-2.5-2.5v-5.4c0-1.4,1.1-2.5,2.5-2.5h5.4c1.4,0,2.5,1.1,2.5,2.5v5.4
			C81.7,373.1,80.6,374.2,79.3,374.2z"/>
		<path class="st4" d="M78.6,373h-4.2c-1.1,0-1.9-0.9-1.9-1.9v-4.2c0-1.1,0.9-1.9,1.9-1.9h4.2c1.1,0,1.9,0.9,1.9,1.9v4.2
			C80.5,372.2,79.7,373,78.6,373z"/>
		<g>
			<g>
				<g>
					<line class="st28" x1="74.2" y1="369.2" x2="76" y2="370.9"/>
					<line class="st28" x1="76" y1="370.8" x2="78.8" y2="367.2"/>
				</g>
			</g>
		</g>
	</g>
</g>
<g>
	<path class="st27" d="M794.3,955.2h-5.4c-1.4,0-2.5-1.1-2.5-2.5v-5.4c0-1.4,1.1-2.5,2.5-2.5h5.4c1.4,0,2.5,1.1,2.5,2.5v5.4
		C796.7,954.1,795.6,955.2,794.3,955.2z"/>
	<path class="st4" d="M793.6,954h-4.2c-1.1,0-1.9-0.9-1.9-1.9v-4.2c0-1.1,0.9-1.9,1.9-1.9h4.2c1.1,0,1.9,0.9,1.9,1.9v4.2
		C795.5,953.2,794.7,954,793.6,954z"/>
	<g>
		<g>
			<g>
				<line class="st28" x1="789.2" y1="950.2" x2="791" y2="951.9"/>
				<line class="st28" x1="791" y1="951.8" x2="793.8" y2="948.2"/>
			</g>
		</g>
	</g>
</g>
<g>
	<g>
		<g>
			<g>
				<g>
					<path class="st10" d="M690.3,1268V847.5c0-2,1.7-3.7,3.7-3.7h0.6c2,0,3.7,1.7,3.7,3.7V1268c0,2-1.7,3.7-3.7,3.7H694
						C691.9,1271.6,690.3,1270,690.3,1268z"/>
				</g>
			</g>
		</g>
		<g>
			<g>
				<g>
					<path class="st6" d="M691.3,955.3v-43.5c0-1.5,1.2-2.7,2.7-2.7h0.4c1.5,0,2.7,1.2,2.7,2.7v43.5c0,1.5-1.2,2.7-2.7,2.7H694
						C692.6,958,691.3,956.8,691.3,955.3z"/>
				</g>
			</g>
		</g>
	</g>
</g>
<g>
	<g>
		<g>
			<g>
				<g>
					<path class="st10" d="M1405.3,1268V847.5c0-2,1.7-3.7,3.7-3.7h0.6c2,0,3.7,1.7,3.7,3.7V1268c0,2-1.7,3.7-3.7,3.7h-0.6
						C1406.9,1271.6,1405.3,1270,1405.3,1268z"/>
				</g>
			</g>
		</g>
		<g>
			<g>
				<g>
					<path class="st6" d="M1406.3,955.3v-43.5c0-1.5,1.2-2.7,2.7-2.7h0.4c1.5,0,2.7,1.2,2.7,2.7v43.5c0,1.5-1.2,2.7-2.7,2.7h-0.4
						C1407.6,958,1406.3,956.8,1406.3,955.3z"/>
				</g>
			</g>
		</g>
	</g>
</g>
<g>
	<defs>
		<rect id="SVGID_5_" x="85" y="1153.6" width="566" height="134"/>
	</defs>
	<clipPath id="SVGID_4_">
		<use xlink:href="#SVGID_5_"  style="overflow:visible;"/>
	</clipPath>
	<g style="clip-path:url(#SVGID_4_);">
		<g>
			<g>
				<text transform="matrix(1 0 0 1 109.8442 1186.0763)" class="st2 st7 st18">Align</text>
			</g>
			<g>
				<g>
					<g>
						<path class="st10" d="M311.3,1210.6H119.1c-5.1,0-9.3-4.2-9.3-9.3v-1.4c0-5.1,4.2-9.3,9.3-9.3h192.2c5.1,0,9.3,4.2,9.3,9.3
							v1.4C320.6,1206.4,316.4,1210.6,311.3,1210.6z"/>
					</g>
				</g>
				<g>
					<g>
						<path class="st4" d="M300.4,1190.7h10.9c5.1,0,9.3,4.2,9.3,9.3v1.4c0,5.1-4.2,9.3-9.3,9.3h-10.9V1190.7z"/>
					</g>
				</g>
				<g>
					<polyline class="st22" points="314,1202.6 310.5,1206.1 307,1202.6 					"/>
					<polyline class="st22" points="307,1198.7 310.5,1195.2 314,1198.7 					"/>
				</g>
			</g>
			<g>
				<text transform="matrix(1 0 0 1 115.4351 1205.1124)" class="st2 st11 st12">Left</text>
			</g>
		</g>
		<g>
			<g>
				<text transform="matrix(1 0 0 1 109.8442 1235.7428)" class="st2 st7 st18">Vertical Align</text>
			</g>
			<g>
				<g>
					<g>
						<path class="st10" d="M311.3,1260.3H119.1c-5.1,0-9.3-4.2-9.3-9.3v-1.4c0-5.1,4.2-9.3,9.3-9.3h192.2c5.1,0,9.3,4.2,9.3,9.3
							v1.4C320.6,1256.1,316.4,1260.3,311.3,1260.3z"/>
					</g>
				</g>
				<g>
					<g>
						<path class="st4" d="M300.4,1240.4h10.9c5.1,0,9.3,4.2,9.3,9.3v1.4c0,5.1-4.2,9.3-9.3,9.3h-10.9V1240.4z"/>
					</g>
				</g>
				<g>
					<polyline class="st22" points="314,1252.3 310.5,1255.8 307,1252.3 					"/>
					<polyline class="st22" points="307,1248.4 310.5,1244.8 314,1248.4 					"/>
				</g>
			</g>
			<g>
				<text transform="matrix(1 0 0 1 115.4351 1254.7792)" class="st2 st11 st12">Top</text>
			</g>
		</g>
		<g>
			<g>
				<text transform="matrix(1 0 0 1 431.9595 1235.7426)" class="st2 st7 st18">Allow Input</text>
			</g>
			<g>
				<circle class="st23" cx="423.6" cy="1230.8" r="5.5"/>
				<circle class="st4" cx="423.6" cy="1230.8" r="3.1"/>
			</g>
		</g>
		<g>
			<g>
				<text transform="matrix(1 0 0 1 431.9595 1285.222)" class="st2 st7 st18">Selectable</text>
			</g>
			<g>
				<circle class="st23" cx="423.6" cy="1280.6" r="5.5"/>
				<circle class="st4" cx="423.6" cy="1280.6" r="3.1"/>
			</g>
		</g>
		<g>
			<g>
				<text transform="matrix(1 0 0 1 418.1113 1186.0756)" class="st2 st7 st18">Padding</text>
			</g>
			<g>
				<g>
					<path class="st10" d="M619.6,1210.6H427.4c-5.1,0-9.3-4.2-9.3-9.3v-1.4c0-5.1,4.2-9.3,9.3-9.3h192.2c5.1,0,9.3,4.2,9.3,9.3v1.4
						C628.8,1206.4,624.7,1210.6,619.6,1210.6z"/>
				</g>
			</g>
		</g>
		<g>
			<g>
				<text transform="matrix(1 0 0 1 109.8442 1285.2218)" class="st2 st7 st18">Line Height</text>
			</g>
			<g>
				<g>
					<path class="st10" d="M311.3,1310.1H119.1c-5.1,0-9.3-4.2-9.3-9.3v-1.4c0-5.1,4.2-9.3,9.3-9.3h192.2c5.1,0,9.3,4.2,9.3,9.3v1.4
						C320.6,1305.9,316.4,1310.1,311.3,1310.1z"/>
				</g>
			</g>
			<g>
				<g>
					<path class="st24" d="M129.1,1307.6h-8.6c-3.8,0-7-3.1-7-7v-1c0-3.8,3.1-7,7-7h8.6c3.8,0,7,3.1,7,7v1
						C136.1,1304.5,132.9,1307.6,129.1,1307.6z"/>
				</g>
			</g>
			<g>
				<text transform="matrix(1 0 0 1 325.8081 1303.5692)" class="st2 st11 st12">1</text>
			</g>
		</g>
	</g>
	<rect x="90.7" y="1156.3" style="opacity:0.7;clip-path:url(#SVGID_4_);fill:#FFFFFF;" width="241.1" height="150.1"/>
</g>
<g>
	<defs>
		<rect id="SVGID_7_" x="809" y="825.6" width="550" height="96"/>
	</defs>
	<clipPath id="SVGID_6_">
		<use xlink:href="#SVGID_7_"  style="overflow:visible;"/>
	</clipPath>
	<g class="st30">
		<g>
			<g>
				<text transform="matrix(1 0 0 1 827.1252 740.6615)" class="st2 st7 st18">Font Family</text>
			</g>
			<g>
				<g>
					<g>
						<path class="st10" d="M1028.6,765.2H836.4c-5.1,0-9.3-4.2-9.3-9.3v-1.4c0-5.1,4.2-9.3,9.3-9.3h192.2c5.1,0,9.3,4.2,9.3,9.3
							v1.4C1037.9,761,1033.7,765.2,1028.6,765.2z"/>
					</g>
				</g>
				<g>
					<g>
						<path class="st4" d="M1017.7,745.3h10.9c5.1,0,9.3,4.2,9.3,9.3v1.4c0,5.1-4.2,9.3-9.3,9.3h-10.9V745.3z"/>
					</g>
				</g>
				<g>
					<polyline class="st22" points="1031.3,757.2 1027.8,760.7 1024.2,757.2 					"/>
					<polyline class="st22" points="1024.2,753.3 1027.8,749.8 1031.3,753.3 					"/>
				</g>
			</g>
			<g>
				<text transform="matrix(1 0 0 1 832.7163 759.6979)" class="st2 st11 st12">Arial, San-Serif</text>
			</g>
		</g>
		<g>
			<g>
				<text transform="matrix(1 0 0 1 827.125 790.328)" class="st2 st7 st18">Weight</text>
			</g>
			<g>
				<g>
					<g>
						<path class="st10" d="M1028.6,814.9H836.4c-5.1,0-9.3-4.2-9.3-9.3v-1.4c0-5.1,4.2-9.3,9.3-9.3h192.2c5.1,0,9.3,4.2,9.3,9.3
							v1.4C1037.9,810.7,1033.7,814.9,1028.6,814.9z"/>
					</g>
				</g>
				<g>
					<g>
						<path class="st4" d="M1017.7,795h10.9c5.1,0,9.3,4.2,9.3,9.3v1.4c0,5.1-4.2,9.3-9.3,9.3h-10.9V795z"/>
					</g>
				</g>
				<g>
					<polyline class="st22" points="1031.3,806.9 1027.8,810.4 1024.2,806.9 					"/>
					<polyline class="st22" points="1024.2,802.9 1027.8,799.4 1031.3,802.9 					"/>
				</g>
			</g>
			<g>
				<text transform="matrix(1 0 0 1 832.7161 809.3644)" class="st2 st11 st12">Normal</text>
			</g>
		</g>
		<g>
			<g>
				<text transform="matrix(1 0 0 1 827.1255 840.3038)" class="st2 st7 st18">Style</text>
			</g>
			<g>
				<g>
					<g>
						<path class="st10" d="M1028.6,864.8H836.4c-5.1,0-9.3-4.2-9.3-9.3v-1.4c0-5.1,4.2-9.3,9.3-9.3h192.2c5.1,0,9.3,4.2,9.3,9.3
							v1.4C1037.9,860.7,1033.7,864.8,1028.6,864.8z"/>
					</g>
				</g>
				<g>
					<g>
						<path class="st4" d="M1017.7,844.9h10.9c5.1,0,9.3,4.2,9.3,9.3v1.4c0,5.1-4.2,9.3-9.3,9.3h-10.9V844.9z"/>
					</g>
				</g>
				<g>
					<polyline class="st22" points="1031.3,856.8 1027.8,860.4 1024.2,856.8 					"/>
					<polyline class="st22" points="1024.2,852.9 1027.8,849.4 1031.3,852.9 					"/>
				</g>
			</g>
			<g>
				<text transform="matrix(1 0 0 1 832.7163 859.34)" class="st2 st11 st12">Normal</text>
			</g>
		</g>
		<g>
			<g>
				<text transform="matrix(1 0 0 1 827.1252 890.1803)" class="st2 st7 st18">Decoration</text>
			</g>
			<g>
				<g>
					<g>
						<path class="st10" d="M1028.6,914.7H836.4c-5.1,0-9.3-4.2-9.3-9.3v-1.4c0-5.1,4.2-9.3,9.3-9.3h192.2c5.1,0,9.3,4.2,9.3,9.3
							v1.4C1037.9,910.5,1033.7,914.7,1028.6,914.7z"/>
					</g>
				</g>
				<g>
					<g>
						<path class="st4" d="M1017.7,894.8h10.9c5.1,0,9.3,4.2,9.3,9.3v1.4c0,5.1-4.2,9.3-9.3,9.3h-10.9V894.8z"/>
					</g>
				</g>
				<g>
					<polyline class="st22" points="1031.3,906.7 1027.8,910.2 1024.2,906.7 					"/>
					<polyline class="st22" points="1024.2,902.8 1027.8,899.3 1031.3,902.8 					"/>
				</g>
			</g>
			<g>
				<text transform="matrix(1 0 0 1 832.7163 909.2167)" class="st2 st11 st12">None</text>
			</g>
		</g>
		<g>
			<g>
				<text transform="matrix(1 0 0 1 1135.3923 740.662)" class="st2 st7 st18">Size</text>
			</g>
			<g>
				<g>
					<path class="st10" d="M1336.9,765.5h-192.2c-5.1,0-9.3-4.2-9.3-9.3v-1.4c0-5.1,4.2-9.3,9.3-9.3h192.2c5.1,0,9.3,4.2,9.3,9.3
						v1.4C1346.1,761.3,1342,765.5,1336.9,765.5z"/>
				</g>
			</g>
			<g>
				<g>
					<path class="st24" d="M1154.6,763h-8.6c-3.8,0-7-3.1-7-7v-1c0-3.8,3.1-7,7-7h8.6c3.8,0,7,3.1,7,7v1
						C1161.6,759.9,1158.5,763,1154.6,763z"/>
				</g>
			</g>
			<g>
				<text transform="matrix(1 0 0 1 1351.356 759.0094)" class="st2 st11 st12">14</text>
			</g>
		</g>
		<g>
			<g>
				<text transform="matrix(1 0 0 1 1135.3931 790.3278)" class="st2 st7 st18">Font Color</text>
			</g>
			<path class="st10" d="M1149.7,814.9h-8.9c-3,0-5.4-2.4-5.4-5.4v-8.9c0-3,2.4-5.4,5.4-5.4h8.9c3,0,5.4,2.4,5.4,5.4v8.9
				C1155.1,812.5,1152.7,814.9,1149.7,814.9z"/>
		</g>
		<g>
			<g>
				<text transform="matrix(1 0 0 1 1135.3931 840.3031)" class="st2 st7 st18">Background Color</text>
			</g>
			<path class="st10" d="M1149.7,864.9h-8.9c-3,0-5.4-2.4-5.4-5.4v-8.9c0-3,2.4-5.4,5.4-5.4h8.9c3,0,5.4,2.4,5.4,5.4v8.9
				C1155.1,862.5,1152.7,864.9,1149.7,864.9z"/>
		</g>
	</g>
</g>
</svg>
