<?xml version="1.0" encoding="utf-8"?>
<!-- Generator: Adobe Illustrator 19.1.0, SVG Export Plug-In . SVG Version: 6.00 Build 0)  -->
<svg version="1.1" id="Layer_1" xmlns="http://www.w3.org/2000/svg" xmlns:xlink="http://www.w3.org/1999/xlink" x="0px" y="0px"
	 viewBox="0 0 2919 736" style="enable-background:new 0 0 2919 736;" xml:space="preserve">
<style type="text/css">
	.st0{font-family:'MyriadPro-Bold';}
	.st1{font-size:30.1109px;}
	.st2{fill:#4D4D4D;}
	.st3{fill:#808080;stroke:#4D4D4D;stroke-miterlimit:10;}
	.st4{fill:#808080;stroke:#4D4D4D;stroke-width:0.2524;stroke-miterlimit:10;}
	.st5{fill:#FFFFFF;}
	.st6{font-family:'Roboto-Medium';}
	.st7{font-size:16px;}
	.st8{fill:#CCCCCC;}
	.st9{fill:#F57C00;}
	.st10{fill:none;stroke:#FFFFFF;stroke-width:0.8981;stroke-linecap:round;stroke-linejoin:round;stroke-miterlimit:10;}
	.st11{font-family:'Roboto-Light';}
	.st12{font-size:14px;}
	.st13{fill:#808080;}
	.st14{fill:#E6E6E6;stroke:#CCCCCC;stroke-width:0.2864;stroke-miterlimit:10;}
	.st15{fill:none;stroke:#FFFFFF;stroke-width:0.8927;stroke-linecap:round;stroke-linejoin:round;stroke-miterlimit:10;}
	.st16{fill:#FFFFFF;stroke:#FFFFFF;stroke-width:0.6542;stroke-miterlimit:10;}
	.st17{font-family:'Roboto-Regular';}
	.st18{font-size:11.8303px;}
	.st19{font-size:14.0211px;}
	.st20{fill:none;stroke:#F2F2F2;stroke-width:2.1462;stroke-linecap:round;stroke-linejoin:round;stroke-miterlimit:10;}
	.st21{fill:#F2F2F2;}
	.st22{font-size:12px;}
	.st23{fill:none;stroke:#E6E6E6;stroke-width:0.8783;stroke-miterlimit:10;}
	.st24{fill:none;stroke:#F57C00;stroke-width:3.5132;stroke-miterlimit:10;}
	.st25{fill:none;stroke:#FFFFFF;stroke-width:2;stroke-linecap:round;stroke-linejoin:round;stroke-miterlimit:10;}
	.st26{fill:none;stroke:#FFFFFF;stroke-linecap:round;stroke-linejoin:round;stroke-miterlimit:10;}
	.st27{fill:none;stroke:#FFFFFF;stroke-width:1.0187;stroke-linecap:round;stroke-linejoin:round;stroke-miterlimit:10;}
	.st28{fill:none;stroke:#E6E6E6;stroke-miterlimit:10;}
	.st29{fill:none;stroke:#F57C00;stroke-width:2;stroke-linecap:round;stroke-linejoin:round;stroke-miterlimit:10;}
</style>
<text transform="matrix(1 0 0 1 19.5471 45.6365)" class="st0 st1">Parts Bin Window - UI</text>
<g>
	<g>
		<g>
			<path id="bck_7_" class="st2" d="M703.8,703.4H35c-8.6,0-15.6-7.1-15.6-15.9V119.3c0-8.8,7-15.9,15.6-15.9h668.7
				c8.6,0,15.6,7.1,15.6,15.9v568.2C719.4,696.3,712.4,703.4,703.8,703.4z"/>
			<g>
				<path class="st3" d="M483.7,197.5v-35.7c0-6.2,5-11.2,11.1-11.2h205.5c6.4,0,11.6,5.2,11.6,11.7v520.3c0,6.4-5.2,12.7-11.6,12.7
					H38.5c-6.4,0-11.6-6.3-11.6-12.7V207.9c0-6.3,5-10.3,11.2-10.3H483.7z"/>
				<path class="st4" d="M700.6,197.5H483.9v-35.3c0-6.5-5.2-11.7-11.6-11.7H265.8c-6.2,0-11.1,5-11.1,11.2v35.7H38.1
					c-6.2,0-11.2,5.1-11.2,11.3v79.3v386.7v9c0,6.4,5.2,11.7,11.6,11.7h661.9c6.4,0,11.6-5.2,11.6-11.7v-9V229v-20.1
					C711.9,202.6,706.9,197.5,700.6,197.5z"/>
				<path class="st5" d="M254.1,197.5v-35.7c0-6.2-5-11.2-11.1-11.2H38.5c-6.4,0-11.6,5.2-11.6,11.7v521.5c0,6.4,5.2,11.7,11.6,11.7
					h661.9c6.4,0,11.6-5.2,11.6-11.7V208.9c0-6.3-5-11.3-11.2-11.3H254.1z"/>
			</g>
			<g>
				<g>
					<text transform="matrix(1 0 0 1 67.4421 132.7468)" class="st5 st6 st7">PartsBin Browser</text>
				</g>
				<g>
					<path class="st8" d="M49.1,115.5c-1.4,0-2.7,0.2-4,0.7c-2.9,1.1-5.2,3.3-6.4,6.1c-1.2,2.8-1.3,5.9-0.2,8.8
						c1.7,4.5,6,7.5,10.8,7.5c1.4,0,2.7-0.2,4-0.7c2.9-1.1,5.2-3.3,6.4-6.1c1.2-2.8,1.3-5.9,0.2-8.8
						C58.2,118.5,53.8,115.5,49.1,115.5z"/>
				</g>
				<g>
					<path d="M48.9,122.2c1.7,0.9,3.4,1.8,5.1,2.7c0-0.2,0-0.4,0-0.7c-1.7,0.9-3.4,1.8-5.1,2.8c0.1,0,0.3,0,0.4,0
						c-1.7-0.9-3.4-1.8-5.1-2.8c0,0.2,0,0.4,0,0.7c1.7-0.9,3.4-1.8,5.1-2.8c0.4-0.2,0-0.9-0.4-0.7c-1.7,0.9-3.4,1.8-5.1,2.8
						c-0.3,0.1-0.3,0.5,0,0.7c0.9,0.5,1.9,1,2.8,1.5c0.6,0.3,1.2,0.6,1.7,0.9c0.2,0.1,0.5,0.4,0.8,0.4c0.3,0,0.6-0.3,0.8-0.4
						c0.6-0.3,1.1-0.6,1.7-0.9c0.9-0.5,1.9-1,2.8-1.5c0.3-0.1,0.3-0.5,0-0.7c-1.7-0.9-3.4-1.8-5.1-2.7
						C48.9,121.3,48.5,122,48.9,122.2z"/>
					<path d="M54,124.3c-1.7,0.9-3.4,1.8-5.1,2.8c-0.1,0.1-0.2,0.2-0.2,0.3c0,2.1,0,4.1,0,6.2c0,0.3,0.3,0.5,0.6,0.3
						c1.5-0.9,3-1.8,4.5-2.8c0.5-0.3,0.8-0.4,0.8-1c0-0.9,0-1.8,0-2.6c0-0.5-0.8-0.5-0.8,0c0,1,0,1.9,0,2.9c0.1-0.1,0.1-0.2,0.2-0.3
						c-1.7,1-3.4,2.1-5.1,3.1c0.2,0.1,0.4,0.2,0.6,0.3c0-2.1,0-4.1,0-6.2c-0.1,0.1-0.1,0.2-0.2,0.3c1.7-0.9,3.4-1.8,5.1-2.8
						C54.9,124.7,54.5,124.1,54,124.3L54,124.3z"/>
					<path d="M43.8,125c1.7,0.9,3.4,1.8,5.1,2.8c-0.1-0.1-0.1-0.2-0.2-0.3c0,2.1,0,4.1,0,6.2c0.2-0.1,0.4-0.2,0.6-0.3
						c-1.7-1-3.4-2.1-5.1-3.1c0.1,0.1,0.1,0.2,0.2,0.3c0-1.9,0-3.9,0-5.8c0-0.5-0.8-0.5-0.8,0c0,1.1,0,2.1,0,3.2c0,0.7,0,1.3,0,2
						c0,0.3-0.1,0.7,0.1,0.9c0.2,0.2,0.6,0.4,0.8,0.5c0.6,0.3,1.1,0.7,1.7,1c0.9,0.6,1.8,1.1,2.7,1.7c0.3,0.2,0.6,0,0.6-0.3
						c0-2.1,0-4.1,0-6.2c0-0.1-0.1-0.3-0.2-0.3c-1.7-0.9-3.4-1.8-5.1-2.8C43.7,124.1,43.4,124.7,43.8,125z"/>
					<path d="M48.9,127.7c0.8,0.4,1.5,0.8,2.3,1.2c0.6,0.3,0.8,0.1,1.3-0.2c1.5-0.8,3.1-1.7,4.6-2.5c0.2-0.1,0.3-0.5,0-0.7
						c-0.8-0.4-1.5-0.7-2.3-1.1c-0.6-0.3-0.8-0.2-1.3,0.1c-1.5,0.8-3,1.6-4.6,2.5c-0.4,0.2,0,0.9,0.4,0.7c1.7-0.9,3.4-1.8,5.1-2.8
						c-0.1,0-0.3,0-0.4,0c0.9,0.4,1.8,0.9,2.6,1.3c0-0.2,0-0.4,0-0.7c-1.7,0.9-3.5,1.9-5.2,2.8c0.1,0,0.3,0,0.4,0
						c-0.9-0.5-1.7-0.9-2.6-1.4C48.9,126.8,48.5,127.5,48.9,127.7z"/>
					<path d="M44.3,124.3c-0.9-0.5-1.8-0.9-2.6-1.4c0,0.2,0,0.4,0,0.7c1.7-0.9,3.4-1.9,5.1-2.8c-0.1,0-0.3,0-0.4,0
						c0.9,0.5,1.7,0.9,2.6,1.4c0-0.2,0-0.4,0-0.7c-1.7,0.9-3.4,1.8-5,2.8c-0.4,0.2,0,0.9,0.4,0.7c1.7-0.9,3.4-1.8,5-2.8
						c0.3-0.1,0.3-0.5,0-0.7c-0.7-0.4-1.5-0.8-2.2-1.2c-0.6-0.3-0.8-0.2-1.3,0.1c-1.5,0.8-3,1.7-4.5,2.5c-0.2,0.1-0.3,0.5,0,0.7
						c0.9,0.5,1.8,0.9,2.6,1.4C44.3,125.2,44.7,124.5,44.3,124.3z"/>
					<g>
						<path d="M45.5,128.9c0.6,0.3,1.2,0.7,1.8,1c0.4,0.2,0.7-0.4,0.3-0.6c-0.6-0.3-1.2-0.7-1.8-1C45.4,128.1,45.1,128.7,45.5,128.9
							L45.5,128.9z"/>
						<path d="M46.2,128.1c0,0.7,0,1.4,0,2.1c0,0.4,0.7,0.4,0.7,0c0-0.7,0-1.4,0-2.1C46.9,127.6,46.2,127.6,46.2,128.1L46.2,128.1z"
							/>
					</g>
				</g>
			</g>
			<g>
				<g>
					<g>
						<circle class="st9" cx="694.8" cy="127" r="7.4"/>
						<g>
							<line class="st10" x1="691.2" y1="123.3" x2="698.6" y2="130.8"/>
							<line class="st10" x1="691.2" y1="130.8" x2="698.6" y2="123.3"/>
						</g>
					</g>
				</g>
				<g>
					<circle class="st8" cx="669.8" cy="127" r="7.4"/>
					<g>
						<g>
							<path class="st2" d="M673.8,128h-8c-0.3,0-0.5-0.2-0.5-0.5s0.2-0.5,0.5-0.5h8c0.3,0,0.5,0.2,0.5,0.5S674,128,673.8,128z"/>
						</g>
					</g>
				</g>
			</g>
			<g>
				<text transform="matrix(1 0 0 1 580.6603 178.0498)" class="st5 st11 st12">Lively</text>
			</g>
			<g>
				<text transform="matrix(1 0 0 1 122.4842 178.0498)" class="st13 st6 st12">Yours</text>
			</g>
			<g>
				<text transform="matrix(1 0 0 1 333.8965 178.0503)" class="st5 st11 st12">Community</text>
			</g>
		</g>
	</g>
	<g>
		<g>
			<g>
				<path class="st14" d="M184.8,233.2H52.5c-5.1,0-9.3-4.2-9.3-9.3v-1.4c0-5.1,4.2-9.3,9.3-9.3h132.2c5.1,0,9.3,4.2,9.3,9.3v1.4
					C194,229,189.9,233.2,184.8,233.2z"/>
			</g>
		</g>
		<g>
			<g>
				<path class="st9" d="M173.8,213.3h10.9c5.1,0,9.3,4.2,9.3,9.3v1.4c0,5.1-4.2,9.3-9.3,9.3h-10.9V213.3z"/>
			</g>
		</g>
		<g>
			<polyline class="st15" points="187.5,225.2 183.9,228.7 180.4,225.2 			"/>
			<polyline class="st15" points="180.4,221.2 183.9,217.7 187.5,221.2 			"/>
		</g>
	</g>
	<g>
		<g>
			<path class="st2" d="M61.3,255.3c1.2,6.3-4.3,11.8-10.6,10.6c-3.5-0.7-6.4-3.5-7.1-7.1c-1.2-6.3,4.3-11.8,10.6-10.6
				C57.7,249,60.6,251.8,61.3,255.3z"/>
			<path class="st16" d="M56.6,252.9c-0.2,0-0.3,0.1-0.3,0.3v1c-0.8-1.1-2.2-1.8-3.7-1.8c-2.6,0-4.7,2.1-4.7,4.7
				c0,2.6,2.1,4.7,4.7,4.7c1.7,0,3.2-0.8,4-2.3c0.1-0.1,0-0.3-0.1-0.4s-0.3,0-0.4,0.1c-0.8,1.2-2.1,2-3.5,2c-2.3,0-4.1-1.9-4.1-4.1
				c0-2.3,1.9-4.2,4.1-4.2c1.4,0,2.6,0.7,3.4,1.8h-1.3c-0.2,0-0.3,0.2-0.3,0.3c0,0.2,0.1,0.3,0.3,0.3h1.9c0.2,0,0.3-0.1,0.3-0.3
				v-1.9C56.9,253,56.8,252.9,56.6,252.9z"/>
		</g>
		<g>
			<g>
				<circle class="st2" cx="97.6" cy="257.1" r="9"/>
			</g>
			<g>
				<path class="st5" d="M96.8,253.7c0,2.3,0,4.6,0,6.9c0,1,1.5,1,1.5,0c0-2.3,0-4.6,0-6.9C98.3,252.7,96.8,252.7,96.8,253.7
					L96.8,253.7z"/>
			</g>
			<g>
				<path class="st5" d="M94.1,257.9c2.3,0,4.6,0,6.9,0c1,0,1-1.5,0-1.5c-2.3,0-4.6,0-6.9,0C93.2,256.4,93.2,257.9,94.1,257.9
					L94.1,257.9z"/>
			</g>
		</g>
		<g>
			<g>
				<circle class="st2" cx="75" cy="257.1" r="9"/>
			</g>
			<g>
				<path class="st5" d="M71.6,257.9c2.3,0,4.6,0,6.9,0c1,0,1-1.5,0-1.5c-2.3,0-4.6,0-6.9,0C70.6,256.4,70.6,257.9,71.6,257.9
					L71.6,257.9z"/>
			</g>
		</g>
	</g>
	<g>
		<text transform="matrix(1 0 0 1 52.2888 227.6892)" class="st13 st17 st18">http://livelywe....</text>
	</g>
	<g>
		<text transform="matrix(1 0 0 1 43.2888 296.2205)" class="st13 st6 st19">*All</text>
	</g>
	<g>
		<text transform="matrix(1 0 0 1 43.2888 317.3669)" class="st13 st6 st19">*Latest</text>
	</g>
	<g>
		<text transform="matrix(1 0 0 1 43.2888 338.5125)" class="st13 st6 st19">*Search</text>
	</g>
	<g>
		<text transform="matrix(1 0 0 1 43.2888 401.9548)" class="st13 st17 st19">Code</text>
	</g>
	<g>
		<text transform="matrix(1 0 0 1 43.2888 423.1033)" class="st13 st17 st19">Controls</text>
	</g>
	<g>
		<g>
			<path class="st9" d="M177.8,385.4H45.5c-5.1,0-9.3-4.2-9.3-9.3v-1.4c0-5.1,4.2-9.3,9.3-9.3h132.2c5.1,0,9.3,4.2,9.3,9.3v1.4
				C187,381.2,182.9,385.4,177.8,385.4z"/>
		</g>
	</g>
	<g>
		<text transform="matrix(1 0 0 1 43.2888 359.6638)" class="st13 st17 st19">Art</text>
	</g>
	<g>
		<text transform="matrix(1 0 0 1 43.2888 380.8093)" class="st5 st17 st19">Basic</text>
	</g>
	<line class="st20" x1="211.2" y1="215" x2="211.2" y2="684.8"/>
	<g>
		<g>
			<g>
				<g>
					<path class="st14" d="M663.6,233.2H238.1c-5.1,0-9.3-4.2-9.3-9.3v-1.4c0-5.1,4.2-9.3,9.3-9.3h425.5c5.1,0,9.3,4.2,9.3,9.3v1.4
						C672.8,229,668.7,233.2,663.6,233.2z"/>
				</g>
			</g>
			<g>
				<g>
					<path class="st9" d="M652.6,233.2h10.9c5.1,0,9.3-4.2,9.3-9.3v-1.4c0-5.1-4.2-9.3-9.3-9.3h-10.9V233.2z"/>
				</g>
			</g>
			<path class="st5" d="M667.9,220.8c-0.3-2.2-2.1-3.9-4.4-3.9c-0.2,0-0.4,0-0.5,0c-2.4,0.3-4.1,2.5-3.8,4.9c0.1,1.1,0.7,2,1.4,2.7
				l-2.9,3.8c-0.1,0.2-0.1,0.5,0.1,0.6c0.1,0.1,0.2,0.1,0.3,0.1c0.1,0,0.3-0.1,0.3-0.2l3-3.8c0.7,0.4,1.5,0.6,2.3,0.6
				c0.2,0,0.4,0,0.5,0C666.5,225.4,668.2,223.2,667.9,220.8z M664,224.9c-0.2,0-0.3,0-0.5,0c-1.8,0-3.3-1.3-3.5-3.1
				c-0.2-2,1.2-3.7,3.1-4c0.2,0,0.3,0,0.5,0c1.8,0,3.3,1.3,3.5,3.1C667.3,222.9,665.9,224.6,664,224.9z"/>
		</g>
		<rect x="228.3" y="251" class="st21" width="104.9" height="104.9"/>
		<rect x="341.5" y="251" class="st21" width="104.9" height="104.9"/>
		<rect x="454.8" y="251" class="st21" width="104.9" height="104.9"/>
		<rect x="228.3" y="364.2" class="st21" width="104.9" height="104.9"/>
		<rect x="341.5" y="364.2" class="st21" width="104.9" height="104.9"/>
		<rect x="454.8" y="364.2" class="st21" width="104.9" height="104.9"/>
		<rect x="228.3" y="477.5" class="st21" width="104.9" height="104.9"/>
		<rect x="341.5" y="477.5" class="st21" width="104.9" height="104.9"/>
		<rect x="454.8" y="477.5" class="st21" width="104.9" height="104.9"/>
		<rect x="228.3" y="590.8" class="st21" width="104.9" height="104.9"/>
		<rect x="341.5" y="590.8" class="st21" width="104.9" height="104.9"/>
		<rect x="454.8" y="590.8" class="st21" width="104.9" height="104.9"/>
		<g>
			<text transform="matrix(1 0 0 1 252.948 349.2976)" class="st13 st17 st22">Example 1</text>
		</g>
		<g>
			<text transform="matrix(1 0 0 1 366.2402 349.2976)" class="st13 st17 st22">Example 2</text>
		</g>
		<g>
			<text transform="matrix(1 0 0 1 479.5323 349.2976)" class="st13 st17 st22">Example 3</text>
		</g>
		<g>
			<text transform="matrix(1 0 0 1 252.948 462.0505)" class="st13 st17 st22">Example 1</text>
		</g>
		<g>
			<text transform="matrix(1 0 0 1 366.2402 462.0505)" class="st13 st17 st22">Example 2</text>
		</g>
		<g>
			<text transform="matrix(1 0 0 1 479.5323 462.0505)" class="st13 st17 st22">Example 3</text>
		</g>
		<g>
			<text transform="matrix(1 0 0 1 252.948 574.8015)" class="st13 st17 st22">Example 1</text>
		</g>
		<g>
			<text transform="matrix(1 0 0 1 366.2402 574.8015)" class="st13 st17 st22">Example 2</text>
		</g>
		<g>
			<text transform="matrix(1 0 0 1 479.5323 574.8015)" class="st13 st17 st22">Example 3</text>
		</g>
		<g>
			<text transform="matrix(1 0 0 1 252.948 688.448)" class="st13 st17 st22">Example 1</text>
		</g>
		<g>
			<text transform="matrix(1 0 0 1 366.2402 688.448)" class="st13 st17 st22">Example 2</text>
		</g>
		<g>
			<text transform="matrix(1 0 0 1 479.5323 688.448)" class="st13 st17 st22">Example 3</text>
		</g>
		<rect x="568.2" y="251" class="st21" width="104.9" height="104.9"/>
		<rect x="568.2" y="364.2" class="st21" width="104.9" height="104.9"/>
		<rect x="568.2" y="477.5" class="st21" width="104.9" height="104.9"/>
		<rect x="568.2" y="590.8" class="st21" width="104.9" height="104.9"/>
		<g>
			<text transform="matrix(1 0 0 1 592.9156 349.2976)" class="st13 st17 st22">Example 3</text>
		</g>
		<g>
			<text transform="matrix(1 0 0 1 592.9156 462.0505)" class="st13 st17 st22">Example 3</text>
		</g>
		<g>
			<text transform="matrix(1 0 0 1 592.9156 574.8015)" class="st13 st17 st22">Example 3</text>
		</g>
		<g>
			<text transform="matrix(1 0 0 1 592.9156 688.448)" class="st13 st17 st22">Example 3</text>
		</g>
		<g>
			<line class="st23" x1="456.3" y1="365" x2="557.3" y2="467.5"/>
			<line class="st23" x1="455.6" y1="466.8" x2="558" y2="365.7"/>
			<path class="st24" d="M555.7,469h-95.9c-2.6,0-4.6-2.1-4.6-4.6v-95.9c0-2.6,2.1-4.6,4.6-4.6h95.9c2.6,0,4.6,2.1,4.6,4.6v95.9
				C560.3,466.9,558.2,469,555.7,469z"/>
		</g>
		<g>
			<g>
				<polygon class="st25" points="551.6,420.8 543.3,413.9 544.6,424.6 547.3,423.1 550.2,428.4 551,427.9 548.2,422.6 				"/>
				<polygon points="551.6,420.8 543.3,413.9 544.6,424.6 547.3,423.1 550.2,428.4 551,427.9 548.2,422.6 				"/>
			</g>
		</g>
	</g>
	<g>
		<g>
			<g>
				<g>
					<path class="st21" d="M688.7,681.1V255.7c0-2,1.7-3.7,3.7-3.7h0.5c2,0,3.7,1.7,3.7,3.7v425.4c0,2-1.7,3.7-3.7,3.7h-0.5
						C690.4,684.8,688.7,683.1,688.7,681.1z"/>
				</g>
			</g>
		</g>
		<g>
			<g>
				<g>
					<path class="st8" d="M689.8,325.4V282c0-1.5,1.2-2.7,2.7-2.7h0.4c1.5,0,2.7,1.2,2.7,2.7v43.5c0,1.5-1.2,2.7-2.7,2.7h-0.4
						C691,328.1,689.8,326.9,689.8,325.4z"/>
				</g>
			</g>
		</g>
	</g>
</g>
<g>
	<g>
		<g>
			<path id="bck_1_" class="st2" d="M1426.8,703.4H758c-8.6,0-15.6-7.1-15.6-15.9V119.3c0-8.8,7-15.9,15.6-15.9h668.7
				c8.6,0,15.6,7.1,15.6,15.9v568.2C1442.4,696.3,1435.4,703.4,1426.8,703.4z"/>
			<g>
				<path class="st3" d="M1206.7,197.5v-35.7c0-6.2,5-11.2,11.1-11.2h205.5c6.4,0,11.6,5.2,11.6,11.7v520.3
					c0,6.4-5.2,12.7-11.6,12.7H761.5c-6.4,0-11.6-6.3-11.6-12.7V207.9c0-6.3,5-10.3,11.2-10.3H1206.7z"/>
				<path class="st4" d="M1423.6,197.5h-216.7v-35.3c0-6.5-5.2-11.7-11.6-11.7H988.8c-6.2,0-11.1,5-11.1,11.2v35.7H761.1
					c-6.2,0-11.2,5.1-11.2,11.3v79.3v386.7v9c0,6.4,5.2,11.7,11.6,11.7h661.9c6.4,0,11.6-5.2,11.6-11.7v-9V229v-20.1
					C1434.9,202.6,1429.9,197.5,1423.6,197.5z"/>
				<path class="st5" d="M977.1,197.5v-35.7c0-6.2-5-11.2-11.1-11.2H761.5c-6.4,0-11.6,5.2-11.6,11.7v521.5
					c0,6.4,5.2,11.7,11.6,11.7h661.9c6.4,0,11.6-5.2,11.6-11.7V208.9c0-6.3-5-11.3-11.2-11.3H977.1z"/>
			</g>
			<g>
				<g>
					<text transform="matrix(1 0 0 1 790.4421 132.7468)" class="st5 st6 st7">PartsBin Browser</text>
				</g>
				<g>
					<path class="st8" d="M772.1,115.5c-1.4,0-2.7,0.2-4,0.7c-2.9,1.1-5.2,3.3-6.4,6.1c-1.2,2.8-1.3,5.9-0.2,8.8
						c1.7,4.5,6,7.5,10.8,7.5c1.4,0,2.7-0.2,4-0.7c2.9-1.1,5.2-3.3,6.4-6.1c1.2-2.8,1.3-5.9,0.2-8.8
						C781.2,118.5,776.8,115.5,772.1,115.5z"/>
				</g>
				<g>
					<path d="M771.9,122.2c1.7,0.9,3.4,1.8,5.1,2.7c0-0.2,0-0.4,0-0.7c-1.7,0.9-3.4,1.8-5.1,2.8c0.1,0,0.3,0,0.4,0
						c-1.7-0.9-3.4-1.8-5.1-2.8c0,0.2,0,0.4,0,0.7c1.7-0.9,3.4-1.8,5.1-2.8c0.4-0.2,0-0.9-0.4-0.7c-1.7,0.9-3.4,1.8-5.1,2.8
						c-0.3,0.1-0.3,0.5,0,0.7c0.9,0.5,1.9,1,2.8,1.5c0.6,0.3,1.2,0.6,1.7,0.9c0.2,0.1,0.5,0.4,0.8,0.4c0.3,0,0.6-0.3,0.8-0.4
						c0.6-0.3,1.1-0.6,1.7-0.9c0.9-0.5,1.9-1,2.8-1.5c0.3-0.1,0.3-0.5,0-0.7c-1.7-0.9-3.4-1.8-5.1-2.7
						C771.9,121.3,771.5,122,771.9,122.2z"/>
					<path d="M777,124.3c-1.7,0.9-3.4,1.8-5.1,2.8c-0.1,0.1-0.2,0.2-0.2,0.3c0,2.1,0,4.1,0,6.2c0,0.3,0.3,0.5,0.6,0.3
						c1.5-0.9,3-1.8,4.5-2.8c0.5-0.3,0.8-0.4,0.8-1c0-0.9,0-1.8,0-2.6c0-0.5-0.8-0.5-0.8,0c0,1,0,1.9,0,2.9c0.1-0.1,0.1-0.2,0.2-0.3
						c-1.7,1-3.4,2.1-5.1,3.1c0.2,0.1,0.4,0.2,0.6,0.3c0-2.1,0-4.1,0-6.2c-0.1,0.1-0.1,0.2-0.2,0.3c1.7-0.9,3.4-1.8,5.1-2.8
						C777.9,124.7,777.5,124.1,777,124.3L777,124.3z"/>
					<path d="M766.8,125c1.7,0.9,3.4,1.8,5.1,2.8c-0.1-0.1-0.1-0.2-0.2-0.3c0,2.1,0,4.1,0,6.2c0.2-0.1,0.4-0.2,0.6-0.3
						c-1.7-1-3.4-2.1-5.1-3.1c0.1,0.1,0.1,0.2,0.2,0.3c0-1.9,0-3.9,0-5.8c0-0.5-0.8-0.5-0.8,0c0,1.1,0,2.1,0,3.2c0,0.7,0,1.3,0,2
						c0,0.3-0.1,0.7,0.1,0.9c0.2,0.2,0.6,0.4,0.8,0.5c0.6,0.3,1.1,0.7,1.7,1c0.9,0.6,1.8,1.1,2.7,1.7c0.3,0.2,0.6,0,0.6-0.3
						c0-2.1,0-4.1,0-6.2c0-0.1-0.1-0.3-0.2-0.3c-1.7-0.9-3.4-1.8-5.1-2.8C766.7,124.1,766.4,124.7,766.8,125z"/>
					<path d="M771.9,127.7c0.8,0.4,1.5,0.8,2.3,1.2c0.6,0.3,0.8,0.1,1.3-0.2c1.5-0.8,3.1-1.7,4.6-2.5c0.2-0.1,0.3-0.5,0-0.7
						c-0.8-0.4-1.5-0.7-2.3-1.1c-0.6-0.3-0.8-0.2-1.3,0.1c-1.5,0.8-3,1.6-4.6,2.5c-0.4,0.2,0,0.9,0.4,0.7c1.7-0.9,3.4-1.8,5.1-2.8
						c-0.1,0-0.3,0-0.4,0c0.9,0.4,1.8,0.9,2.6,1.3c0-0.2,0-0.4,0-0.7c-1.7,0.9-3.5,1.9-5.2,2.8c0.1,0,0.3,0,0.4,0
						c-0.9-0.5-1.7-0.9-2.6-1.4C771.9,126.8,771.5,127.5,771.9,127.7z"/>
					<path d="M767.3,124.3c-0.9-0.5-1.8-0.9-2.6-1.4c0,0.2,0,0.4,0,0.7c1.7-0.9,3.4-1.9,5.1-2.8c-0.1,0-0.3,0-0.4,0
						c0.9,0.5,1.7,0.9,2.6,1.4c0-0.2,0-0.4,0-0.7c-1.7,0.9-3.4,1.8-5,2.8c-0.4,0.2,0,0.9,0.4,0.7c1.7-0.9,3.4-1.8,5-2.8
						c0.3-0.1,0.3-0.5,0-0.7c-0.7-0.4-1.5-0.8-2.2-1.2c-0.6-0.3-0.8-0.2-1.3,0.1c-1.5,0.8-3,1.7-4.5,2.5c-0.2,0.1-0.3,0.5,0,0.7
						c0.9,0.5,1.8,0.9,2.6,1.4C767.3,125.2,767.7,124.5,767.3,124.3z"/>
					<g>
						<path d="M768.5,128.9c0.6,0.3,1.2,0.7,1.8,1c0.4,0.2,0.7-0.4,0.3-0.6c-0.6-0.3-1.2-0.7-1.8-1
							C768.4,128.1,768.1,128.7,768.5,128.9L768.5,128.9z"/>
						<path d="M769.2,128.1c0,0.7,0,1.4,0,2.1c0,0.4,0.7,0.4,0.7,0c0-0.7,0-1.4,0-2.1C769.9,127.6,769.2,127.6,769.2,128.1
							L769.2,128.1z"/>
					</g>
				</g>
			</g>
			<g>
				<g>
					<g>
						<circle class="st9" cx="1417.8" cy="127" r="7.4"/>
						<g>
							<line class="st10" x1="1414.2" y1="123.3" x2="1421.6" y2="130.8"/>
							<line class="st10" x1="1414.2" y1="130.8" x2="1421.6" y2="123.3"/>
						</g>
					</g>
				</g>
				<g>
					<circle class="st8" cx="1392.8" cy="127" r="7.4"/>
					<g>
						<g>
							<path class="st2" d="M1396.8,128h-8c-0.3,0-0.5-0.2-0.5-0.5s0.2-0.5,0.5-0.5h8c0.3,0,0.5,0.2,0.5,0.5S1397,128,1396.8,128z"
								/>
						</g>
					</g>
				</g>
			</g>
			<g>
				<text transform="matrix(1 0 0 1 1303.6603 178.0498)" class="st5 st11 st12">Lively</text>
			</g>
			<g>
				<text transform="matrix(1 0 0 1 845.4841 178.0498)" class="st13 st6 st12">Yours</text>
			</g>
			<g>
				<text transform="matrix(1 0 0 1 1056.8965 178.0503)" class="st5 st11 st12">Community</text>
			</g>
		</g>
	</g>
	<g>
		<g>
			<g>
				<path class="st14" d="M907.8,233.2H775.5c-5.1,0-9.3-4.2-9.3-9.3v-1.4c0-5.1,4.2-9.3,9.3-9.3h132.2c5.1,0,9.3,4.2,9.3,9.3v1.4
					C917,229,912.9,233.2,907.8,233.2z"/>
			</g>
		</g>
		<g>
			<g>
				<path class="st9" d="M896.8,213.3h10.9c5.1,0,9.3,4.2,9.3,9.3v1.4c0,5.1-4.2,9.3-9.3,9.3h-10.9V213.3z"/>
			</g>
		</g>
		<g>
			<polyline class="st15" points="910.5,225.2 906.9,228.7 903.4,225.2 			"/>
			<polyline class="st15" points="903.4,221.2 906.9,217.7 910.5,221.2 			"/>
		</g>
	</g>
	<g>
		<text transform="matrix(1 0 0 1 775.2888 227.6892)" class="st13 st17 st18">http://livelywe....</text>
	</g>
	<g>
		<text transform="matrix(1 0 0 1 766.2888 296.2205)" class="st13 st6 st19">*All</text>
	</g>
	<g>
		<text transform="matrix(1 0 0 1 766.2888 317.3669)" class="st13 st6 st19">*Latest</text>
	</g>
	<g>
		<text transform="matrix(1 0 0 1 766.2888 338.5125)" class="st13 st6 st19">*Search</text>
	</g>
	<g>
		<text transform="matrix(1 0 0 1 766.2888 401.9548)" class="st13 st17 st19">Code</text>
	</g>
	<g>
		<text transform="matrix(1 0 0 1 766.2888 423.1033)" class="st13 st17 st19">Controls</text>
	</g>
	<g>
		<g>
			<path class="st9" d="M900.8,385.4H768.5c-5.1,0-9.3-4.2-9.3-9.3v-1.4c0-5.1,4.2-9.3,9.3-9.3h132.2c5.1,0,9.3,4.2,9.3,9.3v1.4
				C910,381.2,905.9,385.4,900.8,385.4z"/>
		</g>
	</g>
	<g>
		<text transform="matrix(1 0 0 1 766.2888 359.6638)" class="st13 st17 st19">Art</text>
	</g>
	<g>
		<text transform="matrix(1 0 0 1 766.2888 380.8093)" class="st5 st17 st19">Basic</text>
	</g>
	<line class="st20" x1="934.2" y1="215" x2="934.2" y2="684.8"/>
	<g>
		<g>
			<g>
				<g>
					<path class="st14" d="M1386.6,233.2H961.1c-5.1,0-9.3-4.2-9.3-9.3v-1.4c0-5.1,4.2-9.3,9.3-9.3h425.5c5.1,0,9.3,4.2,9.3,9.3v1.4
						C1395.8,229,1391.7,233.2,1386.6,233.2z"/>
				</g>
			</g>
			<g>
				<g>
					<path class="st9" d="M1375.6,233.2h10.9c5.1,0,9.3-4.2,9.3-9.3v-1.4c0-5.1-4.2-9.3-9.3-9.3h-10.9V233.2z"/>
				</g>
			</g>
			<path class="st5" d="M1390.9,220.8c-0.3-2.2-2.1-3.9-4.4-3.9c-0.2,0-0.4,0-0.5,0c-2.4,0.3-4.1,2.5-3.8,4.9c0.1,1.1,0.7,2,1.4,2.7
				l-2.9,3.8c-0.1,0.2-0.1,0.5,0.1,0.6c0.1,0.1,0.2,0.1,0.3,0.1c0.1,0,0.3-0.1,0.3-0.2l3-3.8c0.7,0.4,1.5,0.6,2.3,0.6
				c0.2,0,0.4,0,0.5,0C1389.5,225.4,1391.2,223.2,1390.9,220.8z M1387,224.9c-0.2,0-0.3,0-0.5,0c-1.8,0-3.3-1.3-3.5-3.1
				c-0.2-2,1.2-3.7,3.1-4c0.2,0,0.3,0,0.5,0c1.8,0,3.3,1.3,3.5,3.1C1390.3,222.9,1388.9,224.6,1387,224.9z"/>
		</g>
		<rect x="951.3" y="251" class="st21" width="104.9" height="104.9"/>
		<rect x="1064.5" y="251" class="st21" width="104.9" height="104.9"/>
		<rect x="1177.8" y="251" class="st21" width="104.9" height="104.9"/>
		<rect x="951.3" y="364.2" class="st21" width="104.9" height="104.9"/>
		<rect x="1064.5" y="364.2" class="st21" width="104.9" height="104.9"/>
		<rect x="1177.8" y="364.2" class="st21" width="104.9" height="104.9"/>
		<rect x="951.3" y="477.5" class="st21" width="104.9" height="104.9"/>
		<rect x="1064.5" y="477.5" class="st21" width="104.9" height="104.9"/>
		<rect x="1177.8" y="477.5" class="st21" width="104.9" height="104.9"/>
		<rect x="951.3" y="590.8" class="st21" width="104.9" height="104.9"/>
		<rect x="1064.5" y="590.8" class="st21" width="104.9" height="104.9"/>
		<rect x="1177.8" y="590.8" class="st21" width="104.9" height="104.9"/>
		<g>
			<text transform="matrix(1 0 0 1 975.948 349.2976)" class="st13 st17 st22">Example 1</text>
		</g>
		<g>
			<text transform="matrix(1 0 0 1 1089.2402 349.2976)" class="st13 st17 st22">Example 2</text>
		</g>
		<g>
			<text transform="matrix(1 0 0 1 1202.5323 349.2976)" class="st13 st17 st22">Example 3</text>
		</g>
		<g>
			<text transform="matrix(1 0 0 1 975.948 462.0505)" class="st13 st17 st22">Example 1</text>
		</g>
		<g>
			<text transform="matrix(1 0 0 1 1089.2402 462.0505)" class="st13 st17 st22">Example 2</text>
		</g>
		<g>
			<text transform="matrix(1 0 0 1 975.948 574.8015)" class="st13 st17 st22">Example 1</text>
		</g>
		<g>
			<text transform="matrix(1 0 0 1 1089.2402 574.8015)" class="st13 st17 st22">Example 2</text>
		</g>
		<g>
			<text transform="matrix(1 0 0 1 1202.5323 574.8015)" class="st13 st17 st22">Example 3</text>
		</g>
		<g>
			<text transform="matrix(1 0 0 1 975.948 688.448)" class="st13 st17 st22">Example 1</text>
		</g>
		<g>
			<text transform="matrix(1 0 0 1 1089.2402 688.448)" class="st13 st17 st22">Example 2</text>
		</g>
		<g>
			<text transform="matrix(1 0 0 1 1202.5323 688.448)" class="st13 st17 st22">Example 3</text>
		</g>
		<rect x="1291.2" y="251" class="st21" width="104.9" height="104.9"/>
		<rect x="1291.2" y="364.2" class="st21" width="104.9" height="104.9"/>
		<rect x="1291.2" y="477.5" class="st21" width="104.9" height="104.9"/>
		<rect x="1291.2" y="590.8" class="st21" width="104.9" height="104.9"/>
		<g>
			<text transform="matrix(1 0 0 1 1315.9156 349.2976)" class="st13 st17 st22">Example 3</text>
		</g>
		<g>
			<text transform="matrix(1 0 0 1 1315.9156 462.0505)" class="st13 st17 st22">Example 3</text>
		</g>
		<g>
			<text transform="matrix(1 0 0 1 1315.9156 574.8015)" class="st13 st17 st22">Example 3</text>
		</g>
		<g>
			<text transform="matrix(1 0 0 1 1315.9156 688.448)" class="st13 st17 st22">Example 3</text>
		</g>
		<g>
			<line class="st23" x1="1179.3" y1="365" x2="1280.3" y2="467.5"/>
			<line class="st23" x1="1178.6" y1="466.8" x2="1281" y2="365.7"/>
			<path class="st24" d="M1278.7,469h-95.9c-2.6,0-4.6-2.1-4.6-4.6v-95.9c0-2.6,2.1-4.6,4.6-4.6h95.9c2.6,0,4.6,2.1,4.6,4.6v95.9
				C1283.3,466.9,1281.2,469,1278.7,469z"/>
		</g>
		<g>
			<g>
				<polygon class="st25" points="1274.6,420.8 1266.3,413.9 1267.6,424.6 1270.3,423.1 1273.2,428.4 1274,427.9 1271.2,422.6 				
					"/>
				<polygon points="1274.6,420.8 1266.3,413.9 1267.6,424.6 1270.3,423.1 1273.2,428.4 1274,427.9 1271.2,422.6 				"/>
			</g>
		</g>
	</g>
	<g>
		<g>
			<g>
				<g>
					<path class="st21" d="M1411.7,681.1V255.7c0-2,1.7-3.7,3.7-3.7h0.6c2,0,3.7,1.7,3.7,3.7v425.4c0,2-1.7,3.7-3.7,3.7h-0.6
						C1413.4,684.8,1411.7,683.1,1411.7,681.1z"/>
				</g>
			</g>
		</g>
		<g>
			<g>
				<g>
					<path class="st8" d="M1412.8,325.4V282c0-1.5,1.2-2.7,2.7-2.7h0.4c1.5,0,2.7,1.2,2.7,2.7v43.5c0,1.5-1.2,2.7-2.7,2.7h-0.4
						C1414,328.1,1412.8,326.9,1412.8,325.4z"/>
				</g>
			</g>
		</g>
	</g>
	<g>
		<g>
			<path class="st2" d="M1227.4,451.7c1.2,6.2-4.2,11.6-10.4,10.4c-3.5-0.7-6.3-3.5-6.9-6.9c-1.2-6.2,4.2-11.6,10.4-10.4
				C1223.9,445.4,1226.7,448.3,1227.4,451.7z"/>
			<g>
				<g>
					<path class="st21" d="M1214.3,449.7c2.7,2.7,5.5,5.5,8.2,8.2c0.5,0.5,1.2-0.3,0.7-0.7c-2.7-2.7-5.5-5.5-8.2-8.2
						C1214.5,448.5,1213.8,449.3,1214.3,449.7L1214.3,449.7z"/>
				</g>
				<g>
					<path class="st21" d="M1215,457.9c2.7-2.7,5.5-5.5,8.2-8.2c0.5-0.5-0.3-1.2-0.7-0.7c-2.7,2.7-5.5,5.5-8.2,8.2
						C1213.8,457.7,1214.5,458.4,1215,457.9L1215,457.9z"/>
				</g>
			</g>
		</g>
		<g>
			<path class="st2" d="M1275.3,451.5c1.2,6.2-4.2,11.6-10.4,10.4c-3.5-0.7-6.3-3.5-6.9-6.9c-1.2-6.2,4.2-11.6,10.4-10.4
				C1271.9,445.3,1274.7,448.1,1275.3,451.5z"/>
			<g>
				<g>
					<path class="st21" d="M1261.8,453.8c3.9,0,5.8,0,9.7,0c0.7,0,0.7-1,0-1c-3.9,0-5.8,0-9.7,0
						C1261.1,452.8,1261.1,453.8,1261.8,453.8L1261.8,453.8z"/>
				</g>
			</g>
			<g>
				<g>
					<path class="st21" d="M1261.8,451.1c3.9,0,5.8,0,9.7,0c0.7,0,0.7-1,0-1c-3.9,0-5.8,0-9.7,0
						C1261.1,450.1,1261.1,451.1,1261.8,451.1L1261.8,451.1z"/>
				</g>
			</g>
			<g>
				<g>
					<path class="st21" d="M1261.8,456.6c3.9,0,5.8,0,9.7,0c0.7,0,0.7-1,0-1c-3.9,0-5.8,0-9.7,0
						C1261.1,455.6,1261.1,456.6,1261.8,456.6L1261.8,456.6z"/>
				</g>
			</g>
		</g>
		<g>
			<path class="st2" d="M1251.4,451.5c1.2,6.2-4.2,11.6-10.4,10.4c-3.5-0.7-6.3-3.5-6.9-6.9c-1.2-6.2,4.2-11.6,10.4-10.4
				C1247.9,445.3,1250.7,448.1,1251.4,451.5z"/>
			<g>
				<g>
					<path class="st21" d="M1240.5,451.1c3.9,0,3.2,0,7.1,0c0.7,0,0.7-1,0-1c-3.9,0-3.2,0-7.1,0
						C1239.8,450.1,1239.8,451.1,1240.5,451.1L1240.5,451.1z"/>
				</g>
			</g>
			<g>
				<g>
					<path class="st21" d="M1240.5,453.8c3.9,0,3.2,0,7.1,0c0.7,0,0.7-1,0-1c-3.9,0-3.2,0-7.1,0
						C1239.8,452.8,1239.8,453.8,1240.5,453.8L1240.5,453.8z"/>
				</g>
			</g>
			<g>
				<g>
					<path class="st21" d="M1240.5,456.5c3.9,0,3.2,0,7.1,0c0.7,0,0.7-1,0-1c-3.9,0-3.2,0-7.1,0
						C1239.8,455.5,1239.8,456.5,1240.5,456.5L1240.5,456.5z"/>
				</g>
			</g>
			<circle class="st21" cx="1237.9" cy="450.6" r="0.5"/>
			<circle class="st21" cx="1237.9" cy="453.2" r="0.5"/>
			<circle class="st21" cx="1237.9" cy="455.8" r="0.5"/>
		</g>
		<g>
			<path class="st2" d="M1203.4,451.8c1.2,6.2-4.2,11.6-10.4,10.4c-3.5-0.7-6.3-3.5-6.9-6.9c-1.2-6.2,4.2-11.6,10.4-10.4
				C1200,445.5,1202.8,448.3,1203.4,451.8z"/>
			<g>
				<g>
					<path class="st21" d="M1199.1,456.7h-6.5c-0.5,0-1-0.4-1-1v-6.5c0-0.5,0.4-1,1-1h6.5c0.5,0,1,0.4,1,1v6.5
						C1200.1,456.3,1199.7,456.7,1199.1,456.7z M1192.7,449.2C1192.6,449.2,1192.6,449.2,1192.7,449.2l0,6.5c0,0,0,0,0,0h6.5
						c0,0,0,0,0,0v-6.5c0,0,0,0,0,0H1192.7z"/>
				</g>
				<g>
					<path class="st21" d="M1196.9,458.9h-6.5c-0.5,0-1-0.4-1-1v-6.5c0-0.5,0.4-1,1-1h6.5c0.5,0,1,0.4,1,1v6.5
						C1197.9,458.4,1197.4,458.9,1196.9,458.9z M1190.4,451.3C1190.4,451.3,1190.4,451.4,1190.4,451.3l0,6.5c0,0,0,0,0,0h6.5
						c0,0,0,0,0,0v-6.5c0,0,0,0,0,0H1190.4z"/>
				</g>
			</g>
		</g>
	</g>
	<g>
		<g>
			<path class="st2" d="M784.3,255.3c1.2,6.3-4.3,11.8-10.6,10.6c-3.5-0.7-6.4-3.5-7.1-7.1c-1.2-6.3,4.3-11.8,10.6-10.6
				C780.7,249,783.6,251.8,784.3,255.3z"/>
			<path class="st16" d="M779.6,252.9c-0.2,0-0.3,0.1-0.3,0.3v1c-0.8-1.1-2.2-1.8-3.7-1.8c-2.6,0-4.7,2.1-4.7,4.7
				c0,2.6,2.1,4.7,4.7,4.7c1.7,0,3.2-0.8,4-2.3c0.1-0.1,0-0.3-0.1-0.4s-0.3,0-0.4,0.1c-0.8,1.2-2.1,2-3.5,2c-2.3,0-4.1-1.9-4.1-4.1
				c0-2.3,1.9-4.2,4.1-4.2c1.4,0,2.6,0.7,3.4,1.8h-1.3c-0.2,0-0.3,0.2-0.3,0.3c0,0.2,0.1,0.3,0.3,0.3h1.9c0.2,0,0.3-0.1,0.3-0.3
				v-1.9C779.9,253,779.8,252.9,779.6,252.9z"/>
		</g>
		<g>
			<g>
				<circle class="st2" cx="820.6" cy="257.1" r="9"/>
			</g>
			<g>
				<path class="st5" d="M819.8,253.7c0,2.3,0,4.6,0,6.9c0,1,1.5,1,1.5,0c0-2.3,0-4.6,0-6.9C821.3,252.7,819.8,252.7,819.8,253.7
					L819.8,253.7z"/>
			</g>
			<g>
				<path class="st5" d="M817.1,257.9c2.3,0,4.6,0,6.9,0c1,0,1-1.5,0-1.5c-2.3,0-4.6,0-6.9,0C816.2,256.4,816.2,257.9,817.1,257.9
					L817.1,257.9z"/>
			</g>
		</g>
		<g>
			<g>
				<circle class="st2" cx="798" cy="257.1" r="9"/>
			</g>
			<g>
				<path class="st5" d="M794.6,257.9c2.3,0,4.6,0,6.9,0c1,0,1-1.5,0-1.5c-2.3,0-4.6,0-6.9,0C793.6,256.4,793.6,257.9,794.6,257.9
					L794.6,257.9z"/>
			</g>
		</g>
	</g>
</g>
<g>
	<g>
		<g>
			<path id="bck_2_" class="st2" d="M2147.8,703.4H1479c-8.6,0-15.6-7.1-15.6-15.9V119.3c0-8.8,7-15.9,15.6-15.9h668.7
				c8.6,0,15.6,7.1,15.6,15.9v568.2C2163.4,696.3,2156.4,703.4,2147.8,703.4z"/>
			<g>
				<path class="st3" d="M1927.7,197.5v-35.7c0-6.2,5-11.2,11.1-11.2h205.5c6.4,0,11.6,5.2,11.6,11.7v520.3
					c0,6.4-5.2,12.7-11.6,12.7h-661.9c-6.4,0-11.6-6.3-11.6-12.7V207.9c0-6.3,5-10.3,11.2-10.3H1927.7z"/>
				<path class="st4" d="M2144.6,197.5h-216.7v-35.3c0-6.5-5.2-11.7-11.6-11.7h-206.6c-6.2,0-11.1,5-11.1,11.2v35.7h-216.5
					c-6.2,0-11.2,5.1-11.2,11.3v79.3v386.7v9c0,6.4,5.2,11.7,11.6,11.7h661.9c6.4,0,11.6-5.2,11.6-11.7v-9V229v-20.1
					C2155.9,202.6,2150.9,197.5,2144.6,197.5z"/>
				<path class="st5" d="M1698.1,197.5v-35.7c0-6.2-5-11.2-11.1-11.2h-204.5c-6.4,0-11.6,5.2-11.6,11.7v521.5
					c0,6.4,5.2,11.7,11.6,11.7h661.9c6.4,0,11.6-5.2,11.6-11.7V208.9c0-6.3-5-11.3-11.2-11.3H1698.1z"/>
			</g>
			<g>
				<g>
					<text transform="matrix(1 0 0 1 1511.4421 132.7468)" class="st5 st6 st7">PartsBin Browser</text>
				</g>
				<g>
					<g>
						<path class="st8" d="M1493.1,115.5c-1.4,0-2.7,0.2-4,0.7c-2.9,1.1-5.2,3.3-6.4,6.1c-1.2,2.8-1.3,5.9-0.2,8.8
							c1.7,4.5,6,7.5,10.8,7.5c1.4,0,2.7-0.2,4-0.7c2.9-1.1,5.2-3.3,6.4-6.1c1.2-2.8,1.3-5.9,0.2-8.8
							C1502.2,118.5,1497.8,115.5,1493.1,115.5z"/>
					</g>
					<g>
						<path d="M1492.9,122.2c1.7,0.9,3.4,1.8,5.1,2.7c0-0.2,0-0.4,0-0.7c-1.7,0.9-3.4,1.8-5.1,2.8c0.1,0,0.3,0,0.4,0
							c-1.7-0.9-3.4-1.8-5.1-2.8c0,0.2,0,0.4,0,0.7c1.7-0.9,3.4-1.8,5.1-2.8c0.4-0.2,0-0.9-0.4-0.7c-1.7,0.9-3.4,1.8-5.1,2.8
							c-0.3,0.1-0.3,0.5,0,0.7c0.9,0.5,1.9,1,2.8,1.5c0.6,0.3,1.2,0.6,1.7,0.9c0.2,0.1,0.5,0.4,0.8,0.4c0.3,0,0.6-0.3,0.8-0.4
							c0.6-0.3,1.1-0.6,1.7-0.9c0.9-0.5,1.9-1,2.8-1.5c0.3-0.1,0.3-0.5,0-0.7c-1.7-0.9-3.4-1.8-5.1-2.7
							C1492.9,121.3,1492.5,122,1492.9,122.2z"/>
						<path d="M1498,124.3c-1.7,0.9-3.4,1.8-5.1,2.8c-0.1,0.1-0.2,0.2-0.2,0.3c0,2.1,0,4.1,0,6.2c0,0.3,0.3,0.5,0.6,0.3
							c1.5-0.9,3-1.8,4.5-2.8c0.5-0.3,0.8-0.4,0.8-1c0-0.9,0-1.8,0-2.6c0-0.5-0.8-0.5-0.8,0c0,1,0,1.9,0,2.9
							c0.1-0.1,0.1-0.2,0.2-0.3c-1.7,1-3.4,2.1-5.1,3.1c0.2,0.1,0.4,0.2,0.6,0.3c0-2.1,0-4.1,0-6.2c-0.1,0.1-0.1,0.2-0.2,0.3
							c1.7-0.9,3.4-1.8,5.1-2.8C1498.9,124.7,1498.5,124.1,1498,124.3L1498,124.3z"/>
						<path d="M1487.8,125c1.7,0.9,3.4,1.8,5.1,2.8c-0.1-0.1-0.1-0.2-0.2-0.3c0,2.1,0,4.1,0,6.2c0.2-0.1,0.4-0.2,0.6-0.3
							c-1.7-1-3.4-2.1-5.1-3.1c0.1,0.1,0.1,0.2,0.2,0.3c0-1.9,0-3.9,0-5.8c0-0.5-0.8-0.5-0.8,0c0,1.1,0,2.1,0,3.2c0,0.7,0,1.3,0,2
							c0,0.3-0.1,0.7,0.1,0.9c0.2,0.2,0.6,0.4,0.8,0.5c0.6,0.3,1.1,0.7,1.7,1c0.9,0.6,1.8,1.1,2.7,1.7c0.3,0.2,0.6,0,0.6-0.3
							c0-2.1,0-4.1,0-6.2c0-0.1-0.1-0.3-0.2-0.3c-1.7-0.9-3.4-1.8-5.1-2.8C1487.7,124.1,1487.4,124.7,1487.8,125z"/>
						<path d="M1492.9,127.7c0.8,0.4,1.5,0.8,2.3,1.2c0.6,0.3,0.8,0.1,1.3-0.2c1.5-0.8,3.1-1.7,4.6-2.5c0.2-0.1,0.3-0.5,0-0.7
							c-0.8-0.4-1.5-0.7-2.3-1.1c-0.6-0.3-0.8-0.2-1.3,0.1c-1.5,0.8-3,1.6-4.6,2.5c-0.4,0.2,0,0.9,0.4,0.7c1.7-0.9,3.4-1.8,5.1-2.8
							c-0.1,0-0.3,0-0.4,0c0.9,0.4,1.8,0.9,2.6,1.3c0-0.2,0-0.4,0-0.7c-1.7,0.9-3.5,1.9-5.2,2.8c0.1,0,0.3,0,0.4,0
							c-0.9-0.5-1.7-0.9-2.6-1.4C1492.9,126.8,1492.5,127.5,1492.9,127.7z"/>
						<path d="M1488.3,124.3c-0.9-0.5-1.8-0.9-2.6-1.4c0,0.2,0,0.4,0,0.7c1.7-0.9,3.4-1.9,5.1-2.8c-0.1,0-0.3,0-0.4,0
							c0.9,0.5,1.7,0.9,2.6,1.4c0-0.2,0-0.4,0-0.7c-1.7,0.9-3.4,1.8-5,2.8c-0.4,0.2,0,0.9,0.4,0.7c1.7-0.9,3.4-1.8,5-2.8
							c0.3-0.1,0.3-0.5,0-0.7c-0.7-0.4-1.5-0.8-2.2-1.2c-0.6-0.3-0.8-0.2-1.3,0.1c-1.5,0.8-3,1.7-4.5,2.5c-0.2,0.1-0.3,0.5,0,0.7
							c0.9,0.5,1.8,0.9,2.6,1.4C1488.3,125.2,1488.7,124.5,1488.3,124.3z"/>
						<g>
							<path d="M1489.5,128.9c0.6,0.3,1.2,0.7,1.8,1c0.4,0.2,0.7-0.4,0.3-0.6c-0.6-0.3-1.2-0.7-1.8-1
								C1489.4,128.1,1489.1,128.7,1489.5,128.9L1489.5,128.9z"/>
							<path d="M1490.2,128.1c0,0.7,0,1.4,0,2.1c0,0.4,0.7,0.4,0.7,0c0-0.7,0-1.4,0-2.1C1490.9,127.6,1490.2,127.6,1490.2,128.1
								L1490.2,128.1z"/>
						</g>
					</g>
				</g>
			</g>
			<g>
				<g>
					<g>
						<circle class="st9" cx="2138.8" cy="127" r="7.4"/>
						<g>
							<line class="st10" x1="2135.2" y1="123.3" x2="2142.6" y2="130.8"/>
							<line class="st10" x1="2135.2" y1="130.8" x2="2142.6" y2="123.3"/>
						</g>
					</g>
				</g>
				<g>
					<circle class="st8" cx="2113.8" cy="127" r="7.4"/>
					<g>
						<g>
							<path class="st2" d="M2117.8,128h-8c-0.3,0-0.5-0.2-0.5-0.5s0.2-0.5,0.5-0.5h8c0.3,0,0.5,0.2,0.5,0.5S2118,128,2117.8,128z"
								/>
						</g>
					</g>
				</g>
			</g>
			<g>
				<text transform="matrix(1 0 0 1 2024.6603 178.0498)" class="st5 st11 st12">Lively</text>
			</g>
			<g>
				<text transform="matrix(1 0 0 1 1566.4841 178.0498)" class="st13 st6 st12">Yours</text>
			</g>
			<g>
				<text transform="matrix(1 0 0 1 1777.8965 178.0503)" class="st5 st11 st12">Community</text>
			</g>
		</g>
	</g>
	<g>
		<g>
			<g>
				<path class="st14" d="M1628.8,233.2h-132.2c-5.1,0-9.3-4.2-9.3-9.3v-1.4c0-5.1,4.2-9.3,9.3-9.3h132.2c5.1,0,9.3,4.2,9.3,9.3v1.4
					C1638,229,1633.9,233.2,1628.8,233.2z"/>
			</g>
		</g>
		<g>
			<g>
				<path class="st9" d="M1617.8,213.3h10.9c5.1,0,9.3,4.2,9.3,9.3v1.4c0,5.1-4.2,9.3-9.3,9.3h-10.9V213.3z"/>
			</g>
		</g>
		<g>
			<polyline class="st15" points="1631.5,225.2 1627.9,228.7 1624.4,225.2 			"/>
			<polyline class="st15" points="1624.4,221.2 1627.9,217.7 1631.5,221.2 			"/>
		</g>
	</g>
	<g>
		<g>
			<path class="st2" d="M1527.9,255.3c1.2,6.3-4.3,11.8-10.6,10.6c-3.5-0.7-6.4-3.5-7.1-7.1c-1.2-6.3,4.3-11.8,10.6-10.6
				C1524.3,249,1527.2,251.8,1527.9,255.3z"/>
			<g>
				<line class="st26" x1="1515" y1="257.5" x2="1523" y2="257.5"/>
			</g>
		</g>
		<g>
			<path class="st2" d="M1550.4,255.3c1.2,6.3-4.3,11.8-10.6,10.6c-3.5-0.7-6.4-3.5-7.1-7.1c-1.2-6.3,4.3-11.8,10.6-10.6
				C1546.9,249,1549.7,251.8,1550.4,255.3z"/>
			<g>
				<line class="st26" x1="1537" y1="257.5" x2="1546" y2="257.5"/>
			</g>
			<g>
				<line class="st26" x1="1541.5" y1="253" x2="1541.5" y2="262"/>
			</g>
		</g>
		<g>
			<path class="st2" d="M1505.3,255.3c1.2,6.3-4.3,11.8-10.6,10.6c-3.5-0.7-6.4-3.5-7.1-7.1c-1.2-6.3,4.3-11.8,10.6-10.6
				C1501.7,249,1504.6,251.8,1505.3,255.3z"/>
			<path class="st16" d="M1500.6,252.9c-0.2,0-0.3,0.1-0.3,0.3v1c-0.8-1.1-2.2-1.8-3.7-1.8c-2.6,0-4.7,2.1-4.7,4.7
				c0,2.6,2.1,4.7,4.7,4.7c1.7,0,3.2-0.8,4-2.3c0.1-0.1,0-0.3-0.1-0.4c-0.1-0.1-0.3,0-0.4,0.1c-0.8,1.2-2.1,2-3.5,2
				c-2.3,0-4.1-1.9-4.1-4.1c0-2.3,1.9-4.2,4.1-4.2c1.4,0,2.6,0.7,3.4,1.8h-1.3c-0.2,0-0.3,0.2-0.3,0.3c0,0.2,0.1,0.3,0.3,0.3h1.9
				c0.2,0,0.3-0.1,0.3-0.3v-1.9C1500.9,253,1500.8,252.9,1500.6,252.9z"/>
		</g>
		<g>
			<g>
				<path class="st2" d="M1505.3,255.3c1.2,6.3-4.3,11.8-10.6,10.6c-3.5-0.7-6.4-3.5-7.1-7.1c-1.2-6.3,4.3-11.8,10.6-10.6
					C1501.7,249,1504.6,251.8,1505.3,255.3z"/>
				<path class="st16" d="M1500.6,252.9c-0.2,0-0.3,0.1-0.3,0.3v1c-0.8-1.1-2.2-1.8-3.7-1.8c-2.6,0-4.7,2.1-4.7,4.7
					c0,2.6,2.1,4.7,4.7,4.7c1.7,0,3.2-0.8,4-2.3c0.1-0.1,0-0.3-0.1-0.4c-0.1-0.1-0.3,0-0.4,0.1c-0.8,1.2-2.1,2-3.5,2
					c-2.3,0-4.1-1.9-4.1-4.1c0-2.3,1.9-4.2,4.1-4.2c1.4,0,2.6,0.7,3.4,1.8h-1.3c-0.2,0-0.3,0.2-0.3,0.3c0,0.2,0.1,0.3,0.3,0.3h1.9
					c0.2,0,0.3-0.1,0.3-0.3v-1.9C1500.9,253,1500.8,252.9,1500.6,252.9z"/>
			</g>
			<g>
				<g>
					<circle class="st2" cx="1541.6" cy="257.1" r="9"/>
				</g>
				<g>
					<path class="st5" d="M1540.8,253.7c0,2.3,0,4.6,0,6.9c0,1,1.5,1,1.5,0c0-2.3,0-4.6,0-6.9
						C1542.3,252.7,1540.8,252.7,1540.8,253.7L1540.8,253.7z"/>
				</g>
				<g>
					<path class="st5" d="M1538.1,257.9c2.3,0,4.6,0,6.9,0c1,0,1-1.5,0-1.5c-2.3,0-4.6,0-6.9,0
						C1537.2,256.4,1537.2,257.9,1538.1,257.9L1538.1,257.9z"/>
				</g>
			</g>
			<g>
				<g>
					<circle class="st2" cx="1519" cy="257.1" r="9"/>
				</g>
				<g>
					<path class="st5" d="M1515.6,257.9c2.3,0,4.6,0,6.9,0c1,0,1-1.5,0-1.5c-2.3,0-4.6,0-6.9,0
						C1514.6,256.4,1514.6,257.9,1515.6,257.9L1515.6,257.9z"/>
				</g>
			</g>
		</g>
	</g>
	<g>
		<text transform="matrix(1 0 0 1 1496.2888 227.6892)" class="st13 st17 st18">http://livelywe....</text>
	</g>
	<g>
		<text transform="matrix(1 0 0 1 1487.2888 296.2205)" class="st13 st6 st19">*All</text>
	</g>
	<g>
		<text transform="matrix(1 0 0 1 1487.2888 317.3669)" class="st13 st6 st19">*Latest</text>
	</g>
	<g>
		<text transform="matrix(1 0 0 1 1487.2888 338.5125)" class="st13 st6 st19">*Search</text>
	</g>
	<g>
		<text transform="matrix(1 0 0 1 1487.2888 401.9548)" class="st13 st17 st19">Code</text>
	</g>
	<g>
		<text transform="matrix(1 0 0 1 1487.2888 423.1033)" class="st13 st17 st19">Controls</text>
	</g>
	<g>
		<g>
			<path class="st9" d="M1621.8,385.4h-132.2c-5.1,0-9.3-4.2-9.3-9.3v-1.4c0-5.1,4.2-9.3,9.3-9.3h132.2c5.1,0,9.3,4.2,9.3,9.3v1.4
				C1631,381.2,1626.9,385.4,1621.8,385.4z"/>
		</g>
	</g>
	<g>
		<text transform="matrix(1 0 0 1 1487.2888 359.6638)" class="st13 st17 st19">Art</text>
	</g>
	<g>
		<text transform="matrix(1 0 0 1 1487.2888 380.8093)" class="st5 st17 st19">Basic</text>
	</g>
	<line class="st20" x1="1655.2" y1="215" x2="1655.2" y2="684.8"/>
	<g>
		<g>
			<g>
				<path class="st14" d="M2107.6,233.2h-425.5c-5.1,0-9.3-4.2-9.3-9.3v-1.4c0-5.1,4.2-9.3,9.3-9.3h425.5c5.1,0,9.3,4.2,9.3,9.3v1.4
					C2116.8,229,2112.7,233.2,2107.6,233.2z"/>
			</g>
		</g>
		<g>
			<g>
				<path class="st9" d="M2096.6,233.2h10.9c5.1,0,9.3-4.2,9.3-9.3v-1.4c0-5.1-4.2-9.3-9.3-9.3h-10.9V233.2z"/>
			</g>
		</g>
		<path class="st5" d="M2111.9,220.8c-0.3-2.2-2.1-3.9-4.4-3.9c-0.2,0-0.4,0-0.5,0c-2.4,0.3-4.1,2.5-3.8,4.9c0.1,1.1,0.7,2,1.4,2.7
			l-2.9,3.8c-0.1,0.2-0.1,0.5,0.1,0.6c0.1,0.1,0.2,0.1,0.3,0.1c0.1,0,0.3-0.1,0.3-0.2l3-3.8c0.7,0.4,1.5,0.6,2.3,0.6
			c0.2,0,0.4,0,0.5,0C2110.5,225.4,2112.2,223.2,2111.9,220.8z M2108,224.9c-0.2,0-0.3,0-0.5,0c-1.8,0-3.3-1.3-3.5-3.1
			c-0.2-2,1.2-3.7,3.1-4c0.2,0,0.3,0,0.5,0c1.8,0,3.3,1.3,3.5,3.1C2111.3,222.9,2109.9,224.6,2108,224.9z"/>
	</g>
	<rect x="1672.3" y="251" class="st21" width="104.9" height="104.9"/>
	<rect x="1785.5" y="251" class="st21" width="104.9" height="104.9"/>
	<rect x="1898.8" y="251" class="st21" width="104.9" height="104.9"/>
	<rect x="1672.3" y="364.2" class="st21" width="104.9" height="104.9"/>
	<rect x="1785.5" y="364.2" class="st21" width="104.9" height="104.9"/>
	<rect x="1898.8" y="364.2" class="st21" width="104.9" height="104.9"/>
	<rect x="1672.3" y="477.5" class="st21" width="104.9" height="104.9"/>
	<rect x="1785.5" y="477.5" class="st21" width="104.9" height="104.9"/>
	<rect x="1898.8" y="477.5" class="st21" width="104.9" height="104.9"/>
	<rect x="1672.3" y="590.8" class="st21" width="104.9" height="104.9"/>
	<rect x="1785.5" y="590.8" class="st21" width="104.9" height="104.9"/>
	<rect x="1898.8" y="590.8" class="st21" width="104.9" height="104.9"/>
	<g>
		<text transform="matrix(1 0 0 1 1696.948 349.2976)" class="st13 st17 st22">Example 1</text>
	</g>
	<g>
		<text transform="matrix(1 0 0 1 1810.2402 349.2976)" class="st13 st17 st22">Example 2</text>
	</g>
	<g>
		<text transform="matrix(1 0 0 1 1923.5323 349.2976)" class="st13 st17 st22">Example 3</text>
	</g>
	<g>
		<text transform="matrix(1 0 0 1 1696.948 462.0505)" class="st13 st17 st22">Example 1</text>
	</g>
	<g>
		<text transform="matrix(1 0 0 1 1810.2402 462.0505)" class="st13 st17 st22">Example 2</text>
	</g>
	<g>
		<text transform="matrix(1 0 0 1 1696.948 574.8015)" class="st13 st17 st22">Example 1</text>
	</g>
	<g>
		<text transform="matrix(1 0 0 1 1810.2402 574.8015)" class="st13 st17 st22">Example 2</text>
	</g>
	<g>
		<text transform="matrix(1 0 0 1 1923.5323 574.8015)" class="st13 st17 st22">Example 3</text>
	</g>
	<g>
		<text transform="matrix(1 0 0 1 1696.948 688.448)" class="st13 st17 st22">Example 1</text>
	</g>
	<g>
		<text transform="matrix(1 0 0 1 1810.2402 688.448)" class="st13 st17 st22">Example 2</text>
	</g>
	<g>
		<text transform="matrix(1 0 0 1 1923.5323 688.448)" class="st13 st17 st22">Example 3</text>
	</g>
	<rect x="2012.2" y="251" class="st21" width="104.9" height="104.9"/>
	<rect x="2012.2" y="364.2" class="st21" width="104.9" height="104.9"/>
	<rect x="2012.2" y="477.5" class="st21" width="104.9" height="104.9"/>
	<rect x="2012.2" y="590.8" class="st21" width="104.9" height="104.9"/>
	<g>
		<text transform="matrix(1 0 0 1 2036.9156 349.2976)" class="st13 st17 st22">Example 3</text>
	</g>
	<g>
		<text transform="matrix(1 0 0 1 2036.9156 462.0505)" class="st13 st17 st22">Example 3</text>
	</g>
	<g>
		<text transform="matrix(1 0 0 1 2036.9156 574.8015)" class="st13 st17 st22">Example 3</text>
	</g>
	<g>
		<text transform="matrix(1 0 0 1 2036.9156 688.448)" class="st13 st17 st22">Example 3</text>
	</g>
	<g>
		<line class="st23" x1="1900.3" y1="365" x2="2001.3" y2="467.5"/>
		<line class="st23" x1="1899.6" y1="466.8" x2="2002" y2="365.7"/>
		<path class="st24" d="M1999.7,469h-95.9c-2.6,0-4.6-2.1-4.6-4.6v-95.9c0-2.6,2.1-4.6,4.6-4.6h95.9c2.6,0,4.6,2.1,4.6,4.6v95.9
			C2004.3,466.9,2002.2,469,1999.7,469z"/>
	</g>
	<g>
		<g>
			<g>
				<g>
					<path class="st21" d="M2132.7,681.1V255.7c0-2,1.7-3.7,3.7-3.7h0.5c2,0,3.7,1.7,3.7,3.7v425.4c0,2-1.7,3.7-3.7,3.7h-0.5
						C2134.4,684.8,2132.7,683.1,2132.7,681.1z"/>
				</g>
			</g>
		</g>
		<g>
			<g>
				<g>
					<path class="st8" d="M2133.8,325.4V282c0-1.5,1.2-2.7,2.7-2.7h0.4c1.5,0,2.7,1.2,2.7,2.7v43.5c0,1.5-1.2,2.7-2.7,2.7h-0.4
						C2135,328.1,2133.8,326.9,2133.8,325.4z"/>
				</g>
			</g>
		</g>
	</g>
	<g>
		<g>
			<path class="st2" d="M1948.4,451.7c1.2,6.2-4.2,11.6-10.4,10.4c-3.5-0.7-6.3-3.5-6.9-6.9c-1.2-6.2,4.2-11.6,10.4-10.4
				C1944.9,445.4,1947.7,448.3,1948.4,451.7z"/>
			<g>
				<g>
					<path class="st21" d="M1935.3,449.7c2.7,2.7,5.5,5.5,8.2,8.2c0.5,0.5,1.2-0.3,0.7-0.7c-2.7-2.7-5.5-5.5-8.2-8.2
						C1935.5,448.5,1934.8,449.3,1935.3,449.7L1935.3,449.7z"/>
				</g>
				<g>
					<path class="st21" d="M1936,457.9c2.7-2.7,5.5-5.5,8.2-8.2c0.5-0.5-0.3-1.2-0.7-0.7c-2.7,2.7-5.5,5.5-8.2,8.2
						C1934.8,457.7,1935.5,458.4,1936,457.9L1936,457.9z"/>
				</g>
			</g>
		</g>
		<g>
			<path class="st2" d="M1996.3,451.5c1.2,6.2-4.2,11.6-10.4,10.4c-3.5-0.7-6.3-3.5-6.9-6.9c-1.2-6.2,4.2-11.6,10.4-10.4
				C1992.9,445.3,1995.7,448.1,1996.3,451.5z"/>
			<g>
				<g>
					<path class="st21" d="M1982.8,453.8c3.9,0,5.8,0,9.7,0c0.7,0,0.7-1,0-1c-3.9,0-5.8,0-9.7,0
						C1982.1,452.8,1982.1,453.8,1982.8,453.8L1982.8,453.8z"/>
				</g>
			</g>
			<g>
				<g>
					<path class="st21" d="M1982.8,451.1c3.9,0,5.8,0,9.7,0c0.7,0,0.7-1,0-1c-3.9,0-5.8,0-9.7,0
						C1982.1,450.1,1982.1,451.1,1982.8,451.1L1982.8,451.1z"/>
				</g>
			</g>
			<g>
				<g>
					<path class="st21" d="M1982.8,456.6c3.9,0,5.8,0,9.7,0c0.7,0,0.7-1,0-1c-3.9,0-5.8,0-9.7,0
						C1982.1,455.6,1982.1,456.6,1982.8,456.6L1982.8,456.6z"/>
				</g>
			</g>
		</g>
		<g>
			<path class="st9" d="M1972.4,451.5c1.2,6.2-4.2,11.6-10.4,10.4c-3.5-0.7-6.3-3.5-6.9-6.9c-1.2-6.2,4.2-11.6,10.4-10.4
				C1968.9,445.3,1971.7,448.1,1972.4,451.5z"/>
			<g>
				<g>
					<path class="st21" d="M1961.5,451.1c3.9,0,3.2,0,7.1,0c0.7,0,0.7-1,0-1c-3.9,0-3.2,0-7.1,0
						C1960.8,450.1,1960.8,451.1,1961.5,451.1L1961.5,451.1z"/>
				</g>
			</g>
			<g>
				<g>
					<path class="st21" d="M1961.5,453.8c3.9,0,3.2,0,7.1,0c0.7,0,0.7-1,0-1c-3.9,0-3.2,0-7.1,0
						C1960.8,452.8,1960.8,453.8,1961.5,453.8L1961.5,453.8z"/>
				</g>
			</g>
			<g>
				<g>
					<path class="st21" d="M1961.5,456.5c3.9,0,3.2,0,7.1,0c0.7,0,0.7-1,0-1c-3.9,0-3.2,0-7.1,0
						C1960.8,455.5,1960.8,456.5,1961.5,456.5L1961.5,456.5z"/>
				</g>
			</g>
			<circle class="st21" cx="1958.9" cy="450.6" r="0.5"/>
			<circle class="st21" cx="1958.9" cy="453.2" r="0.5"/>
			<circle class="st21" cx="1958.9" cy="455.8" r="0.5"/>
		</g>
		<g>
			<path class="st2" d="M1924.4,451.8c1.2,6.2-4.2,11.6-10.4,10.4c-3.5-0.7-6.3-3.5-6.9-6.9c-1.2-6.2,4.2-11.6,10.4-10.4
				C1921,445.5,1923.8,448.3,1924.4,451.8z"/>
			<g>
				<g>
					<path class="st21" d="M1920.1,456.7h-6.5c-0.5,0-1-0.4-1-1v-6.5c0-0.5,0.4-1,1-1h6.5c0.5,0,1,0.4,1,1v6.5
						C1921.1,456.3,1920.7,456.7,1920.1,456.7z M1913.7,449.2C1913.6,449.2,1913.6,449.2,1913.7,449.2l0,6.5c0,0,0,0,0,0h6.5
						c0,0,0,0,0,0v-6.5c0,0,0,0,0,0H1913.7z"/>
				</g>
				<g>
					<path class="st21" d="M1917.9,458.9h-6.5c-0.5,0-1-0.4-1-1v-6.5c0-0.5,0.4-1,1-1h6.5c0.5,0,1,0.4,1,1v6.5
						C1918.9,458.4,1918.4,458.9,1917.9,458.9z M1911.4,451.3C1911.4,451.3,1911.4,451.4,1911.4,451.3l0,6.5c0,0,0,0,0,0h6.5
						c0,0,0,0,0,0v-6.5c0,0,0,0,0,0H1911.4z"/>
				</g>
			</g>
		</g>
	</g>
	<g>
		<path class="st2" d="M1998,477h-26.2h-1.7l-4.6-12.1c-0.8-1.2-2.6-1.1-3.4,0.2l-4.7,12h-1.3h-24.6c-3.8,0-6.5,2.6-6.5,6.4v119.7
			c0,3.8,2.7,7.9,6.5,7.9h66.5c3.8,0,7-4.1,7-7.9V483.4C2005,479.6,2001.8,477,1998,477z"/>
		<path class="st5" d="M1997.4,605.9h-65.9c-1.9,0-3.4-1.5-3.4-3.4V483.6c0-1.9,1.5-3.4,3.4-3.4h65.9c1.9,0,3.4,1.5,3.4,3.4v118.8
			C2000.7,604.4,1999.2,605.9,1997.4,605.9z"/>
		<path class="st9" d="M1997.4,605.9h-65.9c-1.9,0-3.4-1.5-3.4-3.4v-8.4h72.7v8.4C2000.7,604.4,1999.2,605.9,1997.4,605.9z"/>
		<g>
			<g>
				<g>
					<text transform="matrix(1 0 0 1 1935.0983 494.4998)" class="st13 st6 st22">*All</text>
				</g>
				<g>
					<text transform="matrix(1 0 0 1 1935.0983 513.437)" class="st13 st6 st22">*Latest</text>
				</g>
				<g>
					<text transform="matrix(1 0 0 1 1935.0983 532.3762)" class="st13 st6 st22">*Search</text>
				</g>
				<g>
					<text transform="matrix(1 0 0 1 1935.0983 589.1904)" class="st13 st17 st22">Code</text>
				</g>
				<g>
					<text transform="matrix(1 0 0 1 1935.0983 551.3137)" class="st13 st17 st22">Art</text>
				</g>
				<g>
					<text transform="matrix(1 0 0 1 1935.0983 570.252)" class="st13 st17 st22">Basic</text>
				</g>
			</g>
		</g>
		<g>
			<polyline class="st27" points="1968.4,598 1964.4,602 1960.4,598 			"/>
		</g>
		<line class="st28" x1="1931" y1="499.5" x2="1997" y2="499.5"/>
		<line class="st28" x1="1931" y1="518.5" x2="1997" y2="518.5"/>
		<line class="st28" x1="1931" y1="538.5" x2="1997" y2="538.5"/>
		<line class="st28" x1="1931" y1="556.5" x2="1997" y2="556.5"/>
		<line class="st28" x1="1931" y1="575.5" x2="1997" y2="575.5"/>
	</g>
	<g>
		<g>
			<polygon class="st25" points="1974.6,459.8 1966.3,452.9 1967.6,463.6 1970.3,462.1 1973.2,467.4 1974,466.9 1971.2,461.6 			"/>
			<polygon points="1974.6,459.8 1966.3,452.9 1967.6,463.6 1970.3,462.1 1973.2,467.4 1974,466.9 1971.2,461.6 			"/>
		</g>
	</g>
</g>
<g>
	<g>
		<g>
			<path id="bck_3_" class="st2" d="M2869.8,703.4H2201c-8.6,0-15.6-7.1-15.6-15.9V119.3c0-8.8,7-15.9,15.6-15.9h668.7
				c8.6,0,15.6,7.1,15.6,15.9v568.2C2885.4,696.3,2878.4,703.4,2869.8,703.4z"/>
			<g>
				<path class="st3" d="M2649.7,197.5v-35.7c0-6.2,5-11.2,11.1-11.2h205.5c6.4,0,11.6,5.2,11.6,11.7v520.3
					c0,6.4-5.2,12.7-11.6,12.7h-661.9c-6.4,0-11.6-6.3-11.6-12.7V207.9c0-6.3,5-10.3,11.2-10.3H2649.7z"/>
				<path class="st4" d="M2866.6,197.5h-216.7v-35.3c0-6.5-5.2-11.7-11.6-11.7h-206.6c-6.2,0-11.1,5-11.1,11.2v35.7h-216.5
					c-6.2,0-11.2,5.1-11.2,11.3v79.3v386.7v9c0,6.4,5.2,11.7,11.6,11.7h661.9c6.4,0,11.6-5.2,11.6-11.7v-9V229v-20.1
					C2877.9,202.6,2872.9,197.5,2866.6,197.5z"/>
				<path class="st5" d="M2420.1,197.5v-35.7c0-6.2-5-11.2-11.1-11.2h-204.5c-6.4,0-11.6,5.2-11.6,11.7v521.5
					c0,6.4,5.2,11.7,11.6,11.7h661.9c6.4,0,11.6-5.2,11.6-11.7V208.9c0-6.3-5-11.3-11.2-11.3H2420.1z"/>
			</g>
			<g>
				<g>
					<text transform="matrix(1 0 0 1 2233.4421 132.7468)" class="st5 st6 st7">PartsBin Browser</text>
				</g>
				<g>
					<g>
						<path class="st8" d="M2215.1,115.5c-1.4,0-2.7,0.2-4,0.7c-2.9,1.1-5.2,3.3-6.4,6.1c-1.2,2.8-1.3,5.9-0.2,8.8
							c1.7,4.5,6,7.5,10.8,7.5c1.4,0,2.7-0.2,4-0.7c2.9-1.1,5.2-3.3,6.4-6.1c1.2-2.8,1.3-5.9,0.2-8.8
							C2224.2,118.5,2219.8,115.5,2215.1,115.5z"/>
					</g>
					<g>
						<path d="M2214.9,122.2c1.7,0.9,3.4,1.8,5.1,2.7c0-0.2,0-0.4,0-0.7c-1.7,0.9-3.4,1.8-5.1,2.8c0.1,0,0.3,0,0.4,0
							c-1.7-0.9-3.4-1.8-5.1-2.8c0,0.2,0,0.4,0,0.7c1.7-0.9,3.4-1.8,5.1-2.8c0.4-0.2,0-0.9-0.4-0.7c-1.7,0.9-3.4,1.8-5.1,2.8
							c-0.3,0.1-0.3,0.5,0,0.7c0.9,0.5,1.9,1,2.8,1.5c0.6,0.3,1.2,0.6,1.7,0.9c0.2,0.1,0.5,0.4,0.8,0.4c0.3,0,0.6-0.3,0.8-0.4
							c0.6-0.3,1.1-0.6,1.7-0.9c0.9-0.5,1.9-1,2.8-1.5c0.3-0.1,0.3-0.5,0-0.7c-1.7-0.9-3.4-1.8-5.1-2.7
							C2214.9,121.3,2214.5,122,2214.9,122.2z"/>
						<path d="M2220,124.3c-1.7,0.9-3.4,1.8-5.1,2.8c-0.1,0.1-0.2,0.2-0.2,0.3c0,2.1,0,4.1,0,6.2c0,0.3,0.3,0.5,0.6,0.3
							c1.5-0.9,3-1.8,4.5-2.8c0.5-0.3,0.8-0.4,0.8-1c0-0.9,0-1.8,0-2.6c0-0.5-0.8-0.5-0.8,0c0,1,0,1.9,0,2.9
							c0.1-0.1,0.1-0.2,0.2-0.3c-1.7,1-3.4,2.1-5.1,3.1c0.2,0.1,0.4,0.2,0.6,0.3c0-2.1,0-4.1,0-6.2c-0.1,0.1-0.1,0.2-0.2,0.3
							c1.7-0.9,3.4-1.8,5.1-2.8C2220.9,124.7,2220.5,124.1,2220,124.3L2220,124.3z"/>
						<path d="M2209.8,125c1.7,0.9,3.4,1.8,5.1,2.8c-0.1-0.1-0.1-0.2-0.2-0.3c0,2.1,0,4.1,0,6.2c0.2-0.1,0.4-0.2,0.6-0.3
							c-1.7-1-3.4-2.1-5.1-3.1c0.1,0.1,0.1,0.2,0.2,0.3c0-1.9,0-3.9,0-5.8c0-0.5-0.8-0.5-0.8,0c0,1.1,0,2.1,0,3.2c0,0.7,0,1.3,0,2
							c0,0.3-0.1,0.7,0.1,0.9c0.2,0.2,0.6,0.4,0.8,0.5c0.6,0.3,1.1,0.7,1.7,1c0.9,0.6,1.8,1.1,2.7,1.7c0.3,0.2,0.6,0,0.6-0.3
							c0-2.1,0-4.1,0-6.2c0-0.1-0.1-0.3-0.2-0.3c-1.7-0.9-3.4-1.8-5.1-2.8C2209.7,124.1,2209.4,124.7,2209.8,125z"/>
						<path d="M2214.9,127.7c0.8,0.4,1.5,0.8,2.3,1.2c0.6,0.3,0.8,0.1,1.3-0.2c1.5-0.8,3.1-1.7,4.6-2.5c0.2-0.1,0.3-0.5,0-0.7
							c-0.8-0.4-1.5-0.7-2.3-1.1c-0.6-0.3-0.8-0.2-1.3,0.1c-1.5,0.8-3,1.6-4.6,2.5c-0.4,0.2,0,0.9,0.4,0.7c1.7-0.9,3.4-1.8,5.1-2.8
							c-0.1,0-0.3,0-0.4,0c0.9,0.4,1.8,0.9,2.6,1.3c0-0.2,0-0.4,0-0.7c-1.7,0.9-3.5,1.9-5.2,2.8c0.1,0,0.3,0,0.4,0
							c-0.9-0.5-1.7-0.9-2.6-1.4C2214.9,126.8,2214.5,127.5,2214.9,127.7z"/>
						<path d="M2210.3,124.3c-0.9-0.5-1.8-0.9-2.6-1.4c0,0.2,0,0.4,0,0.7c1.7-0.9,3.4-1.9,5.1-2.8c-0.1,0-0.3,0-0.4,0
							c0.9,0.5,1.7,0.9,2.6,1.4c0-0.2,0-0.4,0-0.7c-1.7,0.9-3.4,1.8-5,2.8c-0.4,0.2,0,0.9,0.4,0.7c1.7-0.9,3.4-1.8,5-2.8
							c0.3-0.1,0.3-0.5,0-0.7c-0.7-0.4-1.5-0.8-2.2-1.2c-0.6-0.3-0.8-0.2-1.3,0.1c-1.5,0.8-3,1.7-4.5,2.5c-0.2,0.1-0.3,0.5,0,0.7
							c0.9,0.5,1.8,0.9,2.6,1.4C2210.3,125.2,2210.7,124.5,2210.3,124.3z"/>
						<g>
							<path d="M2211.5,128.9c0.6,0.3,1.2,0.7,1.8,1c0.4,0.2,0.7-0.4,0.3-0.6c-0.6-0.3-1.2-0.7-1.8-1
								C2211.4,128.1,2211.1,128.7,2211.5,128.9L2211.5,128.9z"/>
							<path d="M2212.2,128.1c0,0.7,0,1.4,0,2.1c0,0.4,0.7,0.4,0.7,0c0-0.7,0-1.4,0-2.1C2212.9,127.6,2212.2,127.6,2212.2,128.1
								L2212.2,128.1z"/>
						</g>
					</g>
				</g>
			</g>
			<g>
				<g>
					<g>
						<circle class="st9" cx="2860.8" cy="127" r="7.4"/>
						<g>
							<line class="st10" x1="2857.2" y1="123.3" x2="2864.6" y2="130.8"/>
							<line class="st10" x1="2857.2" y1="130.8" x2="2864.6" y2="123.3"/>
						</g>
					</g>
				</g>
				<g>
					<circle class="st8" cx="2835.8" cy="127" r="7.4"/>
					<g>
						<g>
							<path class="st2" d="M2839.8,128h-8c-0.3,0-0.5-0.2-0.5-0.5s0.2-0.5,0.5-0.5h8c0.3,0,0.5,0.2,0.5,0.5S2840,128,2839.8,128z"
								/>
						</g>
					</g>
				</g>
			</g>
			<g>
				<text transform="matrix(1 0 0 1 2746.6602 178.0498)" class="st5 st11 st12">Lively</text>
			</g>
			<g>
				<text transform="matrix(1 0 0 1 2288.4841 178.0498)" class="st13 st6 st12">Yours</text>
			</g>
			<g>
				<text transform="matrix(1 0 0 1 2499.8965 178.0503)" class="st5 st11 st12">Community</text>
			</g>
		</g>
	</g>
	<g>
		<g>
			<g>
				<path class="st14" d="M2350.8,233.2h-132.2c-5.1,0-9.3-4.2-9.3-9.3v-1.4c0-5.1,4.2-9.3,9.3-9.3h132.2c5.1,0,9.3,4.2,9.3,9.3v1.4
					C2360,229,2355.9,233.2,2350.8,233.2z"/>
			</g>
		</g>
		<g>
			<g>
				<path class="st9" d="M2339.8,213.3h10.9c5.1,0,9.3,4.2,9.3,9.3v1.4c0,5.1-4.2,9.3-9.3,9.3h-10.9V213.3z"/>
			</g>
		</g>
		<g>
			<polyline class="st15" points="2353.5,225.2 2349.9,228.7 2346.4,225.2 			"/>
			<polyline class="st15" points="2346.4,221.2 2349.9,217.7 2353.5,221.2 			"/>
		</g>
	</g>
	<g>
		<text transform="matrix(1 0 0 1 2218.2888 227.6892)" class="st13 st17 st18">http://livelywe....</text>
	</g>
	<g>
		<text transform="matrix(1 0 0 1 2209.2888 296.2205)" class="st13 st6 st19">*All</text>
	</g>
	<g>
		<text transform="matrix(1 0 0 1 2209.2888 317.3669)" class="st13 st6 st19">*Latest</text>
	</g>
	<g>
		<text transform="matrix(1 0 0 1 2209.2888 338.5125)" class="st13 st6 st19">*Search</text>
	</g>
	<g>
		<text transform="matrix(1 0 0 1 2209.2888 401.9548)" class="st13 st17 st19">Code</text>
	</g>
	<g>
		<text transform="matrix(1 0 0 1 2209.2888 423.1033)" class="st13 st17 st19">Controls</text>
	</g>
	<g>
		<g>
			<path class="st9" d="M2343.8,385.4h-132.2c-5.1,0-9.3-4.2-9.3-9.3v-1.4c0-5.1,4.2-9.3,9.3-9.3h132.2c5.1,0,9.3,4.2,9.3,9.3v1.4
				C2353,381.2,2348.9,385.4,2343.8,385.4z"/>
		</g>
	</g>
	<g>
		<text transform="matrix(1 0 0 1 2209.2888 359.6638)" class="st13 st17 st19">Art</text>
	</g>
	<g>
		<text transform="matrix(1 0 0 1 2209.2888 380.8093)" class="st5 st17 st19">Basic</text>
	</g>
	<line class="st20" x1="2377.2" y1="215" x2="2377.2" y2="684.8"/>
	<g>
		<g>
			<g>
				<path class="st14" d="M2829.6,233.2h-425.5c-5.1,0-9.3-4.2-9.3-9.3v-1.4c0-5.1,4.2-9.3,9.3-9.3h425.5c5.1,0,9.3,4.2,9.3,9.3v1.4
					C2838.8,229,2834.7,233.2,2829.6,233.2z"/>
			</g>
		</g>
		<g>
			<g>
				<path class="st9" d="M2818.6,233.2h10.9c5.1,0,9.3-4.2,9.3-9.3v-1.4c0-5.1-4.2-9.3-9.3-9.3h-10.9V233.2z"/>
			</g>
		</g>
		<path class="st5" d="M2833.9,220.8c-0.3-2.2-2.1-3.9-4.4-3.9c-0.2,0-0.4,0-0.5,0c-2.4,0.3-4.1,2.5-3.8,4.9c0.1,1.1,0.7,2,1.4,2.7
			l-2.9,3.8c-0.1,0.2-0.1,0.5,0.1,0.6c0.1,0.1,0.2,0.1,0.3,0.1c0.1,0,0.3-0.1,0.3-0.2l3-3.8c0.7,0.4,1.5,0.6,2.3,0.6
			c0.2,0,0.4,0,0.5,0C2832.5,225.4,2834.2,223.2,2833.9,220.8z M2830,224.9c-0.2,0-0.3,0-0.5,0c-1.8,0-3.3-1.3-3.5-3.1
			c-0.2-2,1.2-3.7,3.1-4c0.2,0,0.3,0,0.5,0c1.8,0,3.3,1.3,3.5,3.1C2833.3,222.9,2831.9,224.6,2830,224.9z"/>
	</g>
	<rect x="2394.3" y="251" class="st21" width="104.9" height="104.9"/>
	<rect x="2507.5" y="251" class="st21" width="104.9" height="104.9"/>
	<rect x="2620.8" y="251" class="st21" width="104.9" height="104.9"/>
	<rect x="2394.3" y="364.2" class="st21" width="104.9" height="104.9"/>
	<rect x="2507.5" y="364.2" class="st21" width="104.9" height="104.9"/>
	<rect x="2620.8" y="364.2" class="st21" width="104.9" height="104.9"/>
	<g>
		<text transform="matrix(1 0 0 1 2418.948 349.2976)" class="st13 st17 st22">Example 1</text>
	</g>
	<g>
		<text transform="matrix(1 0 0 1 2532.2402 349.2976)" class="st13 st17 st22">Example 2</text>
	</g>
	<g>
		<text transform="matrix(1 0 0 1 2645.5322 349.2976)" class="st13 st17 st22">Example 3</text>
	</g>
	<g>
		<text transform="matrix(1 0 0 1 2418.948 462.0505)" class="st13 st17 st22">Example 1</text>
	</g>
	<g>
		<text transform="matrix(1 0 0 1 2532.2402 462.0505)" class="st13 st17 st22">Example 2</text>
	</g>
	<rect x="2734.2" y="251" class="st21" width="104.9" height="104.9"/>
	<rect x="2734.2" y="364.2" class="st21" width="104.9" height="104.9"/>
	<g>
		<text transform="matrix(1 0 0 1 2758.9155 349.2976)" class="st13 st17 st22">Example 3</text>
	</g>
	<g>
		<text transform="matrix(1 0 0 1 2758.9155 462.0505)" class="st13 st17 st22">Example 3</text>
	</g>
	<g>
		<line class="st23" x1="2622.3" y1="365" x2="2723.3" y2="467.5"/>
		<line class="st23" x1="2621.6" y1="466.8" x2="2724" y2="365.7"/>
		<path class="st24" d="M2721.7,469h-95.9c-2.6,0-4.6-2.1-4.6-4.6v-95.9c0-2.6,2.1-4.6,4.6-4.6h95.9c2.6,0,4.6,2.1,4.6,4.6v95.9
			C2726.3,466.9,2724.2,469,2721.7,469z"/>
	</g>
	<g>
		<g>
			<g>
				<g>
					<path class="st21" d="M2854.7,681.1V255.7c0-2,1.7-3.7,3.7-3.7h0.5c2,0,3.7,1.7,3.7,3.7v425.4c0,2-1.7,3.7-3.7,3.7h-0.5
						C2856.4,684.8,2854.7,683.1,2854.7,681.1z"/>
				</g>
			</g>
		</g>
		<g>
			<g>
				<g>
					<path class="st8" d="M2855.8,325.4V282c0-1.5,1.2-2.7,2.7-2.7h0.4c1.5,0,2.7,1.2,2.7,2.7v43.5c0,1.5-1.2,2.7-2.7,2.7h-0.4
						C2857,328.1,2855.8,326.9,2855.8,325.4z"/>
				</g>
			</g>
		</g>
	</g>
	<g>
		<g>
			<path class="st2" d="M2670.4,451.7c1.2,6.2-4.2,11.6-10.4,10.4c-3.5-0.7-6.3-3.5-6.9-6.9c-1.2-6.2,4.2-11.6,10.4-10.4
				C2666.9,445.4,2669.7,448.3,2670.4,451.7z"/>
			<g>
				<g>
					<path class="st21" d="M2657.3,449.7c2.7,2.7,5.5,5.5,8.2,8.2c0.5,0.5,1.2-0.3,0.7-0.7c-2.7-2.7-5.5-5.5-8.2-8.2
						C2657.5,448.5,2656.8,449.3,2657.3,449.7L2657.3,449.7z"/>
				</g>
				<g>
					<path class="st21" d="M2658,457.9c2.7-2.7,5.5-5.5,8.2-8.2c0.5-0.5-0.3-1.2-0.7-0.7c-2.7,2.7-5.5,5.5-8.2,8.2
						C2656.8,457.7,2657.5,458.4,2658,457.9L2658,457.9z"/>
				</g>
			</g>
		</g>
		<g>
			<path class="st9" d="M2718.3,451.5c1.2,6.2-4.2,11.6-10.4,10.4c-3.5-0.7-6.3-3.5-6.9-6.9c-1.2-6.2,4.2-11.6,10.4-10.4
				C2714.9,445.3,2717.7,448.1,2718.3,451.5z"/>
			<g>
				<g>
					<path class="st21" d="M2704.8,453.8c3.9,0,5.8,0,9.7,0c0.7,0,0.7-1,0-1c-3.9,0-5.8,0-9.7,0
						C2704.1,452.8,2704.1,453.8,2704.8,453.8L2704.8,453.8z"/>
				</g>
			</g>
			<g>
				<g>
					<path class="st21" d="M2704.8,451.1c3.9,0,5.8,0,9.7,0c0.7,0,0.7-1,0-1c-3.9,0-5.8,0-9.7,0
						C2704.1,450.1,2704.1,451.1,2704.8,451.1L2704.8,451.1z"/>
				</g>
			</g>
			<g>
				<g>
					<path class="st21" d="M2704.8,456.6c3.9,0,5.8,0,9.7,0c0.7,0,0.7-1,0-1c-3.9,0-5.8,0-9.7,0
						C2704.1,455.6,2704.1,456.6,2704.8,456.6L2704.8,456.6z"/>
				</g>
			</g>
		</g>
		<g>
			<path class="st2" d="M2694.4,451.5c1.2,6.2-4.2,11.6-10.4,10.4c-3.5-0.7-6.3-3.5-6.9-6.9c-1.2-6.2,4.2-11.6,10.4-10.4
				C2690.9,445.3,2693.7,448.1,2694.4,451.5z"/>
			<g>
				<g>
					<path class="st21" d="M2683.5,451.1c3.9,0,3.2,0,7.1,0c0.7,0,0.7-1,0-1c-3.9,0-3.2,0-7.1,0
						C2682.8,450.1,2682.8,451.1,2683.5,451.1L2683.5,451.1z"/>
				</g>
			</g>
			<g>
				<g>
					<path class="st21" d="M2683.5,453.8c3.9,0,3.2,0,7.1,0c0.7,0,0.7-1,0-1c-3.9,0-3.2,0-7.1,0
						C2682.8,452.8,2682.8,453.8,2683.5,453.8L2683.5,453.8z"/>
				</g>
			</g>
			<g>
				<g>
					<path class="st21" d="M2683.5,456.5c3.9,0,3.2,0,7.1,0c0.7,0,0.7-1,0-1c-3.9,0-3.2,0-7.1,0
						C2682.8,455.5,2682.8,456.5,2683.5,456.5L2683.5,456.5z"/>
				</g>
			</g>
			<circle class="st21" cx="2680.9" cy="450.6" r="0.5"/>
			<circle class="st21" cx="2680.9" cy="453.2" r="0.5"/>
			<circle class="st21" cx="2680.9" cy="455.8" r="0.5"/>
		</g>
		<g>
			<path class="st2" d="M2646.4,451.8c1.2,6.2-4.2,11.6-10.4,10.4c-3.5-0.7-6.3-3.5-6.9-6.9c-1.2-6.2,4.2-11.6,10.4-10.4
				C2643,445.5,2645.8,448.3,2646.4,451.8z"/>
			<g>
				<g>
					<path class="st21" d="M2642.1,456.7h-6.5c-0.5,0-1-0.4-1-1v-6.5c0-0.5,0.4-1,1-1h6.5c0.5,0,1,0.4,1,1v6.5
						C2643.1,456.3,2642.7,456.7,2642.1,456.7z M2635.7,449.2C2635.6,449.2,2635.6,449.2,2635.7,449.2l0,6.5c0,0,0,0,0,0h6.5
						c0,0,0,0,0,0v-6.5c0,0,0,0,0,0H2635.7z"/>
				</g>
				<g>
					<path class="st21" d="M2639.9,458.9h-6.5c-0.5,0-1-0.4-1-1v-6.5c0-0.5,0.4-1,1-1h6.5c0.5,0,1,0.4,1,1v6.5
						C2640.9,458.4,2640.4,458.9,2639.9,458.9z M2633.4,451.3C2633.4,451.3,2633.4,451.4,2633.4,451.3l0,6.5c0,0,0,0,0,0h6.5
						c0,0,0,0,0,0v-6.5c0,0,0,0,0,0H2633.4z"/>
				</g>
			</g>
		</g>
	</g>
	<g>
		<g>
			<polygon class="st25" points="2719.6,459.8 2711.3,452.9 2712.6,463.6 2715.3,462.1 2718.2,467.4 2719,466.9 2716.2,461.6 			"/>
			<polygon points="2719.6,459.8 2711.3,452.9 2712.6,463.6 2715.3,462.1 2718.2,467.4 2719,466.9 2716.2,461.6 			"/>
		</g>
	</g>
	<g>
		<g>
			<g>
				<g>
					<g>
						<g>
							<g>
								<path class="st21" d="M2831.1,684.9h-427.9c-5,0-9.1-4.2-9-9.1V484.6l446-0.2v191.2C2840.3,680.8,2836.1,684.9,2831.1,684.9
									z"/>
							</g>
						</g>
					</g>
				</g>
				<g>
					<line class="st29" x1="2395" y1="484" x2="2839" y2="484"/>
				</g>
			</g>
		</g>
		<g>
			<g>
				<circle class="st9" cx="2837.6" cy="485.3" r="7.4"/>
				<g>
					<line class="st10" x1="2833.9" y1="481.7" x2="2841.4" y2="489.1"/>
					<line class="st10" x1="2833.9" y1="489.1" x2="2841.4" y2="481.7"/>
				</g>
			</g>
		</g>
	</g>
	<g>
		<g>
			<text transform="matrix(1 0 0 1 2409.9756 533.0312)" class="st13 st17 st22">Description</text>
		</g>
		<g>
			<text transform="matrix(1 0 0 1 2409.9756 510.7556)" class="st13 st6 st19">Maker</text>
		</g>
		<path class="st5" d="M2815,562.8h-328.5c-5.7,0-10.3-4.6-10.3-10.3V533c0-5.7,4.6-10.3,10.3-10.3H2815c5.7,0,10.3,4.6,10.3,10.3
			v19.5C2825.2,558.2,2820.7,562.8,2815,562.8z"/>
		<path class="st5" d="M2815,636.6h-328.5c-5.7,0-10.3-4.6-10.3-10.3v-41.5c0-5.7,4.6-10.3,10.3-10.3H2815c5.7,0,10.3,4.6,10.3,10.3
			v41.5C2825.2,632,2820.7,636.6,2815,636.6z"/>
		<g>
			<text transform="matrix(1 0 0 1 2409.9761 584.822)" class="st13 st17 st22">Version</text>
		</g>
		<g>
			<g>
				<g>
					<path class="st2" d="M2744.4,671.8h-46.8c-5,0-9.1-4.1-9.1-9.1v-1.8c0-5,4.1-9.1,9.1-9.1h46.8c5,0,9.1,4.1,9.1,9.1v1.8
						C2753.5,667.7,2749.4,671.8,2744.4,671.8z"/>
				</g>
			</g>
			<g>
				<text transform="matrix(1 0 0 1 2707.8921 665.2487)" class="st5 st17 st18">Load</text>
			</g>
			<g>
				<g>
					<path class="st2" d="M2816.2,671.8h-46.8c-5,0-9.1-4.1-9.1-9.1v-1.8c0-5,4.1-9.1,9.1-9.1h46.8c5,0,9.1,4.1,9.1,9.1v1.8
						C2825.2,667.7,2821.2,671.8,2816.2,671.8z"/>
				</g>
			</g>
			<g>
				<text transform="matrix(1 0 0 1 2775.97 665.2487)" class="st5 st17 st18">Revert</text>
			</g>
		</g>
	</g>
	<g>
		<g>
			<path class="st2" d="M2227.3,255.3c1.2,6.3-4.3,11.8-10.6,10.6c-3.5-0.7-6.4-3.5-7.1-7.1c-1.2-6.3,4.3-11.8,10.6-10.6
				C2223.7,249,2226.6,251.8,2227.3,255.3z"/>
			<path class="st16" d="M2222.6,252.9c-0.2,0-0.3,0.1-0.3,0.3v1c-0.8-1.1-2.2-1.8-3.7-1.8c-2.6,0-4.7,2.1-4.7,4.7
				c0,2.6,2.1,4.7,4.7,4.7c1.7,0,3.2-0.8,4-2.3c0.1-0.1,0-0.3-0.1-0.4c-0.1-0.1-0.3,0-0.4,0.1c-0.8,1.2-2.1,2-3.5,2
				c-2.3,0-4.1-1.9-4.1-4.1c0-2.3,1.9-4.2,4.1-4.2c1.4,0,2.6,0.7,3.4,1.8h-1.3c-0.2,0-0.3,0.2-0.3,0.3c0,0.2,0.1,0.3,0.3,0.3h1.9
				c0.2,0,0.3-0.1,0.3-0.3v-1.9C2222.9,253,2222.8,252.9,2222.6,252.9z"/>
		</g>
		<g>
			<g>
				<circle class="st2" cx="2263.6" cy="257.1" r="9"/>
			</g>
			<g>
				<path class="st5" d="M2262.8,253.7c0,2.3,0,4.6,0,6.9c0,1,1.5,1,1.5,0c0-2.3,0-4.6,0-6.9
					C2264.3,252.7,2262.8,252.7,2262.8,253.7L2262.8,253.7z"/>
			</g>
			<g>
				<path class="st5" d="M2260.1,257.9c2.3,0,4.6,0,6.9,0c1,0,1-1.5,0-1.5c-2.3,0-4.6,0-6.9,0
					C2259.2,256.4,2259.2,257.9,2260.1,257.9L2260.1,257.9z"/>
			</g>
		</g>
		<g>
			<g>
				<circle class="st2" cx="2241" cy="257.1" r="9"/>
			</g>
			<g>
				<path class="st5" d="M2237.6,257.9c2.3,0,4.6,0,6.9,0c1,0,1-1.5,0-1.5c-2.3,0-4.6,0-6.9,0
					C2236.6,256.4,2236.6,257.9,2237.6,257.9L2237.6,257.9z"/>
			</g>
		</g>
	</g>
</g>
</svg>
