<?xml version="1.0" encoding="utf-8"?>
<!-- Generator: Adobe Illustrator 19.1.0, SVG Export Plug-In . SVG Version: 6.00 Build 0)  -->
<svg version="1.1" id="Layer_1" xmlns="http://www.w3.org/2000/svg" xmlns:xlink="http://www.w3.org/1999/xlink" x="0px" y="0px"
	 viewBox="0 0 685 1159.8" style="enable-background:new 0 0 685 1159.8;" xml:space="preserve">
<style type="text/css">
	.st0{fill:#4D4D4D;}
	.st1{fill:#808080;stroke:#4D4D4D;stroke-miterlimit:10;}
	.st2{fill:#808080;stroke:#4D4D4D;stroke-width:0.2524;stroke-miterlimit:10;}
	.st3{fill:#FFFFFF;}
	.st4{fill:#CCCCCC;}
	.st5{fill:#F57C00;}
	.st6{fill:none;stroke:#FFFFFF;stroke-width:0.8981;stroke-linecap:round;stroke-linejoin:round;stroke-miterlimit:10;}
	.st7{fill:#808080;}
	.st8{fill:none;stroke:#F2F2F2;stroke-width:2.1462;stroke-linecap:round;stroke-linejoin:round;stroke-miterlimit:10;}
	.st9{fill:#F2F2F2;}
	.st10{fill:none;stroke:#F57C00;stroke-width:2;stroke-linecap:round;stroke-linejoin:round;stroke-miterlimit:10;}
	.st11{fill:none;stroke:#00FFFF;stroke-miterlimit:10;}
	.st12{fill:#00FFFF;}
	.st13{fill:#E6E6E6;stroke:#CCCCCC;stroke-width:0.2864;stroke-miterlimit:10;}
	.st14{fill:#E6E7E8;stroke:#E6E7E8;stroke-width:0.8569;stroke-miterlimit:10;}
	.st15{fill:#E6E7E8;stroke:#A6A8AB;stroke-width:0.2142;stroke-miterlimit:10;}
	.st16{fill:#231F20;}
	.st17{font-family:'Roboto-Medium';}
	.st18{font-size:14.0211px;}
	.st19{font-size:14px;}
	.st20{font-family:'Roboto-Regular';}
	.st21{font-size:12px;}
	.st22{font-family:'Helvetica';}
	.st23{font-size:8.2873px;}
	.st24{fill:none;}
	.st25{font-size:11px;}
	.st26{fill:#E6E7E8;stroke:#E6E7E8;stroke-width:0.8578;stroke-miterlimit:10;}
	.st27{fill:#E6E7E8;stroke:#A6A8AB;stroke-width:0.2144;stroke-miterlimit:10;}
	.st28{font-size:8.2955px;}
	.st29{fill:none;stroke:#E6E6E6;stroke-width:1.4181;stroke-miterlimit:10;}
	.st30{clip-path:url(#SVGID_2_);}
	.st31{clip-path:url(#SVGID_4_);}
</style>
<g>
	<rect x="0" y="0" class="st0" width="685" height="1160.1"/>
	<g>
		<path class="st3" d="M171.2,47V11.2c0-6.2-5-11.2-11.1-11.2H11.6C5.2,0,0,5.2,0,11.7v1136.1c0,6.4,5.2,11.7,11.6,11.7h661.9
			c6.4,0,11.6-5.2,11.6-11.7V58.3c0-6.3-5-11.3-11.2-11.3H171.2z"/>
	</g>
	<g>
		<text transform="matrix(1 0 0 1 46.1049 27.5075)" class="st7 st17 st18">Cheat Sheet</text>
	</g>
	<g>
		<g>
			<g>
				<g>
					<g>
						<g>
							<path class="st9" d="M659.6,265.5H25.7c-5,0-9.1-4.2-9-9.1V100.1l652-0.2v156.2C668.7,261.3,664.6,265.5,659.6,265.5z"/>
						</g>
					</g>
				</g>
			</g>
			<g>
				<g>
					<text transform="matrix(1 0 0 1 35.4254 91.2208)" class="st5 st17 st19">General</text>
				</g>
				<g>
					<circle class="st13" cx="23.3" cy="86" r="5.5"/>
				</g>
				<line class="st10" x1="17" y1="99.5" x2="667" y2="99.5"/>
				<circle class="st5" cx="23.3" cy="86" r="3.1"/>
			</g>
		</g>
	</g>
	<g>
		<line class="st14" x1="89.7" y1="142.7" x2="309.8" y2="142.7"/>
		<line class="st14" x1="89.7" y1="163.4" x2="309.8" y2="163.4"/>
		<g>
			<text transform="matrix(1 0 0 1 103.2039 135.9258)" class="st7 st20 st21">Reload Browser        </text>
		</g>
		<g>
			<text transform="matrix(1 0 0 1 103.4646 156.9902)" class="st7 st20 st21">Close Window   </text>
		</g>
		<path class="st15" d="M264.3,139.4h-27.6c-0.9,0-1.5-0.7-1.5-1.5v-10.2c0-0.9,0.7-1.5,1.5-1.5h27.6c0.9,0,1.5,0.7,1.5,1.5v10.2
			C265.8,138.7,265.1,139.4,264.3,139.4z"/>
		<path class="st15" d="M291.6,139.1h-10c-0.9,0-1.5-0.7-1.5-1.5v-10.2c0-0.9,0.7-1.5,1.5-1.5h10c0.9,0,1.5,0.7,1.5,1.5v10.2
			C293.2,138.5,292.5,139.1,291.6,139.1z"/>
		<text transform="matrix(1 0 0 1 240.8328 135.3496)" class="st16 st22 st23">CMD</text>
		<rect x="270.4" y="128.9" class="st24" width="9.7" height="9.7"/>
		<text transform="matrix(1 0 0 1 270.4129 134.8623)" class="st16 st22 st23">+</text>
		<text transform="matrix(1 0 0 1 283.6492 135.0625)" class="st16 st22 st23">R</text>
		<path class="st15" d="M264.2,159.8h-27.6c-0.9,0-1.5-0.7-1.5-1.5V148c0-0.9,0.7-1.5,1.5-1.5h27.6c0.9,0,1.5,0.7,1.5,1.5v10.2
			C265.7,159.1,265,159.8,264.2,159.8z"/>
		<path class="st15" d="M291.5,159.5h-10c-0.9,0-1.5-0.7-1.5-1.5v-10.2c0-0.9,0.7-1.5,1.5-1.5h10c0.9,0,1.5,0.7,1.5,1.5V158
			C293.1,158.8,292.4,159.5,291.5,159.5z"/>
		<text transform="matrix(1 0 0 1 241.2644 155.8965)" class="st16 st22 st23">CMD</text>
		<rect x="270.3" y="149.3" class="st24" width="9.7" height="9.7"/>
		<text transform="matrix(1 0 0 1 270.3269 155.2354)" class="st16 st22 st23">+</text>
		<text transform="matrix(1 0 0 1 282.8709 155.9541)" class="st16 st22 st23">W</text>
		<line class="st14" x1="89.7" y1="182.8" x2="309.8" y2="182.8"/>
		<line class="st14" x1="89.7" y1="202.8" x2="309.8" y2="202.8"/>
		<line class="st14" x1="89.7" y1="223.5" x2="309.8" y2="223.5"/>
		<line class="st14" x1="375.7" y1="142.7" x2="595.8" y2="142.7"/>
		<line class="st14" x1="375.7" y1="163.4" x2="595.8" y2="163.4"/>
		<line class="st14" x1="375.7" y1="182.8" x2="595.8" y2="182.8"/>
		<line class="st14" x1="375.7" y1="202.8" x2="595.8" y2="202.8"/>
		<line class="st14" x1="375.7" y1="223.5" x2="595.8" y2="223.5"/>
		<g>
			<text transform="matrix(1 0 0 1 103.4646 178.0547)" class="st7 st20 st21">Save   </text>
		</g>
		<path class="st15" d="M264.2,180h-27.6c-0.9,0-1.5-0.7-1.5-1.5v-10.2c0-0.9,0.7-1.5,1.5-1.5h27.6c0.9,0,1.5,0.7,1.5,1.5v10.2
			C265.7,179.3,265,180,264.2,180z"/>
		<path class="st15" d="M291.5,179.7h-10c-0.9,0-1.5-0.7-1.5-1.5V168c0-0.9,0.7-1.5,1.5-1.5h10c0.9,0,1.5,0.7,1.5,1.5v10.2
			C293.1,179,292.4,179.7,291.5,179.7z"/>
		<text transform="matrix(1 0 0 1 241.0896 176.0957)" class="st16 st22 st23">CMD</text>
		<rect x="270.3" y="169.5" class="st24" width="9.7" height="9.7"/>
		<text transform="matrix(1 0 0 1 270.3269 175.4356)" class="st16 st22 st23">+</text>
		<text transform="matrix(1 0 0 1 283.7361 176.1543)" class="st16 st22 st23">S</text>
		<path class="st15" d="M264.2,200.2h-27.6c-0.9,0-1.5-0.7-1.5-1.5v-10.2c0-0.9,0.7-1.5,1.5-1.5h27.6c0.9,0,1.5,0.7,1.5,1.5v10.2
			C265.7,199.5,265,200.2,264.2,200.2z"/>
		<path class="st15" d="M291.5,200h-10c-0.9,0-1.5-0.7-1.5-1.5v-10.2c0-0.9,0.7-1.5,1.5-1.5h10c0.9,0,1.5,0.7,1.5,1.5v10.2
			C293.1,199.3,292.4,200,291.5,200z"/>
		<text transform="matrix(1 0 0 1 241.0896 196.5274)" class="st16 st22 st23">CMD</text>
		<rect x="270.3" y="189.7" class="st24" width="9.7" height="9.7"/>
		<text transform="matrix(1 0 0 1 270.3269 195.6934)" class="st16 st22 st23">+</text>
		<text transform="matrix(1 0 0 1 284.2547 196.4121)" class="st16 st22 st23">K</text>
		<g>
			<text transform="matrix(1 0 0 1 394.1209 136.961)" class="st7 st20 st21">Select All (Text Only)        </text>
		</g>
		<g>
			<text transform="matrix(1 0 0 1 394.1209 157.2207)" class="st7 st20 st21">Copy (Text Only)        </text>
		</g>
		<g>
			<text transform="matrix(1 0 0 1 394.4353 176.2276)" class="st7 st20 st21">Paste (Text Only)        </text>
		</g>
		<path class="st15" d="M546.5,139.4h-27.6c-0.9,0-1.5-0.7-1.5-1.5v-10.2c0-0.9,0.7-1.5,1.5-1.5h27.6c0.9,0,1.5,0.7,1.5,1.5v10.2
			C548,138.7,547.3,139.4,546.5,139.4z"/>
		<path class="st15" d="M573.8,139.1h-10c-0.9,0-1.5-0.7-1.5-1.5v-10.2c0-0.9,0.7-1.5,1.5-1.5h10c0.9,0,1.5,0.7,1.5,1.5v10.2
			C575.4,138.5,574.7,139.1,573.8,139.1z"/>
		<text transform="matrix(1 0 0 1 523.7244 135.3496)" class="st16 st22 st23">CMD</text>
		<rect x="552.6" y="128.9" class="st24" width="9.7" height="9.7"/>
		<text transform="matrix(1 0 0 1 552.615 134.8623)" class="st16 st22 st23">+</text>
		<text transform="matrix(1 0 0 1 565.8494 135.0625)" class="st16 st22 st23">A</text>
		<path class="st15" d="M546.4,160h-27.6c-0.9,0-1.5-0.7-1.5-1.5v-10.2c0-0.9,0.7-1.5,1.5-1.5h27.6c0.9,0,1.5,0.7,1.5,1.5v10.2
			C548,159.3,547.3,160,546.4,160z"/>
		<path class="st15" d="M573.8,159.8h-10c-0.9,0-1.5-0.7-1.5-1.5v-10.2c0-0.9,0.7-1.5,1.5-1.5h10c0.9,0,1.5,0.7,1.5,1.5v10.2
			C575.3,159.1,574.6,159.8,573.8,159.8z"/>
		<text transform="matrix(1 0 0 1 523.6667 156.0108)" class="st16 st22 st23">CMD</text>
		<rect x="552.6" y="149.6" class="st24" width="9.7" height="9.7"/>
		<text transform="matrix(1 0 0 1 552.5574 155.5235)" class="st16 st22 st23">+</text>
		<text transform="matrix(1 0 0 1 566.1384 156.2422)" class="st16 st22 st23">C</text>
		<path class="st15" d="M546.4,179.9h-27.6c-0.9,0-1.5-0.7-1.5-1.5v-10.2c0-0.9,0.7-1.5,1.5-1.5h27.6c0.9,0,1.5,0.7,1.5,1.5v10.2
			C548,179.2,547.3,179.9,546.4,179.9z"/>
		<path class="st15" d="M573.8,179.7h-10c-0.9,0-1.5-0.7-1.5-1.5v-10.2c0-0.9,0.7-1.5,1.5-1.5h10c0.9,0,1.5,0.7,1.5,1.5v10.2
			C575.3,179,574.6,179.7,573.8,179.7z"/>
		<text transform="matrix(1 0 0 1 523.6667 175.8662)" class="st16 st22 st23">CMD</text>
		<rect x="552.6" y="169.4" class="st24" width="9.7" height="9.7"/>
		<text transform="matrix(1 0 0 1 552.5574 175.3779)" class="st16 st22 st23">+</text>
		<text transform="matrix(1 0 0 1 565.9666 176.2686)" class="st16 st22 st23">V</text>
		<g>
			<text transform="matrix(1 0 0 1 394.1209 197.2188)" class="st7 st20 st21">Cut (Text Only)        </text>
		</g>
		<path class="st15" d="M546.4,200.6h-27.6c-0.9,0-1.5-0.7-1.5-1.5v-10.2c0-0.9,0.7-1.5,1.5-1.5h27.6c0.9,0,1.5,0.7,1.5,1.5v10.2
			C548,199.9,547.3,200.6,546.4,200.6z"/>
		<path class="st15" d="M573.8,200.4h-10c-0.9,0-1.5-0.7-1.5-1.5v-10.2c0-0.9,0.7-1.5,1.5-1.5h10c0.9,0,1.5,0.7,1.5,1.5v10.2
			C575.3,199.7,574.6,200.4,573.8,200.4z"/>
		<text transform="matrix(1 0 0 1 523.6667 196.584)" class="st16 st22 st23">CMD</text>
		<rect x="552.6" y="190.1" class="st24" width="9.7" height="9.7"/>
		<text transform="matrix(1 0 0 1 552.5574 196.0957)" class="st16 st22 st23">+</text>
		<text transform="matrix(1 0 0 1 565.9666 196.9873)" class="st16 st22 st23">X</text>
		<g>
			<rect x="103.5" y="189.2" class="st24" width="97.1" height="12"/>
			<text transform="matrix(1 0 0 1 103.4646 198.3604)" class="st7 st20 st21">Open Workspace</text>
		</g>
		<path class="st15" d="M264.1,219.8h-27.6c-0.9,0-1.5-0.7-1.5-1.5V208c0-0.9,0.7-1.5,1.5-1.5h27.6c0.9,0,1.5,0.7,1.5,1.5v10.2
			C265.6,219.1,264.9,219.8,264.1,219.8z"/>
		<path class="st15" d="M291.5,219.5h-10c-0.9,0-1.5-0.7-1.5-1.5v-10.2c0-0.9,0.7-1.5,1.5-1.5h10c0.9,0,1.5,0.7,1.5,1.5V218
			C293.1,218.9,292.4,219.5,291.5,219.5z"/>
		<text transform="matrix(1 0 0 1 241.0896 215.8643)" class="st16 st22 st23">CMD</text>
		<rect x="270.3" y="209.2" class="st24" width="9.7" height="9.7"/>
		<text transform="matrix(1 0 0 1 270.3269 215.2031)" class="st16 st22 st23">+</text>
		<text transform="matrix(1 0 0 1 283.6219 215.8643)" class="st16 st22 st23">O</text>
		<g>
			<rect x="103.8" y="209.6" class="st24" width="116.4" height="12"/>
			<text transform="matrix(1 0 0 1 103.8103 218.7344)" class="st7 st20 st21">Open Object Editor</text>
		</g>
		<path class="st15" d="M546.6,219.9h-27.6c-0.9,0-1.5-0.7-1.5-1.5v-10.2c0-0.9,0.7-1.5,1.5-1.5h27.6c0.9,0,1.5,0.7,1.5,1.5v10.2
			C548.2,219.2,547.5,219.9,546.6,219.9z"/>
		<path class="st15" d="M574,219.7h-10c-0.9,0-1.5-0.7-1.5-1.5v-10.2c0-0.9,0.7-1.5,1.5-1.5h10c0.9,0,1.5,0.7,1.5,1.5v10.2
			C575.5,219,574.8,219.7,574,219.7z"/>
		<text transform="matrix(1 0 0 1 523.8689 215.8643)" class="st16 st22 st23">CMD</text>
		<rect x="552.6" y="209.6" class="st24" width="9.7" height="9.7"/>
		<text transform="matrix(1 0 0 1 552.5857 215.5479)" class="st16 st22 st23">+</text>
		<text transform="matrix(1 0 0 1 565.9939 216.0938)" class="st16 st22 st23">O</text>
		<g>
			<rect x="394.2" y="209.6" class="st24" width="97.1" height="12"/>
			<text transform="matrix(1 0 0 1 394.1775 218.7334)" class="st7 st20 st21">Open Partsbin</text>
		</g>
		<path class="st15" d="M264.1,240.5h-27.6c-0.9,0-1.5-0.7-1.5-1.5v-10.2c0-0.9,0.7-1.5,1.5-1.5h27.6c0.9,0,1.5,0.7,1.5,1.5v10.2
			C265.6,239.8,264.9,240.5,264.1,240.5z"/>
		<path class="st15" d="M291.5,240.3h-10c-0.9,0-1.5-0.7-1.5-1.5v-10.2c0-0.9,0.7-1.5,1.5-1.5h10c0.9,0,1.5,0.7,1.5,1.5v10.2
			C293.1,239.6,292.4,240.3,291.5,240.3z"/>
		<text transform="matrix(1 0 0 1 241.0896 236.582)" class="st16 st22 st23">CMD</text>
		<rect x="270.3" y="230" class="st24" width="9.7" height="9.7"/>
		<text transform="matrix(1 0 0 1 270.3269 235.9209)" class="st16 st22 st23">+</text>
		<text transform="matrix(1 0 0 1 283.6219 236.582)" class="st16 st22 st23">B</text>
		<g>
			<rect x="103.8" y="230.3" class="st24" width="127" height="14.1"/>
			<text transform="matrix(1 0 0 1 103.8103 239.4668)" class="st7 st20 st21">Open System Browser</text>
		</g>
		<path class="st15" d="M546.3,241.2h-27.6c-0.9,0-1.5-0.7-1.5-1.5v-10.2c0-0.9,0.7-1.5,1.5-1.5h27.6c0.9,0,1.5,0.7,1.5,1.5v10.2
			C547.9,240.5,547.2,241.2,546.3,241.2z"/>
		<path class="st15" d="M573.7,240.9h-10c-0.9,0-1.5-0.7-1.5-1.5v-10.2c0-0.9,0.7-1.5,1.5-1.5h10c0.9,0,1.5,0.7,1.5,1.5v10.2
			C575.2,240.2,574.5,240.9,573.7,240.9z"/>
		<text transform="matrix(1 0 0 1 523.5671 237.125)" class="st16 st22 st23">CMD</text>
		<rect x="552.3" y="230.9" class="st24" width="9.7" height="9.7"/>
		<text transform="matrix(1 0 0 1 552.2849 236.8096)" class="st16 st22 st23">+</text>
		<text transform="matrix(1 0 0 1 565.6941 237.3555)" class="st16 st22 st23">Z</text>
		<g>
			<rect x="393.9" y="230.4" class="st24" width="97.1" height="12"/>
			<text transform="matrix(1 0 0 1 393.8758 239.5664)" class="st7 st20 st21">Undo</text>
		</g>
	</g>
	<g>
		<g>
			<g>
				<g>
					<g>
						<g>
							<path class="st9" d="M659.6,633.5l-633.9,0c-5,0-9.1-4.2-9-9.1V303.1l652-0.2v321.2C668.7,629.3,664.6,633.5,659.6,633.5z"/>
						</g>
					</g>
				</g>
			</g>
			<g>
				<g>
					<text transform="matrix(1 0 0 1 35.4254 294.2208)" class="st5 st17 st19">Code Execution</text>
				</g>
				<g>
					<circle class="st13" cx="23.3" cy="289" r="5.5"/>
				</g>
				<line class="st10" x1="17" y1="302.5" x2="667" y2="302.5"/>
				<circle class="st5" cx="23.3" cy="289" r="3.1"/>
			</g>
		</g>
	</g>
	<g>
		<g>
			<g>
				<g>
					<text transform="matrix(1 0 0 1 35.4254 1012.2208)" class="st5 st17 st19">Morph Manipulation</text>
				</g>
				<g>
					<circle class="st13" cx="23.3" cy="1007" r="5.5"/>
				</g>
				<line class="st10" x1="17" y1="1020.5" x2="667" y2="1020.5"/>
			</g>
		</g>
	</g>
	<g>
		<text transform="matrix(1 0 0 1 268.2001 72.0408)" class="st7 st20 st25">All the shortcuts listed here for MacOS can be done using CTRL on Windows.</text>
	</g>
	<g>
		<line class="st14" x1="92" y1="343" x2="593.5" y2="343"/>
		<line class="st14" x1="92" y1="363" x2="593.5" y2="363"/>
		<line class="st14" x1="92" y1="383.7" x2="593.5" y2="383.7"/>
		<line class="st14" x1="92" y1="404.7" x2="593.5" y2="404.7"/>
		<path class="st15" d="M502.4,339.9h-27.6c-0.9,0-1.5-0.7-1.5-1.5v-10.2c0-0.9,0.7-1.5,1.5-1.5h27.6c0.9,0,1.5,0.7,1.5,1.5v10.2
			C504,339.2,503.3,339.9,502.4,339.9z"/>
		<path class="st15" d="M529.9,339.9h-10c-0.9,0-1.5-0.7-1.5-1.5v-10.2c0-0.9,0.7-1.5,1.5-1.5h10c0.9,0,1.5,0.7,1.5,1.5v10.2
			C531.5,339.2,530.8,339.9,529.9,339.9z"/>
		<text transform="matrix(1 0 0 1 479.4434 335.9662)" class="st16 st22 st23">CMD</text>
		<rect x="508.7" y="329.3" class="st24" width="9.7" height="9.7"/>
		<text transform="matrix(1 0 0 1 508.6787 335.306)" class="st16 st22 st23">+</text>
		<text transform="matrix(1 0 0 1 521.9746 335.9662)" class="st16 st22 st23">D</text>
		<path class="st15" d="M502.6,359.8h-27.6c-0.9,0-1.5-0.7-1.5-1.5v-10.2c0-0.9,0.7-1.5,1.5-1.5h27.6c0.9,0,1.5,0.7,1.5,1.5v10.2
			C504.2,359.1,503.5,359.8,502.6,359.8z"/>
		<path class="st15" d="M530.1,359.9h-10c-0.9,0-1.5-0.7-1.5-1.5v-10.2c0-0.9,0.7-1.5,1.5-1.5h10c0.9,0,1.5,0.7,1.5,1.5v10.2
			C531.7,359.2,531,359.9,530.1,359.9z"/>
		<text transform="matrix(1 0 0 1 479.6582 355.889)" class="st16 st22 st23">CMD</text>
		<rect x="508.9" y="349.3" class="st24" width="9.7" height="9.7"/>
		<text transform="matrix(1 0 0 1 508.8936 355.2289)" class="st16 st22 st23">+</text>
		<text transform="matrix(1 0 0 1 522.1855 355.889)" class="st16 st22 st23">E</text>
		<g>
			<rect x="106.1" y="329.7" class="st24" width="161.7" height="13.3"/>
			<text transform="matrix(1 0 0 1 106.0781 338.8529)"><tspan x="0" y="0" class="st7 st20 st21">Do It (executes the state</tspan><tspan x="131.7" y="0" class="st7 st20 st21">-</tspan></text>
		</g>
		<g>
			<rect x="105.2" y="348.6" class="st24" width="310.4" height="20.1"/>
			<text transform="matrix(1 0 0 1 105.2207 357.7797)" class="st7 st20 st21">Exchange (exchanges the last two selections)</text>
		</g>
		<g>
			<rect x="105.7" y="369.3" class="st24" width="325.6" height="15.7"/>
			<text transform="matrix(1 0 0 1 105.6611 378.4154)" class="st7 st20 st21">Inspect (inspects the statement in a window with attributes)</text>
		</g>
		<path class="st15" d="M502.6,380.4h-27.6c-0.9,0-1.5-0.7-1.5-1.5v-10.2c0-0.9,0.7-1.5,1.5-1.5h27.6c0.9,0,1.5,0.7,1.5,1.5v10.2
			C504.2,379.7,503.5,380.4,502.6,380.4z"/>
		<path class="st15" d="M550.9,380.4h-30.9c-0.9,0-1.5-0.7-1.5-1.5v-10.2c0-0.9,0.7-1.5,1.5-1.5h30.9c0.9,0,1.5,0.7,1.5,1.5v10.2
			C552.5,379.7,551.8,380.4,550.9,380.4z"/>
		<text transform="matrix(1 0 0 1 479.6582 376.4564)" class="st16 st22 st23">CMD</text>
		<rect x="508.9" y="369.8" class="st24" width="9.7" height="9.7"/>
		<text transform="matrix(1 0 0 1 508.8936 375.7943)" class="st16 st22 st23">+</text>
		<text transform="matrix(1 0 0 1 523.3311 376.7426)" class="st16 st22 st23">SHIFT</text>
		<path class="st15" d="M577.2,380.1h-10c-0.9,0-1.5-0.7-1.5-1.5v-10.2c0-0.9,0.7-1.5,1.5-1.5h10c0.9,0,1.5,0.7,1.5,1.5v10.2
			C578.8,379.4,578.1,380.1,577.2,380.1z"/>
		<rect x="556.6" y="369.3" class="st24" width="9.7" height="9.7"/>
		<text transform="matrix(1 0 0 1 556.5947 375.223)" class="st16 st22 st23">+</text>
		<text transform="matrix(1 0 0 1 571.0303 376.7426)" class="st16 st22 st23">I</text>
		<line class="st14" x1="92" y1="424.5" x2="593.5" y2="424.5"/>
		<line class="st14" x1="92" y1="443.8" x2="593.5" y2="443.8"/>
		<line class="st14" x1="92" y1="464.4" x2="593.5" y2="464.4"/>
		<path class="st15" d="M502.7,401h-27.6c-0.9,0-1.5-0.7-1.5-1.5v-10.2c0-0.9,0.7-1.5,1.5-1.5h27.6c0.9,0,1.5,0.7,1.5,1.5v10.2
			C504.2,400.3,503.6,401,502.7,401z"/>
		<path class="st15" d="M530.2,401.1h-10c-0.9,0-1.5-0.7-1.5-1.5v-10.2c0-0.9,0.7-1.5,1.5-1.5h10c0.9,0,1.5,0.7,1.5,1.5v10.2
			C531.7,400.4,531,401.1,530.2,401.1z"/>
		<text transform="matrix(1 0 0 1 479.7285 397.0931)" class="st16 st22 st23">CMD</text>
		<rect x="509" y="390.5" class="st24" width="9.7" height="9.7"/>
		<text transform="matrix(1 0 0 1 508.9649 396.431)" class="st16 st22 st23">+</text>
		<text transform="matrix(1 0 0 1 522.2598 397.0922)" class="st16 st22 st23">P</text>
		<g>
			<rect x="105.5" y="389.7" class="st24" width="241.2" height="10.4"/>
			<text transform="matrix(1 0 0 1 105.4707 398.8002)" class="st7 st20 st21">Print It (prints the result of the statement)</text>
		</g>
		<g>
			<rect x="105.7" y="411.1" class="st24" width="250.4" height="11.5"/>
			<text transform="matrix(1 0 0 1 105.6494 420.266)" class="st7 st20 st21">Protocol (opens a menu with all the methods)</text>
		</g>
		<g>
			<rect x="105.5" y="429.9" class="st24" width="303.8" height="13.1"/>
			<text transform="matrix(1 0 0 1 105.4707 439.0463)" class="st7 st20 st21">Find (finds the selected text; asks for a search string)</text>
		</g>
		<path class="st15" d="M502.6,421.2H475c-0.9,0-1.5-0.7-1.5-1.5v-10.2c0-0.9,0.7-1.5,1.5-1.5h27.6c0.9,0,1.5,0.7,1.5,1.5v10.2
			C504.1,420.5,503.4,421.2,502.6,421.2z"/>
		<path class="st15" d="M550.9,421.3H520c-0.9,0-1.5-0.7-1.5-1.5v-10.2c0-0.9,0.7-1.5,1.5-1.5h30.9c0.9,0,1.5,0.7,1.5,1.5v10.2
			C552.4,420.6,551.7,421.3,550.9,421.3z"/>
		<text transform="matrix(1 0 0 1 479.5869 417.3021)" class="st16 st22 st23">CMD</text>
		<rect x="508.8" y="410.7" class="st24" width="9.7" height="9.7"/>
		<text transform="matrix(1 0 0 1 508.8223 416.64)" class="st16 st22 st23">+</text>
		<text transform="matrix(1 0 0 1 523.2598 417.5863)" class="st16 st22 st23">SHIFT</text>
		<path class="st15" d="M577.2,421h-10c-0.9,0-1.5-0.7-1.5-1.5v-10.2c0-0.9,0.7-1.5,1.5-1.5h10c0.9,0,1.5,0.7,1.5,1.5v10.2
			C578.7,420.3,578,421,577.2,421z"/>
		<rect x="556.5" y="410.1" class="st24" width="9.7" height="9.7"/>
		<text transform="matrix(1 0 0 1 556.5234 416.0687)" class="st16 st22 st23">+</text>
		<text transform="matrix(1 0 0 1 569.6035 417.2308)" class="st16 st22 st23">P</text>
		<path class="st15" d="M502.7,440.7h-27.6c-0.9,0-1.5-0.7-1.5-1.5V429c0-0.9,0.7-1.5,1.5-1.5h27.6c0.9,0,1.5,0.7,1.5,1.5v10.2
			C504.2,440,503.6,440.7,502.7,440.7z"/>
		<path class="st15" d="M530.2,440.8h-10c-0.9,0-1.5-0.7-1.5-1.5V429c0-0.9,0.7-1.5,1.5-1.5h10c0.9,0,1.5,0.7,1.5,1.5v10.2
			C531.7,440.1,531,440.8,530.2,440.8z"/>
		<text transform="matrix(1 0 0 1 479.7285 436.7982)" class="st16 st22 st23">CMD</text>
		<rect x="509" y="430.2" class="st24" width="9.7" height="9.7"/>
		<text transform="matrix(1 0 0 1 508.9649 436.1351)" class="st16 st22 st23">+</text>
		<text transform="matrix(1 0 0 1 522.2598 436.7972)" class="st16 st22 st23">F</text>
		<path class="st15" d="M502.7,460.7h-27.6c-0.9,0-1.5-0.7-1.5-1.5V449c0-0.9,0.7-1.5,1.5-1.5h27.6c0.9,0,1.5,0.7,1.5,1.5v10.2
			C504.2,460,503.6,460.7,502.7,460.7z"/>
		<path class="st15" d="M530.2,460.8h-10c-0.9,0-1.5-0.7-1.5-1.5V449c0-0.9,0.7-1.5,1.5-1.5h10c0.9,0,1.5,0.7,1.5,1.5v10.2
			C531.7,460.1,531,460.8,530.2,460.8z"/>
		<text transform="matrix(1 0 0 1 479.7285 456.7904)" class="st16 st22 st23">CMD</text>
		<rect x="509" y="450.2" class="st24" width="9.7" height="9.7"/>
		<text transform="matrix(1 0 0 1 508.9649 456.1293)" class="st16 st22 st23">+</text>
		<text transform="matrix(1 0 0 1 521.6885 457.0756)" class="st16 st22 st23">G</text>
		<path class="st15" d="M503,481.4h-27.6c-0.9,0-1.5-0.7-1.5-1.5v-10.2c0-0.9,0.7-1.5,1.5-1.5H503c0.9,0,1.5,0.7,1.5,1.5v10.2
			C504.5,480.7,503.8,481.4,503,481.4z"/>
		<path class="st15" d="M530.5,481.5h-10c-0.9,0-1.5-0.7-1.5-1.5v-10.2c0-0.9,0.7-1.5,1.5-1.5h10c0.9,0,1.5,0.7,1.5,1.5v10.2
			C532,480.8,531.3,481.5,530.5,481.5z"/>
		<text transform="matrix(1 0 0 1 480.0157 477.4994)" class="st16 st22 st23">CMD</text>
		<rect x="509.3" y="470.9" class="st24" width="9.7" height="9.7"/>
		<text transform="matrix(1 0 0 1 509.251 476.8373)" class="st16 st22 st23">+</text>
		<text transform="matrix(1 0 0 1 521.9746 477.7845)" class="st16 st22 st23">M</text>
		<g>
			<rect x="105.4" y="449.7" class="st24" width="103.3" height="10.7"/>
			<text transform="matrix(1 0 0 1 105.376 458.8217)" class="st7 st20 st21">Find Again/Next</text>
		</g>
		<line class="st14" x1="92" y1="485" x2="593.5" y2="485"/>
		<line class="st14" x1="92" y1="504.4" x2="593.5" y2="504.4"/>
		<line class="st14" x1="92" y1="525" x2="593.5" y2="525"/>
		<g>
			<rect x="105.7" y="470.7" class="st24" width="324.5" height="14.3"/>
			<text transform="matrix(1 0 0 1 105.6611 479.8158)"><tspan x="0" y="0" class="st7 st20 st21">Do More (do the last replacement again for next occur</tspan><tspan x="290.6" y="0" class="st7 st20 st21">-</tspan></text>
		</g>
		<g>
			<rect x="105.8" y="490.4" class="st24" width="308.9" height="12.9"/>
			<text transform="matrix(1 0 0 1 105.8037 499.5248)" class="st7 st20 st21">Do Much More (do the last replacement again till the </text>
		</g>
		<path class="st15" d="M503,501.8h-27.6c-0.9,0-1.5-0.7-1.5-1.5V490c0-0.9,0.7-1.5,1.5-1.5H503c0.9,0,1.5,0.7,1.5,1.5v10.2
			C504.5,501.1,503.8,501.8,503,501.8z"/>
		<path class="st15" d="M551.3,501.8h-30.9c-0.9,0-1.5-0.7-1.5-1.5v-10.2c0-0.9,0.7-1.5,1.5-1.5h30.9c0.9,0,1.5,0.7,1.5,1.5v10.2
			C552.9,501.1,552.2,501.8,551.3,501.8z"/>
		<text transform="matrix(1 0 0 1 480.0157 497.85)" class="st16 st22 st23">CMD</text>
		<rect x="509.3" y="491.2" class="st24" width="9.7" height="9.7"/>
		<text transform="matrix(1 0 0 1 509.251 497.1898)" class="st16 st22 st23">+</text>
		<text transform="matrix(1 0 0 1 523.6875 498.1361)" class="st16 st22 st23">SHIFT</text>
		<path class="st15" d="M577.6,501.5h-10c-0.9,0-1.5-0.7-1.5-1.5v-10.2c0-0.9,0.7-1.5,1.5-1.5h10c0.9,0,1.5,0.7,1.5,1.5V500
			C579.2,500.8,578.5,501.5,577.6,501.5z"/>
		<rect x="557" y="490.7" class="st24" width="9.7" height="9.7"/>
		<text transform="matrix(1 0 0 1 556.9521 496.6176)" class="st16 st22 st23">+</text>
		<text transform="matrix(1 0 0 1 569.46 498.0658)" class="st16 st22 st23">M</text>
		<g>
			<rect x="105.8" y="510.9" class="st24" width="202.2" height="12"/>
			<text transform="matrix(1 0 0 1 105.8037 520.0902)" class="st7 st20 st21">Find Source/Browse Implementors </text>
		</g>
		<path class="st15" d="M503,521.9h-27.6c-0.9,0-1.5-0.7-1.5-1.5v-10.2c0-0.9,0.7-1.5,1.5-1.5H503c0.9,0,1.5,0.7,1.5,1.5v10.2
			C504.5,521.2,503.8,521.9,503,521.9z"/>
		<path class="st15" d="M551.3,522h-30.9c-0.9,0-1.5-0.7-1.5-1.5v-10.2c0-0.9,0.7-1.5,1.5-1.5h30.9c0.9,0,1.5,0.7,1.5,1.5v10.2
			C552.9,521.3,552.2,522,551.3,522z"/>
		<text transform="matrix(1 0 0 1 480.0157 517.9886)" class="st16 st22 st23">CMD</text>
		<rect x="509.3" y="511.4" class="st24" width="9.7" height="9.7"/>
		<text transform="matrix(1 0 0 1 509.251 517.3265)" class="st16 st22 st23">+</text>
		<text transform="matrix(1 0 0 1 523.6875 518.2728)" class="st16 st22 st23">SHIFT</text>
		<path class="st15" d="M577.6,521.7h-10c-0.9,0-1.5-0.7-1.5-1.5v-10.2c0-0.9,0.7-1.5,1.5-1.5h10c0.9,0,1.5,0.7,1.5,1.5v10.2
			C579.2,521,578.5,521.7,577.6,521.7z"/>
		<rect x="557" y="510.8" class="st24" width="9.7" height="9.7"/>
		<text transform="matrix(1 0 0 1 556.9521 516.7543)" class="st16 st22 st23">+</text>
		<text transform="matrix(1 0 0 1 569.7002 517.9867)" class="st16 st22 st23">F</text>
		<line class="st14" x1="92" y1="546.4" x2="593.5" y2="546.4"/>
		<line class="st14" x1="92" y1="567" x2="593.5" y2="567"/>
		<g>
			<rect x="105.8" y="532.4" class="st24" width="308.9" height="12.9"/>
			<text transform="matrix(1 0 0 1 105.8037 541.5121)" class="st7 st20 st21">Browse Class</text>
		</g>
		<path class="st15" d="M503,543.8h-27.6c-0.9,0-1.5-0.7-1.5-1.5V532c0-0.9,0.7-1.5,1.5-1.5H503c0.9,0,1.5,0.7,1.5,1.5v10.2
			C504.5,543.1,503.8,543.8,503,543.8z"/>
		<path class="st15" d="M551.3,543.8h-30.9c-0.9,0-1.5-0.7-1.5-1.5v-10.2c0-0.9,0.7-1.5,1.5-1.5h30.9c0.9,0,1.5,0.7,1.5,1.5v10.2
			C552.9,543.1,552.2,543.8,551.3,543.8z"/>
		<text transform="matrix(1 0 0 1 480.0157 539.8392)" class="st16 st22 st23">CMD</text>
		<rect x="509.3" y="533.2" class="st24" width="9.7" height="9.7"/>
		<text transform="matrix(1 0 0 1 509.251 539.1771)" class="st16 st22 st23">+</text>
		<text transform="matrix(1 0 0 1 523.6875 540.1234)" class="st16 st22 st23">SHIFT</text>
		<path class="st15" d="M577.6,543.5h-10c-0.9,0-1.5-0.7-1.5-1.5v-10.2c0-0.9,0.7-1.5,1.5-1.5h10c0.9,0,1.5,0.7,1.5,1.5V542
			C579.2,542.8,578.5,543.5,577.6,543.5z"/>
		<rect x="557" y="532.6" class="st24" width="9.7" height="9.7"/>
		<text transform="matrix(1 0 0 1 556.9521 538.6058)" class="st16 st22 st23">+</text>
		<text transform="matrix(1 0 0 1 569.46 540.0531)" class="st16 st22 st23">B</text>
		<g>
			<rect x="105.5" y="552.9" class="st24" width="202.2" height="12"/>
			<text transform="matrix(1 0 0 1 105.5186 562.0785)" class="st7 st20 st21">Indent Selection</text>
		</g>
		<path class="st15" d="M503,563.9h-27.6c-0.9,0-1.5-0.7-1.5-1.5v-10.2c0-0.9,0.7-1.5,1.5-1.5H503c0.9,0,1.5,0.7,1.5,1.5v10.2
			C504.5,563.2,503.8,563.9,503,563.9z"/>
		<text transform="matrix(1 0 0 1 480.0157 559.9769)" class="st16 st22 st23">CMD</text>
		<rect x="509.3" y="553.4" class="st24" width="9.7" height="9.7"/>
		<text transform="matrix(1 0 0 1 509.251 559.3148)" class="st16 st22 st23">+</text>
		<path class="st15" d="M530.4,564.2h-10c-0.9,0-1.5-0.7-1.5-1.5v-10.2c0-0.9,0.7-1.5,1.5-1.5h10c0.9,0,1.5,0.7,1.5,1.5v10.2
			C532,563.5,531.3,564.2,530.4,564.2z"/>
		<text transform="matrix(1 0 0 1 524.4287 559.6869)" class="st16 st22 st23">]</text>
		<line class="st14" x1="92" y1="588.4" x2="593.5" y2="588.4"/>
		<g>
			<rect x="105.8" y="574.4" class="st24" width="202.2" height="12"/>
			<text transform="matrix(1 0 0 1 105.8037 583.5004)" class="st7 st20 st21">Outdent Selection</text>
		</g>
		<path class="st15" d="M502.8,584.7h-27.6c-0.9,0-1.5-0.7-1.5-1.5V573c0-0.9,0.7-1.5,1.5-1.5h27.6c0.9,0,1.5,0.7,1.5,1.5v10.2
			C504.4,584,503.7,584.7,502.8,584.7z"/>
		<text transform="matrix(1 0 0 1 479.8701 580.8285)" class="st16 st22 st23">CMD</text>
		<rect x="509.3" y="574.8" class="st24" width="9.7" height="9.7"/>
		<text transform="matrix(1 0 0 1 509.251 580.7367)" class="st16 st22 st23">+</text>
		<g>
			<rect x="105.8" y="595.7" class="st24" width="181.2" height="11.7"/>
			<text transform="matrix(1 0 0 1 105.8037 604.8861)" class="st7 st20 st21">Comment/Uncomment Selection</text>
		</g>
		<path class="st15" d="M502.7,606h-27.6c-0.9,0-1.5-0.7-1.5-1.5v-10.2c0-0.9,0.7-1.5,1.5-1.5h27.6c0.9,0,1.5,0.7,1.5,1.5v10.2
			C504.2,605.3,503.6,606,502.7,606z"/>
		<text transform="matrix(1 0 0 1 479.7285 602.1078)" class="st16 st22 st23">CMD</text>
		<rect x="509.3" y="596.6" class="st24" width="9.7" height="9.7"/>
		<text transform="matrix(1 0 0 1 509.251 602.5883)" class="st16 st22 st23">+</text>
		<path class="st15" d="M530.7,584.7h-10c-0.9,0-1.5-0.7-1.5-1.5V573c0-0.9,0.7-1.5,1.5-1.5h10c0.9,0,1.5,0.7,1.5,1.5v10.2
			C532.3,584,531.6,584.7,530.7,584.7z"/>
		<text transform="matrix(1 0 0 1 524.7148 580.2543)" class="st16 st22 st23">[</text>
		<path class="st15" d="M531,605.9h-10c-0.9,0-1.5-0.7-1.5-1.5v-10.2c0-0.9,0.7-1.5,1.5-1.5h10c0.9,0,1.5,0.7,1.5,1.5v10.2
			C532.5,605.2,531.9,605.9,531,605.9z"/>
		<text transform="matrix(1 0 0 1 524.999 601.391)" class="st16 st22 st23">/</text>
	</g>
	<g>
		<g>
			<g>
				<g>
					<g>
						<g>
							<path class="st9" d="M659.6,853.5l-633.9,0c-5,0-9.1-4.2-9-9.1V668.1l652-0.2v176.2C668.7,849.3,664.6,853.5,659.6,853.5z"/>
						</g>
					</g>
				</g>
			</g>
			<g>
				<g>
					<text transform="matrix(1 0 0 1 35.4254 659.2208)" class="st5 st17 st19">Morph Manipulation</text>
				</g>
				<g>
					<circle class="st13" cx="23.3" cy="654" r="5.5"/>
				</g>
				<line class="st10" x1="17" y1="667.5" x2="667" y2="667.5"/>
				<circle class="st5" cx="23.3" cy="654" r="3.1"/>
			</g>
		</g>
	</g>
	<g>
		<g>
			<g>
				<g>
					<g>
						<g>
							<path class="st9" d="M659.6,1142.5H25.7c-5,0-9.1-4.2-9-9.1V901.1l652-0.2v232.2C668.7,1138.3,664.6,1142.5,659.6,1142.5z"/>
						</g>
					</g>
				</g>
			</g>
			<g>
				<g>
					<text transform="matrix(1 0 0 1 35.4254 892.2208)" class="st5 st17 st19">Text Manipulation</text>
				</g>
				<g>
					<circle class="st13" cx="23.3" cy="887" r="5.5"/>
				</g>
				<line class="st10" x1="17" y1="900.5" x2="667" y2="900.5"/>
				<circle class="st5" cx="23.3" cy="887" r="3.1"/>
			</g>
		</g>
	</g>
	<g>
		<line class="st26" x1="92.2" y1="706" x2="593.2" y2="706"/>
		<line class="st26" x1="92.2" y1="726.6" x2="593.2" y2="726.6"/>
		<g>
			<rect x="111.5" y="691.3" class="st24" width="61.3" height="10.1"/>
			<text transform="matrix(1 0 0 1 111.5172 700.486)" class="st7 st20 st21">Get Halo</text>
		</g>
		<line class="st26" x1="92.2" y1="748.1" x2="593.2" y2="748.1"/>
		<line class="st26" x1="92.2" y1="769.5" x2="593.2" y2="769.5"/>
		<g>
			<rect x="111.9" y="712.7" class="st24" width="173.3" height="14.6"/>
			<text transform="matrix(1 0 0 1 111.945 721.818)" class="st7 st20 st21">Add Object to Group Selection</text>
		</g>
		<g>
			<rect x="111.5" y="733.3" class="st24" width="70.3" height="10.7"/>
			<text transform="matrix(1 0 0 1 111.5172 742.4039)" class="st7 st20 st21">Copy Morph</text>
		</g>
		<g>
			<rect x="112.1" y="754.4" class="st24" width="96.8" height="12.7"/>
			<text transform="matrix(1 0 0 1 112.0885 763.5621)" class="st7 st20 st21">World Menu </text>
		</g>
		<path class="st27" d="M364.5,702.3h-27.6c-0.9,0-1.6-0.7-1.6-1.6v-10.2c0-0.9,0.7-1.6,1.6-1.6h27.6c0.9,0,1.6,0.7,1.6,1.6v10.2
			C366.1,701.6,365.4,702.3,364.5,702.3z"/>
		<text transform="matrix(1 0 0 1 341.5368 698.3356)" class="st16 st20 st28">CMD</text>
		<text transform="matrix(1 0 0 1 381.5631 698.6227)" class="st16 st20 st28">RIGHT CLICK</text>
		<rect x="371.1" y="692.9" class="st24" width="9.7" height="9.7"/>
		<text transform="matrix(1 0 0 1 371.0876 699.1774)" class="st16 st20 st28">+</text>
		<path class="st27" d="M364.5,723.1h-27.6c-0.9,0-1.6-0.7-1.6-1.6v-10.2c0-0.9,0.7-1.6,1.6-1.6h27.6c0.9,0,1.6,0.7,1.6,1.6v10.2
			C366.1,722.4,365.4,723.1,364.5,723.1z"/>
		<path class="st27" d="M412.9,723.2H382c-0.9,0-1.6-0.7-1.6-1.6v-10.2c0-0.9,0.7-1.6,1.6-1.6h30.9c0.9,0,1.6,0.7,1.6,1.6v10.2
			C414.4,722.5,413.8,723.2,412.9,723.2z"/>
		<text transform="matrix(1 0 0 1 341.5368 719.2096)" class="st16 st20 st28">CMD</text>
		<rect x="370.8" y="712.6" class="st24" width="9.7" height="9.7"/>
		<text transform="matrix(1 0 0 1 370.8014 718.9059)" class="st16 st20 st28">+</text>
		<text transform="matrix(1 0 0 1 385.2497 719.4928)" class="st16 st20 st28">SHIFT</text>
		<rect x="418.5" y="712" class="st24" width="9.7" height="9.7"/>
		<text transform="matrix(1 0 0 1 418.5495 718.3336)" class="st16 st20 st28">+</text>
		<text transform="matrix(1 0 0 1 426.1637 719.7809)" class="st16 st20 st28">LEFT CLICK</text>
		<path class="st27" d="M368,743.8h-30.9c-0.9,0-1.6-0.7-1.6-1.6V732c0-0.9,0.7-1.6,1.6-1.6H368c0.9,0,1.6,0.7,1.6,1.6v10.2
			C369.6,743.1,368.9,743.8,368,743.8z"/>
		<text transform="matrix(1 0 0 1 340.36 740.0807)" class="st16 st20 st28">SHIFT</text>
		<rect x="373.7" y="732.6" class="st24" width="9.7" height="9.7"/>
		<text transform="matrix(1 0 0 1 373.6608 738.9205)" class="st16 st20 st28">+</text>
		<text transform="matrix(1 0 0 1 381.276 740.3668)" class="st16 st20 st28">DRAG</text>
		<text transform="matrix(1 0 0 1 335.2438 762.3805)" class="st16 st20 st28">RIGHT CLICK (when clicked on background or context menu)</text>
		<line class="st26" x1="92.2" y1="790.1" x2="593.2" y2="790.1"/>
		<line class="st26" x1="92.2" y1="810.7" x2="593.2" y2="810.7"/>
		<g>
			<rect x="111.8" y="775.4" class="st24" width="180.6" height="16.3"/>
			<text transform="matrix(1 0 0 1 111.8024 784.5455)" class="st7 st20 st21">Gridding (Default: Every 10 Pixel)</text>
		</g>
		<g>
			<rect x="111.4" y="796.2" class="st24" width="173.3" height="14.6"/>
			<text transform="matrix(1 0 0 1 111.3737 805.3063)" class="st7 st20 st21">Keep Aspect Ratio</text>
		</g>
		<g>
			<rect x="111.8" y="817.3" class="st24" width="70.3" height="10.7"/>
			<text transform="matrix(1 0 0 1 111.8024 826.4635)" class="st7 st20 st21">Scaling</text>
		</g>
		<path class="st27" d="M364.8,786.3h-27.6c-0.9,0-1.6-0.7-1.6-1.6v-10.2c0-0.9,0.7-1.6,1.6-1.6h27.6c0.9,0,1.6,0.7,1.6,1.6v10.2
			C366.4,785.6,365.7,786.3,364.8,786.3z"/>
		<text transform="matrix(1 0 0 1 343.5378 783.2545)" class="st16 st20 st28">ALT</text>
		<rect x="371.4" y="776.9" class="st24" width="189" height="12.5"/>
		<text transform="matrix(1 0 0 1 371.3737 783.2379)" class="st16 st20 st28">(when dragging/resizing)</text>
		<path class="st27" d="M368.1,807.2h-30.9c-0.9,0-1.6-0.7-1.6-1.6v-10.2c0-0.9,0.7-1.6,1.6-1.6h30.9c0.9,0,1.6,0.7,1.6,1.6v10.2
			C369.6,806.5,369,807.2,368.1,807.2z"/>
		<text transform="matrix(1 0 0 1 340.4508 803.5006)" class="st16 st20 st28">SHIFT</text>
		<rect x="374.2" y="796.9" class="st24" width="100.9" height="11.4"/>
		<text transform="matrix(1 0 0 1 374.2321 803.2516)" class="st16 st20 st28">(when resizing)</text>
		<path class="st27" d="M368.2,828.3h-30.9c-0.9,0-1.6-0.7-1.6-1.6v-10.2c0-0.9,0.7-1.6,1.6-1.6h30.9c0.9,0,1.6,0.7,1.6,1.6v10.2
			C369.7,827.7,369,828.3,368.2,828.3z"/>
		<text transform="matrix(1 0 0 1 340.5211 824.6569)" class="st16 st20 st28">SHIFT</text>
		<rect x="374.3" y="818.1" class="st24" width="100.9" height="11.4"/>
		<text transform="matrix(1 0 0 1 374.3034 824.4098)" class="st16 st20 st28">(when transforming)</text>
	</g>
	<g>
		<line class="st26" x1="92.2" y1="959.3" x2="593.2" y2="959.3"/>
		<line class="st26" x1="92.2" y1="980.1" x2="593.2" y2="980.1"/>
		<g>
			<text transform="matrix(1 0 0 1 106.1803 952.5155)" class="st7 st20 st21">Bold *        </text>
		</g>
		<g>
			<text transform="matrix(1 0 0 1 106.4567 973.4774)" class="st7 st20 st21">Italic *</text>
		</g>
		<path class="st27" d="M286.6,956H259c-0.9,0-1.6-0.7-1.6-1.6v-10.2c0-0.9,0.7-1.6,1.6-1.6h27.6c0.9,0,1.6,0.7,1.6,1.6v10.2
			C288.1,955.3,287.4,956,286.6,956z"/>
		<path class="st27" d="M314,955.7h-10c-0.9,0-1.6-0.7-1.6-1.6V944c0-0.9,0.7-1.6,1.6-1.6h10c0.9,0,1.6,0.7,1.6,1.6v10.2
			C315.5,955,314.8,955.7,314,955.7z"/>
		<text transform="matrix(1 0 0 1 263.1051 951.9364)" class="st16 st20 st28">CMD</text>
		<rect x="292.7" y="945.5" class="st24" width="9.7" height="9.7"/>
		<text transform="matrix(1 0 0 1 292.7184 951.8085)" class="st16 st20 st28">+</text>
		<text transform="matrix(1 0 0 1 306.3952 952.2948)" class="st16 st20 st28">B</text>
		<path class="st27" d="M286.5,976.4h-27.6c-0.9,0-1.6-0.7-1.6-1.6v-10.2c0-0.9,0.7-1.6,1.6-1.6h27.6c0.9,0,1.6,0.7,1.6,1.6v10.2
			C288,975.7,287.3,976.4,286.5,976.4z"/>
		<path class="st27" d="M313.9,976.1h-10c-0.9,0-1.6-0.7-1.6-1.6v-10.2c0-0.9,0.7-1.6,1.6-1.6h10c0.9,0,1.6,0.7,1.6,1.6v10.2
			C315.4,975.4,314.7,976.1,313.9,976.1z"/>
		<text transform="matrix(1 0 0 1 263.5348 972.5048)" class="st16 st20 st28">CMD</text>
		<rect x="292.6" y="965.9" class="st24" width="9.7" height="9.7"/>
		<text transform="matrix(1 0 0 1 292.6335 972.202)" class="st16 st20 st28">+</text>
		<text transform="matrix(1 0 0 1 307.8024 972.5721)" class="st16 st20 st28">I</text>
		<line class="st26" x1="92.2" y1="999.4" x2="593.2" y2="999.4"/>
		<line class="st26" x1="92.2" y1="1019.5" x2="593.2" y2="1019.5"/>
		<line class="st26" x1="92.2" y1="1040.2" x2="593.2" y2="1040.2"/>
		<g>
			<text transform="matrix(1 0 0 1 106.442 994.6815)" class="st7 st20 st21">Underline * </text>
		</g>
		<path class="st27" d="M286.5,996.6h-27.6c-0.9,0-1.6-0.7-1.6-1.6v-10.2c0-0.9,0.7-1.6,1.6-1.6h27.6c0.9,0,1.6,0.7,1.6,1.6V995
			C288,995.9,287.3,996.6,286.5,996.6z"/>
		<path class="st27" d="M313.9,996.4h-10c-0.9,0-1.6-0.7-1.6-1.6v-10.2c0-0.9,0.7-1.6,1.6-1.6h10c0.9,0,1.6,0.7,1.6,1.6v10.2
			C315.4,995.7,314.7,996.4,313.9,996.4z"/>
		<text transform="matrix(1 0 0 1 263.3629 992.7264)" class="st16 st20 st28">CMD</text>
		<rect x="292.6" y="986.1" class="st24" width="9.7" height="9.7"/>
		<text transform="matrix(1 0 0 1 292.6335 992.4218)" class="st16 st20 st28">+</text>
		<text transform="matrix(1 0 0 1 306.0524 992.7811)" class="st16 st20 st28">U</text>
		<path class="st27" d="M286.5,1016.9h-27.6c-0.9,0-1.6-0.7-1.6-1.6v-10.2c0-0.9,0.7-1.6,1.6-1.6h27.6c0.9,0,1.6,0.7,1.6,1.6v10.2
			C288,1016.2,287.3,1016.9,286.5,1016.9z"/>
		<path class="st27" d="M313.9,1016.6h-10c-0.9,0-1.6-0.7-1.6-1.6v-10.2c0-0.9,0.7-1.6,1.6-1.6h10c0.9,0,1.6,0.7,1.6,1.6v10.2
			C315.4,1015.9,314.7,1016.6,313.9,1016.6z"/>
		<text transform="matrix(1 0 0 1 263.3629 1013.1747)" class="st16 st20 st28">CMD</text>
		<rect x="292.6" y="1006.4" class="st24" width="9.7" height="9.7"/>
		<text transform="matrix(1 0 0 1 292.6335 1012.7001)" class="st16 st20 st28">+</text>
		<text transform="matrix(1 0 0 1 306.571 1013.0604)" class="st16 st20 st28">K</text>
		<g>
			<text transform="matrix(1 0 0 1 398.6452 953.5536)" class="st7 st20 st21">Align Left ^       </text>
		</g>
		<g>
			<text transform="matrix(1 0 0 1 398.6452 973.827)" class="st7 st20 st21">Align Right ^       </text>
		</g>
		<g>
			<text transform="matrix(1 0 0 1 398.9586 992.8563)" class="st7 st20 st21">Align Center ^   </text>
		</g>
		<path class="st27" d="M546.9,956h-27.6c-0.9,0-1.6-0.7-1.6-1.6v-10.2c0-0.9,0.7-1.6,1.6-1.6h27.6c0.9,0,1.6,0.7,1.6,1.6v10.2
			C548.4,955.3,547.7,956,546.9,956z"/>
		<path class="st27" d="M574.3,955.7h-10c-0.9,0-1.6-0.7-1.6-1.6V944c0-0.9,0.7-1.6,1.6-1.6h10c0.9,0,1.6,0.7,1.6,1.6v10.2
			C575.8,955,575.1,955.7,574.3,955.7z"/>
		<text transform="matrix(1 0 0 1 524.0914 951.9364)" class="st16 st20 st28">CMD</text>
		<rect x="553" y="945.5" class="st24" width="9.7" height="9.7"/>
		<text transform="matrix(1 0 0 1 553.0133 951.8085)" class="st16 st20 st28">+</text>
		<text transform="matrix(1 0 0 1 566.2584 951.6503)" class="st16 st20 st28">1</text>
		<path class="st27" d="M546.8,976.7h-27.6c-0.9,0-1.6-0.7-1.6-1.6v-10.2c0-0.9,0.7-1.6,1.6-1.6h27.6c0.9,0,1.6,0.7,1.6,1.6v10.2
			C548.3,976,547.7,976.7,546.8,976.7z"/>
		<path class="st27" d="M574.2,976.4h-10c-0.9,0-1.6-0.7-1.6-1.6v-10.2c0-0.9,0.7-1.6,1.6-1.6h10c0.9,0,1.6,0.7,1.6,1.6v10.2
			C575.7,975.7,575.1,976.4,574.2,976.4z"/>
		<text transform="matrix(1 0 0 1 524.0319 972.618)" class="st16 st20 st28">CMD</text>
		<rect x="553" y="966.2" class="st24" width="9.7" height="9.7"/>
		<text transform="matrix(1 0 0 1 552.9557 972.4901)" class="st16 st20 st28">+</text>
		<text transform="matrix(1 0 0 1 566.5494 972.8485)" class="st16 st20 st28">2</text>
		<path class="st27" d="M546.8,996.5h-27.6c-0.9,0-1.6-0.7-1.6-1.6v-10.2c0-0.9,0.7-1.6,1.6-1.6h27.6c0.9,0,1.6,0.7,1.6,1.6V995
			C548.3,995.8,547.7,996.5,546.8,996.5z"/>
		<path class="st27" d="M574.2,996.3h-10c-0.9,0-1.6-0.7-1.6-1.6v-10.2c0-0.9,0.7-1.6,1.6-1.6h10c0.9,0,1.6,0.7,1.6,1.6v10.2
			C575.7,995.6,575.1,996.3,574.2,996.3z"/>
		<text transform="matrix(1 0 0 1 524.0319 992.494)" class="st16 st20 st28">CMD</text>
		<rect x="553" y="986" class="st24" width="9.7" height="9.7"/>
		<text transform="matrix(1 0 0 1 552.9557 992.3641)" class="st16 st20 st28">+</text>
		<text transform="matrix(1 0 0 1 566.3746 992.8964)" class="st16 st20 st28">3</text>
		<g>
			<text transform="matrix(1 0 0 1 398.362 1013.8671)" class="st7 st20 st21">Set Font Size To 8 ^      </text>
		</g>
		<path class="st27" d="M546.8,1017.3h-27.6c-0.9,0-1.6-0.7-1.6-1.6v-10.2c0-0.9,0.7-1.6,1.6-1.6h27.6c0.9,0,1.6,0.7,1.6,1.6v10.2
			C548.3,1016.6,547.7,1017.3,546.8,1017.3z"/>
		<path class="st27" d="M574.2,1017h-10c-0.9,0-1.6-0.7-1.6-1.6v-10.2c0-0.9,0.7-1.6,1.6-1.6h10c0.9,0,1.6,0.7,1.6,1.6v10.2
			C575.7,1016.3,575.1,1017,574.2,1017z"/>
		<text transform="matrix(1 0 0 1 524.0319 1013.2333)" class="st16 st20 st28">CMD</text>
		<rect x="553" y="1006.8" class="st24" width="9.7" height="9.7"/>
		<text transform="matrix(1 0 0 1 552.9557 1013.1034)" class="st16 st20 st28">+</text>
		<text transform="matrix(1 0 0 1 566.3746 1013.6346)" class="st16 st20 st28">5</text>
		<g>
			<rect x="106.4" y="1005.9" class="st24" width="190.6" height="14.4"/>
			<text transform="matrix(1 0 0 1 106.4459 1015.0038)" class="st7 st20 st21">Add Link *</text>
		</g>
		<path class="st27" d="M286.4,1036.5h-27.6c-0.9,0-1.6-0.7-1.6-1.6v-10.2c0-0.9,0.7-1.6,1.6-1.6h27.6c0.9,0,1.6,0.7,1.6,1.6v10.2
			C287.9,1035.8,287.2,1036.5,286.4,1036.5z"/>
		<path class="st27" d="M313.9,1036.2h-10c-0.9,0-1.6-0.7-1.6-1.6v-10.2c0-0.9,0.7-1.6,1.6-1.6h10c0.9,0,1.6,0.7,1.6,1.6v10.2
			C315.4,1035.5,314.7,1036.2,313.9,1036.2z"/>
		<text transform="matrix(1 0 0 1 263.3629 1032.5311)" class="st16 st20 st28">CMD</text>
		<rect x="292.6" y="1025.9" class="st24" width="9.7" height="9.7"/>
		<text transform="matrix(1 0 0 1 292.6335 1032.2294)" class="st16 st20 st28">+</text>
		<text transform="matrix(1 0 0 1 306.7956 1032.5311)" class="st16 st20 st28">L</text>
		<g>
			<rect x="106.8" y="1026.3" class="st24" width="138.3" height="12.3"/>
			<text transform="matrix(1 0 0 1 106.7907 1035.3973)" class="st7 st20 st21">Open Front Editor * ^</text>
		</g>
		<path class="st27" d="M546.7,1036.6h-27.6c-0.9,0-1.6-0.7-1.6-1.6v-10.2c0-0.9,0.7-1.6,1.6-1.6h27.6c0.9,0,1.6,0.7,1.6,1.6v10.2
			C548.3,1035.9,547.6,1036.6,546.7,1036.6z"/>
		<path class="st27" d="M574.1,1036.3h-10c-0.9,0-1.6-0.7-1.6-1.6v-10.2c0-0.9,0.7-1.6,1.6-1.6h10c0.9,0,1.6,0.7,1.6,1.6v10.2
			C575.7,1035.6,575,1036.3,574.1,1036.3z"/>
		<text transform="matrix(1 0 0 1 523.9489 1032.5311)" class="st16 st20 st28">CMD</text>
		<rect x="552.7" y="1026.3" class="st24" width="9.7" height="9.7"/>
		<text transform="matrix(1 0 0 1 552.6979 1032.5751)" class="st16 st20 st28">+</text>
		<text transform="matrix(1 0 0 1 566.1168 1032.7616)" class="st16 st20 st28">6</text>
		<g>
			<rect x="398.4" y="1026.3" class="st24" width="116.7" height="12.3"/>
			<text transform="matrix(1 0 0 1 398.4206 1035.3973)" class="st7 st20 st21">Set Font Size To 12 ^   </text>
		</g>
		<line class="st26" x1="92.2" y1="1061.2" x2="593.2" y2="1061.2"/>
		<path class="st27" d="M286.4,1057.2h-27.6c-0.9,0-1.6-0.7-1.6-1.6v-10.2c0-0.9,0.7-1.6,1.6-1.6h27.6c0.9,0,1.6,0.7,1.6,1.6v10.2
			C287.9,1056.5,287.2,1057.2,286.4,1057.2z"/>
		<path class="st27" d="M313.9,1057h-10c-0.9,0-1.6-0.7-1.6-1.6v-10.2c0-0.9,0.7-1.6,1.6-1.6h10c0.9,0,1.6,0.7,1.6,1.6v10.2
			C315.4,1056.3,314.7,1057,313.9,1057z"/>
		<text transform="matrix(1 0 0 1 263.3629 1053.2684)" class="st16 st20 st28">CMD</text>
		<rect x="292.6" y="1046.6" class="st24" width="9.7" height="9.7"/>
		<text transform="matrix(1 0 0 1 292.6335 1052.9677)" class="st16 st20 st28">+</text>
		<text transform="matrix(1 0 0 1 305.9391 1053.2684)" class="st16 st20 st28">O</text>
		<g>
			<rect x="106.8" y="1047" class="st24" width="166.8" height="12.7"/>
			<text transform="matrix(1 0 0 1 106.7907 1056.1522)" class="st7 st20 st21">Add Do It/JavaScript Code *</text>
		</g>
		<g>
			<rect x="348.6" y="920.5" class="st24" width="226.9" height="15.2"/>
			<text transform="matrix(1 0 0 1 395.5539 926.8309)" class="st16 st20 st28">* Works on selected text   ^ Works on text morph</text>
		</g>
		<line class="st26" x1="92.2" y1="1079.2" x2="593.2" y2="1079.2"/>
		<line class="st26" x1="92.2" y1="1098.6" x2="593.2" y2="1098.6"/>
		<path class="st27" d="M573.9,1057.7h-10c-0.9,0-1.6-0.7-1.6-1.6V1046c0-0.9,0.7-1.6,1.6-1.6h10c0.9,0,1.6,0.7,1.6,1.6v10.2
			C575.5,1057,574.8,1057.7,573.9,1057.7z"/>
		<text transform="matrix(1 0 0 1 566.0895 1054.3173)" class="st16 st20 st28">7</text>
		<path class="st27" d="M546.7,1057.5h-27.6c-0.9,0-1.6-0.7-1.6-1.6v-10.2c0-0.9,0.7-1.6,1.6-1.6h27.6c0.9,0,1.6,0.7,1.6,1.6v10.2
			C548.3,1056.8,547.6,1057.5,546.7,1057.5z"/>
		<text transform="matrix(1 0 0 1 523.9489 1053.4882)" class="st16 st20 st28">CMD</text>
		<rect x="552.7" y="1047.2" class="st24" width="9.7" height="9.7"/>
		<text transform="matrix(1 0 0 1 552.6979 1053.5302)" class="st16 st20 st28">+</text>
		<path class="st27" d="M573.9,1077.4h-10c-0.9,0-1.6-0.7-1.6-1.6v-10.2c0-0.9,0.7-1.6,1.6-1.6h10c0.9,0,1.6,0.7,1.6,1.6v10.2
			C575.5,1076.8,574.8,1077.4,573.9,1077.4z"/>
		<text transform="matrix(1 0 0 1 566.0895 1074.0477)" class="st16 st20 st28">8</text>
		<path class="st27" d="M546.7,1077.2h-27.6c-0.9,0-1.6-0.7-1.6-1.6v-10.2c0-0.9,0.7-1.6,1.6-1.6h27.6c0.9,0,1.6,0.7,1.6,1.6v10.2
			C548.3,1076.6,547.6,1077.2,546.7,1077.2z"/>
		<text transform="matrix(1 0 0 1 523.9489 1073.2157)" class="st16 st20 st28">CMD</text>
		<rect x="552.7" y="1066.9" class="st24" width="9.7" height="9.7"/>
		<text transform="matrix(1 0 0 1 552.6979 1073.2577)" class="st16 st20 st28">+</text>
		<g>
			<text transform="matrix(1 0 0 1 398.6452 1055.327)" class="st7 st20 st21">Set Font Size To 18 ^        </text>
		</g>
		<g>
			<rect x="398.7" y="1066" class="st24" width="116.7" height="12.3"/>
			<text transform="matrix(1 0 0 1 398.7067 1075.1405)" class="st7 st20 st21">Set Font Size To 30 ^   </text>
		</g>
		<g>
			<rect x="106.9" y="1085.4" class="st24" width="104.4" height="11.4"/>
			<text transform="matrix(1 0 0 1 106.945 1094.5507)" class="st7 st20 st21">Un-emphasize </text>
		</g>
		<g>
			<rect x="106.7" y="1067.7" class="st24" width="139" height="13.7"/>
			<text transform="matrix(1 0 0 1 106.6598 1076.8231)" class="st7 st20 st21">Convert Tabs To Spaces</text>
		</g>
		<g>
			<rect x="106.7" y="1103.7" class="st24" width="251" height="23.4"/>
			<text transform="matrix(1 0 0 1 106.6598 1112.8485)" class="st7 st20 st21">(removes all style from selected text)</text>
		</g>
		<path class="st27" d="M286.8,1077.7h-27.6c-0.9,0-1.6-0.7-1.6-1.6v-10.2c0-0.9,0.7-1.6,1.6-1.6h27.6c0.9,0,1.6,0.7,1.6,1.6v10.2
			C288.3,1077,287.6,1077.7,286.8,1077.7z"/>
		<path class="st27" d="M335.2,1077.8h-30.9c-0.9,0-1.6-0.7-1.6-1.6V1066c0-0.9,0.7-1.6,1.6-1.6h30.9c0.9,0,1.6,0.7,1.6,1.6v10.2
			C336.7,1077.1,336,1077.8,335.2,1077.8z"/>
		<text transform="matrix(1 0 0 1 263.7946 1073.785)" class="st16 st20 st28">CMD</text>
		<rect x="293.1" y="1067.2" class="st24" width="9.7" height="9.7"/>
		<text transform="matrix(1 0 0 1 293.0612 1073.4833)" class="st16 st20 st28">+</text>
		<text transform="matrix(1 0 0 1 307.5104 1074.0751)" class="st16 st20 st28">SHIFT</text>
		<path class="st27" d="M361.5,1077.5h-10c-0.9,0-1.6-0.7-1.6-1.6v-10.2c0-0.9,0.7-1.6,1.6-1.6h10c0.9,0,1.6,0.7,1.6,1.6v10.2
			C363,1076.8,362.3,1077.5,361.5,1077.5z"/>
		<rect x="340.8" y="1066.6" class="st24" width="9.7" height="9.7"/>
		<text transform="matrix(1 0 0 1 340.8092 1072.911)" class="st16 st20 st28">+</text>
		<text transform="matrix(1 0 0 1 353.7575 1073.8553)" class="st16 st20 st28">S</text>
		<path class="st27" d="M286.8,1095.7h-27.6c-0.9,0-1.6-0.7-1.6-1.6V1084c0-0.9,0.7-1.6,1.6-1.6h27.6c0.9,0,1.6,0.7,1.6,1.6v10.2
			C288.3,1095,287.6,1095.7,286.8,1095.7z"/>
		<path class="st27" d="M335.2,1095.8h-30.9c-0.9,0-1.6-0.7-1.6-1.6V1084c0-0.9,0.7-1.6,1.6-1.6h30.9c0.9,0,1.6,0.7,1.6,1.6v10.2
			C336.7,1095.1,336,1095.8,335.2,1095.8z"/>
		<text transform="matrix(1 0 0 1 263.7946 1091.8007)" class="st16 st20 st28">CMD</text>
		<rect x="293.1" y="1085.2" class="st24" width="9.7" height="9.7"/>
		<text transform="matrix(1 0 0 1 293.0612 1091.495)" class="st16 st20 st28">+</text>
		<text transform="matrix(1 0 0 1 307.5104 1092.0829)" class="st16 st20 st28">SHIFT</text>
		<path class="st27" d="M361.5,1095.5h-10c-0.9,0-1.6-0.7-1.6-1.6v-10.2c0-0.9,0.7-1.6,1.6-1.6h10c0.9,0,1.6,0.7,1.6,1.6v10.2
			C363,1094.8,362.3,1095.5,361.5,1095.5z"/>
		<rect x="340.8" y="1084.6" class="st24" width="9.7" height="9.7"/>
		<text transform="matrix(1 0 0 1 340.8092 1090.9237)" class="st16 st20 st28">+</text>
		<text transform="matrix(1 0 0 1 353.7575 1091.869)" class="st16 st20 st28">U</text>
		<g>
			<text transform="matrix(1 0 0 1 399.5016 1092.7831)" class="st7 st20 st21">Increase Font Size * ^        </text>
		</g>
		<g>
			<rect x="399.6" y="1104.3" class="st24" width="182.6" height="16.8"/>
			<text transform="matrix(1 0 0 1 399.5641 1113.453)" class="st7 st20 st21">Decrease Font Size*^   </text>
		</g>
		<path class="st27" d="M546.6,1096H519c-0.9,0-1.6-0.7-1.6-1.6v-10.2c0-0.9,0.7-1.6,1.6-1.6h27.6c0.9,0,1.6,0.7,1.6,1.6v10.2
			C548.1,1095.4,547.4,1096,546.6,1096z"/>
		<text transform="matrix(1 0 0 1 523.8063 1092.0175)" class="st16 st20 st28">CMD</text>
		<rect x="552.6" y="1085.7" class="st24" width="9.7" height="9.7"/>
		<text transform="matrix(1 0 0 1 552.5553 1092.0575)" class="st16 st20 st28">+</text>
		<path class="st27" d="M546.7,1115.9h-27.6c-0.9,0-1.6-0.7-1.6-1.6v-10.2c0-0.9,0.7-1.6,1.6-1.6h27.6c0.9,0,1.6,0.7,1.6,1.6v10.2
			C548.2,1115.2,547.5,1115.9,546.7,1115.9z"/>
		<text transform="matrix(1 0 0 1 523.9137 1111.8466)" class="st16 st20 st28">CMD</text>
		<rect x="552.7" y="1105.6" class="st24" width="9.7" height="9.7"/>
		<text transform="matrix(1 0 0 1 552.6627 1111.8934)" class="st16 st20 st28">+</text>
		<path class="st27" d="M573.9,1095.9h-10c-0.9,0-1.6-0.7-1.6-1.6v-10.2c0-0.9,0.7-1.6,1.6-1.6h10c0.9,0,1.6,0.7,1.6,1.6v10.2
			C575.5,1095.2,574.8,1095.9,573.9,1095.9z"/>
		<rect x="566.4" y="1085.3" class="st24" width="9.7" height="9.7"/>
		<text transform="matrix(1 0 0 1 566.4108 1091.6649)" class="st16 st20 st28">+</text>
		<path class="st27" d="M574,1115.5h-10c-0.9,0-1.6-0.7-1.6-1.6v-10.2c0-0.9,0.7-1.6,1.6-1.6h10c0.9,0,1.6,0.7,1.6,1.6v10.2
			C575.6,1114.8,574.9,1115.5,574,1115.5z"/>
		<rect x="567.6" y="1105.4" class="st24" width="9.7" height="9.7"/>
		<text transform="matrix(1 0 0 1 567.5905 1111.7157)" class="st16 st20 st28">-</text>
	</g>
</g>
</svg>
