<?xml version="1.0" encoding="utf-8"?>
<!-- Generator: Adobe Illustrator 19.1.0, SVG Export Plug-In . SVG Version: 6.00 Build 0)  -->
<svg version="1.1" id="Layer_1" xmlns="http://www.w3.org/2000/svg" xmlns:xlink="http://www.w3.org/1999/xlink" x="0px" y="0px"
	 viewBox="0 0 739.2 680.2" style="enable-background:new 0 0 739.2 680.2;" xml:space="preserve">
<style type="text/css">
	.st0{fill:#FFFFFF;}
	.st1{fill:#4D4D4D;}
	.st2{fill:#808080;stroke:#4D4D4D;stroke-width:0.2524;stroke-miterlimit:10;}
	.st3{fill:#F57C00;}
	.st4{fill:none;stroke:#FFFFFF;stroke-width:0.8981;stroke-linecap:round;stroke-linejoin:round;stroke-miterlimit:10;}
	.st5{fill:#CCCCCC;}
	.st6{fill:#808080;}
	.st7{fill:#F2F2F2;}
	.st8{fill:none;stroke:#F57C00;stroke-width:2;stroke-linecap:round;stroke-linejoin:round;stroke-miterlimit:10;}
	.st9{font-family:'MyriadPro-Bold';}
	.st10{font-size:30.1109px;}
	.st11{fill:#00FFFF;}
	.st12{fill:none;stroke:#00FFFF;stroke-miterlimit:10;}
	.st13{opacity:0.5;fill:#FFFFFF;}
	.st14{fill:none;stroke:#FFFFFF;stroke-width:2;stroke-linecap:round;stroke-linejoin:round;stroke-miterlimit:10;}
	.st15{fill:#39B54A;}
	.st16{fill:#FF1D25;}
	.st17{font-family:'Roboto-Light';}
	.st18{font-size:14px;}
	.st19{font-family:'Roboto-Medium';}
	.st20{font-family:'Roboto-Regular';}
	.st21{font-size:12px;}
	.st22{font-size:16.65px;}
</style>
<line class="st0" x1="-2155.9" y1="-1843.4" x2="-2143.9" y2="-1837.4"/>
<text transform="matrix(1 0 0 1 23.5818 -1853.925)" class="st9 st10">Settings Window - UI</text>
<text transform="matrix(1 0 0 1 31.3447 -3194.5896)" class="st9 st10">Settings Window - UI</text>
<path id="bck_9_" class="st1" d="M720.7-2539.7H52c-8.6,0-15.6-7.1-15.6-15.9v-568.2c0-8.8,7-15.9,15.6-15.9h668.7
	c8.6,0,15.6,7.1,15.6,15.9v568.2C736.4-2546.8,729.4-2539.7,720.7-2539.7z"/>
<g>
	<path class="st2" d="M500.2-3045.5v-35.7c0-6.2,5-11.2,11.1-11.2h206c6.4,0,11.6,5.2,11.6,11.7v520.3c0,6.4-5.2,12.7-11.6,12.7
		H55.4c-6.4,0-11.6-6.3-11.6-12.7v-474.7c0-6.3,5-10.3,11.2-10.3H500.2z"/>
	<path class="st2" d="M500-3045.5v-35.7c0-6.2-5-11.2-11.1-11.2H283.7c-6.4,0-11.6,5.2-11.6,11.7v35.3H54.5
		c-5.9,0-10.7,4.8-10.7,10.7v475.5c0,6.4,5.2,11.7,11.6,11.7h661.9c6.4,0,11.6-5.2,11.6-11.7v-474.9c0-6.3-5-11.3-11.2-11.3H500z"/>
	<path class="st0" d="M272.1-3045.5v-35.7c0-6.2-5-11.2-11.1-11.2H55.4c-6.4,0-11.6,5.2-11.6,11.7v521.5c0,6.4,5.2,11.7,11.6,11.7
		h661.9c6.4,0,11.6-5.2,11.6-11.7v-474.9c0-6.3-5-11.3-11.2-11.3H272.1z"/>
</g>
<g>
	<g>
		<g>
			<circle class="st3" cx="711.8" cy="-3116.1" r="7.4"/>
			<g>
				<line class="st4" x1="708.1" y1="-3119.7" x2="715.6" y2="-3112.3"/>
				<line class="st4" x1="708.1" y1="-3112.3" x2="715.6" y2="-3119.7"/>
			</g>
		</g>
	</g>
</g>
<g>
	<text transform="matrix(1 0 0 1 84.406 -3110.3066)" class="st0 st19 st22">Settings</text>
	<g>
		<path class="st5" d="M66-3127.6c-1.4,0-2.7,0.2-4,0.7c-2.9,1.1-5.2,3.3-6.4,6.1c-1.2,2.8-1.3,5.9-0.2,8.8c1.7,4.5,6,7.5,10.8,7.5
			c1.4,0,2.7-0.2,4-0.7c2.9-1.1,5.2-3.3,6.4-6.1c1.2-2.8,1.3-5.9,0.2-8.8C75.1-3124.6,70.8-3127.6,66-3127.6z"/>
	</g>
</g>
<g>
	<text transform="matrix(1 0 0 1 130.3792 -3072.1433)"><tspan x="0" y="0" class="st6 st19 st18">Account </tspan><tspan x="-15.1" y="16.8" class="st6 st19 st18">Configuration</tspan></text>
</g>
<g>
	<text transform="matrix(1 0 0 1 577.8831 -3063.7307)" class="st0 st17 st18">Preferences</text>
</g>
<g>
	<text transform="matrix(1 0 0 1 366.5754 -3072.1433)"><tspan x="0" y="0" class="st0 st17 st18">World </tspan><tspan x="-22" y="16.8" class="st0 st17 st18">Configuration</tspan></text>
</g>
<g>
	<g>
		<g>
			<path class="st7" d="M676.1-2945.3h-480c-5.5,0-10-4.5-10-10v0c0-5.5,4.5-10,10-10h480c5.5,0,10,4.5,10,10v0
				C686.1-2949.8,681.6-2945.3,676.1-2945.3z"/>
		</g>
	</g>
</g>
<g>
	<g>
		<g>
			<path class="st7" d="M676.1-2910.8h-480c-5.5,0-10-4.5-10-10l0,0c0-5.5,4.5-10,10-10h480c5.5,0,10,4.5,10,10l0,0
				C686.1-2915.3,681.6-2910.8,676.1-2910.8z"/>
		</g>
	</g>
</g>
<g>
	<text transform="matrix(1 0 0 1 86.0775 -2951.1807)" class="st6 st20 st18">Username</text>
</g>
<g>
	<text transform="matrix(1 0 0 1 86.0775 -2916.7097)" class="st6 st20 st18">Email</text>
</g>
<g>
	<g>
		<g>
			<g>
				<path class="st7" d="M676.1-2749.9h-430c-5.5,0-10-4.5-10-10v0c0-5.5,4.5-10,10-10h430c5.5,0,10,4.5,10,10v0
					C686.1-2754.4,681.6-2749.9,676.1-2749.9z"/>
			</g>
		</g>
	</g>
	<g>
		<g>
			<g>
				<path class="st7" d="M676.1-2715.5h-430c-5.5,0-10-4.5-10-10l0,0c0-5.5,4.5-10,10-10h430c5.5,0,10,4.5,10,10l0,0
					C686.1-2720,681.6-2715.5,676.1-2715.5z"/>
			</g>
		</g>
	</g>
	<g>
		<g>
			<g>
				<path class="st7" d="M676.1-2681h-430c-5.5,0-10-4.5-10-10l0,0c0-5.5,4.5-10,10-10h430c5.5,0,10,4.5,10,10l0,0
					C686.1-2685.5,681.6-2681,676.1-2681z"/>
			</g>
		</g>
	</g>
	<g>
		<text transform="matrix(1 0 0 1 86.0775 -2811.635)" class="st3 st19 st18">Update Password</text>
	</g>
	<g>
		<text transform="matrix(1 0 0 1 86.0773 -2755.8442)" class="st6 st20 st18">Current Password</text>
	</g>
	<g>
		<text transform="matrix(1 0 0 1 86.0773 -2721.3733)" class="st6 st20 st18">New Password</text>
	</g>
	<g>
		<text transform="matrix(1 0 0 1 86.0773 -2686.9021)" class="st6 st20 st18">Retype </text>
	</g>
</g>
<line class="st8" x1="86.1" y1="-2866.4" x2="686.1" y2="-2866.4"/>
<g>
	<g>
		<g>
			<path class="st3" d="M677-2604.3h-46.8c-5,0-9.1-4.1-9.1-9.1v-1.8c0-5,4.1-9.1,9.1-9.1H677c5,0,9.1,4.1,9.1,9.1v1.8
				C686.1-2608.4,682-2604.3,677-2604.3z"/>
		</g>
	</g>
	<g>
		<text transform="matrix(1 0 0 1 639.743 -2610.1511)" class="st0 st20 st21">Save</text>
	</g>
</g>
<path class="st1" d="M66.1-3109.2c-0.7,0-1.3-0.4-1.6-1.1c-0.1-0.2-0.2-0.4-0.4-0.6c-0.1-0.1-0.2-0.1-0.4-0.1c-0.2,0-0.4,0-0.6,0.1
	c-0.2,0.1-0.5,0.2-0.7,0.2c-0.8,0-1.6-0.5-1.7-1.5c0-0.3,0-0.6,0.1-0.8c0.1-0.2,0.1-0.4,0.1-0.7c0-0.1-0.1-0.3-0.2-0.4
	c-0.1-0.1-0.3-0.3-0.5-0.3c-0.6-0.2-1-0.7-1-1.4c-0.1-0.7,0.4-1.4,1-1.7c0.3-0.1,0.5-0.3,0.7-0.5c0-0.1,0.1-0.1,0.1-0.2
	c0-0.3,0-0.5-0.1-0.7c-0.2-0.5-0.2-1.1,0.1-1.5c0.3-0.5,0.7-0.8,1.3-0.8c0.3,0,0.6,0,0.9,0.1c0.2,0.1,0.5,0.1,0.7,0.1
	c0.1,0,0.2,0,0.4-0.2c0.1-0.1,0.2-0.3,0.3-0.5c0.3-0.6,0.9-1.1,1.6-1.1c0.7,0,1.3,0.4,1.6,1.1c0.1,0.2,0.2,0.4,0.4,0.6
	c0.1,0.1,0.2,0.1,0.4,0.1c0.2,0,0.4,0,0.6-0.1c0.6-0.3,1.4-0.1,1.9,0.3c0.5,0.5,0.6,1.2,0.4,1.9c-0.1,0.2-0.1,0.4-0.1,0.6
	c0,0.1,0,0.3,0.3,0.5c0.1,0.1,0.3,0.2,0.5,0.3c0.6,0.3,1.1,0.9,1.1,1.6c0,0.7-0.4,1.3-1.1,1.6c-0.2,0.1-0.4,0.2-0.6,0.4
	c-0.1,0.1-0.1,0.2-0.1,0.4c0,0.2,0,0.4,0.1,0.6c0.3,0.6,0.2,1.3-0.2,1.8c-0.3,0.4-0.8,0.6-1.3,0.6l0,0c-0.1,0-0.2,0-0.3,0
	c-0.2,0-0.3-0.1-0.4-0.1c0,0-0.1,0-0.1-0.1c-0.2-0.1-0.4-0.1-0.6-0.1c-0.1,0-0.2,0-0.3,0.2c-0.1,0.1-0.2,0.3-0.3,0.5
	C67.4-3109.6,66.8-3109.2,66.1-3109.2L66.1-3109.2z M63.8-3111.9c0.4,0,0.7,0.1,1,0.4c0.3,0.3,0.5,0.6,0.6,0.9
	c0.1,0.3,0.4,0.5,0.7,0.5v0.5l0-0.5c0.3,0,0.6-0.2,0.7-0.5c0.1-0.3,0.3-0.6,0.5-0.8c0.3-0.3,0.6-0.5,0.9-0.5c0.3,0,0.6,0,0.9,0.1
	c0.1,0,0.2,0.1,0.2,0.1c0.1,0,0.1,0.1,0.2,0.1c0.3,0.1,0.6,0,0.8-0.2c0.2-0.3,0.2-0.5,0.1-0.8c-0.1-0.3-0.2-0.6-0.2-0.9
	c0-0.4,0.1-0.8,0.4-1c0.3-0.3,0.6-0.5,0.9-0.6c0.3-0.1,0.5-0.4,0.5-0.7c0-0.3-0.2-0.6-0.5-0.7c-0.3-0.1-0.5-0.3-0.7-0.4
	c-0.4-0.3-0.6-0.8-0.6-1.3c0-0.3,0.1-0.7,0.2-0.9c0.1-0.3,0.1-0.6-0.1-0.8c-0.2-0.2-0.6-0.3-0.8-0.1c-0.3,0.1-0.6,0.2-1,0.2h0
	c-0.4,0-0.8-0.1-1-0.4c-0.3-0.2-0.5-0.6-0.6-0.9c-0.1-0.3-0.4-0.5-0.7-0.5c-0.3,0-0.6,0.2-0.7,0.5c-0.1,0.3-0.3,0.5-0.5,0.7
	c-0.2,0.2-0.5,0.5-1,0.5c-0.4,0-0.8,0-1.2-0.2c-0.1-0.1-0.3-0.1-0.4-0.1c-0.3,0-0.5,0.2-0.6,0.3c-0.1,0.2-0.1,0.5,0,0.7
	c0.2,0.4,0.2,0.8,0.2,1.2c0,0.3-0.1,0.5-0.2,0.7c-0.3,0.4-0.6,0.6-1.1,0.8c-0.3,0.1-0.5,0.5-0.4,0.7c0,0.3,0.2,0.5,0.5,0.7
	c0.3,0.1,0.6,0.3,0.8,0.5c0.3,0.3,0.5,0.7,0.5,1.1c0,0.4-0.1,0.7-0.2,1c-0.1,0.1-0.1,0.2-0.1,0.4c0.1,0.5,0.5,0.7,0.8,0.7
	c0.1,0,0.2,0,0.3-0.1C63.1-3111.8,63.4-3111.9,63.8-3111.9z M66.1-3113.2c-0.8,0-1.5-0.3-2-0.8c-0.5-0.5-0.8-1.2-0.8-2
	c0-1.5,1.3-2.8,2.8-2.8h0c0.8,0,1.5,0.3,2,0.8c0.5,0.5,0.8,1.2,0.8,2C68.9-3114.5,67.7-3113.2,66.1-3113.2z M66.1-3118.4v0.5
	c-1,0-1.9,0.8-1.9,1.9c0,0.5,0.2,1,0.5,1.3c0.4,0.4,0.8,0.5,1.3,0.6c1,0,1.9-0.8,1.9-1.9c0-0.5-0.2-1-0.5-1.3
	c-0.4-0.4-0.8-0.6-1.3-0.6L66.1-3118.4z"/>
<text transform="matrix(1 0 0 1 22.5823 34)" class="st9 st10">Settings Window - UI</text>
<rect x="656.2" y="-3045.3" class="st11" width="5" height="80"/>
<rect x="656.2" y="-2910.7" class="st11" width="5" height="43"/>
<rect x="686" y="-2957.7" class="st11" width="43" height="5"/>
<text transform="matrix(1 0 0 1 622.7649 -3001.8372)" class="st6 st20 st21">80px</text>
<text transform="matrix(1 0 0 1 694.4421 -2961.4644)" class="st6 st20 st21">43px</text>
<text transform="matrix(1 0 0 1 622.7649 -2884.9102)" class="st6 st20 st21">43px</text>
<rect x="656.5" y="-2680.7" class="st11" width="5" height="56"/>
<text transform="matrix(1 0 0 1 622.7651 -2648.0359)" class="st6 st20 st21">56px</text>
<rect x="656.5" y="-2603.7" class="st11" width="5" height="56"/>
<text transform="matrix(1 0 0 1 622.7651 -2571.0659)" class="st6 st20 st21">56px</text>
<rect x="92.2" y="-2865.3" class="st11" width="5" height="43"/>
<text transform="matrix(1 0 0 1 102.9263 -2839.5767)" class="st6 st20 st21">43px</text>
<rect x="92.2" y="-2808.7" class="st11" width="5" height="43"/>
<text transform="matrix(1 0 0 1 102.9263 -2782.9102)" class="st6 st20 st21">43px</text>
<rect x="548.1" y="-2680.7" class="st11" width="5" height="133"/>
<text transform="matrix(1 0 0 1 511.7595 -2610.9446)" class="st6 st20 st21">133px</text>
<rect x="43.9" y="-2957.7" class="st11" width="43" height="5"/>
<text transform="matrix(1 0 0 1 52.3982 -2961.4644)" class="st6 st20 st21">43px</text>
<rect x="85.4" y="-2876.5" class="st11" width="601.7" height="5"/>
<text transform="matrix(1 0 0 1 369.8723 -2881.5276)" class="st6 st20 st21">600px</text>
<rect x="186.1" y="-2923.3" class="st11" width="500" height="5"/>
<text transform="matrix(1 0 0 1 419.6741 -2926.3584)" class="st6 st20 st21">600px</text>
<rect x="186.1" y="-2958" class="st11" width="500" height="5"/>
<text transform="matrix(1 0 0 1 419.6741 -2961.0005)" class="st6 st20 st21">600px</text>
<rect x="237.1" y="-2762.9" class="st11" width="450" height="5"/>
<text transform="matrix(1 0 0 1 445.7288 -2765.9788)" class="st6 st20 st21">450px</text>
<g>
	<rect x="693.1" y="-2624.3" class="st11" width="65" height="20"/>
	<text transform="matrix(1 0 0 1 699.8311 -2610.0151)" class="st6 st20 st21">65 x 20px</text>
</g>
<line class="st12" x1="686.6" y1="-3138.4" x2="686.6" y2="-2539.4"/>
<line class="st12" x1="85.6" y1="-3138.4" x2="85.6" y2="-2539.4"/>
<text transform="matrix(1 0 0 1 818.6633 -3118.4312)"><tspan x="0" y="0" class="st1" style="font-family:'Roboto-Bold'; font-size:12.7509px;">H3 highlighted: Roboto - Medium - 14 pixels - #4d4d4d</tspan><tspan x="0" y="15.3" class="st1 st20" style="font-size:12.7509px;">{</tspan><tspan x="0" y="30.6" class="st1 st20" style="font-size:12.7509px;">  font-family : Roboto;</tspan><tspan x="0" y="45.9" class="st1 st20" style="font-size:12.7509px;">  font-size : 14px;</tspan><tspan x="0" y="61.2" class="st1 st20" style="font-size:12.7509px;">  color : #4d4d4d;</tspan><tspan x="0" y="76.5" class="st1 st20" style="font-size:12.7509px;">  color : rgb(128, 128, 128);</tspan><tspan x="0" y="91.8" class="st1 st20" style="font-size:12.7509px;">}</tspan><tspan x="0" y="122.4" class="st1" style="font-family:'Roboto-Bold'; font-size:12.7509px;">H3 not highlighted: Roboto - Regular - 14 pixels - #f57c00</tspan><tspan x="0" y="137.7" class="st1 st20" style="font-size:12.7509px;">{</tspan><tspan x="0" y="153" class="st1 st20" style="font-size:12.7509px;">  font-family : Roboto;</tspan><tspan x="0" y="168.3" class="st1 st20" style="font-size:12.7509px;">  font-size : 14px;</tspan><tspan x="0" y="183.6" class="st1 st20" style="font-size:12.7509px;">  color : #f57c00;</tspan><tspan x="0" y="198.9" class="st1 st20" style="font-size:12.7509px;">  color : rgb(128, 128, 128);</tspan><tspan x="0" y="214.2" class="st1 st20" style="font-size:12.7509px;">}</tspan></text>
<g>
	<ellipse class="st5" cx="194.3" cy="-2814.2" rx="14.8" ry="14.3"/>
	<text transform="matrix(1.0335 0 0 1 185.0082 -2810.1162)" class="st1" style="font-family:'Roboto-Bold'; font-size:14.0195px;">H3</text>
</g>
<g>
	<ellipse class="st5" cx="147.1" cy="-2957.2" rx="12.5" ry="12.1"/>
	<text transform="matrix(1.0335 0 0 1 139.2543 -2953.6816)" class="st1" style="font-family:'Roboto-Bold'; font-size:11.9174px;">H3</text>
</g>
<g>
	<g>
		<g>
			<g>
				<path class="st6" d="M852.3-2766.5c-3.8,0-6.5,3.1-6.5,6.9v96.7c0,3.8,2.7,7.4,6.5,7.4h222.5c3.8,0,7-3.6,7-7.4v-96.7
					c0-3.8-3.2-6.9-7-6.9H852.3z"/>
				<path class="st0" d="M1074.7-2660.1H852.8c-1.9,0-3.4-1.5-3.4-3.4v-95.8c0-1.9,1.5-3.4,3.4-3.4h221.9c1.9,0,3.4,1.5,3.4,3.4
					v95.8C1078.1-2661.6,1076.6-2660.1,1074.7-2660.1z"/>
			</g>
			<g>
				<text transform="matrix(1 0 0 1 860.6804 -2728.5615)"><tspan x="0" y="0" class="st6 st20 st21">Do you really want to revert blank.html </tspan><tspan x="0" y="14.4" class="st6 st20 st21">to its version from 15/06/01 01:05:33?</tspan></text>
			</g>
		</g>
		<g>
			<g>
				<g>
					<path class="st6" d="M1022.2-2674.6h-46.8c-5,0-9.1-4.1-9.1-9.1v-1.8c0-5,4.1-9.1,9.1-9.1h46.8c5,0,9.1,4.1,9.1,9.1v1.8
						C1031.3-2678.7,1027.2-2674.6,1022.2-2674.6z"/>
				</g>
			</g>
			<g>
				<text transform="matrix(1 0 0 1 990.8987 -2681.0593)" class="st0 st20 st21">OK</text>
			</g>
			<g>
				<g>
					<path class="st6" d="M952.2-2674.6h-46.8c-5,0-9.1-4.1-9.1-9.1v-1.8c0-5,4.1-9.1,9.1-9.1h46.8c5,0,9.1,4.1,9.1,9.1v1.8
						C961.3-2678.7,957.2-2674.6,952.2-2674.6z"/>
				</g>
			</g>
			<g>
				<text transform="matrix(1 0 0 1 910.5332 -2681.0593)" class="st0 st20 st21">Cancel</text>
			</g>
		</g>
	</g>
	<rect x="846.1" y="-2758.8" class="st11" width="235.5" height="2.6"/>
	<rect x="1070.6" y="-2766.5" class="st11" width="3" height="111"/>
	<text transform="matrix(1 0 0 1 947.385 -2772.6326)" class="st6 st20 st21">236px</text>
	<text transform="matrix(1 0 0 1 1090.2236 -2706.1758)" class="st6 st20 st21">111px</text>
	<g>
		<rect x="896" y="-2687.4" class="st11" width="65" height="20"/>
		<text transform="matrix(1 0 0 1 902.7202 -2673.1702)" class="st6 st20 st21">65 x 20px</text>
	</g>
</g>
<text transform="matrix(1 0 0 1 26.5823 -881.7086)" class="st9 st10">Settings Window - UI</text>
<g>
	<g>
		<path id="bck_15_" class="st1" d="M702.5-258.5H33.8c-8.6,0-15.6-7.1-15.6-15.9v-568.2c0-8.8,7-15.9,15.6-15.9h668.7
			c8.6,0,15.6,7.1,15.6,15.9v568.2C718.2-265.6,711.2-258.5,702.5-258.5z"/>
		<g>
			<path class="st2" d="M482-764.4v-35.7c0-6.2,5-11.2,11.1-11.2h206c6.4,0,11.6,5.2,11.6,11.7v520.3c0,6.4-5.2,12.7-11.6,12.7H37.3
				c-6.4,0-11.6-6.3-11.6-12.7V-754c0-6.3,5-10.3,11.2-10.3H482z"/>
			<path class="st2" d="M253.9-764.4v-35.7c0-6.2-5-11.2-11.1-11.2H37.3c-6.4,0-11.6,5.2-11.6,11.7v521.5c0,6.4,5.2,11.7,11.6,11.7
				h661.9c6.4,0,11.6-5.2,11.6-11.7V-753c0-6.3-5-11.3-11.2-11.3H253.9z"/>
			<path class="st0" d="M481.8-764.4v-35.7c0-6.2-5-11.2-11.1-11.2H265.6c-6.4,0-11.6,5.2-11.6,11.7v35.3H36.4
				c-5.9,0-10.7,4.8-10.7,10.7v475.5c0,6.4,5.2,11.7,11.6,11.7h661.9c6.4,0,11.6-5.2,11.6-11.7V-753c0-6.3-5-11.3-11.2-11.3H481.8z"
				/>
		</g>
	</g>
	<g>
		<text transform="matrix(1 0 0 1 66.2327 -829.1274)" class="st0 st19 st22">Settings</text>
		<g>
			<path class="st5" d="M47.9-846.4c-1.4,0-2.7,0.2-4,0.7c-2.9,1.1-5.2,3.3-6.4,6.1c-1.2,2.8-1.3,5.9-0.2,8.8
				c1.7,4.5,6,7.5,10.8,7.5c1.4,0,2.7-0.2,4-0.7c2.9-1.1,5.2-3.3,6.4-6.1c1.2-2.8,1.3-5.9,0.2-8.8C57-843.4,52.6-846.4,47.9-846.4z"
				/>
		</g>
		<path d="M48-828.7c-0.6,0-1.2-0.4-1.4-0.9c-0.1-0.2-0.2-0.4-0.4-0.5c-0.1-0.1-0.2-0.1-0.3-0.1c-0.2,0-0.4,0-0.5,0.1
			c-0.2,0.1-0.4,0.1-0.6,0.1c-0.7,0-1.4-0.5-1.5-1.4c0-0.3,0-0.5,0.1-0.8c0.1-0.2,0.1-0.4,0.1-0.6c0-0.1-0.1-0.2-0.2-0.4
			c-0.1-0.1-0.3-0.2-0.5-0.3c-0.5-0.2-0.9-0.7-0.9-1.3c-0.1-0.6,0.3-1.3,0.9-1.5c0.3-0.1,0.5-0.3,0.6-0.4c0-0.1,0.1-0.1,0.1-0.2
			c0-0.2,0-0.4-0.1-0.6c-0.2-0.4-0.2-1,0.1-1.4c0.2-0.4,0.6-0.7,1.1-0.7c0.3,0,0.5,0,0.8,0.1c0.2,0.1,0.4,0.1,0.6,0.1
			c0.1,0,0.2,0,0.3-0.2c0.1-0.1,0.2-0.3,0.3-0.4c0.2-0.6,0.8-1,1.4-1c0.6,0,1.2,0.4,1.4,1c0.1,0.2,0.2,0.4,0.3,0.5
			c0.1,0.1,0.2,0.1,0.3,0.1c0.2,0,0.4,0,0.5-0.1c0.6-0.2,1.3-0.1,1.7,0.3c0.4,0.4,0.6,1.1,0.3,1.7c-0.1,0.2-0.1,0.3-0.1,0.5
			c0,0.1,0,0.3,0.2,0.5c0.1,0.1,0.3,0.2,0.4,0.2c0.6,0.2,0.9,0.8,0.9,1.4c0,0.6-0.4,1.2-1,1.4c-0.2,0.1-0.4,0.2-0.5,0.4
			c-0.1,0.1-0.1,0.2-0.1,0.3c0,0.2,0,0.4,0.1,0.5c0.2,0.6,0.2,1.1-0.2,1.6c-0.3,0.4-0.7,0.5-1.2,0.5l0,0c-0.1,0-0.2,0-0.3,0
			c-0.1,0-0.3-0.1-0.3-0.1c0,0-0.1,0-0.1,0c-0.2,0-0.3-0.1-0.5,0c-0.1,0-0.2,0-0.3,0.2c-0.1,0.1-0.2,0.3-0.3,0.5
			C49.1-829.1,48.5-828.7,48-828.7L48-828.7z M45.9-831.1c0.4,0,0.7,0.1,0.9,0.3c0.2,0.2,0.4,0.5,0.6,0.8c0.1,0.2,0.4,0.4,0.6,0.4
			v0.4l0-0.4c0.2,0,0.5-0.2,0.6-0.4c0.1-0.3,0.3-0.5,0.5-0.7c0.3-0.3,0.5-0.4,0.8-0.4c0.3,0,0.5,0,0.8,0.1c0.1,0,0.1,0.1,0.2,0.1
			c0.1,0,0.1,0,0.1,0.1c0.3,0,0.5,0,0.7-0.2c0.2-0.2,0.2-0.5,0.1-0.7c-0.1-0.3-0.2-0.6-0.2-0.8c0-0.4,0.1-0.7,0.3-0.9
			c0.2-0.2,0.5-0.4,0.8-0.6c0.2-0.1,0.4-0.4,0.4-0.6c0-0.3-0.2-0.5-0.4-0.6c-0.2-0.1-0.5-0.2-0.6-0.4c-0.4-0.3-0.5-0.7-0.5-1.1
			c0-0.3,0.1-0.6,0.2-0.9c0.1-0.3,0.1-0.6-0.1-0.8c-0.2-0.2-0.5-0.2-0.8-0.1c-0.3,0.1-0.6,0.2-0.9,0.2c0,0,0,0,0,0
			c-0.4,0-0.7-0.1-0.9-0.4c-0.2-0.2-0.4-0.5-0.5-0.8c-0.1-0.2-0.4-0.4-0.6-0.4c-0.3,0-0.5,0.2-0.6,0.4c-0.1,0.3-0.2,0.5-0.4,0.7
			c-0.2,0.2-0.5,0.4-0.9,0.5c-0.4,0-0.7,0-1.1-0.2c-0.1,0-0.2-0.1-0.4-0.1c-0.3,0-0.4,0.2-0.5,0.3c-0.1,0.2-0.1,0.4,0,0.6
			c0.1,0.3,0.2,0.7,0.2,1.1c0,0.2-0.1,0.4-0.2,0.6c-0.2,0.3-0.5,0.6-1,0.7c-0.2,0.1-0.4,0.4-0.4,0.6c0,0.3,0.2,0.5,0.4,0.6
			c0.3,0.1,0.5,0.3,0.7,0.5c0.3,0.3,0.4,0.6,0.4,0.9c0,0.3-0.1,0.6-0.2,0.9c0,0.1-0.1,0.2,0,0.3c0,0.5,0.4,0.6,0.7,0.6
			c0.1,0,0.2,0,0.3-0.1C45.2-831.1,45.5-831.1,45.9-831.1z M48-832.3c-0.7,0-1.3-0.3-1.8-0.7c-0.5-0.5-0.7-1.1-0.7-1.8
			c0-1.4,1.1-2.5,2.5-2.5h0c0.7,0,1.3,0.3,1.8,0.7c0.5,0.5,0.7,1.1,0.7,1.8C50.5-833.4,49.3-832.3,48-832.3z M48-836.9v0.4
			c-0.9,0-1.7,0.7-1.7,1.7c0,0.4,0.2,0.9,0.5,1.2c0.3,0.3,0.7,0.5,1.2,0.5c0.9,0,1.7-0.7,1.7-1.7c0-0.4-0.2-0.9-0.5-1.2
			c-0.3-0.3-0.7-0.5-1.2-0.5L48-836.9z"/>
	</g>
	<g>
		<text transform="matrix(1 0 0 1 112.7971 -790.9645)"><tspan x="0" y="0" class="st0 st17 st18">Account </tspan><tspan x="-14.3" y="16.8" class="st0 st17 st18">Configuration</tspan></text>
	</g>
	<g>
		<text transform="matrix(1 0 0 1 355.033 -790.9645)"><tspan x="0" y="0" class="st6 st19 st18">World </tspan><tspan x="-22.9" y="16.8" class="st6 st19 st18">Configuration</tspan></text>
	</g>
	<path class="st7" d="M660.9-366h-474c-5.5,0-9.9-4.5-9.9-9.9v-217.8c0-5.5,4.5-9.9,9.9-9.9h474c5.5,0,9.9,4.5,9.9,9.9v217.8
		C670.8-370.4,666.4-366,660.9-366z"/>
	<g>
		<g>
			<g>
				<path class="st1" d="M658.8-306.7h-46.8c-5,0-9.1-4.1-9.1-9.1v-1.8c0-5,4.1-9.1,9.1-9.1h46.8c5,0,9.1,4.1,9.1,9.1v1.8
					C667.8-310.8,663.8-306.7,658.8-306.7z"/>
			</g>
		</g>
		<g>
			<text transform="matrix(1 0 0 1 621.5139 -312.6113)" class="st0 st20 st21">Save</text>
		</g>
	</g>
	<g>
		<g>
			<g>
				<path class="st7" d="M660.9-643h-474c-5.5,0-10-4.5-10-10l0,0c0-5.5,4.5-10,10-10h474c5.5,0,10,4.5,10,10l0,0
					C670.9-647.5,666.4-643,660.9-643z"/>
			</g>
		</g>
	</g>
	<g>
		<text transform="matrix(1 0 0 1 65.9022 -647.8229)" class="st6 st20 st21">World Title:</text>
	</g>
	<g>
		<text transform="matrix(1 0 0 1 65.9032 -592.7204)" class="st6 st20 st21">World Description:</text>
	</g>
	<g>
		<g>
			<g>
				<g>
					<path class="st3" d="M167.3-704.4H75c-5,0-9.1-4.1-9.1-9.1v-1.8c0-5,4.1-9.1,9.1-9.1h92.3c5,0,9.1,4.1,9.1,9.1v1.8
						C176.4-708.5,172.3-704.4,167.3-704.4z"/>
				</g>
			</g>
			<g>
				<text transform="matrix(1 0 0 1 73.8036 -710.8951)" class="st0 st20 st21">World Description</text>
			</g>
		</g>
		<g>
			<g>
				<g>
					<path class="st7" d="M284-704.4h-92.3c-5,0-9.1-4.1-9.1-9.1v-1.8c0-5,4.1-9.1,9.1-9.1H284c5,0,9.1,4.1,9.1,9.1v1.8
						C293.1-708.5,289-704.4,284-704.4z"/>
				</g>
			</g>
			<g>
				<text transform="matrix(1 0 0 1 197.59 -710.8945)" class="st6 st20 st21">World Versions</text>
			</g>
		</g>
		<g>
			<g>
				<g>
					<path class="st7" d="M400.7-704.4h-92.3c-5,0-9.1-4.1-9.1-9.1v-1.8c0-5,4.1-9.1,9.1-9.1h92.3c5,0,9.1,4.1,9.1,9.1v1.8
						C409.8-708.5,405.8-704.4,400.7-704.4z"/>
				</g>
			</g>
			<g>
				<text transform="matrix(1 0 0 1 314.3953 -710.8951)" class="st6 st20 st21">Activity History</text>
			</g>
		</g>
	</g>
	<g>
		<text transform="matrix(1 0 0 1 558.4158 -782.5519)" class="st0 st17 st18">Preferences</text>
	</g>
	<g>
		<g>
			<g>
				<circle class="st3" cx="692.6" cy="-834.9" r="7.4"/>
				<g>
					<line class="st4" x1="688.9" y1="-838.6" x2="696.4" y2="-831.1"/>
					<line class="st4" x1="688.9" y1="-831.1" x2="696.4" y2="-838.6"/>
				</g>
			</g>
		</g>
		<g>
			<circle class="st5" cx="667.6" cy="-834.9" r="7.4"/>
			<g>
				<g>
					<path class="st1" d="M671.6-833.4h-8c-0.3,0-0.5-0.2-0.5-0.5s0.2-0.5,0.5-0.5h8c0.3,0,0.5,0.2,0.5,0.5S671.8-833.4,671.6-833.4
						z"/>
				</g>
			</g>
		</g>
	</g>
</g>
<g>
	<g>
		<path id="bck_2_" class="st1" d="M702.7-1233.3H34c-8.6,0-15.6-7.1-15.6-15.9v-568.2c0-8.8,7-15.9,15.6-15.9h668.7
			c8.6,0,15.6,7.1,15.6,15.9v568.2C718.4-1240.4,711.4-1233.3,702.7-1233.3z"/>
		<g>
			<path class="st2" d="M482.2-1739.1v-35.7c0-6.2,5-11.2,11.1-11.2h206c6.4,0,11.6,5.2,11.6,11.7v520.3c0,6.4-5.2,12.7-11.6,12.7
				H37.4c-6.4,0-11.6-6.3-11.6-12.7v-474.7c0-6.3,5-10.3,11.2-10.3H482.2z"/>
			<path class="st2" d="M482-1739.1v-35.7c0-6.2-5-11.2-11.1-11.2H265.7c-6.4,0-11.6,5.2-11.6,11.7v35.3H36.5
				c-5.9,0-10.7,4.8-10.7,10.7v475.5c0,6.4,5.2,11.7,11.6,11.7h661.9c6.4,0,11.6-5.2,11.6-11.7v-474.9c0-6.3-5-11.3-11.2-11.3H482z"
				/>
			<path class="st0" d="M254.1-1739.1v-35.7c0-6.2-5-11.2-11.1-11.2H37.4c-6.4,0-11.6,5.2-11.6,11.7v521.5c0,6.4,5.2,11.7,11.6,11.7
				h661.9c6.4,0,11.6-5.2,11.6-11.7v-474.9c0-6.3-5-11.3-11.2-11.3H254.1z"/>
		</g>
	</g>
	<g>
		<text transform="matrix(1 0 0 1 66.406 -1803.8962)" class="st0 st19" style="font-size:16px;">Settings</text>
		<g>
			<path class="st5" d="M48-1821.2c-1.4,0-2.7,0.2-4,0.7c-2.9,1.1-5.2,3.3-6.4,6.1c-1.2,2.8-1.3,5.9-0.2,8.8c1.7,4.5,6,7.5,10.8,7.5
				c1.4,0,2.7-0.2,4-0.7c2.9-1.1,5.2-3.3,6.4-6.1c1.2-2.8,1.3-5.9,0.2-8.8C57.1-1818.2,52.8-1821.2,48-1821.2z"/>
		</g>
	</g>
	<g>
		<text transform="matrix(1 0 0 1 112.3792 -1765.7327)"><tspan x="0" y="0" class="st6 st19 st18">Account </tspan><tspan x="-15.1" y="16.8" class="st6 st19 st18">Configuration</tspan></text>
	</g>
	<g>
		<text transform="matrix(1 0 0 1 559.8831 -1757.3201)" class="st0 st17 st18">Preferences</text>
	</g>
	<g>
		<text transform="matrix(1 0 0 1 348.5754 -1765.7327)"><tspan x="0" y="0" class="st0 st17 st18">World </tspan><tspan x="-22" y="16.8" class="st0 st17 st18">Configuration</tspan></text>
	</g>
	<g>
		<text transform="matrix(1 0 0 1 136.0777 -1644.7703)" class="st6 st20 st18">Username</text>
	</g>
	<g>
		<text transform="matrix(1 0 0 1 136.0777 -1610.2993)" class="st6 st20 st18">Email</text>
	</g>
	<g>
		<g>
			<g>
				<path class="st7" d="M661.1-1638.9h-433c-5.5,0-10-4.5-10-10l0,0c0-5.5,4.5-10,10-10h433c5.5,0,10,4.5,10,10l0,0
					C671.1-1643.4,666.6-1638.9,661.1-1638.9z"/>
			</g>
		</g>
	</g>
	<g>
		<g>
			<g>
				<path class="st7" d="M661.1-1604.4h-433c-5.5,0-10-4.5-10-10l0,0c0-5.5,4.5-10,10-10h433c5.5,0,10,4.5,10,10l0,0
					C671.1-1608.9,666.6-1604.4,661.1-1604.4z"/>
			</g>
		</g>
	</g>
	<g>
		<g>
			<g>
				<g>
					<path class="st7" d="M661.1-1450.5h-433c-5.5,0-10-4.5-10-10l0,0c0-5.5,4.5-10,10-10h433c5.5,0,10,4.5,10,10l0,0
						C671.1-1455,666.6-1450.5,661.1-1450.5z"/>
				</g>
			</g>
		</g>
		<g>
			<g>
				<g>
					<path class="st7" d="M661.1-1416.1h-433c-5.5,0-10-4.5-10-10v0c0-5.5,4.5-10,10-10h433c5.5,0,10,4.5,10,10v0
						C671.1-1420.6,666.6-1416.1,661.1-1416.1z"/>
				</g>
			</g>
		</g>
		<g>
			<g>
				<g>
					<path class="st7" d="M661.1-1381.6h-433c-5.5,0-10-4.5-10-10l0,0c0-5.5,4.5-10,10-10h433c5.5,0,10,4.5,10,10l0,0
						C671.1-1386.1,666.6-1381.6,661.1-1381.6z"/>
				</g>
			</g>
		</g>
		<g>
			<text transform="matrix(1 0 0 1 66.0777 -1518.2246)" class="st3 st19 st18">Update Password</text>
		</g>
		<g>
			<text transform="matrix(1 0 0 1 66.0774 -1456.4338)" class="st6 st20 st18">Current Password</text>
		</g>
		<g>
			<text transform="matrix(1 0 0 1 66.0774 -1421.9629)" class="st6 st20 st18">New Password</text>
		</g>
		<g>
			<text transform="matrix(1 0 0 1 66.0774 -1387.4912)" class="st6 st20 st18">Retype </text>
		</g>
		<line class="st8" x1="66.1" y1="-1507.4" x2="669.1" y2="-1507.4"/>
	</g>
	<g>
		<g>
			<g>
				<path class="st7" d="M656.9-1281.2H610c-5,0-9.1-4.1-9.1-9.1v-1.8c0-5,4.1-9.1,9.1-9.1h46.8c5,0,9.1,4.1,9.1,9.1v1.8
					C666-1285.3,661.9-1281.2,656.9-1281.2z"/>
			</g>
		</g>
		<g>
			<text transform="matrix(1 0 0 1 619.6179 -1287.04)" class="st5 st20 st21">Save</text>
		</g>
	</g>
	<path class="st1" d="M48.1-1802.8c-0.7,0-1.3-0.4-1.6-1.1c-0.1-0.2-0.2-0.4-0.4-0.6c-0.1-0.1-0.2-0.1-0.4-0.1c-0.2,0-0.4,0-0.6,0.1
		c-0.2,0.1-0.5,0.2-0.7,0.2c-0.8,0-1.6-0.5-1.7-1.5c0-0.3,0-0.6,0.1-0.8c0.1-0.2,0.1-0.4,0.1-0.7c0-0.1-0.1-0.3-0.2-0.4
		c-0.1-0.1-0.3-0.3-0.5-0.3c-0.6-0.2-1-0.7-1-1.4c-0.1-0.7,0.4-1.4,1-1.7c0.3-0.1,0.5-0.3,0.7-0.5c0-0.1,0.1-0.1,0.1-0.2
		c0-0.3,0-0.5-0.1-0.7c-0.2-0.5-0.2-1.1,0.1-1.5c0.3-0.5,0.7-0.8,1.3-0.8c0.3,0,0.6,0,0.9,0.1c0.2,0.1,0.5,0.1,0.7,0.1
		c0.1,0,0.2,0,0.4-0.2c0.1-0.1,0.2-0.3,0.3-0.5c0.3-0.6,0.9-1.1,1.6-1.1c0.7,0,1.3,0.4,1.6,1.1c0.1,0.2,0.2,0.4,0.4,0.6
		c0.1,0.1,0.2,0.1,0.4,0.1c0.2,0,0.4,0,0.6-0.1c0.6-0.3,1.4-0.1,1.9,0.3c0.5,0.5,0.6,1.2,0.4,1.9c-0.1,0.2-0.1,0.4-0.1,0.6
		c0,0.1,0,0.3,0.3,0.5c0.1,0.1,0.3,0.2,0.5,0.3c0.6,0.3,1.1,0.9,1.1,1.6c0,0.7-0.4,1.3-1.1,1.6c-0.2,0.1-0.4,0.2-0.6,0.4
		c-0.1,0.1-0.1,0.2-0.1,0.4c0,0.2,0,0.4,0.1,0.6c0.3,0.6,0.2,1.3-0.2,1.8c-0.3,0.4-0.8,0.6-1.3,0.6l0,0c-0.1,0-0.2,0-0.3,0
		c-0.2,0-0.3-0.1-0.4-0.1c0,0-0.1,0-0.1-0.1c-0.2-0.1-0.4-0.1-0.6-0.1c-0.1,0-0.2,0-0.3,0.2c-0.1,0.1-0.2,0.3-0.3,0.5
		C49.4-1803.2,48.8-1802.8,48.1-1802.8L48.1-1802.8z M45.8-1805.5c0.4,0,0.7,0.1,1,0.4c0.3,0.3,0.5,0.6,0.6,0.9
		c0.1,0.3,0.4,0.5,0.7,0.5v0.5l0-0.5c0.3,0,0.6-0.2,0.7-0.5c0.1-0.3,0.3-0.6,0.5-0.8c0.3-0.3,0.6-0.5,0.9-0.5c0.3,0,0.6,0,0.9,0.1
		c0.1,0,0.2,0.1,0.2,0.1c0.1,0,0.1,0.1,0.2,0.1c0.3,0.1,0.6,0,0.8-0.2c0.2-0.3,0.2-0.5,0.1-0.8c-0.1-0.3-0.2-0.6-0.2-0.9
		c0-0.4,0.1-0.8,0.4-1c0.3-0.3,0.6-0.5,0.9-0.6c0.3-0.1,0.5-0.4,0.5-0.7c0-0.3-0.2-0.6-0.5-0.7c-0.3-0.1-0.5-0.3-0.7-0.4
		c-0.4-0.3-0.6-0.8-0.6-1.3c0-0.3,0.1-0.7,0.2-0.9c0.1-0.3,0.1-0.6-0.1-0.8c-0.2-0.2-0.6-0.3-0.8-0.1c-0.3,0.1-0.6,0.2-1,0.2h0
		c-0.4,0-0.8-0.1-1-0.4c-0.3-0.2-0.5-0.6-0.6-0.9c-0.1-0.3-0.4-0.5-0.7-0.5c-0.3,0-0.6,0.2-0.7,0.5c-0.1,0.3-0.3,0.5-0.5,0.7
		c-0.2,0.2-0.5,0.5-1,0.5c-0.4,0-0.8,0-1.2-0.2c-0.1-0.1-0.3-0.1-0.4-0.1c-0.3,0-0.5,0.2-0.6,0.3c-0.1,0.2-0.1,0.5,0,0.7
		c0.2,0.4,0.2,0.8,0.2,1.2c0,0.3-0.1,0.5-0.2,0.7c-0.3,0.4-0.6,0.6-1.1,0.8c-0.3,0.1-0.5,0.5-0.4,0.7c0,0.3,0.2,0.5,0.5,0.7
		c0.3,0.1,0.6,0.3,0.8,0.5c0.3,0.3,0.5,0.7,0.5,1.1c0,0.4-0.1,0.7-0.2,1c-0.1,0.1-0.1,0.2-0.1,0.4c0.1,0.5,0.5,0.7,0.8,0.7
		c0.1,0,0.2,0,0.3-0.1C45.1-1805.4,45.4-1805.5,45.8-1805.5z M48.1-1806.8c-0.8,0-1.5-0.3-2-0.8c-0.5-0.5-0.8-1.2-0.8-2
		c0-1.5,1.3-2.8,2.8-2.8h0c0.8,0,1.5,0.3,2,0.8c0.5,0.5,0.8,1.2,0.8,2C50.9-1808.1,49.7-1806.8,48.1-1806.8z M48.1-1811.9v0.5
		c-1,0-1.9,0.8-1.9,1.9c0,0.5,0.2,1,0.5,1.3c0.4,0.4,0.8,0.5,1.3,0.6c1,0,1.9-0.8,1.9-1.9c0-0.5-0.2-1-0.5-1.3
		c-0.4-0.4-0.8-0.6-1.3-0.6L48.1-1811.9z"/>
	<circle class="st6" cx="92.4" cy="-1634.2" r="26.4"/>
	<g>
		<g>
			<g>
				<circle class="st3" cx="693.8" cy="-1809.7" r="7.4"/>
				<g>
					<line class="st4" x1="690.1" y1="-1813.3" x2="697.6" y2="-1805.9"/>
					<line class="st4" x1="690.1" y1="-1805.9" x2="697.6" y2="-1813.3"/>
				</g>
			</g>
		</g>
		<g>
			<circle class="st5" cx="668.8" cy="-1809.7" r="7.4"/>
			<g>
				<g>
					<path class="st1" d="M672.7-1808.4h-8c-0.3,0-0.5-0.2-0.5-0.5s0.2-0.5,0.5-0.5h8c0.3,0,0.5,0.2,0.5,0.5
						S673-1808.4,672.7-1808.4z"/>
				</g>
			</g>
		</g>
	</g>
</g>
<g>
	<path id="bck_17_" class="st1" d="M2850.5-258.7h-668.7c-8.6,0-15.6-7.1-15.6-15.9v-568.2c0-8.8,7-15.9,15.6-15.9h668.7
		c8.6,0,15.6,7.1,15.6,15.9v568.2C2866.2-265.9,2859.2-258.7,2850.5-258.7z"/>
	<g>
		<path class="st2" d="M2630-763.4v-35.7c0-6.2,5-11.2,11.1-11.2h206c6.4,0,11.6,5.2,11.6,11.7v520.3c0,6.4-5.2,12.7-11.6,12.7
			h-661.9c-6.4,0-11.6-6.3-11.6-12.7V-753c0-6.3,5-10.3,11.2-10.3H2630z"/>
		<path class="st2" d="M2401.9-763.4v-35.7c0-6.2-5-11.2-11.1-11.2h-205.5c-6.4,0-11.6,5.2-11.6,11.7v521.5
			c0,6.4,5.2,11.7,11.6,11.7h661.9c6.4,0,11.6-5.2,11.6-11.7V-752c0-6.3-5-11.3-11.2-11.3H2401.9z"/>
		<path class="st0" d="M2629.8-763.4v-35.7c0-6.2-5-11.2-11.1-11.2h-205.1c-6.4,0-11.6,5.2-11.6,11.7v35.3h-217.6
			c-5.9,0-10.7,4.8-10.7,10.7v475.5c0,6.4,5.2,11.7,11.6,11.7h661.9c6.4,0,11.6-5.2,11.6-11.7V-752c0-6.3-5-11.3-11.2-11.3H2629.8z"
			/>
	</g>
	<g>
		<text transform="matrix(1 0 0 1 2214.2327 -828.1274)" class="st0 st19 st22">Settings</text>
		<g>
			<path class="st5" d="M2195.9-845.4c-1.4,0-2.7,0.2-4,0.7c-2.9,1.1-5.2,3.3-6.4,6.1c-1.2,2.8-1.3,5.9-0.2,8.8
				c1.7,4.5,6,7.5,10.8,7.5c1.4,0,2.7-0.2,4-0.7c2.9-1.1,5.2-3.3,6.4-6.1c1.2-2.8,1.3-5.9,0.2-8.8
				C2205-842.4,2200.6-845.4,2195.9-845.4z"/>
		</g>
		<path d="M2196-827.7c-0.6,0-1.2-0.4-1.4-0.9c-0.1-0.2-0.2-0.4-0.4-0.5c-0.1-0.1-0.2-0.1-0.3-0.1c-0.2,0-0.4,0-0.5,0.1
			c-0.2,0.1-0.4,0.1-0.6,0.1c-0.7,0-1.4-0.5-1.5-1.4c0-0.3,0-0.5,0.1-0.8c0.1-0.2,0.1-0.4,0.1-0.6c0-0.1-0.1-0.2-0.2-0.4
			c-0.1-0.1-0.3-0.2-0.5-0.3c-0.5-0.2-0.9-0.7-0.9-1.3c-0.1-0.6,0.3-1.3,0.9-1.5c0.3-0.1,0.5-0.3,0.6-0.4c0-0.1,0.1-0.1,0.1-0.2
			c0-0.2,0-0.4-0.1-0.6c-0.2-0.4-0.2-1,0.1-1.4c0.2-0.4,0.6-0.7,1.1-0.7c0.3,0,0.5,0,0.8,0.1c0.2,0.1,0.4,0.1,0.6,0.1
			c0.1,0,0.2,0,0.3-0.2c0.1-0.1,0.2-0.3,0.3-0.4c0.2-0.6,0.8-1,1.4-1c0.6,0,1.2,0.4,1.4,1c0.1,0.2,0.2,0.4,0.3,0.5
			c0.1,0.1,0.2,0.1,0.3,0.1c0.2,0,0.4,0,0.5-0.1c0.6-0.2,1.3-0.1,1.7,0.3c0.4,0.4,0.6,1.1,0.3,1.7c-0.1,0.2-0.1,0.3-0.1,0.5
			c0,0.1,0,0.3,0.2,0.5c0.1,0.1,0.3,0.2,0.4,0.2c0.6,0.2,0.9,0.8,0.9,1.4c0,0.6-0.4,1.2-1,1.4c-0.2,0.1-0.4,0.2-0.5,0.4
			c-0.1,0.1-0.1,0.2-0.1,0.3c0,0.2,0,0.4,0.1,0.5c0.2,0.6,0.2,1.1-0.2,1.6c-0.3,0.4-0.7,0.5-1.2,0.5l0,0c-0.1,0-0.2,0-0.3,0
			c-0.1,0-0.3-0.1-0.3-0.1c0,0-0.1,0-0.1,0c-0.2,0-0.3-0.1-0.5,0c-0.1,0-0.2,0-0.3,0.2c-0.1,0.1-0.2,0.3-0.3,0.5
			C2197.1-828.1,2196.5-827.7,2196-827.7L2196-827.7z M2193.9-830.1c0.4,0,0.7,0.1,0.9,0.3c0.2,0.2,0.4,0.5,0.6,0.8
			c0.1,0.2,0.4,0.4,0.6,0.4v0.4l0-0.4c0.2,0,0.5-0.2,0.6-0.4c0.1-0.3,0.3-0.5,0.5-0.7c0.3-0.3,0.5-0.4,0.8-0.4c0.3,0,0.5,0,0.8,0.1
			c0.1,0,0.1,0.1,0.2,0.1c0.1,0,0.1,0,0.1,0.1c0.3,0,0.5,0,0.7-0.2c0.2-0.2,0.2-0.5,0.1-0.7c-0.1-0.3-0.2-0.6-0.2-0.8
			c0-0.4,0.1-0.7,0.3-0.9c0.2-0.2,0.5-0.4,0.8-0.6c0.2-0.1,0.4-0.4,0.4-0.6c0-0.3-0.2-0.5-0.4-0.6c-0.2-0.1-0.5-0.2-0.6-0.4
			c-0.4-0.3-0.5-0.7-0.5-1.1c0-0.3,0.1-0.6,0.2-0.9c0.1-0.3,0.1-0.6-0.1-0.8c-0.2-0.2-0.5-0.2-0.8-0.1c-0.3,0.1-0.6,0.2-0.9,0.2h0
			c-0.4,0-0.7-0.1-0.9-0.4c-0.2-0.2-0.4-0.5-0.5-0.8c-0.1-0.2-0.4-0.4-0.6-0.4c-0.3,0-0.5,0.2-0.6,0.4c-0.1,0.3-0.2,0.5-0.4,0.7
			c-0.2,0.2-0.5,0.4-0.9,0.5c-0.4,0-0.7,0-1.1-0.2c-0.1,0-0.2-0.1-0.4-0.1c-0.3,0-0.4,0.2-0.5,0.3c-0.1,0.2-0.1,0.4,0,0.6
			c0.1,0.3,0.2,0.7,0.2,1.1c0,0.2-0.1,0.4-0.2,0.6c-0.2,0.3-0.5,0.6-1,0.7c-0.2,0.1-0.4,0.4-0.4,0.6c0,0.3,0.2,0.5,0.4,0.6
			c0.3,0.1,0.5,0.3,0.7,0.5c0.3,0.3,0.4,0.6,0.4,0.9c0,0.3-0.1,0.6-0.2,0.9c0,0.1-0.1,0.2,0,0.3c0,0.5,0.4,0.6,0.7,0.6
			c0.1,0,0.2,0,0.3-0.1C2193.2-830.1,2193.5-830.1,2193.9-830.1z M2196-831.3c-0.7,0-1.3-0.3-1.8-0.7c-0.5-0.5-0.7-1.1-0.7-1.8
			c0-1.4,1.1-2.5,2.5-2.5h0c0.7,0,1.3,0.3,1.8,0.7c0.5,0.5,0.7,1.1,0.7,1.8C2198.5-832.4,2197.3-831.3,2196-831.3z M2196-835.9v0.4
			c-0.9,0-1.7,0.7-1.7,1.7c0,0.4,0.2,0.9,0.5,1.2c0.3,0.3,0.7,0.5,1.2,0.5c0.9,0,1.7-0.7,1.7-1.7c0-0.4-0.2-0.9-0.5-1.2
			c-0.3-0.3-0.7-0.5-1.2-0.5L2196-835.9z"/>
	</g>
	<g>
		<text transform="matrix(1 0 0 1 2260.7971 -789.9645)"><tspan x="0" y="0" class="st0 st17 st18">Account </tspan><tspan x="-14.3" y="16.8" class="st0 st17 st18">Configuration</tspan></text>
	</g>
	<g>
		<text transform="matrix(1 0 0 1 2496.033 -789.9645)"><tspan x="0" y="0" class="st6 st19 st18">World </tspan><tspan x="-22.9" y="16.8" class="st6 st19 st18">Configuration</tspan></text>
	</g>
	<g>
		<path class="st7" d="M2808.9-305.3h-585c-5.5,0-9.9-4.5-9.9-9.9V-652c0-5.5,4.5-9.9,9.9-9.9h585c5.5,0,9.9,4.5,9.9,9.9v336.8
			C2818.8-309.7,2814.4-305.3,2808.9-305.3z"/>
		<g>
			<g>
				<g>
					<g>
						<g>
							<path class="st0" d="M2803.4-317.9v-331.5c0-2,1.7-3.7,3.7-3.7h0.6c2,0,3.7,1.7,3.7,3.7v331.5c0,2-1.7,3.7-3.7,3.7h-0.6
								C2805.1-314.2,2803.4-315.8,2803.4-317.9z"/>
						</g>
					</g>
				</g>
			</g>
			<g>
				<g>
					<g>
						<path class="st5" d="M2804.5-584.1v-43.5c0-1.5,1.2-2.7,2.7-2.7h0.4c1.5,0,2.7,1.2,2.7,2.7v43.5c0,1.5-1.2,2.7-2.7,2.7h-0.4
							C2805.7-581.4,2804.5-582.6,2804.5-584.1z"/>
					</g>
				</g>
			</g>
		</g>
		<g>
			<g>
				<path class="st3" d="M2791.1-413.4h-560.2c-5.1,0-9.3-4.2-9.3-9.3v-1.4c0-5.1,4.2-9.3,9.3-9.3h560.2c5.1,0,9.3,4.2,9.3,9.3v1.4
					C2800.4-417.6,2796.2-413.4,2791.1-413.4z"/>
			</g>
		</g>
		<g>
			<text transform="matrix(1 0 0 1 2229.8713 -639.2458)"><tspan x="0" y="0" class="st6 st20 st21">Lorem -  15/05/14 09:39 am (ipsum dolorsit amet) </tspan><tspan x="0" y="20" class="st6 st20 st21">Aliquam tincidunt - 15/05/14 09:39 am (ipsum dolorsit amet) </tspan><tspan x="0" y="40" class="st6 st20 st21">Vestibulum - 15/05/14 09:39 am (ipsum dolorsit amet) </tspan><tspan x="0" y="60" class="st6 st20 st21">Nunc dignissim risus - 15/05/14 09:39 am (ipsumamet) </tspan><tspan x="0" y="80" class="st6 st20 st21">Lorem -  15/05/14 09:39 am (ipsum dolorsit amet) </tspan><tspan x="0" y="100" class="st6 st20 st21">Aliquam tincidunt - 15/05/14 09:39 am (ipsum dolorsit amet) </tspan><tspan x="0" y="120" class="st6 st20 st21">Vestibulum - 15/05/14 09:39 am (ipsum dolorsit amet) </tspan><tspan x="0" y="140" class="st6 st20 st21">Nunc dignissim risus - 15/05/14 09:39 am (ipsumamet) </tspan><tspan x="0" y="160" class="st6 st20 st21">Lorem -  15/05/14 09:39 am (ipsum dolorsit amet) </tspan><tspan x="0" y="180" class="st6 st20 st21">Aliquam tincidunt - 15/05/14 09:39 am (ipsum dolorsit amet) </tspan><tspan x="0" y="200" class="st6 st20 st21">Vestibulum - 15/05/14 09:39 am (ipsum dolorsit amet) </tspan><tspan x="0" y="220" class="st0 st20 st21">Nunc dignissim risus - 15/05/14 09:39 am (ipsumamet) </tspan><tspan x="0" y="240" class="st6 st20 st21">Lorem -  15/05/14 09:39 am (ipsum dolorsit amet) </tspan><tspan x="0" y="260" class="st6 st20 st21">Aliquam tincidunt - 15/05/14 09:39 am (ipsum dolorsit amet) </tspan><tspan x="0" y="280" class="st6 st20 st21">Vestibulum - 15/05/14 09:39 am (ipsum dolorsit amet)</tspan><tspan x="0" y="300" class="st6 st20 st21">Aliquam tincidunt - 15/05/14 09:39 am (ipsum dolorsit amet) </tspan><tspan x="0" y="320" class="st6 st20 st21">Vestibulum - 15/05/14 09:39 am (ipsum dolorsit amet)</tspan></text>
		</g>
	</g>
	<g>
		<text transform="matrix(1 0 0 1 2706.4163 -781.5519)" class="st0 st17 st18">Preferences</text>
	</g>
	<g>
		<g>
			<g>
				<circle class="st3" cx="2841.6" cy="-833.9" r="7.4"/>
				<g>
					<line class="st4" x1="2837.9" y1="-837.6" x2="2845.4" y2="-830.1"/>
					<line class="st4" x1="2837.9" y1="-830.1" x2="2845.4" y2="-837.6"/>
				</g>
			</g>
		</g>
		<g>
			<circle class="st5" cx="2816.6" cy="-833.9" r="7.4"/>
			<g>
				<g>
					<path class="st1" d="M2820.6-832.4h-8c-0.3,0-0.5-0.2-0.5-0.5s0.2-0.5,0.5-0.5h8c0.3,0,0.5,0.2,0.5,0.5
						S2820.8-832.4,2820.6-832.4z"/>
				</g>
			</g>
		</g>
	</g>
	<g>
		<g>
			<g>
				<g>
					<path class="st7" d="M2315.4-703.4h-92.3c-5,0-9.1-4.1-9.1-9.1v-1.8c0-5,4.1-9.1,9.1-9.1h92.3c5,0,9.1,4.1,9.1,9.1v1.8
						C2324.5-707.5,2320.4-703.4,2315.4-703.4z"/>
				</g>
			</g>
			<g>
				<text transform="matrix(1 0 0 1 2221.8608 -709.8951)" class="st6 st20 st21">World Description</text>
			</g>
		</g>
		<g>
			<g>
				<g>
					<path class="st7" d="M2432.1-703.4h-92.3c-5,0-9.1-4.1-9.1-9.1v-1.8c0-5,4.1-9.1,9.1-9.1h92.3c5,0,9.1,4.1,9.1,9.1v1.8
						C2441.2-707.5,2437.1-703.4,2432.1-703.4z"/>
				</g>
			</g>
			<g>
				<text transform="matrix(1 0 0 1 2345.6472 -709.8945)" class="st6 st20 st21">World Versions</text>
			</g>
		</g>
		<g>
			<g>
				<g>
					<path class="st3" d="M2548.8-703.4h-92.3c-5,0-9.1-4.1-9.1-9.1v-1.8c0-5,4.1-9.1,9.1-9.1h92.3c5,0,9.1,4.1,9.1,9.1v1.8
						C2557.9-707.5,2553.8-703.4,2548.8-703.4z"/>
				</g>
			</g>
			<g>
				<text transform="matrix(1 0 0 1 2462.4526 -709.8951)" class="st0 st20 st21">Activity History</text>
			</g>
		</g>
	</g>
</g>
<g>
	<path id="bck_16_" class="st1" d="M2137.5-257.5h-668.7c-8.6,0-15.6-7.1-15.6-15.9v-568.2c0-8.8,7-15.9,15.6-15.9h668.7
		c8.6,0,15.6,7.1,15.6,15.9v568.2C2153.2-264.6,2146.2-257.5,2137.5-257.5z"/>
	<g>
		<g>
			<g>
				<circle class="st3" cx="2128.6" cy="-833.9" r="7.4"/>
				<g>
					<line class="st4" x1="2124.9" y1="-837.6" x2="2132.4" y2="-830.1"/>
					<line class="st4" x1="2124.9" y1="-830.1" x2="2132.4" y2="-837.6"/>
				</g>
			</g>
		</g>
		<g>
			<circle class="st5" cx="2103.6" cy="-833.9" r="7.4"/>
			<g>
				<g>
					<path class="st1" d="M2107.6-832.4h-8c-0.3,0-0.5-0.2-0.5-0.5s0.2-0.5,0.5-0.5h8c0.3,0,0.5,0.2,0.5,0.5
						S2107.8-832.4,2107.6-832.4z"/>
				</g>
			</g>
		</g>
	</g>
	<g>
		<path class="st2" d="M1917-763.4v-35.7c0-6.2,5-11.2,11.1-11.2h206c6.4,0,11.6,5.2,11.6,11.7v520.3c0,6.4-5.2,12.7-11.6,12.7
			h-661.9c-6.4,0-11.6-6.3-11.6-12.7V-753c0-6.3,5-10.3,11.2-10.3H1917z"/>
		<path class="st2" d="M1688.9-763.4v-35.7c0-6.2-5-11.2-11.1-11.2h-205.5c-6.4,0-11.6,5.2-11.6,11.7v521.5
			c0,6.4,5.2,11.7,11.6,11.7h661.9c6.4,0,11.6-5.2,11.6-11.7V-752c0-6.3-5-11.3-11.2-11.3H1688.9z"/>
		<path class="st0" d="M1916.8-763.4v-35.7c0-6.2-5-11.2-11.1-11.2h-205.1c-6.4,0-11.6,5.2-11.6,11.7v35.3h-217.6
			c-5.9,0-10.7,4.8-10.7,10.7v475.5c0,6.4,5.2,11.7,11.6,11.7h661.9c6.4,0,11.6-5.2,11.6-11.7V-752c0-6.3-5-11.3-11.2-11.3H1916.8z"
			/>
	</g>
	<g>
		<text transform="matrix(1 0 0 1 1501.2327 -828.1274)" class="st0 st19 st22">Settings</text>
		<g>
			<path class="st5" d="M1482.9-845.4c-1.4,0-2.7,0.2-4,0.7c-2.9,1.1-5.2,3.3-6.4,6.1c-1.2,2.8-1.3,5.9-0.2,8.8
				c1.7,4.5,6,7.5,10.8,7.5c1.4,0,2.7-0.2,4-0.7c2.9-1.1,5.2-3.3,6.4-6.1c1.2-2.8,1.3-5.9,0.2-8.8
				C1492-842.4,1487.6-845.4,1482.9-845.4z"/>
		</g>
		<path d="M1483-827.7c-0.6,0-1.2-0.4-1.4-0.9c-0.1-0.2-0.2-0.4-0.4-0.5c-0.1-0.1-0.2-0.1-0.3-0.1c-0.2,0-0.4,0-0.5,0.1
			c-0.2,0.1-0.4,0.1-0.6,0.1c-0.7,0-1.4-0.5-1.5-1.4c0-0.3,0-0.5,0.1-0.8c0.1-0.2,0.1-0.4,0.1-0.6c0-0.1-0.1-0.2-0.2-0.4
			c-0.1-0.1-0.3-0.2-0.5-0.3c-0.5-0.2-0.9-0.7-0.9-1.3c-0.1-0.6,0.3-1.3,0.9-1.5c0.3-0.1,0.5-0.3,0.6-0.4c0-0.1,0.1-0.1,0.1-0.2
			c0-0.2,0-0.4-0.1-0.6c-0.2-0.4-0.2-1,0.1-1.4c0.2-0.4,0.6-0.7,1.1-0.7c0.3,0,0.5,0,0.8,0.1c0.2,0.1,0.4,0.1,0.6,0.1
			c0.1,0,0.2,0,0.3-0.2c0.1-0.1,0.2-0.3,0.3-0.4c0.2-0.6,0.8-1,1.4-1c0.6,0,1.2,0.4,1.4,1c0.1,0.2,0.2,0.4,0.3,0.5
			c0.1,0.1,0.2,0.1,0.3,0.1c0.2,0,0.4,0,0.5-0.1c0.6-0.2,1.3-0.1,1.7,0.3c0.4,0.4,0.6,1.1,0.3,1.7c-0.1,0.2-0.1,0.3-0.1,0.5
			c0,0.1,0,0.3,0.2,0.5c0.1,0.1,0.3,0.2,0.4,0.2c0.6,0.2,0.9,0.8,0.9,1.4c0,0.6-0.4,1.2-1,1.4c-0.2,0.1-0.4,0.2-0.5,0.4
			c-0.1,0.1-0.1,0.2-0.1,0.3c0,0.2,0,0.4,0.1,0.5c0.2,0.6,0.2,1.1-0.2,1.6c-0.3,0.4-0.7,0.5-1.2,0.5l0,0c-0.1,0-0.2,0-0.3,0
			c-0.1,0-0.3-0.1-0.3-0.1c0,0-0.1,0-0.1,0c-0.2,0-0.3-0.1-0.5,0c-0.1,0-0.2,0-0.3,0.2c-0.1,0.1-0.2,0.3-0.3,0.5
			C1484.1-828.1,1483.5-827.7,1483-827.7L1483-827.7z M1480.9-830.1c0.4,0,0.7,0.1,0.9,0.3c0.2,0.2,0.4,0.5,0.6,0.8
			c0.1,0.2,0.4,0.4,0.6,0.4v0.4l0-0.4c0.2,0,0.5-0.2,0.6-0.4c0.1-0.3,0.3-0.5,0.5-0.7c0.3-0.3,0.5-0.4,0.8-0.4c0.3,0,0.5,0,0.8,0.1
			c0.1,0,0.1,0.1,0.2,0.1c0.1,0,0.1,0,0.1,0.1c0.3,0,0.5,0,0.7-0.2c0.2-0.2,0.2-0.5,0.1-0.7c-0.1-0.3-0.2-0.6-0.2-0.8
			c0-0.4,0.1-0.7,0.3-0.9c0.2-0.2,0.5-0.4,0.8-0.6c0.2-0.1,0.4-0.4,0.4-0.6c0-0.3-0.2-0.5-0.4-0.6c-0.2-0.1-0.5-0.2-0.6-0.4
			c-0.4-0.3-0.5-0.7-0.5-1.1c0-0.3,0.1-0.6,0.2-0.9c0.1-0.3,0.1-0.6-0.1-0.8c-0.2-0.2-0.5-0.2-0.8-0.1c-0.3,0.1-0.6,0.2-0.9,0.2h0
			c-0.4,0-0.7-0.1-0.9-0.4c-0.2-0.2-0.4-0.5-0.5-0.8c-0.1-0.2-0.4-0.4-0.6-0.4c-0.3,0-0.5,0.2-0.6,0.4c-0.1,0.3-0.2,0.5-0.4,0.7
			c-0.2,0.2-0.5,0.4-0.9,0.5c-0.4,0-0.7,0-1.1-0.2c-0.1,0-0.2-0.1-0.4-0.1c-0.3,0-0.4,0.2-0.5,0.3c-0.1,0.2-0.1,0.4,0,0.6
			c0.1,0.3,0.2,0.7,0.2,1.1c0,0.2-0.1,0.4-0.2,0.6c-0.2,0.3-0.5,0.6-1,0.7c-0.2,0.1-0.4,0.4-0.4,0.6c0,0.3,0.2,0.5,0.4,0.6
			c0.3,0.1,0.5,0.3,0.7,0.5c0.3,0.3,0.4,0.6,0.4,0.9c0,0.3-0.1,0.6-0.2,0.9c0,0.1-0.1,0.2,0,0.3c0,0.5,0.4,0.6,0.7,0.6
			c0.1,0,0.2,0,0.3-0.1C1480.2-830.1,1480.5-830.1,1480.9-830.1z M1483-831.3c-0.7,0-1.3-0.3-1.8-0.7c-0.5-0.5-0.7-1.1-0.7-1.8
			c0-1.4,1.1-2.5,2.5-2.5h0c0.7,0,1.3,0.3,1.8,0.7c0.5,0.5,0.7,1.1,0.7,1.8C1485.5-832.4,1484.3-831.3,1483-831.3z M1483-835.9v0.4
			c-0.9,0-1.7,0.7-1.7,1.7c0,0.4,0.2,0.9,0.5,1.2c0.3,0.3,0.7,0.5,1.2,0.5c0.9,0,1.7-0.7,1.7-1.7c0-0.4-0.2-0.9-0.5-1.2
			c-0.3-0.3-0.7-0.5-1.2-0.5L1483-835.9z"/>
	</g>
	<g>
		<text transform="matrix(1 0 0 1 1547.7971 -789.9645)"><tspan x="0" y="0" class="st0 st17 st18">Account </tspan><tspan x="-14.3" y="16.8" class="st0 st17 st18">Configuration</tspan></text>
	</g>
	<g>
		<text transform="matrix(1 0 0 1 1783.033 -789.9645)"><tspan x="0" y="0" class="st6 st19 st18">World </tspan><tspan x="-22.9" y="16.8" class="st6 st19 st18">Configuration</tspan></text>
	</g>
	<g>
		<g>
			<g>
				<path class="st1" d="M2093.8-305.7h-46.8c-5,0-9.1-4.1-9.1-9.1v-1.8c0-5,4.1-9.1,9.1-9.1h46.8c5,0,9.1,4.1,9.1,9.1v1.8
					C2102.8-309.8,2098.8-305.7,2093.8-305.7z"/>
			</g>
		</g>
		<g>
			<text transform="matrix(1 0 0 1 2058.5652 -312.2211)" class="st0 st20 st21">Visit</text>
		</g>
		<g>
			<g>
				<path class="st1" d="M2022.4-305.7h-46.8c-5,0-9.1-4.1-9.1-9.1v-1.8c0-5,4.1-9.1,9.1-9.1h46.8c5,0,9.1,4.1,9.1,9.1v1.8
					C2031.5-309.8,2027.4-305.7,2022.4-305.7z"/>
			</g>
		</g>
		<g>
			<text transform="matrix(1 0 0 1 1989.4158 -312.2211)" class="st0 st20 st21">Diff</text>
		</g>
		<g>
			<g>
				<g>
					<path class="st1" d="M1952.2-305.7h-46.8c-5,0-9.1-4.1-9.1-9.1v-1.8c0-5,4.1-9.1,9.1-9.1h46.8c5,0,9.1,4.1,9.1,9.1v1.8
						C1961.3-309.8,1957.3-305.7,1952.2-305.7z"/>
				</g>
			</g>
		</g>
		<g>
			<text transform="matrix(1 0 0 1 1911.8259 -312.2211)" class="st0 st20 st21">Revert</text>
		</g>
	</g>
	<g>
		<path class="st7" d="M2095.9-346.3h-585c-5.5,0-9.9-4.5-9.9-9.9V-652c0-5.5,4.5-9.9,9.9-9.9h585c5.5,0,9.9,4.5,9.9,9.9v295.8
			C2105.8-350.7,2101.4-346.3,2095.9-346.3z"/>
		<g>
			<text transform="matrix(1 0 0 1 1516.8713 -639.2458)"><tspan x="0" y="0" class="st6 st20 st21">Lorem -  15/05/14 09:39 am (ipsum dolorsit amet) </tspan><tspan x="0" y="20" class="st6 st20 st21">Aliquam tincidunt - 15/05/14 09:39 am (ipsum dolorsit amet) </tspan><tspan x="0" y="40" class="st6 st20 st21">Vestibulum - 15/05/14 09:39 am (ipsum dolorsit amet) </tspan><tspan x="0" y="60" class="st6 st20 st21">Nunc dignissim risus - 15/05/14 09:39 am (ipsumamet) </tspan><tspan x="0" y="80" class="st6 st20 st21">Lorem -  15/05/14 09:39 am (ipsum dolorsit amet) </tspan><tspan x="0" y="100" class="st6 st20 st21">Aliquam tincidunt - 15/05/14 09:39 am (ipsum dolorsit amet) </tspan><tspan x="0" y="120" class="st6 st20 st21">Vestibulum - 15/05/14 09:39 am (ipsum dolorsit amet) </tspan><tspan x="0" y="140" class="st6 st20 st21">Nunc dignissim risus - 15/05/14 09:39 am (ipsumamet) </tspan><tspan x="0" y="160" class="st6 st20 st21">Lorem -  15/05/14 09:39 am (ipsum dolorsit amet) </tspan><tspan x="0" y="180" class="st6 st20 st21">Aliquam tincidunt - 15/05/14 09:39 am (ipsum dolorsit amet) </tspan><tspan x="0" y="200" class="st6 st20 st21">Vestibulum - 15/05/14 09:39 am (ipsum dolorsit amet) </tspan><tspan x="0" y="220" class="st6 st20 st21">Nunc dignissim risus - 15/05/14 09:39 am (ipsumamet) </tspan><tspan x="0" y="240" class="st6 st20 st21">Lorem -  15/05/14 09:39 am (ipsum dolorsit amet) </tspan><tspan x="0" y="260" class="st6 st20 st21">Aliquam tincidunt - 15/05/14 09:39 am (ipsum dolorsit amet) </tspan><tspan x="0" y="280" class="st6 st20 st21">Vestibulum - 15/05/14 09:39 am (ipsum dolorsit amet)</tspan></text>
		</g>
		<g>
			<g>
				<g>
					<g>
						<g>
							<path class="st0" d="M2090.4-358.9v-290.5c0-2,1.7-3.7,3.7-3.7h0.6c2,0,3.7,1.7,3.7,3.7v290.5c0,2-1.7,3.7-3.7,3.7h-0.6
								C2092.1-355.2,2090.4-356.8,2090.4-358.9z"/>
						</g>
					</g>
				</g>
			</g>
			<g>
				<g>
					<g>
						<path class="st5" d="M2091.5-584.1v-43.5c0-1.5,1.2-2.7,2.7-2.7h0.4c1.5,0,2.7,1.2,2.7,2.7v43.5c0,1.5-1.2,2.7-2.7,2.7h-0.4
							C2092.7-581.4,2091.5-582.6,2091.5-584.1z"/>
					</g>
				</g>
			</g>
		</g>
		<g>
			<g>
				<path class="st3" d="M2078.1-413.4h-560.2c-5.1,0-9.3-4.2-9.3-9.3v-1.4c0-5.1,4.2-9.3,9.3-9.3h560.2c5.1,0,9.3,4.2,9.3,9.3v1.4
					C2087.4-417.6,2083.2-413.4,2078.1-413.4z"/>
			</g>
		</g>
	</g>
	<g>
		<text transform="matrix(1 0 0 1 1993.4163 -781.5519)" class="st0 st17 st18">Preferences</text>
	</g>
	<g>
		<g>
			<g>
				<g>
					<path class="st7" d="M1602.4-703.4h-92.3c-5,0-9.1-4.1-9.1-9.1v-1.8c0-5,4.1-9.1,9.1-9.1h92.3c5,0,9.1,4.1,9.1,9.1v1.8
						C1611.5-707.5,1607.4-703.4,1602.4-703.4z"/>
				</g>
			</g>
			<g>
				<text transform="matrix(1 0 0 1 1508.8608 -709.8951)" class="st6 st20 st21">World Description</text>
			</g>
		</g>
		<g>
			<g>
				<g>
					<path class="st3" d="M1719.1-703.4h-92.3c-5,0-9.1-4.1-9.1-9.1v-1.8c0-5,4.1-9.1,9.1-9.1h92.3c5,0,9.1,4.1,9.1,9.1v1.8
						C1728.2-707.5,1724.1-703.4,1719.1-703.4z"/>
				</g>
			</g>
			<g>
				<text transform="matrix(1 0 0 1 1632.6472 -709.8945)" class="st0 st20 st21">World Versions</text>
			</g>
		</g>
		<g>
			<g>
				<g>
					<path class="st7" d="M1835.8-703.4h-92.3c-5,0-9.1-4.1-9.1-9.1v-1.8c0-5,4.1-9.1,9.1-9.1h92.3c5,0,9.1,4.1,9.1,9.1v1.8
						C1844.9-707.5,1840.8-703.4,1835.8-703.4z"/>
				</g>
			</g>
			<g>
				<text transform="matrix(1 0 0 1 1749.4526 -709.8951)" class="st6 st20 st21">Activity History</text>
			</g>
		</g>
	</g>
	<rect x="1446.4" y="-889.7" class="st13" width="711.1" height="680.2"/>
	<g>
		<g>
			<g>
				<path class="st1" d="M1921.1-606.5c0-3.8-2.9-6.9-6.5-6.9h-223.1c-3.6,0-6.5,3.1-6.5,6.9v97.3c0,3.8,2.9,6.9,6.5,6.9h223.1
					c3.6,0,6.5-3.1,6.5-6.9V-606.5z"/>
				<path class="st0" d="M1914.2-506.6h-221.9c-1.9,0-3.4-1.5-3.4-3.4v-95.8c0-1.9,1.5-3.4,3.4-3.4h221.9c1.9,0,3.4,1.5,3.4,3.4
					v95.8C1917.5-508.1,1916-506.6,1914.2-506.6z"/>
			</g>
			<g>
				<text transform="matrix(1 0 0 1 1700.0851 -575.0563)"><tspan x="0" y="0" class="st6 st20 st21">Do you really want to revert blank.html </tspan><tspan x="0" y="14.4" class="st6 st20 st21">to its version from 15/06/01 01:05:33?</tspan></text>
			</g>
		</g>
		<g>
			<g>
				<g>
					<path class="st3" d="M1861.6-521.1h-46.8c-5,0-9.1-4.1-9.1-9.1v-1.8c0-5,4.1-9.1,9.1-9.1h46.8c5,0,9.1,4.1,9.1,9.1v1.8
						C1870.7-525.2,1866.6-521.1,1861.6-521.1z"/>
				</g>
			</g>
			<g>
				<text transform="matrix(1 0 0 1 1830.303 -527.5541)" class="st0 st20 st21">OK</text>
			</g>
			<g>
				<g>
					<path class="st1" d="M1791.6-521.1h-46.8c-5,0-9.1-4.1-9.1-9.1v-1.8c0-5,4.1-9.1,9.1-9.1h46.8c5,0,9.1,4.1,9.1,9.1v1.8
						C1800.7-525.2,1796.6-521.1,1791.6-521.1z"/>
				</g>
			</g>
			<g>
				<text transform="matrix(1 0 0 1 1749.9377 -527.5541)" class="st0 st20 st21">Cancel</text>
			</g>
		</g>
	</g>
	<g>
		<g>
			<polygon class="st14" points="1866.3,-520.1 1858,-527 1859.3,-516.3 1862,-517.8 1864.9,-512.5 1865.8,-513 1862.9,-518.2 			
				"/>
			<polygon points="1866.3,-520.1 1858,-527 1859.3,-516.3 1862,-517.8 1864.9,-512.5 1865.8,-513 1862.9,-518.2 			"/>
		</g>
	</g>
</g>
<g>
	<path id="bck_14_" class="st1" d="M1423.5-258.7H754.8c-8.6,0-15.6-7.1-15.6-15.9v-568.2c0-8.8,7-15.9,15.6-15.9h668.7
		c8.6,0,15.6,7.1,15.6,15.9v568.2C1439.2-265.9,1432.2-258.7,1423.5-258.7z"/>
	<g>
		<path class="st2" d="M1203-763.4v-35.7c0-6.2,5-11.2,11.1-11.2h206c6.4,0,11.6,5.2,11.6,11.7v520.3c0,6.4-5.2,12.7-11.6,12.7
			H758.3c-6.4,0-11.6-6.3-11.6-12.7V-753c0-6.3,5-10.3,11.2-10.3H1203z"/>
		<path class="st2" d="M974.9-763.4v-35.7c0-6.2-5-11.2-11.1-11.2H758.3c-6.4,0-11.6,5.2-11.6,11.7v521.5c0,6.4,5.2,11.7,11.6,11.7
			h661.9c6.4,0,11.6-5.2,11.6-11.7V-752c0-6.3-5-11.3-11.2-11.3H974.9z"/>
		<path class="st0" d="M1202.8-763.4v-35.7c0-6.2-5-11.2-11.1-11.2H986.6c-6.4,0-11.6,5.2-11.6,11.7v35.3H757.4
			c-5.9,0-10.7,4.8-10.7,10.7v475.5c0,6.4,5.2,11.7,11.6,11.7h661.9c6.4,0,11.6-5.2,11.6-11.7V-752c0-6.3-5-11.3-11.2-11.3H1202.8z"
			/>
	</g>
	<g>
		<text transform="matrix(1 0 0 1 787.2327 -828.1274)" class="st0 st19 st22">Settings</text>
		<g>
			<path class="st5" d="M768.9-845.4c-1.4,0-2.7,0.2-4,0.7c-2.9,1.1-5.2,3.3-6.4,6.1c-1.2,2.8-1.3,5.9-0.2,8.8
				c1.7,4.5,6,7.5,10.8,7.5c1.4,0,2.7-0.2,4-0.7c2.9-1.1,5.2-3.3,6.4-6.1c1.2-2.8,1.3-5.9,0.2-8.8
				C778-842.4,773.6-845.4,768.9-845.4z"/>
		</g>
		<path d="M769-827.7c-0.6,0-1.2-0.4-1.4-0.9c-0.1-0.2-0.2-0.4-0.4-0.5c-0.1-0.1-0.2-0.1-0.3-0.1c-0.2,0-0.4,0-0.5,0.1
			c-0.2,0.1-0.4,0.1-0.6,0.1c-0.7,0-1.4-0.5-1.5-1.4c0-0.3,0-0.5,0.1-0.8c0.1-0.2,0.1-0.4,0.1-0.6c0-0.1-0.1-0.2-0.2-0.4
			c-0.1-0.1-0.3-0.2-0.5-0.3c-0.5-0.2-0.9-0.7-0.9-1.3c-0.1-0.6,0.3-1.3,0.9-1.5c0.3-0.1,0.5-0.3,0.6-0.4c0-0.1,0.1-0.1,0.1-0.2
			c0-0.2,0-0.4-0.1-0.6c-0.2-0.4-0.2-1,0.1-1.4c0.2-0.4,0.6-0.7,1.1-0.7c0.3,0,0.5,0,0.8,0.1c0.2,0.1,0.4,0.1,0.6,0.1
			c0.1,0,0.2,0,0.3-0.2c0.1-0.1,0.2-0.3,0.3-0.4c0.2-0.6,0.8-1,1.4-1c0.6,0,1.2,0.4,1.4,1c0.1,0.2,0.2,0.4,0.3,0.5
			c0.1,0.1,0.2,0.1,0.3,0.1c0.2,0,0.4,0,0.5-0.1c0.6-0.2,1.3-0.1,1.7,0.3c0.4,0.4,0.6,1.1,0.3,1.7c-0.1,0.2-0.1,0.3-0.1,0.5
			c0,0.1,0,0.3,0.2,0.5c0.1,0.1,0.3,0.2,0.4,0.2c0.6,0.2,0.9,0.8,0.9,1.4c0,0.6-0.4,1.2-1,1.4c-0.2,0.1-0.4,0.2-0.5,0.4
			c-0.1,0.1-0.1,0.2-0.1,0.3c0,0.2,0,0.4,0.1,0.5c0.2,0.6,0.2,1.1-0.2,1.6c-0.3,0.4-0.7,0.5-1.2,0.5l0,0c-0.1,0-0.2,0-0.3,0
			c-0.1,0-0.3-0.1-0.3-0.1c0,0-0.1,0-0.1,0c-0.2,0-0.3-0.1-0.5,0c-0.1,0-0.2,0-0.3,0.2c-0.1,0.1-0.2,0.3-0.3,0.5
			C770.1-828.1,769.5-827.7,769-827.7L769-827.7z M766.9-830.1c0.4,0,0.7,0.1,0.9,0.3c0.2,0.2,0.4,0.5,0.6,0.8
			c0.1,0.2,0.4,0.4,0.6,0.4v0.4l0-0.4c0.2,0,0.5-0.2,0.6-0.4c0.1-0.3,0.3-0.5,0.5-0.7c0.3-0.3,0.5-0.4,0.8-0.4c0.3,0,0.5,0,0.8,0.1
			c0.1,0,0.1,0.1,0.2,0.1c0.1,0,0.1,0,0.1,0.1c0.3,0,0.5,0,0.7-0.2c0.2-0.2,0.2-0.5,0.1-0.7c-0.1-0.3-0.2-0.6-0.2-0.8
			c0-0.4,0.1-0.7,0.3-0.9c0.2-0.2,0.5-0.4,0.8-0.6c0.2-0.1,0.4-0.4,0.4-0.6c0-0.3-0.2-0.5-0.4-0.6c-0.2-0.1-0.5-0.2-0.6-0.4
			c-0.4-0.3-0.5-0.7-0.5-1.1c0-0.3,0.1-0.6,0.2-0.9c0.1-0.3,0.1-0.6-0.1-0.8c-0.2-0.2-0.5-0.2-0.8-0.1c-0.3,0.1-0.6,0.2-0.9,0.2h0
			c-0.4,0-0.7-0.1-0.9-0.4c-0.2-0.2-0.4-0.5-0.5-0.8c-0.1-0.2-0.4-0.4-0.6-0.4c-0.3,0-0.5,0.2-0.6,0.4c-0.1,0.3-0.2,0.5-0.4,0.7
			c-0.2,0.2-0.5,0.4-0.9,0.5c-0.4,0-0.7,0-1.1-0.2c-0.1,0-0.2-0.1-0.4-0.1c-0.3,0-0.4,0.2-0.5,0.3c-0.1,0.2-0.1,0.4,0,0.6
			c0.1,0.3,0.2,0.7,0.2,1.1c0,0.2-0.1,0.4-0.2,0.6c-0.2,0.3-0.5,0.6-1,0.7c-0.2,0.1-0.4,0.4-0.4,0.6c0,0.3,0.2,0.5,0.4,0.6
			c0.3,0.1,0.5,0.3,0.7,0.5c0.3,0.3,0.4,0.6,0.4,0.9c0,0.3-0.1,0.6-0.2,0.9c0,0.1-0.1,0.2,0,0.3c0,0.5,0.4,0.6,0.7,0.6
			c0.1,0,0.2,0,0.3-0.1C766.2-830.1,766.5-830.1,766.9-830.1z M769-831.3c-0.7,0-1.3-0.3-1.8-0.7c-0.5-0.5-0.7-1.1-0.7-1.8
			c0-1.4,1.1-2.5,2.5-2.5h0c0.7,0,1.3,0.3,1.8,0.7c0.5,0.5,0.7,1.1,0.7,1.8C771.5-832.4,770.3-831.3,769-831.3z M769-835.9v0.4
			c-0.9,0-1.7,0.7-1.7,1.7c0,0.4,0.2,0.9,0.5,1.2c0.3,0.3,0.7,0.5,1.2,0.5c0.9,0,1.7-0.7,1.7-1.7c0-0.4-0.2-0.9-0.5-1.2
			c-0.3-0.3-0.7-0.5-1.2-0.5L769-835.9z"/>
	</g>
	<g>
		<text transform="matrix(1 0 0 1 833.7971 -789.9645)"><tspan x="0" y="0" class="st0 st17 st18">Account </tspan><tspan x="-14.3" y="16.8" class="st0 st17 st18">Configuration</tspan></text>
	</g>
	<g>
		<text transform="matrix(1 0 0 1 1069.033 -789.9645)"><tspan x="0" y="0" class="st6 st19 st18">World </tspan><tspan x="-22.9" y="16.8" class="st6 st19 st18">Configuration</tspan></text>
	</g>
	<g>
		<g>
			<g>
				<path class="st1" d="M1379.8-305.7h-46.8c-5,0-9.1-4.1-9.1-9.1v-1.8c0-5,4.1-9.1,9.1-9.1h46.8c5,0,9.1,4.1,9.1,9.1v1.8
					C1388.8-309.8,1384.8-305.7,1379.8-305.7z"/>
			</g>
		</g>
		<g>
			<text transform="matrix(1 0 0 1 1344.5652 -312.2211)" class="st0 st20 st21">Visit</text>
		</g>
		<g>
			<g>
				<path class="st1" d="M1308.4-305.7h-46.8c-5,0-9.1-4.1-9.1-9.1v-1.8c0-5,4.1-9.1,9.1-9.1h46.8c5,0,9.1,4.1,9.1,9.1v1.8
					C1317.5-309.8,1313.4-305.7,1308.4-305.7z"/>
			</g>
		</g>
		<g>
			<text transform="matrix(1 0 0 1 1275.4158 -312.2211)" class="st0 st20 st21">Diff</text>
		</g>
		<g>
			<g>
				<g>
					<path class="st1" d="M1238.2-305.7h-46.8c-5,0-9.1-4.1-9.1-9.1v-1.8c0-5,4.1-9.1,9.1-9.1h46.8c5,0,9.1,4.1,9.1,9.1v1.8
						C1247.3-309.8,1243.3-305.7,1238.2-305.7z"/>
				</g>
			</g>
		</g>
		<g>
			<text transform="matrix(1 0 0 1 1197.8259 -312.2211)" class="st0 st20 st21">Revert</text>
		</g>
	</g>
	<g>
		<text transform="matrix(1 0 0 1 1279.4163 -781.5519)" class="st0 st17 st18">Preferences</text>
	</g>
	<g>
		<g>
			<g>
				<circle class="st3" cx="1414.6" cy="-833.9" r="7.4"/>
				<g>
					<line class="st4" x1="1410.9" y1="-837.6" x2="1418.4" y2="-830.1"/>
					<line class="st4" x1="1410.9" y1="-830.1" x2="1418.4" y2="-837.6"/>
				</g>
			</g>
		</g>
		<g>
			<circle class="st5" cx="1389.6" cy="-833.9" r="7.4"/>
			<g>
				<g>
					<path class="st1" d="M1393.6-832.4h-8c-0.3,0-0.5-0.2-0.5-0.5s0.2-0.5,0.5-0.5h8c0.3,0,0.5,0.2,0.5,0.5
						S1393.8-832.4,1393.6-832.4z"/>
				</g>
			</g>
		</g>
	</g>
	<g>
		<g>
			<g>
				<g>
					<path class="st7" d="M888.4-703.4h-92.3c-5,0-9.1-4.1-9.1-9.1v-1.8c0-5,4.1-9.1,9.1-9.1h92.3c5,0,9.1,4.1,9.1,9.1v1.8
						C897.5-707.5,893.4-703.4,888.4-703.4z"/>
				</g>
			</g>
			<g>
				<text transform="matrix(1 0 0 1 794.8608 -709.8951)" class="st6 st20 st21">World Description</text>
			</g>
		</g>
		<g>
			<g>
				<g>
					<path class="st3" d="M1005.1-703.4h-92.3c-5,0-9.1-4.1-9.1-9.1v-1.8c0-5,4.1-9.1,9.1-9.1h92.3c5,0,9.1,4.1,9.1,9.1v1.8
						C1014.2-707.5,1010.1-703.4,1005.1-703.4z"/>
				</g>
			</g>
			<g>
				<text transform="matrix(1 0 0 1 918.6472 -709.8945)" class="st0 st20 st21">World Versions</text>
			</g>
		</g>
		<g>
			<g>
				<g>
					<path class="st7" d="M1121.8-703.4h-92.3c-5,0-9.1-4.1-9.1-9.1v-1.8c0-5,4.1-9.1,9.1-9.1h92.3c5,0,9.1,4.1,9.1,9.1v1.8
						C1130.9-707.5,1126.8-703.4,1121.8-703.4z"/>
				</g>
			</g>
			<g>
				<text transform="matrix(1 0 0 1 1035.4526 -709.8951)" class="st6 st20 st21">Activity History</text>
			</g>
		</g>
	</g>
	<g>
		<path class="st7" d="M1381.9-346.3h-585c-5.5,0-9.9-4.5-9.9-9.9V-652c0-5.5,4.5-9.9,9.9-9.9h585c5.5,0,9.9,4.5,9.9,9.9v295.8
			C1391.8-350.7,1387.4-346.3,1381.9-346.3z"/>
		<g>
			<g>
				<g>
					<g>
						<g>
							<path class="st0" d="M1376.4-358.9v-290.5c0-2,1.7-3.7,3.7-3.7h0.5c2,0,3.7,1.7,3.7,3.7v290.5c0,2-1.7,3.7-3.7,3.7h-0.5
								C1378.1-355.2,1376.4-356.8,1376.4-358.9z"/>
						</g>
					</g>
				</g>
			</g>
			<g>
				<g>
					<g>
						<path class="st5" d="M1377.5-584.1v-43.5c0-1.5,1.2-2.7,2.7-2.7h0.4c1.5,0,2.7,1.2,2.7,2.7v43.5c0,1.5-1.2,2.7-2.7,2.7h-0.4
							C1378.7-581.4,1377.5-582.6,1377.5-584.1z"/>
					</g>
				</g>
			</g>
		</g>
		<g>
			<g>
				<path class="st3" d="M1364.1-413.4H803.9c-5.1,0-9.3-4.2-9.3-9.3v-1.4c0-5.1,4.2-9.3,9.3-9.3h560.2c5.1,0,9.3,4.2,9.3,9.3v1.4
					C1373.4-417.6,1369.2-413.4,1364.1-413.4z"/>
			</g>
		</g>
		<g>
			<text transform="matrix(1 0 0 1 802.8713 -639.2458)"><tspan x="0" y="0" class="st6 st20 st21">Lorem -  15/05/14 09:39 am (ipsum dolorsit amet) </tspan><tspan x="0" y="20" class="st6 st20 st21">Aliquam tincidunt - 15/05/14 09:39 am (ipsum dolorsit amet) </tspan><tspan x="0" y="40" class="st6 st20 st21">Vestibulum - 15/05/14 09:39 am (ipsum dolorsit amet) </tspan><tspan x="0" y="60" class="st6 st20 st21">Nunc dignissim risus - 15/05/14 09:39 am (ipsumamet) </tspan><tspan x="0" y="80" class="st6 st20 st21">Lorem -  15/05/14 09:39 am (ipsum dolorsit amet) </tspan><tspan x="0" y="100" class="st6 st20 st21">Aliquam tincidunt - 15/05/14 09:39 am (ipsum dolorsit amet) </tspan><tspan x="0" y="120" class="st6 st20 st21">Vestibulum - 15/05/14 09:39 am (ipsum dolorsit amet) </tspan><tspan x="0" y="140" class="st6 st20 st21">Nunc dignissim risus - 15/05/14 09:39 am (ipsumamet) </tspan><tspan x="0" y="160" class="st6 st20 st21">Lorem -  15/05/14 09:39 am (ipsum dolorsit amet) </tspan><tspan x="0" y="180" class="st6 st20 st21">Aliquam tincidunt - 15/05/14 09:39 am (ipsum dolorsit amet) </tspan><tspan x="0" y="200" class="st6 st20 st21">Vestibulum - 15/05/14 09:39 am (ipsum dolorsit amet) </tspan><tspan x="0" y="220" class="st0 st20 st21">Nunc dignissim risus - 15/05/14 09:39 am (ipsumamet) </tspan><tspan x="0" y="240" class="st6 st20 st21">Lorem -  15/05/14 09:39 am (ipsum dolorsit amet) </tspan><tspan x="0" y="260" class="st6 st20 st21">Aliquam tincidunt - 15/05/14 09:39 am (ipsum dolorsit amet) </tspan><tspan x="0" y="280" class="st6 st20 st21">Vestibulum - 15/05/14 09:39 am (ipsum dolorsit amet)</tspan></text>
		</g>
	</g>
</g>
<g>
	<path id="bck_5_" class="st1" d="M1419.7-1233.7H751c-8.6,0-15.6-7.1-15.6-15.9v-568.2c0-8.8,7-15.9,15.6-15.9h668.7
		c8.6,0,15.6,7.1,15.6,15.9v568.2C1435.4-1240.8,1428.4-1233.7,1419.7-1233.7z"/>
	<g>
		<path class="st2" d="M1199.2-1739.5v-35.7c0-6.2,5-11.2,11.1-11.2h206c6.4,0,11.6,5.2,11.6,11.7v520.3c0,6.4-5.2,12.7-11.6,12.7
			H754.4c-6.4,0-11.6-6.3-11.6-12.7v-474.7c0-6.3,5-10.3,11.2-10.3H1199.2z"/>
		<path class="st2" d="M1199-1739.5v-35.7c0-6.2-5-11.2-11.1-11.2H982.7c-6.4,0-11.6,5.2-11.6,11.7v35.3H753.5
			c-5.9,0-10.7,4.8-10.7,10.7v475.5c0,6.4,5.2,11.7,11.6,11.7h661.9c6.4,0,11.6-5.2,11.6-11.7v-474.9c0-6.3-5-11.3-11.2-11.3H1199z"
			/>
		<path class="st0" d="M971.1-1739.5v-35.7c0-6.2-5-11.2-11.1-11.2H754.4c-6.4,0-11.6,5.2-11.6,11.7v521.5c0,6.4,5.2,11.7,11.6,11.7
			h661.9c6.4,0,11.6-5.2,11.6-11.7v-474.9c0-6.3-5-11.3-11.2-11.3H971.1z"/>
	</g>
	<g>
		<text transform="matrix(1 0 0 1 783.406 -1804.8962)" class="st0 st19" style="font-size:16px;">Settings</text>
		<g>
			<path class="st5" d="M765-1822.2c-1.4,0-2.7,0.2-4,0.7c-2.9,1.1-5.2,3.3-6.4,6.1c-1.2,2.8-1.3,5.9-0.2,8.8
				c1.7,4.5,6,7.5,10.8,7.5c1.4,0,2.7-0.2,4-0.7c2.9-1.1,5.2-3.3,6.4-6.1c1.2-2.8,1.3-5.9,0.2-8.8
				C774.1-1819.2,769.8-1822.2,765-1822.2z"/>
		</g>
	</g>
	<g>
		<text transform="matrix(1 0 0 1 829.3792 -1766.7327)"><tspan x="0" y="0" class="st6 st19 st18">Account </tspan><tspan x="-15.1" y="16.8" class="st6 st19 st18">Configuration</tspan></text>
	</g>
	<g>
		<text transform="matrix(1 0 0 1 1276.8831 -1758.3201)" class="st0 st17 st18">Preferences</text>
	</g>
	<g>
		<text transform="matrix(1 0 0 1 1065.5754 -1766.7327)"><tspan x="0" y="0" class="st0 st17 st18">World </tspan><tspan x="-22" y="16.8" class="st0 st17 st18">Configuration</tspan></text>
	</g>
	<g>
		<g>
			<g>
				<path class="st7" d="M1375.1-1639.9h-430c-5.5,0-10-4.5-10-10l0,0c0-5.5,4.5-10,10-10h430c5.5,0,10,4.5,10,10l0,0
					C1385.1-1644.4,1380.6-1639.9,1375.1-1639.9z"/>
			</g>
		</g>
	</g>
	<g>
		<g>
			<g>
				<path class="st7" d="M1375.1-1585.4h-430c-5.5,0-10-4.5-10-10l0,0c0-5.5,4.5-10,10-10h430c5.5,0,10,4.5,10,10l0,0
					C1385.1-1589.9,1380.6-1585.4,1375.1-1585.4z"/>
			</g>
		</g>
	</g>
	<g>
		<text transform="matrix(1 0 0 1 946.0776 -1645.7703)" class="st6 st20 st21">Camila_Serrano</text>
	</g>
	<g>
		<text transform="matrix(1 0 0 1 946.0776 -1591.8845)" class="st6 st20 st21">camilasrueda@gmail.com</text>
	</g>
	<g>
		<g>
			<g>
				<path class="st7" d="M1373.9-1282.2H1327c-5,0-9.1-4.1-9.1-9.1v-1.8c0-5,4.1-9.1,9.1-9.1h46.8c5,0,9.1,4.1,9.1,9.1v1.8
					C1383-1286.3,1378.9-1282.2,1373.9-1282.2z"/>
			</g>
		</g>
		<g>
			<text transform="matrix(1 0 0 1 1336.6179 -1288.04)" class="st5 st20 st21">Save</text>
		</g>
	</g>
	<g>
		<g>
			<g>
				<circle class="st15" cx="1374.9" cy="-1595.4" r="9.6"/>
			</g>
		</g>
		<g>
			<g>
				<path class="st0" d="M1378.9-1597.5c0-0.2-0.1-0.4-0.3-0.6c-0.3-0.3-0.9-0.3-1.2,0l-3.4,3.4c-0.1,0.1-0.4,0.1-0.5,0l-1.3-1.3
					c-0.2-0.2-0.4-0.3-0.6-0.3s-0.4,0.1-0.6,0.3c-0.3,0.3-0.3,0.9,0,1.2l2.1,2.1c0.3,0.3,0.9,0.3,1.2,0l4.2-4.2
					C1378.8-1597.1,1378.9-1597.3,1378.9-1597.5z"/>
			</g>
		</g>
	</g>
	<g>
		<g>
			<g>
				<circle class="st16" cx="1374.9" cy="-1649.9" r="9.6"/>
			</g>
		</g>
		<g>
			<g>
				<path class="st0" d="M1370.5-1650.7c1.7,1.7,3.5,3.5,5.2,5.2c2.3,2.3,5.8-1.3,3.5-3.5c-1.7-1.7-3.5-3.5-5.2-5.2
					C1371.8-1656.5,1368.3-1653,1370.5-1650.7L1370.5-1650.7z"/>
			</g>
		</g>
		<g>
			<g>
				<path class="st0" d="M1374.1-1645.5c1.7-1.7,3.5-3.5,5.2-5.2c2.3-2.3-1.3-5.8-3.5-3.5c-1.7,1.7-3.5,3.5-5.2,5.2
					C1368.3-1646.8,1371.8-1643.2,1374.1-1645.5L1374.1-1645.5z"/>
			</g>
		</g>
	</g>
	<g>
		<text transform="matrix(1 0 0 1 946.0779 -1625.5237)" class="st6 st20" style="font-size:10px;">*username already exists</text>
	</g>
	<path class="st1" d="M765-1803.8c-0.7,0-1.3-0.4-1.6-1.1c-0.1-0.2-0.2-0.4-0.4-0.6c-0.1-0.1-0.2-0.1-0.4-0.1c-0.2,0-0.4,0-0.6,0.1
		c-0.2,0.1-0.5,0.2-0.7,0.2c-0.8,0-1.6-0.5-1.7-1.5c0-0.3,0-0.6,0.1-0.8c0.1-0.2,0.1-0.4,0.1-0.7c0-0.1-0.1-0.3-0.2-0.4
		c-0.1-0.1-0.3-0.3-0.5-0.3c-0.6-0.2-1-0.7-1-1.4c-0.1-0.7,0.4-1.4,1-1.7c0.3-0.1,0.5-0.3,0.7-0.5c0-0.1,0.1-0.1,0.1-0.2
		c0-0.3,0-0.5-0.1-0.7c-0.2-0.5-0.2-1.1,0.1-1.5c0.3-0.5,0.7-0.8,1.3-0.8c0.3,0,0.6,0,0.9,0.1c0.2,0.1,0.5,0.1,0.7,0.1
		c0.1,0,0.2,0,0.4-0.2c0.1-0.1,0.2-0.3,0.3-0.5c0.3-0.6,0.9-1.1,1.6-1.1c0.7,0,1.3,0.4,1.6,1.1c0.1,0.2,0.2,0.4,0.4,0.6
		c0.1,0.1,0.2,0.1,0.4,0.1c0.2,0,0.4,0,0.6-0.1c0.6-0.3,1.4-0.1,1.9,0.3c0.5,0.5,0.6,1.2,0.4,1.9c-0.1,0.2-0.1,0.4-0.1,0.6
		c0,0.1,0,0.3,0.3,0.5c0.1,0.1,0.3,0.2,0.5,0.3c0.6,0.3,1.1,0.9,1.1,1.6c0,0.7-0.4,1.3-1.1,1.6c-0.2,0.1-0.4,0.2-0.6,0.4
		c-0.1,0.1-0.1,0.2-0.1,0.4c0,0.2,0,0.4,0.1,0.6c0.3,0.6,0.2,1.3-0.2,1.8c-0.3,0.4-0.8,0.6-1.3,0.6l0,0c-0.1,0-0.2,0-0.3,0
		c-0.2,0-0.3-0.1-0.4-0.1c0,0-0.1,0-0.1-0.1c-0.2-0.1-0.4-0.1-0.6-0.1c-0.1,0-0.2,0-0.3,0.2c-0.1,0.1-0.2,0.3-0.3,0.5
		C766.3-1804.2,765.6-1803.8,765-1803.8L765-1803.8z M762.6-1806.5c0.4,0,0.7,0.1,1,0.4c0.3,0.3,0.5,0.6,0.6,0.9
		c0.1,0.3,0.4,0.5,0.7,0.5v0.5l0-0.5c0.3,0,0.6-0.2,0.7-0.5c0.1-0.3,0.3-0.6,0.5-0.8c0.3-0.3,0.6-0.5,0.9-0.5c0.3,0,0.6,0,0.9,0.1
		c0.1,0,0.2,0.1,0.2,0.1c0.1,0,0.1,0.1,0.2,0.1c0.3,0.1,0.6,0,0.8-0.2c0.2-0.3,0.2-0.5,0.1-0.8c-0.1-0.3-0.2-0.6-0.2-0.9
		c0-0.4,0.1-0.8,0.4-1c0.3-0.3,0.6-0.5,0.9-0.6c0.3-0.1,0.5-0.4,0.5-0.7c0-0.3-0.2-0.6-0.5-0.7c-0.3-0.1-0.5-0.3-0.7-0.4
		c-0.4-0.3-0.6-0.8-0.6-1.3c0-0.3,0.1-0.7,0.2-0.9c0.1-0.3,0.1-0.6-0.1-0.8c-0.2-0.2-0.6-0.3-0.8-0.1c-0.3,0.1-0.6,0.2-1,0.2h0
		c-0.4,0-0.8-0.1-1-0.4c-0.3-0.2-0.5-0.6-0.6-0.9c-0.1-0.3-0.4-0.5-0.7-0.5c-0.3,0-0.6,0.2-0.7,0.5c-0.1,0.3-0.3,0.5-0.5,0.7
		c-0.2,0.2-0.5,0.5-1,0.5c-0.4,0-0.8,0-1.2-0.2c-0.1-0.1-0.3-0.1-0.4-0.1c-0.3,0-0.5,0.2-0.6,0.3c-0.1,0.2-0.1,0.5,0,0.7
		c0.2,0.4,0.2,0.8,0.2,1.2c0,0.3-0.1,0.5-0.2,0.7c-0.3,0.4-0.6,0.6-1.1,0.8c-0.3,0.1-0.5,0.5-0.4,0.7c0,0.3,0.2,0.5,0.5,0.7
		c0.3,0.1,0.6,0.3,0.8,0.5c0.3,0.3,0.5,0.7,0.5,1.1c0,0.4-0.1,0.7-0.2,1c-0.1,0.1-0.1,0.2-0.1,0.4c0.1,0.5,0.5,0.7,0.8,0.7
		c0.1,0,0.2,0,0.3-0.1C761.9-1806.4,762.3-1806.5,762.6-1806.5z M765-1807.8c-0.8,0-1.5-0.3-2-0.8c-0.5-0.5-0.8-1.2-0.8-2
		c0-1.5,1.3-2.8,2.8-2.8h0c0.8,0,1.5,0.3,2,0.8c0.5,0.5,0.8,1.2,0.8,2C767.8-1809.1,766.5-1807.8,765-1807.8z M765-1812.9v0.5
		c-1,0-1.9,0.8-1.9,1.9c0,0.5,0.2,1,0.5,1.3c0.4,0.4,0.8,0.5,1.3,0.6c1,0,1.9-0.8,1.9-1.9c0-0.5-0.2-1-0.5-1.3
		c-0.4-0.4-0.8-0.6-1.3-0.6L765-1812.9z"/>
	<g>
		<g>
			<text transform="matrix(1 0 0 1 853.0776 -1645.7703)" class="st6 st20 st18">Username</text>
		</g>
		<g>
			<text transform="matrix(1 0 0 1 853.0776 -1591.3003)" class="st6 st20 st18">Email</text>
		</g>
	</g>
	<circle class="st6" cx="811.4" cy="-1631.4" r="26.4"/>
	<g>
		<g>
			<g>
				<circle class="st3" cx="1410.8" cy="-1810.7" r="7.4"/>
				<g>
					<line class="st4" x1="1407.1" y1="-1814.3" x2="1414.6" y2="-1806.9"/>
					<line class="st4" x1="1407.1" y1="-1806.9" x2="1414.6" y2="-1814.3"/>
				</g>
			</g>
		</g>
		<g>
			<circle class="st5" cx="1385.8" cy="-1810.7" r="7.4"/>
			<g>
				<g>
					<path class="st1" d="M1389.7-1809.4h-8c-0.3,0-0.5-0.2-0.5-0.5s0.2-0.5,0.5-0.5h8c0.3,0,0.5,0.2,0.5,0.5
						S1390-1809.4,1389.7-1809.4z"/>
				</g>
			</g>
		</g>
	</g>
	<g>
		<g>
			<g>
				<g>
					<path class="st7" d="M1377.9-1451.5h-433c-5.5,0-10-4.5-10-10l0,0c0-5.5,4.5-10,10-10h433c5.5,0,10,4.5,10,10l0,0
						C1387.9-1456,1383.4-1451.5,1377.9-1451.5z"/>
				</g>
			</g>
		</g>
		<g>
			<g>
				<g>
					<path class="st7" d="M1377.9-1417.1h-433c-5.5,0-10-4.5-10-10v0c0-5.5,4.5-10,10-10h433c5.5,0,10,4.5,10,10v0
						C1387.9-1421.6,1383.4-1417.1,1377.9-1417.1z"/>
				</g>
			</g>
		</g>
		<g>
			<g>
				<g>
					<path class="st7" d="M1377.9-1382.6h-433c-5.5,0-10-4.5-10-10l0,0c0-5.5,4.5-10,10-10h433c5.5,0,10,4.5,10,10l0,0
						C1387.9-1387.1,1383.4-1382.6,1377.9-1382.6z"/>
				</g>
			</g>
		</g>
		<g>
			<text transform="matrix(1 0 0 1 782.8663 -1519.2246)" class="st3 st19 st18">Update Password</text>
		</g>
		<g>
			<text transform="matrix(1 0 0 1 782.866 -1457.4338)" class="st6 st20 st18">Current Password</text>
		</g>
		<g>
			<text transform="matrix(1 0 0 1 782.866 -1422.9629)" class="st6 st20 st18">New Password</text>
		</g>
		<g>
			<text transform="matrix(1 0 0 1 782.866 -1388.4912)" class="st6 st20 st18">Retype </text>
		</g>
		<line class="st8" x1="783.1" y1="-1508.4" x2="1386.1" y2="-1508.4"/>
	</g>
</g>
<g>
	<path id="bck_1_" class="st1" d="M2130.7-1233.7H1462c-8.6,0-15.6-7.1-15.6-15.9v-568.2c0-8.8,7-15.9,15.6-15.9h668.7
		c8.6,0,15.6,7.1,15.6,15.9v568.2C2146.4-1240.8,2139.4-1233.7,2130.7-1233.7z"/>
	<g>
		<path class="st2" d="M1910.2-1739.5v-35.7c0-6.2,5-11.2,11.1-11.2h206c6.4,0,11.6,5.2,11.6,11.7v520.3c0,6.4-5.2,12.7-11.6,12.7
			h-661.9c-6.4,0-11.6-6.3-11.6-12.7v-474.7c0-6.3,5-10.3,11.2-10.3H1910.2z"/>
		<path class="st2" d="M1910-1739.5v-35.7c0-6.2-5-11.2-11.1-11.2h-205.1c-6.4,0-11.6,5.2-11.6,11.7v35.3h-217.6
			c-5.9,0-10.7,4.8-10.7,10.7v475.5c0,6.4,5.2,11.7,11.6,11.7h661.9c6.4,0,11.6-5.2,11.6-11.7v-474.9c0-6.3-5-11.3-11.2-11.3H1910z"
			/>
		<path class="st0" d="M1682.1-1739.5v-35.7c0-6.2-5-11.2-11.1-11.2h-205.5c-6.4,0-11.6,5.2-11.6,11.7v521.5
			c0,6.4,5.2,11.7,11.6,11.7h661.9c6.4,0,11.6-5.2,11.6-11.7v-474.9c0-6.3-5-11.3-11.2-11.3H1682.1z"/>
	</g>
	<g>
		<text transform="matrix(1 0 0 1 1494.406 -1804.8962)" class="st0 st19" style="font-size:16px;">Settings</text>
		<g>
			<path class="st5" d="M1476-1822.2c-1.4,0-2.7,0.2-4,0.7c-2.9,1.1-5.2,3.3-6.4,6.1c-1.2,2.8-1.3,5.9-0.2,8.8
				c1.7,4.5,6,7.5,10.8,7.5c1.4,0,2.7-0.2,4-0.7c2.9-1.1,5.2-3.3,6.4-6.1c1.2-2.8,1.3-5.9,0.2-8.8
				C1485.1-1819.2,1480.8-1822.2,1476-1822.2z"/>
		</g>
	</g>
	<g>
		<text transform="matrix(1 0 0 1 1540.3792 -1766.7327)"><tspan x="0" y="0" class="st6 st19 st18">Account </tspan><tspan x="-15.1" y="16.8" class="st6 st19 st18">Configuration</tspan></text>
	</g>
	<g>
		<text transform="matrix(1 0 0 1 1987.8831 -1758.3201)" class="st0 st17 st18">Preferences</text>
	</g>
	<g>
		<text transform="matrix(1 0 0 1 1776.5754 -1766.7327)"><tspan x="0" y="0" class="st0 st17 st18">World </tspan><tspan x="-22" y="16.8" class="st0 st17 st18">Configuration</tspan></text>
	</g>
	<g>
		<g>
			<g>
				<path class="st7" d="M2086.1-1639.9h-430c-5.5,0-10-4.5-10-10l0,0c0-5.5,4.5-10,10-10h430c5.5,0,10,4.5,10,10l0,0
					C2096.1-1644.4,2091.6-1639.9,2086.1-1639.9z"/>
			</g>
		</g>
	</g>
	<g>
		<g>
			<g>
				<path class="st7" d="M2086.1-1605.4h-430c-5.5,0-10-4.5-10-10l0,0c0-5.5,4.5-10,10-10h430c5.5,0,10,4.5,10,10l0,0
					C2096.1-1609.9,2091.6-1605.4,2086.1-1605.4z"/>
			</g>
		</g>
	</g>
	<g>
		<text transform="matrix(1 0 0 1 1657.0776 -1645.7703)" class="st6 st20 st21">CamilaSerrano</text>
	</g>
	<g>
		<text transform="matrix(1 0 0 1 1657.0776 -1611.8844)" class="st6 st20 st21">camilasrueda@gmail.com</text>
	</g>
	<g>
		<g>
			<g>
				<path class="st1" d="M2084.9-1282.2H2038c-5,0-9.1-4.1-9.1-9.1v-1.8c0-5,4.1-9.1,9.1-9.1h46.8c5,0,9.1,4.1,9.1,9.1v1.8
					C2094-1286.3,2089.9-1282.2,2084.9-1282.2z"/>
			</g>
		</g>
		<g>
			<text transform="matrix(1 0 0 1 2047.6179 -1288.04)" class="st0 st20 st21">Save</text>
		</g>
	</g>
	<g>
		<g>
			<g>
				<circle class="st15" cx="2085.9" cy="-1615.4" r="9.6"/>
			</g>
		</g>
		<g>
			<g>
				<path class="st0" d="M2089.9-1617.5c0-0.2-0.1-0.4-0.3-0.6c-0.3-0.3-0.9-0.3-1.2,0l-3.4,3.4c-0.1,0.1-0.4,0.1-0.5,0l-1.3-1.3
					c-0.2-0.2-0.4-0.3-0.6-0.3s-0.4,0.1-0.6,0.3c-0.3,0.3-0.3,0.9,0,1.2l2.1,2.1c0.3,0.3,0.9,0.3,1.2,0l4.2-4.2
					C2089.8-1617.1,2089.9-1617.3,2089.9-1617.5z"/>
			</g>
		</g>
	</g>
	<g>
		<g>
			<g>
				<circle class="st15" cx="2085.9" cy="-1649.9" r="9.6"/>
			</g>
		</g>
		<g>
			<g>
				<path class="st0" d="M2089.9-1652c0-0.2-0.1-0.4-0.3-0.6c-0.3-0.3-0.9-0.3-1.2,0l-3.4,3.4c-0.1,0.1-0.4,0.1-0.5,0l-1.3-1.3
					c-0.2-0.2-0.4-0.3-0.6-0.3s-0.4,0.1-0.6,0.3c-0.3,0.3-0.3,0.9,0,1.2l2.1,2.1c0.3,0.3,0.9,0.3,1.2,0l4.2-4.2
					C2089.8-1651.6,2089.9-1651.8,2089.9-1652z"/>
			</g>
		</g>
	</g>
	<path class="st1" d="M1476-1803.8c-0.7,0-1.3-0.4-1.6-1.1c-0.1-0.2-0.2-0.4-0.4-0.6c-0.1-0.1-0.2-0.1-0.4-0.1c-0.2,0-0.4,0-0.6,0.1
		c-0.2,0.1-0.5,0.2-0.7,0.2c-0.8,0-1.6-0.5-1.7-1.5c0-0.3,0-0.6,0.1-0.8c0.1-0.2,0.1-0.4,0.1-0.7c0-0.1-0.1-0.3-0.2-0.4
		c-0.1-0.1-0.3-0.3-0.5-0.3c-0.6-0.2-1-0.7-1-1.4c-0.1-0.7,0.4-1.4,1-1.7c0.3-0.1,0.5-0.3,0.7-0.5c0-0.1,0.1-0.1,0.1-0.2
		c0-0.3,0-0.5-0.1-0.7c-0.2-0.5-0.2-1.1,0.1-1.5c0.3-0.5,0.7-0.8,1.3-0.8c0.3,0,0.6,0,0.9,0.1c0.2,0.1,0.5,0.1,0.7,0.1
		c0.1,0,0.2,0,0.4-0.2c0.1-0.1,0.2-0.3,0.3-0.5c0.3-0.6,0.9-1.1,1.6-1.1c0.7,0,1.3,0.4,1.6,1.1c0.1,0.2,0.2,0.4,0.4,0.6
		c0.1,0.1,0.2,0.1,0.4,0.1c0.2,0,0.4,0,0.6-0.1c0.6-0.3,1.4-0.1,1.9,0.3c0.5,0.5,0.6,1.2,0.4,1.9c-0.1,0.2-0.1,0.4-0.1,0.6
		c0,0.1,0,0.3,0.3,0.5c0.1,0.1,0.3,0.2,0.5,0.3c0.6,0.3,1.1,0.9,1.1,1.6c0,0.7-0.4,1.3-1.1,1.6c-0.2,0.1-0.4,0.2-0.6,0.4
		c-0.1,0.1-0.1,0.2-0.1,0.4c0,0.2,0,0.4,0.1,0.6c0.3,0.6,0.2,1.3-0.2,1.8c-0.3,0.4-0.8,0.6-1.3,0.6l0,0c-0.1,0-0.2,0-0.3,0
		c-0.2,0-0.3-0.1-0.4-0.1c0,0-0.1,0-0.1-0.1c-0.2-0.1-0.4-0.1-0.6-0.1c-0.1,0-0.2,0-0.3,0.2c-0.1,0.1-0.2,0.3-0.3,0.5
		C1477.3-1804.2,1476.6-1803.8,1476-1803.8L1476-1803.8z M1473.6-1806.5c0.4,0,0.7,0.1,1,0.4c0.3,0.3,0.5,0.6,0.6,0.9
		c0.1,0.3,0.4,0.5,0.7,0.5v0.5l0-0.5c0.3,0,0.6-0.2,0.7-0.5c0.1-0.3,0.3-0.6,0.5-0.8c0.3-0.3,0.6-0.5,0.9-0.5c0.3,0,0.6,0,0.9,0.1
		c0.1,0,0.2,0.1,0.2,0.1c0.1,0,0.1,0.1,0.2,0.1c0.3,0.1,0.6,0,0.8-0.2c0.2-0.3,0.2-0.5,0.1-0.8c-0.1-0.3-0.2-0.6-0.2-0.9
		c0-0.4,0.1-0.8,0.4-1c0.3-0.3,0.6-0.5,0.9-0.6c0.3-0.1,0.5-0.4,0.5-0.7c0-0.3-0.2-0.6-0.5-0.7c-0.3-0.1-0.5-0.3-0.7-0.4
		c-0.4-0.3-0.6-0.8-0.6-1.3c0-0.3,0.1-0.7,0.2-0.9c0.1-0.3,0.1-0.6-0.2-0.8c-0.2-0.2-0.6-0.3-0.8-0.1c-0.3,0.1-0.6,0.2-1,0.2h0
		c-0.4,0-0.8-0.1-1-0.4c-0.3-0.2-0.5-0.6-0.6-0.9c-0.1-0.3-0.4-0.5-0.7-0.5c-0.3,0-0.6,0.2-0.7,0.5c-0.1,0.3-0.3,0.5-0.5,0.7
		c-0.2,0.2-0.5,0.5-1,0.5c-0.4,0-0.8,0-1.2-0.2c-0.1-0.1-0.3-0.1-0.4-0.1c-0.3,0-0.5,0.2-0.6,0.3c-0.1,0.2-0.1,0.5,0,0.7
		c0.2,0.4,0.2,0.8,0.2,1.2c0,0.3-0.1,0.5-0.2,0.7c-0.3,0.4-0.6,0.6-1.1,0.8c-0.3,0.1-0.5,0.5-0.4,0.7c0,0.3,0.2,0.5,0.5,0.7
		c0.3,0.1,0.6,0.3,0.8,0.5c0.3,0.3,0.5,0.7,0.5,1.1c0,0.4-0.1,0.7-0.2,1c-0.1,0.1-0.1,0.2-0.1,0.4c0.1,0.5,0.5,0.7,0.8,0.7
		c0.1,0,0.2,0,0.3-0.1C1472.9-1806.4,1473.3-1806.5,1473.6-1806.5z M1476-1807.8c-0.8,0-1.5-0.3-2-0.8c-0.5-0.5-0.8-1.2-0.8-2
		c0-1.5,1.3-2.8,2.8-2.8h0c0.8,0,1.5,0.3,2,0.8c0.5,0.5,0.8,1.2,0.8,2C1478.8-1809.1,1477.5-1807.8,1476-1807.8z M1476-1812.9v0.5
		c-1,0-1.9,0.8-1.9,1.9c0,0.5,0.2,1,0.5,1.3c0.4,0.4,0.8,0.5,1.3,0.6c1,0,1.9-0.8,1.9-1.9c0-0.5-0.2-1-0.5-1.3
		c-0.4-0.4-0.8-0.6-1.3-0.6L1476-1812.9z"/>
	<g>
		<g>
			<text transform="matrix(1 0 0 1 1564.0776 -1645.7703)" class="st6 st20 st18">Username</text>
		</g>
		<g>
			<text transform="matrix(1 0 0 1 1564.0776 -1611.2993)" class="st6 st20 st18">Email</text>
		</g>
	</g>
	<circle class="st6" cx="1522.4" cy="-1631.4" r="26.4"/>
	<g>
		<g>
			<g>
				<circle class="st3" cx="2121.8" cy="-1810.7" r="7.4"/>
				<g>
					<line class="st4" x1="2118.1" y1="-1814.3" x2="2125.6" y2="-1806.9"/>
					<line class="st4" x1="2118.1" y1="-1806.9" x2="2125.6" y2="-1814.3"/>
				</g>
			</g>
		</g>
		<g>
			<circle class="st5" cx="2096.8" cy="-1810.7" r="7.4"/>
			<g>
				<g>
					<path class="st1" d="M2100.7-1809.4h-8c-0.3,0-0.5-0.2-0.5-0.5s0.2-0.5,0.5-0.5h8c0.3,0,0.5,0.2,0.5,0.5
						S2101-1809.4,2100.7-1809.4z"/>
				</g>
			</g>
		</g>
	</g>
	<g>
		<g>
			<g>
				<g>
					<path class="st7" d="M2088.9-1451.5h-433c-5.5,0-10-4.5-10-10l0,0c0-5.5,4.5-10,10-10h433c5.5,0,10,4.5,10,10l0,0
						C2098.9-1456,2094.4-1451.5,2088.9-1451.5z"/>
				</g>
			</g>
		</g>
		<g>
			<g>
				<g>
					<path class="st7" d="M2088.9-1417.1h-433c-5.5,0-10-4.5-10-10v0c0-5.5,4.5-10,10-10h433c5.5,0,10,4.5,10,10v0
						C2098.9-1421.6,2094.4-1417.1,2088.9-1417.1z"/>
				</g>
			</g>
		</g>
		<g>
			<g>
				<g>
					<path class="st7" d="M2088.9-1382.6h-433c-5.5,0-10-4.5-10-10l0,0c0-5.5,4.5-10,10-10h433c5.5,0,10,4.5,10,10l0,0
						C2098.9-1387.1,2094.4-1382.6,2088.9-1382.6z"/>
				</g>
			</g>
		</g>
		<g>
			<text transform="matrix(1 0 0 1 1493.8662 -1519.2246)" class="st3 st19 st18">Update Password</text>
		</g>
		<g>
			<text transform="matrix(1 0 0 1 1493.866 -1457.4338)" class="st6 st20 st18">Current Password</text>
		</g>
		<g>
			<text transform="matrix(1 0 0 1 1493.866 -1422.9629)" class="st6 st20 st18">New Password</text>
		</g>
		<g>
			<text transform="matrix(1 0 0 1 1493.866 -1388.4912)" class="st6 st20 st18">Retype </text>
		</g>
		<line class="st8" x1="1494.1" y1="-1508.4" x2="2097.1" y2="-1508.4"/>
	</g>
</g>
<g>
	<path id="bck_6_" class="st1" d="M707.9,655.5H39.2c-8.6,0-15.6-7.1-15.6-15.9V71.4c0-8.8,7-15.9,15.6-15.9h668.7
		c8.6,0,15.6,7.1,15.6,15.9v568.2C723.6,648.4,716.6,655.5,707.9,655.5z"/>
	<g>
		<path class="st2" d="M259.3,149.6v-35.7c0-6.2-5-11.2-11.1-11.2H42.7c-6.4,0-11.6,5.2-11.6,11.7v521.5c0,6.4,5.2,11.7,11.6,11.7
			h661.9c6.4,0,11.6-5.2,11.6-11.7V161c0-6.3-5-11.3-11.2-11.3H259.3z"/>
		<path class="st2" d="M487.2,149.6v-35.7c0-6.2-5-11.2-11.1-11.2H270.9c-6.4,0-11.6,5.2-11.6,11.7v35.3H41.8
			c-5.9,0-10.7,4.8-10.7,10.7v475.5c0,6.4,5.2,11.7,11.6,11.7h661.9c6.4,0,11.6-5.2,11.6-11.7V161c0-6.3-5-11.3-11.2-11.3H487.2z"/>
		<path class="st0" d="M487.4,149.6v-35.7c0-6.2,5-11.2,11.1-11.2h206c6.4,0,11.6,5.2,11.6,11.7v520.3c0,6.4-5.2,12.7-11.6,12.7
			H42.7c-6.4,0-11.6-6.3-11.6-12.7V160c0-6.3,5-10.3,11.2-10.3H487.4z"/>
	</g>
	<g>
		<text transform="matrix(1 0 0 1 118.1873 123.0355)"><tspan x="0" y="0" class="st0 st17 st18">Account </tspan><tspan x="-14.3" y="16.8" class="st0 st17 st18">Configuration</tspan></text>
	</g>
	<g>
		<text transform="matrix(1 0 0 1 353.7922 123.0355)"><tspan x="0" y="0" class="st0 st17 st18">World </tspan><tspan x="-22" y="16.8" class="st0 st17 st18">Configuration</tspan></text>
	</g>
	<path class="st7" d="M666.3,584h-364c-5.5,0-9.9-4.5-9.9-9.9V200.6c0-5.5,4.5-9.9,9.9-9.9h364c5.5,0,9.9,4.5,9.9,9.9v373.5
		C676.2,579.6,671.8,584,666.3,584z"/>
	<g>
		<text transform="matrix(1 0 0 1 563.8064 131.4481)" class="st6 st19 st18">Preferences</text>
	</g>
	<g>
		<g>
			<g>
				<g>
					<path class="st7" d="M252.7,580.4V194.3c0-2,1.7-3.7,3.7-3.7h0.6c2,0,3.7,1.7,3.7,3.7v386.1c0,2-1.7,3.7-3.7,3.7h-0.6
						C254.3,584,252.7,582.4,252.7,580.4z"/>
				</g>
			</g>
		</g>
		<g>
			<g>
				<g>
					<path class="st5" d="M253.7,259.6v-43.5c0-1.5,1.2-2.7,2.7-2.7h0.4c1.5,0,2.7,1.2,2.7,2.7v43.5c0,1.5-1.2,2.7-2.7,2.7h-0.4
						C254.9,262.3,253.7,261.1,253.7,259.6z"/>
				</g>
			</g>
		</g>
	</g>
	<g>
		<g>
			<g>
				<g>
					<g>
						<path class="st0" d="M303.6,570H665c2,0,3.7,1.7,3.7,3.7v0.6c0,2-1.7,3.7-3.7,3.7H303.6c-2,0-3.7-1.7-3.7-3.7v-0.6
							C299.9,571.6,301.5,570,303.6,570z"/>
					</g>
				</g>
			</g>
		</g>
		<g>
			<g>
				<g>
					<path class="st5" d="M607.7,571h43.5c1.5,0,2.7,1.2,2.7,2.7v0.4c0,1.5-1.2,2.7-2.7,2.7h-43.5c-1.5,0-2.7-1.2-2.7-2.7v-0.4
						C605,572.3,606.3,571,607.7,571z"/>
				</g>
			</g>
		</g>
	</g>
	<text transform="matrix(1 0 0 1 304.7507 213.8775)" class="st6 st20 st21">codeSearchGrepExclusion: [ipsum dolosum dolorsum drsit amet]...</text>
	<g>
		<g>
			<path class="st1" d="M92.1,597.1c1.2,6.2-4.2,11.6-10.4,10.4c-3.5-0.7-6.3-3.5-6.9-6.9c-1.2-6.2,4.2-11.6,10.4-10.4
				C88.6,590.8,91.4,593.6,92.1,597.1z"/>
			<g>
				<path class="st0" d="M83.6,604.1c2.6,0,4.8-2.2,4.8-4.8c0-0.3-0.3-0.6-0.6-0.6c-0.3,0-0.6,0.3-0.6,0.6c0,2-1.6,3.6-3.6,3.6
					c-2,0-3.6-1.6-3.6-3.6c0-1.9,1.5-3.4,3.3-3.6l0.8-0.1l-1.1,1.1c-0.1,0.1-0.2,0.3-0.2,0.4c0,0.2,0.1,0.3,0.2,0.4
					c0.2,0.2,0.6,0.2,0.8,0l2-2c0.1-0.1,0.2-0.3,0.2-0.4c0-0.2-0.1-0.3-0.2-0.4l-2-2c-0.1-0.1-0.3-0.2-0.4-0.2
					c-0.2,0-0.3,0.1-0.4,0.2c-0.1,0.1-0.2,0.3-0.2,0.4c0,0.2,0.1,0.3,0.2,0.4l0.9,0.9l-0.7,0.1c-2.5,0.2-4.4,2.3-4.4,4.8
					C78.8,601.9,80.9,604.1,83.6,604.1z"/>
			</g>
		</g>
	</g>
	<g>
		<g>
			<path class="st3" d="M224.4,387.1H75.2c-5.1,0-9.3-4.2-9.3-9.3v-1.4c0-5.1,4.2-9.3,9.3-9.3h149.2c5.1,0,9.3,4.2,9.3,9.3v1.4
				C233.7,383,229.5,387.1,224.4,387.1z"/>
		</g>
	</g>
	<g>
		<text transform="matrix(1 0 0 1 71.2307 200.8775)"><tspan x="0" y="0" class="st6 st20 st21">*Lorem ipsum dolorsit amet</tspan><tspan x="0" y="20" class="st6 st20 st21">*Aliquampsum dolorsit </tspan><tspan x="0" y="40" class="st6 st20 st21">*Vestibulum -psum dolorsit</tspan><tspan x="0" y="60" class="st6 st20 st21">Lorem ipsum dolorsit amet</tspan><tspan x="0" y="80" class="st6 st20 st21">Aliquampsum dolorsit </tspan><tspan x="0" y="100" class="st6 st20 st21">Vestibulum -psum dolorsit </tspan><tspan x="0" y="120" class="st6 st20 st21">Lorem ipsum dolorsit amet</tspan><tspan x="0" y="140" class="st6 st20 st21">Aliquampsum dolorsit </tspan><tspan x="0" y="160" class="st6 st20 st21">Vestibulum -psum dolorsit</tspan><tspan x="0" y="180" class="st0 st20 st21">Lorem ipsum dolorsit amet</tspan><tspan x="0" y="200" class="st6 st20 st21">Aliquampsum dolorsit </tspan><tspan x="0" y="220" class="st6 st20 st21">Vestibulum -psum dolorsit </tspan><tspan x="0" y="240" class="st6 st20 st21">Lorem ipsum dolorsit amet</tspan><tspan x="0" y="260" class="st6 st20 st21">Aliquampsum dolorsit </tspan><tspan x="0" y="280" class="st6 st20 st21">Vestibulum -psum dolorsit</tspan><tspan x="0" y="300" class="st6 st20 st21">Lorem ipsum dolorsit amet</tspan><tspan x="0" y="320" class="st6 st20 st21">Aliquampsum dolorsit </tspan><tspan x="0" y="340" class="st6 st20 st21">Vestibulum -psum dolorsit </tspan><tspan x="0" y="360" class="st6 st20 st21">Aliquampsum dolorsit </tspan><tspan x="0" y="380" class="st6 st20 st21">Vestibulum -psum dolorsit </tspan></text>
	</g>
	<g>
		<g>
			<text transform="matrix(1 0 0 1 71.6229 84.8726)" class="st0 st19 st22">Settings</text>
			<g>
				<path class="st5" d="M53.2,67.6c-1.4,0-2.7,0.2-4,0.7c-2.9,1.1-5.2,3.3-6.4,6.1c-1.2,2.8-1.3,5.9-0.2,8.8
					c1.7,4.5,6,7.5,10.8,7.5c1.4,0,2.7-0.2,4-0.7c2.9-1.1,5.2-3.3,6.4-6.1c1.2-2.8,1.3-5.9,0.2-8.8C62.4,70.6,58,67.6,53.2,67.6z"/>
			</g>
			<path d="M53.3,85.3c-0.6,0-1.2-0.4-1.4-0.9c-0.1-0.2-0.2-0.4-0.4-0.5c-0.1-0.1-0.2-0.1-0.3-0.1c-0.2,0-0.4,0-0.5,0.1
				c-0.2,0.1-0.4,0.1-0.6,0.1c-0.7,0-1.4-0.5-1.5-1.4c0-0.3,0-0.5,0.1-0.8c0.1-0.2,0.1-0.4,0.1-0.6c0-0.1-0.1-0.2-0.2-0.4
				c-0.1-0.1-0.3-0.2-0.5-0.3c-0.5-0.2-0.9-0.7-0.9-1.3c-0.1-0.6,0.3-1.3,0.9-1.5c0.3-0.1,0.5-0.3,0.6-0.4c0-0.1,0.1-0.1,0.1-0.2
				c0-0.2,0-0.4-0.1-0.6c-0.2-0.4-0.2-1,0.1-1.4c0.2-0.4,0.6-0.7,1.1-0.7c0.3,0,0.5,0,0.8,0.1c0.2,0.1,0.4,0.1,0.6,0.1
				c0.1,0,0.2,0,0.3-0.2c0.1-0.1,0.2-0.3,0.3-0.4c0.2-0.6,0.8-1,1.4-1c0.6,0,1.2,0.4,1.4,1c0.1,0.2,0.2,0.4,0.3,0.5
				c0.1,0.1,0.2,0.1,0.3,0.1c0.2,0,0.4,0,0.5-0.1c0.6-0.2,1.3-0.1,1.7,0.3c0.4,0.4,0.6,1.1,0.3,1.7c-0.1,0.2-0.1,0.3-0.1,0.5
				c0,0.1,0,0.3,0.2,0.5c0.1,0.1,0.3,0.2,0.4,0.2c0.6,0.2,0.9,0.8,0.9,1.4c0,0.6-0.4,1.2-1,1.4c-0.2,0.1-0.4,0.2-0.5,0.4
				c-0.1,0.1-0.1,0.2-0.1,0.3c0,0.2,0,0.4,0.1,0.5c0.2,0.6,0.2,1.1-0.2,1.6c-0.3,0.4-0.7,0.5-1.2,0.5l0,0c-0.1,0-0.2,0-0.3,0
				c-0.1,0-0.3-0.1-0.3-0.1c0,0-0.1,0-0.1,0c-0.2,0-0.3-0.1-0.5,0c-0.1,0-0.2,0-0.3,0.2c-0.1,0.1-0.2,0.3-0.3,0.5
				C54.5,84.9,53.9,85.3,53.3,85.3L53.3,85.3z M51.2,82.9c0.4,0,0.7,0.1,0.9,0.3c0.2,0.2,0.4,0.5,0.6,0.8c0.1,0.2,0.4,0.4,0.6,0.4
				v0.4l0-0.4c0.2,0,0.5-0.2,0.6-0.4c0.1-0.3,0.3-0.5,0.5-0.7c0.3-0.3,0.5-0.4,0.8-0.4c0.3,0,0.5,0,0.8,0.1c0.1,0,0.1,0.1,0.2,0.1
				c0.1,0,0.1,0,0.1,0.1c0.3,0,0.5,0,0.7-0.2c0.2-0.2,0.2-0.5,0.1-0.7c-0.1-0.3-0.2-0.6-0.2-0.8c0-0.4,0.1-0.7,0.3-0.9
				c0.2-0.2,0.5-0.4,0.8-0.6c0.2-0.1,0.4-0.4,0.4-0.6c0-0.3-0.2-0.5-0.4-0.6c-0.2-0.1-0.5-0.2-0.6-0.4C57.2,77.8,57,77.5,57,77
				c0-0.3,0.1-0.6,0.2-0.9c0.1-0.3,0.1-0.6-0.1-0.8c-0.2-0.2-0.5-0.2-0.8-0.1c-0.3,0.1-0.6,0.2-0.9,0.2c0,0,0,0,0,0
				c-0.4,0-0.7-0.1-0.9-0.4c-0.2-0.2-0.4-0.5-0.5-0.8c-0.1-0.2-0.4-0.4-0.6-0.4c-0.3,0-0.5,0.2-0.6,0.4c-0.1,0.3-0.2,0.5-0.4,0.7
				c-0.2,0.2-0.5,0.4-0.9,0.5c-0.4,0-0.7,0-1.1-0.2c-0.1,0-0.2-0.1-0.4-0.1c-0.3,0-0.4,0.2-0.5,0.3c-0.1,0.2-0.1,0.4,0,0.6
				c0.1,0.3,0.2,0.7,0.2,1.1c0,0.2-0.1,0.4-0.2,0.6c-0.2,0.3-0.5,0.6-1,0.7c-0.2,0.1-0.4,0.4-0.4,0.6c0,0.3,0.2,0.5,0.4,0.6
				c0.3,0.1,0.5,0.3,0.7,0.5c0.3,0.3,0.4,0.6,0.4,0.9c0,0.3-0.1,0.6-0.2,0.9c0,0.1-0.1,0.2,0,0.3c0,0.5,0.4,0.6,0.7,0.6
				c0.1,0,0.2,0,0.3-0.1C50.6,82.9,50.9,82.9,51.2,82.9z M53.3,81.7c-0.7,0-1.3-0.3-1.8-0.7c-0.5-0.5-0.7-1.1-0.7-1.8
				c0-1.4,1.1-2.5,2.5-2.5h0c0.7,0,1.3,0.3,1.8,0.7c0.5,0.5,0.7,1.1,0.7,1.8C55.9,80.6,54.7,81.7,53.3,81.7z M53.3,77.1v0.4
				c-0.9,0-1.7,0.7-1.7,1.7c0,0.4,0.2,0.9,0.5,1.2c0.3,0.3,0.7,0.5,1.2,0.5c0.9,0,1.7-0.7,1.7-1.7c0-0.4-0.2-0.9-0.5-1.2
				c-0.3-0.3-0.7-0.5-1.2-0.5L53.3,77.1z"/>
		</g>
		<g>
			<g>
				<g>
					<circle class="st3" cx="698" cy="79.1" r="7.4"/>
					<g>
						<line class="st4" x1="694.3" y1="75.4" x2="701.8" y2="82.9"/>
						<line class="st4" x1="694.3" y1="82.9" x2="701.8" y2="75.4"/>
					</g>
				</g>
			</g>
			<g>
				<circle class="st5" cx="673" cy="79.1" r="7.4"/>
				<g>
					<g>
						<path class="st1" d="M676.9,80.6h-8c-0.3,0-0.5-0.2-0.5-0.5s0.2-0.5,0.5-0.5h8c0.3,0,0.5,0.2,0.5,0.5S677.2,80.6,676.9,80.6z"
							/>
					</g>
				</g>
			</g>
		</g>
	</g>
</g>
</svg>
