<?xml version="1.0" encoding="utf-8"?>
<!-- Generator: Adobe Illustrator 19.1.0, SVG Export Plug-In . SVG Version: 6.00 Build 0)  -->
<svg version="1.1" id="Layer_1" xmlns="http://www.w3.org/2000/svg" xmlns:xlink="http://www.w3.org/1999/xlink" x="0px" y="0px"
	 viewBox="0 0 739.2 680.2" style="enable-background:new 0 0 739.2 680.2;" xml:space="preserve">
<style type="text/css">
	.st0{fill:#FFFFFF;}
	.st1{fill:#4D4D4D;}
	.st2{fill:#808080;stroke:#4D4D4D;stroke-width:0.2524;stroke-miterlimit:10;}
	.st3{fill:#F57C00;}
	.st4{fill:none;stroke:#FFFFFF;stroke-width:0.8981;stroke-linecap:round;stroke-linejoin:round;stroke-miterlimit:10;}
	.st5{fill:#CCCCCC;}
	.st6{fill:#808080;}
	.st7{fill:#F2F2F2;}
	.st8{fill:none;stroke:#F57C00;stroke-width:2;stroke-linecap:round;stroke-linejoin:round;stroke-miterlimit:10;}
	.st9{font-family:'MyriadPro-Bold';}
	.st10{font-size:30.1109px;}
	.st11{fill:#00FFFF;}
	.st12{fill:none;stroke:#00FFFF;stroke-miterlimit:10;}
	.st13{opacity:0.5;fill:#FFFFFF;}
	.st14{fill:none;stroke:#FFFFFF;stroke-width:2;stroke-linecap:round;stroke-linejoin:round;stroke-miterlimit:10;}
	.st15{fill:#39B54A;}
	.st16{fill:#FF1D25;}
	.st17{font-family:'Roboto-Light';}
	.st18{font-size:14px;}
	.st19{font-family:'Roboto-Medium';}
	.st20{font-family:'Roboto-Regular';}
	.st21{font-size:12px;}
	.st22{font-size:16.65px;}
</style>
<text transform="matrix(1 0 0 1 22.5823 34)" class="st9 st10">Settings Window - UI</text>
<g>
	<path id="bck_6_" class="st1" d="M707.9,655.5H39.2c-8.6,0-15.6-7.1-15.6-15.9V71.4c0-8.8,7-15.9,15.6-15.9h668.7
		c8.6,0,15.6,7.1,15.6,15.9v568.2C723.6,648.4,716.6,655.5,707.9,655.5z"/>
	<g>
		<path class="st2" d="M259.3,149.6v-35.7c0-6.2-5-11.2-11.1-11.2H42.7c-6.4,0-11.6,5.2-11.6,11.7v521.5c0,6.4,5.2,11.7,11.6,11.7
			h661.9c6.4,0,11.6-5.2,11.6-11.7V161c0-6.3-5-11.3-11.2-11.3H259.3z"/>
		<path class="st2" d="M487.2,149.6v-35.7c0-6.2-5-11.2-11.1-11.2H270.9c-6.4,0-11.6,5.2-11.6,11.7v35.3H41.8
			c-5.9,0-10.7,4.8-10.7,10.7v475.5c0,6.4,5.2,11.7,11.6,11.7h661.9c6.4,0,11.6-5.2,11.6-11.7V161c0-6.3-5-11.3-11.2-11.3H487.2z"/>
		<path class="st0" d="M487.4,149.6v-35.7c0-6.2,5-11.2,11.1-11.2h206c6.4,0,11.6,5.2,11.6,11.7v520.3c0,6.4-5.2,12.7-11.6,12.7
			H42.7c-6.4,0-11.6-6.3-11.6-12.7V160c0-6.3,5-10.3,11.2-10.3H487.4z"/>
	</g>
	<g>
		<text transform="matrix(1 0 0 1 118.1873 123.0355)"><tspan x="0" y="0" class="st0 st17 st18">Account </tspan><tspan x="-14.3" y="16.8" class="st0 st17 st18">Configuration</tspan></text>
	</g>
	<g>
		<text transform="matrix(1 0 0 1 353.7922 123.0355)"><tspan x="0" y="0" class="st0 st17 st18">World </tspan><tspan x="-22" y="16.8" class="st0 st17 st18">Configuration</tspan></text>
	</g>
	<path class="st7" d="M666.3,584h-364c-5.5,0-9.9-4.5-9.9-9.9V200.6c0-5.5,4.5-9.9,9.9-9.9h364c5.5,0,9.9,4.5,9.9,9.9v373.5
		C676.2,579.6,671.8,584,666.3,584z"/>
	<g>
		<text transform="matrix(1 0 0 1 563.8064 131.4481)" class="st6 st19 st18">Preferences</text>
	</g>
	<g>
		<g>
			<g>
				<g>
					<path class="st7" d="M252.7,580.4V194.3c0-2,1.7-3.7,3.7-3.7h0.6c2,0,3.7,1.7,3.7,3.7v386.1c0,2-1.7,3.7-3.7,3.7h-0.6
						C254.3,584,252.7,582.4,252.7,580.4z"/>
				</g>
			</g>
		</g>
		<g>
			<g>
				<g>
					<path class="st5" d="M253.7,259.6v-43.5c0-1.5,1.2-2.7,2.7-2.7h0.4c1.5,0,2.7,1.2,2.7,2.7v43.5c0,1.5-1.2,2.7-2.7,2.7h-0.4
						C254.9,262.3,253.7,261.1,253.7,259.6z"/>
				</g>
			</g>
		</g>
	</g>
	<g>
		<g>
			<g>
				<g>
					<g>
						<path class="st0" d="M303.6,570H665c2,0,3.7,1.7,3.7,3.7v0.6c0,2-1.7,3.7-3.7,3.7H303.6c-2,0-3.7-1.7-3.7-3.7v-0.6
							C299.9,571.6,301.5,570,303.6,570z"/>
					</g>
				</g>
			</g>
		</g>
		<g>
			<g>
				<g>
					<path class="st5" d="M607.7,571h43.5c1.5,0,2.7,1.2,2.7,2.7v0.4c0,1.5-1.2,2.7-2.7,2.7h-43.5c-1.5,0-2.7-1.2-2.7-2.7v-0.4
						C605,572.3,606.3,571,607.7,571z"/>
				</g>
			</g>
		</g>
	</g>
	<text transform="matrix(1 0 0 1 304.7507 213.8775)" class="st6 st20 st21">codeSearchGrepExclusion: [ipsum dolosum dolorsum drsit amet]...</text>
	<g>
		<g>
			<path class="st1" d="M92.1,597.1c1.2,6.2-4.2,11.6-10.4,10.4c-3.5-0.7-6.3-3.5-6.9-6.9c-1.2-6.2,4.2-11.6,10.4-10.4
				C88.6,590.8,91.4,593.6,92.1,597.1z"/>
			<g>
				<path class="st0" d="M83.6,604.1c2.6,0,4.8-2.2,4.8-4.8c0-0.3-0.3-0.6-0.6-0.6c-0.3,0-0.6,0.3-0.6,0.6c0,2-1.6,3.6-3.6,3.6
					c-2,0-3.6-1.6-3.6-3.6c0-1.9,1.5-3.4,3.3-3.6l0.8-0.1l-1.1,1.1c-0.1,0.1-0.2,0.3-0.2,0.4c0,0.2,0.1,0.3,0.2,0.4
					c0.2,0.2,0.6,0.2,0.8,0l2-2c0.1-0.1,0.2-0.3,0.2-0.4c0-0.2-0.1-0.3-0.2-0.4l-2-2c-0.1-0.1-0.3-0.2-0.4-0.2
					c-0.2,0-0.3,0.1-0.4,0.2c-0.1,0.1-0.2,0.3-0.2,0.4c0,0.2,0.1,0.3,0.2,0.4l0.9,0.9l-0.7,0.1c-2.5,0.2-4.4,2.3-4.4,4.8
					C78.8,601.9,80.9,604.1,83.6,604.1z"/>
			</g>
		</g>
	</g>
	<g>
		<g>
			<path class="st3" d="M224.4,387.1H75.2c-5.1,0-9.3-4.2-9.3-9.3v-1.4c0-5.1,4.2-9.3,9.3-9.3h149.2c5.1,0,9.3,4.2,9.3,9.3v1.4
				C233.7,383,229.5,387.1,224.4,387.1z"/>
		</g>
	</g>
	<g>
		<text transform="matrix(1 0 0 1 71.2307 200.8775)"><tspan x="0" y="0" class="st6 st20 st21">*Lorem ipsum dolorsit amet</tspan><tspan x="0" y="20" class="st6 st20 st21">*Aliquampsum dolorsit </tspan><tspan x="0" y="40" class="st6 st20 st21">*Vestibulum -psum dolorsit</tspan><tspan x="0" y="60" class="st6 st20 st21">Lorem ipsum dolorsit amet</tspan><tspan x="0" y="80" class="st6 st20 st21">Aliquampsum dolorsit </tspan><tspan x="0" y="100" class="st6 st20 st21">Vestibulum -psum dolorsit </tspan><tspan x="0" y="120" class="st6 st20 st21">Lorem ipsum dolorsit amet</tspan><tspan x="0" y="140" class="st6 st20 st21">Aliquampsum dolorsit </tspan><tspan x="0" y="160" class="st6 st20 st21">Vestibulum -psum dolorsit</tspan><tspan x="0" y="180" class="st0 st20 st21">Lorem ipsum dolorsit amet</tspan><tspan x="0" y="200" class="st6 st20 st21">Aliquampsum dolorsit </tspan><tspan x="0" y="220" class="st6 st20 st21">Vestibulum -psum dolorsit </tspan><tspan x="0" y="240" class="st6 st20 st21">Lorem ipsum dolorsit amet</tspan><tspan x="0" y="260" class="st6 st20 st21">Aliquampsum dolorsit </tspan><tspan x="0" y="280" class="st6 st20 st21">Vestibulum -psum dolorsit</tspan><tspan x="0" y="300" class="st6 st20 st21">Lorem ipsum dolorsit amet</tspan><tspan x="0" y="320" class="st6 st20 st21">Aliquampsum dolorsit </tspan><tspan x="0" y="340" class="st6 st20 st21">Vestibulum -psum dolorsit </tspan><tspan x="0" y="360" class="st6 st20 st21">Aliquampsum dolorsit </tspan><tspan x="0" y="380" class="st6 st20 st21">Vestibulum -psum dolorsit </tspan></text>
	</g>
	<g>
		<g>
			<text transform="matrix(1 0 0 1 71.6229 84.8726)" class="st0 st19 st22">Settings</text>
			<g>
				<path class="st5" d="M53.2,67.6c-1.4,0-2.7,0.2-4,0.7c-2.9,1.1-5.2,3.3-6.4,6.1c-1.2,2.8-1.3,5.9-0.2,8.8
					c1.7,4.5,6,7.5,10.8,7.5c1.4,0,2.7-0.2,4-0.7c2.9-1.1,5.2-3.3,6.4-6.1c1.2-2.8,1.3-5.9,0.2-8.8C62.4,70.6,58,67.6,53.2,67.6z"/>
			</g>
			<path d="M53.3,85.3c-0.6,0-1.2-0.4-1.4-0.9c-0.1-0.2-0.2-0.4-0.4-0.5c-0.1-0.1-0.2-0.1-0.3-0.1c-0.2,0-0.4,0-0.5,0.1
				c-0.2,0.1-0.4,0.1-0.6,0.1c-0.7,0-1.4-0.5-1.5-1.4c0-0.3,0-0.5,0.1-0.8c0.1-0.2,0.1-0.4,0.1-0.6c0-0.1-0.1-0.2-0.2-0.4
				c-0.1-0.1-0.3-0.2-0.5-0.3c-0.5-0.2-0.9-0.7-0.9-1.3c-0.1-0.6,0.3-1.3,0.9-1.5c0.3-0.1,0.5-0.3,0.6-0.4c0-0.1,0.1-0.1,0.1-0.2
				c0-0.2,0-0.4-0.1-0.6c-0.2-0.4-0.2-1,0.1-1.4c0.2-0.4,0.6-0.7,1.1-0.7c0.3,0,0.5,0,0.8,0.1c0.2,0.1,0.4,0.1,0.6,0.1
				c0.1,0,0.2,0,0.3-0.2c0.1-0.1,0.2-0.3,0.3-0.4c0.2-0.6,0.8-1,1.4-1c0.6,0,1.2,0.4,1.4,1c0.1,0.2,0.2,0.4,0.3,0.5
				c0.1,0.1,0.2,0.1,0.3,0.1c0.2,0,0.4,0,0.5-0.1c0.6-0.2,1.3-0.1,1.7,0.3c0.4,0.4,0.6,1.1,0.3,1.7c-0.1,0.2-0.1,0.3-0.1,0.5
				c0,0.1,0,0.3,0.2,0.5c0.1,0.1,0.3,0.2,0.4,0.2c0.6,0.2,0.9,0.8,0.9,1.4c0,0.6-0.4,1.2-1,1.4c-0.2,0.1-0.4,0.2-0.5,0.4
				c-0.1,0.1-0.1,0.2-0.1,0.3c0,0.2,0,0.4,0.1,0.5c0.2,0.6,0.2,1.1-0.2,1.6c-0.3,0.4-0.7,0.5-1.2,0.5l0,0c-0.1,0-0.2,0-0.3,0
				c-0.1,0-0.3-0.1-0.3-0.1c0,0-0.1,0-0.1,0c-0.2,0-0.3-0.1-0.5,0c-0.1,0-0.2,0-0.3,0.2c-0.1,0.1-0.2,0.3-0.3,0.5
				C54.5,84.9,53.9,85.3,53.3,85.3L53.3,85.3z M51.2,82.9c0.4,0,0.7,0.1,0.9,0.3c0.2,0.2,0.4,0.5,0.6,0.8c0.1,0.2,0.4,0.4,0.6,0.4
				v0.4l0-0.4c0.2,0,0.5-0.2,0.6-0.4c0.1-0.3,0.3-0.5,0.5-0.7c0.3-0.3,0.5-0.4,0.8-0.4c0.3,0,0.5,0,0.8,0.1c0.1,0,0.1,0.1,0.2,0.1
				c0.1,0,0.1,0,0.1,0.1c0.3,0,0.5,0,0.7-0.2c0.2-0.2,0.2-0.5,0.1-0.7c-0.1-0.3-0.2-0.6-0.2-0.8c0-0.4,0.1-0.7,0.3-0.9
				c0.2-0.2,0.5-0.4,0.8-0.6c0.2-0.1,0.4-0.4,0.4-0.6c0-0.3-0.2-0.5-0.4-0.6c-0.2-0.1-0.5-0.2-0.6-0.4C57.2,77.8,57,77.5,57,77
				c0-0.3,0.1-0.6,0.2-0.9c0.1-0.3,0.1-0.6-0.1-0.8c-0.2-0.2-0.5-0.2-0.8-0.1c-0.3,0.1-0.6,0.2-0.9,0.2c0,0,0,0,0,0
				c-0.4,0-0.7-0.1-0.9-0.4c-0.2-0.2-0.4-0.5-0.5-0.8c-0.1-0.2-0.4-0.4-0.6-0.4c-0.3,0-0.5,0.2-0.6,0.4c-0.1,0.3-0.2,0.5-0.4,0.7
				c-0.2,0.2-0.5,0.4-0.9,0.5c-0.4,0-0.7,0-1.1-0.2c-0.1,0-0.2-0.1-0.4-0.1c-0.3,0-0.4,0.2-0.5,0.3c-0.1,0.2-0.1,0.4,0,0.6
				c0.1,0.3,0.2,0.7,0.2,1.1c0,0.2-0.1,0.4-0.2,0.6c-0.2,0.3-0.5,0.6-1,0.7c-0.2,0.1-0.4,0.4-0.4,0.6c0,0.3,0.2,0.5,0.4,0.6
				c0.3,0.1,0.5,0.3,0.7,0.5c0.3,0.3,0.4,0.6,0.4,0.9c0,0.3-0.1,0.6-0.2,0.9c0,0.1-0.1,0.2,0,0.3c0,0.5,0.4,0.6,0.7,0.6
				c0.1,0,0.2,0,0.3-0.1C50.6,82.9,50.9,82.9,51.2,82.9z M53.3,81.7c-0.7,0-1.3-0.3-1.8-0.7c-0.5-0.5-0.7-1.1-0.7-1.8
				c0-1.4,1.1-2.5,2.5-2.5h0c0.7,0,1.3,0.3,1.8,0.7c0.5,0.5,0.7,1.1,0.7,1.8C55.9,80.6,54.7,81.7,53.3,81.7z M53.3,77.1v0.4
				c-0.9,0-1.7,0.7-1.7,1.7c0,0.4,0.2,0.9,0.5,1.2c0.3,0.3,0.7,0.5,1.2,0.5c0.9,0,1.7-0.7,1.7-1.7c0-0.4-0.2-0.9-0.5-1.2
				c-0.3-0.3-0.7-0.5-1.2-0.5L53.3,77.1z"/>
		</g>
		<g>
			<g>
				<g>
					<circle class="st3" cx="698" cy="79.1" r="7.4"/>
					<g>
						<line class="st4" x1="694.3" y1="75.4" x2="701.8" y2="82.9"/>
						<line class="st4" x1="694.3" y1="82.9" x2="701.8" y2="75.4"/>
					</g>
				</g>
			</g>
			<g>
				<circle class="st5" cx="673" cy="79.1" r="7.4"/>
				<g>
					<g>
						<path class="st1" d="M676.9,80.6h-8c-0.3,0-0.5-0.2-0.5-0.5s0.2-0.5,0.5-0.5h8c0.3,0,0.5,0.2,0.5,0.5S677.2,80.6,676.9,80.6z"
							/>
					</g>
				</g>
			</g>
		</g>
	</g>
</g>
</svg>
