<?xml version="1.0" encoding="utf-8"?>
<!-- Generator: Adobe Illustrator 19.1.0, SVG Export Plug-In . SVG Version: 6.00 Build 0)  -->
<svg version="1.1" id="Layer_1" xmlns="http://www.w3.org/2000/svg" xmlns:xlink="http://www.w3.org/1999/xlink" x="0px" y="0px"
	 viewBox="0 0 2880.3 687.1" style="enable-background:new 0 0 2880.3 687.1;" xml:space="preserve">
<style type="text/css">
	.st0{fill:#FFFFFF;}
	.st1{fill:#4D4D4D;}
	.st2{fill:#808080;stroke:#4D4D4D;stroke-width:0.2524;stroke-miterlimit:10;}
	.st3{fill:#F57C00;}
	.st4{fill:none;stroke:#FFFFFF;stroke-width:0.8981;stroke-linecap:round;stroke-linejoin:round;stroke-miterlimit:10;}
	.st5{fill:#CCCCCC;}
	.st6{fill:#808080;}
	.st7{fill:#F2F2F2;}
	.st8{fill:none;stroke:#F57C00;stroke-width:2;stroke-linecap:round;stroke-linejoin:round;stroke-miterlimit:10;}
	.st9{fill:#00FFFF;}
	.st10{fill:none;stroke:#00FFFF;stroke-miterlimit:10;}
	.st11{font-family:'MyriadPro-Bold';}
	.st12{font-size:30.1109px;}
	.st13{font-family:'Roboto-Medium';}
	.st14{font-size:16.65px;}
	.st15{font-family:'Roboto-Light';}
	.st16{font-size:14px;}
	.st17{font-family:'Roboto-Regular';}
	.st18{font-size:12px;}
	.st19{opacity:0.5;fill:#FFFFFF;}
	.st20{fill:none;stroke:#FFFFFF;stroke-width:2;stroke-linecap:round;stroke-linejoin:round;stroke-miterlimit:10;}
	.st21{fill:#39B54A;}
	.st22{fill:#FF1D25;}
</style>
<text transform="matrix(1 0 0 1 26.5823 46.2497)" class="st11 st12">Settings Window - UI</text>
<g>
	<g>
		<path id="bck_15_" class="st1" d="M702.5,669.5H33.8c-8.6,0-15.6-7.1-15.6-15.9V85.4c0-8.8,7-15.9,15.6-15.9h668.7
			c8.6,0,15.6,7.1,15.6,15.9v568.2C718.2,662.3,711.2,669.5,702.5,669.5z"/>
		<g>
			<path class="st2" d="M482,163.6v-35.7c0-6.2,5-11.2,11.1-11.2h206c6.4,0,11.6,5.2,11.6,11.7v520.3c0,6.4-5.2,12.7-11.6,12.7H37.3
				c-6.4,0-11.6-6.3-11.6-12.7V173.9c0-6.3,5-10.3,11.2-10.3H482z"/>
			<path class="st2" d="M253.9,163.6v-35.7c0-6.2-5-11.2-11.1-11.2H37.3c-6.4,0-11.6,5.2-11.6,11.7v521.5c0,6.4,5.2,11.7,11.6,11.7
				h661.9c6.4,0,11.6-5.2,11.6-11.7V174.9c0-6.3-5-11.3-11.2-11.3H253.9z"/>
			<path class="st0" d="M481.8,163.6v-35.7c0-6.2-5-11.2-11.1-11.2H265.6c-6.4,0-11.6,5.2-11.6,11.7v35.3H36.4
				c-5.9,0-10.7,4.8-10.7,10.7v475.5c0,6.4,5.2,11.7,11.6,11.7h661.9c6.4,0,11.6-5.2,11.6-11.7V174.9c0-6.3-5-11.3-11.2-11.3H481.8z
				"/>
		</g>
	</g>
	<g>
		<text transform="matrix(1 0 0 1 66.2327 98.8308)" class="st0 st13 st14">Settings</text>
		<g>
			<path class="st5" d="M47.9,81.5c-1.4,0-2.7,0.2-4,0.7c-2.9,1.1-5.2,3.3-6.4,6.1c-1.2,2.8-1.3,5.9-0.2,8.8c1.7,4.5,6,7.5,10.8,7.5
				c1.4,0,2.7-0.2,4-0.7c2.9-1.1,5.2-3.3,6.4-6.1c1.2-2.8,1.3-5.9,0.2-8.8C57,84.6,52.6,81.5,47.9,81.5z"/>
		</g>
		<path d="M48,99.3c-0.6,0-1.2-0.4-1.4-0.9c-0.1-0.2-0.2-0.4-0.4-0.5c-0.1-0.1-0.2-0.1-0.3-0.1c-0.2,0-0.4,0-0.5,0.1
			c-0.2,0.1-0.4,0.1-0.6,0.1c-0.7,0-1.4-0.5-1.5-1.4c0-0.3,0-0.5,0.1-0.8c0.1-0.2,0.1-0.4,0.1-0.6c0-0.1-0.1-0.2-0.2-0.4
			c-0.1-0.1-0.3-0.2-0.5-0.3c-0.5-0.2-0.9-0.7-0.9-1.3c-0.1-0.6,0.3-1.3,0.9-1.5c0.3-0.1,0.5-0.3,0.6-0.4c0-0.1,0.1-0.1,0.1-0.2
			c0-0.2,0-0.4-0.1-0.6c-0.2-0.4-0.2-1,0.1-1.4c0.2-0.4,0.6-0.7,1.1-0.7c0.3,0,0.5,0,0.8,0.1c0.2,0.1,0.4,0.1,0.6,0.1
			c0.1,0,0.2,0,0.3-0.2c0.1-0.1,0.2-0.3,0.3-0.4c0.2-0.6,0.8-1,1.4-1c0.6,0,1.2,0.4,1.4,1c0.1,0.2,0.2,0.4,0.3,0.5
			c0.1,0.1,0.2,0.1,0.3,0.1c0.2,0,0.4,0,0.5-0.1c0.6-0.2,1.3-0.1,1.7,0.3c0.4,0.4,0.6,1.1,0.3,1.7c-0.1,0.2-0.1,0.3-0.1,0.5
			c0,0.1,0,0.3,0.2,0.5c0.1,0.1,0.3,0.2,0.4,0.2c0.6,0.2,0.9,0.8,0.9,1.4c0,0.6-0.4,1.2-1,1.4c-0.2,0.1-0.4,0.2-0.5,0.4
			c-0.1,0.1-0.1,0.2-0.1,0.3c0,0.2,0,0.4,0.1,0.5c0.2,0.6,0.2,1.1-0.2,1.6c-0.3,0.4-0.7,0.5-1.2,0.5l0,0c-0.1,0-0.2,0-0.3,0
			c-0.1,0-0.3-0.1-0.3-0.1c0,0-0.1,0-0.1,0c-0.2,0-0.3-0.1-0.5,0c-0.1,0-0.2,0-0.3,0.2c-0.1,0.1-0.2,0.3-0.3,0.5
			C49.1,98.9,48.5,99.2,48,99.3L48,99.3z M45.9,96.8c0.4,0,0.7,0.1,0.9,0.3c0.2,0.2,0.4,0.5,0.6,0.8c0.1,0.2,0.4,0.4,0.6,0.4v0.4
			l0-0.4c0.2,0,0.5-0.2,0.6-0.4c0.1-0.3,0.3-0.5,0.5-0.7c0.3-0.3,0.5-0.4,0.8-0.4c0.3,0,0.5,0,0.8,0.1c0.1,0,0.1,0.1,0.2,0.1
			C51,97,51,97,51,97c0.3,0,0.5,0,0.7-0.2c0.2-0.2,0.2-0.5,0.1-0.7c-0.1-0.3-0.2-0.6-0.2-0.8c0-0.4,0.1-0.7,0.3-0.9
			c0.2-0.2,0.5-0.4,0.8-0.6c0.2-0.1,0.4-0.4,0.4-0.6c0-0.3-0.2-0.5-0.4-0.6c-0.2-0.1-0.5-0.2-0.6-0.4c-0.4-0.3-0.5-0.7-0.5-1.1
			c0-0.3,0.1-0.6,0.2-0.9c0.1-0.3,0.1-0.6-0.1-0.8c-0.2-0.2-0.5-0.2-0.8-0.1c-0.3,0.1-0.6,0.2-0.9,0.2c0,0,0,0,0,0
			c-0.4,0-0.7-0.1-0.9-0.4c-0.2-0.2-0.4-0.5-0.5-0.8c-0.1-0.2-0.4-0.4-0.6-0.4c-0.3,0-0.5,0.2-0.6,0.4c-0.1,0.3-0.2,0.5-0.4,0.7
			c-0.2,0.2-0.5,0.4-0.9,0.5c-0.4,0-0.7,0-1.1-0.2c-0.1,0-0.2-0.1-0.4-0.1c-0.3,0-0.4,0.2-0.5,0.3c-0.1,0.2-0.1,0.4,0,0.6
			c0.1,0.3,0.2,0.7,0.2,1.1c0,0.2-0.1,0.4-0.2,0.6c-0.2,0.3-0.5,0.6-1,0.7c-0.2,0.1-0.4,0.4-0.4,0.6c0,0.3,0.2,0.5,0.4,0.6
			c0.3,0.1,0.5,0.3,0.7,0.5c0.3,0.3,0.4,0.6,0.4,0.9c0,0.3-0.1,0.6-0.2,0.9c0,0.1-0.1,0.2,0,0.3c0,0.5,0.4,0.6,0.7,0.6
			c0.1,0,0.2,0,0.3-0.1C45.2,96.9,45.5,96.8,45.9,96.8z M48,95.6c-0.7,0-1.3-0.3-1.8-0.7c-0.5-0.5-0.7-1.1-0.7-1.8
			c0-1.4,1.1-2.5,2.5-2.5h0c0.7,0,1.3,0.3,1.8,0.7c0.5,0.5,0.7,1.1,0.7,1.8C50.5,94.5,49.3,95.6,48,95.6z M48,91v0.4
			c-0.9,0-1.7,0.7-1.7,1.7c0,0.4,0.2,0.9,0.5,1.2c0.3,0.3,0.7,0.5,1.2,0.5c0.9,0,1.7-0.7,1.7-1.7c0-0.4-0.2-0.9-0.5-1.2
			c-0.3-0.3-0.7-0.5-1.2-0.5L48,91z"/>
	</g>
	<g>
		<text transform="matrix(1 0 0 1 112.7971 136.9937)"><tspan x="0" y="0" class="st0 st15 st16">Account </tspan><tspan x="-14.3" y="16.8" class="st0 st15 st16">Configuration</tspan></text>
	</g>
	<g>
		<text transform="matrix(1 0 0 1 355.033 136.9937)"><tspan x="0" y="0" class="st6 st13 st16">World </tspan><tspan x="-22.9" y="16.8" class="st6 st13 st16">Configuration</tspan></text>
	</g>
	<path class="st7" d="M660.9,562h-474c-5.5,0-9.9-4.5-9.9-9.9V334.2c0-5.5,4.5-9.9,9.9-9.9h474c5.5,0,9.9,4.5,9.9,9.9V552
		C670.8,557.5,666.4,562,660.9,562z"/>
	<g>
		<g>
			<g>
				<path class="st1" d="M658.8,621.2h-46.8c-5,0-9.1-4.1-9.1-9.1v-1.8c0-5,4.1-9.1,9.1-9.1h46.8c5,0,9.1,4.1,9.1,9.1v1.8
					C667.8,617.1,663.8,621.2,658.8,621.2z"/>
			</g>
		</g>
		<g>
			<text transform="matrix(1 0 0 1 621.5139 615.347)" class="st0 st17 st18">Save</text>
		</g>
	</g>
	<g>
		<g>
			<g>
				<path class="st7" d="M660.9,285h-474c-5.5,0-10-4.5-10-10v0c0-5.5,4.5-10,10-10h474c5.5,0,10,4.5,10,10v0
					C670.9,280.5,666.4,285,660.9,285z"/>
			</g>
		</g>
	</g>
	<g>
		<text transform="matrix(1 0 0 1 65.9022 280.1353)" class="st6 st17 st18">World Title:</text>
	</g>
	<g>
		<text transform="matrix(1 0 0 1 65.9032 335.2378)" class="st6 st17 st18">World Description:</text>
	</g>
	<g>
		<g>
			<g>
				<g>
					<path class="st3" d="M167.3,223.6H75c-5,0-9.1-4.1-9.1-9.1v-1.8c0-5,4.1-9.1,9.1-9.1h92.3c5,0,9.1,4.1,9.1,9.1v1.8
						C176.4,219.5,172.3,223.6,167.3,223.6z"/>
				</g>
			</g>
			<g>
				<text transform="matrix(1 0 0 1 73.8036 217.0631)" class="st0 st17 st18">World Description</text>
			</g>
		</g>
		<g>
			<g>
				<g>
					<path class="st7" d="M284,223.6h-92.3c-5,0-9.1-4.1-9.1-9.1v-1.8c0-5,4.1-9.1,9.1-9.1l92.3,0c5,0,9.1,4.1,9.1,9.1v1.8
						C293.1,219.5,289,223.6,284,223.6z"/>
				</g>
			</g>
			<g>
				<text transform="matrix(1 0 0 1 197.59 217.0638)" class="st6 st17 st18">World Versions</text>
			</g>
		</g>
		<g>
			<g>
				<g>
					<path class="st7" d="M400.7,223.6h-92.3c-5,0-9.1-4.1-9.1-9.1v-1.8c0-5,4.1-9.1,9.1-9.1l92.3,0c5,0,9.1,4.1,9.1,9.1v1.8
						C409.8,219.5,405.8,223.6,400.7,223.6z"/>
				</g>
			</g>
			<g>
				<text transform="matrix(1 0 0 1 314.3953 217.0632)" class="st6 st17 st18">Activity History</text>
			</g>
		</g>
	</g>
	<g>
		<text transform="matrix(1 0 0 1 558.4158 145.4063)" class="st0 st15 st16">Preferences</text>
	</g>
	<g>
		<g>
			<g>
				<circle class="st3" cx="692.6" cy="93" r="7.4"/>
				<g>
					<line class="st4" x1="688.9" y1="89.4" x2="696.4" y2="96.9"/>
					<line class="st4" x1="688.9" y1="96.9" x2="696.4" y2="89.4"/>
				</g>
			</g>
		</g>
		<g>
			<circle class="st5" cx="667.6" cy="93" r="7.4"/>
			<g>
				<g>
					<path class="st1" d="M671.6,94.6h-8c-0.3,0-0.5-0.2-0.5-0.5s0.2-0.5,0.5-0.5h8c0.3,0,0.5,0.2,0.5,0.5S671.8,94.6,671.6,94.6z"
						/>
				</g>
			</g>
		</g>
	</g>
</g>
<g>
	<path id="bck_17_" class="st1" d="M2850.5,669.2h-668.7c-8.6,0-15.6-7.1-15.6-15.9V85.1c0-8.8,7-15.9,15.6-15.9h668.7
		c8.6,0,15.6,7.1,15.6,15.9v568.2C2866.2,662.1,2859.2,669.2,2850.5,669.2z"/>
	<g>
		<path class="st2" d="M2630,164.6v-35.7c0-6.2,5-11.2,11.1-11.2h206c6.4,0,11.6,5.2,11.6,11.7v520.3c0,6.4-5.2,12.7-11.6,12.7
			h-661.9c-6.4,0-11.6-6.3-11.6-12.7V174.9c0-6.3,5-10.3,11.2-10.3H2630z"/>
		<path class="st2" d="M2401.9,164.6v-35.7c0-6.2-5-11.2-11.1-11.2h-205.5c-6.4,0-11.6,5.2-11.6,11.7v521.5
			c0,6.4,5.2,11.7,11.6,11.7h661.9c6.4,0,11.6-5.2,11.6-11.7V175.9c0-6.3-5-11.3-11.2-11.3H2401.9z"/>
		<path class="st0" d="M2629.8,164.6v-35.7c0-6.2-5-11.2-11.1-11.2h-205.1c-6.4,0-11.6,5.2-11.6,11.7v35.3h-217.6
			c-5.9,0-10.7,4.8-10.7,10.7v475.5c0,6.4,5.2,11.7,11.6,11.7h661.9c6.4,0,11.6-5.2,11.6-11.7V175.9c0-6.3-5-11.3-11.2-11.3H2629.8z
			"/>
	</g>
	<g>
		<text transform="matrix(1 0 0 1 2214.2327 99.8308)" class="st0 st13 st14">Settings</text>
		<g>
			<path class="st5" d="M2195.9,82.5c-1.4,0-2.7,0.2-4,0.7c-2.9,1.1-5.2,3.3-6.4,6.1c-1.2,2.8-1.3,5.9-0.2,8.8
				c1.7,4.5,6,7.5,10.8,7.5c1.4,0,2.7-0.2,4-0.7c2.9-1.1,5.2-3.3,6.4-6.1c1.2-2.8,1.3-5.9,0.2-8.8
				C2205,85.6,2200.6,82.5,2195.9,82.5z"/>
		</g>
		<path d="M2196,100.3c-0.6,0-1.2-0.4-1.4-0.9c-0.1-0.2-0.2-0.4-0.4-0.5c-0.1-0.1-0.2-0.1-0.3-0.1c-0.2,0-0.4,0-0.5,0.1
			c-0.2,0.1-0.4,0.1-0.6,0.1c-0.7,0-1.4-0.5-1.5-1.4c0-0.3,0-0.5,0.1-0.8c0.1-0.2,0.1-0.4,0.1-0.6c0-0.1-0.1-0.2-0.2-0.4
			c-0.1-0.1-0.3-0.2-0.5-0.3c-0.5-0.2-0.9-0.7-0.9-1.3c-0.1-0.6,0.3-1.3,0.9-1.5c0.3-0.1,0.5-0.3,0.6-0.4c0-0.1,0.1-0.1,0.1-0.2
			c0-0.2,0-0.4-0.1-0.6c-0.2-0.4-0.2-1,0.1-1.4c0.2-0.4,0.6-0.7,1.1-0.7c0.3,0,0.5,0,0.8,0.1c0.2,0.1,0.4,0.1,0.6,0.1
			c0.1,0,0.2,0,0.3-0.2c0.1-0.1,0.2-0.3,0.3-0.4c0.2-0.6,0.8-1,1.4-1c0.6,0,1.2,0.4,1.4,1c0.1,0.2,0.2,0.4,0.3,0.5
			c0.1,0.1,0.2,0.1,0.3,0.1c0.2,0,0.4,0,0.5-0.1c0.6-0.2,1.3-0.1,1.7,0.3c0.4,0.4,0.6,1.1,0.3,1.7c-0.1,0.2-0.1,0.3-0.1,0.5
			c0,0.1,0,0.3,0.2,0.5c0.1,0.1,0.3,0.2,0.4,0.2c0.6,0.2,0.9,0.8,0.9,1.4c0,0.6-0.4,1.2-1,1.4c-0.2,0.1-0.4,0.2-0.5,0.4
			c-0.1,0.1-0.1,0.2-0.1,0.3c0,0.2,0,0.4,0.1,0.5c0.2,0.6,0.2,1.1-0.2,1.6c-0.3,0.4-0.7,0.5-1.2,0.5l0,0c-0.1,0-0.2,0-0.3,0
			c-0.1,0-0.3-0.1-0.3-0.1c0,0-0.1,0-0.1,0c-0.2,0-0.3-0.1-0.5,0c-0.1,0-0.2,0-0.3,0.2c-0.1,0.1-0.2,0.3-0.3,0.5
			C2197.1,99.9,2196.5,100.2,2196,100.3L2196,100.3z M2193.9,97.8c0.4,0,0.7,0.1,0.9,0.3c0.2,0.2,0.4,0.5,0.6,0.8
			c0.1,0.2,0.4,0.4,0.6,0.4v0.4l0-0.4c0.2,0,0.5-0.2,0.6-0.4c0.1-0.3,0.3-0.5,0.5-0.7c0.3-0.3,0.5-0.4,0.8-0.4c0.3,0,0.5,0,0.8,0.1
			c0.1,0,0.1,0.1,0.2,0.1c0.1,0,0.1,0,0.1,0.1c0.3,0,0.5,0,0.7-0.2c0.2-0.2,0.2-0.5,0.1-0.7c-0.1-0.3-0.2-0.6-0.2-0.8
			c0-0.4,0.1-0.7,0.3-0.9c0.2-0.2,0.5-0.4,0.8-0.6c0.2-0.1,0.4-0.4,0.4-0.6c0-0.3-0.2-0.5-0.4-0.6c-0.2-0.1-0.5-0.2-0.6-0.4
			c-0.4-0.3-0.5-0.7-0.5-1.1c0-0.3,0.1-0.6,0.2-0.9c0.1-0.3,0.1-0.6-0.1-0.8c-0.2-0.2-0.5-0.2-0.8-0.1c-0.3,0.1-0.6,0.2-0.9,0.2h0
			c-0.4,0-0.7-0.1-0.9-0.4c-0.2-0.2-0.4-0.5-0.5-0.8c-0.1-0.2-0.4-0.4-0.6-0.4c-0.3,0-0.5,0.2-0.6,0.4c-0.1,0.3-0.2,0.5-0.4,0.7
			c-0.2,0.2-0.5,0.4-0.9,0.5c-0.4,0-0.7,0-1.1-0.2c-0.1,0-0.2-0.1-0.4-0.1c-0.3,0-0.4,0.2-0.5,0.3c-0.1,0.2-0.1,0.4,0,0.6
			c0.1,0.3,0.2,0.7,0.2,1.1c0,0.2-0.1,0.4-0.2,0.6c-0.2,0.3-0.5,0.6-1,0.7c-0.2,0.1-0.4,0.4-0.4,0.6c0,0.3,0.2,0.5,0.4,0.6
			c0.3,0.1,0.5,0.3,0.7,0.5c0.3,0.3,0.4,0.6,0.4,0.9c0,0.3-0.1,0.6-0.2,0.9c0,0.1-0.1,0.2,0,0.3c0,0.5,0.4,0.6,0.7,0.6
			c0.1,0,0.2,0,0.3-0.1C2193.2,97.9,2193.5,97.8,2193.9,97.8z M2196,96.6c-0.7,0-1.3-0.3-1.8-0.7c-0.5-0.5-0.7-1.1-0.7-1.8
			c0-1.4,1.1-2.5,2.5-2.5h0c0.7,0,1.3,0.3,1.8,0.7c0.5,0.5,0.7,1.1,0.7,1.8C2198.5,95.5,2197.3,96.6,2196,96.6z M2196,92v0.4
			c-0.9,0-1.7,0.7-1.7,1.7c0,0.4,0.2,0.9,0.5,1.2c0.3,0.3,0.7,0.5,1.2,0.5c0.9,0,1.7-0.7,1.7-1.7c0-0.4-0.2-0.9-0.5-1.2
			c-0.3-0.3-0.7-0.5-1.2-0.5L2196,92z"/>
	</g>
	<g>
		<text transform="matrix(1 0 0 1 2260.7971 137.9937)"><tspan x="0" y="0" class="st0 st15 st16">Account </tspan><tspan x="-14.3" y="16.8" class="st0 st15 st16">Configuration</tspan></text>
	</g>
	<g>
		<text transform="matrix(1 0 0 1 2496.033 137.9937)"><tspan x="0" y="0" class="st6 st13 st16">World </tspan><tspan x="-22.9" y="16.8" class="st6 st13 st16">Configuration</tspan></text>
	</g>
	<g>
		<path class="st7" d="M2808.9,622.7h-585c-5.5,0-9.9-4.5-9.9-9.9V276c0-5.5,4.5-9.9,9.9-9.9h585c5.5,0,9.9,4.5,9.9,9.9v336.8
			C2818.8,618.2,2814.4,622.7,2808.9,622.7z"/>
		<g>
			<g>
				<g>
					<g>
						<g>
							<path class="st0" d="M2803.4,610.1V278.6c0-2,1.7-3.7,3.7-3.7h0.6c2,0,3.7,1.7,3.7,3.7v331.5c0,2-1.7,3.7-3.7,3.7h-0.6
								C2805.1,613.8,2803.4,612.1,2803.4,610.1z"/>
						</g>
					</g>
				</g>
			</g>
			<g>
				<g>
					<g>
						<path class="st5" d="M2804.5,343.9v-43.5c0-1.5,1.2-2.7,2.7-2.7h0.4c1.5,0,2.7,1.2,2.7,2.7v43.5c0,1.5-1.2,2.7-2.7,2.7h-0.4
							C2805.7,346.6,2804.5,345.4,2804.5,343.9z"/>
					</g>
				</g>
			</g>
		</g>
		<g>
			<g>
				<path class="st3" d="M2791.1,514.5h-560.2c-5.1,0-9.3-4.2-9.3-9.3v-1.4c0-5.1,4.2-9.3,9.3-9.3h560.2c5.1,0,9.3,4.2,9.3,9.3v1.4
					C2800.4,510.4,2796.2,514.5,2791.1,514.5z"/>
			</g>
		</g>
		<g>
			<text transform="matrix(1 0 0 1 2229.8713 288.7124)"><tspan x="0" y="0" class="st6 st17 st18">Lorem -  15/05/14 09:39 am (ipsum dolorsit amet) </tspan><tspan x="0" y="20" class="st6 st17 st18">Aliquam tincidunt - 15/05/14 09:39 am (ipsum dolorsit amet) </tspan><tspan x="0" y="40" class="st6 st17 st18">Vestibulum - 15/05/14 09:39 am (ipsum dolorsit amet) </tspan><tspan x="0" y="60" class="st6 st17 st18">Nunc dignissim risus - 15/05/14 09:39 am (ipsumamet) </tspan><tspan x="0" y="80" class="st6 st17 st18">Lorem -  15/05/14 09:39 am (ipsum dolorsit amet) </tspan><tspan x="0" y="100" class="st6 st17 st18">Aliquam tincidunt - 15/05/14 09:39 am (ipsum dolorsit amet) </tspan><tspan x="0" y="120" class="st6 st17 st18">Vestibulum - 15/05/14 09:39 am (ipsum dolorsit amet) </tspan><tspan x="0" y="140" class="st6 st17 st18">Nunc dignissim risus - 15/05/14 09:39 am (ipsumamet) </tspan><tspan x="0" y="160" class="st6 st17 st18">Lorem -  15/05/14 09:39 am (ipsum dolorsit amet) </tspan><tspan x="0" y="180" class="st6 st17 st18">Aliquam tincidunt - 15/05/14 09:39 am (ipsum dolorsit amet) </tspan><tspan x="0" y="200" class="st6 st17 st18">Vestibulum - 15/05/14 09:39 am (ipsum dolorsit amet) </tspan><tspan x="0" y="220" class="st0 st17 st18">Nunc dignissim risus - 15/05/14 09:39 am (ipsumamet) </tspan><tspan x="0" y="240" class="st6 st17 st18">Lorem -  15/05/14 09:39 am (ipsum dolorsit amet) </tspan><tspan x="0" y="260" class="st6 st17 st18">Aliquam tincidunt - 15/05/14 09:39 am (ipsum dolorsit amet) </tspan><tspan x="0" y="280" class="st6 st17 st18">Vestibulum - 15/05/14 09:39 am (ipsum dolorsit amet)</tspan><tspan x="0" y="300" class="st6 st17 st18">Aliquam tincidunt - 15/05/14 09:39 am (ipsum dolorsit amet) </tspan><tspan x="0" y="320" class="st6 st17 st18">Vestibulum - 15/05/14 09:39 am (ipsum dolorsit amet)</tspan></text>
		</g>
	</g>
	<g>
		<text transform="matrix(1 0 0 1 2706.4163 146.4063)" class="st0 st15 st16">Preferences</text>
	</g>
	<g>
		<g>
			<g>
				<circle class="st3" cx="2841.6" cy="94" r="7.4"/>
				<g>
					<line class="st4" x1="2837.9" y1="90.4" x2="2845.4" y2="97.9"/>
					<line class="st4" x1="2837.9" y1="97.9" x2="2845.4" y2="90.4"/>
				</g>
			</g>
		</g>
		<g>
			<circle class="st5" cx="2816.6" cy="94" r="7.4"/>
			<g>
				<g>
					<path class="st1" d="M2820.6,95.6h-8c-0.3,0-0.5-0.2-0.5-0.5s0.2-0.5,0.5-0.5h8c0.3,0,0.5,0.2,0.5,0.5S2820.8,95.6,2820.6,95.6
						z"/>
				</g>
			</g>
		</g>
	</g>
	<g>
		<g>
			<g>
				<g>
					<path class="st7" d="M2315.4,224.6h-92.3c-5,0-9.1-4.1-9.1-9.1v-1.8c0-5,4.1-9.1,9.1-9.1h92.3c5,0,9.1,4.1,9.1,9.1v1.8
						C2324.5,220.5,2320.4,224.6,2315.4,224.6z"/>
				</g>
			</g>
			<g>
				<text transform="matrix(1 0 0 1 2221.8608 218.0631)" class="st6 st17 st18">World Description</text>
			</g>
		</g>
		<g>
			<g>
				<g>
					<path class="st7" d="M2432.1,224.6h-92.3c-5,0-9.1-4.1-9.1-9.1v-1.8c0-5,4.1-9.1,9.1-9.1l92.3,0c5,0,9.1,4.1,9.1,9.1v1.8
						C2441.2,220.5,2437.1,224.6,2432.1,224.6z"/>
				</g>
			</g>
			<g>
				<text transform="matrix(1 0 0 1 2345.6472 218.0638)" class="st6 st17 st18">World Versions</text>
			</g>
		</g>
		<g>
			<g>
				<g>
					<path class="st3" d="M2548.8,224.6h-92.3c-5,0-9.1-4.1-9.1-9.1v-1.8c0-5,4.1-9.1,9.1-9.1l92.3,0c5,0,9.1,4.1,9.1,9.1v1.8
						C2557.9,220.5,2553.8,224.6,2548.8,224.6z"/>
				</g>
			</g>
			<g>
				<text transform="matrix(1 0 0 1 2462.4526 218.0632)" class="st0 st17 st18">Activity History</text>
			</g>
		</g>
	</g>
</g>
<g>
	<path id="bck_16_" class="st1" d="M2137.5,670.5h-668.7c-8.6,0-15.6-7.1-15.6-15.9V86.4c0-8.8,7-15.9,15.6-15.9h668.7
		c8.6,0,15.6,7.1,15.6,15.9v568.2C2153.2,663.3,2146.2,670.5,2137.5,670.5z"/>
	<g>
		<g>
			<g>
				<circle class="st3" cx="2128.6" cy="94" r="7.4"/>
				<g>
					<line class="st4" x1="2124.9" y1="90.4" x2="2132.4" y2="97.9"/>
					<line class="st4" x1="2124.9" y1="97.9" x2="2132.4" y2="90.4"/>
				</g>
			</g>
		</g>
		<g>
			<circle class="st5" cx="2103.6" cy="94" r="7.4"/>
			<g>
				<g>
					<path class="st1" d="M2107.6,95.6h-8c-0.3,0-0.5-0.2-0.5-0.5s0.2-0.5,0.5-0.5h8c0.3,0,0.5,0.2,0.5,0.5S2107.8,95.6,2107.6,95.6
						z"/>
				</g>
			</g>
		</g>
	</g>
	<g>
		<path class="st2" d="M1917,164.6v-35.7c0-6.2,5-11.2,11.1-11.2h206c6.4,0,11.6,5.2,11.6,11.7v520.3c0,6.4-5.2,12.7-11.6,12.7
			h-661.9c-6.4,0-11.6-6.3-11.6-12.7V174.9c0-6.3,5-10.3,11.2-10.3H1917z"/>
		<path class="st2" d="M1688.9,164.6v-35.7c0-6.2-5-11.2-11.1-11.2h-205.5c-6.4,0-11.6,5.2-11.6,11.7v521.5
			c0,6.4,5.2,11.7,11.6,11.7h661.9c6.4,0,11.6-5.2,11.6-11.7V175.9c0-6.3-5-11.3-11.2-11.3H1688.9z"/>
		<path class="st0" d="M1916.8,164.6v-35.7c0-6.2-5-11.2-11.1-11.2h-205.1c-6.4,0-11.6,5.2-11.6,11.7v35.3h-217.6
			c-5.9,0-10.7,4.8-10.7,10.7v475.5c0,6.4,5.2,11.7,11.6,11.7h661.9c6.4,0,11.6-5.2,11.6-11.7V175.9c0-6.3-5-11.3-11.2-11.3H1916.8z
			"/>
	</g>
	<g>
		<text transform="matrix(1 0 0 1 1501.2327 99.8308)" class="st0 st13 st14">Settings</text>
		<g>
			<path class="st5" d="M1482.9,82.5c-1.4,0-2.7,0.2-4,0.7c-2.9,1.1-5.2,3.3-6.4,6.1c-1.2,2.8-1.3,5.9-0.2,8.8
				c1.7,4.5,6,7.5,10.8,7.5c1.4,0,2.7-0.2,4-0.7c2.9-1.1,5.2-3.3,6.4-6.1c1.2-2.8,1.3-5.9,0.2-8.8
				C1492,85.6,1487.6,82.5,1482.9,82.5z"/>
		</g>
		<path d="M1483,100.3c-0.6,0-1.2-0.4-1.4-0.9c-0.1-0.2-0.2-0.4-0.4-0.5c-0.1-0.1-0.2-0.1-0.3-0.1c-0.2,0-0.4,0-0.5,0.1
			c-0.2,0.1-0.4,0.1-0.6,0.1c-0.7,0-1.4-0.5-1.5-1.4c0-0.3,0-0.5,0.1-0.8c0.1-0.2,0.1-0.4,0.1-0.6c0-0.1-0.1-0.2-0.2-0.4
			c-0.1-0.1-0.3-0.2-0.5-0.3c-0.5-0.2-0.9-0.7-0.9-1.3c-0.1-0.6,0.3-1.3,0.9-1.5c0.3-0.1,0.5-0.3,0.6-0.4c0-0.1,0.1-0.1,0.1-0.2
			c0-0.2,0-0.4-0.1-0.6c-0.2-0.4-0.2-1,0.1-1.4c0.2-0.4,0.6-0.7,1.1-0.7c0.3,0,0.5,0,0.8,0.1c0.2,0.1,0.4,0.1,0.6,0.1
			c0.1,0,0.2,0,0.3-0.2c0.1-0.1,0.2-0.3,0.3-0.4c0.2-0.6,0.8-1,1.4-1c0.6,0,1.2,0.4,1.4,1c0.1,0.2,0.2,0.4,0.3,0.5
			c0.1,0.1,0.2,0.1,0.3,0.1c0.2,0,0.4,0,0.5-0.1c0.6-0.2,1.3-0.1,1.7,0.3c0.4,0.4,0.6,1.1,0.3,1.7c-0.1,0.2-0.1,0.3-0.1,0.5
			c0,0.1,0,0.3,0.2,0.5c0.1,0.1,0.3,0.2,0.4,0.2c0.6,0.2,0.9,0.8,0.9,1.4c0,0.6-0.4,1.2-1,1.4c-0.2,0.1-0.4,0.2-0.5,0.4
			c-0.1,0.1-0.1,0.2-0.1,0.3c0,0.2,0,0.4,0.1,0.5c0.2,0.6,0.2,1.1-0.2,1.6c-0.3,0.4-0.7,0.5-1.2,0.5l0,0c-0.1,0-0.2,0-0.3,0
			c-0.1,0-0.3-0.1-0.3-0.1c0,0-0.1,0-0.1,0c-0.2,0-0.3-0.1-0.5,0c-0.1,0-0.2,0-0.3,0.2c-0.1,0.1-0.2,0.3-0.3,0.5
			C1484.1,99.9,1483.5,100.2,1483,100.3L1483,100.3z M1480.9,97.8c0.4,0,0.7,0.1,0.9,0.3c0.2,0.2,0.4,0.5,0.6,0.8
			c0.1,0.2,0.4,0.4,0.6,0.4v0.4l0-0.4c0.2,0,0.5-0.2,0.6-0.4c0.1-0.3,0.3-0.5,0.5-0.7c0.3-0.3,0.5-0.4,0.8-0.4c0.3,0,0.5,0,0.8,0.1
			c0.1,0,0.1,0.1,0.2,0.1c0.1,0,0.1,0,0.1,0.1c0.3,0,0.5,0,0.7-0.2c0.2-0.2,0.2-0.5,0.1-0.7c-0.1-0.3-0.2-0.6-0.2-0.8
			c0-0.4,0.1-0.7,0.3-0.9c0.2-0.2,0.5-0.4,0.8-0.6c0.2-0.1,0.4-0.4,0.4-0.6c0-0.3-0.2-0.5-0.4-0.6c-0.2-0.1-0.5-0.2-0.6-0.4
			c-0.4-0.3-0.5-0.7-0.5-1.1c0-0.3,0.1-0.6,0.2-0.9c0.1-0.3,0.1-0.6-0.1-0.8c-0.2-0.2-0.5-0.2-0.8-0.1c-0.3,0.1-0.6,0.2-0.9,0.2h0
			c-0.4,0-0.7-0.1-0.9-0.4c-0.2-0.2-0.4-0.5-0.5-0.8c-0.1-0.2-0.4-0.4-0.6-0.4c-0.3,0-0.5,0.2-0.6,0.4c-0.1,0.3-0.2,0.5-0.4,0.7
			c-0.2,0.2-0.5,0.4-0.9,0.5c-0.4,0-0.7,0-1.1-0.2c-0.1,0-0.2-0.1-0.4-0.1c-0.3,0-0.4,0.2-0.5,0.3c-0.1,0.2-0.1,0.4,0,0.6
			c0.1,0.3,0.2,0.7,0.2,1.1c0,0.2-0.1,0.4-0.2,0.6c-0.2,0.3-0.5,0.6-1,0.7c-0.2,0.1-0.4,0.4-0.4,0.6c0,0.3,0.2,0.5,0.4,0.6
			c0.3,0.1,0.5,0.3,0.7,0.5c0.3,0.3,0.4,0.6,0.4,0.9c0,0.3-0.1,0.6-0.2,0.9c0,0.1-0.1,0.2,0,0.3c0,0.5,0.4,0.6,0.7,0.6
			c0.1,0,0.2,0,0.3-0.1C1480.2,97.9,1480.5,97.8,1480.9,97.8z M1483,96.6c-0.7,0-1.3-0.3-1.8-0.7c-0.5-0.5-0.7-1.1-0.7-1.8
			c0-1.4,1.1-2.5,2.5-2.5h0c0.7,0,1.3,0.3,1.8,0.7c0.5,0.5,0.7,1.1,0.7,1.8C1485.5,95.5,1484.3,96.6,1483,96.6z M1483,92v0.4
			c-0.9,0-1.7,0.7-1.7,1.7c0,0.4,0.2,0.9,0.5,1.2c0.3,0.3,0.7,0.5,1.2,0.5c0.9,0,1.7-0.7,1.7-1.7c0-0.4-0.2-0.9-0.5-1.2
			c-0.3-0.3-0.7-0.5-1.2-0.5L1483,92z"/>
	</g>
	<g>
		<text transform="matrix(1 0 0 1 1547.7971 137.9937)"><tspan x="0" y="0" class="st0 st15 st16">Account </tspan><tspan x="-14.3" y="16.8" class="st0 st15 st16">Configuration</tspan></text>
	</g>
	<g>
		<text transform="matrix(1 0 0 1 1783.033 137.9937)"><tspan x="0" y="0" class="st6 st13 st16">World </tspan><tspan x="-22.9" y="16.8" class="st6 st13 st16">Configuration</tspan></text>
	</g>
	<g>
		<g>
			<g>
				<path class="st1" d="M2093.8,622.2h-46.8c-5,0-9.1-4.1-9.1-9.1v-1.8c0-5,4.1-9.1,9.1-9.1h46.8c5,0,9.1,4.1,9.1,9.1v1.8
					C2102.8,618.1,2098.8,622.2,2093.8,622.2z"/>
			</g>
		</g>
		<g>
			<text transform="matrix(1 0 0 1 2058.5652 615.7371)" class="st0 st17 st18">Visit</text>
		</g>
		<g>
			<g>
				<path class="st1" d="M2022.4,622.2h-46.8c-5,0-9.1-4.1-9.1-9.1v-1.8c0-5,4.1-9.1,9.1-9.1h46.8c5,0,9.1,4.1,9.1,9.1v1.8
					C2031.5,618.1,2027.4,622.2,2022.4,622.2z"/>
			</g>
		</g>
		<g>
			<text transform="matrix(1 0 0 1 1989.4158 615.7371)" class="st0 st17 st18">Diff</text>
		</g>
		<g>
			<g>
				<g>
					<path class="st1" d="M1952.2,622.2h-46.8c-5,0-9.1-4.1-9.1-9.1v-1.8c0-5,4.1-9.1,9.1-9.1h46.8c5,0,9.1,4.1,9.1,9.1v1.8
						C1961.3,618.1,1957.3,622.2,1952.2,622.2z"/>
				</g>
			</g>
		</g>
		<g>
			<text transform="matrix(1 0 0 1 1911.8259 615.7371)" class="st0 st17 st18">Revert</text>
		</g>
	</g>
	<g>
		<path class="st7" d="M2095.9,581.7h-585c-5.5,0-9.9-4.5-9.9-9.9V276c0-5.5,4.5-9.9,9.9-9.9h585c5.5,0,9.9,4.5,9.9,9.9v295.8
			C2105.8,577.2,2101.4,581.7,2095.9,581.7z"/>
		<g>
			<text transform="matrix(1 0 0 1 1516.8713 288.7124)"><tspan x="0" y="0" class="st6 st17 st18">Lorem -  15/05/14 09:39 am (ipsum dolorsit amet) </tspan><tspan x="0" y="20" class="st6 st17 st18">Aliquam tincidunt - 15/05/14 09:39 am (ipsum dolorsit amet) </tspan><tspan x="0" y="40" class="st6 st17 st18">Vestibulum - 15/05/14 09:39 am (ipsum dolorsit amet) </tspan><tspan x="0" y="60" class="st6 st17 st18">Nunc dignissim risus - 15/05/14 09:39 am (ipsumamet) </tspan><tspan x="0" y="80" class="st6 st17 st18">Lorem -  15/05/14 09:39 am (ipsum dolorsit amet) </tspan><tspan x="0" y="100" class="st6 st17 st18">Aliquam tincidunt - 15/05/14 09:39 am (ipsum dolorsit amet) </tspan><tspan x="0" y="120" class="st6 st17 st18">Vestibulum - 15/05/14 09:39 am (ipsum dolorsit amet) </tspan><tspan x="0" y="140" class="st6 st17 st18">Nunc dignissim risus - 15/05/14 09:39 am (ipsumamet) </tspan><tspan x="0" y="160" class="st6 st17 st18">Lorem -  15/05/14 09:39 am (ipsum dolorsit amet) </tspan><tspan x="0" y="180" class="st6 st17 st18">Aliquam tincidunt - 15/05/14 09:39 am (ipsum dolorsit amet) </tspan><tspan x="0" y="200" class="st6 st17 st18">Vestibulum - 15/05/14 09:39 am (ipsum dolorsit amet) </tspan><tspan x="0" y="220" class="st6 st17 st18">Nunc dignissim risus - 15/05/14 09:39 am (ipsumamet) </tspan><tspan x="0" y="240" class="st6 st17 st18">Lorem -  15/05/14 09:39 am (ipsum dolorsit amet) </tspan><tspan x="0" y="260" class="st6 st17 st18">Aliquam tincidunt - 15/05/14 09:39 am (ipsum dolorsit amet) </tspan><tspan x="0" y="280" class="st6 st17 st18">Vestibulum - 15/05/14 09:39 am (ipsum dolorsit amet)</tspan></text>
		</g>
		<g>
			<g>
				<g>
					<g>
						<g>
							<path class="st0" d="M2090.4,569.1V278.6c0-2,1.7-3.7,3.7-3.7h0.6c2,0,3.7,1.7,3.7,3.7v290.5c0,2-1.7,3.7-3.7,3.7h-0.6
								C2092.1,572.8,2090.4,571.1,2090.4,569.1z"/>
						</g>
					</g>
				</g>
			</g>
			<g>
				<g>
					<g>
						<path class="st5" d="M2091.5,343.9v-43.5c0-1.5,1.2-2.7,2.7-2.7h0.4c1.5,0,2.7,1.2,2.7,2.7v43.5c0,1.5-1.2,2.7-2.7,2.7h-0.4
							C2092.7,346.6,2091.5,345.4,2091.5,343.9z"/>
					</g>
				</g>
			</g>
		</g>
		<g>
			<g>
				<path class="st3" d="M2078.1,514.5h-560.2c-5.1,0-9.3-4.2-9.3-9.3v-1.4c0-5.1,4.2-9.3,9.3-9.3h560.2c5.1,0,9.3,4.2,9.3,9.3v1.4
					C2087.4,510.4,2083.2,514.5,2078.1,514.5z"/>
			</g>
		</g>
	</g>
	<g>
		<text transform="matrix(1 0 0 1 1993.4163 146.4063)" class="st0 st15 st16">Preferences</text>
	</g>
	<g>
		<g>
			<g>
				<g>
					<path class="st7" d="M1602.4,224.6h-92.3c-5,0-9.1-4.1-9.1-9.1v-1.8c0-5,4.1-9.1,9.1-9.1h92.3c5,0,9.1,4.1,9.1,9.1v1.8
						C1611.5,220.5,1607.4,224.6,1602.4,224.6z"/>
				</g>
			</g>
			<g>
				<text transform="matrix(1 0 0 1 1508.8608 218.0631)" class="st6 st17 st18">World Description</text>
			</g>
		</g>
		<g>
			<g>
				<g>
					<path class="st3" d="M1719.1,224.6h-92.3c-5,0-9.1-4.1-9.1-9.1v-1.8c0-5,4.1-9.1,9.1-9.1l92.3,0c5,0,9.1,4.1,9.1,9.1v1.8
						C1728.2,220.5,1724.1,224.6,1719.1,224.6z"/>
				</g>
			</g>
			<g>
				<text transform="matrix(1 0 0 1 1632.6472 218.0638)" class="st0 st17 st18">World Versions</text>
			</g>
		</g>
		<g>
			<g>
				<g>
					<path class="st7" d="M1835.8,224.6h-92.3c-5,0-9.1-4.1-9.1-9.1v-1.8c0-5,4.1-9.1,9.1-9.1l92.3,0c5,0,9.1,4.1,9.1,9.1v1.8
						C1844.9,220.5,1840.8,224.6,1835.8,224.6z"/>
				</g>
			</g>
			<g>
				<text transform="matrix(1 0 0 1 1749.4526 218.0632)" class="st6 st17 st18">Activity History</text>
			</g>
		</g>
	</g>
	<rect x="1446.4" y="38.2" class="st19" width="711.1" height="680.2"/>
	<g>
		<g>
			<g>
				<path class="st1" d="M1921.1,321.4c0-3.8-2.9-6.9-6.5-6.9h-223.1c-3.6,0-6.5,3.1-6.5,6.9v97.3c0,3.8,2.9,6.9,6.5,6.9h223.1
					c3.6,0,6.5-3.1,6.5-6.9V321.4z"/>
				<path class="st0" d="M1914.2,421.3h-221.9c-1.9,0-3.4-1.5-3.4-3.4v-95.8c0-1.9,1.5-3.4,3.4-3.4h221.9c1.9,0,3.4,1.5,3.4,3.4V418
					C1917.5,419.8,1916,421.3,1914.2,421.3z"/>
			</g>
			<g>
				<text transform="matrix(1 0 0 1 1700.0851 352.9019)"><tspan x="0" y="0" class="st6 st17 st18">Do you really want to revert blank.html </tspan><tspan x="0" y="14.4" class="st6 st17 st18">to its version from 15/06/01 01:05:33?</tspan></text>
			</g>
		</g>
		<g>
			<g>
				<g>
					<path class="st3" d="M1861.6,406.9h-46.8c-5,0-9.1-4.1-9.1-9.1V396c0-5,4.1-9.1,9.1-9.1h46.8c5,0,9.1,4.1,9.1,9.1v1.8
						C1870.7,402.8,1866.6,406.9,1861.6,406.9z"/>
				</g>
			</g>
			<g>
				<text transform="matrix(1 0 0 1 1830.303 400.4041)" class="st0 st17 st18">OK</text>
			</g>
			<g>
				<g>
					<path class="st1" d="M1791.6,406.9h-46.8c-5,0-9.1-4.1-9.1-9.1V396c0-5,4.1-9.1,9.1-9.1h46.8c5,0,9.1,4.1,9.1,9.1v1.8
						C1800.7,402.8,1796.6,406.9,1791.6,406.9z"/>
				</g>
			</g>
			<g>
				<text transform="matrix(1 0 0 1 1749.9377 400.4041)" class="st0 st17 st18">Cancel</text>
			</g>
		</g>
	</g>
	<g>
		<g>
			<polygon class="st20" points="1866.3,407.8 1858,400.9 1859.3,411.7 1862,410.2 1864.9,415.5 1865.8,415 1862.9,409.7 			"/>
			<polygon points="1866.3,407.8 1858,400.9 1859.3,411.7 1862,410.2 1864.9,415.5 1865.8,415 1862.9,409.7 			"/>
		</g>
	</g>
</g>
<g>
	<path id="bck_14_" class="st1" d="M1423.5,669.2H754.8c-8.6,0-15.6-7.1-15.6-15.9V85.1c0-8.8,7-15.9,15.6-15.9h668.7
		c8.6,0,15.6,7.1,15.6,15.9v568.2C1439.2,662.1,1432.2,669.2,1423.5,669.2z"/>
	<g>
		<path class="st2" d="M1203,164.6v-35.7c0-6.2,5-11.2,11.1-11.2h206c6.4,0,11.6,5.2,11.6,11.7v520.3c0,6.4-5.2,12.7-11.6,12.7
			H758.3c-6.4,0-11.6-6.3-11.6-12.7V174.9c0-6.3,5-10.3,11.2-10.3H1203z"/>
		<path class="st2" d="M974.9,164.6v-35.7c0-6.2-5-11.2-11.1-11.2H758.3c-6.4,0-11.6,5.2-11.6,11.7v521.5c0,6.4,5.2,11.7,11.6,11.7
			h661.9c6.4,0,11.6-5.2,11.6-11.7V175.9c0-6.3-5-11.3-11.2-11.3H974.9z"/>
		<path class="st0" d="M1202.8,164.6v-35.7c0-6.2-5-11.2-11.1-11.2H986.6c-6.4,0-11.6,5.2-11.6,11.7v35.3H757.4
			c-5.9,0-10.7,4.8-10.7,10.7v475.5c0,6.4,5.2,11.7,11.6,11.7h661.9c6.4,0,11.6-5.2,11.6-11.7V175.9c0-6.3-5-11.3-11.2-11.3H1202.8z
			"/>
	</g>
	<g>
		<text transform="matrix(1 0 0 1 787.2327 99.8308)" class="st0 st13 st14">Settings</text>
		<g>
			<path class="st5" d="M768.9,82.5c-1.4,0-2.7,0.2-4,0.7c-2.9,1.1-5.2,3.3-6.4,6.1c-1.2,2.8-1.3,5.9-0.2,8.8
				c1.7,4.5,6,7.5,10.8,7.5c1.4,0,2.7-0.2,4-0.7c2.9-1.1,5.2-3.3,6.4-6.1c1.2-2.8,1.3-5.9,0.2-8.8C778,85.6,773.6,82.5,768.9,82.5z"
				/>
		</g>
		<path d="M769,100.3c-0.6,0-1.2-0.4-1.4-0.9c-0.1-0.2-0.2-0.4-0.4-0.5c-0.1-0.1-0.2-0.1-0.3-0.1c-0.2,0-0.4,0-0.5,0.1
			c-0.2,0.1-0.4,0.1-0.6,0.1c-0.7,0-1.4-0.5-1.5-1.4c0-0.3,0-0.5,0.1-0.8c0.1-0.2,0.1-0.4,0.1-0.6c0-0.1-0.1-0.2-0.2-0.4
			c-0.1-0.1-0.3-0.2-0.5-0.3c-0.5-0.2-0.9-0.7-0.9-1.3c-0.1-0.6,0.3-1.3,0.9-1.5c0.3-0.1,0.5-0.3,0.6-0.4c0-0.1,0.1-0.1,0.1-0.2
			c0-0.2,0-0.4-0.1-0.6c-0.2-0.4-0.2-1,0.1-1.4c0.2-0.4,0.6-0.7,1.1-0.7c0.3,0,0.5,0,0.8,0.1c0.2,0.1,0.4,0.1,0.6,0.1
			c0.1,0,0.2,0,0.3-0.2c0.1-0.1,0.2-0.3,0.3-0.4c0.2-0.6,0.8-1,1.4-1c0.6,0,1.2,0.4,1.4,1c0.1,0.2,0.2,0.4,0.3,0.5
			c0.1,0.1,0.2,0.1,0.3,0.1c0.2,0,0.4,0,0.5-0.1c0.6-0.2,1.3-0.1,1.7,0.3c0.4,0.4,0.6,1.1,0.3,1.7c-0.1,0.2-0.1,0.3-0.1,0.5
			c0,0.1,0,0.3,0.2,0.5c0.1,0.1,0.3,0.2,0.4,0.2c0.6,0.2,0.9,0.8,0.9,1.4c0,0.6-0.4,1.2-1,1.4c-0.2,0.1-0.4,0.2-0.5,0.4
			c-0.1,0.1-0.1,0.2-0.1,0.3c0,0.2,0,0.4,0.1,0.5c0.2,0.6,0.2,1.1-0.2,1.6c-0.3,0.4-0.7,0.5-1.2,0.5l0,0c-0.1,0-0.2,0-0.3,0
			c-0.1,0-0.3-0.1-0.3-0.1c0,0-0.1,0-0.1,0c-0.2,0-0.3-0.1-0.5,0c-0.1,0-0.2,0-0.3,0.2c-0.1,0.1-0.2,0.3-0.3,0.5
			C770.1,99.9,769.5,100.2,769,100.3L769,100.3z M766.9,97.8c0.4,0,0.7,0.1,0.9,0.3c0.2,0.2,0.4,0.5,0.6,0.8
			c0.1,0.2,0.4,0.4,0.6,0.4v0.4l0-0.4c0.2,0,0.5-0.2,0.6-0.4c0.1-0.3,0.3-0.5,0.5-0.7c0.3-0.3,0.5-0.4,0.8-0.4c0.3,0,0.5,0,0.8,0.1
			c0.1,0,0.1,0.1,0.2,0.1c0.1,0,0.1,0,0.1,0.1c0.3,0,0.5,0,0.7-0.2c0.2-0.2,0.2-0.5,0.1-0.7c-0.1-0.3-0.2-0.6-0.2-0.8
			c0-0.4,0.1-0.7,0.3-0.9c0.2-0.2,0.5-0.4,0.8-0.6c0.2-0.1,0.4-0.4,0.4-0.6c0-0.3-0.2-0.5-0.4-0.6c-0.2-0.1-0.5-0.2-0.6-0.4
			c-0.4-0.3-0.5-0.7-0.5-1.1c0-0.3,0.1-0.6,0.2-0.9c0.1-0.3,0.1-0.6-0.1-0.8c-0.2-0.2-0.5-0.2-0.8-0.1c-0.3,0.1-0.6,0.2-0.9,0.2h0
			c-0.4,0-0.7-0.1-0.9-0.4c-0.2-0.2-0.4-0.5-0.5-0.8c-0.1-0.2-0.4-0.4-0.6-0.4c-0.3,0-0.5,0.2-0.6,0.4c-0.1,0.3-0.2,0.5-0.4,0.7
			c-0.2,0.2-0.5,0.4-0.9,0.5c-0.4,0-0.7,0-1.1-0.2c-0.1,0-0.2-0.1-0.4-0.1c-0.3,0-0.4,0.2-0.5,0.3c-0.1,0.2-0.1,0.4,0,0.6
			c0.1,0.3,0.2,0.7,0.2,1.1c0,0.2-0.1,0.4-0.2,0.6c-0.2,0.3-0.5,0.6-1,0.7c-0.2,0.1-0.4,0.4-0.4,0.6c0,0.3,0.2,0.5,0.4,0.6
			c0.3,0.1,0.5,0.3,0.7,0.5c0.3,0.3,0.4,0.6,0.4,0.9c0,0.3-0.1,0.6-0.2,0.9c0,0.1-0.1,0.2,0,0.3c0,0.5,0.4,0.6,0.7,0.6
			c0.1,0,0.2,0,0.3-0.1C766.2,97.9,766.5,97.8,766.9,97.8z M769,96.6c-0.7,0-1.3-0.3-1.8-0.7c-0.5-0.5-0.7-1.1-0.7-1.8
			c0-1.4,1.1-2.5,2.5-2.5h0c0.7,0,1.3,0.3,1.8,0.7c0.5,0.5,0.7,1.1,0.7,1.8C771.5,95.5,770.3,96.6,769,96.6z M769,92v0.4
			c-0.9,0-1.7,0.7-1.7,1.7c0,0.4,0.2,0.9,0.5,1.2c0.3,0.3,0.7,0.5,1.2,0.5c0.9,0,1.7-0.7,1.7-1.7c0-0.4-0.2-0.9-0.5-1.2
			c-0.3-0.3-0.7-0.5-1.2-0.5L769,92z"/>
	</g>
	<g>
		<text transform="matrix(1 0 0 1 833.7971 137.9937)"><tspan x="0" y="0" class="st0 st15 st16">Account </tspan><tspan x="-14.3" y="16.8" class="st0 st15 st16">Configuration</tspan></text>
	</g>
	<g>
		<text transform="matrix(1 0 0 1 1069.033 137.9937)"><tspan x="0" y="0" class="st6 st13 st16">World </tspan><tspan x="-22.9" y="16.8" class="st6 st13 st16">Configuration</tspan></text>
	</g>
	<g>
		<g>
			<g>
				<path class="st1" d="M1379.8,622.2h-46.8c-5,0-9.1-4.1-9.1-9.1v-1.8c0-5,4.1-9.1,9.1-9.1h46.8c5,0,9.1,4.1,9.1,9.1v1.8
					C1388.8,618.1,1384.8,622.2,1379.8,622.2z"/>
			</g>
		</g>
		<g>
			<text transform="matrix(1 0 0 1 1344.5652 615.7371)" class="st0 st17 st18">Visit</text>
		</g>
		<g>
			<g>
				<path class="st1" d="M1308.4,622.2h-46.8c-5,0-9.1-4.1-9.1-9.1v-1.8c0-5,4.1-9.1,9.1-9.1h46.8c5,0,9.1,4.1,9.1,9.1v1.8
					C1317.5,618.1,1313.4,622.2,1308.4,622.2z"/>
			</g>
		</g>
		<g>
			<text transform="matrix(1 0 0 1 1275.4158 615.7371)" class="st0 st17 st18">Diff</text>
		</g>
		<g>
			<g>
				<g>
					<path class="st1" d="M1238.2,622.2h-46.8c-5,0-9.1-4.1-9.1-9.1v-1.8c0-5,4.1-9.1,9.1-9.1h46.8c5,0,9.1,4.1,9.1,9.1v1.8
						C1247.3,618.1,1243.3,622.2,1238.2,622.2z"/>
				</g>
			</g>
		</g>
		<g>
			<text transform="matrix(1 0 0 1 1197.8259 615.7371)" class="st0 st17 st18">Revert</text>
		</g>
	</g>
	<g>
		<text transform="matrix(1 0 0 1 1279.4163 146.4063)" class="st0 st15 st16">Preferences</text>
	</g>
	<g>
		<g>
			<g>
				<circle class="st3" cx="1414.6" cy="94" r="7.4"/>
				<g>
					<line class="st4" x1="1410.9" y1="90.4" x2="1418.4" y2="97.9"/>
					<line class="st4" x1="1410.9" y1="97.9" x2="1418.4" y2="90.4"/>
				</g>
			</g>
		</g>
		<g>
			<circle class="st5" cx="1389.6" cy="94" r="7.4"/>
			<g>
				<g>
					<path class="st1" d="M1393.6,95.6h-8c-0.3,0-0.5-0.2-0.5-0.5s0.2-0.5,0.5-0.5h8c0.3,0,0.5,0.2,0.5,0.5S1393.8,95.6,1393.6,95.6
						z"/>
				</g>
			</g>
		</g>
	</g>
	<g>
		<g>
			<g>
				<g>
					<path class="st7" d="M888.4,224.6h-92.3c-5,0-9.1-4.1-9.1-9.1v-1.8c0-5,4.1-9.1,9.1-9.1h92.3c5,0,9.1,4.1,9.1,9.1v1.8
						C897.5,220.5,893.4,224.6,888.4,224.6z"/>
				</g>
			</g>
			<g>
				<text transform="matrix(1 0 0 1 794.8608 218.0631)" class="st6 st17 st18">World Description</text>
			</g>
		</g>
		<g>
			<g>
				<g>
					<path class="st3" d="M1005.1,224.6h-92.3c-5,0-9.1-4.1-9.1-9.1v-1.8c0-5,4.1-9.1,9.1-9.1l92.3,0c5,0,9.1,4.1,9.1,9.1v1.8
						C1014.2,220.5,1010.1,224.6,1005.1,224.6z"/>
				</g>
			</g>
			<g>
				<text transform="matrix(1 0 0 1 918.6472 218.0638)" class="st0 st17 st18">World Versions</text>
			</g>
		</g>
		<g>
			<g>
				<g>
					<path class="st7" d="M1121.8,224.6h-92.3c-5,0-9.1-4.1-9.1-9.1v-1.8c0-5,4.1-9.1,9.1-9.1l92.3,0c5,0,9.1,4.1,9.1,9.1v1.8
						C1130.9,220.5,1126.8,224.6,1121.8,224.6z"/>
				</g>
			</g>
			<g>
				<text transform="matrix(1 0 0 1 1035.4526 218.0632)" class="st6 st17 st18">Activity History</text>
			</g>
		</g>
	</g>
	<g>
		<path class="st7" d="M1381.9,581.7h-585c-5.5,0-9.9-4.5-9.9-9.9V276c0-5.5,4.5-9.9,9.9-9.9h585c5.5,0,9.9,4.5,9.9,9.9v295.8
			C1391.8,577.2,1387.4,581.7,1381.9,581.7z"/>
		<g>
			<g>
				<g>
					<g>
						<g>
							<path class="st0" d="M1376.4,569.1V278.6c0-2,1.7-3.7,3.7-3.7h0.5c2,0,3.7,1.7,3.7,3.7v290.5c0,2-1.7,3.7-3.7,3.7h-0.5
								C1378.1,572.8,1376.4,571.1,1376.4,569.1z"/>
						</g>
					</g>
				</g>
			</g>
			<g>
				<g>
					<g>
						<path class="st5" d="M1377.5,343.9v-43.5c0-1.5,1.2-2.7,2.7-2.7h0.4c1.5,0,2.7,1.2,2.7,2.7v43.5c0,1.5-1.2,2.7-2.7,2.7h-0.4
							C1378.7,346.6,1377.5,345.4,1377.5,343.9z"/>
					</g>
				</g>
			</g>
		</g>
		<g>
			<g>
				<path class="st3" d="M1364.1,514.5H803.9c-5.1,0-9.3-4.2-9.3-9.3v-1.4c0-5.1,4.2-9.3,9.3-9.3h560.2c5.1,0,9.3,4.2,9.3,9.3v1.4
					C1373.4,510.4,1369.2,514.5,1364.1,514.5z"/>
			</g>
		</g>
		<g>
			<text transform="matrix(1 0 0 1 802.8713 288.7124)"><tspan x="0" y="0" class="st6 st17 st18">Lorem -  15/05/14 09:39 am (ipsum dolorsit amet) </tspan><tspan x="0" y="20" class="st6 st17 st18">Aliquam tincidunt - 15/05/14 09:39 am (ipsum dolorsit amet) </tspan><tspan x="0" y="40" class="st6 st17 st18">Vestibulum - 15/05/14 09:39 am (ipsum dolorsit amet) </tspan><tspan x="0" y="60" class="st6 st17 st18">Nunc dignissim risus - 15/05/14 09:39 am (ipsumamet) </tspan><tspan x="0" y="80" class="st6 st17 st18">Lorem -  15/05/14 09:39 am (ipsum dolorsit amet) </tspan><tspan x="0" y="100" class="st6 st17 st18">Aliquam tincidunt - 15/05/14 09:39 am (ipsum dolorsit amet) </tspan><tspan x="0" y="120" class="st6 st17 st18">Vestibulum - 15/05/14 09:39 am (ipsum dolorsit amet) </tspan><tspan x="0" y="140" class="st6 st17 st18">Nunc dignissim risus - 15/05/14 09:39 am (ipsumamet) </tspan><tspan x="0" y="160" class="st6 st17 st18">Lorem -  15/05/14 09:39 am (ipsum dolorsit amet) </tspan><tspan x="0" y="180" class="st6 st17 st18">Aliquam tincidunt - 15/05/14 09:39 am (ipsum dolorsit amet) </tspan><tspan x="0" y="200" class="st6 st17 st18">Vestibulum - 15/05/14 09:39 am (ipsum dolorsit amet) </tspan><tspan x="0" y="220" class="st0 st17 st18">Nunc dignissim risus - 15/05/14 09:39 am (ipsumamet) </tspan><tspan x="0" y="240" class="st6 st17 st18">Lorem -  15/05/14 09:39 am (ipsum dolorsit amet) </tspan><tspan x="0" y="260" class="st6 st17 st18">Aliquam tincidunt - 15/05/14 09:39 am (ipsum dolorsit amet) </tspan><tspan x="0" y="280" class="st6 st17 st18">Vestibulum - 15/05/14 09:39 am (ipsum dolorsit amet)</tspan></text>
		</g>
	</g>
</g>
</svg>
