<?xml version="1.0" encoding="utf-8"?>
<!-- Generator: Adobe Illustrator 19.1.0, SVG Export Plug-In . SVG Version: 6.00 Build 0)  -->
<svg version="1.1" id="Layer_1" xmlns="http://www.w3.org/2000/svg" xmlns:xlink="http://www.w3.org/1999/xlink" x="0px" y="0px"
	 viewBox="0 0 2157.4 675.2" style="enable-background:new 0 0 2157.4 675.2;" xml:space="preserve">
<style type="text/css">
	.st0{fill:#FFFFFF;}
	.st1{font-family:'MyriadPro-Bold';}
	.st2{font-size:30.1109px;}
	.st3{fill:#4D4D4D;}
	.st4{fill:#808080;stroke:#4D4D4D;stroke-width:0.2524;stroke-miterlimit:10;}
	.st5{fill:#F57C00;}
	.st6{fill:none;stroke:#FFFFFF;stroke-width:0.8981;stroke-linecap:round;stroke-linejoin:round;stroke-miterlimit:10;}
	.st7{fill:#CCCCCC;}
	.st8{fill:#808080;}
	.st9{fill:#F2F2F2;}
	.st10{fill:none;stroke:#F57C00;stroke-width:2;stroke-linecap:round;stroke-linejoin:round;stroke-miterlimit:10;}
	.st11{fill:#00FFFF;}
	.st12{fill:none;stroke:#00FFFF;stroke-miterlimit:10;}
	.st13{font-family:'Roboto-Medium';}
	.st14{font-size:16px;}
	.st15{font-size:14px;}
	.st16{font-family:'Roboto-Light';}
	.st17{font-family:'Roboto-Regular';}
	.st18{font-size:12px;}
	.st19{opacity:0.5;fill:#FFFFFF;}
	.st20{fill:none;stroke:#FFFFFF;stroke-width:2;stroke-linecap:round;stroke-linejoin:round;stroke-miterlimit:10;}
	.st21{fill:#39B54A;}
	.st22{fill:#FF1D25;}
	.st23{font-size:10px;}
</style>
<text transform="matrix(1 0 0 1 23.5818 34.254)" class="st1 st2">Settings Window - UI</text>
<g>
	<g>
		<path id="bck_2_" class="st3" d="M702.7,654.9H34c-8.6,0-15.6-7.1-15.6-15.9V70.9c0-8.8,7-15.9,15.6-15.9h668.7
			c8.6,0,15.6,7.1,15.6,15.9V639C718.4,647.8,711.4,654.9,702.7,654.9z"/>
		<g>
			<path class="st4" d="M482.2,149v-35.7c0-6.2,5-11.2,11.1-11.2h206c6.4,0,11.6,5.2,11.6,11.7v520.3c0,6.4-5.2,12.7-11.6,12.7H37.4
				c-6.4,0-11.6-6.3-11.6-12.7V159.4c0-6.3,5-10.3,11.2-10.3H482.2z"/>
			<path class="st4" d="M482,149v-35.7c0-6.2-5-11.2-11.1-11.2H265.7c-6.4,0-11.6,5.2-11.6,11.7V149H36.5c-5.9,0-10.7,4.8-10.7,10.7
				v475.5c0,6.4,5.2,11.7,11.6,11.7h661.9c6.4,0,11.6-5.2,11.6-11.7V160.4c0-6.3-5-11.3-11.2-11.3H482z"/>
			<path class="st0" d="M254.1,149v-35.7c0-6.2-5-11.2-11.1-11.2H37.4c-6.4,0-11.6,5.2-11.6,11.7v521.5c0,6.4,5.2,11.7,11.6,11.7
				h661.9c6.4,0,11.6-5.2,11.6-11.7V160.4c0-6.3-5-11.3-11.2-11.3H254.1z"/>
		</g>
	</g>
	<g>
		<text transform="matrix(1 0 0 1 66.406 84.283)" class="st0 st13 st14">Settings</text>
		<g>
			<path class="st7" d="M48,67c-1.4,0-2.7,0.2-4,0.7c-2.9,1.1-5.2,3.3-6.4,6.1c-1.2,2.8-1.3,5.9-0.2,8.8c1.7,4.5,6,7.5,10.8,7.5
				c1.4,0,2.7-0.2,4-0.7c2.9-1.1,5.2-3.3,6.4-6.1c1.2-2.8,1.3-5.9,0.2-8.8C57.1,70,52.8,67,48,67z"/>
		</g>
	</g>
	<g>
		<text transform="matrix(1 0 0 1 112.3792 122.4465)"><tspan x="0" y="0" class="st8 st13 st15">Account </tspan><tspan x="-15.1" y="16.8" class="st8 st13 st15">Configuration</tspan></text>
	</g>
	<g>
		<text transform="matrix(1 0 0 1 559.8831 130.8591)" class="st0 st16 st15">Preferences</text>
	</g>
	<g>
		<text transform="matrix(1 0 0 1 348.5754 122.4465)"><tspan x="0" y="0" class="st0 st16 st15">World </tspan><tspan x="-22" y="16.8" class="st0 st16 st15">Configuration</tspan></text>
	</g>
	<g>
		<text transform="matrix(1 0 0 1 136.0777 243.4088)" class="st8 st17 st15">Username</text>
	</g>
	<g>
		<text transform="matrix(1 0 0 1 136.0777 277.8799)" class="st8 st17 st15">Email</text>
	</g>
	<g>
		<g>
			<g>
				<path class="st9" d="M661.1,249.3h-433c-5.5,0-10-4.5-10-10v0c0-5.5,4.5-10,10-10h433c5.5,0,10,4.5,10,10v0
					C671.1,244.8,666.6,249.3,661.1,249.3z"/>
			</g>
		</g>
	</g>
	<g>
		<g>
			<g>
				<path class="st9" d="M661.1,283.8h-433c-5.5,0-10-4.5-10-10v0c0-5.5,4.5-10,10-10h433c5.5,0,10,4.5,10,10v0
					C671.1,279.3,666.6,283.8,661.1,283.8z"/>
			</g>
		</g>
	</g>
	<g>
		<g>
			<g>
				<g>
					<path class="st9" d="M661.1,437.7h-433c-5.5,0-10-4.5-10-10l0,0c0-5.5,4.5-10,10-10h433c5.5,0,10,4.5,10,10l0,0
						C671.1,433.2,666.6,437.7,661.1,437.7z"/>
				</g>
			</g>
		</g>
		<g>
			<g>
				<g>
					<path class="st9" d="M661.1,472.1h-433c-5.5,0-10-4.5-10-10v0c0-5.5,4.5-10,10-10h433c5.5,0,10,4.5,10,10v0
						C671.1,467.6,666.6,472.1,661.1,472.1z"/>
				</g>
			</g>
		</g>
		<g>
			<g>
				<g>
					<path class="st9" d="M661.1,506.6h-433c-5.5,0-10-4.5-10-10v0c0-5.5,4.5-10,10-10h433c5.5,0,10,4.5,10,10v0
						C671.1,502.1,666.6,506.6,661.1,506.6z"/>
				</g>
			</g>
		</g>
		<g>
			<text transform="matrix(1 0 0 1 66.0777 369.9546)" class="st5 st13 st15">Update Password</text>
		</g>
		<g>
			<text transform="matrix(1 0 0 1 66.0774 431.7452)" class="st8 st17 st15">Current Password</text>
		</g>
		<g>
			<text transform="matrix(1 0 0 1 66.0774 466.2163)" class="st8 st17 st15">New Password</text>
		</g>
		<g>
			<text transform="matrix(1 0 0 1 66.0774 500.6879)" class="st8 st17 st15">Retype </text>
		</g>
		<line class="st10" x1="66.1" y1="380.8" x2="669.1" y2="380.8"/>
	</g>
	<g>
		<g>
			<g>
				<path class="st9" d="M656.9,607H610c-5,0-9.1-4.1-9.1-9.1v-1.8c0-5,4.1-9.1,9.1-9.1h46.8c5,0,9.1,4.1,9.1,9.1v1.8
					C666,602.9,661.9,607,656.9,607z"/>
			</g>
		</g>
		<g>
			<text transform="matrix(1 0 0 1 619.6179 601.1392)" class="st7 st17 st18">Save</text>
		</g>
	</g>
	<path class="st3" d="M48.1,85.4c-0.7,0-1.3-0.4-1.6-1.1c-0.1-0.2-0.2-0.4-0.4-0.6c-0.1-0.1-0.2-0.1-0.4-0.1c-0.2,0-0.4,0-0.6,0.1
		c-0.2,0.1-0.5,0.2-0.7,0.2c-0.8,0-1.6-0.5-1.7-1.5c0-0.3,0-0.6,0.1-0.8c0.1-0.2,0.1-0.4,0.1-0.7c0-0.1-0.1-0.3-0.2-0.4
		c-0.1-0.1-0.3-0.3-0.5-0.3c-0.6-0.2-1-0.7-1-1.4c-0.1-0.7,0.4-1.4,1-1.7c0.3-0.1,0.5-0.3,0.7-0.5c0-0.1,0.1-0.1,0.1-0.2
		c0-0.3,0-0.5-0.1-0.7c-0.2-0.5-0.2-1.1,0.1-1.5c0.3-0.5,0.7-0.8,1.3-0.8c0.3,0,0.6,0,0.9,0.1c0.2,0.1,0.5,0.1,0.7,0.1
		c0.1,0,0.2,0,0.4-0.2c0.1-0.1,0.2-0.3,0.3-0.5c0.3-0.6,0.9-1.1,1.6-1.1c0.7,0,1.3,0.4,1.6,1.1c0.1,0.2,0.2,0.4,0.4,0.6
		c0.1,0.1,0.2,0.1,0.4,0.1c0.2,0,0.4,0,0.6-0.1c0.6-0.3,1.4-0.1,1.9,0.3c0.5,0.5,0.6,1.2,0.4,1.9c-0.1,0.2-0.1,0.4-0.1,0.6
		c0,0.1,0,0.3,0.3,0.5c0.1,0.1,0.3,0.2,0.5,0.3c0.6,0.3,1.1,0.9,1.1,1.6c0,0.7-0.4,1.3-1.1,1.6c-0.2,0.1-0.4,0.2-0.6,0.4
		c-0.1,0.1-0.1,0.2-0.1,0.4c0,0.2,0,0.4,0.1,0.6c0.3,0.6,0.2,1.3-0.2,1.8c-0.3,0.4-0.8,0.6-1.3,0.6l0,0c-0.1,0-0.2,0-0.3,0
		c-0.2,0-0.3-0.1-0.4-0.1c0,0-0.1,0-0.1-0.1c-0.2-0.1-0.4-0.1-0.6-0.1c-0.1,0-0.2,0-0.3,0.2c-0.1,0.1-0.2,0.3-0.3,0.5
		C49.4,85,48.8,85.4,48.1,85.4L48.1,85.4z M45.8,82.7c0.4,0,0.7,0.1,1,0.4c0.3,0.3,0.5,0.6,0.6,0.9c0.1,0.3,0.4,0.5,0.7,0.5v0.5
		l0-0.5c0.3,0,0.6-0.2,0.7-0.5c0.1-0.3,0.3-0.6,0.5-0.8c0.3-0.3,0.6-0.5,0.9-0.5c0.3,0,0.6,0,0.9,0.1c0.1,0,0.2,0.1,0.2,0.1
		c0.1,0,0.1,0.1,0.2,0.1c0.3,0.1,0.6,0,0.8-0.2c0.2-0.3,0.2-0.5,0.1-0.8c-0.1-0.3-0.2-0.6-0.2-0.9c0-0.4,0.1-0.8,0.4-1
		c0.3-0.3,0.6-0.5,0.9-0.6c0.3-0.1,0.5-0.4,0.5-0.7c0-0.3-0.2-0.6-0.5-0.7c-0.3-0.1-0.5-0.3-0.7-0.4c-0.4-0.3-0.6-0.8-0.6-1.3
		c0-0.3,0.1-0.7,0.2-0.9c0.1-0.3,0.1-0.6-0.1-0.8c-0.2-0.2-0.6-0.3-0.8-0.1c-0.3,0.1-0.6,0.2-1,0.2h0c-0.4,0-0.8-0.1-1-0.4
		c-0.3-0.3-0.5-0.6-0.6-0.9c-0.1-0.3-0.4-0.5-0.7-0.5c-0.3,0-0.6,0.2-0.7,0.5c-0.1,0.3-0.3,0.5-0.5,0.7c-0.2,0.2-0.5,0.5-1,0.5
		c-0.4,0-0.8,0-1.2-0.2c-0.1-0.1-0.3-0.1-0.4-0.1c-0.3,0-0.5,0.2-0.6,0.3c-0.1,0.2-0.1,0.5,0,0.7C44,75.6,44,76,44,76.4
		c0,0.3-0.1,0.5-0.2,0.7c-0.3,0.4-0.6,0.6-1.1,0.8c-0.3,0.1-0.5,0.5-0.4,0.7c0,0.3,0.2,0.5,0.5,0.7c0.3,0.1,0.6,0.3,0.8,0.5
		c0.3,0.3,0.5,0.7,0.5,1.1c0,0.4-0.1,0.7-0.2,1c-0.1,0.1-0.1,0.2-0.1,0.4c0.1,0.5,0.5,0.7,0.8,0.7c0.1,0,0.2,0,0.3-0.1
		C45.1,82.8,45.4,82.7,45.8,82.7z M48.1,81.4c-0.8,0-1.5-0.3-2-0.8c-0.5-0.5-0.8-1.2-0.8-2c0-1.5,1.3-2.8,2.8-2.8h0
		c0.8,0,1.5,0.3,2,0.8c0.5,0.5,0.8,1.2,0.8,2C50.9,80.1,49.7,81.4,48.1,81.4z M48.1,76.2v0.5c-1,0-1.9,0.8-1.9,1.9
		c0,0.5,0.2,1,0.5,1.3c0.4,0.4,0.8,0.5,1.3,0.6c1,0,1.9-0.8,1.9-1.9c0-0.5-0.2-1-0.5-1.3c-0.4-0.4-0.8-0.6-1.3-0.6L48.1,76.2z"/>
	<circle class="st8" cx="92.4" cy="254" r="26.4"/>
	<g>
		<g>
			<g>
				<circle class="st5" cx="693.8" cy="78.5" r="7.4"/>
				<g>
					<line class="st6" x1="690.1" y1="74.9" x2="697.6" y2="82.3"/>
					<line class="st6" x1="690.1" y1="82.3" x2="697.6" y2="74.9"/>
				</g>
			</g>
		</g>
		<g>
			<circle class="st7" cx="668.8" cy="78.5" r="7.4"/>
			<g>
				<g>
					<path class="st3" d="M672.7,79.8h-8c-0.3,0-0.5-0.2-0.5-0.5s0.2-0.5,0.5-0.5h8c0.3,0,0.5,0.2,0.5,0.5S673,79.8,672.7,79.8z"/>
				</g>
			</g>
		</g>
	</g>
</g>
<g>
	<path id="bck_5_" class="st3" d="M1419.7,654.5H751c-8.6,0-15.6-7.1-15.6-15.9V70.4c0-8.8,7-15.9,15.6-15.9h668.7
		c8.6,0,15.6,7.1,15.6,15.9v568.2C1435.4,647.4,1428.4,654.5,1419.7,654.5z"/>
	<g>
		<path class="st4" d="M1199.2,148.6v-35.7c0-6.2,5-11.2,11.1-11.2h206c6.4,0,11.6,5.2,11.6,11.7v520.3c0,6.4-5.2,12.7-11.6,12.7
			H754.4c-6.4,0-11.6-6.3-11.6-12.7V159c0-6.3,5-10.3,11.2-10.3H1199.2z"/>
		<path class="st4" d="M1199,148.6v-35.7c0-6.2-5-11.2-11.1-11.2H982.7c-6.4,0-11.6,5.2-11.6,11.7v35.3H753.5
			c-5.9,0-10.7,4.8-10.7,10.7v475.5c0,6.4,5.2,11.7,11.6,11.7h661.9c6.4,0,11.6-5.2,11.6-11.7V160c0-6.3-5-11.3-11.2-11.3H1199z"/>
		<path class="st0" d="M971.1,148.6v-35.7c0-6.2-5-11.2-11.1-11.2H754.4c-6.4,0-11.6,5.2-11.6,11.7v521.5c0,6.4,5.2,11.7,11.6,11.7
			h661.9c6.4,0,11.6-5.2,11.6-11.7V160c0-6.3-5-11.3-11.2-11.3H971.1z"/>
	</g>
	<g>
		<text transform="matrix(1 0 0 1 783.406 83.283)" class="st0 st13 st14">Settings</text>
		<g>
			<path class="st7" d="M765,66c-1.4,0-2.7,0.2-4,0.7c-2.9,1.1-5.2,3.3-6.4,6.1c-1.2,2.8-1.3,5.9-0.2,8.8c1.7,4.5,6,7.5,10.8,7.5
				c1.4,0,2.7-0.2,4-0.7c2.9-1.1,5.2-3.3,6.4-6.1c1.2-2.8,1.3-5.9,0.2-8.8C774.1,69,769.8,66,765,66z"/>
		</g>
	</g>
	<g>
		<text transform="matrix(1 0 0 1 829.3792 121.4465)"><tspan x="0" y="0" class="st8 st13 st15">Account </tspan><tspan x="-15.1" y="16.8" class="st8 st13 st15">Configuration</tspan></text>
	</g>
	<g>
		<text transform="matrix(1 0 0 1 1276.8831 129.8591)" class="st0 st16 st15">Preferences</text>
	</g>
	<g>
		<text transform="matrix(1 0 0 1 1065.5754 121.4465)"><tspan x="0" y="0" class="st0 st16 st15">World </tspan><tspan x="-22" y="16.8" class="st0 st16 st15">Configuration</tspan></text>
	</g>
	<g>
		<g>
			<g>
				<path class="st9" d="M1375.1,248.3h-430c-5.5,0-10-4.5-10-10v0c0-5.5,4.5-10,10-10h430c5.5,0,10,4.5,10,10v0
					C1385.1,243.8,1380.6,248.3,1375.1,248.3z"/>
			</g>
		</g>
	</g>
	<g>
		<g>
			<g>
				<path class="st9" d="M1375.1,302.8h-430c-5.5,0-10-4.5-10-10v0c0-5.5,4.5-10,10-10h430c5.5,0,10,4.5,10,10v0
					C1385.1,298.3,1380.6,302.8,1375.1,302.8z"/>
			</g>
		</g>
	</g>
	<g>
		<text transform="matrix(1 0 0 1 946.0776 242.4088)" class="st8 st17 st18">Camila_Serrano</text>
	</g>
	<g>
		<text transform="matrix(1 0 0 1 946.0776 296.2947)" class="st8 st17 st18">camilasrueda@gmail.com</text>
	</g>
	<g>
		<g>
			<g>
				<path class="st9" d="M1373.9,606H1327c-5,0-9.1-4.1-9.1-9.1v-1.8c0-5,4.1-9.1,9.1-9.1h46.8c5,0,9.1,4.1,9.1,9.1v1.8
					C1383,601.9,1378.9,606,1373.9,606z"/>
			</g>
		</g>
		<g>
			<text transform="matrix(1 0 0 1 1336.6179 600.1392)" class="st7 st17 st18">Save</text>
		</g>
	</g>
	<g>
		<g>
			<g>
				<circle class="st21" cx="1374.9" cy="292.8" r="9.6"/>
			</g>
		</g>
		<g>
			<g>
				<path class="st0" d="M1378.9,290.7c0-0.2-0.1-0.4-0.3-0.6c-0.3-0.3-0.9-0.3-1.2,0l-3.4,3.4c-0.1,0.1-0.4,0.1-0.5,0l-1.3-1.3
					c-0.2-0.2-0.4-0.3-0.6-0.3s-0.4,0.1-0.6,0.3c-0.3,0.3-0.3,0.9,0,1.2l2.1,2.1c0.3,0.3,0.9,0.3,1.2,0l4.2-4.2
					C1378.8,291.1,1378.9,290.9,1378.9,290.7z"/>
			</g>
		</g>
	</g>
	<g>
		<g>
			<g>
				<circle class="st22" cx="1374.9" cy="238.3" r="9.6"/>
			</g>
		</g>
		<g>
			<g>
				<path class="st0" d="M1370.5,237.5c1.7,1.7,3.5,3.5,5.2,5.2c2.3,2.3,5.8-1.3,3.5-3.5c-1.7-1.7-3.5-3.5-5.2-5.2
					C1371.8,231.7,1368.3,235.2,1370.5,237.5L1370.5,237.5z"/>
			</g>
		</g>
		<g>
			<g>
				<path class="st0" d="M1374.1,242.7c1.7-1.7,3.5-3.5,5.2-5.2c2.3-2.3-1.3-5.8-3.5-3.5c-1.7,1.7-3.5,3.5-5.2,5.2
					C1368.3,241.4,1371.8,245,1374.1,242.7L1374.1,242.7z"/>
			</g>
		</g>
	</g>
	<g>
		<text transform="matrix(1 0 0 1 946.0779 262.6555)" class="st8 st17 st23">*username already exists</text>
	</g>
	<path class="st3" d="M765,84.4c-0.7,0-1.3-0.4-1.6-1.1c-0.1-0.2-0.2-0.4-0.4-0.6c-0.1-0.1-0.2-0.1-0.4-0.1c-0.2,0-0.4,0-0.6,0.1
		c-0.2,0.1-0.5,0.2-0.7,0.2c-0.8,0-1.6-0.5-1.7-1.5c0-0.3,0-0.6,0.1-0.8c0.1-0.2,0.1-0.4,0.1-0.7c0-0.1-0.1-0.3-0.2-0.4
		c-0.1-0.1-0.3-0.3-0.5-0.3c-0.6-0.2-1-0.7-1-1.4c-0.1-0.7,0.4-1.4,1-1.7c0.3-0.1,0.5-0.3,0.7-0.5c0-0.1,0.1-0.1,0.1-0.2
		c0-0.3,0-0.5-0.1-0.7c-0.2-0.5-0.2-1.1,0.1-1.5c0.3-0.5,0.7-0.8,1.3-0.8c0.3,0,0.6,0,0.9,0.1c0.2,0.1,0.5,0.1,0.7,0.1
		c0.1,0,0.2,0,0.4-0.2c0.1-0.1,0.2-0.3,0.3-0.5c0.3-0.6,0.9-1.1,1.6-1.1c0.7,0,1.3,0.4,1.6,1.1c0.1,0.2,0.2,0.4,0.4,0.6
		c0.1,0.1,0.2,0.1,0.4,0.1c0.2,0,0.4,0,0.6-0.1c0.6-0.3,1.4-0.1,1.9,0.3c0.5,0.5,0.6,1.2,0.4,1.9c-0.1,0.2-0.1,0.4-0.1,0.6
		c0,0.1,0,0.3,0.3,0.5c0.1,0.1,0.3,0.2,0.5,0.3c0.6,0.3,1.1,0.9,1.1,1.6c0,0.7-0.4,1.3-1.1,1.6c-0.2,0.1-0.4,0.2-0.6,0.4
		c-0.1,0.1-0.1,0.2-0.1,0.4c0,0.2,0,0.4,0.1,0.6c0.3,0.6,0.2,1.3-0.2,1.8c-0.3,0.4-0.8,0.6-1.3,0.6l0,0c-0.1,0-0.2,0-0.3,0
		c-0.2,0-0.3-0.1-0.4-0.1c0,0-0.1,0-0.1-0.1c-0.2-0.1-0.4-0.1-0.6-0.1c-0.1,0-0.2,0-0.3,0.2c-0.1,0.1-0.2,0.3-0.3,0.5
		C766.3,84,765.6,84.4,765,84.4L765,84.4z M762.6,81.7c0.4,0,0.7,0.1,1,0.4c0.3,0.3,0.5,0.6,0.6,0.9c0.1,0.3,0.4,0.5,0.7,0.5v0.5
		l0-0.5c0.3,0,0.6-0.2,0.7-0.5c0.1-0.3,0.3-0.6,0.5-0.8c0.3-0.3,0.6-0.5,0.9-0.5c0.3,0,0.6,0,0.9,0.1c0.1,0,0.2,0.1,0.2,0.1
		c0.1,0,0.1,0.1,0.2,0.1c0.3,0.1,0.6,0,0.8-0.2c0.2-0.3,0.2-0.5,0.1-0.8c-0.1-0.3-0.2-0.6-0.2-0.9c0-0.4,0.1-0.8,0.4-1
		c0.3-0.3,0.6-0.5,0.9-0.6c0.3-0.1,0.5-0.4,0.5-0.7c0-0.3-0.2-0.6-0.5-0.7c-0.3-0.1-0.5-0.3-0.7-0.4c-0.4-0.3-0.6-0.8-0.6-1.3
		c0-0.3,0.1-0.7,0.2-0.9c0.1-0.3,0.1-0.6-0.1-0.8c-0.2-0.2-0.6-0.3-0.8-0.1c-0.3,0.1-0.6,0.2-1,0.2h0c-0.4,0-0.8-0.1-1-0.4
		c-0.3-0.3-0.5-0.6-0.6-0.9c-0.1-0.3-0.4-0.5-0.7-0.5c-0.3,0-0.6,0.2-0.7,0.5c-0.1,0.3-0.3,0.5-0.5,0.7c-0.2,0.2-0.5,0.5-1,0.5
		c-0.4,0-0.8,0-1.2-0.2c-0.1-0.1-0.3-0.1-0.4-0.1c-0.3,0-0.5,0.2-0.6,0.3c-0.1,0.2-0.1,0.5,0,0.7c0.2,0.4,0.2,0.8,0.2,1.2
		c0,0.3-0.1,0.5-0.2,0.7c-0.3,0.4-0.6,0.6-1.1,0.8c-0.3,0.1-0.5,0.5-0.4,0.7c0,0.3,0.2,0.5,0.5,0.7c0.3,0.1,0.6,0.3,0.8,0.5
		c0.3,0.3,0.5,0.7,0.5,1.1c0,0.4-0.1,0.7-0.2,1c-0.1,0.1-0.1,0.2-0.1,0.4c0.1,0.5,0.5,0.7,0.8,0.7c0.1,0,0.2,0,0.3-0.1
		C761.9,81.8,762.3,81.7,762.6,81.7z M765,80.4c-0.8,0-1.5-0.3-2-0.8c-0.5-0.5-0.8-1.2-0.8-2c0-1.5,1.3-2.8,2.8-2.8h0
		c0.8,0,1.5,0.3,2,0.8c0.5,0.5,0.8,1.2,0.8,2C767.8,79.1,766.5,80.4,765,80.4z M765,75.2v0.5c-1,0-1.9,0.8-1.9,1.9
		c0,0.5,0.2,1,0.5,1.3c0.4,0.4,0.8,0.5,1.3,0.6c1,0,1.9-0.8,1.9-1.9c0-0.5-0.2-1-0.5-1.3c-0.4-0.4-0.8-0.6-1.3-0.6L765,75.2z"/>
	<g>
		<g>
			<text transform="matrix(1 0 0 1 853.0776 242.4088)" class="st8 st17 st15">Username</text>
		</g>
		<g>
			<text transform="matrix(1 0 0 1 853.0776 296.8789)" class="st8 st17 st15">Email</text>
		</g>
	</g>
	<circle class="st8" cx="811.4" cy="256.8" r="26.4"/>
	<g>
		<g>
			<g>
				<circle class="st5" cx="1410.8" cy="77.5" r="7.4"/>
				<g>
					<line class="st6" x1="1407.1" y1="73.9" x2="1414.6" y2="81.3"/>
					<line class="st6" x1="1407.1" y1="81.3" x2="1414.6" y2="73.9"/>
				</g>
			</g>
		</g>
		<g>
			<circle class="st7" cx="1385.8" cy="77.5" r="7.4"/>
			<g>
				<g>
					<path class="st3" d="M1389.7,78.8h-8c-0.3,0-0.5-0.2-0.5-0.5s0.2-0.5,0.5-0.5h8c0.3,0,0.5,0.2,0.5,0.5S1390,78.8,1389.7,78.8z"
						/>
				</g>
			</g>
		</g>
	</g>
	<g>
		<g>
			<g>
				<g>
					<path class="st9" d="M1377.9,436.7h-433c-5.5,0-10-4.5-10-10l0,0c0-5.5,4.5-10,10-10h433c5.5,0,10,4.5,10,10l0,0
						C1387.9,432.2,1383.4,436.7,1377.9,436.7z"/>
				</g>
			</g>
		</g>
		<g>
			<g>
				<g>
					<path class="st9" d="M1377.9,471.1h-433c-5.5,0-10-4.5-10-10v0c0-5.5,4.5-10,10-10h433c5.5,0,10,4.5,10,10v0
						C1387.9,466.6,1383.4,471.1,1377.9,471.1z"/>
				</g>
			</g>
		</g>
		<g>
			<g>
				<g>
					<path class="st9" d="M1377.9,505.6h-433c-5.5,0-10-4.5-10-10v0c0-5.5,4.5-10,10-10h433c5.5,0,10,4.5,10,10v0
						C1387.9,501.1,1383.4,505.6,1377.9,505.6z"/>
				</g>
			</g>
		</g>
		<g>
			<text transform="matrix(1 0 0 1 782.8663 368.9546)" class="st5 st13 st15">Update Password</text>
		</g>
		<g>
			<text transform="matrix(1 0 0 1 782.866 430.7452)" class="st8 st17 st15">Current Password</text>
		</g>
		<g>
			<text transform="matrix(1 0 0 1 782.866 465.2163)" class="st8 st17 st15">New Password</text>
		</g>
		<g>
			<text transform="matrix(1 0 0 1 782.866 499.6879)" class="st8 st17 st15">Retype </text>
		</g>
		<line class="st10" x1="783.1" y1="379.8" x2="1386.1" y2="379.8"/>
	</g>
</g>
<g>
	<path id="bck_1_" class="st3" d="M2130.7,654.5H1462c-8.6,0-15.6-7.1-15.6-15.9V70.4c0-8.8,7-15.9,15.6-15.9h668.7
		c8.6,0,15.6,7.1,15.6,15.9v568.2C2146.4,647.4,2139.4,654.5,2130.7,654.5z"/>
	<g>
		<path class="st4" d="M1910.2,148.6v-35.7c0-6.2,5-11.2,11.1-11.2h206c6.4,0,11.6,5.2,11.6,11.7v520.3c0,6.4-5.2,12.7-11.6,12.7
			h-661.9c-6.4,0-11.6-6.3-11.6-12.7V159c0-6.3,5-10.3,11.2-10.3H1910.2z"/>
		<path class="st4" d="M1910,148.6v-35.7c0-6.2-5-11.2-11.1-11.2h-205.1c-6.4,0-11.6,5.2-11.6,11.7v35.3h-217.6
			c-5.9,0-10.7,4.8-10.7,10.7v475.5c0,6.4,5.2,11.7,11.6,11.7h661.9c6.4,0,11.6-5.2,11.6-11.7V160c0-6.3-5-11.3-11.2-11.3H1910z"/>
		<path class="st0" d="M1682.1,148.6v-35.7c0-6.2-5-11.2-11.1-11.2h-205.5c-6.4,0-11.6,5.2-11.6,11.7v521.5
			c0,6.4,5.2,11.7,11.6,11.7h661.9c6.4,0,11.6-5.2,11.6-11.7V160c0-6.3-5-11.3-11.2-11.3H1682.1z"/>
	</g>
	<g>
		<text transform="matrix(1 0 0 1 1494.406 83.283)" class="st0 st13 st14">Settings</text>
		<g>
			<path class="st7" d="M1476,66c-1.4,0-2.7,0.2-4,0.7c-2.9,1.1-5.2,3.3-6.4,6.1c-1.2,2.8-1.3,5.9-0.2,8.8c1.7,4.5,6,7.5,10.8,7.5
				c1.4,0,2.7-0.2,4-0.7c2.9-1.1,5.2-3.3,6.4-6.1c1.2-2.8,1.3-5.9,0.2-8.8C1485.1,69,1480.8,66,1476,66z"/>
		</g>
	</g>
	<g>
		<text transform="matrix(1 0 0 1 1540.3792 121.4465)"><tspan x="0" y="0" class="st8 st13 st15">Account </tspan><tspan x="-15.1" y="16.8" class="st8 st13 st15">Configuration</tspan></text>
	</g>
	<g>
		<text transform="matrix(1 0 0 1 1987.8831 129.8591)" class="st0 st16 st15">Preferences</text>
	</g>
	<g>
		<text transform="matrix(1 0 0 1 1776.5754 121.4465)"><tspan x="0" y="0" class="st0 st16 st15">World </tspan><tspan x="-22" y="16.8" class="st0 st16 st15">Configuration</tspan></text>
	</g>
	<g>
		<g>
			<g>
				<path class="st9" d="M2086.1,248.3h-430c-5.5,0-10-4.5-10-10v0c0-5.5,4.5-10,10-10h430c5.5,0,10,4.5,10,10v0
					C2096.1,243.8,2091.6,248.3,2086.1,248.3z"/>
			</g>
		</g>
	</g>
	<g>
		<g>
			<g>
				<path class="st9" d="M2086.1,282.8h-430c-5.5,0-10-4.5-10-10v0c0-5.5,4.5-10,10-10h430c5.5,0,10,4.5,10,10v0
					C2096.1,278.3,2091.6,282.8,2086.1,282.8z"/>
			</g>
		</g>
	</g>
	<g>
		<text transform="matrix(1 0 0 1 1657.0776 242.4088)" class="st8 st17 st18">CamilaSerrano</text>
	</g>
	<g>
		<text transform="matrix(1 0 0 1 1657.0776 276.2947)" class="st8 st17 st18">camilasrueda@gmail.com</text>
	</g>
	<g>
		<g>
			<g>
				<path class="st3" d="M2084.9,606H2038c-5,0-9.1-4.1-9.1-9.1v-1.8c0-5,4.1-9.1,9.1-9.1h46.8c5,0,9.1,4.1,9.1,9.1v1.8
					C2094,601.9,2089.9,606,2084.9,606z"/>
			</g>
		</g>
		<g>
			<text transform="matrix(1 0 0 1 2047.6179 600.1392)" class="st0 st17 st18">Save</text>
		</g>
	</g>
	<g>
		<g>
			<g>
				<circle class="st21" cx="2085.9" cy="272.8" r="9.6"/>
			</g>
		</g>
		<g>
			<g>
				<path class="st0" d="M2089.9,270.7c0-0.2-0.1-0.4-0.3-0.6c-0.3-0.3-0.9-0.3-1.2,0l-3.4,3.4c-0.1,0.1-0.4,0.1-0.5,0l-1.3-1.3
					c-0.2-0.2-0.4-0.3-0.6-0.3s-0.4,0.1-0.6,0.3c-0.3,0.3-0.3,0.9,0,1.2l2.1,2.1c0.3,0.3,0.9,0.3,1.2,0l4.2-4.2
					C2089.8,271.1,2089.9,270.9,2089.9,270.7z"/>
			</g>
		</g>
	</g>
	<g>
		<g>
			<g>
				<circle class="st21" cx="2085.9" cy="238.3" r="9.6"/>
			</g>
		</g>
		<g>
			<g>
				<path class="st0" d="M2089.9,236.2c0-0.2-0.1-0.4-0.3-0.6c-0.3-0.3-0.9-0.3-1.2,0l-3.4,3.4c-0.1,0.1-0.4,0.1-0.5,0l-1.3-1.3
					c-0.2-0.2-0.4-0.3-0.6-0.3s-0.4,0.1-0.6,0.3c-0.3,0.3-0.3,0.9,0,1.2l2.1,2.1c0.3,0.3,0.9,0.3,1.2,0l4.2-4.2
					C2089.8,236.6,2089.9,236.4,2089.9,236.2z"/>
			</g>
		</g>
	</g>
	<path class="st3" d="M1476,84.4c-0.7,0-1.3-0.4-1.6-1.1c-0.1-0.2-0.2-0.4-0.4-0.6c-0.1-0.1-0.2-0.1-0.4-0.1c-0.2,0-0.4,0-0.6,0.1
		c-0.2,0.1-0.5,0.2-0.7,0.2c-0.8,0-1.6-0.5-1.7-1.5c0-0.3,0-0.6,0.1-0.8c0.1-0.2,0.1-0.4,0.1-0.7c0-0.1-0.1-0.3-0.2-0.4
		c-0.1-0.1-0.3-0.3-0.5-0.3c-0.6-0.2-1-0.7-1-1.4c-0.1-0.7,0.4-1.4,1-1.7c0.3-0.1,0.5-0.3,0.7-0.5c0-0.1,0.1-0.1,0.1-0.2
		c0-0.3,0-0.5-0.1-0.7c-0.2-0.5-0.2-1.1,0.1-1.5c0.3-0.5,0.7-0.8,1.3-0.8c0.3,0,0.6,0,0.9,0.1c0.2,0.1,0.5,0.1,0.7,0.1
		c0.1,0,0.2,0,0.4-0.2c0.1-0.1,0.2-0.3,0.3-0.5c0.3-0.6,0.9-1.1,1.6-1.1c0.7,0,1.3,0.4,1.6,1.1c0.1,0.2,0.2,0.4,0.4,0.6
		c0.1,0.1,0.2,0.1,0.4,0.1c0.2,0,0.4,0,0.6-0.1c0.6-0.3,1.4-0.1,1.9,0.3c0.5,0.5,0.6,1.2,0.4,1.9c-0.1,0.2-0.1,0.4-0.1,0.6
		c0,0.1,0,0.3,0.3,0.5c0.1,0.1,0.3,0.2,0.5,0.3c0.6,0.3,1.1,0.9,1.1,1.6c0,0.7-0.4,1.3-1.1,1.6c-0.2,0.1-0.4,0.2-0.6,0.4
		c-0.1,0.1-0.1,0.2-0.1,0.4c0,0.2,0,0.4,0.1,0.6c0.3,0.6,0.2,1.3-0.2,1.8c-0.3,0.4-0.8,0.6-1.3,0.6l0,0c-0.1,0-0.2,0-0.3,0
		c-0.2,0-0.3-0.1-0.4-0.1c0,0-0.1,0-0.1-0.1c-0.2-0.1-0.4-0.1-0.6-0.1c-0.1,0-0.2,0-0.3,0.2c-0.1,0.1-0.2,0.3-0.3,0.5
		C1477.3,84,1476.6,84.4,1476,84.4L1476,84.4z M1473.6,81.7c0.4,0,0.7,0.1,1,0.4c0.3,0.3,0.5,0.6,0.6,0.9c0.1,0.3,0.4,0.5,0.7,0.5
		v0.5l0-0.5c0.3,0,0.6-0.2,0.7-0.5c0.1-0.3,0.3-0.6,0.5-0.8c0.3-0.3,0.6-0.5,0.9-0.5c0.3,0,0.6,0,0.9,0.1c0.1,0,0.2,0.1,0.2,0.1
		c0.1,0,0.1,0.1,0.2,0.1c0.3,0.1,0.6,0,0.8-0.2c0.2-0.3,0.2-0.5,0.1-0.8c-0.1-0.3-0.2-0.6-0.2-0.9c0-0.4,0.1-0.8,0.4-1
		c0.3-0.3,0.6-0.5,0.9-0.6c0.3-0.1,0.5-0.4,0.5-0.7c0-0.3-0.2-0.6-0.5-0.7c-0.3-0.1-0.5-0.3-0.7-0.4c-0.4-0.3-0.6-0.8-0.6-1.3
		c0-0.3,0.1-0.7,0.2-0.9c0.1-0.3,0.1-0.6-0.2-0.8c-0.2-0.2-0.6-0.3-0.8-0.1c-0.3,0.1-0.6,0.2-1,0.2h0c-0.4,0-0.8-0.1-1-0.4
		c-0.3-0.3-0.5-0.6-0.6-0.9c-0.1-0.3-0.4-0.5-0.7-0.5c-0.3,0-0.6,0.2-0.7,0.5c-0.1,0.3-0.3,0.5-0.5,0.7c-0.2,0.2-0.5,0.5-1,0.5
		c-0.4,0-0.8,0-1.2-0.2c-0.1-0.1-0.3-0.1-0.4-0.1c-0.3,0-0.5,0.2-0.6,0.3c-0.1,0.2-0.1,0.5,0,0.7c0.2,0.4,0.2,0.8,0.2,1.2
		c0,0.3-0.1,0.5-0.2,0.7c-0.3,0.4-0.6,0.6-1.1,0.8c-0.3,0.1-0.5,0.5-0.4,0.7c0,0.3,0.2,0.5,0.5,0.7c0.3,0.1,0.6,0.3,0.8,0.5
		c0.3,0.3,0.5,0.7,0.5,1.1c0,0.4-0.1,0.7-0.2,1c-0.1,0.1-0.1,0.2-0.1,0.4c0.1,0.5,0.5,0.7,0.8,0.7c0.1,0,0.2,0,0.3-0.1
		C1472.9,81.8,1473.3,81.7,1473.6,81.7z M1476,80.4c-0.8,0-1.5-0.3-2-0.8c-0.5-0.5-0.8-1.2-0.8-2c0-1.5,1.3-2.8,2.8-2.8h0
		c0.8,0,1.5,0.3,2,0.8c0.5,0.5,0.8,1.2,0.8,2C1478.8,79.1,1477.5,80.4,1476,80.4z M1476,75.2v0.5c-1,0-1.9,0.8-1.9,1.9
		c0,0.5,0.2,1,0.5,1.3c0.4,0.4,0.8,0.5,1.3,0.6c1,0,1.9-0.8,1.9-1.9c0-0.5-0.2-1-0.5-1.3c-0.4-0.4-0.8-0.6-1.3-0.6L1476,75.2z"/>
	<g>
		<g>
			<text transform="matrix(1 0 0 1 1564.0776 242.4088)" class="st8 st17 st15">Username</text>
		</g>
		<g>
			<text transform="matrix(1 0 0 1 1564.0776 276.8799)" class="st8 st17 st15">Email</text>
		</g>
	</g>
	<circle class="st8" cx="1522.4" cy="256.8" r="26.4"/>
	<g>
		<g>
			<g>
				<circle class="st5" cx="2121.8" cy="77.5" r="7.4"/>
				<g>
					<line class="st6" x1="2118.1" y1="73.9" x2="2125.6" y2="81.3"/>
					<line class="st6" x1="2118.1" y1="81.3" x2="2125.6" y2="73.9"/>
				</g>
			</g>
		</g>
		<g>
			<circle class="st7" cx="2096.8" cy="77.5" r="7.4"/>
			<g>
				<g>
					<path class="st3" d="M2100.7,78.8h-8c-0.3,0-0.5-0.2-0.5-0.5s0.2-0.5,0.5-0.5h8c0.3,0,0.5,0.2,0.5,0.5S2101,78.8,2100.7,78.8z"
						/>
				</g>
			</g>
		</g>
	</g>
	<g>
		<g>
			<g>
				<g>
					<path class="st9" d="M2088.9,436.7h-433c-5.5,0-10-4.5-10-10l0,0c0-5.5,4.5-10,10-10h433c5.5,0,10,4.5,10,10l0,0
						C2098.9,432.2,2094.4,436.7,2088.9,436.7z"/>
				</g>
			</g>
		</g>
		<g>
			<g>
				<g>
					<path class="st9" d="M2088.9,471.1h-433c-5.5,0-10-4.5-10-10v0c0-5.5,4.5-10,10-10h433c5.5,0,10,4.5,10,10v0
						C2098.9,466.6,2094.4,471.1,2088.9,471.1z"/>
				</g>
			</g>
		</g>
		<g>
			<g>
				<g>
					<path class="st9" d="M2088.9,505.6h-433c-5.5,0-10-4.5-10-10v0c0-5.5,4.5-10,10-10h433c5.5,0,10,4.5,10,10v0
						C2098.9,501.1,2094.4,505.6,2088.9,505.6z"/>
				</g>
			</g>
		</g>
		<g>
			<text transform="matrix(1 0 0 1 1493.8662 368.9546)" class="st5 st13 st15">Update Password</text>
		</g>
		<g>
			<text transform="matrix(1 0 0 1 1493.866 430.7452)" class="st8 st17 st15">Current Password</text>
		</g>
		<g>
			<text transform="matrix(1 0 0 1 1493.866 465.2163)" class="st8 st17 st15">New Password</text>
		</g>
		<g>
			<text transform="matrix(1 0 0 1 1493.866 499.6879)" class="st8 st17 st15">Retype </text>
		</g>
		<line class="st10" x1="1494.1" y1="379.8" x2="2097.1" y2="379.8"/>
	</g>
</g>
</svg>
