<?xml version="1.0" encoding="utf-8"?>
<!-- Generator: Adobe Illustrator 19.1.0, SVG Export Plug-In . SVG Version: 6.00 Build 0)  -->
<svg version="1.1" id="Layer_1" xmlns="http://www.w3.org/2000/svg" xmlns:xlink="http://www.w3.org/1999/xlink" x="0px" y="0px"
	 viewBox="0 0 1280 800" style="enable-background:new 0 0 1280 800;" xml:space="preserve">
<style type="text/css">
	.st0{opacity:0.15;fill:#F1F2F2;}
	.st1{fill:#4D4D4D;}
	.st2{fill:#FFFFFF;}
	.st3{fill:#F57C00;}
	.st4{fill:#FFFAF5;}
	.st5{opacity:0.4;}
	.st6{fill:#808285;}
	.st7{opacity:0.8;fill:#4D4D4D;}
	.st8{fill:#FFFFFF;stroke:#FFFFFF;stroke-width:1.2;stroke-miterlimit:10;}
	.st9{fill:#F47B54;}
	.st10{opacity:0.8;fill:#F57C00;}
	.st11{fill:#FCDED4;}
	.st12{fill:#231F20;}
	.st13{fill:#58595B;}
	.st14{fill:#FFFFFF;stroke:#58595B;stroke-width:3.5;stroke-miterlimit:10;}
	.st15{fill:none;stroke:#FFFFFF;stroke-width:3.5;stroke-miterlimit:10;}
	.st16{fill-rule:evenodd;clip-rule:evenodd;fill:#58595B;stroke:#58595B;stroke-miterlimit:10;}
	.st17{fill-rule:evenodd;clip-rule:evenodd;fill:#FFFFFF;stroke:#FFFFFF;stroke-miterlimit:10;}
	.st18{fill:#58595B;stroke:#58595B;stroke-width:1.5;stroke-miterlimit:10;}
	.st19{fill:#58595B;stroke:#58595B;stroke-miterlimit:10;}
	.st20{fill:#FFFFFF;stroke:#FFFFFF;stroke-width:1.5;stroke-miterlimit:10;}
	.st21{fill:#FFFFFF;stroke:#FFFFFF;stroke-miterlimit:10;}
	.st22{fill:none;stroke:#58595B;stroke-width:3;stroke-miterlimit:10;}
	.st23{fill:none;stroke:#FFFFFF;stroke-width:3;stroke-miterlimit:10;}
	.st24{fill:none;stroke:#F57C00;stroke-miterlimit:10;}
	.st25{opacity:0.2;}
	.st26{fill:none;stroke:#231F20;stroke-miterlimit:10;}
	.st27{font-family:'BloggerSans';}
	.st28{font-size:26.43px;}
	.st29{font-size:17.9666px;}
	.st30{font-size:23.6746px;}
	.st31{opacity:0.4;fill:#808285;}
	.st32{opacity:0.5;}
	.st33{opacity:0.4;fill:none;stroke:#231F20;stroke-miterlimit:10;}
	.st34{fill:#808285;stroke:#808285;stroke-width:5;stroke-miterlimit:10;}
	.st35{fill:#6D6E71;}
</style>
<rect x="327.9" y="202.1" class="st0" width="297.2" height="297.2"/>
<g class="st5">
	<g>
		<path class="st6" d="M476.7,306.5c-3.8,0-7.6,1.8-7.6,5.8v75.7c0,4,3.8,5.8,7.6,5.8c2,0,4-0.5,5.3-1.5c1.5-1,2.3-2.5,2.3-4.4
			v-75.7C484.3,308.3,480.5,306.5,476.7,306.5z"/>
		<path class="st6" d="M514.6,342.5h-75.7c-4,0-5.8,3.8-5.8,7.6c0,3.8,1.8,7.6,5.8,7.6h75.7c4,0,5.8-3.8,5.8-7.6
			C520.4,346.4,518.6,342.5,514.6,342.5z"/>
	</g>
	<path class="st6" d="M556.4,250.7H397c-10.9,0-19.7,8.8-19.7,19.7v159.4c0,10.9,8.8,19.7,19.7,19.7h159.4
		c10.9,0,19.7-8.8,19.7-19.7V270.5C576.1,259.6,567.3,250.7,556.4,250.7z M560.3,425.2c0,4.7-3.8,8.6-8.6,8.6h-150
		c-4.7,0-8.6-3.9-8.6-8.6v-150c0-4.7,3.9-8.6,8.6-8.6h150c4.7,0,8.6,3.9,8.6,8.6V425.2z"/>
	<path class="st6" d="M460.8,310.5c0.1,0.3,0.5,0.9,1.4,0.9h29c0.9,0,1.3-0.6,1.4-0.9c0.1-0.3,0.4-0.9-0.1-1.6L478,288.5
		c-0.3-0.4-0.8-0.7-1.3-0.7c-0.5,0-1,0.2-1.3,0.7l-14.5,20.3C460.4,309.5,460.7,310.2,460.8,310.5z"/>
	<path class="st6" d="M434.6,334.6l-20.3,14.5c-0.4,0.3-0.7,0.8-0.7,1.3c0,0.5,0.2,1,0.7,1.3l20.3,14.5c0.3,0.2,0.6,0.3,0.9,0.3
		c0.8,0,1.6-0.6,1.6-1.6v-29c0-1-0.8-1.6-1.6-1.6C435.1,334.3,434.8,334.4,434.6,334.6z"/>
	<path class="st6" d="M518.9,334.6c-0.3-0.2-0.6-0.3-0.9-0.3c-0.8,0-1.6,0.6-1.6,1.6v29c0,1,0.8,1.6,1.6,1.6c0.3,0,0.6-0.1,0.9-0.3
		l20.3-14.5c0.4-0.3,0.7-0.8,0.7-1.3c0-0.5-0.2-1-0.7-1.3L518.9,334.6z"/>
	<path class="st6" d="M492.3,390.9c-0.1-0.3-0.5-0.9-1.4-0.9h-29c-0.9,0-1.3,0.6-1.4,0.9c-0.1,0.3-0.4,0.9,0.1,1.6l14.5,20.3
		c0.6,0.8,2,0.8,2.6,0l14.5-20.3C492.7,391.8,492.4,391.2,492.3,390.9z"/>
</g>
<g>
	<text transform="matrix(1 0 0 1 632.7983 613.647)" class="st13 st27 st28">x</text>
	<g>
		<g>
			<line class="st24" x1="632" y1="575.5" x2="646" y2="575.5"/>
			<g>
				<rect x="631" y="572" class="st3" width="1" height="7"/>
			</g>
			<g>
				<rect x="645" y="572" class="st3" width="1" height="7"/>
			</g>
		</g>
	</g>
</g>
<g>
	<rect x="648.8" y="202.6" class="st0" width="296.7" height="296.7"/>
	<g class="st5">
		<path class="st6" d="M871.2,460.1L871.2,460.1c-8.1,0-15.9-2.9-22-8.1c-5.1-4.4-92.2-91.9-102.2-101.9c-1.5,0.1-2.9,0.2-4.4,0.2
			c-14.6,0-27.3-5.2-37.9-15.6c-8.4-8.2-13.5-18.2-15.3-29.8c-0.8-4.9-1.3-10.2,0-15.8c1.3-5.6,5.9-9.4,11.4-9.4
			c1.9,0,3.7,0.4,5.5,1.2c2.7,1.3,4.7,3.1,6.3,4.7l5.5,5.5c3.7,3.7,7.4,7.5,11.2,11.2c1,1,1.4,1.2,1.5,1.3c0.4,0,0.9,0.1,1.4,0.1
			c1.9,0,3.3-0.5,4.5-1.8c0.5-0.5,0.9-0.9,1.4-1.4c0.4-0.3,0.7-0.7,1.1-1.1c1.4-1.5,2.8-2.9,4.2-4.2c1.9-1.8,3.7-3.6,5.1-5.5
			c0.2-0.3,0.3-0.6,0.4-0.8c0.4-1.5,0.4-2.7-1.3-4.5c-0.5-0.5-2.7-2.8-5.5-5.5c-4.8-4.8-10.8-10.7-13.6-13.8c-3.7-4-5-8.8-3.7-13.5
			l0.2-0.6c2-5.2,6.3-8.2,12.8-8.9c5.2-0.5,10.6-0.3,15.9,0.8c14.5,3,26.2,10.8,34.5,23.1c4.4,6.5,7.2,13.8,8.6,22.4
			c0.6,4,1.1,8.6,0.4,13.5c13.1,13.8,92.9,94,98,98.9c11.5,11.2,13.9,28.6,5.9,42.3C894.7,453.6,883.4,460.1,871.2,460.1z
			 M747.9,337.6c2.8,0,5.2,1,7.3,3.1c12.2,12.3,97.6,98,102,101.9c4,3.4,8.8,5.2,14,5.2c7.9,0,15-4.1,19-10.9
			c5.2-8.9,3.7-19.9-3.8-27.2c-1.4-1.4-26.9-26.9-51-51.2c-50.2-50.6-50.2-50.7-50.9-52.9l-0.3-1.2l0.4-3.1c0.9-3.6,0.5-7.4-0.1-11
			c-1.1-6.7-3.2-12.5-6.6-17.4c-6.6-9.7-15.4-15.6-26.8-18c-4.1-0.8-8.2-1.1-12.1-0.7c-1.6,0.2-2.1,0.4-2.3,0.7
			c0,0.3,0.2,0.7,0.9,1.5c2.7,2.9,8.9,9,13.4,13.4c4,4,5.5,5.5,6,6c4.3,4.8,5.7,10.5,3.9,16.4c-0.4,1.4-1.1,2.6-1.6,3.4l-0.5,0.8
			c-2.1,2.9-4.5,5.2-6.8,7.4c-1.2,1.2-2.4,2.3-3.6,3.6c-0.5,0.6-1.1,1.1-1.7,1.7c-0.3,0.3-0.6,0.6-1,0.9c-4.2,4.4-9.8,6.3-16.3,5.5
			c-4.5-0.5-7.4-3.4-8.8-4.8c-3.8-3.7-7.5-7.5-11.2-11.2l-5.5-5.5c-0.8-0.8-1.6-1.6-2.5-2.1c-0.6,3.3-0.4,6.6,0.3,10.7
			c1.4,8.9,5.3,16.6,11.7,22.8c9.2,9,20.5,13,33.4,11.9C747.2,337.6,747.6,337.6,747.9,337.6z M869.3,436.3
			c-6.3,0-11.4-5.1-11.4-11.3c0-6.2,5.1-11.3,11.4-11.3c6.3,0,11.4,5.1,11.4,11.3C880.7,431.2,875.5,436.3,869.3,436.3z"/>
	</g>
</g>
<text transform="matrix(1 0 0 1 667.4624 388.0264)"><tspan x="0" y="0" class="st13 st27 st29">1</tspan><tspan x="9" y="0" class="st13 st27 st30">x</tspan></text>
<text transform="matrix(1 0 0 1 583.9624 411.0264)"><tspan x="0" y="0" class="st13 st27 st29">1</tspan><tspan x="9" y="0" class="st13 st27 st30">x</tspan></text>
<text transform="matrix(1 0 0 1 502.9624 299.5955)"><tspan x="0" y="0" class="st13 st27 st29">2</tspan><tspan x="9" y="0" class="st13 st27 st30">x</tspan></text>
<text transform="matrix(1 0 0 1 772.3203 356.3394)"><tspan x="0" y="0" class="st13 st27 st29">1</tspan><tspan x="9" y="0" class="st13 st27 st30">x</tspan></text>
<text transform="matrix(1 0 0 1 827.3096 460.1245)"><tspan x="0" y="0" class="st13 st27 st29">1.5</tspan><tspan x="22.1" y="0" class="st13 st27 st30">x</tspan></text>
<text transform="matrix(1 0 0 1 873.3096 318.1245)"><tspan x="0" y="0" class="st13 st27 st29">3</tspan><tspan x="9" y="0" class="st13 st27 st30">x</tspan></text>
<g class="st25">
	<line class="st26" x1="698.6" y1="202.6" x2="945.5" y2="451.2"/>
	<line class="st26" x1="680.9" y1="202.1" x2="945.5" y2="470.8"/>
	<line class="st26" x1="684.6" y1="202.6" x2="945.5" y2="465.5"/>
	<line class="st26" x1="667.5" y1="202.6" x2="945.5" y2="485"/>
	<line class="st26" x1="665.1" y1="202.6" x2="945.5" y2="487.2"/>
	<line class="st26" x1="648.8" y1="219.2" x2="928.2" y2="499.3"/>
	<line class="st26" x1="854.7" y1="202.6" x2="648.8" y2="407"/>
	<line class="st26" x1="837.2" y1="202.6" x2="648.8" y2="388"/>
	<line class="st26" x1="648.8" y1="235.1" x2="913.1" y2="499.3"/>
	<line class="st26" x1="648.8" y1="250.5" x2="895.8" y2="499.3"/>
	<line class="st26" x1="648.8" y1="222.4" x2="925.9" y2="499.3"/>
	<line class="st26" x1="648.8" y1="238.5" x2="908.2" y2="499.3"/>
	<circle class="st26" cx="743.4" cy="296" r="54.4"/>
	<circle class="st26" cx="743" cy="295.5" r="42.2"/>
	<line class="st26" x1="648.8" y1="241.7" x2="945.5" y2="241.7"/>
	<line class="st26" x1="648.8" y1="287" x2="945.5" y2="287"/>
	<line class="st26" x1="905.6" y1="202.1" x2="905.6" y2="499.3"/>
	<line class="st26" x1="860.8" y1="202.1" x2="860.8" y2="499.3"/>
</g>
<line class="st24" x1="861.3" y1="432.1" x2="876.7" y2="416.4"/>
<line class="st24" x1="874.8" y1="415.1" x2="878" y2="418.3"/>
<line class="st24" x1="859.7" y1="430.5" x2="862.8" y2="433.8"/>
<g>
	<line class="st24" x1="680.9" y1="356.3" x2="690.4" y2="365.7"/>
	<line class="st24" x1="682.5" y1="354.7" x2="679.3" y2="358"/>
	<line class="st24" x1="692.1" y1="364" x2="688.8" y2="367.3"/>
</g>
<g>
	<line class="st24" x1="771.7" y1="325.8" x2="781.3" y2="335.2"/>
	<line class="st24" x1="773.3" y1="324.2" x2="770.1" y2="327.5"/>
	<line class="st24" x1="783" y1="333.5" x2="779.8" y2="336.8"/>
</g>
<circle class="st31" cx="883.4" cy="264.4" r="22.6"/>
<line class="st24" x1="860.8" y1="295.5" x2="905.6" y2="295.5"/>
<line class="st24" x1="860.8" y1="293.6" x2="860.8" y2="297.5"/>
<line class="st24" x1="905.6" y1="293.6" x2="905.6" y2="297.5"/>
<g class="st32">
	<line class="st33" x1="560.9" y1="202.1" x2="560.9" y2="499.2"/>
	<line class="st33" x1="576.1" y1="202.1" x2="576.1" y2="499.2"/>
	<line class="st33" x1="469.1" y1="202.1" x2="469.1" y2="499.2"/>
	<line class="st33" x1="460.6" y1="202.1" x2="460.6" y2="499.2"/>
	<line class="st33" x1="484.3" y1="202.1" x2="484.3" y2="499.2"/>
	<line class="st33" x1="493.1" y1="202.1" x2="493.1" y2="499.2"/>
	<line class="st33" x1="377.3" y1="202.1" x2="377.3" y2="499.2"/>
	<line class="st33" x1="392.6" y1="202.1" x2="392.6" y2="499.2"/>
	<line class="st33" x1="625.3" y1="250.5" x2="328.1" y2="250.5"/>
	<line class="st33" x1="625.3" y1="265.8" x2="328.1" y2="265.8"/>
	<line class="st33" x1="625.3" y1="434.3" x2="328.1" y2="434.3"/>
	<line class="st33" x1="625.3" y1="449.6" x2="328.1" y2="449.6"/>
	<line class="st33" x1="625.3" y1="342.5" x2="328.1" y2="342.5"/>
	<line class="st33" x1="625.3" y1="357.8" x2="328.1" y2="357.8"/>
</g>
<g>
	<line class="st24" x1="460.6" y1="282.5" x2="493.1" y2="282.6"/>
	<line class="st24" x1="460.6" y1="280.2" x2="460.6" y2="284.9"/>
	<line class="st24" x1="493.1" y1="280.2" x2="493.1" y2="284.9"/>
</g>
<g>
	<line class="st24" x1="560.9" y1="388" x2="576.1" y2="388.1"/>
	<line class="st24" x1="560.9" y1="385.7" x2="560.9" y2="390.3"/>
	<line class="st24" x1="576.1" y1="385.7" x2="576.1" y2="390.4"/>
</g>
</svg>
