<?xml version="1.0" encoding="utf-8"?>
<!-- Generator: Adobe Illustrator 19.1.0, SVG Export Plug-In . SVG Version: 6.00 Build 0)  -->
<svg version="1.1" id="Layer_1" xmlns="http://www.w3.org/2000/svg" xmlns:xlink="http://www.w3.org/1999/xlink" x="0px" y="0px"
	 viewBox="0 0 1280 800" style="enable-background:new 0 0 1280 800;" xml:space="preserve">
<style type="text/css">
	.st0{opacity:0.15;fill:#F1F2F2;}
	.st1{fill:#4D4D4D;}
	.st2{fill:#FFFFFF;}
	.st3{fill:#F57C00;}
	.st4{fill:#FFFAF5;}
	.st5{fill:none;}
	.st6{font-family:'BloggerSans';}
	.st7{font-size:17.091px;}
	.st8{opacity:0.4;}
	.st9{fill:#808285;}
	.st10{opacity:0.8;fill:#4D4D4D;}
	.st11{fill:#FFFFFF;stroke:#FFFFFF;stroke-width:1.2;stroke-miterlimit:10;}
	.st12{fill:#F47B54;}
	.st13{opacity:0.8;fill:#F57C00;}
	.st14{fill:#FCDED4;}
	.st15{fill:#231F20;}
	.st16{fill:#58595B;}
	.st17{fill:#FFFFFF;stroke:#58595B;stroke-width:3.5;stroke-miterlimit:10;}
	.st18{fill:none;stroke:#FFFFFF;stroke-width:3.5;stroke-miterlimit:10;}
	.st19{fill-rule:evenodd;clip-rule:evenodd;fill:#58595B;stroke:#58595B;stroke-miterlimit:10;}
	.st20{fill-rule:evenodd;clip-rule:evenodd;fill:#FFFFFF;stroke:#FFFFFF;stroke-miterlimit:10;}
	.st21{fill:#58595B;stroke:#58595B;stroke-width:1.5;stroke-miterlimit:10;}
	.st22{fill:#58595B;stroke:#58595B;stroke-miterlimit:10;}
	.st23{fill:#FFFFFF;stroke:#FFFFFF;stroke-width:1.5;stroke-miterlimit:10;}
	.st24{fill:#FFFFFF;stroke:#FFFFFF;stroke-miterlimit:10;}
	.st25{fill:none;stroke:#58595B;stroke-width:3;stroke-miterlimit:10;}
	.st26{fill:none;stroke:#FFFFFF;stroke-width:3;stroke-miterlimit:10;}
	.st27{fill:none;stroke:#F57C00;stroke-miterlimit:10;}
	.st28{opacity:0.2;}
	.st29{fill:none;stroke:#231F20;stroke-miterlimit:10;}
	.st30{opacity:0.4;fill:#808285;}
	.st31{opacity:0.5;}
	.st32{opacity:0.4;fill:none;stroke:#231F20;stroke-miterlimit:10;}
	.st33{fill:#808285;stroke:#808285;stroke-width:5;stroke-miterlimit:10;}
	.st34{fill:#6D6E71;}
</style>
<g>
	<rect x="0" y="-0.1" class="st3" width="1280" height="800"/>
	<g>
		<g>
			<rect x="401.2" y="89.7" class="st3" width="224.7" height="627.2"/>
			<rect x="658.6" y="89.8" class="st3" width="224.7" height="627.1"/>
			<rect x="914.2" y="89.7" class="st3" width="224.7" height="627.2"/>
			<rect x="143.3" y="89.7" class="st3" width="224.7" height="627.2"/>
		</g>
		<g>
			<g>
				<path class="st2" d="M844.2,475.2c-0.3,10.1-8.2,18.6-18.6,18.6c-10.2,0-18.5-8.5-18.6-18.6c-0.1-9.9,8.1-18.2,18-18.6
					C835.6,456.3,843.8,464.8,844.2,475.2c0.1,2,3.1,2,3.1,0c-0.6-19.7-25.7-29.4-38.5-13.6c-12.3,15.1,1.1,38,20.3,35
					c10.6-1.7,17.9-10.9,18.2-21.4C847.3,473.2,844.2,473.2,844.2,475.2z"/>
			</g>
			<g>
				<path class="st2" d="M818.7,470.5c3.9,3.9,7.7,7.7,11.6,11.6c1.4,1.4,3.6-0.8,2.2-2.2c-3.9-3.9-7.7-7.7-11.6-11.6
					C819.5,466.9,817.3,469.1,818.7,470.5L818.7,470.5z"/>
				<path class="st2" d="M830.3,468.3c-3.9,3.9-7.7,7.7-11.6,11.6c-1.4,1.4,0.8,3.6,2.2,2.2c3.9-3.9,7.7-7.7,11.6-11.6
					C833.9,469.1,831.7,466.9,830.3,468.3L830.3,468.3z"/>
			</g>
		</g>
		<g>
			<g>
				<path class="st2" d="M841.9,169.6h-32.6c-2.7,0-4.9,2.2-4.9,4.9v35.2c0,2.7,2.2,4.9,4.9,4.9h32.6c2.7,0,4.9-2.2,4.9-4.9v-35.2
					C846.8,171.8,844.6,169.6,841.9,169.6L841.9,169.6z M834.9,172v15.4h-18.4V172H834.9z M820,212.2v-11.8h11.2v11.8H820z
					 M844.4,209.7c0,1.3-1.1,2.4-2.4,2.4h-8.2v-13c0-0.7-0.5-1.2-1.2-1.2h-13.6c-0.7,0-1.2,0.5-1.2,1.2v13h-8.2
					c-1.3,0-2.4-1.1-2.4-2.4v-35.2c0-1.3,1.1-2.4,2.4-2.4h4.6v16.6c0,0.7,0.5,1.2,1.2,1.2h20.9c0.7,0,1.2-0.5,1.2-1.2V172h4.6
					c1.3,0,2.4,1.1,2.4,2.4V209.7z M844.4,209.7"/>
				<path class="st2" d="M841.9,214.7h-32.6c-2.8,0-5-2.3-5-5v-35.2c0-2.8,2.3-5,5-5h32.6c2.8,0,5,2.3,5,5v35.2
					C846.9,212.5,844.7,214.7,841.9,214.7z M809.3,169.7c-2.6,0-4.8,2.1-4.8,4.8v35.2c0,2.6,2.1,4.8,4.8,4.8h32.6
					c2.6,0,4.8-2.1,4.8-4.8v-35.2c0-2.6-2.1-4.8-4.8-4.8H809.3z M841.9,212.3h-8.4v-13.2c0-0.6-0.5-1.1-1.1-1.1h-13.6
					c-0.6,0-1.1,0.5-1.1,1.1v13.2h-8.4c-1.4,0-2.6-1.2-2.6-2.6v-35.2c0-1.4,1.2-2.6,2.6-2.6h4.8v16.7c0,0.6,0.5,1.1,1.1,1.1h20.9
					c0.6,0,1.1-0.5,1.1-1.1v-16.7h4.8c1.4,0,2.6,1.2,2.6,2.6v35.2C844.5,211.1,843.3,212.3,841.9,212.3z M833.8,212h8.1
					c1.3,0,2.3-1,2.3-2.3v-35.2c0-1.3-1-2.3-2.3-2.3h-4.5v16.5c0,0.7-0.6,1.4-1.4,1.4h-20.9c-0.7,0-1.4-0.6-1.4-1.4v-16.5h-4.5
					c-1.3,0-2.3,1-2.3,2.3v35.2c0,1.3,1,2.3,2.3,2.3h8.1v-12.9c0-0.7,0.6-1.4,1.4-1.4h13.6c0.7,0,1.4,0.6,1.4,1.4V212z M831.4,212.3
					h-11.5v-12.1h11.5V212.3z M820.2,212h10.9v-11.5h-10.9V212z M835,187.5h-18.7v-15.7H835V187.5z M816.5,187.3h18.2v-15.1h-18.2
					V187.3z"/>
			</g>
			<g>
				<path class="st2" d="M819.2,185.2h13c0.7,0,1.2-0.5,1.2-1.2c0-0.7-0.5-1.2-1.2-1.2h-13c-0.7,0-1.2,0.5-1.2,1.2
					C817.9,184.7,818.5,185.2,819.2,185.2L819.2,185.2z M819.2,185.2"/>
				<path class="st2" d="M832.1,185.4h-13c-0.7,0-1.4-0.6-1.4-1.4s0.6-1.4,1.4-1.4h13c0.7,0,1.4,0.6,1.4,1.4
					S832.9,185.4,832.1,185.4z M819.2,182.9c-0.6,0-1.1,0.5-1.1,1.1s0.5,1.1,1.1,1.1h13c0.6,0,1.1-0.5,1.1-1.1s-0.5-1.1-1.1-1.1
					H819.2z"/>
			</g>
			<g>
				<path class="st2" d="M819.2,180.9h13c0.7,0,1.2-0.5,1.2-1.2c0-0.7-0.5-1.2-1.2-1.2h-13c-0.7,0-1.2,0.5-1.2,1.2
					C817.9,180.4,818.5,180.9,819.2,180.9L819.2,180.9z M819.2,180.9"/>
				<path class="st2" d="M832.1,181.1h-13c-0.7,0-1.4-0.6-1.4-1.4c0-0.7,0.6-1.4,1.4-1.4h13c0.7,0,1.4,0.6,1.4,1.4
					C833.5,180.5,832.9,181.1,832.1,181.1z M819.2,178.6c-0.6,0-1.1,0.5-1.1,1.1s0.5,1.1,1.1,1.1h13c0.6,0,1.1-0.5,1.1-1.1
					s-0.5-1.1-1.1-1.1H819.2z"/>
			</g>
			<g>
				<path class="st2" d="M819.2,176.7h13c0.7,0,1.2-0.5,1.2-1.2c0-0.7-0.5-1.2-1.2-1.2h-13c-0.7,0-1.2,0.5-1.2,1.2
					C817.9,176.1,818.5,176.7,819.2,176.7L819.2,176.7z M819.2,176.7"/>
				<path class="st2" d="M832.1,176.8h-13c-0.7,0-1.4-0.6-1.4-1.4c0-0.7,0.6-1.4,1.4-1.4h13c0.7,0,1.4,0.6,1.4,1.4
					C833.5,176.2,832.9,176.8,832.1,176.8z M819.2,174.4c-0.6,0-1.1,0.5-1.1,1.1c0,0.6,0.5,1.1,1.1,1.1h13c0.6,0,1.1-0.5,1.1-1.1
					c0-0.6-0.5-1.1-1.1-1.1H819.2z"/>
			</g>
			<g>
				<path class="st2" d="M828.8,201.6c-0.7,0-1.2,0.5-1.2,1.2v3.5c0,0.7,0.5,1.2,1.2,1.2c0.7,0,1.2-0.5,1.2-1.2v-3.5
					C830.1,202.1,829.5,201.6,828.8,201.6L828.8,201.6z M828.8,201.6"/>
				<path class="st2" d="M828.8,207.6c-0.7,0-1.4-0.6-1.4-1.4v-3.5c0-0.7,0.6-1.4,1.4-1.4c0.7,0,1.4,0.6,1.4,1.4v3.5
					C830.2,207,829.6,207.6,828.8,207.6z M828.8,201.7c-0.6,0-1.1,0.5-1.1,1.1v3.5c0,0.6,0.5,1.1,1.1,1.1c0.6,0,1.1-0.5,1.1-1.1
					v-3.5C829.9,202.2,829.4,201.7,828.8,201.7z"/>
			</g>
		</g>
		<g>
			<g>
				<path class="st2" d="M844.2,620.6c-0.3,10.1-8.2,18.6-18.6,18.6c-10.2,0-18.5-8.5-18.6-18.6c-0.1-9.9,8.1-18.2,18-18.6
					C835.6,601.7,843.8,610.2,844.2,620.6c0.1,2,3.1,2,3.1,0c-0.6-19.7-25.7-29.4-38.5-13.6c-12.3,15.1,1.1,38,20.3,35
					c10.6-1.7,17.9-10.9,18.2-21.4C847.3,618.6,844.2,618.6,844.2,620.6z"/>
			</g>
			<g>
				<g>
					<path class="st2" d="M824.7,626.7c-0.8,0.8-2.2,0.8-3,0l-4.6-4.6c-0.8-0.8-0.8-2.2,0-3c0.8-0.8,2.2-0.8,3,0l2.7,2.7
						c0.2,0.2,0.5,0.2,0.8,0l7.4-7.4c0.8-0.8,2.2-0.8,3,0c0.4,0.4,0.6,0.9,0.6,1.5c0,0.6-0.2,1.1-0.6,1.5L824.7,626.7z M824.7,626.7
						"/>
				</g>
			</g>
		</g>
		<path class="st2" d="M825.6,357.4c-0.9,0-1.8-0.4-2.4-1.1l-13.8-15.8c-0.8-0.9-1-2.2-0.5-3.4c0.5-1.1,1.6-1.8,2.9-1.8h5.1v-19.9
			c0-2,1.7-3.7,3.7-3.7h10c2,0,3.7,1.7,3.7,3.7l0,19.9h5.1c1.2,0,2.3,0.7,2.9,1.8c0.5,1.1,0.3,2.4-0.5,3.4L828,356.4
			C827.4,357.1,826.5,357.4,825.6,357.4z M811.8,338.5l13.8,15.8c0,0,0,0,0,0l13.8-15.8l0-0.1h-8.2l0.1-23c0-0.3-0.3-0.6-0.6-0.6
			h-10c-0.3,0-0.6,0.3-0.6,0.6v23L811.8,338.5l-1.2,1L811.8,338.5z"/>
		<g>
			<g>
				<path class="st2" d="M1096.9,200.2c-0.3,0-0.7-0.1-0.9-0.4c-0.5-0.5-0.5-1.3,0-1.8l4.6-4.6h-18.3c-0.7,0-1.3-0.6-1.3-1.3
					c0-0.7,0.6-1.3,1.3-1.3h18.3l-4.5-4.6c-0.5-0.5-0.5-1.3,0-1.8c0.5-0.5,1.3-0.5,1.8,0l6.8,6.8c0.2,0.2,0.4,0.6,0.4,0.9
					c0,0.3-0.1,0.7-0.4,0.9l-6.8,6.8C1097.5,200.1,1097.2,200.2,1096.9,200.2L1096.9,200.2z M1096.9,200.2"/>
				<path class="st2" d="M1096.9,200.5c-0.4,0-0.8-0.2-1.1-0.5c-0.6-0.6-0.6-1.6,0-2.3l4.1-4.1h-17.6c-0.9,0-1.6-0.7-1.6-1.6
					c0-0.9,0.7-1.6,1.6-1.6h17.5l-4-4.1c-0.6-0.6-0.6-1.6,0-2.2c0.6-0.6,1.6-0.6,2.2,0l6.8,6.8c0.3,0.3,0.5,0.7,0.5,1.1
					c0,0.4-0.2,0.8-0.5,1.1l-6.8,6.8C1097.7,200.3,1097.3,200.5,1096.9,200.5z M1082.2,191.1c-0.5,0-1,0.4-1,1c0,0.5,0.4,1,1,1h19.1
					l-5.1,5.1c-0.4,0.4-0.4,1,0,1.4c0.4,0.4,1,0.4,1.4,0l6.8-6.8c0.2-0.2,0.3-0.4,0.3-0.7s-0.1-0.5-0.3-0.7l-6.8-6.8
					c-0.4-0.4-1-0.4-1.4,0c-0.4,0.4-0.4,1,0,1.4l5.1,5.1H1082.2z"/>
			</g>
			<g>
				<path class="st2" d="M1094.6,213.9h-25c-0.7,0-1.3-0.6-1.3-1.3v-41.1c0-0.7,0.6-1.3,1.3-1.3h25c0.7,0,1.3,0.6,1.3,1.3v7.5
					c0,0.7-0.6,1.3-1.3,1.3s-1.3-0.6-1.3-1.3v-6.2h-22.4v38.6h22.4v-6.2c0-0.7,0.6-1.3,1.3-1.3s1.3,0.6,1.3,1.3v7.5
					C1095.9,213.4,1095.3,213.9,1094.6,213.9L1094.6,213.9z M1094.6,213.9"/>
				<path class="st2" d="M1094.6,214.2h-25c-0.9,0-1.6-0.7-1.6-1.6v-41.1c0-0.9,0.7-1.6,1.6-1.6h25c0.9,0,1.6,0.7,1.6,1.6v7.5
					c0,0.9-0.7,1.6-1.6,1.6c-0.9,0-1.6-0.7-1.6-1.6v-5.9h-21.8v37.9h21.8v-5.9c0-0.9,0.7-1.6,1.6-1.6c0.9,0,1.6,0.7,1.6,1.6v7.5
					C1096.2,213.5,1095.5,214.2,1094.6,214.2z M1069.6,170.6c-0.5,0-1,0.4-1,1v41.1c0,0.5,0.4,1,1,1h25c0.5,0,1-0.4,1-1v-7.5
					c0-0.5-0.4-1-1-1c-0.5,0-1,0.4-1,1v6.5h-23v-39.2h23v6.5c0,0.5,0.4,1,1,1c0.5,0,1-0.4,1-1v-7.5c0-0.5-0.4-1-1-1H1069.6z"/>
			</g>
		</g>
		<g>
			<path class="st2" d="M1065.8,322.5c13.9,0,27.8,0,41.7,0c2.6,0,2.6-4,0-4c-13.9,0-27.8,0-41.7,0
				C1063.2,318.6,1063.2,322.5,1065.8,322.5L1065.8,322.5z"/>
			<path class="st2" d="M1065.8,336.6c13.9,0,27.8,0,41.7,0c2.6,0,2.6-4,0-4c-13.9,0-27.8,0-41.7,0
				C1063.2,332.6,1063.2,336.6,1065.8,336.6L1065.8,336.6z"/>
			<path class="st2" d="M1065.8,350.6c13.9,0,27.8,0,41.7,0c2.6,0,2.6-4,0-4c-13.9,0-27.8,0-41.7,0
				C1063.2,346.7,1063.2,350.6,1065.8,350.6L1065.8,350.6z"/>
		</g>
		<g>
			<polygon class="st2" points="574.1,173.1 574.1,173.1 574.1,173.1 			"/>
			<path class="st2" d="M546.9,216.4c0.6,0.1,1.2-0.1,1.7-0.6l14.1-14.3l0.9,0.6c2.5,1.7,5.4,2.8,8.3,3.1c0.7,0.1,1.5,0.1,2.2,0.1
				l0.1,0c5,0,9.8-2,13.3-5.6c3.5-3.6,5.5-8.3,5.4-13.4c-0.1-9.5-7.2-17.5-16.6-18.6c-0.7-0.1-1.5-0.1-2.2-0.1l-0.1,0
				c-5,0-9.7,2-13.3,5.6c-3.5,3.6-5.5,8.3-5.4,13.4c0,4.1,1.3,7.9,3.8,11.2l0.7,0.9l-14,14.2c-0.4,0.4-0.6,0.9-0.6,1.4
				c0,0.5,0.2,1,0.6,1.4C546,216.2,546.4,216.4,546.9,216.4z M559.3,186.7c0-4,1.5-7.7,4.3-10.5c2.8-2.8,6.5-4.4,10.5-4.4l0.1,0
				c0.6,0,1.2,0,1.8,0.1c7.4,0.9,13,7.2,13.1,14.6c0,4-1.5,7.7-4.3,10.5c-2.8,2.8-6.5,4.4-10.5,4.4l-0.1,0c-0.6,0-1.2,0-1.8-0.1
				C564.9,200.4,559.3,194.2,559.3,186.7z"/>
		</g>
		<path class="st2" d="M569,360.9c-2.5,0-5-1.7-6-4c-0.4-0.9-0.9-1.7-1.6-2.3c-0.4-0.4-0.8-0.5-1.4-0.5c-0.9,0-1.6,0.1-2.2,0.4
			c-0.8,0.4-1.7,0.6-2.7,0.6c-3,0-6.1-2-6.5-5.9c-0.1-1.1,0.1-2.2,0.5-3.2c0.3-0.8,0.5-1.6,0.5-2.5c0-0.6-0.2-1-0.7-1.5
			c-0.6-0.5-1.2-1-2-1.3c-2.3-1-3.7-2.9-4-5.4c-0.3-2.7,1.4-5.5,3.9-6.6c1.2-0.5,2-1.1,2.6-1.9c0.2-0.2,0.2-0.5,0.3-0.8
			c0.1-1-0.1-1.9-0.4-2.7c-0.8-1.8-0.7-4.1,0.3-5.9c1-1.8,2.8-2.9,4.9-3.1c1.2-0.1,2.3,0,3.3,0.5c0.9,0.4,1.8,0.5,2.8,0.4
			c0.3,0,0.8-0.2,1.4-0.9c0.5-0.5,0.8-1.1,1.1-1.8c1-2.4,3.5-4.1,6-4.1c2.6,0,5,1.7,6,4.1c0.4,0.9,0.8,1.6,1.5,2.2
			c0.4,0.4,0.9,0.5,1.5,0.5c0.9,0,1.6-0.2,2.3-0.5c2.4-1,5.4-0.5,7.2,1.3c1.9,1.9,2.4,4.8,1.4,7.2c-0.3,0.7-0.5,1.5-0.5,2.3
			c0,0.5,0.1,1.2,1,1.9c0.5,0.4,1.1,0.8,1.8,1.1c2.4,1,4.1,3.5,4.1,6c0,2.6-1.7,5-4.1,6c-0.9,0.4-1.6,0.9-2.2,1.5
			c-0.4,0.4-0.5,0.8-0.5,1.5c0,0.8,0.2,1.6,0.5,2.3c1,2.4,0.7,4.8-1,6.8c-1.2,1.5-2.9,2.3-5,2.3l0,0c-0.4,0-0.9,0-1.3-0.1
			c-0.6-0.1-1.1-0.3-1.5-0.5c-0.2-0.1-0.4-0.2-0.5-0.2c-0.7-0.2-1.4-0.3-2.1-0.2c-0.3,0-0.7,0.1-1.3,0.7c-0.5,0.6-1,1.2-1.3,2
			C574.1,359.2,571.6,360.9,569,360.9L569,360.9z M560,350.4c1.5,0,2.9,0.5,3.9,1.5c1.1,1,1.9,2.2,2.5,3.6c0.4,1,1.6,1.8,2.6,1.8
			v1.8l0-1.8c1.1,0,2.2-0.8,2.6-1.8c0.5-1.3,1.2-2.3,2-3.2c1.1-1.1,2.3-1.7,3.6-1.8c1.2-0.1,2.3,0,3.4,0.3c0.3,0.1,0.6,0.2,0.9,0.3
			c0.3,0.1,0.5,0.2,0.6,0.2c1.3,0.2,2.2-0.1,2.9-0.9c0.8-1,0.9-2,0.4-3.1c-0.5-1.1-0.7-2.4-0.7-3.6c0-1.6,0.5-2.9,1.5-4
			c1-1.1,2.2-1.9,3.5-2.4c1-0.4,1.8-1.6,1.8-2.7c0-1.1-0.8-2.2-1.8-2.7c-1.1-0.4-2-1-2.8-1.7c-1.6-1.3-2.3-3-2.3-4.8
			c0-1.3,0.3-2.5,0.8-3.6c0.5-1.1,0.2-2.5-0.6-3.3c-0.8-0.8-2.2-1-3.3-0.5c-1.1,0.5-2.4,0.7-3.7,0.8h0c-1.6,0-2.9-0.5-4-1.5
			c-1-1-1.8-2.1-2.4-3.4c-0.4-1.1-1.6-1.9-2.7-1.9c-1.1,0-2.2,0.8-2.7,1.9c-0.4,1.1-1,2-1.8,2.9c-0.7,0.8-1.9,1.9-3.8,2.1
			c-1.6,0.1-3.1-0.1-4.5-0.7c-0.5-0.2-1-0.3-1.5-0.2c-1.2,0.1-1.8,0.8-2.1,1.3c-0.5,0.8-0.5,1.8-0.2,2.6c0.6,1.4,0.9,2.9,0.8,4.5
			c-0.1,1-0.4,1.8-1,2.6c-1,1.3-2.3,2.4-4.1,3.1c-1.1,0.4-1.9,1.7-1.7,2.8c0.2,1.3,0.7,2.1,1.8,2.5c1.2,0.5,2.3,1.2,3.2,2.1
			c1.2,1.2,1.8,2.5,1.8,4.1c0,1.4-0.2,2.8-0.8,4c-0.2,0.4-0.3,0.9-0.2,1.4c0.2,2,1.9,2.6,2.9,2.6c0.4,0,0.8-0.1,1.1-0.2
			C557.3,350.7,558.6,350.4,560,350.4z M569,345.4c-2.9,0-5.6-1.1-7.7-3.2c-2-2-3.2-4.8-3.1-7.6c0-5.9,4.9-10.8,10.8-10.8h0
			c2.9,0,5.6,1.1,7.6,3.2c2,2.1,3.2,4.8,3.1,7.6C579.8,340.6,574.9,345.4,569,345.4z M569,325.6v1.8c-3.9,0-7.1,3.2-7.2,7.1
			c0,1.9,0.7,3.7,2.1,5.1c1.4,1.4,3.2,2.1,5.1,2.1c3.9,0,7.2-3.2,7.2-7.1c0-1.9-0.7-3.7-2.1-5.1c-1.4-1.4-3.2-2.1-5.1-2.1L569,325.6
			z"/>
		<g>
			<g>
				<path class="st2" d="M317.6,591.7h-13.8c-2.5,0-4.5,2-4.5,4.5v2.2c0,0.6-0.5,1-1,1h-13.8c-2.5,0-4.5,2-4.5,4.5v33.2
					c0,2.5,2,4.5,4.5,4.5H337c2.5,0,4.5-2,4.5-4.5v-34c0-2-1.6-3.6-3.7-3.6h-14.6c-0.6,0-1-0.5-1-1v-2.2
					C322.1,593.7,320.1,591.7,317.6,591.7z M302.8,596.2c0-0.6,0.5-1,1-1h13.8c0.6,0,1,0.5,1,1v2.2c0,0.6-0.5,1-1,1h-13.8
					c-0.6,0-1-0.5-1-1V596.2z M338,637.1c0,0.6-0.5,1-1,1h-52.5c-0.6,0-1-0.5-1-1v-21.6c0-0.6,0.5-1,1-1H337c0.6,0,1,0.5,1,1V637.1z
					 M337,602.8c0.6,0,1,0.5,1,1v6.1c0,0.6-0.5,1-1,1h-52.5c-0.6,0-1-0.5-1-1v-6.1c0-0.6,0.5-1,1-1H337z"/>
			</g>
			<path class="st2" d="M294.9,616.6h-1c-0.7,0-1.2-0.5-1.2-1.2v-5c0-0.7,0.5-1.2,1.2-1.2h1c0.7,0,1.2,0.5,1.2,1.2v5
				C296.1,616.1,295.5,616.6,294.9,616.6z"/>
			<path class="st2" d="M327.8,616.6h-1c-0.7,0-1.2-0.5-1.2-1.2v-5c0-0.7,0.5-1.2,1.2-1.2h1c0.7,0,1.2,0.5,1.2,1.2v5
				C329,616.1,328.5,616.6,327.8,616.6z"/>
		</g>
		<g>
			<path class="st2" d="M587,475.2c-0.3,9.8-7.9,17.9-17.9,17.9c-9.8,0-17.9-8.2-17.9-17.9c0-9.6,7.8-17.6,17.3-17.9
				C578.6,457,586.6,465.3,587,475.2c0.1,2,3.2,2,3.2,0c-0.4-11.5-9.3-21.1-21.1-21.1c-11.5,0-21.1,9.6-21.1,21.1
				c0,11.5,9.6,21.1,21.1,21.1c11.8,0,20.8-9.6,21.1-21.1C590.2,473.2,587,473.2,587,475.2z"/>
			<path class="st2" d="M585.9,467.3c4.2,0.9,9.5,1.8,12.9,4.7c3.2,2.7,0.4,4.9-2.4,6.3c-8.1,4.2-18.5,4.7-27.4,4.7
				c-8.8,0-18.9-0.6-27-4.5c-2.4-1.2-5.8-3.2-3.4-6c2.8-3.3,8.9-4.3,12.9-5.1c2-0.4,1.2-3.5-0.8-3.1c-4.9,1-21.5,5.5-14.7,13.8
				c2.7,3.3,7.7,4.7,11.7,5.7c6.9,1.8,14.2,2.4,21.4,2.4c7.1,0,14.4-0.6,21.4-2.4c3.9-1,8.9-2.5,11.7-5.7c7-8.4-10.5-12.9-15.3-13.9
				C584.7,463.9,583.9,466.9,585.9,467.3L585.9,467.3z"/>
		</g>
		<g>
			<path class="st2" d="M593,616.6c-0.3,13.1-10.7,24-24,24c-13.1,0-24-10.9-24-24c0-13.1,10.9-24.1,24-24
				C582.3,592.6,592.7,603.5,593,616.6c0,2,3.1,2,3.1,0c-0.3-11.2-6.9-21.3-17.5-25.3c-10.8-4.1-23.4-0.7-30.6,8.3
				c-7.1,8.8-8,21.4-2.2,31.1c5.8,9.6,17.3,14.7,28.3,12.6c12.8-2.4,21.7-13.8,22-26.6C596.1,614.6,593.1,614.6,593,616.6z"/>
			<g>
				<g>
					<path class="st2" d="M570.3,622.6V618l0.6-0.5c0.2-0.2,0.6-0.5,1.1-0.8c1.9-1.3,4.5-3.1,4.5-7.5c0-4.1-3.3-7.4-7.4-7.4
						s-7.4,3.3-7.4,7.4c0,0.7,0.6,1.3,1.3,1.3c0.7,0,1.3-0.6,1.3-1.3c0-2.7,2.2-4.9,4.9-4.9c2.7,0,4.9,2.2,4.9,4.9
						c0,3.1-1.7,4.2-3.3,5.4c-1.6,1.1-2.8,2.1-2.8,3.9v4.2c0,0.7,0.6,1.3,1.3,1.3C569.7,623.9,570.3,623.3,570.3,622.6z"/>
					<path class="st2" d="M569,624.3c-1,0-1.7-0.8-1.7-1.7v-4.2c0-2,1.3-3.1,3-4.2c1.6-1.1,3.1-2.2,3.1-5c0-2.4-2-4.4-4.4-4.4
						c-2.4,0-4.4,2-4.4,4.4c0,1-0.8,1.7-1.7,1.7c-1,0-1.7-0.8-1.7-1.7c0-4.3,3.5-7.9,7.9-7.9c4.3,0,7.9,3.5,7.9,7.9
						c0,4.7-2.8,6.6-4.7,7.9c-0.5,0.4-0.9,0.6-1.1,0.8l-0.4,0.3v4.4C570.7,623.5,570,624.3,569,624.3z M569,603.9
						c2.9,0,5.3,2.4,5.3,5.3c0,3.3-1.9,4.6-3.5,5.7c-1.6,1.1-2.6,1.9-2.6,3.5v4.2c0,0.5,0.4,0.9,0.9,0.9c0.5,0,0.9-0.4,0.9-0.9v-4.8
						l0.7-0.6c0.2-0.2,0.6-0.5,1.2-0.9c1.9-1.3,4.3-2.9,4.3-7.1c0-3.9-3.1-7-7-7c-3.9,0-7,3.1-7,7c0,0.5,0.4,0.9,0.9,0.9
						c0.5,0,0.9-0.4,0.9-0.9C563.7,606.2,566.1,603.9,569,603.9z"/>
				</g>
				<circle class="st2" cx="569" cy="629.2" r="2.1"/>
			</g>
		</g>
		<g>
			<path class="st2" d="M309.6,167.2c8.3,4.5,16.6,8.9,24.9,13.4c0-1.1,0-2.2,0-3.3c-8.3,4.5-16.6,9-24.9,13.5c0.6,0,1.3,0,1.9,0
				c-8.3-4.5-16.7-9-25-13.5c0,1.1,0,2.2,0,3.3c8.3-4.5,16.7-9,25-13.5c2.2-1.2,0.2-4.5-1.9-3.3c-8.3,4.5-16.7,9-25,13.5
				c-1.2,0.7-1.2,2.6,0,3.3c4.5,2.4,9.1,4.9,13.6,7.3c2.8,1.5,5.6,3,8.4,4.5c1,0.6,2.7,1.9,4,1.9c1.3,0,2.9-1.3,3.9-1.9
				c2.8-1.5,5.6-3,8.4-4.6c4.5-2.5,9-4.9,13.5-7.4c1.2-0.7,1.2-2.6,0-3.3c-8.3-4.5-16.6-8.9-24.9-13.4
				C309.3,162.7,307.4,166,309.6,167.2z"/>
			<path class="st2" d="M334.5,177.3c-8.3,4.5-16.6,9-25,13.5c-0.6,0.3-0.9,1-0.9,1.6c0,10,0,20,0,30c0,1.4,1.6,2.4,2.9,1.6
				c7.4-4.5,14.7-9,22.1-13.5c2.3-1.4,3.8-1.9,3.8-4.8c0.1-4.3,0-8.6,0-12.9c0-2.5-3.8-2.5-3.8,0c0,4.8,0,9.5,0,14.3
				c0.3-0.5,0.6-1.1,0.9-1.6c-8.3,5.1-16.6,10.2-25,15.2c1,0.5,1.9,1.1,2.9,1.6c0-10,0-20,0-30c-0.3,0.5-0.6,1.1-0.9,1.6
				c8.3-4.5,16.6-9,25-13.5C338.5,179.4,336.6,176.1,334.5,177.3L334.5,177.3z"/>
			<path class="st2" d="M284.5,180.6c8.3,4.5,16.6,9,25,13.5c-0.3-0.5-0.6-1.1-0.9-1.6c0,10,0,20,0,30c1-0.5,1.9-1.1,2.9-1.6
				c-8.3-5.1-16.6-10.2-25-15.2c0.3,0.5,0.6,1.1,0.9,1.6c0-9.5,0-18.9,0-28.4c0-2.5-3.8-2.5-3.8,0c0,5.1,0,10.3,0,15.4
				c0,3.2,0,6.4,0,9.5c0,1.3-0.4,3.4,0.4,4.5c0.7,1.1,2.8,1.9,3.9,2.6c2.8,1.7,5.6,3.4,8.4,5.1c4.4,2.7,8.8,5.4,13.2,8.1
				c1.2,0.8,2.9-0.2,2.9-1.6c0-10,0-20,0-30c0-0.7-0.4-1.3-0.9-1.6c-8.3-4.5-16.6-9-25-13.5C284.3,176.1,282.4,179.4,284.5,180.6z"
				/>
			<path class="st2" d="M309.5,194.1c3.7,1.9,7.3,3.9,11,5.8c2.7,1.4,3.8,0.6,6.3-0.8c7.5-4.1,15-8.1,22.5-12.2
				c1.2-0.7,1.3-2.7,0-3.3c-3.7-1.8-7.4-3.7-11.2-5.5c-2.8-1.4-3.8-0.8-6.4,0.6c-7.4,4-14.8,8-22.2,12.1c-2.2,1.2-0.2,4.5,1.9,3.3
				c8.3-4.5,16.6-9,25-13.5c-0.6,0-1.3,0-1.9,0c4.3,2.1,8.6,4.2,12.9,6.3c0-1.1,0-2.2,0-3.3c-8.5,4.6-16.9,9.2-25.4,13.8
				c0.6,0,1.3,0,1.9,0c-4.2-2.2-8.3-4.4-12.5-6.6C309.2,189.7,307.3,193,309.5,194.1z"/>
			<path class="st2" d="M286.9,177.4c-4.3-2.2-8.6-4.4-12.8-6.6c0,1.1,0,2.2,0,3.3c8.3-4.6,16.6-9.2,24.9-13.8c-0.6,0-1.3,0-1.9,0
				c4.2,2.3,8.4,4.6,12.6,6.9c0-1.1,0-2.2,0-3.3c-8.2,4.5-16.4,9-24.6,13.5c-2.2,1.2-0.2,4.5,1.9,3.3c8.2-4.5,16.4-9,24.6-13.5
				c1.2-0.7,1.2-2.6,0-3.3c-3.6-2-7.2-4-10.9-6c-2.8-1.5-3.7-0.9-6.4,0.6c-7.4,4.1-14.8,8.2-22.1,12.3c-1.2,0.7-1.3,2.6,0,3.3
				c4.3,2.2,8.6,4.4,12.8,6.6C287.1,181.8,289.1,178.5,286.9,177.4z"/>
			<g>
				<path class="st2" d="M292.7,199.6c2.9,1.7,5.9,3.4,8.8,5c1.8,1,3.5-1.8,1.6-2.8c-2.9-1.7-5.9-3.4-8.8-5
					C292.5,195.7,290.9,198.6,292.7,199.6L292.7,199.6z"/>
				<path class="st2" d="M296.3,195.6c0,3.4,0,6.8,0,10.2c0,2.1,3.3,2.1,3.3,0c0-3.4,0-6.8,0-10.2
					C299.6,193.5,296.3,193.5,296.3,195.6L296.3,195.6z"/>
			</g>
		</g>
		<g>
			<g>
				<g>
					<path class="st2" d="M333.1,343.6c5.8-10.8,1.2-25.2-10.7-32.7c-6-3.8-13.1-5-20-3.4c-6.9,1.6-12.7,5.7-16.5,11.8
						c-3.8,6-5,13.1-3.4,20c1.6,6.9,5.7,12.7,11.8,16.5c1.3,0.8,3.3,0.4,4.1-0.9c0.5-0.8,0.6-1.3,0.4-2l0-0.2l0-0.2
						c0-1.2-0.1-2.7,0.9-4.2c1.8-2.9,5.9-3.9,8.8-2l4.8,3c4,2.5,8.6,2.8,12.6,1.2l2.8,2.4c-5.3,2.8-11.8,2.7-17.2-0.7l-4.8-3
						c-1.3-0.8-3.3-0.4-4.1,1c-0.4,0.6-0.4,1.2-0.4,2.2c0.3,1.6,0.1,3-0.9,4.4c-1.8,2.9-5.9,3.8-8.8,2c-6.8-4.3-11.5-10.9-13.3-18.6
						c-1.8-7.7-0.4-15.7,3.9-22.5c4.3-6.8,10.9-11.5,18.6-13.3c7.7-1.8,15.7-0.4,22.5,3.9c13.8,8.7,18.8,25.7,11.3,38.2L333.1,343.6
						z"/>
				</g>
			</g>
			<g>
				<path class="st2" d="M341.5,360.1c0.1,0.1,0.3,0.2,0.5,0.2l0.1,0c0.3,0,0.6-0.2,0.8-0.5c0.2-0.4,0-0.7-0.2-0.9l-5.9-6.7
					c-2-2.3-4-4.5-5.9-6.8l-4.9-5.7c-0.1-0.2-2.3-2.5-2.3-2.5l-0.5-0.6c-0.3-0.3-0.6-0.7-0.9-1c-0.5-0.5-0.9-1-1.3-1.5
					c-0.8-0.9-1.6-1.9-2.5-2.8c-0.5-0.5-1.3-0.8-2.1-0.8c-1.2,0-2.3,0.7-2.8,1.7c-0.4,0.8-0.4,1.6-0.1,2.6c0.1,0.4,1,1.3,1.9,2.1
					l0.8,0.7c1.1,0.9,2.1,1.9,3.2,2.8c0.8,0.7,1.7,1.5,2.5,2.2l0.2,0.1l15.1,13.3C338.5,357.4,340,358.8,341.5,360.1z"/>
				<path class="st2" d="M310.1,322l-0.2-0.2c-0.7-0.9-0.6-0.7-1.3-1.3l-0.1,0c-1.1-0.7-2.1-1.3-3.1-1.6c-2-0.7-3.8-1-5.4-0.9
					c1,0.8,2.3,2,2.9,3.9c0.3,0.9,0.5,1.8,0.7,3c0.1,0.3,0.1,0.7,0.2,1l0.1,0.6c0.2,1.4,1.4,2.4,3,2.6c0.1,0,0.3,0,0.4,0
					c1.8,0,3.5-1.2,3.9-2.9c0.3-1.2,0-2.4-0.8-3.7C310.3,322.3,310.2,322.1,310.1,322z"/>
			</g>
		</g>
		<g>
			<path class="st2" d="M333.1,502.1L333.1,502.1c-2.4,0-4.8-0.9-6.6-2.5c-1.5-1.3-27.8-27.7-30.8-30.7c-0.4,0-0.9,0-1.3,0
				c-4.4,0-8.2-1.6-11.4-4.7c-2.5-2.5-4.1-5.5-4.6-9c-0.2-1.5-0.4-3.1,0-4.8c0.4-1.7,1.8-2.8,3.5-2.8c0.6,0,1.1,0.1,1.6,0.4
				c0.8,0.4,1.4,0.9,1.9,1.4l1.7,1.7c1.1,1.1,2.2,2.2,3.4,3.4c0.3,0.3,0.4,0.4,0.5,0.4c0.1,0,0.3,0,0.4,0c0.6,0,1-0.2,1.3-0.5
				c0.1-0.1,0.3-0.3,0.4-0.4c0.1-0.1,0.2-0.2,0.3-0.3c0.4-0.5,0.8-0.9,1.3-1.3c0.6-0.6,1.1-1.1,1.5-1.6c0.1-0.1,0.1-0.2,0.1-0.2
				c0.1-0.4,0.1-0.8-0.4-1.4c-0.1-0.2-0.8-0.8-1.7-1.7c-1.4-1.4-3.2-3.2-4.1-4.1c-1.1-1.2-1.5-2.6-1.1-4.1l0.1-0.2
				c0.6-1.6,1.9-2.5,3.8-2.7c1.6-0.2,3.2-0.1,4.8,0.3c4.4,0.9,7.9,3.3,10.4,7c1.3,2,2.2,4.2,2.6,6.8c0.2,1.2,0.3,2.6,0.1,4.1
				c4,4.1,28,28.3,29.5,29.8c3.5,3.4,4.2,8.6,1.8,12.8C340.1,500.2,336.7,502.1,333.1,502.1z M295.9,465.2c0.9,0,1.6,0.3,2.2,0.9
				c3.7,3.7,29.4,29.6,30.8,30.7c1.2,1,2.7,1.6,4.2,1.6c2.4,0,4.5-1.2,5.7-3.3c1.6-2.7,1.1-6-1.2-8.2c-0.4-0.4-8.1-8.1-15.4-15.4
				c-15.1-15.2-15.2-15.3-15.3-15.9l-0.1-0.4l0.1-0.9c0.3-1.1,0.1-2.2,0-3.3c-0.3-2-1-3.8-2-5.3c-2-2.9-4.6-4.7-8.1-5.4
				c-1.2-0.3-2.5-0.3-3.7-0.2c-0.5,0.1-0.6,0.1-0.7,0.2c0,0.1,0,0.2,0.3,0.5c0.8,0.9,2.7,2.7,4,4.1c1.2,1.2,1.7,1.7,1.8,1.8
				c1.3,1.5,1.7,3.2,1.2,4.9c-0.1,0.4-0.3,0.8-0.5,1l-0.1,0.2c-0.6,0.9-1.4,1.6-2.1,2.2c-0.4,0.4-0.7,0.7-1.1,1.1
				c-0.2,0.2-0.3,0.3-0.5,0.5c-0.1,0.1-0.2,0.2-0.3,0.3c-1.3,1.3-2.9,1.9-4.9,1.7c-1.4-0.2-2.2-1-2.6-1.4c-1.1-1.1-2.3-2.3-3.4-3.4
				l-1.7-1.7c-0.2-0.2-0.5-0.5-0.8-0.6c-0.2,1-0.1,2,0.1,3.2c0.4,2.7,1.6,5,3.5,6.9c2.8,2.7,6.2,3.9,10.1,3.6
				C295.7,465.2,295.8,465.2,295.9,465.2z M332.5,494.9c-1.9,0-3.4-1.5-3.4-3.4s1.5-3.4,3.4-3.4c1.9,0,3.4,1.5,3.4,3.4
				S334.3,494.9,332.5,494.9z"/>
		</g>
		<g>
			<rect x="434.6" y="185.2" class="st5" width="114.7" height="44.8"/>
			<text transform="matrix(1 0 0 1 434.5524 197.6099)" class="st4 st6 st7">Search</text>
			<rect x="434.6" y="325.2" class="st5" width="114.7" height="54.3"/>
			<text transform="matrix(1 0 0 1 434.5524 337.5933)" class="st4 st6 st7">Settings</text>
			<rect x="434.6" y="469.2" class="st5" width="147.5" height="54.3"/>
			<text transform="matrix(1 0 0 1 434.5524 481.5991)" class="st4 st6 st7">World</text>
			<rect x="434.6" y="612.2" class="st5" width="114.7" height="22.4"/>
			<text transform="matrix(1 0 0 1 434.5524 624.5659)" class="st4 st6 st7">Help</text>
			<rect x="687.3" y="185.2" class="st5" width="111.9" height="29.2"/>
			<text transform="matrix(1 0 0 1 687.2877 197.6099)" class="st4 st6 st7">Save</text>
			<rect x="687.3" y="325.2" class="st5" width="111.9" height="22.5"/>
			<text transform="matrix(1 0 0 1 687.2877 337.5933)" class="st4 st6 st7">Download</text>
			<rect x="687.3" y="469.2" class="st5" width="111.9" height="22.4"/>
			<text transform="matrix(1 0 0 1 687.2877 481.5991)" class="st4 st6 st7">Delete</text>
			<rect x="687.3" y="612.2" class="st5" width="111.9" height="44.8"/>
			<text transform="matrix(1 0 0 1 687.2877 624.5659)" class="st4 st6 st7">Publish</text>
			<rect x="947.8" y="185.2" class="st5" width="78.2" height="29.2"/>
			<text transform="matrix(1 0 0 1 947.7731 197.6099)" class="st4 st6 st7">Quit</text>
			<rect x="947.8" y="325.2" class="st5" width="78.2" height="24.4"/>
			<text transform="matrix(1 0 0 1 947.7731 337.5933)" class="st4 st6 st7">Menu</text>
			<rect x="169.4" y="185.2" class="st5" width="118.8" height="29.2"/>
			<text transform="matrix(1 0 0 1 169.441 197.6099)" class="st4 st6 st7">Menu</text>
			<rect x="169.4" y="316.7" class="st5" width="118.8" height="45"/>
			<text transform="matrix(1 0 0 1 169.441 329.0483)"><tspan x="0" y="0" class="st4 st6 st7">Style </tspan><tspan x="0" y="20.5" class="st4 st6 st7">Editor</tspan></text>
			<rect x="169.4" y="460.7" class="st5" width="118.8" height="44.8"/>
			<text transform="matrix(1 0 0 1 169.441 473.0532)"><tspan x="0" y="0" class="st4 st6 st7">Object </tspan><tspan x="0" y="20.5" class="st4 st6 st7">Editor</tspan></text>
			<rect x="169.4" y="607.2" class="st5" width="118.8" height="44.8"/>
			<text transform="matrix(1 0 0 1 169.441 619.564)"><tspan x="0" y="0" class="st4 st6 st7">Advanced </tspan><tspan x="0" y="20.5" class="st4 st6 st7">Tools</tspan></text>
		</g>
	</g>
</g>
</svg>
