<?xml version="1.0" encoding="utf-8"?>
<!-- Generator: Adobe Illustrator 19.1.0, SVG Export Plug-In . SVG Version: 6.00 Build 0)  -->
<svg version="1.1" id="Layer_1" xmlns="http://www.w3.org/2000/svg" xmlns:xlink="http://www.w3.org/1999/xlink" x="0px" y="0px"
	 viewBox="0 0 1280 800" style="enable-background:new 0 0 1280 800;" xml:space="preserve">
<style type="text/css">
	.st0{opacity:0.15;fill:#F1F2F2;}
	.st1{fill:#4D4D4D;}
	.st2{fill:#FFFFFF;}
	.st3{fill:#F57C00;}
	.st4{fill:#FFFAF5;}
	.st5{opacity:0.4;}
	.st6{fill:#808285;}
	.st7{opacity:0.8;fill:#4D4D4D;}
	.st8{fill:#FFFFFF;stroke:#FFFFFF;stroke-width:1.2;stroke-miterlimit:10;}
	.st9{fill:#F47B54;}
	.st10{opacity:0.8;fill:#F57C00;}
	.st11{fill:#FCDED4;}
	.st12{fill:none;}
	.st13{font-family:'MyriadPro-Regular';}
	.st14{font-size:16.8852px;}
	.st15{fill:#231F20;}
	.st16{fill:#58595B;}
	.st17{fill:#FFFFFF;stroke:#58595B;stroke-width:3.5;stroke-miterlimit:10;}
	.st18{fill:none;stroke:#FFFFFF;stroke-width:3.5;stroke-miterlimit:10;}
	.st19{fill-rule:evenodd;clip-rule:evenodd;fill:#58595B;stroke:#58595B;stroke-miterlimit:10;}
	.st20{fill-rule:evenodd;clip-rule:evenodd;fill:#FFFFFF;stroke:#FFFFFF;stroke-miterlimit:10;}
	.st21{fill:#58595B;stroke:#58595B;stroke-width:1.5;stroke-miterlimit:10;}
	.st22{fill:#58595B;stroke:#58595B;stroke-miterlimit:10;}
	.st23{fill:#FFFFFF;stroke:#FFFFFF;stroke-width:1.5;stroke-miterlimit:10;}
	.st24{fill:#FFFFFF;stroke:#FFFFFF;stroke-miterlimit:10;}
	.st25{fill:none;stroke:#58595B;stroke-width:3;stroke-miterlimit:10;}
	.st26{fill:none;stroke:#FFFFFF;stroke-width:3;stroke-miterlimit:10;}
	.st27{fill:none;stroke:#F57C00;stroke-miterlimit:10;}
	.st28{opacity:0.2;}
	.st29{fill:none;stroke:#231F20;stroke-miterlimit:10;}
	.st30{opacity:0.4;fill:#808285;}
	.st31{opacity:0.5;}
	.st32{opacity:0.4;fill:none;stroke:#231F20;stroke-miterlimit:10;}
	.st33{fill:#808285;stroke:#808285;stroke-width:5;stroke-miterlimit:10;}
	.st34{fill:#6D6E71;}
</style>
<g>
	<rect x="-0.1" class="st10" width="1280" height="800"/>
	<g>
		<g>
			<g>
				<path class="st2" d="M579.7,622.3c0,7.1,0,14.3,0,21.4c0,2.9,4.5,2.9,4.5,0c0-7.1,0-14.3,0-21.4
					C584.2,619.4,579.7,619.4,579.7,622.3L579.7,622.3z"/>
				<path class="st2" d="M571.3,635.3c7.1,0,14.3,0,21.4,0c2.9,0,2.9-4.5,0-4.5c-7.1,0-14.3,0-21.4,0
					C568.4,630.8,568.4,635.3,571.3,635.3L571.3,635.3z"/>
			</g>
			<path class="st2" d="M604.5,661.6h-45c-3.4,0-6.1-2.7-6.1-6.1v-45c0-3.4,2.7-6.1,6.1-6.1h45c3.4,0,6.1,2.7,6.1,6.1v45
				C610.6,658.9,607.8,661.6,604.5,661.6z M559.4,609.4c-0.6,0-1.1,0.5-1.1,1.1v45c0,0.6,0.5,1.1,1.1,1.1h45c0.6,0,1.1-0.5,1.1-1.1
				v-45c0-0.6-0.5-1.1-1.1-1.1H559.4z"/>
			<path class="st2" d="M577.1,621l4.1-5.7c0.4-0.5,1.2-0.5,1.6,0l4.1,5.7c0.5,0.6,0,1.5-0.8,1.5h-8.2
				C577.1,622.6,576.6,621.7,577.1,621z"/>
			<path class="st2" d="M569.8,638l-5.7-4.1c-0.5-0.4-0.5-1.2,0-1.6l5.7-4.1c0.6-0.5,1.5,0,1.5,0.8v8.2
				C571.3,638,570.4,638.4,569.8,638z"/>
			<path class="st2" d="M594.2,628.2l5.7,4.1c0.5,0.4,0.5,1.2,0,1.6l-5.7,4.1c-0.6,0.5-1.5,0-1.5-0.8V629
				C592.6,628.2,593.5,627.7,594.2,628.2z"/>
			<path class="st2" d="M586.7,645.3l-4.1,5.7c-0.4,0.5-1.2,0.5-1.6,0l-4.1-5.7c-0.5-0.6,0-1.5,0.8-1.5h8.2
				C586.8,643.7,587.2,644.6,586.7,645.3z"/>
		</g>
		<g>
			<path class="st2" d="M610.1,497.6c-0.1-1-0.4-2-0.9-2.9c-0.2-0.4-0.4-0.7-0.7-1.1c-1.7-2-3.9-2.8-6.6-2.5
				c-0.7,0.1-1.4,0.3-2.1,0.6c-0.3,0.1-0.5,0.2-0.5-0.2c0-0.3-0.2-0.6-0.3-0.9c-1.1-2.3-3-3.7-5.8-3.9c-2.2-0.2-4.2,0.5-5.7,2
				c-0.1,0.1-0.2,0.2-0.4,0c-0.2-0.2-0.4-0.4-0.7-0.6c-2-1.5-4.3-1.8-6.7-1.2c-1.5,0.4-2.6,1.3-3.4,2.4c-0.1,0.2-0.3,0.2-0.4,0
				c0-0.1-0.1-0.1-0.2-0.1c-1.8-1.2-3.8-1.6-6-1.1c-2.1,0.5-3.6,1.7-4.5,3.5c-0.1,0.1-0.1,0.3-0.2,0.4c-0.5,1-0.6,2-0.6,3
				c0,3.7,0,7.4,0,11c0,0.3-0.1,0.4-0.4,0.4c-0.9,0-1.8,0-2.7,0.2c-1.3,0.2-2.5,0.5-3.6,1.1c-1.8,1.1-2.7,2.7-3.3,4.6
				c-0.5,1.7-0.6,3.4-0.6,5.1c0,1.5,0,5.3,0,6.9l0,1.3c-0.2,6.2,2.2,12.2,8.3,14.8c5.8,2.5,14.5,1.5,20.6,1.5
				c5.3,0,11.2-0.1,15.3-0.4c9-0.6,11.9-9.6,12.1-17.4c0-6.2,0-12.5,0-18.7c0-1.2,0-2.4,0.1-3.6
				C610.2,500.3,610.2,498.9,610.1,497.6z M606.5,523.7l0,0.5c-0.2,7.1-2.5,13.4-10.2,13.5c0.1,0,0,0-0.1,0c0,0,0.1,0,0.1,0
				c-0.1,0-0.5,0-0.8,0c-1,0-2,0-2.9,0c-3.3,0-6.6,0-9.9,0c-5.1,0-10.2,0.3-15.3,0c-7.3-0.4-10.3-6.9-10.1-13.5l0-1.4
				c0-4,0-2.3,0-6.3c0-1.5,0.2-3,0.8-4.4c0.5-1.1,1.4-1.9,2.8-2.2c1-0.2,1.9-0.2,2.9-0.3c0.4,0,0.5,0.1,0.5,0.4c0,2.5,0,4.9,0,7.4
				c0,0.4,0.1,0.7,0.3,1c0.4,0.7,1.3,1,2,0.8c0.8-0.2,1.3-0.8,1.3-1.6c0-7.4,0-14.8,0-22.2c0-0.8,0.1-1.5,0.4-2.2
				c0.8-1.9,3-2.4,4.7-1.6c1.3,0.6,1.9,1.7,1.9,3c0.1,2.3,0,4.6,0,6.8c0,0.3,0,0.5,0.1,0.8c0.2,0.7,1.1,1.2,1.9,1.1
				c0.9-0.1,1.5-0.7,1.5-1.5c0-1.1,0-2.3,0-3.4c0.1-1.6,0-3.2,0-4.9c0-0.6,0.1-1.1,0.3-1.7c0.8-1.8,2.8-2.4,4.6-1.7
				c1.4,0.6,2,1.7,2,3c0.1,2.7,0,5.4,0,8.1c0,0.1,0,0.2,0,0.3c0.1,1,0.9,1.7,1.8,1.6c1,0,1.7-0.7,1.7-1.7c0-2.5,0-4.9,0-7.4
				c0-0.9,0.1-1.7,0.5-2.5c1.1-1.9,3.9-2.3,5.5-0.7c0.7,0.7,1,1.6,1,2.6c0,2.6,0,5.2,0,7.8c0,0.3,0,0.5,0.1,0.8
				c0.2,0.7,1.1,1.2,1.9,1.1c0.9-0.1,1.6-0.8,1.5-1.5c0-1.4,0.1-2.8,0.1-4.2c0-1.4,1-2.9,2.8-3.1c0.9-0.1,1.8,0,2.5,0.6
				c1.1,1,1.5,2.2,1.5,3.5C606.5,506.8,606.5,515.2,606.5,523.7z"/>
			<path class="st2" d="M573.3,542.5C573.3,542.5,573.3,542.5,573.3,542.5c-3.5,0-7.9-0.2-11.4-1.7c-5.7-2.4-8.8-8-8.6-15.3l0-1.3
				c0-1.5,0-5.4,0-6.9c0-1.7,0.2-3.5,0.7-5.2c0.7-2.3,1.8-3.9,3.5-4.9c1-0.6,2.3-1,3.8-1.2c1.1-0.1,1.9-0.2,2.6-0.2
				c0-3.7,0-7.3,0-10.9c0-1.2,0.2-2.3,0.7-3.2l0.1-0.1c0-0.1,0.1-0.2,0.1-0.3c1-1.9,2.6-3.2,4.8-3.7c2.4-0.5,4.5-0.1,6.4,1.2
				c0,0,0,0,0.1,0c1-1.2,2.1-2,3.6-2.4c2.7-0.8,5.1-0.3,7.2,1.2c0.2,0.1,0.4,0.3,0.6,0.5c1.7-1.5,3.6-2.2,5.9-2
				c2.9,0.3,5,1.7,6.2,4.2l0,0.1c0.1,0.2,0.2,0.4,0.3,0.7c0.6-0.3,1.3-0.5,2.1-0.6c2.9-0.4,5.3,0.5,7.1,2.6c0.3,0.3,0.6,0.7,0.8,1.2
				c0.5,0.8,0.8,1.8,0.9,3.1c0.2,1.5,0.1,2.9,0.1,4.2c-0.1,1-0.1,2.1-0.1,3.1v0.5c0,6.2,0,12.5,0,18.7c-0.1,4-1.3,17.2-12.5,17.9
				c-3.8,0.3-9.5,0.4-15.3,0.4c-1.3,0-2.8,0-4.3,0.1C576.8,542.5,575.1,542.5,573.3,542.5z M563.4,506.9c-0.6,0-1.3,0-2.1,0.2
				c-1.4,0.2-2.5,0.5-3.4,1.1c-1.5,0.9-2.4,2.2-3,4.3c-0.5,1.5-0.6,3.1-0.6,4.9c0,1.5,0,5.4,0,6.9l0,1.3c-0.2,6.8,2.8,12.1,8,14.3
				c2.6,1.1,6,1.6,11,1.6c0,0,0,0,0,0c1.7,0,3.4-0.1,5.1-0.1c1.5-0.1,3-0.1,4.3-0.1c5.8,0,11.4-0.2,15.2-0.4
				c10.4-0.7,11.5-13.1,11.6-16.9c0-6.2,0-12.4,0-18.7v-0.5c0-1,0-2.1,0.1-3.1c0.1-1.5,0.1-2.8-0.1-4c-0.1-1.1-0.4-2-0.8-2.8
				c-0.1-0.3-0.3-0.6-0.6-1c-1.6-1.9-3.6-2.6-6.2-2.3c-0.7,0.1-1.4,0.3-1.9,0.6c-0.2,0.1-0.3,0.2-0.5,0.2c-0.2,0-0.6-0.1-0.7-0.8
				c0-0.2-0.1-0.4-0.2-0.6l0-0.1c-1-2.2-2.8-3.4-5.3-3.6c-2.1-0.2-3.8,0.4-5.3,1.9c-0.1,0.1-0.3,0.3-0.6,0.3c-0.3,0-0.5-0.2-0.6-0.3
				c-0.2-0.2-0.4-0.4-0.6-0.6c-1.8-1.4-3.9-1.7-6.3-1.1c-1.3,0.4-2.3,1.1-3.2,2.2c-0.1,0.1-0.3,0.4-0.6,0.4c-0.2,0-0.4-0.1-0.6-0.3
				l-0.1-0.1c-1.7-1.1-3.6-1.5-5.6-1c-1.9,0.4-3.3,1.5-4.1,3.2l-0.1,0.1c0,0.1-0.1,0.2-0.2,0.3c-0.3,0.7-0.5,1.6-0.5,2.7
				c0,3.7,0,7.3,0,11c0,0.8-0.6,0.9-0.8,0.9C563.8,506.9,563.6,506.9,563.4,506.9z M572.6,538.4c-1.9,0-3.6,0-5.1-0.1
				c-5.1-0.3-10.9-4.1-10.6-14.1l0-2.3c0-2.1,0-2.1,0-3.3l0-2.2c0-1.9,0.3-3.4,0.9-4.7c0.6-1.3,1.7-2.2,3.1-2.5c1-0.2,2-0.2,3-0.3
				l0.1,0c0.2,0,0.5,0,0.7,0.2c0.2,0.2,0.2,0.5,0.2,0.7c0,1.9,0,3.7,0,5.6l0,1.8c0,0.3,0.1,0.5,0.2,0.7c0.3,0.5,0.9,0.7,1.4,0.5
				c0.3-0.1,0.9-0.4,0.9-1.1c0-7.4,0-14.8,0-22.2c0-0.7,0.1-1.6,0.4-2.5c0.6-1.4,2-2.3,3.6-2.3c0.6,0,1.2,0.1,1.8,0.4
				c1.4,0.6,2.2,1.8,2.2,3.4c0,1.7,0,3.4,0,5.1l0,1.8c0,0.2,0,0.4,0.1,0.6c0.1,0.4,0.7,0.8,1.3,0.7c0.6-0.1,1.1-0.5,1.1-1
				c0-0.5,0-0.9,0-1.4c0-0.7,0-1.3,0-2c0.1-1.7,0-3.3,0-4.8c0-0.7,0.1-1.3,0.4-1.9c0.7-1.4,2-2.3,3.5-2.3c0.6,0,1.1,0.1,1.7,0.3
				c1.5,0.6,2.3,1.8,2.4,3.5c0,1.9,0,3.8,0,5.7l0,2.4c0,0.2,0,0.2,0,0.3c0,0.7,0.6,1.1,1.2,1.1c0.8,0,1.2-0.5,1.2-1.2l0-1.6
				c0-1.9,0-3.9,0-5.8c0-0.8,0.1-1.8,0.6-2.7c0.7-1.2,2-2,3.5-2c1.1,0,2.1,0.4,2.8,1.2c0.7,0.8,1.1,1.7,1.1,2.9l0,7.8
				c0,0.2,0,0.4,0.1,0.6c0.1,0.5,0.7,0.8,1.3,0.8c0.6-0.1,1.1-0.5,1.1-1c0-0.9,0-1.8,0-2.7c0-0.5,0-1,0-1.5c0-1.6,1.2-3.4,3.3-3.6
				c1.1-0.1,2.1,0.1,2.9,0.7c1.2,1,1.7,2.3,1.7,3.9c0,6.9,0,13.7,0,20.6l0,5.3c-0.2,9-3.9,13.9-10.7,14c0,0-0.1,0-0.2,0l0,0
				c-0.2,0-0.5,0-0.7,0c-0.3,0-0.6,0-1,0l-11.8,0c-1.7,0-3.4,0-5.1,0.1C576,538.3,574.3,538.4,572.6,538.4z M563.8,510.1
				c-1,0-1.9,0.1-2.8,0.3c-1.1,0.2-1.9,0.9-2.4,1.9c-0.5,1.2-0.8,2.5-0.8,4.2l0,2.2c0,1.2,0,1.2,0,3.2l0,2.3
				c-0.1,5.8,2.3,12.6,9.6,13c1.5,0.1,3.2,0.1,5.1,0.1c1.7,0,3.4,0,5.1-0.1c1.7,0,3.4-0.1,5.1-0.1l11.8,0c0.3,0,0.7,0,1,0
				c0.3,0,0.6,0,0.8,0c6.2-0.1,9.4-4.5,9.6-13l0-0.5v-4.7c0-6.9,0-13.7,0-20.6c0-1.3-0.4-2.3-1.3-3.1c-0.5-0.4-1.3-0.5-2.1-0.4
				c-1.6,0.2-2.4,1.5-2.4,2.6c0,0.5,0,1,0,1.5c0,0.9-0.1,1.8,0,2.7c0,1-0.8,1.9-2,2c-1.1,0.1-2.1-0.5-2.4-1.5
				c-0.1-0.3-0.1-0.6-0.1-0.9l0-7.8c0-0.9-0.3-1.7-0.8-2.2c-0.5-0.6-1.3-0.9-2.1-0.9c-1.1,0-2.1,0.6-2.6,1.4
				c-0.4,0.6-0.4,1.4-0.5,2.2c0,1.9,0,3.8,0,5.8l0,1.6c0,1.3-0.9,2.2-2.2,2.2h0c-1.3,0-2.3-0.9-2.4-2.1c0-0.1,0-0.2,0-0.3l0-2.5
				c0-1.9,0-3.8,0-5.7c0-1.3-0.6-2.1-1.7-2.5c-0.4-0.2-0.9-0.2-1.3-0.2c-1.2,0-2.1,0.6-2.6,1.7c-0.2,0.4-0.3,0.9-0.3,1.5
				c0,1.5,0,3.2,0,4.9c0,0.7,0,1.3,0,2c0,0.5,0,0.9,0,1.4c0,1-0.9,1.8-2,2c-1,0.1-2.1-0.5-2.4-1.4c-0.1-0.3-0.1-0.6-0.1-0.9l0-1.8
				c0-1.7,0-3.4,0-5c0-1.2-0.6-2-1.6-2.5c-0.4-0.2-0.9-0.3-1.3-0.3c-1.2,0-2.2,0.6-2.6,1.7c-0.2,0.6-0.4,1.2-0.4,2
				c0,7.4,0,14.8,0,22.2c0,1-0.6,1.8-1.6,2.1c-0.9,0.3-2-0.1-2.6-1c-0.3-0.5-0.3-1-0.3-1.3l0-1.8
				C563.8,513.7,563.8,511.9,563.8,510.1z"/>
		</g>
		<path class="st2" d="M600,187.3L600,187.3c-2.1,0-4.2-0.8-5.8-2.1c-1.3-1.1-24.2-24.1-26.8-26.8c-0.4,0-0.8,0-1.1,0
			c-3.8,0-7.2-1.4-10-4.1c-2.2-2.1-3.6-4.8-4-7.8c-0.2-1.3-0.3-2.7,0-4.1c0.3-1.5,1.5-2.5,3-2.5c0.5,0,1,0.1,1.4,0.3
			c0.7,0.3,1.2,0.8,1.7,1.2l1.5,1.5c1,1,2,2,2.9,2.9c0.3,0.3,0.4,0.3,0.4,0.3c0.1,0,0.2,0,0.4,0c0.5,0,0.9-0.1,1.2-0.5
			c0.1-0.1,0.2-0.2,0.4-0.4c0.1-0.1,0.2-0.2,0.3-0.3c0.4-0.4,0.7-0.8,1.1-1.1c0.5-0.5,1-0.9,1.3-1.4c0.1-0.1,0.1-0.1,0.1-0.2
			c0.1-0.4,0.1-0.7-0.3-1.2c-0.1-0.1-0.7-0.7-1.5-1.5c-1.3-1.3-2.8-2.8-3.6-3.6c-1-1-1.3-2.3-1-3.6l0.1-0.2c0.5-1.4,1.7-2.2,3.4-2.3
			c1.4-0.1,2.8-0.1,4.2,0.2c3.8,0.8,6.9,2.8,9.1,6.1c1.2,1.7,1.9,3.6,2.3,5.9c0.2,1.1,0.3,2.3,0.1,3.5c3.4,3.6,24.4,24.7,25.7,26
			c3,2.9,3.7,7.5,1.5,11.1C606.1,185.6,603.2,187.3,600,187.3z M567.6,155.2c0.7,0,1.4,0.3,1.9,0.8c3.2,3.2,25.6,25.8,26.8,26.8
			c1,0.9,2.3,1.4,3.7,1.4c2.1,0,3.9-1.1,5-2.9c1.4-2.3,1-5.2-1-7.2c-0.4-0.4-7.1-7.1-13.4-13.5c-13.2-13.3-13.2-13.3-13.4-13.9
			l-0.1-0.3l0.1-0.8c0.2-1,0.1-2,0-2.9c-0.3-1.8-0.8-3.3-1.7-4.6c-1.7-2.6-4-4.1-7-4.7c-1.1-0.2-2.1-0.3-3.2-0.2
			c-0.4,0-0.6,0.1-0.6,0.2c0,0.1,0,0.2,0.2,0.4c0.7,0.8,2.3,2.4,3.5,3.5c1.1,1.1,1.4,1.4,1.6,1.6c1.1,1.3,1.5,2.8,1,4.3
			c-0.1,0.4-0.3,0.7-0.4,0.9l-0.1,0.2c-0.5,0.8-1.2,1.4-1.8,2c-0.3,0.3-0.6,0.6-0.9,0.9c-0.1,0.2-0.3,0.3-0.4,0.4
			c-0.1,0.1-0.2,0.2-0.3,0.2c-1.1,1.2-2.6,1.7-4.3,1.5c-1.2-0.1-1.9-0.9-2.3-1.3c-1-1-2-2-3-2.9l-1.4-1.5c-0.2-0.2-0.4-0.4-0.7-0.5
			c-0.2,0.9-0.1,1.7,0.1,2.8c0.4,2.3,1.4,4.4,3.1,6c2.4,2.4,5.4,3.4,8.8,3.1C567.4,155.2,567.5,155.2,567.6,155.2z M599.4,181.1
			c-1.7,0-3-1.3-3-3s1.3-3,3-3s3,1.3,3,3S601.1,181.1,599.4,181.1z"/>
		<g>
			<path class="st2" d="M791.8,613.4c14.4,14.4,28.8,28.8,43.1,43.1c2.5,2.5,6.4-1.4,3.9-3.9c-14.4-14.4-28.8-28.8-43.1-43.1
				C793.2,607,789.3,610.9,791.8,613.4L791.8,613.4z"/>
			<path class="st2" d="M795.7,656.5c14.4-14.4,28.8-28.8,43.1-43.1c2.5-2.5-1.4-6.4-3.9-3.9c-14.4,14.4-28.8,28.8-43.1,43.1
				C789.3,655.2,793.2,659.1,795.7,656.5L795.7,656.5z"/>
		</g>
		<g>
			<path class="st2" d="M838.8,418.3h-34.9c-2.9,0-5.3-2.4-5.3-5.3v-34.9c0-2.9,2.4-5.3,5.3-5.3h34.9c2.9,0,5.3,2.4,5.3,5.3V413
				C844.1,415.9,841.7,418.3,838.8,418.3z M803.9,377.8c-0.1,0-0.3,0.1-0.3,0.3V413c0,0.1,0.1,0.3,0.3,0.3h34.9
				c0.1,0,0.3-0.1,0.3-0.3v-34.9c0-0.1-0.1-0.3-0.3-0.3H803.9z"/>
			<path class="st2" d="M810.3,429.7h-19.6c-2.2,0-4.1-1.8-4.1-4.1V406c0-2.2,1.8-4.1,4.1-4.1h19.6c2.2,0,4.1,1.8,4.1,4.1v19.6
				C814.4,427.9,812.6,429.7,810.3,429.7z M791.7,424.7h17.7v-17.7h-17.7V424.7z"/>
		</g>
		<g>
			<path class="st2" d="M837.9,542.9h-45c-3.4,0-6.1-2.7-6.1-6.1v-45c0-3.4,2.7-6.1,6.1-6.1h45c3.4,0,6.1,2.7,6.1,6.1v45
				C844,540.2,841.2,542.9,837.9,542.9z M792.8,490.7c-0.6,0-1.1,0.5-1.1,1.1v45c0,0.6,0.5,1.1,1.1,1.1h45c0.6,0,1.1-0.5,1.1-1.1
				v-45c0-0.6-0.5-1.1-1.1-1.1H792.8z"/>
			<path class="st2" d="M810.4,542.9h-19.6c-2.2,0-4.1-1.8-4.1-4.1v-19.6c0-2.2,1.8-4.1,4.1-4.1h19.6c2.2,0,4.1,1.8,4.1,4.1v19.6
				C814.5,541.1,812.6,542.9,810.4,542.9z M791.8,537.9h17.7v-17.7h-17.7V537.9z"/>
		</g>
		<g>
			<path class="st2" d="M826.2,151.8c1.2,0,2.2-1.2,2.2-2.6v-5.9c0-6.4-6-11.9-13.1-11.9c-7.1,0-13.1,5.4-13.1,11.9v11.9h4.4v-11.9
				c0-4.4,3.9-7.9,8.6-7.9c4.8,0,8.6,3.6,8.6,7.9v5.9C824,150.6,825.1,151.8,826.2,151.8z"/>
			<rect x="824" y="144.8" class="st2" width="4.4" height="13.2"/>
			<path class="st2" d="M801.8,155c-5.6,0.5-7.5,4.2-7.5,9.3c0,4.7-0.2,9.4,0,14c0.5,10.2,15.6,7.3,22.3,7.3c7,0,19.6,2.4,19.9-7.9
				c0.1-4.8,0.1-9.7,0-14.5c-0.1-4.7-2.7-8-7.7-8.3C819.8,154.6,810.8,155,801.8,155c-2.7,0-2.7,4.2,0,4.2c6.3,0,12.5,0,18.8,0
				c2.7,0,5.7-0.4,8.3,0c4.7,0.6,3.4,6.9,3.4,10.3c0,2.8,0.6,6.3,0,9.1c-0.8,3.8-5.8,2.9-8.7,2.9c-7.1,0-14.5,0.7-21.6,0
				c-4.8-0.5-3.5-6.4-3.5-9.9c0-3.4-1.7-11.9,3.3-12.3C804.5,159,804.5,154.8,801.8,155z"/>
			<g>
				<path class="st2" d="M816.6,170.2v5.6c0,0.7-0.5,1.1-1.2,1.1c-0.7,0-1.2-0.4-1.2-1.1v-5.6c-1.4-0.4-2.4-1.7-2.4-3
					c0-1.7,1.7-3.2,3.6-3.2c1.9,0,3.6,1.5,3.6,3.2C818.9,168.7,818,169.7,816.6,170.2L816.6,170.2z"/>
				<path class="st2" d="M815.4,177.7c-1.2,0-2-0.8-2-1.9v-5c-1.4-0.7-2.4-2.1-2.4-3.6c0-2.2,2.1-4.1,4.4-4.1c2.3,0,4.4,1.9,4.4,4.1
					c0,1.6-0.9,2.9-2.4,3.6v5C817.4,176.9,816.5,177.7,815.4,177.7z M815.4,164.7c-1.4,0-2.7,1.1-2.7,2.4c0,1,0.7,1.9,1.8,2.2
					l0.6,0.2v6.2c0,0.1,0,0.3,0.3,0.3c0.4,0,0.4-0.2,0.4-0.3v-6.2l0.6-0.2c0.7-0.2,1.8-0.8,1.8-2.2
					C818.1,165.9,816.8,164.7,815.4,164.7z"/>
			</g>
		</g>
		<g>
			<path class="st2" d="M800,249.3c-7.2,0-13.2,5.5-13.2,12v6c0,1.5,1,2.7,2.3,2.7c1.2,0,2.3-1.3,2.3-2.7v-6c0-4.4,3.9-7.9,8.6-7.9
				c4.7,0,8.6,3.5,8.6,7.9v12.5h4.6v-12.5C813.2,254.8,807.2,249.3,800,249.3z"/>
			<path class="st2" d="M809,273.4c-5.7,0.5-7.6,4.2-7.6,9.4c0,4.7-0.3,9.4,0,14.1c0.5,10.2,15.7,7.3,22.5,7.3
				c7.1,0,19.7,2.4,20-7.9c0.1-4.8,0.1-9.7,0-14.6c-0.1-4.7-2.8-8.1-7.7-8.3C827.1,273,818,273.4,809,273.4c-2.7,0-2.7,4.2,0,4.2
				c6.3,0,12.6,0,18.9,0c2.7,0,5.7-0.4,8.4,0c4.7,0.6,3.4,7,3.4,10.4c0,2.8,0.6,6.4,0,9.1c-0.8,3.8-5.9,2.9-8.8,2.9
				c-7.1,0-14.6,0.7-21.7,0c-4.9-0.5-3.6-6.5-3.6-10c0-3.4-1.7-12,3.4-12.4C811.7,277.4,811.7,273.2,809,273.4z"/>
			<g>
				<path class="st2" d="M823.9,288.6v5.7c0,0.7-0.5,1.1-1.2,1.1c-0.7,0-1.2-0.4-1.2-1.1v-5.7c-1.4-0.4-2.4-1.7-2.4-3.1
					c0-1.7,1.7-3.3,3.6-3.3c1.9,0,3.6,1.5,3.6,3.3C826.3,287.1,825.3,288.2,823.9,288.6L823.9,288.6z"/>
				<path class="st2" d="M822.7,296.2c-1.2,0-2-0.8-2-1.9v-5.1c-1.4-0.7-2.4-2.1-2.4-3.6c0-2.2,2.1-4.1,4.4-4.1
					c2.4,0,4.4,1.9,4.4,4.1c0,1.6-0.9,3-2.4,3.6v5.1C824.7,295.4,823.8,296.2,822.7,296.2z M822.7,283.2c-1.4,0-2.7,1.2-2.7,2.4
					c0,1,0.8,1.9,1.8,2.2l0.6,0.2v6.3c0,0.1,0,0.3,0.3,0.3c0.4,0,0.4-0.2,0.4-0.3V288l0.6-0.2c0.7-0.2,1.8-0.8,1.8-2.2
					C825.4,284.3,824.1,283.2,822.7,283.2z"/>
			</g>
		</g>
		<g>
			<path class="st2" d="M1093.3,511.9c-0.3-2.3-0.9-4.6-1.9-6.7c-1-2.2-2.4-4.2-4.2-5.9c-1.7-1.7-3.6-3-5.6-4c-2-1-4.2-1.7-6.4-2
				c-2.2-0.3-4.5-0.3-6.6,0.1c-0.6,0.1-1.2,0.2-1.9,0.4l-2.9,0.8l5.4-5.4c0.4-0.4,0.6-0.9,0.6-1.5s-0.2-1.1-0.6-1.5
				c-0.8-0.8-2.1-0.8-2.9,0l-7.7,7.7c-0.4,0.4-0.6,0.9-0.6,1.5s0.2,1.1,0.6,1.5l7.6,7.6c0.8,0.8,2.1,0.8,2.9,0
				c0.4-0.4,0.6-0.9,0.6-1.5c0-0.5-0.2-1.1-0.6-1.5l-3.2-3.2l1.3-0.4c1.7-0.5,3.4-0.8,5.1-0.8c0.8,0,1.6,0.1,2.4,0.2
				c3.7,0.5,7.1,2.2,9.7,4.9c1.4,1.4,2.5,3,3.4,4.8c0.8,1.7,1.3,3.5,1.5,5.4c0.4,3.8-0.4,7.6-2.4,10.9c-0.5,0.8-0.4,1.9,0.3,2.5
				c0.1,0.1,0.2,0.2,0.4,0.3c0.3,0.2,0.7,0.3,1.1,0.3c0.7,0,1.4-0.4,1.8-1c1.2-2,2.1-4.2,2.6-6.5
				C1093.4,516.5,1093.5,514.2,1093.3,511.9z"/>
			<path class="st2" d="M1085.8,534.7c0.8-0.8,0.8-2.1,0-2.9l-7.6-7.6c-0.8-0.8-2.1-0.8-2.9,0c-0.8,0.8-0.8,2.1,0,2.9l3.2,3.2
				l-1.3,0.4c-2.7,0.9-5.7,1-8.5,0.4c-3.3-0.7-6.3-2.3-8.7-4.7c-1.4-1.4-2.5-3-3.4-4.8c-0.8-1.7-1.3-3.5-1.5-5.4
				c-0.4-3.8,0.4-7.6,2.4-10.9c0.6-1,0.3-2.2-0.7-2.8c-0.3-0.2-0.7-0.3-1.1-0.3c-0.7,0-1.4,0.4-1.8,1c-1.2,2-2.1,4.2-2.6,6.5
				c-0.5,2.3-0.6,4.6-0.4,6.9c0.3,2.3,0.9,4.6,1.9,6.7c1,2.2,2.4,4.2,4.2,5.9l0,0c3,3,6.7,5,10.8,5.8c3.2,0.7,6.6,0.5,9.8-0.3
				l2.9-0.8l-5.4,5.4c-0.4,0.4-0.6,0.9-0.6,1.5c0,0.5,0.2,1.1,0.6,1.5c0.8,0.8,2.1,0.8,2.9,0L1085.8,534.7z"/>
		</g>
		<g>
			<path class="st2" d="M1094.7,373.1h-45c-3.2,0-5.8,2.6-5.8,5.8v45c0,3.2,2.6,5.8,5.8,5.8h45c3.2,0,5.8-2.6,5.8-5.8v-45
				C1100.4,375.7,1097.8,373.1,1094.7,373.1z M1096.1,423.9c0,0.8-0.6,1.4-1.4,1.4h-45c-0.8,0-1.4-0.6-1.4-1.4v-45
				c0-0.8,0.7-1.4,1.4-1.4h45c0.8,0,1.4,0.7,1.4,1.4V423.9z"/>
			<g>
				<path class="st2" d="M1067.3,403.6c-2.4,2.4-4.8,4.8-7.1,7.1c-1.8,1.8,1,4.6,2.8,2.8c2.4-2.4,4.8-4.8,7.1-7.1
					C1071.9,404.6,1069.1,401.7,1067.3,403.6L1067.3,403.6z"/>
				<path class="st2" d="M1081.7,389.1c-2.4,2.4-4.9,4.9-7.3,7.3c-1.8,1.8,1,4.6,2.8,2.8c2.4-2.4,4.9-4.9,7.3-7.3
					C1086.3,390.1,1083.5,387.2,1081.7,389.1L1081.7,389.1z"/>
				<path class="st2" d="M1079.5,384.3l9.9-1.6c0.9-0.2,1.7,0.7,1.6,1.6l-1.6,9.9c-0.2,1.1-1.5,1.5-2.3,0.8l-8.3-8.3
					C1077.9,385.8,1078.4,384.5,1079.5,384.3z"/>
				<path class="st2" d="M1064.8,418.5l-9.9,1.6c-0.9,0.2-1.7-0.7-1.6-1.6l1.6-9.9c0.2-1.1,1.5-1.5,2.3-0.8l8.3,8.3
					C1066.3,417,1065.9,418.3,1064.8,418.5z"/>
			</g>
		</g>
		<g>
			<g>
				<path class="st2" d="M1084.7,279.4c2.1,0,4-0.8,5.4-2.2l8.3-8.1c1.5-1.4,2.3-3.3,2.3-5.3c0-2-0.8-3.9-2.2-5.3l-7.5-7.5
					c-1.5-1.4-3.4-2.2-5.5-2.2c-2.1,0-4,0.8-5.4,2.2l-8.4,8.2c-1.5,1.4-2.3,3.3-2.3,5.3c0,1.7,0.6,3.4,1.7,4.7l3.8-3.7
					c-0.3-1.6,0.3-3.3,1.6-4.6l5.3-5.2c1-0.9,2.2-1.5,3.6-1.5c1.4,0,2.6,0.5,3.6,1.5l4.5,4.5c1,1,1.5,2.2,1.5,3.6
					c0,1.3-0.5,2.6-1.5,3.6l-5.3,5.2c-1.2,1.2-3.1,1.9-4.7,1.6l-3.7,3.7C1081.2,278.8,1082.9,279.4,1084.7,279.4L1084.7,279.4z"/>
				<path class="st2" d="M1053.9,275.9l-8.1,7.9c-1.5,1.5-2.3,3.4-2.3,5.5c0,2.1,0.8,4,2.3,5.5l7.7,7.6c1.5,1.5,3.5,2.3,5.6,2.3
					c2.1,0,4.1-0.8,5.6-2.2l8.1-7.9c1.5-1.5,2.3-3.4,2.3-5.5c0-1.8-0.6-3.5-1.7-4.9l-3.9,3.7c0.2,1.6-0.4,3.5-1.7,4.7l-5,4.9
					c-1,0.9-2.3,1.5-3.6,1.5c-1.4,0-2.7-0.5-3.7-1.5l-4.6-4.5c-1-1-1.5-2.3-1.5-3.6c0-1.4,0.6-2.6,1.5-3.6l5-4.9
					c1.3-1.3,3.2-1.9,4.8-1.6l3.8-3.8c-1.4-1.1-3.1-1.7-5-1.7C1057.3,273.7,1055.4,274.5,1053.9,275.9z"/>
			</g>
			<path class="st2" d="M1063.3,285.5c1.1,1.1,3,1.2,4.1,0l13.8-13.7c1.1-1.1,1.2-3,0-4.1c-1.1-1.1-3-1.1-4.1,0l-13.8,13.7
				C1062.1,282.5,1062.1,284.3,1063.3,285.5L1063.3,285.5z M1063.3,285.5"/>
		</g>
		<g>
			<path class="st2" d="M1088.7,171v11.3c0,2.9-2.4,5.3-5.3,5.3h-34.6c-2.9,0-5.3-2.4-5.3-5.3v-34.6c0-2.9,2.4-5.3,5.3-5.3h11.8v5.1
				h-11.8c-0.1,0-0.2,0.1-0.2,0.2v34.6c0,0.1,0.1,0.2,0.2,0.2h34.6c0.1,0,0.2-0.1,0.2-0.2V171H1088.7 M1060.6,147.5"/>
			<g>
				<path class="st2" d="M1095.4,176.1h-34.6c-2.9,0-5.3-2.4-5.3-5.3v-34.6c0-2.9,2.4-5.3,5.3-5.3h34.6c2.9,0,5.3,2.4,5.3,5.3v34.6
					C1100.7,173.7,1098.4,176.1,1095.4,176.1z M1060.9,136c-0.1,0-0.2,0.1-0.2,0.2v34.6c0,0.1,0.1,0.2,0.2,0.2h34.6
					c0.1,0,0.2-0.1,0.2-0.2v-34.6c0-0.1-0.1-0.2-0.2-0.2H1060.9z"/>
			</g>
		</g>
		<path class="st2" d="M330.7,429.7L330.7,429.7c-2.1,0-4.2-0.8-5.8-2.1c-1.3-1.1-24.2-24.1-26.8-26.8c-0.4,0-0.8,0-1.1,0
			c-3.8,0-7.2-1.4-10-4.1c-2.2-2.1-3.6-4.8-4-7.8c-0.2-1.3-0.3-2.7,0-4.1c0.3-1.5,1.5-2.5,3-2.5c0.5,0,1,0.1,1.4,0.3
			c0.7,0.3,1.2,0.8,1.7,1.2l1.5,1.5c1,1,2,2,2.9,2.9c0.3,0.3,0.4,0.3,0.4,0.3c0.1,0,0.2,0,0.4,0c0.5,0,0.9-0.1,1.2-0.5
			c0.1-0.1,0.2-0.2,0.4-0.4c0.1-0.1,0.2-0.2,0.3-0.3c0.4-0.4,0.7-0.8,1.1-1.1c0.5-0.5,1-0.9,1.3-1.4c0.1-0.1,0.1-0.1,0.1-0.2
			c0.1-0.4,0.1-0.7-0.3-1.2c-0.1-0.1-0.7-0.7-1.5-1.5c-1.3-1.3-2.8-2.8-3.6-3.6c-1-1-1.3-2.3-1-3.6l0.1-0.2c0.5-1.4,1.7-2.2,3.4-2.3
			c1.4-0.1,2.8-0.1,4.2,0.2c3.8,0.8,6.9,2.8,9.1,6.1c1.2,1.7,1.9,3.6,2.3,5.9c0.2,1,0.3,2.3,0.1,3.5c3.4,3.6,24.4,24.7,25.7,26
			c3,2.9,3.7,7.5,1.5,11.1C336.8,428,333.9,429.7,330.7,429.7z M298.3,397.5c0.7,0,1.4,0.3,1.9,0.8c3.2,3.2,25.6,25.8,26.8,26.8
			c1,0.9,2.3,1.4,3.7,1.4c2.1,0,3.9-1.1,5-2.9c1.4-2.3,1-5.2-1-7.2c-0.4-0.4-7.1-7.1-13.4-13.5c-13.2-13.3-13.2-13.3-13.4-13.9
			l-0.1-0.3l0.1-0.8c0.2-1,0.1-2,0-2.9c-0.3-1.8-0.8-3.3-1.7-4.6c-1.7-2.6-4-4.1-7-4.7c-1.1-0.2-2.1-0.3-3.2-0.2
			c-0.4,0-0.6,0.1-0.6,0.2c0,0.1,0,0.2,0.2,0.4c0.7,0.8,2.3,2.4,3.5,3.5c1.1,1.1,1.4,1.4,1.6,1.6c1.1,1.3,1.5,2.8,1,4.3
			c-0.1,0.4-0.3,0.7-0.4,0.9l-0.1,0.2c-0.5,0.8-1.2,1.4-1.8,2c-0.3,0.3-0.6,0.6-0.9,0.9c-0.1,0.2-0.3,0.3-0.4,0.4
			c-0.1,0.1-0.2,0.2-0.3,0.2c-1.1,1.2-2.6,1.7-4.3,1.5c-1.2-0.1-1.9-0.9-2.3-1.3c-1-1-2-2-3-2.9l-1.4-1.5c-0.2-0.2-0.4-0.4-0.7-0.5
			c-0.2,0.9-0.1,1.7,0.1,2.8c0.4,2.3,1.4,4.4,3.1,6c2.4,2.4,5.4,3.4,8.8,3.1C298.1,397.5,298.2,397.5,298.3,397.5z M330.1,423.4
			c-1.7,0-3-1.3-3-3c0-1.6,1.3-3,3-3c1.7,0,3,1.3,3,3C333.1,422.1,331.8,423.4,330.1,423.4z"/>
		<g>
			<g>
				<g>
					<g>
						<path class="st2" d="M331.2,289.7c5.2-9.6,1.1-22.4-9.5-29.1c-5.4-3.4-11.7-4.4-17.8-3.1c-6.1,1.4-11.3,5.1-14.7,10.5
							c-3.4,5.4-4.4,11.7-3.1,17.8c1.4,6.1,5.1,11.3,10.5,14.7c1.2,0.7,2.9,0.3,3.7-0.8c0.4-0.7,0.5-1.1,0.3-1.8l0-0.1l0-0.2
							c0-1.1,0-2.4,0.8-3.7c1.6-2.6,5.2-3.4,7.8-1.8l4.2,2.7c3.6,2.2,7.7,2.5,11.2,1.1l2.5,2.2c-4.7,2.5-10.5,2.4-15.3-0.7l-4.2-2.7
							c-1.2-0.7-2.9-0.3-3.7,0.9c-0.3,0.5-0.3,1.1-0.3,2c0.3,1.4,0,2.6-0.8,3.9c-1.6,2.6-5.2,3.4-7.8,1.8c-6-3.8-10.2-9.7-11.8-16.6
							s-0.4-14,3.4-20s9.7-10.2,16.6-11.8c6.9-1.6,14-0.4,20,3.4c12.3,7.7,16.7,22.9,10,34L331.2,289.7z"/>
						<path class="st2" d="M298,304.3c-1.1,0-2.2-0.3-3.1-0.9c-6.1-3.8-10.4-9.8-12-16.8c-1.6-7-0.4-14.2,3.5-20.3
							c3.8-6.1,9.8-10.4,16.8-12c6.9-1.6,14.2-0.3,20.3,3.5c12.4,7.8,16.9,23.2,10.1,34.4l-0.2,0.4l-2.6-2.8l0.1-0.2
							c5.2-9.5,1-22.1-9.4-28.6c-5.2-3.3-11.6-4.4-17.5-3c-6,1.4-11.2,5-14.5,10.3c-3.3,5.3-4.4,11.5-3,17.5c1.4,6,5,11.2,10.3,14.5
							c0.3,0.2,0.7,0.3,1.2,0.3c0.8,0,1.6-0.4,2-1.1c0.4-0.6,0.4-1,0.3-1.6l0-0.2l0-0.3c0-1.1,0-2.5,0.8-3.9
							c1.1-1.7,3.1-2.8,5.1-2.8c1.1,0,2.2,0.3,3.1,0.9l4.2,2.7c3.3,2.1,7.4,2.5,10.9,1l0.2-0.1l3,2.6l-0.4,0.2
							c-2.2,1.2-4.7,1.8-7.2,1.8c-3,0-5.9-0.9-8.5-2.5l-4.2-2.7c-0.3-0.2-0.7-0.3-1.2-0.3c-0.8,0-1.7,0.4-2.1,1.1
							c-0.3,0.4-0.3,1-0.3,1.8c0.3,1.4,0,2.7-0.8,4.1C302.1,303.2,300.1,304.3,298,304.3z M309.1,254.3c-2,0-3.9,0.2-5.8,0.7
							c-6.8,1.6-12.6,5.7-16.4,11.7c-3.7,6-4.9,13-3.4,19.8c1.6,6.8,5.7,12.6,11.7,16.4c0.8,0.5,1.8,0.8,2.8,0.8
							c1.9,0,3.6-1,4.6-2.5c0.8-1.2,1-2.4,0.7-3.7c0-1,0-1.6,0.4-2.2c0.5-0.9,1.5-1.4,2.6-1.4c0.6,0,1.1,0.1,1.5,0.4l4.2,2.7
							c2.5,1.5,5.3,2.4,8.1,2.4c2.2,0,4.5-0.5,6.5-1.5l-2-1.7c-3.7,1.4-7.9,1-11.3-1.2l-4.2-2.7c-0.8-0.5-1.8-0.8-2.8-0.8
							c-1.9,0-3.6,1-4.6,2.5c-0.8,1.2-0.7,2.5-0.7,3.5l0,0.3c0.2,0.8,0.1,1.3-0.4,2.1c-0.5,0.8-1.5,1.4-2.6,1.4
							c-0.6,0-1.1-0.1-1.5-0.4c-5.4-3.4-9.2-8.7-10.6-14.9c-1.4-6.2-0.3-12.6,3.1-18c3.4-5.4,8.7-9.2,14.9-10.6
							c6.1-1.4,12.6-0.3,18,3.1c10.6,6.7,14.9,19.5,9.7,29.3l1.7,1.8c6.3-10.9,1.8-25.6-10.1-33.1
							C318.9,255.7,314,254.3,309.1,254.3z"/>
					</g>
				</g>
			</g>
			<g>
				<path class="st2" d="M338.6,304.4c0.1,0.1,0.3,0.2,0.4,0.2l0,0c0.3,0,0.5-0.2,0.7-0.4c0.2-0.4,0-0.7-0.1-0.8l-5.2-5.9
					c-1.8-2-3.5-4-5.3-6l-4.4-5c-0.1-0.1-2-2.3-2-2.3l-0.5-0.5c-0.3-0.3-0.5-0.6-0.8-0.9c-0.4-0.4-0.8-0.9-1.2-1.4
					c-0.7-0.8-1.5-1.7-2.3-2.5c-0.5-0.5-1.1-0.7-1.8-0.7c-1.1,0-2.1,0.6-2.5,1.5c-0.4,0.7-0.4,1.5-0.1,2.3c0.1,0.3,0.8,1.1,1.7,1.9
					l0.7,0.6c0.9,0.8,1.9,1.7,2.8,2.5c0.8,0.7,1.5,1.3,2.2,2l0.1,0.1l13.4,11.8C336,302.1,337.3,303.2,338.6,304.4z"/>
				<path class="st2" d="M310.7,270.5l-0.1-0.2c-0.6-0.8-0.5-0.6-1.2-1.1l-0.1,0c-1-0.7-1.9-1.1-2.8-1.4c-1.8-0.6-3.4-0.9-4.8-0.8
					c0.9,0.7,2.1,1.8,2.6,3.5c0.2,0.8,0.4,1.6,0.6,2.7c0.1,0.3,0.1,0.6,0.1,0.9l0.1,0.5c0.2,1.2,1.3,2.1,2.7,2.3c0.1,0,0.2,0,0.4,0
					c1.6,0,3.1-1.1,3.5-2.5c0.3-1.1,0-2.1-0.8-3.3C310.8,270.8,310.8,270.6,310.7,270.5z"/>
			</g>
		</g>
		<g>
			<path class="st2" d="M290.6,147.4c13.8,0,27.5,0,41.3,0c2.5,0,2.5-3.9,0-3.9c-13.8,0-27.5,0-41.3,0
				C288,143.5,288,147.4,290.6,147.4L290.6,147.4z"/>
			<path class="st2" d="M290.6,161.3c13.8,0,27.5,0,41.3,0c2.5,0,2.5-3.9,0-3.9c-13.8,0-27.5,0-41.3,0
				C288,157.4,288,161.3,290.6,161.3L290.6,161.3z"/>
			<path class="st2" d="M290.6,175.2c13.8,0,27.5,0,41.3,0c2.5,0,2.5-3.9,0-3.9c-13.8,0-27.5,0-41.3,0
				C288,171.3,288,175.2,290.6,175.2L290.6,175.2z"/>
		</g>
		<circle class="st11" cx="601.9" cy="137.3" r="7.3"/>
		<g>
			<path class="st2" d="M601.3,304.6L601.3,304.6c-2.1,0-4.2-0.8-5.8-2.1c-1.3-1.1-24.2-24.1-26.8-26.8c-0.4,0-0.8,0-1.1,0
				c-3.8,0-7.2-1.4-10-4.1c-2.2-2.1-3.6-4.8-4-7.8c-0.2-1.3-0.3-2.7,0-4.1c0.3-1.5,1.5-2.5,3-2.5c0.5,0,1,0.1,1.4,0.3
				c0.7,0.3,1.2,0.8,1.7,1.2l1.5,1.5c1,1,2,2,2.9,2.9c0.3,0.3,0.4,0.3,0.4,0.3c0.1,0,0.2,0,0.4,0c0.5,0,0.9-0.1,1.2-0.5
				c0.1-0.1,0.2-0.2,0.4-0.4c0.1-0.1,0.2-0.2,0.3-0.3c0.4-0.4,0.7-0.8,1.1-1.1c0.5-0.5,1-0.9,1.3-1.4c0.1-0.1,0.1-0.1,0.1-0.2
				c0.1-0.4,0.1-0.7-0.3-1.2c-0.1-0.1-0.7-0.7-1.5-1.5c-1.3-1.3-2.8-2.8-3.6-3.6c-1-1-1.3-2.3-1-3.6l0.1-0.2
				c0.5-1.4,1.7-2.2,3.4-2.3c1.4-0.1,2.8-0.1,4.2,0.2c3.8,0.8,6.9,2.8,9.1,6.1c1.2,1.7,1.9,3.6,2.3,5.9c0.2,1,0.3,2.3,0.1,3.5
				c3.4,3.6,24.4,24.7,25.7,26c3,2.9,3.7,7.5,1.5,11.1C607.5,302.9,604.5,304.6,601.3,304.6z M568.9,272.4c0.7,0,1.4,0.3,1.9,0.8
				c3.2,3.2,25.6,25.8,26.8,26.8c1,0.9,2.3,1.4,3.7,1.4c2.1,0,3.9-1.1,5-2.9c1.4-2.3,1-5.2-1-7.2c-0.4-0.4-7.1-7.1-13.4-13.5
				c-13.2-13.3-13.2-13.3-13.4-13.9l-0.1-0.3l0.1-0.8c0.2-1,0.1-2,0-2.9c-0.3-1.8-0.8-3.3-1.7-4.6c-1.7-2.6-4-4.1-7-4.7
				c-1.1-0.2-2.1-0.3-3.2-0.2c-0.4,0-0.6,0.1-0.6,0.2c0,0.1,0,0.2,0.2,0.4c0.7,0.8,2.3,2.4,3.5,3.5c1.1,1.1,1.4,1.4,1.6,1.6
				c1.1,1.3,1.5,2.8,1,4.3c-0.1,0.4-0.3,0.7-0.4,0.9l-0.1,0.2c-0.5,0.8-1.2,1.4-1.8,2c-0.3,0.3-0.6,0.6-0.9,0.9
				c-0.1,0.2-0.3,0.3-0.4,0.4c-0.1,0.1-0.2,0.2-0.3,0.2c-1.1,1.2-2.6,1.7-4.3,1.5c-1.2-0.1-1.9-0.9-2.3-1.3c-1-1-2-2-3-2.9l-1.4-1.5
				c-0.2-0.2-0.4-0.4-0.7-0.5c-0.2,0.9-0.1,1.7,0.1,2.8c0.4,2.3,1.4,4.4,3.1,6c2.4,2.4,5.4,3.4,8.8,3.1
				C568.7,272.4,568.8,272.4,568.9,272.4z M600.8,298.3c-1.7,0-3-1.3-3-3c0-1.6,1.3-3,3-3c1.7,0,3,1.3,3,3
				C603.8,297,602.5,298.3,600.8,298.3z"/>
			<circle class="st11" cx="603.2" cy="254.5" r="7.3"/>
			<circle class="st11" cx="560.7" cy="297.2" r="7.3"/>
		</g>
		<g>
			<path class="st2" d="M601.4,429.7L601.4,429.7c-2.1,0-4.2-0.8-5.8-2.1c-1.3-1.1-24.2-24.1-26.8-26.8c-0.4,0-0.8,0-1.1,0
				c-3.8,0-7.2-1.4-10-4.1c-2.2-2.1-3.6-4.8-4-7.8c-0.2-1.3-0.3-2.7,0-4.1c0.3-1.5,1.5-2.5,3-2.5c0.5,0,1,0.1,1.4,0.3
				c0.7,0.3,1.2,0.8,1.7,1.2l1.5,1.5c1,1,2,2,2.9,2.9c0.3,0.3,0.4,0.3,0.4,0.3c0.1,0,0.2,0,0.4,0c0.5,0,0.9-0.1,1.2-0.5
				c0.1-0.1,0.2-0.2,0.4-0.4c0.1-0.1,0.2-0.2,0.3-0.3c0.4-0.4,0.7-0.8,1.1-1.1c0.5-0.5,1-0.9,1.3-1.4c0.1-0.1,0.1-0.1,0.1-0.2
				c0.1-0.4,0.1-0.7-0.3-1.2c-0.1-0.1-0.7-0.7-1.5-1.5c-1.3-1.3-2.8-2.8-3.6-3.6c-1-1-1.3-2.3-1-3.6l0.1-0.2
				c0.5-1.4,1.7-2.2,3.4-2.3c1.4-0.1,2.8-0.1,4.2,0.2c3.8,0.8,6.9,2.8,9.1,6.1c1.2,1.7,1.9,3.6,2.3,5.9c0.2,1,0.3,2.3,0.1,3.5
				c3.4,3.6,24.4,24.7,25.7,26c3,2.9,3.7,7.5,1.5,11.1C607.6,428,604.6,429.7,601.4,429.7z M569,397.5c0.7,0,1.4,0.3,1.9,0.8
				c3.2,3.2,25.6,25.8,26.8,26.8c1,0.9,2.3,1.4,3.7,1.4c2.1,0,3.9-1.1,5-2.9c1.4-2.3,1-5.2-1-7.2c-0.4-0.4-7.1-7.1-13.4-13.5
				c-13.2-13.3-13.2-13.3-13.4-13.9l-0.1-0.3l0.1-0.8c0.2-1,0.1-2,0-2.9c-0.3-1.8-0.8-3.3-1.7-4.6c-1.7-2.6-4-4.1-7-4.7
				c-1.1-0.2-2.1-0.3-3.2-0.2c-0.4,0-0.6,0.1-0.6,0.2c0,0.1,0,0.2,0.2,0.4c0.7,0.8,2.3,2.4,3.5,3.5c1.1,1.1,1.4,1.4,1.6,1.6
				c1.1,1.3,1.5,2.8,1,4.3c-0.1,0.4-0.3,0.7-0.4,0.9l-0.1,0.2c-0.5,0.8-1.2,1.4-1.8,2c-0.3,0.3-0.6,0.6-0.9,0.9
				c-0.1,0.2-0.3,0.3-0.4,0.4c-0.1,0.1-0.2,0.2-0.3,0.2c-1.1,1.2-2.6,1.7-4.3,1.5c-1.2-0.1-1.9-0.9-2.3-1.3c-1-1-2-2-3-2.9l-1.4-1.5
				c-0.2-0.2-0.4-0.4-0.7-0.5c-0.2,0.9-0.1,1.7,0.1,2.8c0.4,2.3,1.4,4.4,3.1,6c2.4,2.4,5.4,3.4,8.8,3.1
				C568.8,397.5,568.9,397.5,569,397.5z M600.9,423.4c-1.7,0-3-1.3-3-3c0-1.6,1.3-3,3-3s3,1.3,3,3
				C603.9,422.1,602.6,423.4,600.9,423.4z"/>
			<g>
				<circle class="st11" cx="596" cy="387" r="7.3"/>
				<circle class="st11" cx="568.1" cy="415" r="7.3"/>
			</g>
		</g>
		<g>
			<path class="st2" d="M330.7,543L330.7,543c-2.1,0-4.2-0.8-5.8-2.1c-1.3-1.1-24.2-24.1-26.8-26.8c-0.4,0-0.8,0-1.1,0
				c-3.8,0-7.2-1.4-10-4.1c-2.2-2.1-3.6-4.8-4-7.8c-0.2-1.3-0.3-2.7,0-4.1c0.3-1.5,1.5-2.5,3-2.5c0.5,0,1,0.1,1.4,0.3
				c0.7,0.3,1.2,0.8,1.7,1.2l1.5,1.5c1,1,2,2,2.9,2.9c0.3,0.3,0.4,0.3,0.4,0.3c0.1,0,0.2,0,0.4,0c0.5,0,0.9-0.1,1.2-0.5
				c0.1-0.1,0.2-0.2,0.4-0.4c0.1-0.1,0.2-0.2,0.3-0.3c0.4-0.4,0.7-0.8,1.1-1.1c0.5-0.5,1-0.9,1.3-1.4c0.1-0.1,0.1-0.1,0.1-0.2
				c0.1-0.4,0.1-0.7-0.3-1.2c-0.1-0.1-0.7-0.7-1.5-1.5c-1.3-1.3-2.8-2.8-3.6-3.6c-1-1-1.3-2.3-1-3.6l0.1-0.2
				c0.5-1.4,1.7-2.2,3.4-2.3c1.4-0.1,2.8-0.1,4.2,0.2c3.8,0.8,6.9,2.8,9.1,6.1c1.2,1.7,1.9,3.6,2.3,5.9c0.2,1,0.3,2.3,0.1,3.5
				c3.4,3.6,24.4,24.7,25.7,26c3,2.9,3.7,7.5,1.5,11.1C336.8,541.3,333.9,543,330.7,543z M298.3,510.8c0.7,0,1.4,0.3,1.9,0.8
				c3.2,3.2,25.6,25.8,26.8,26.8c1,0.9,2.3,1.4,3.7,1.4c2.1,0,3.9-1.1,5-2.9c1.4-2.3,1-5.2-1-7.2c-0.4-0.4-7.1-7.1-13.4-13.5
				c-13.2-13.3-13.2-13.3-13.4-13.9l-0.1-0.3l0.1-0.8c0.2-1,0.1-2,0-2.9c-0.3-1.8-0.8-3.3-1.7-4.6c-1.7-2.6-4-4.1-7-4.7
				c-1.1-0.2-2.1-0.3-3.2-0.2c-0.4,0-0.6,0.1-0.6,0.2c0,0.1,0,0.2,0.2,0.4c0.7,0.8,2.3,2.4,3.5,3.5c1.1,1.1,1.4,1.4,1.6,1.6
				c1.1,1.3,1.5,2.8,1,4.3c-0.1,0.4-0.3,0.7-0.4,0.9l-0.1,0.2c-0.5,0.8-1.2,1.4-1.8,2c-0.3,0.3-0.6,0.6-0.9,0.9
				c-0.1,0.2-0.3,0.3-0.4,0.4c-0.1,0.1-0.2,0.2-0.3,0.2c-1.1,1.2-2.6,1.7-4.3,1.5c-1.2-0.1-1.9-0.9-2.3-1.3c-1-1-2-2-3-2.9l-1.4-1.5
				c-0.2-0.2-0.4-0.4-0.7-0.5c-0.2,0.9-0.1,1.7,0.1,2.8c0.4,2.3,1.4,4.4,3.1,6c2.4,2.4,5.4,3.4,8.8,3.1
				C298.1,510.8,298.2,510.8,298.3,510.8z M330.1,536.7c-1.7,0-3-1.3-3-3s1.3-3,3-3c1.7,0,3,1.3,3,3S331.8,536.7,330.1,536.7z"/>
			<circle class="st11" cx="290" cy="535.6" r="7.3"/>
		</g>
		<g>
			<path class="st2" d="M332,661.7L332,661.7c-2.1,0-4.2-0.8-5.8-2.1c-1.3-1.1-24.2-24.1-26.8-26.8c-0.4,0-0.8,0-1.1,0
				c-3.8,0-7.2-1.4-10-4.1c-2.2-2.1-3.6-4.8-4-7.8c-0.2-1.3-0.3-2.7,0-4.1c0.3-1.5,1.5-2.5,3-2.5c0.5,0,1,0.1,1.4,0.3
				c0.7,0.3,1.2,0.8,1.7,1.2l1.5,1.5c1,1,2,2,2.9,2.9c0.3,0.3,0.4,0.3,0.4,0.3c0.1,0,0.2,0,0.4,0c0.5,0,0.9-0.1,1.2-0.5
				c0.1-0.1,0.2-0.2,0.4-0.4c0.1-0.1,0.2-0.2,0.3-0.3c0.4-0.4,0.7-0.8,1.1-1.1c0.5-0.5,1-0.9,1.3-1.4c0.1-0.1,0.1-0.1,0.1-0.2
				c0.1-0.4,0.1-0.7-0.3-1.2c-0.1-0.1-0.7-0.7-1.5-1.5c-1.3-1.3-2.8-2.8-3.6-3.6c-1-1-1.3-2.3-1-3.6l0.1-0.2
				c0.5-1.4,1.7-2.2,3.4-2.3c1.4-0.1,2.8-0.1,4.2,0.2c3.8,0.8,6.9,2.8,9.1,6.1c1.2,1.7,1.9,3.6,2.3,5.9c0.2,1,0.3,2.3,0.1,3.5
				c3.4,3.6,24.4,24.7,25.7,26c3,2.9,3.7,7.5,1.5,11.1C338.2,660,335.2,661.7,332,661.7z M299.6,629.5c0.7,0,1.4,0.3,1.9,0.8
				c3.2,3.2,25.6,25.8,26.8,26.8c1,0.9,2.3,1.4,3.7,1.4c2.1,0,3.9-1.1,5-2.9c1.4-2.3,1-5.2-1-7.2c-0.4-0.4-7.1-7.1-13.4-13.5
				c-13.2-13.3-13.2-13.3-13.4-13.9l-0.1-0.3l0.1-0.8c0.2-1,0.1-2,0-2.9c-0.3-1.8-0.8-3.3-1.7-4.6c-1.7-2.6-4-4.1-7-4.7
				c-1.1-0.2-2.1-0.3-3.2-0.2c-0.4,0-0.6,0.1-0.6,0.2c0,0.1,0,0.2,0.2,0.4c0.7,0.8,2.3,2.4,3.5,3.5c1.1,1.1,1.4,1.4,1.6,1.6
				c1.1,1.3,1.5,2.8,1,4.3c-0.1,0.4-0.3,0.7-0.4,0.9l-0.1,0.2c-0.5,0.8-1.2,1.4-1.8,2c-0.3,0.3-0.6,0.6-0.9,0.9
				c-0.1,0.2-0.3,0.3-0.4,0.4c-0.1,0.1-0.2,0.2-0.3,0.2c-1.1,1.2-2.6,1.7-4.3,1.5c-1.2-0.1-1.9-0.9-2.3-1.3c-1-1-2-2-3-2.9l-1.4-1.5
				c-0.2-0.2-0.4-0.4-0.7-0.5c-0.2,0.9-0.1,1.7,0.1,2.8c0.4,2.3,1.4,4.4,3.1,6c2.4,2.4,5.4,3.4,8.8,3.1
				C299.4,629.5,299.5,629.5,299.6,629.5z M331.5,655.4c-1.7,0-3-1.3-3-3s1.3-3,3-3c1.7,0,3,1.3,3,3S333.2,655.4,331.5,655.4z"/>
			<circle class="st11" cx="298.7" cy="647" r="7.3"/>
		</g>
		<g>
			<rect x="429.4" y="141.2" class="st12" width="113.3" height="44.3"/>
			<text transform="matrix(1 0 0 1 429.3695 153.1553)"><tspan x="0" y="0" class="st2 st13 st14">Scriptedit</tspan><tspan x="0" y="20.3" class="st2 st13 st14">Script</tspan></text>
			<rect x="429.4" y="249.2" class="st12" width="113.3" height="53.6"/>
			<text transform="matrix(1 0 0 1 429.3695 261.2324)"><tspan x="0" y="0" class="st2 st13 st14">Scriptedit</tspan><tspan x="0" y="20.3" class="st2 st13 st14">Script</tspan><tspan x="0" y="40.5" class="st2 st13 st14">Connect</tspan></text>
			<rect x="429.4" y="374.6" class="st12" width="145.7" height="53.6"/>
			<text transform="matrix(1 0 0 1 429.3695 386.5415)"><tspan x="0" y="0" class="st2 st13 st14">Scriptedit</tspan><tspan x="0" y="20.3" class="st2 st13 st14">Script</tspan><tspan x="0" y="40.5" class="st2 st13 st14">Connection</tspan></text>
			<rect x="429.4" y="505.3" class="st12" width="113.3" height="22.1"/>
			<text transform="matrix(1 0 0 1 429.3695 517.3193)" class="st2 st13 st14">Grab</text>
			<rect x="429.4" y="625" class="st12" width="113.3" height="22.1"/>
			<text transform="matrix(1 0 0 1 429.3695 636.9424)" class="st2 st13 st14">Move</text>
			<rect x="679.1" y="628.4" class="st12" width="110.5" height="22.1"/>
			<text transform="matrix(1 0 0 1 679.0604 640.3525)" class="st2 st13 st14">Close</text>
			<rect x="679.1" y="154" class="st12" width="110.5" height="28.8"/>
			<text transform="matrix(1 0 0 1 679.0604 166.0088)" class="st2 st13 st14">Lock</text>
			<rect x="679.1" y="271" class="st12" width="110.5" height="22.2"/>
			<text transform="matrix(1 0 0 1 679.0604 282.9502)" class="st2 st13 st14">Unlock</text>
			<rect x="679.1" y="390.1" class="st12" width="110.5" height="22.1"/>
			<text transform="matrix(1 0 0 1 679.0604 402.0718)" class="st2 st13 st14">Resize</text>
			<rect x="679.1" y="493.6" class="st12" width="110.5" height="44.3"/>
			<text transform="matrix(1 0 0 1 679.0604 505.5615)"><tspan x="0" y="0" class="st2 st13 st14">Resize</tspan><tspan x="0" y="20.3" class="st2 st13 st14">Shift</tspan></text>
			<g>
				<rect x="936.4" y="154.6" class="st12" width="77.3" height="28.8"/>
				<text transform="matrix(1 0 0 1 936.41 166.6191)" class="st2 st13 st14">Duplicate</text>
				<rect x="936.4" y="271.6" class="st12" width="77.3" height="24.1"/>
				<text transform="matrix(1 0 0 1 936.41 283.5615)" class="st2 st13 st14">Link</text>
				<rect x="936.4" y="393.2" class="st12" width="77.3" height="22.1"/>
				<text transform="matrix(1 0 0 1 936.41 405.1641)" class="st2 st13 st14">Scale</text>
				<rect x="936.4" y="507.3" class="st12" width="77.3" height="18.1"/>
				<text transform="matrix(1 0 0 1 936.41 519.2871)" class="st2 st13 st14">Rotate</text>
			</g>
			<rect x="167.5" y="154.7" class="st12" width="117.4" height="28.8"/>
			<text transform="matrix(1 0 0 1 167.452 166.6948)" class="st2 st13 st14">Menu</text>
			<rect x="167.5" y="262.1" class="st12" width="117.4" height="44.4"/>
			<text transform="matrix(1 0 0 1 167.452 274.1074)"><tspan x="0" y="0" class="st2 st13 st14">Style </tspan><tspan x="0" y="20.3" class="st2 st13 st14">Editor</tspan></text>
			<rect x="167.5" y="379.7" class="st12" width="117.4" height="44.3"/>
			<text transform="matrix(1 0 0 1 167.452 391.686)"><tspan x="0" y="0" class="st2 st13 st14">Object </tspan><tspan x="0" y="20.3" class="st2 st13 st14">Editor</tspan></text>
			<rect x="167.5" y="494.3" class="st12" width="117.4" height="44.3"/>
			<text transform="matrix(1 0 0 1 167.452 506.248)"><tspan x="0" y="0" class="st2 st13 st14">Scriptedit</tspan><tspan x="0" y="20.3" class="st2 st13 st14">Connect</tspan></text>
			<rect x="167.5" y="617" class="st12" width="117.4" height="44.4"/>
			<text transform="matrix(1 0 0 1 167.452 628.9541)"><tspan x="0" y="0" class="st2 st13 st14">Scriptedit</tspan><tspan x="0" y="20.3" class="st2 st13 st14">Connection</tspan></text>
		</g>
	</g>
</g>
</svg>
