<?xml version="1.0" encoding="utf-8"?>
<!-- Generator: Adobe Illustrator 19.1.0, SVG Export Plug-In . SVG Version: 6.00 Build 0)  -->
<svg version="1.1" id="Layer_1" xmlns="http://www.w3.org/2000/svg" xmlns:xlink="http://www.w3.org/1999/xlink" x="0px" y="0px"
	 viewBox="0 0 1280 800" style="enable-background:new 0 0 1280 800;" xml:space="preserve">
<style type="text/css">
	.st0{opacity:0.15;fill:#F1F2F2;}
	.st1{fill:#4D4D4D;}
	.st2{fill:#FFFFFF;}
	.st3{fill:#F57C00;}
	.st4{fill:#FFFAF5;}
	.st5{opacity:0.4;}
	.st6{fill:#808285;}
	.st7{opacity:0.8;fill:#4D4D4D;}
	.st8{fill:#FFFFFF;stroke:#FFFFFF;stroke-width:1.2;stroke-miterlimit:10;}
	.st9{fill:#F47B54;}
	.st10{opacity:0.8;fill:#F57C00;}
	.st11{fill:#FCDED4;}
	.st12{fill:#231F20;}
	.st13{fill:#58595B;}
	.st14{fill:#FFFFFF;stroke:#58595B;stroke-width:3.5;stroke-miterlimit:10;}
	.st15{fill:none;stroke:#FFFFFF;stroke-width:3.5;stroke-miterlimit:10;}
	.st16{fill-rule:evenodd;clip-rule:evenodd;fill:#58595B;stroke:#58595B;stroke-miterlimit:10;}
	.st17{fill-rule:evenodd;clip-rule:evenodd;fill:#FFFFFF;stroke:#FFFFFF;stroke-miterlimit:10;}
	.st18{fill:#58595B;stroke:#58595B;stroke-width:1.5;stroke-miterlimit:10;}
	.st19{fill:#58595B;stroke:#58595B;stroke-miterlimit:10;}
	.st20{fill:#FFFFFF;stroke:#FFFFFF;stroke-width:1.5;stroke-miterlimit:10;}
	.st21{fill:#FFFFFF;stroke:#FFFFFF;stroke-miterlimit:10;}
	.st22{fill:none;stroke:#58595B;stroke-width:3;stroke-miterlimit:10;}
	.st23{fill:none;stroke:#FFFFFF;stroke-width:3;stroke-miterlimit:10;}
	.st24{fill:none;stroke:#F57C00;stroke-miterlimit:10;}
	.st25{opacity:0.2;}
	.st26{fill:none;stroke:#231F20;stroke-miterlimit:10;}
	.st27{opacity:0.4;fill:#808285;}
	.st28{opacity:0.5;}
	.st29{opacity:0.4;fill:none;stroke:#231F20;stroke-miterlimit:10;}
	.st30{font-family:'BloggerSans';}
	.st31{font-size:26.43px;}
	.st32{fill:#808285;stroke:#808285;stroke-width:5;stroke-miterlimit:10;}
	.st33{fill:#6D6E71;}
	.st34{font-size:17.9666px;}
	.st35{font-size:23.6746px;}
</style>
<g>
	<text transform="matrix(1 0 0 1 632.7983 616.647)" class="st13 st30 st31">x</text>
	<g>
		<g>
			<line class="st24" x1="632" y1="578.5" x2="646" y2="578.5"/>
			<g>
				<rect x="631" y="575" class="st3" width="1" height="7"/>
			</g>
			<g>
				<rect x="645" y="575" class="st3" width="1" height="7"/>
			</g>
		</g>
	</g>
</g>
<g>
	<rect x="327.9" y="204.9" class="st0" width="297.2" height="297.2"/>
	<g class="st5">
		<path class="st32" d="M549.2,263.6H403.7c-12,0-21.8,9.8-21.8,21.8v157.4c0,12,9.8,21.8,21.8,21.8h145.5c12,0,21.8-9.8,21.8-21.8
			V285.5C571,273.4,561.3,263.6,549.2,263.6L549.2,263.6z M517.6,274.6v68.7h-82.4v-68.7H517.6z M435.2,453.8v-36.7h82.2v36.8
			L435.2,453.8z M560.1,442.9c0,6-4.9,10.9-10.9,10.9h-20.4v-42.5c0-3-3.3-5.7-6.3-5.7L429,406c-3,0-5.5,2.4-5.5,5.5v42.4h-19.9
			c-6,0-10.9-4.9-10.9-10.9V285.5c0-6,4.9-10.9,10.9-10.9h20.7v74.2c0,3,2.4,5.5,5.5,5.5h93.3c3,0,5.5-2.4,5.5-5.5v-74.2h20.7
			c6,0,10.9,4.9,10.9,10.9V442.9z M560.1,442.9"/>
		<path class="st32" d="M460.5,315.1h31.9c1.7,0,3-2.4,3-5.5c0-3-1.3-5.5-3-5.5h-31.9c-1.7,0-3,2.4-3,5.5
			C457.5,312.6,458.9,315.1,460.5,315.1L460.5,315.1z M460.5,315.1"/>
	</g>
</g>
<text transform="matrix(1 0 0 1 485.7957 438.959)"><tspan x="0" y="0" class="st33 st30 st34">1</tspan><tspan x="9" y="0" class="st33 st30 st35">x</tspan></text>
<g class="st28">
	<line class="st29" x1="379.5" y1="205.1" x2="379.5" y2="502.2"/>
	<line class="st29" x1="394.8" y1="205.1" x2="394.8" y2="502.2"/>
	<line class="st29" x1="422.2" y1="205.1" x2="422.2" y2="502.2"/>
	<line class="st29" x1="437.5" y1="205.1" x2="437.5" y2="502.2"/>
	<line class="st29" x1="515.1" y1="205.1" x2="515.1" y2="502.2"/>
	<line class="st29" x1="530.4" y1="205.1" x2="530.4" y2="502.2"/>
	<line class="st29" x1="558.2" y1="205.1" x2="558.2" y2="502.2"/>
	<line class="st29" x1="573.5" y1="205.1" x2="573.5" y2="502.2"/>
	<line class="st29" x1="625.3" y1="276.3" x2="328.1" y2="276.3"/>
	<line class="st29" x1="625.3" y1="261.5" x2="328.1" y2="261.5"/>
	<line class="st29" x1="625.3" y1="302" x2="328.1" y2="302"/>
	<line class="st29" x1="625.3" y1="317.2" x2="328.1" y2="317.2"/>
	<line class="st29" x1="625.3" y1="451.3" x2="328.1" y2="451.3"/>
	<line class="st29" x1="625.3" y1="466.6" x2="328.1" y2="466.6"/>
	<line class="st29" x1="625.3" y1="403.2" x2="328.1" y2="403.2"/>
	<line class="st29" x1="627.9" y1="418.7" x2="330.7" y2="418.7"/>
	<line class="st29" x1="625.3" y1="340.6" x2="328.1" y2="340.6"/>
	<line class="st29" x1="625.3" y1="355.9" x2="328.1" y2="355.9"/>
</g>
<g>
	<line class="st24" x1="515.1" y1="431.3" x2="530.4" y2="431.3"/>
	<line class="st24" x1="515.1" y1="429" x2="515.1" y2="433.6"/>
	<line class="st24" x1="530.4" y1="429" x2="530.4" y2="433.7"/>
</g>
<rect x="648.8" y="204.9" class="st0" width="297.2" height="297.2"/>
<g>
	<g>
		<g>
			<g>
				<path class="st2" d="M800.2,315.7c-56.8,0-86.5,41.8-86.5,48.5c0,6.6,29.8,48.4,86.5,48.4s86.5-41.8,86.5-48.4
					C886.7,357.5,857,315.7,800.2,315.7L800.2,315.7z M800.2,385.1c-11.9,0-21.6-9.4-21.6-20.9c0-11.6,9.7-20.9,21.6-20.9
					c11.9,0,21.6,9.4,21.6,20.9C821.8,375.7,812.2,385.1,800.2,385.1L800.2,385.1z"/>
				<path class="st27" d="M800.2,420.8c-60.3,0-94.8-44.6-94.8-56.7s34.5-56.7,94.8-56.7S895,352,895,364.1S860.5,420.8,800.2,420.8
					z M722.3,364.1c4.2,9.1,31.2,40.2,77.9,40.2c46.7,0,73.8-31.1,77.9-40.2c-4.2-9.1-31.2-40.2-77.9-40.2S726.5,355,722.3,364.1z
					 M800.2,393.3c-16.5,0-29.9-13.1-29.9-29.2c0-16.1,13.4-29.2,29.9-29.2s29.9,13.1,29.9,29.2
					C830.1,380.2,816.7,393.3,800.2,393.3z M800.2,351.4c-7.4,0-13.3,5.7-13.3,12.7c0,7,6,12.7,13.3,12.7c7.4,0,13.3-5.7,13.3-12.7
					C813.6,357.1,807.6,351.4,800.2,351.4z"/>
			</g>
		</g>
	</g>
	<circle class="st27" cx="807.9" cy="360.6" r="7.6"/>
</g>
<text transform="matrix(1 0 0 1 901.7306 455.2927)"><tspan x="0" y="0" class="st13 st30 st34">1</tspan><tspan x="9" y="0" class="st13 st30 st35">x</tspan></text>
<text transform="matrix(1 0 0 1 830.439 358.2124)"><tspan x="0" y="0" class="st13 st30 st34">1</tspan><tspan x="9" y="0" class="st13 st30 st35">x</tspan></text>
<text transform="matrix(1 0 0 1 789.2306 479.7927)"><tspan x="0" y="0" class="st13 st30 st34">4</tspan><tspan x="9" y="0" class="st13 st30 st35">x</tspan></text>
<g class="st28">
	<line class="st29" x1="879.1" y1="205.1" x2="879.1" y2="502.2"/>
	<line class="st29" x1="894.4" y1="205.1" x2="894.4" y2="502.2"/>
	<line class="st29" x1="706.1" y1="205.1" x2="706.1" y2="502.2"/>
	<line class="st29" x1="721.3" y1="205.1" x2="721.3" y2="502.2"/>
	<line class="st29" x1="800.2" y1="205.1" x2="800.2" y2="502.2"/>
	<line class="st29" x1="815.5" y1="205.1" x2="815.5" y2="502.2"/>
	<line class="st29" x1="770.4" y1="205.1" x2="770.4" y2="502.2"/>
	<line class="st29" x1="830.4" y1="205.1" x2="830.4" y2="502.2"/>
	<line class="st29" x1="946.2" y1="405.4" x2="649.1" y2="405.4"/>
	<line class="st29" x1="948.8" y1="420.8" x2="651.6" y2="420.8"/>
	<line class="st29" x1="946.2" y1="307.4" x2="649.1" y2="307.4"/>
	<line class="st29" x1="946.2" y1="323.4" x2="649.1" y2="323.4"/>
</g>
<g>
	<line class="st24" x1="879.1" y1="439" x2="894.4" y2="439"/>
	<line class="st24" x1="879.1" y1="436.6" x2="879.1" y2="441.3"/>
	<line class="st24" x1="894.4" y1="436.6" x2="894.4" y2="441.3"/>
</g>
<g>
	<line class="st24" x1="800.5" y1="360.5" x2="815.8" y2="360.6"/>
	<line class="st24" x1="800.5" y1="358.2" x2="800.5" y2="362.8"/>
	<line class="st24" x1="815.8" y1="358.2" x2="815.8" y2="362.9"/>
</g>
<g>
	<line class="st24" x1="770.4" y1="453" x2="830.4" y2="453.1"/>
	<line class="st24" x1="770.4" y1="450.6" x2="770.4" y2="455.3"/>
	<line class="st24" x1="830.4" y1="450.7" x2="830.4" y2="455.3"/>
</g>
</svg>
