<?xml version="1.0" encoding="utf-8"?>
<!-- Generator: Adobe Illustrator 19.1.0, SVG Export Plug-In . SVG Version: 6.00 Build 0)  -->
<svg version="1.1" id="Layer_1" xmlns="http://www.w3.org/2000/svg" xmlns:xlink="http://www.w3.org/1999/xlink" x="0px" y="0px"
	 viewBox="0 0 1280 800" style="enable-background:new 0 0 1280 800;" xml:space="preserve">
<style type="text/css">
	.st0{opacity:0.15;fill:#F1F2F2;}
	.st1{fill:#4D4D4D;}
	.st2{fill:#FFFFFF;}
	.st3{fill:#F57C00;}
	.st4{fill:#FFFAF5;}
	.st5{opacity:0.4;}
	.st6{fill:#808285;}
	.st7{opacity:0.8;fill:#4D4D4D;}
	.st8{fill:#FFFFFF;stroke:#FFFFFF;stroke-width:1.2;stroke-miterlimit:10;}
	.st9{fill:#F47B54;}
	.st10{opacity:0.8;fill:#F57C00;}
	.st11{fill:#FCDED4;}
	.st12{fill:none;}
	.st13{fill:#231F20;}
	.st14{font-family:'BloggerSans';}
	.st15{font-size:27.9183px;}
	.st16{fill:#58595B;}
	.st17{fill:#FFFFFF;stroke:#58595B;stroke-width:3.5;stroke-miterlimit:10;}
	.st18{fill:none;stroke:#FFFFFF;stroke-width:3.5;stroke-miterlimit:10;}
	.st19{fill-rule:evenodd;clip-rule:evenodd;fill:#58595B;stroke:#58595B;stroke-miterlimit:10;}
	.st20{fill-rule:evenodd;clip-rule:evenodd;fill:#FFFFFF;stroke:#FFFFFF;stroke-miterlimit:10;}
	.st21{fill:#58595B;stroke:#58595B;stroke-width:1.5;stroke-miterlimit:10;}
	.st22{fill:#58595B;stroke:#58595B;stroke-miterlimit:10;}
	.st23{fill:#FFFFFF;stroke:#FFFFFF;stroke-width:1.5;stroke-miterlimit:10;}
	.st24{fill:#FFFFFF;stroke:#FFFFFF;stroke-miterlimit:10;}
	.st25{fill:none;stroke:#58595B;stroke-width:3;stroke-miterlimit:10;}
	.st26{fill:none;stroke:#FFFFFF;stroke-width:3;stroke-miterlimit:10;}
	.st27{fill:none;stroke:#F57C00;stroke-miterlimit:10;}
	.st28{opacity:0.2;}
	.st29{fill:none;stroke:#231F20;stroke-miterlimit:10;}
	.st30{opacity:0.4;fill:#808285;}
	.st31{opacity:0.5;}
	.st32{opacity:0.4;fill:none;stroke:#231F20;stroke-miterlimit:10;}
	.st33{fill:#808285;stroke:#808285;stroke-width:5;stroke-miterlimit:10;}
	.st34{fill:#6D6E71;}
</style>
<g>
	<g>
		<circle class="st1" cx="514.1" cy="222.7" r="30.3"/>
	</g>
</g>
<g>
	<g>
		<circle class="st1" cx="514.1" cy="340.9" r="30.3"/>
	</g>
</g>
<g>
	<g>
		<circle class="st1" cx="514.1" cy="459.1" r="30.3"/>
	</g>
</g>
<g>
	<g>
		<circle class="st1" cx="514.1" cy="577.3" r="30.3"/>
	</g>
</g>
<g>
	<g>
		<circle class="st1" cx="1014.6" cy="222.7" r="30.3"/>
	</g>
</g>
<g>
	<g>
		<circle class="st1" cx="1014.6" cy="340.9" r="30.3"/>
	</g>
</g>
<g>
	<g>
		<circle class="st1" cx="1014.6" cy="459.1" r="30.3"/>
	</g>
</g>
<g>
	<g>
		<circle class="st1" cx="1014.6" cy="577.3" r="30.3"/>
	</g>
</g>
<g>
	<rect x="235.1" y="205.5" class="st12" width="152.9" height="43.6"/>
	<text transform="matrix(1 0 0 1 235.1179 225.7767)" class="st13 st14 st15">Save</text>
</g>
<g>
	<rect x="235.1" y="325.8" class="st12" width="152.9" height="41.5"/>
	<text transform="matrix(1 0 0 1 235.1179 346.0076)" class="st13 st14 st15">preview</text>
</g>
<g>
	<rect x="235.1" y="447.1" class="st12" width="152.9" height="38.4"/>
	<text transform="matrix(1 0 0 1 235.1179 467.3358)" class="st13 st14 st15">redo</text>
</g>
<g>
	<rect x="235.1" y="566.9" class="st12" width="152.9" height="36.8"/>
	<text transform="matrix(1 0 0 1 235.1179 587.121)" class="st13 st14 st15">undo</text>
</g>
<g>
	<rect x="712.1" y="209" class="st12" width="152.9" height="40.1"/>
	<text transform="matrix(1 0 0 1 712.1036 229.2596)" class="st13 st14 st15">publish</text>
</g>
<g>
	<rect x="712.1" y="329.5" class="st12" width="152.9" height="37.9"/>
	<text transform="matrix(1 0 0 1 712.1036 349.6893)" class="st13 st14 st15">account</text>
</g>
<g>
	<rect x="712.1" y="447.1" class="st12" width="174.3" height="38.4"/>
	<text transform="matrix(1 0 0 1 712.1036 467.3359)" class="st13 st14 st15">collaboration</text>
</g>
<g>
	<rect x="712.1" y="566.9" class="st12" width="152.9" height="36.8"/>
	<text transform="matrix(1 0 0 1 712.1036 587.122)" class="st13 st14 st15">chat</text>
</g>
<g>
	<g>
		<path class="st16" d="M926.9,216c0-0.7-0.3-1.4-0.8-1.9c-1-1-2.8-1-3.8,0l-10.7,10.7c-0.4,0.4-1.1,0.4-1.5,0l-4-4
			c-0.5-0.5-1.2-0.8-1.9-0.8s-1.4,0.3-1.9,0.8c-1.1,1.1-1.1,2.8,0,3.8l6.6,6.6c1,1,2.8,1,3.8,0l13.4-13.4
			C926.6,217.4,926.9,216.8,926.9,216z"/>
	</g>
</g>
<g>
	<g>
		<path class="st2" d="M1027.3,216c0-0.7-0.3-1.4-0.8-1.9c-1-1-2.8-1-3.8,0l-10.7,10.7c-0.4,0.4-1.1,0.4-1.5,0l-4-4
			c-0.5-0.5-1.2-0.8-1.9-0.8c-0.7,0-1.4,0.3-1.9,0.8c-1.1,1.1-1.1,2.8,0,3.8l6.6,6.6c1,1,2.8,1,3.8,0l13.4-13.4
			C1027,217.4,1027.3,216.8,1027.3,216z"/>
	</g>
</g>
<g>
	<g>
		<g>
			<path class="st17" d="M413.7,330.7c-12,0-18.3,8.9-18.3,10.3c0,1.4,6.3,10.3,18.3,10.3c12,0,18.3-8.9,18.3-10.3
				C432,339.5,425.7,330.7,413.7,330.7L413.7,330.7z M413.7,345.3c-2.5,0-4.6-2-4.6-4.4c0-2.4,2-4.4,4.6-4.4c2.5,0,4.6,2,4.6,4.4
				C418.3,343.4,416.2,345.3,413.7,345.3L413.7,345.3z"/>
		</g>
	</g>
	<circle class="st16" cx="413.7" cy="340.9" r="3.2"/>
	<circle class="st2" cx="415" cy="340.2" r="2"/>
</g>
<g>
	<g>
		<g>
			<path class="st18" d="M514.1,330.7c-12,0-18.3,8.9-18.3,10.3c0,1.4,6.3,10.3,18.3,10.3c12,0,18.3-8.9,18.3-10.3
				C532.5,339.5,526.2,330.7,514.1,330.7L514.1,330.7z M514.1,345.3c-2.5,0-4.6-2-4.6-4.4c0-2.4,2-4.4,4.6-4.4c2.5,0,4.6,2,4.6,4.4
				C518.7,343.4,516.7,345.3,514.1,345.3L514.1,345.3z"/>
		</g>
	</g>
	<circle class="st16" cx="514.2" cy="340.9" r="3.2"/>
	<circle class="st2" cx="515.4" cy="340.2" r="2"/>
</g>
<g>
	<path class="st16" d="M413.7,478.5c8.9,0,16.2-7.3,16.2-16.2c0-1.1-0.9-2-2-2c-1.1,0-2,0.9-2,2c0,6.7-5.5,12.2-12.2,12.2
		c-6.7,0-12.2-5.5-12.2-12.2c0-6.3,4.9-11.6,11.2-12.1l2.8-0.2l-3.9,3.9c-0.4,0.4-0.6,0.9-0.6,1.4c0,0.5,0.2,1,0.6,1.4
		c0.8,0.8,2.1,0.8,2.8,0l6.8-6.8c0.4-0.4,0.6-0.9,0.6-1.4c0-0.5-0.2-1-0.6-1.4l-6.8-6.8c-0.4-0.4-0.9-0.6-1.4-0.6
		c-0.5,0-1,0.2-1.4,0.6c-0.4,0.4-0.6,0.9-0.6,1.4c0,0.5,0.2,1,0.6,1.4l3.1,3.1l-2.3,0.2c-8.4,0.6-14.9,7.7-14.9,16.1
		C397.5,471.3,404.8,478.5,413.7,478.5z"/>
</g>
<g>
	<g>
		<path class="st16" d="M413.7,596.7c8.9,0,16.2-7.3,16.2-16.2c0-8.4-6.6-15.5-14.9-16.1l-2.3-0.2l3.1-3.1c0.8-0.8,0.8-2,0-2.8
			c-0.8-0.8-2.1-0.8-2.8,0l-6.8,6.8c-0.4,0.4-0.6,0.9-0.6,1.4c0,0.5,0.2,1,0.6,1.4l6.8,6.8c0.8,0.8,2.1,0.8,2.8,0
			c0.4-0.4,0.6-0.9,0.6-1.4c0-0.5-0.2-1-0.6-1.4l-3.9-3.9l2.8,0.2c6.3,0.5,11.2,5.8,11.2,12.1c0,6.7-5.5,12.2-12.2,12.2
			c-6.7,0-12.2-5.5-12.2-12.2c0-1.1-0.9-2-2-2c-1.1,0-2,0.9-2,2C397.5,589.5,404.8,596.7,413.7,596.7z"/>
	</g>
</g>
<g>
	<path class="st2" d="M514.1,478.5c8.9,0,16.2-7.3,16.2-16.2c0-1.1-0.9-2-2-2c-1.1,0-2,0.9-2,2c0,6.7-5.5,12.2-12.2,12.2
		c-6.7,0-12.2-5.5-12.2-12.2c0-6.3,4.9-11.6,11.2-12.1l2.8-0.2l-3.9,3.9c-0.4,0.4-0.6,0.9-0.6,1.4c0,0.5,0.2,1,0.6,1.4
		c0.8,0.8,2.1,0.8,2.8,0l6.8-6.8c0.4-0.4,0.6-0.9,0.6-1.4c0-0.5-0.2-1-0.6-1.4l-6.8-6.8c-0.4-0.4-0.9-0.6-1.4-0.6
		c-0.5,0-1,0.2-1.4,0.6c-0.4,0.4-0.6,0.9-0.6,1.4c0,0.5,0.2,1,0.6,1.4l3.1,3.1l-2.3,0.2c-8.4,0.6-14.9,7.7-14.9,16.1
		C498,471.3,505.2,478.5,514.1,478.5z"/>
</g>
<g>
	<g>
		<path class="st2" d="M514.1,596.7c8.9,0,16.2-7.3,16.2-16.2c0-8.4-6.6-15.5-14.9-16.1l-2.3-0.2l3.1-3.1c0.8-0.8,0.8-2,0-2.8
			c-0.8-0.8-2.1-0.8-2.8,0l-6.8,6.8c-0.4,0.4-0.6,0.9-0.6,1.4c0,0.5,0.2,1,0.6,1.4l6.8,6.8c0.8,0.8,2.1,0.8,2.8,0
			c0.4-0.4,0.6-0.9,0.6-1.4c0-0.5-0.2-1-0.6-1.4l-3.9-3.9l2.8,0.2c6.3,0.5,11.2,5.8,11.2,12.1c0,6.7-5.5,12.2-12.2,12.2
			c-6.7,0-12.2-5.5-12.2-12.2c0-1.1-0.9-2-2-2c-1.1,0-2,0.9-2,2C498,589.5,505.2,596.7,514.1,596.7z"/>
	</g>
</g>
<g>
	<path class="st16" d="M914.1,342.3c-4.9,0-16.8,2.8-16.8,9.6l0,0c0.8,4.7,10.3,9.9,16.8,9.9c6.6,0,16-5,16.8-9.9l0,0
		C931,345,919.1,342.3,914.1,342.3z M914.1,357.9c-5.1,0-12-3.6-12.9-6.6c0.8-2.9,8.3-5.3,12.9-5.3c4.6,0,12.1,2.4,12.9,5.3
		C926.8,354.6,919.2,357.9,914.1,357.9z"/>
	<path class="st16" d="M914.1,320.1c-5.2,0-9.4,4.1-9.4,9.4c0,5.2,4.1,9.4,9.4,9.4c5.2,0,9.4-4.1,9.4-9.4
		C923.5,324.2,919.4,320.1,914.1,320.1z M914.1,335c-3.2,0-5.5-2.4-5.5-5.5c0-3.2,2.4-5.6,5.5-5.6c3.2,0,5.5,2.4,5.5,5.6
		C919.7,332.6,917.3,335,914.1,335z"/>
</g>
<g>
	<path class="st2" d="M1014.6,342.3c-4.9,0-16.8,2.8-16.8,9.6l0,0c0.8,4.7,10.3,9.9,16.8,9.9c6.6,0,16-5,16.8-9.9l0,0
		C1031.4,345,1019.5,342.3,1014.6,342.3z M1014.6,357.9c-5.1,0-12-3.6-12.9-6.6c0.8-2.9,8.3-5.3,12.9-5.3c4.6,0,12.1,2.4,12.9,5.3
		C1027.3,354.6,1019.7,357.9,1014.6,357.9z"/>
	<path class="st2" d="M1014.6,320.1c-5.2,0-9.4,4.1-9.4,9.4c0,5.2,4.1,9.4,9.4,9.4c5.2,0,9.4-4.1,9.4-9.4
		C1023.9,324.2,1019.8,320.1,1014.6,320.1z M1014.6,335c-3.2,0-5.5-2.4-5.5-5.5c0-3.2,2.4-5.6,5.5-5.6c3.2,0,5.5,2.4,5.5,5.6
		C1020.1,332.6,1017.8,335,1014.6,335z"/>
</g>
<g>
	<path class="st19" d="M919.4,577.3H907c-0.7,0-1.2,0.6-1.2,1.2c0,0.7,0.6,1.2,1.2,1.2h12.4c0.7,0,1.2-0.6,1.2-1.2
		C920.7,577.8,920.1,577.3,919.4,577.3L919.4,577.3z M922.4,570.5h-15.3c-0.6,0-1.1,0.6-1.1,1.2c0,0.7,0.5,1.2,1.1,1.2h15.3
		c0.6,0,1.1-0.6,1.1-1.2C923.5,571.1,923,570.5,922.4,570.5L922.4,570.5z M914.1,557.4c-11,0-19.9,7.8-19.9,17.4
		c0,5.5,2.9,10.4,7.5,13.6v8.8l8.7-5.3c1.2,0.2,2.4,0.3,3.7,0.3c11,0,19.9-7.8,19.9-17.4C934.1,565.2,925.1,557.4,914.1,557.4
		L914.1,557.4z M914.1,589.7c-1.5,0-2.9-0.2-4.2-0.5l-5.9,3.5l0.1-5.8c-4.5-2.7-7.4-7.2-7.4-12.2c0-8.2,7.8-14.9,17.4-14.9
		c9.6,0,17.4,6.7,17.4,14.9C931.6,583,923.8,589.7,914.1,589.7L914.1,589.7z M914.1,589.7"/>
</g>
<g>
	<path class="st20" d="M1019.3,577.3h-11c-0.6,0-1.1,0.5-1.1,1.1c0,0.6,0.5,1.1,1.1,1.1h11c0.6,0,1.1-0.5,1.1-1.1
		C1020.4,577.8,1019.9,577.3,1019.3,577.3L1019.3,577.3z M1021.9,571.3h-13.6c-0.5,0-1,0.5-1,1.1c0,0.6,0.4,1.1,1,1.1h13.6
		c0.5,0,1-0.5,1-1.1C1022.9,571.8,1022.4,571.3,1021.9,571.3L1021.9,571.3z M1014.6,559.6c-9.8,0-17.7,6.9-17.7,15.5
		c0,4.9,2.6,9.2,6.6,12.1v7.8l7.7-4.7c1.1,0.2,2.2,0.3,3.3,0.3c9.8,0,17.7-6.9,17.7-15.5C1032.3,566.5,1024.4,559.6,1014.6,559.6
		L1014.6,559.6z M1014.6,588.3c-1.3,0-2.5-0.2-3.7-0.4l-5.2,3.1l0.1-5.1c-4-2.4-6.6-6.4-6.6-10.9c0-7.3,6.9-13.3,15.5-13.3
		c8.5,0,15.5,5.9,15.5,13.3S1023.1,588.3,1014.6,588.3L1014.6,588.3z M1014.6,588.3"/>
</g>
<g>
	<path class="st21" d="M426.1,205.5h-24.9c-2.1,0-3.7,1.7-3.7,3.7v26.9c0,2.1,1.7,3.7,3.7,3.7h24.9c2.1,0,3.7-1.7,3.7-3.7v-26.9
		C429.9,207.2,428.2,205.5,426.1,205.5L426.1,205.5z M420.7,207.4v11.8h-14.1v-11.8H420.7z M406.5,238.1v-6.3h13.9v6.3H406.5z
		 M428,236.2c0,1-0.8,1.9-1.9,1.9h-3.9v-7.2c0-0.5-0.4-0.9-0.9-0.9h-15.7c-0.5,0-0.9,0.4-0.9,0.9v7.2h-3.4c-1,0-1.9-0.8-1.9-1.9
		v-26.9c0-1,0.8-1.9,1.9-1.9h3.5v12.7c0,0.5,0.4,0.9,0.9,0.9h16c0.5,0,0.9-0.4,0.9-0.9v-12.7h3.5c1,0,1.9,0.8,1.9,1.9V236.2z
		 M428,236.2"/>
	<path class="st22" d="M411,214.3h5.4c0.3,0,0.5-0.4,0.5-0.9c0-0.5-0.2-0.9-0.5-0.9H411c-0.3,0-0.5,0.4-0.5,0.9
		C410.5,213.9,410.7,214.3,411,214.3L411,214.3z M411,214.3"/>
</g>
<g>
	<path class="st23" d="M526.6,205.5h-24.9c-2.1,0-3.7,1.7-3.7,3.7v26.9c0,2.1,1.7,3.7,3.7,3.7h24.9c2.1,0,3.7-1.7,3.7-3.7v-26.9
		C530.3,207.2,528.6,205.5,526.6,205.5L526.6,205.5z M521.2,207.4v11.8h-14.1v-11.8H521.2z M507,238.1v-6.3h13.9v6.3H507z
		 M528.4,236.2c0,1-0.8,1.9-1.9,1.9h-3.9v-7.2c0-0.5-0.4-0.9-0.9-0.9H506c-0.5,0-0.9,0.4-0.9,0.9v7.2h-3.4c-1,0-1.9-0.8-1.9-1.9
		v-26.9c0-1,0.8-1.9,1.9-1.9h3.5v12.7c0,0.5,0.4,0.9,0.9,0.9h16c0.5,0,0.9-0.4,0.9-0.9v-12.7h3.5c1,0,1.9,0.8,1.9,1.9V236.2z
		 M528.4,236.2"/>
	<path class="st24" d="M511.4,214.3h5.4c0.3,0,0.5-0.4,0.5-0.9c0-0.5-0.2-0.9-0.5-0.9h-5.4c-0.3,0-0.5,0.4-0.5,0.9
		C510.9,213.9,511.1,214.3,511.4,214.3L511.4,214.3z M511.4,214.3"/>
</g>
<g>
	<circle class="st25" cx="906.4" cy="459.1" r="12"/>
	<circle class="st25" cx="921.9" cy="459.1" r="12"/>
</g>
<g>
	<circle class="st26" cx="1007.3" cy="459.7" r="11.4"/>
	<circle class="st26" cx="1021.9" cy="459.7" r="11.4"/>
</g>
</svg>
