<?xml version="1.0" encoding="utf-8"?>
<!-- Generator: Adobe Illustrator 19.1.0, SVG Export Plug-In . SVG Version: 6.00 Build 0)  -->
<svg version="1.1" id="Layer_1" xmlns="http://www.w3.org/2000/svg" xmlns:xlink="http://www.w3.org/1999/xlink" x="0px" y="0px"
	 viewBox="0 0 1280 800" style="enable-background:new 0 0 1280 800;" xml:space="preserve">
<style type="text/css">
	.st0{opacity:0.15;fill:#F1F2F2;}
	.st1{fill:#4D4D4D;}
	.st2{fill:#FFFFFF;}
	.st3{fill:#F57C00;}
	.st4{fill:#FFFAF5;}
	.st5{opacity:0.4;}
	.st6{fill:#808285;}
	.st7{opacity:0.8;fill:#4D4D4D;}
	.st8{fill:#FFFFFF;stroke:#FFFFFF;stroke-width:1.2;stroke-miterlimit:10;}
	.st9{fill:#F47B54;}
	.st10{opacity:0.8;fill:#F57C00;}
	.st11{fill:#FCDED4;}
	.st12{fill:#231F20;}
	.st13{fill:#58595B;}
	.st14{fill:#FFFFFF;stroke:#58595B;stroke-width:3.5;stroke-miterlimit:10;}
	.st15{fill:none;stroke:#FFFFFF;stroke-width:3.5;stroke-miterlimit:10;}
	.st16{fill-rule:evenodd;clip-rule:evenodd;fill:#58595B;stroke:#58595B;stroke-miterlimit:10;}
	.st17{fill-rule:evenodd;clip-rule:evenodd;fill:#FFFFFF;stroke:#FFFFFF;stroke-miterlimit:10;}
	.st18{fill:#58595B;stroke:#58595B;stroke-width:1.5;stroke-miterlimit:10;}
	.st19{fill:#58595B;stroke:#58595B;stroke-miterlimit:10;}
	.st20{fill:#FFFFFF;stroke:#FFFFFF;stroke-width:1.5;stroke-miterlimit:10;}
	.st21{fill:#FFFFFF;stroke:#FFFFFF;stroke-miterlimit:10;}
	.st22{fill:none;stroke:#58595B;stroke-width:3;stroke-miterlimit:10;}
	.st23{fill:none;stroke:#FFFFFF;stroke-width:3;stroke-miterlimit:10;}
	.st24{font-family:'BloggerSans';}
	.st25{font-size:26.43px;}
	.st26{fill:none;stroke:#F57C00;stroke-miterlimit:10;}
	.st27{opacity:0.2;}
	.st28{fill:none;stroke:#231F20;stroke-miterlimit:10;}
	.st29{font-size:17.9962px;}
	.st30{font-size:23.7136px;}
	.st31{font-size:17.9666px;}
	.st32{font-size:23.6746px;}
	.st33{opacity:0.4;fill:#808285;}
	.st34{opacity:0.5;}
	.st35{opacity:0.4;fill:none;stroke:#231F20;stroke-miterlimit:10;}
	.st36{fill:#808285;stroke:#808285;stroke-width:5;stroke-miterlimit:10;}
	.st37{fill:#6D6E71;}
</style>
<g>
	<text transform="matrix(1 0 0 1 632.7983 618.647)" class="st13 st24 st25">x</text>
	<g>
		<g>
			<line class="st26" x1="632" y1="580.5" x2="646" y2="580.5"/>
			<g>
				<rect x="631" y="577" class="st3" width="1" height="7"/>
			</g>
			<g>
				<rect x="645" y="577" class="st3" width="1" height="7"/>
			</g>
		</g>
	</g>
</g>
<g>
	<g>
		<g>
			<rect x="332" y="207.1" class="st0" width="297.2" height="297.2"/>
			<g class="st5">
				<path class="st6" d="M476.7,275.9c28.1,15.1,56.3,30.3,84.4,45.4c0-3.7,0-7.4,0-11.1c-28.1,15.3-56.3,30.6-84.4,45.9
					c2.2,0,4.3,0,6.5,0c-28.3-15.2-56.6-30.4-84.9-45.7c0,3.7,0,7.4,0,11.1c28.3-15.2,56.6-30.4,84.9-45.7
					c7.3-3.9,0.8-15.1-6.5-11.1c-28.3,15.2-56.6,30.4-84.9,45.7c-4.2,2.3-4.2,8.9,0,11.1c15.4,8.3,30.8,16.6,46.2,24.8
					c9.5,5.1,19,10.2,28.6,15.4c3.5,1.9,9.1,6.3,13.4,6.3c4.4,0,9.7-4.4,13.3-6.4c9.5-5.1,18.9-10.3,28.4-15.4
					c15.3-8.3,30.6-16.7,45.9-25c4.2-2.3,4.2-8.9,0-11.1c-28.1-15.1-56.3-30.3-84.4-45.4C475.9,260.8,469.3,271.9,476.7,275.9z"/>
				<path class="st6" d="M561.1,310.1c-28.2,15.3-56.4,30.6-84.6,45.9c-2,1.1-3.2,3.4-3.2,5.6c0,34,0.1,64.4,0.1,98.4
					c0,4.8,6.7,9.3,10.9,6.8c25-15.2,48.7-28.2,73.7-43.4c7.8-4.8,12.8-6.4,13-16.2c0.3-14.5,0-29.1,0-43.6c0-8.3-12.9-8.3-12.9,0
					c0,16.1,0,32.2,0,48.3c1.1-1.9,2.1-3.7,3.2-5.6c-28.2,17.2-55.8,32.8-84.1,50.1c3.2,1.9,5.9,5.3,9.1,7.2c0-34,0-67.9,0-101.9
					c-1.1,1.9-2.1,3.7-3.2,5.6c28.2-15.3,56.4-30.6,84.6-45.9C574.9,317.3,568.4,306.2,561.1,310.1L561.1,310.1z"/>
				<path class="st6" d="M391.8,321.3c28.2,15.3,56.4,30.6,84.6,45.9c-1.1-1.9-2.1-3.7-3.2-5.6c0,34,0,67.9,0,101.9
					c3.2-1.9,6.8-6,10.1-7.8c-28.2-17.2-58.2-29-86.4-46.2c1.1,1.9,3.5,0.5,4.6,2.4c0-32,0-64.1,0-96.1c0-8.3-12.9-8.3-12.9,0
					c0,17.4,0,34.9,0,52.3c0,10.8,0,21.6,0,32.3c0,4.5-1.3,13.2,1.3,17.1c2.5,3.8,7.5,7.1,11.1,9.4c9.5,5.8,15.6,8.3,29.6,15.9
					c15.4,8.3,27.5,14.7,45.6,24.3c4.4,2.3,9.9,0.1,9.9-4.7c0-34,0-66.7,0-100.7c0-2.2-1.2-4.5-3.2-5.6
					c-28.2-15.3-56.4-30.6-84.6-45.9C391,306.2,384.5,317.3,391.8,321.3z"/>
				<path class="st6" d="M476.4,367.2c12.5,6.6,24.9,13.3,37.4,19.7c9.2,4.7,12.7,1.9,21.4-2.8c25.4-13.8,48.8-26.5,74.2-40.3
					c4.1-2.2,4.5-9.4,0.1-11.5c-12.6-6.2-23.4-13.1-36-19.3c-9.5-4.7-12.7-2.7-21.7,2.1c-25.1,13.6-50.2,27.2-75.3,40.9
					c-7.3,4-0.8,15.1,6.5,11.1c28.2-15.3,56.4-30.6,84.6-45.9c-2.2,0-4.3,0-6.5,0c14.6,7.2,20.4,11.7,35,18.9c0-3.7,8.8-4.8,8.8-8.5
					c-28.7,15.6-57.4,31.1-86.1,46.7c2.2,0,4.3,0,6.5,0c-14.1-7.4-28.2-14.9-42.3-22.3C475.6,352.2,469.1,363.3,476.4,367.2z"/>
				<path class="st6" d="M399.8,310.4c-14.5-7.5-29-14.9-43.5-22.4c0,3.7,0,7.4,0,11.1c28.1-15.6,56.2-31.2,84.3-46.9
					c-2.2,0-4.3,0-6.5,0c14.2,7.9,28.4,15.7,42.6,23.6c0-3.7,0-7.4,0-11.1c-27.8,15.2-55.6,30.4-83.4,45.7c-7.3,4-0.8,15.1,6.5,11.1
					c27.8-15.2,55.6-30.4,83.4-45.7c4.2-2.3,4.2-8.8,0-11.1c-12.3-6.8-24.5-13.6-36.8-20.4c-9.4-5.2-12.6-3-21.5,2
					c-25,13.9-50,27.8-75.1,41.7c-4.1,2.3-4.3,8.9,0,11.1c14.5,7.5,29.1,15.8,43.6,23.2C400.8,326.2,407.2,314.2,399.8,310.4z"/>
				<g>
					<path class="st6" d="M416.8,385.6c11.7,6.3,23.4,12.7,35.2,19c7.3,3.9,13.4-7.4,6.1-11.3c-11.7-6.3-23.4-12.7-35.2-19
						C415.6,370.4,409.5,381.7,416.8,385.6L416.8,385.6z"/>
					<path class="st6" d="M430.8,369.8c0,13.2,0,26.4,0,39.6c0,8.2,12.8,8.2,12.8,0c0-13.2,0-26.4,0-39.6
						C443.6,361.6,430.8,361.6,430.8,369.8L430.8,369.8z"/>
				</g>
			</g>
		</g>
		<g class="st27">
			<line class="st28" x1="374.9" y1="207.1" x2="629.2" y2="342.8"/>
			<line class="st28" x1="349.2" y1="207.1" x2="629.2" y2="358"/>
			<line class="st28" x1="332" y1="275" x2="629.2" y2="433.9"/>
			<line class="st28" x1="332" y1="289.9" x2="629.2" y2="449.2"/>
			<line class="st28" x1="332" y1="325.5" x2="629.2" y2="484.3"/>
			<line class="st28" x1="332" y1="340.5" x2="629.2" y2="499.9"/>
			<line class="st28" x1="332" y1="375.4" x2="574" y2="504.2"/>
			<line class="st28" x1="332" y1="389.8" x2="545.5" y2="504.2"/>
			<line class="st28" x1="629.2" y1="381.3" x2="421.2" y2="504.2"/>
			<line class="st28" x1="629.2" y1="367.2" x2="394.7" y2="504.5"/>
			<line class="st28" x1="629.2" y1="287.8" x2="332" y2="450.8"/>
			<line class="st28" x1="629.2" y1="273.3" x2="332" y2="435.9"/>
			<line class="st28" x1="607.8" y1="207.1" x2="332" y2="358"/>
			<line class="st28" x1="583.1" y1="207.1" x2="332" y2="343.7"/>
			<line class="st28" x1="524.1" y1="207.1" x2="332" y2="312"/>
			<line class="st28" x1="498.1" y1="207.1" x2="332" y2="297.5"/>
			<line class="st28" x1="629.2" y1="332.6" x2="332" y2="495.3"/>
			<line class="st28" x1="629.2" y1="318.7" x2="332" y2="480.5"/>
			<line class="st28" x1="388.3" y1="207.1" x2="388.3" y2="504.2"/>
			<line class="st28" x1="401.1" y1="207.1" x2="401.1" y2="504.2"/>
			<line class="st28" x1="430.8" y1="207.1" x2="430.8" y2="504.2"/>
			<line class="st28" x1="443.6" y1="207.1" x2="443.6" y2="504.2"/>
			<line class="st28" x1="473.3" y1="207.1" x2="473.3" y2="504.2"/>
			<line class="st28" x1="486.1" y1="207.1" x2="486.1" y2="504.2"/>
			<line class="st28" x1="558.1" y1="207.1" x2="558.1" y2="504.2"/>
			<line class="st28" x1="570.9" y1="207.1" x2="570.9" y2="504.2"/>
		</g>
		<g>
			<g>
				<line class="st26" x1="474" y1="433.5" x2="487" y2="433.5"/>
				<g>
					<rect x="473" y="430" class="st3" width="1" height="6"/>
				</g>
				<g>
					<rect x="486" y="430" class="st3" width="1" height="6"/>
				</g>
			</g>
		</g>
		<g>
			<line class="st2" x1="433.7" y1="394.6" x2="440" y2="382.5"/>
			<g>
				<line class="st26" x1="433.9" y1="394.2" x2="439.8" y2="382.9"/>
				<g>
					
						<rect x="433.4" y="390.9" transform="matrix(-0.4634 0.8861 -0.8861 -0.4634 984.3159 192.3351)" class="st3" width="1" height="6.5"/>
				</g>
				<g>
					
						<rect x="439.3" y="379.7" transform="matrix(0.4634 -0.8861 0.8861 0.4634 -103.3247 595.2112)" class="st3" width="1" height="6.5"/>
				</g>
			</g>
		</g>
		<text transform="matrix(1 0 0 1 493.063 427.2085)"><tspan x="0" y="0" class="st13 st24 st29">1</tspan><tspan x="9" y="0" class="st13 st24 st30">x</tspan></text>
		<text transform="matrix(1 0 0 1 405.9053 362.5674)"><tspan x="0" y="0" class="st13 st24 st29">1</tspan><tspan x="9" y="0" class="st13 st24 st30">x</tspan></text>
	</g>
	<g>
		<g>
			<rect x="648.8" y="207.6" class="st0" width="296.7" height="296.7"/>
			<g class="st5">
				<path class="st6" d="M871.2,465.1L871.2,465.1c-8.1,0-15.9-2.9-22-8.1c-5.1-4.4-92.2-91.9-102.2-101.9c-1.5,0.1-2.9,0.2-4.4,0.2
					c-14.6,0-27.3-5.2-37.9-15.6c-8.4-8.2-13.5-18.2-15.3-29.8c-0.8-4.9-1.3-10.2,0-15.8c1.3-5.6,5.9-9.4,11.4-9.4
					c1.9,0,3.7,0.4,5.5,1.2c2.7,1.3,4.7,3.1,6.3,4.7l5.5,5.5c3.7,3.7,7.4,7.5,11.2,11.2c1,1,1.4,1.2,1.5,1.3c0.4,0,0.9,0.1,1.4,0.1
					c1.9,0,3.3-0.5,4.5-1.8c0.5-0.5,0.9-0.9,1.4-1.4c0.4-0.3,0.7-0.7,1.1-1.1c1.4-1.5,2.8-2.9,4.2-4.2c1.9-1.8,3.7-3.6,5.1-5.5
					c0.2-0.3,0.3-0.6,0.4-0.8c0.4-1.5,0.4-2.7-1.3-4.5c-0.5-0.5-2.7-2.8-5.5-5.5c-4.8-4.8-10.8-10.7-13.6-13.8
					c-3.7-4-5-8.8-3.7-13.5l0.2-0.6c2-5.2,6.3-8.2,12.8-8.9c5.2-0.5,10.6-0.3,15.9,0.8c14.5,3,26.2,10.8,34.5,23.1
					c4.4,6.5,7.2,13.8,8.6,22.4c0.6,4,1.1,8.6,0.4,13.5c13.1,13.8,92.9,94,98,98.9c11.5,11.2,13.9,28.6,5.9,42.3
					C894.7,458.6,883.4,465.1,871.2,465.1z M747.9,342.6c2.8,0,5.2,1,7.3,3.1c12.2,12.3,97.6,98,102,101.9c4,3.4,8.8,5.2,14,5.2
					c7.9,0,15-4.1,19-10.9c5.2-8.9,3.7-19.9-3.8-27.2c-1.4-1.4-26.9-26.9-51-51.2c-50.2-50.6-50.2-50.7-50.9-52.9l-0.3-1.2l0.4-3.1
					c0.9-3.6,0.5-7.4-0.1-11c-1.1-6.7-3.2-12.5-6.6-17.4c-6.6-9.7-15.4-15.6-26.8-18c-4.1-0.8-8.2-1.1-12.1-0.7
					c-1.6,0.2-2.1,0.4-2.3,0.7c0,0.3,0.2,0.7,0.9,1.5c2.7,2.9,8.9,9,13.4,13.4c4,4,5.5,5.5,6,6c4.3,4.8,5.7,10.5,3.9,16.4
					c-0.4,1.4-1.1,2.6-1.6,3.4l-0.5,0.8c-2.1,2.9-4.5,5.2-6.8,7.4c-1.2,1.2-2.4,2.3-3.6,3.6c-0.5,0.6-1.1,1.1-1.7,1.7
					c-0.3,0.3-0.6,0.6-1,0.9c-4.2,4.4-9.8,6.3-16.3,5.5c-4.5-0.5-7.4-3.4-8.8-4.8c-3.8-3.7-7.5-7.5-11.2-11.2l-5.5-5.5
					c-0.8-0.8-1.6-1.6-2.5-2.1c-0.6,3.3-0.4,6.6,0.3,10.7c1.4,8.9,5.3,16.6,11.7,22.8c9.2,9,20.5,13,33.4,11.9
					C747.2,342.6,747.6,342.6,747.9,342.6z M869.3,441.3c-6.3,0-11.4-5.1-11.4-11.3c0-6.2,5.1-11.3,11.4-11.3
					c6.3,0,11.4,5.1,11.4,11.3C880.7,436.2,875.5,441.3,869.3,441.3z"/>
			</g>
		</g>
		<text transform="matrix(1 0 0 1 667.4624 393.0264)"><tspan x="0" y="0" class="st13 st24 st31">1</tspan><tspan x="9" y="0" class="st13 st24 st32">x</tspan></text>
		<text transform="matrix(1 0 0 1 772.3203 361.3394)"><tspan x="0" y="0" class="st13 st24 st31">1</tspan><tspan x="9" y="0" class="st13 st24 st32">x</tspan></text>
		<text transform="matrix(1 0 0 1 827.3096 465.1245)"><tspan x="0" y="0" class="st13 st24 st31">1.5</tspan><tspan x="22.1" y="0" class="st13 st24 st32">x</tspan></text>
		<g class="st27">
			<line class="st28" x1="698.6" y1="207.6" x2="945.5" y2="456.2"/>
			<line class="st28" x1="680.9" y1="207.1" x2="945.5" y2="475.8"/>
			<line class="st28" x1="684.6" y1="207.6" x2="945.5" y2="470.5"/>
			<line class="st28" x1="667.5" y1="207.6" x2="945.5" y2="490"/>
			<line class="st28" x1="665.1" y1="207.6" x2="945.5" y2="492.2"/>
			<line class="st28" x1="648.8" y1="224.2" x2="928.2" y2="504.3"/>
			<line class="st28" x1="854.7" y1="207.6" x2="648.8" y2="412"/>
			<line class="st28" x1="837.2" y1="207.6" x2="648.8" y2="393"/>
			<line class="st28" x1="648.8" y1="240.1" x2="913.1" y2="504.3"/>
			<line class="st28" x1="648.8" y1="255.5" x2="895.8" y2="504.3"/>
			<line class="st28" x1="648.8" y1="227.4" x2="925.9" y2="504.3"/>
			<line class="st28" x1="648.8" y1="243.5" x2="908.2" y2="504.3"/>
			<circle class="st28" cx="743.4" cy="301" r="54.4"/>
			<circle class="st28" cx="743" cy="300.5" r="42.2"/>
		</g>
		<line class="st26" x1="861.3" y1="437.1" x2="876.7" y2="421.4"/>
		<line class="st26" x1="858.4" y1="434.7" x2="863.2" y2="439.6"/>
		<line class="st26" x1="874.3" y1="419.4" x2="879.1" y2="424.4"/>
		<g>
			<line class="st26" x1="680.9" y1="361.3" x2="690.4" y2="370.7"/>
			<line class="st26" x1="683.3" y1="358.9" x2="678.5" y2="363.8"/>
			<line class="st26" x1="692.9" y1="368.2" x2="688" y2="373.1"/>
		</g>
		<g>
			<line class="st26" x1="771.7" y1="330.8" x2="781.3" y2="340.2"/>
			<line class="st26" x1="774.1" y1="328.4" x2="769.3" y2="333.3"/>
			<line class="st26" x1="783.7" y1="337.7" x2="778.9" y2="342.6"/>
		</g>
	</g>
</g>
</svg>
