<?xml version="1.0" encoding="utf-8"?>
<!-- Generator: Adobe Illustrator 19.1.0, SVG Export Plug-In . SVG Version: 6.00 Build 0)  -->
<svg version="1.1" id="Layer_1" xmlns="http://www.w3.org/2000/svg" xmlns:xlink="http://www.w3.org/1999/xlink" x="0px" y="0px"
	 viewBox="0 0 1280 800" style="enable-background:new 0 0 1280 800;" xml:space="preserve">
<style type="text/css">
	.st0{opacity:0.15;fill:#F1F2F2;}
	.st1{fill:#4D4D4D;}
	.st2{fill:#FFFFFF;}
	.st3{fill:#F57C00;}
	.st4{fill:none;}
	.st5{fill:#FFFAF5;}
	.st6{font-family:'BloggerSans';}
	.st7{font-size:17.091px;}
	.st8{opacity:0.4;}
	.st9{fill:#808285;}
	.st10{opacity:0.8;fill:#4D4D4D;}
	.st11{fill:#FFFFFF;stroke:#FFFFFF;stroke-width:1.2;stroke-miterlimit:10;}
	.st12{fill:#F47B54;}
	.st13{opacity:0.8;fill:#F57C00;}
	.st14{fill:#FCDED4;}
	.st15{fill:#231F20;}
	.st16{fill:#58595B;}
	.st17{fill:#FFFFFF;stroke:#58595B;stroke-width:3.5;stroke-miterlimit:10;}
	.st18{fill:none;stroke:#FFFFFF;stroke-width:3.5;stroke-miterlimit:10;}
	.st19{fill-rule:evenodd;clip-rule:evenodd;fill:#58595B;stroke:#58595B;stroke-miterlimit:10;}
	.st20{fill-rule:evenodd;clip-rule:evenodd;fill:#FFFFFF;stroke:#FFFFFF;stroke-miterlimit:10;}
	.st21{fill:#58595B;stroke:#58595B;stroke-width:1.5;stroke-miterlimit:10;}
	.st22{fill:#58595B;stroke:#58595B;stroke-miterlimit:10;}
	.st23{fill:#FFFFFF;stroke:#FFFFFF;stroke-width:1.5;stroke-miterlimit:10;}
	.st24{fill:#FFFFFF;stroke:#FFFFFF;stroke-miterlimit:10;}
	.st25{fill:none;stroke:#58595B;stroke-width:3;stroke-miterlimit:10;}
	.st26{fill:none;stroke:#FFFFFF;stroke-width:3;stroke-miterlimit:10;}
	.st27{fill:none;stroke:#F57C00;stroke-miterlimit:10;}
	.st28{opacity:0.2;}
	.st29{fill:none;stroke:#231F20;stroke-miterlimit:10;}
	.st30{opacity:0.4;fill:#808285;}
	.st31{opacity:0.5;}
	.st32{opacity:0.4;fill:none;stroke:#231F20;stroke-miterlimit:10;}
	.st33{fill:#808285;stroke:#808285;stroke-width:5;stroke-miterlimit:10;}
	.st34{fill:#6D6E71;}
</style>
<rect class="st1" width="1280" height="800"/>
<g>
	<rect x="400.1" y="86.8" class="st1" width="224.7" height="626.5"/>
	<rect x="657.5" y="86.9" class="st1" width="224.7" height="626.4"/>
	<rect x="913.1" y="86.8" class="st1" width="224.7" height="626.5"/>
	<rect x="142.2" y="86.8" class="st1" width="224.7" height="626.5"/>
</g>
<g>
	<g>
		<path class="st2" d="M843.1,471.7c-0.3,10.1-8.2,18.6-18.6,18.6c-10.2,0-18.5-8.5-18.6-18.6c-0.1-9.9,8.1-18.2,18-18.6
			C834.5,452.8,842.7,461.4,843.1,471.7c0.1,2,3.1,2,3.1,0c-0.6-19.7-25.7-29.4-38.5-13.6c-12.3,15.1,1.1,38,20.3,35
			c10.6-1.7,17.9-10.9,18.2-21.4C846.2,469.7,843.1,469.7,843.1,471.7z"/>
	</g>
	<g>
		<path class="st2" d="M817.6,467c3.9,3.9,7.7,7.7,11.6,11.6c1.4,1.4,3.6-0.8,2.2-2.2c-3.9-3.9-7.7-7.7-11.6-11.6
			C818.4,463.4,816.2,465.6,817.6,467L817.6,467z"/>
		<path class="st2" d="M829.2,464.8c-3.9,3.9-7.7,7.7-11.6,11.6c-1.4,1.4,0.8,3.6,2.2,2.2c3.9-3.9,7.7-7.7,11.6-11.6
			C832.8,465.6,830.6,463.4,829.2,464.8L829.2,464.8z"/>
	</g>
</g>
<g>
	<g>
		<path class="st2" d="M840.8,166.1h-32.6c-2.7,0-4.9,2.2-4.9,4.9v35.2c0,2.7,2.2,4.9,4.9,4.9h32.6c2.7,0,4.9-2.2,4.9-4.9V171
			C845.7,168.3,843.5,166.1,840.8,166.1L840.8,166.1z M833.8,168.5v15.4h-18.4v-15.4H833.8z M818.9,208.7v-11.8h11.2v11.8H818.9z
			 M843.3,206.2c0,1.3-1.1,2.4-2.4,2.4h-8.2v-13c0-0.7-0.5-1.2-1.2-1.2h-13.6c-0.7,0-1.2,0.5-1.2,1.2v13h-8.2
			c-1.3,0-2.4-1.1-2.4-2.4V171c0-1.3,1.1-2.4,2.4-2.4h4.6v16.6c0,0.7,0.5,1.2,1.2,1.2H835c0.7,0,1.2-0.5,1.2-1.2v-16.6h4.6
			c1.3,0,2.4,1.1,2.4,2.4V206.2z M843.3,206.2"/>
		<path class="st2" d="M840.8,211.2h-32.6c-2.8,0-5-2.3-5-5V171c0-2.8,2.3-5,5-5h32.6c2.8,0,5,2.3,5,5v35.2
			C845.8,209,843.6,211.2,840.8,211.2z M808.2,166.2c-2.6,0-4.8,2.1-4.8,4.8v35.2c0,2.6,2.1,4.8,4.8,4.8h32.6c2.6,0,4.8-2.1,4.8-4.8
			V171c0-2.6-2.1-4.8-4.8-4.8H808.2z M840.8,208.8h-8.4v-13.2c0-0.6-0.5-1.1-1.1-1.1h-13.6c-0.6,0-1.1,0.5-1.1,1.1v13.2h-8.4
			c-1.4,0-2.6-1.2-2.6-2.6V171c0-1.4,1.2-2.6,2.6-2.6h4.8v16.7c0,0.6,0.5,1.1,1.1,1.1H835c0.6,0,1.1-0.5,1.1-1.1v-16.7h4.8
			c1.4,0,2.6,1.2,2.6,2.6v35.2C843.4,207.6,842.2,208.8,840.8,208.8z M832.7,208.5h8.1c1.3,0,2.3-1,2.3-2.3V171c0-1.3-1-2.3-2.3-2.3
			h-4.5v16.5c0,0.7-0.6,1.4-1.4,1.4h-20.9c-0.7,0-1.4-0.6-1.4-1.4v-16.5h-4.5c-1.3,0-2.3,1-2.3,2.3v35.2c0,1.3,1,2.3,2.3,2.3h8.1
			v-12.9c0-0.7,0.6-1.4,1.4-1.4h13.6c0.7,0,1.4,0.6,1.4,1.4V208.5z M830.3,208.8h-11.5v-12.1h11.5V208.8z M819.1,208.5H830V197
			h-10.9V208.5z M833.9,184h-18.7v-15.7h18.7V184z M815.4,183.8h18.2v-15.1h-18.2V183.8z"/>
	</g>
	<g>
		<path class="st2" d="M818.1,181.7h13c0.7,0,1.2-0.5,1.2-1.2c0-0.7-0.5-1.2-1.2-1.2h-13c-0.7,0-1.2,0.5-1.2,1.2
			C816.8,181.2,817.4,181.7,818.1,181.7L818.1,181.7z M818.1,181.7"/>
		<path class="st2" d="M831,181.9h-13c-0.7,0-1.4-0.6-1.4-1.4c0-0.7,0.6-1.4,1.4-1.4h13c0.7,0,1.4,0.6,1.4,1.4
			C832.4,181.2,831.8,181.9,831,181.9z M818.1,179.4c-0.6,0-1.1,0.5-1.1,1.1s0.5,1.1,1.1,1.1h13c0.6,0,1.1-0.5,1.1-1.1
			s-0.5-1.1-1.1-1.1H818.1z"/>
	</g>
	<g>
		<path class="st2" d="M818.1,177.4h13c0.7,0,1.2-0.5,1.2-1.2c0-0.7-0.5-1.2-1.2-1.2h-13c-0.7,0-1.2,0.5-1.2,1.2
			C816.8,176.9,817.4,177.4,818.1,177.4L818.1,177.4z M818.1,177.4"/>
		<path class="st2" d="M831,177.6h-13c-0.7,0-1.4-0.6-1.4-1.4c0-0.7,0.6-1.4,1.4-1.4h13c0.7,0,1.4,0.6,1.4,1.4
			C832.4,177,831.8,177.6,831,177.6z M818.1,175.1c-0.6,0-1.1,0.5-1.1,1.1c0,0.6,0.5,1.1,1.1,1.1h13c0.6,0,1.1-0.5,1.1-1.1
			c0-0.6-0.5-1.1-1.1-1.1H818.1z"/>
	</g>
	<g>
		<path class="st2" d="M818.1,173.2h13c0.7,0,1.2-0.5,1.2-1.2c0-0.7-0.5-1.2-1.2-1.2h-13c-0.7,0-1.2,0.5-1.2,1.2
			C816.8,172.6,817.4,173.2,818.1,173.2L818.1,173.2z M818.1,173.2"/>
		<path class="st2" d="M831,173.3h-13c-0.7,0-1.4-0.6-1.4-1.4c0-0.7,0.6-1.4,1.4-1.4h13c0.7,0,1.4,0.6,1.4,1.4
			C832.4,172.7,831.8,173.3,831,173.3z M818.1,170.9c-0.6,0-1.1,0.5-1.1,1.1s0.5,1.1,1.1,1.1h13c0.6,0,1.1-0.5,1.1-1.1
			s-0.5-1.1-1.1-1.1H818.1z"/>
	</g>
	<g>
		<path class="st2" d="M827.7,198.1c-0.7,0-1.2,0.5-1.2,1.2v3.5c0,0.7,0.5,1.2,1.2,1.2c0.7,0,1.2-0.5,1.2-1.2v-3.5
			C829,198.6,828.4,198.1,827.7,198.1L827.7,198.1z M827.7,198.1"/>
		<path class="st2" d="M827.7,204.1c-0.7,0-1.4-0.6-1.4-1.4v-3.5c0-0.7,0.6-1.4,1.4-1.4c0.7,0,1.4,0.6,1.4,1.4v3.5
			C829.1,203.5,828.5,204.1,827.7,204.1z M827.7,198.2c-0.6,0-1.1,0.5-1.1,1.1v3.5c0,0.6,0.5,1.1,1.1,1.1c0.6,0,1.1-0.5,1.1-1.1
			v-3.5C828.8,198.7,828.3,198.2,827.7,198.2z"/>
	</g>
</g>
<g>
	<g>
		<path class="st2" d="M843.1,617.1c-0.3,10.1-8.2,18.6-18.6,18.6c-10.2,0-18.5-8.5-18.6-18.6c-0.1-9.9,8.1-18.2,18-18.6
			C834.5,598.2,842.7,606.7,843.1,617.1c0.1,2,3.1,2,3.1,0c-0.6-19.7-25.7-29.4-38.5-13.6c-12.3,15.1,1.1,38,20.3,35
			c10.6-1.7,17.9-10.9,18.2-21.4C846.2,615.1,843.1,615.1,843.1,617.1z"/>
	</g>
	<g>
		<g>
			<path class="st2" d="M823.6,623.2c-0.8,0.8-2.2,0.8-3,0l-4.6-4.6c-0.8-0.8-0.8-2.2,0-3c0.8-0.8,2.2-0.8,3,0l2.7,2.7
				c0.2,0.2,0.5,0.2,0.8,0l7.4-7.4c0.8-0.8,2.2-0.8,3,0c0.4,0.4,0.6,0.9,0.6,1.5c0,0.6-0.2,1.1-0.6,1.5L823.6,623.2z M823.6,623.2"
				/>
		</g>
	</g>
</g>
<path class="st2" d="M824.5,353.9c-0.9,0-1.8-0.4-2.4-1.1L808.4,337c-0.8-0.9-1-2.2-0.5-3.4s1.6-1.8,2.9-1.8h5.1v-19.9
	c0-2,1.7-3.7,3.7-3.7h10c2,0,3.7,1.7,3.7,3.7l0,19.9h5.1c1.2,0,2.3,0.7,2.9,1.8c0.5,1.1,0.3,2.4-0.5,3.4l-13.8,15.8
	C826.3,353.6,825.4,353.9,824.5,353.9z M810.7,335l13.8,15.8c0,0,0,0,0,0l13.8-15.8l0-0.1h-8.2l0.1-23c0-0.3-0.3-0.6-0.6-0.6h-10
	c-0.3,0-0.6,0.3-0.6,0.6v23L810.7,335l-1.2,1L810.7,335z"/>
<g>
	<g>
		<path class="st2" d="M1095.8,196.7c-0.3,0-0.7-0.1-0.9-0.4c-0.5-0.5-0.5-1.3,0-1.8l4.6-4.6h-18.3c-0.7,0-1.3-0.6-1.3-1.3
			c0-0.7,0.6-1.3,1.3-1.3h18.3l-4.5-4.6c-0.5-0.5-0.5-1.3,0-1.8c0.5-0.5,1.3-0.5,1.8,0l6.8,6.8c0.2,0.2,0.4,0.6,0.4,0.9
			c0,0.3-0.1,0.7-0.4,0.9l-6.8,6.8C1096.4,196.6,1096.1,196.7,1095.8,196.7L1095.8,196.7z M1095.8,196.7"/>
		<path class="st2" d="M1095.8,197c-0.4,0-0.8-0.2-1.1-0.5c-0.6-0.6-0.6-1.6,0-2.3l4.1-4.1h-17.6c-0.9,0-1.6-0.7-1.6-1.6
			c0-0.9,0.7-1.6,1.6-1.6h17.5l-4-4.1c-0.6-0.6-0.6-1.6,0-2.2c0.6-0.6,1.6-0.6,2.2,0l6.8,6.8c0.3,0.3,0.5,0.7,0.5,1.1
			c0,0.4-0.2,0.8-0.5,1.1l-6.8,6.8C1096.6,196.8,1096.2,197,1095.8,197z M1081.1,187.6c-0.5,0-1,0.4-1,1s0.4,1,1,1h19.1l-5.1,5.1
			c-0.4,0.4-0.4,1,0,1.4c0.4,0.4,1,0.4,1.4,0l6.8-6.8c0.2-0.2,0.3-0.4,0.3-0.7s-0.1-0.5-0.3-0.7l-6.8-6.8c-0.4-0.4-1-0.4-1.4,0
			c-0.4,0.4-0.4,1,0,1.4l5.1,5.1H1081.1z"/>
	</g>
	<g>
		<path class="st2" d="M1093.5,210.4h-25c-0.7,0-1.3-0.6-1.3-1.3V168c0-0.7,0.6-1.3,1.3-1.3h25c0.7,0,1.3,0.6,1.3,1.3v7.5
			c0,0.7-0.6,1.3-1.3,1.3s-1.3-0.6-1.3-1.3v-6.2h-22.4v38.6h22.4v-6.2c0-0.7,0.6-1.3,1.3-1.3s1.3,0.6,1.3,1.3v7.5
			C1094.8,209.9,1094.2,210.4,1093.5,210.4L1093.5,210.4z M1093.5,210.4"/>
		<path class="st2" d="M1093.5,210.8h-25c-0.9,0-1.6-0.7-1.6-1.6V168c0-0.9,0.7-1.6,1.6-1.6h25c0.9,0,1.6,0.7,1.6,1.6v7.5
			c0,0.9-0.7,1.6-1.6,1.6c-0.9,0-1.6-0.7-1.6-1.6v-5.9h-21.8v37.9h21.8v-5.9c0-0.9,0.7-1.6,1.6-1.6c0.9,0,1.6,0.7,1.6,1.6v7.5
			C1095.1,210,1094.4,210.8,1093.5,210.8z M1068.5,167.1c-0.5,0-1,0.4-1,1v41.1c0,0.5,0.4,1,1,1h25c0.5,0,1-0.4,1-1v-7.5
			c0-0.5-0.4-1-1-1c-0.5,0-1,0.4-1,1v6.5h-23V169h23v6.5c0,0.5,0.4,1,1,1c0.5,0,1-0.4,1-1V168c0-0.5-0.4-1-1-1H1068.5z"/>
	</g>
</g>
<g>
	<path class="st2" d="M1064.7,319c13.9,0,27.8,0,41.7,0c2.6,0,2.6-4,0-4c-13.9,0-27.8,0-41.7,0C1062.1,315.1,1062.1,319,1064.7,319
		L1064.7,319z"/>
	<path class="st2" d="M1064.7,333.1c13.9,0,27.8,0,41.7,0c2.6,0,2.6-4,0-4c-13.9,0-27.8,0-41.7,0
		C1062.1,329.1,1062.1,333.1,1064.7,333.1L1064.7,333.1z"/>
	<path class="st2" d="M1064.7,347.1c13.9,0,27.8,0,41.7,0c2.6,0,2.6-4,0-4c-13.9,0-27.8,0-41.7,0
		C1062.1,343.2,1062.1,347.1,1064.7,347.1L1064.7,347.1z"/>
</g>
<g>
	<polygon class="st2" points="573,169.6 573,169.6 573,169.6 	"/>
	<path class="st2" d="M545.8,212.9c0.6,0.1,1.2-0.1,1.7-0.6l14.1-14.3l0.9,0.6c2.5,1.7,5.4,2.8,8.3,3.1c0.7,0.1,1.5,0.1,2.2,0.1
		l0.1,0c5,0,9.8-2,13.3-5.6c3.5-3.6,5.5-8.3,5.4-13.4c-0.1-9.5-7.2-17.5-16.6-18.6c-0.7-0.1-1.5-0.1-2.2-0.1l-0.1,0
		c-5,0-9.7,2-13.3,5.6c-3.5,3.6-5.5,8.3-5.4,13.4c0,4.1,1.3,7.9,3.8,11.2l0.7,0.9l-14,14.2c-0.4,0.4-0.6,0.9-0.6,1.4
		c0,0.5,0.2,1,0.6,1.4C544.9,212.7,545.3,212.9,545.8,212.9z M558.2,183.2c0-4,1.5-7.7,4.3-10.5c2.8-2.8,6.5-4.4,10.5-4.4l0.1,0
		c0.6,0,1.2,0,1.8,0.1c7.4,0.9,13,7.2,13.1,14.6c0,4-1.5,7.7-4.3,10.5c-2.8,2.8-6.5,4.4-10.5,4.4l-0.1,0c-0.6,0-1.2,0-1.8-0.1
		C563.8,196.9,558.2,190.7,558.2,183.2z"/>
</g>
<path class="st2" d="M567.9,357.4c-2.5,0-5-1.7-6-4c-0.4-0.9-0.9-1.7-1.6-2.3c-0.4-0.4-0.8-0.5-1.4-0.5c-0.9,0-1.6,0.1-2.2,0.4
	c-0.8,0.4-1.7,0.6-2.7,0.6c-3,0-6.1-2-6.5-5.9c-0.1-1.1,0.1-2.2,0.5-3.2c0.3-0.8,0.5-1.6,0.5-2.5c0-0.6-0.2-1-0.7-1.5
	c-0.6-0.5-1.2-1-2-1.3c-2.3-1-3.7-2.9-4-5.4c-0.3-2.7,1.4-5.5,3.9-6.6c1.2-0.5,2-1.1,2.6-1.9c0.2-0.2,0.2-0.5,0.3-0.8
	c0.1-1-0.1-1.9-0.4-2.7c-0.8-1.8-0.7-4.1,0.3-5.9c1-1.8,2.8-2.9,4.9-3.1c1.2-0.1,2.3,0,3.3,0.5c0.9,0.4,1.8,0.5,2.8,0.4
	c0.3,0,0.8-0.2,1.4-0.9c0.5-0.5,0.8-1.1,1.1-1.8c1-2.4,3.5-4.1,6-4.1c2.6,0,5,1.7,6,4.1c0.4,0.9,0.8,1.6,1.5,2.2
	c0.4,0.4,0.9,0.5,1.5,0.5c0.9,0,1.6-0.2,2.3-0.5c2.4-1,5.4-0.5,7.2,1.3c1.9,1.9,2.4,4.8,1.4,7.2c-0.3,0.7-0.5,1.5-0.5,2.3
	c0,0.5,0.1,1.2,1,1.9c0.5,0.4,1.1,0.8,1.8,1.1c2.4,1,4.1,3.5,4.1,6c0,2.6-1.7,5-4.1,6c-0.9,0.4-1.6,0.9-2.2,1.5
	c-0.4,0.4-0.5,0.8-0.5,1.5c0,0.8,0.2,1.6,0.5,2.3c1,2.4,0.7,4.8-1,6.8c-1.2,1.5-2.9,2.3-5,2.3l0,0c-0.4,0-0.9,0-1.3-0.1
	c-0.6-0.1-1.1-0.3-1.5-0.5c-0.2-0.1-0.4-0.2-0.5-0.2c-0.7-0.2-1.4-0.3-2.1-0.2c-0.3,0-0.7,0.1-1.3,0.7c-0.5,0.6-1,1.2-1.3,2
	C573,355.7,570.5,357.4,567.9,357.4L567.9,357.4z M558.9,346.9c1.5,0,2.9,0.5,3.9,1.5c1.1,1,1.9,2.2,2.5,3.6c0.4,1,1.6,1.8,2.6,1.8
	v1.8l0-1.8c1.1,0,2.2-0.8,2.6-1.8c0.5-1.3,1.2-2.3,2-3.2c1.1-1.1,2.3-1.7,3.6-1.8c1.2-0.1,2.3,0,3.4,0.3c0.3,0.1,0.6,0.2,0.9,0.3
	c0.3,0.1,0.5,0.2,0.6,0.2c1.3,0.2,2.2-0.1,2.9-0.9c0.8-1,0.9-2,0.4-3.1c-0.5-1.1-0.7-2.4-0.7-3.6c0-1.6,0.5-2.9,1.5-4
	c1-1.1,2.2-1.9,3.5-2.4c1-0.4,1.8-1.6,1.8-2.7c0-1.1-0.8-2.2-1.8-2.7c-1.1-0.4-2-1-2.8-1.7c-1.6-1.3-2.3-3-2.3-4.8
	c0-1.3,0.3-2.5,0.8-3.6c0.5-1.1,0.2-2.5-0.6-3.3c-0.8-0.8-2.2-1-3.3-0.5c-1.1,0.5-2.4,0.7-3.7,0.8h0c-1.6,0-2.9-0.5-4-1.5
	c-1-1-1.8-2.1-2.4-3.4c-0.4-1.1-1.6-1.9-2.7-1.9c-1.1,0-2.2,0.8-2.7,1.9c-0.4,1.1-1,2-1.8,2.9c-0.7,0.8-1.9,1.9-3.8,2.1
	c-1.6,0.1-3.1-0.1-4.5-0.7c-0.5-0.2-1-0.3-1.5-0.2c-1.2,0.1-1.8,0.8-2.1,1.3c-0.5,0.8-0.5,1.8-0.2,2.6c0.6,1.4,0.9,2.9,0.8,4.5
	c-0.1,1-0.4,1.8-1,2.6c-1,1.3-2.3,2.4-4.1,3.1c-1.1,0.4-1.9,1.7-1.7,2.8c0.2,1.3,0.7,2.1,1.8,2.5c1.2,0.5,2.3,1.2,3.2,2.1
	c1.2,1.2,1.8,2.5,1.8,4.1c0,1.4-0.2,2.8-0.8,4c-0.2,0.4-0.3,0.9-0.2,1.4c0.2,2,1.9,2.6,2.9,2.6c0.4,0,0.8-0.1,1.1-0.2
	C556.2,347.2,557.5,346.9,558.9,346.9z M567.9,341.9c-2.9,0-5.6-1.1-7.7-3.2c-2-2-3.2-4.8-3.1-7.6c0-5.9,4.9-10.8,10.8-10.8h0
	c2.9,0,5.6,1.1,7.6,3.2c2,2.1,3.2,4.8,3.1,7.6C578.7,337.1,573.8,341.9,567.9,341.9z M567.9,322.1v1.8c-3.9,0-7.1,3.2-7.2,7.1
	c0,1.9,0.7,3.7,2.1,5.1c1.4,1.4,3.2,2.1,5.1,2.1c3.9,0,7.2-3.2,7.2-7.1c0-1.9-0.7-3.7-2.1-5.1c-1.4-1.4-3.2-2.1-5.1-2.1L567.9,322.1
	z"/>
<g>
	<g>
		<path class="st2" d="M316.5,588.2h-13.8c-2.5,0-4.5,2-4.5,4.5v2.2c0,0.6-0.5,1-1,1h-13.8c-2.5,0-4.5,2-4.5,4.5v33.2
			c0,2.5,2,4.5,4.5,4.5h52.5c2.5,0,4.5-2,4.5-4.5v-34c0-2-1.6-3.6-3.7-3.6H322c-0.6,0-1-0.5-1-1v-2.2
			C321,590.2,319,588.2,316.5,588.2z M301.7,592.7c0-0.6,0.5-1,1-1h13.8c0.6,0,1,0.5,1,1v2.2c0,0.6-0.5,1-1,1h-13.8
			c-0.6,0-1-0.5-1-1V592.7z M336.9,633.6c0,0.6-0.5,1-1,1h-52.5c-0.6,0-1-0.5-1-1V612c0-0.6,0.5-1,1-1h52.5c0.6,0,1,0.5,1,1V633.6z
			 M335.9,599.3c0.6,0,1,0.5,1,1v6.1c0,0.6-0.5,1-1,1h-52.5c-0.6,0-1-0.5-1-1v-6.1c0-0.6,0.5-1,1-1H335.9z"/>
	</g>
	<path class="st2" d="M293.8,613.1h-1c-0.7,0-1.2-0.5-1.2-1.2v-5c0-0.7,0.5-1.2,1.2-1.2h1c0.7,0,1.2,0.5,1.2,1.2v5
		C295,612.6,294.4,613.1,293.8,613.1z"/>
	<path class="st2" d="M326.7,613.1h-1c-0.7,0-1.2-0.5-1.2-1.2v-5c0-0.7,0.5-1.2,1.2-1.2h1c0.7,0,1.2,0.5,1.2,1.2v5
		C327.9,612.6,327.4,613.1,326.7,613.1z"/>
</g>
<g>
	<path class="st2" d="M585.9,471.8c-0.3,9.8-7.9,17.9-17.9,17.9c-9.8,0-17.9-8.2-17.9-17.9c0-9.6,7.8-17.6,17.3-17.9
		C577.5,453.5,585.5,461.8,585.9,471.8c0.1,2,3.2,2,3.2,0c-0.4-11.5-9.3-21.1-21.1-21.1c-11.5,0-21.1,9.6-21.1,21.1
		c0,11.5,9.6,21.1,21.1,21.1c11.8,0,20.8-9.6,21.1-21.1C589.1,469.7,585.9,469.7,585.9,471.8z"/>
	<path class="st2" d="M584.8,463.8c4.2,0.9,9.5,1.8,12.9,4.7c3.2,2.7,0.4,4.9-2.4,6.3c-8.1,4.2-18.5,4.7-27.4,4.7
		c-8.8,0-18.9-0.6-27-4.5c-2.4-1.2-5.8-3.2-3.4-6c2.8-3.3,8.9-4.3,12.9-5.1c2-0.4,1.2-3.5-0.8-3.1c-4.9,1-21.5,5.5-14.7,13.8
		c2.7,3.3,7.7,4.7,11.7,5.7c6.9,1.8,14.2,2.4,21.4,2.4c7.1,0,14.4-0.6,21.4-2.4c3.9-1,8.9-2.5,11.7-5.7c7-8.4-10.5-12.9-15.3-13.9
		C583.6,460.4,582.8,463.4,584.8,463.8L584.8,463.8z"/>
</g>
<g>
	<path class="st2" d="M591.9,613.1c-0.3,13.1-10.7,24-24,24c-13.1,0-24-10.9-24-24c0-13.1,10.9-24.1,24-24
		C581.2,589.1,591.6,600,591.9,613.1c0,2,3.1,2,3.1,0c-0.3-11.2-6.9-21.3-17.5-25.3c-10.8-4.1-23.4-0.7-30.6,8.3
		c-7.1,8.8-8,21.4-2.2,31.1c5.8,9.6,17.3,14.7,28.3,12.6c12.8-2.4,21.7-13.8,22-26.6C595,611.1,592,611.1,591.9,613.1z"/>
	<g>
		<g>
			<path class="st2" d="M569.2,619.1v-4.6l0.6-0.5c0.2-0.2,0.6-0.5,1.1-0.8c1.9-1.3,4.5-3.1,4.5-7.5c0-4.1-3.3-7.4-7.4-7.4
				s-7.4,3.3-7.4,7.4c0,0.7,0.6,1.3,1.3,1.3c0.7,0,1.3-0.6,1.3-1.3c0-2.7,2.2-4.9,4.9-4.9c2.7,0,4.9,2.2,4.9,4.9
				c0,3.1-1.7,4.2-3.3,5.4c-1.6,1.1-2.8,2.1-2.8,3.9v4.2c0,0.7,0.6,1.3,1.3,1.3C568.6,620.4,569.2,619.8,569.2,619.1z"/>
			<path class="st2" d="M567.9,620.8c-1,0-1.7-0.8-1.7-1.7v-4.2c0-2,1.3-3.1,3-4.2c1.6-1.1,3.1-2.2,3.1-5c0-2.4-2-4.4-4.4-4.4
				c-2.4,0-4.4,2-4.4,4.4c0,1-0.8,1.7-1.7,1.7c-1,0-1.7-0.8-1.7-1.7c0-4.3,3.5-7.9,7.9-7.9c4.3,0,7.9,3.5,7.9,7.9
				c0,4.7-2.8,6.6-4.7,7.9c-0.5,0.4-0.9,0.6-1.1,0.8l-0.4,0.3v4.4C569.6,620,568.9,620.8,567.9,620.8z M567.9,600.4
				c2.9,0,5.3,2.4,5.3,5.3c0,3.3-1.9,4.6-3.5,5.7c-1.6,1.1-2.6,1.9-2.6,3.5v4.2c0,0.5,0.4,0.9,0.9,0.9c0.5,0,0.9-0.4,0.9-0.9v-4.8
				l0.7-0.6c0.2-0.2,0.6-0.5,1.2-0.9c1.9-1.3,4.3-2.9,4.3-7.1c0-3.9-3.1-7-7-7c-3.9,0-7,3.1-7,7c0,0.5,0.4,0.9,0.9,0.9
				c0.5,0,0.9-0.4,0.9-0.9C562.6,602.8,565,600.4,567.9,600.4z"/>
		</g>
		<circle class="st2" cx="567.9" cy="625.7" r="2.1"/>
	</g>
</g>
<g>
	<path class="st2" d="M308.5,163.7c8.3,4.5,16.6,8.9,24.9,13.4c0-1.1,0-2.2,0-3.3c-8.3,4.5-16.6,9-24.9,13.5c0.6,0,1.3,0,1.9,0
		c-8.3-4.5-16.7-9-25-13.5c0,1.1,0,2.2,0,3.3c8.3-4.5,16.7-9,25-13.5c2.2-1.2,0.2-4.5-1.9-3.3c-8.3,4.5-16.7,9-25,13.5
		c-1.2,0.7-1.2,2.6,0,3.3c4.5,2.4,9.1,4.9,13.6,7.3c2.8,1.5,5.6,3,8.4,4.5c1,0.6,2.7,1.9,4,1.9c1.3,0,2.9-1.3,3.9-1.9
		c2.8-1.5,5.6-3,8.4-4.6c4.5-2.5,9-4.9,13.5-7.4c1.2-0.7,1.2-2.6,0-3.3c-8.3-4.5-16.6-8.9-24.9-13.4
		C308.2,159.2,306.3,162.5,308.5,163.7z"/>
	<path class="st2" d="M333.4,173.8c-8.3,4.5-16.6,9-25,13.5c-0.6,0.3-0.9,1-0.9,1.6c0,10,0,20,0,30c0,1.4,1.6,2.4,2.9,1.6
		c7.4-4.5,14.7-9,22.1-13.5c2.3-1.4,3.8-1.9,3.8-4.8c0.1-4.3,0-8.6,0-12.9c0-2.5-3.8-2.5-3.8,0c0,4.8,0,9.5,0,14.3
		c0.3-0.5,0.6-1.1,0.9-1.6c-8.3,5.1-16.6,10.2-25,15.2c1,0.5,1.9,1.1,2.9,1.6c0-10,0-20,0-30c-0.3,0.5-0.6,1.1-0.9,1.6
		c8.3-4.5,16.6-9,25-13.5C337.4,175.9,335.5,172.6,333.4,173.8L333.4,173.8z"/>
	<path class="st2" d="M283.4,177.1c8.3,4.5,16.6,9,25,13.5c-0.3-0.5-0.6-1.1-0.9-1.6c0,10,0,20,0,30c1-0.5,1.9-1.1,2.9-1.6
		c-8.3-5.1-16.6-10.2-25-15.2c0.3,0.5,0.6,1.1,0.9,1.6c0-9.5,0-18.9,0-28.4c0-2.5-3.8-2.5-3.8,0c0,5.1,0,10.3,0,15.4
		c0,3.2,0,6.4,0,9.5c0,1.3-0.4,3.4,0.4,4.5c0.7,1.1,2.8,1.9,3.9,2.6c2.8,1.7,5.6,3.4,8.4,5.1c4.4,2.7,8.8,5.4,13.2,8.1
		c1.2,0.8,2.9-0.2,2.9-1.6c0-10,0-20,0-30c0-0.7-0.4-1.3-0.9-1.6c-8.3-4.5-16.6-9-25-13.5C283.2,172.6,281.3,175.9,283.4,177.1z"/>
	<path class="st2" d="M308.4,190.6c3.7,1.9,7.3,3.9,11,5.8c2.7,1.4,3.8,0.6,6.3-0.8c7.5-4.1,15-8.1,22.5-12.2c1.2-0.7,1.3-2.7,0-3.3
		c-3.7-1.8-7.4-3.7-11.2-5.5c-2.8-1.4-3.8-0.8-6.4,0.6c-7.4,4-14.8,8-22.2,12.1c-2.2,1.2-0.2,4.5,1.9,3.3c8.3-4.5,16.6-9,25-13.5
		c-0.6,0-1.3,0-1.9,0c4.3,2.1,8.6,4.2,12.9,6.3c0-1.1,0-2.2,0-3.3c-8.5,4.6-16.9,9.2-25.4,13.8c0.6,0,1.3,0,1.9,0
		c-4.2-2.2-8.3-4.4-12.5-6.6C308.1,186.2,306.2,189.5,308.4,190.6z"/>
	<path class="st2" d="M285.8,173.9c-4.3-2.2-8.6-4.4-12.8-6.6c0,1.1,0,2.2,0,3.3c8.3-4.6,16.6-9.2,24.9-13.8c-0.6,0-1.3,0-1.9,0
		c4.2,2.3,8.4,4.6,12.6,6.9c0-1.1,0-2.2,0-3.3c-8.2,4.5-16.4,9-24.6,13.5c-2.2,1.2-0.2,4.5,1.9,3.3c8.2-4.5,16.4-9,24.6-13.5
		c1.2-0.7,1.2-2.6,0-3.3c-3.6-2-7.2-4-10.9-6c-2.8-1.5-3.7-0.9-6.4,0.6c-7.4,4.1-14.8,8.2-22.1,12.3c-1.2,0.7-1.3,2.6,0,3.3
		c4.3,2.2,8.6,4.4,12.8,6.6C286,178.3,288,175,285.8,173.9z"/>
	<g>
		<path class="st2" d="M291.6,196.1c2.9,1.7,5.9,3.4,8.8,5c1.8,1,3.5-1.8,1.6-2.8c-2.9-1.7-5.9-3.4-8.8-5
			C291.4,192.2,289.8,195.1,291.6,196.1L291.6,196.1z"/>
		<path class="st2" d="M295.2,192.1c0,3.4,0,6.8,0,10.2c0,2.1,3.3,2.1,3.3,0c0-3.4,0-6.8,0-10.2C298.5,190,295.2,190,295.2,192.1
			L295.2,192.1z"/>
	</g>
</g>
<g>
	<g>
		<g>
			<path class="st2" d="M332,340.1c5.8-10.8,1.2-25.2-10.7-32.7c-6-3.8-13.1-5-20-3.4c-6.9,1.6-12.7,5.7-16.5,11.8
				c-3.8,6-5,13.1-3.4,20c1.6,6.9,5.7,12.7,11.8,16.5c1.3,0.8,3.3,0.4,4.1-0.9c0.5-0.8,0.6-1.3,0.4-2l0-0.2l0-0.2
				c0-1.2-0.1-2.7,0.9-4.2c1.8-2.9,5.9-3.9,8.8-2l4.8,3c4,2.5,8.6,2.8,12.6,1.2l2.8,2.4c-5.3,2.8-11.8,2.7-17.2-0.7l-4.8-3
				c-1.3-0.8-3.3-0.4-4.1,1c-0.4,0.6-0.4,1.2-0.4,2.2c0.3,1.6,0.1,3-0.9,4.4c-1.8,2.9-5.9,3.8-8.8,2c-6.8-4.3-11.5-10.9-13.3-18.6
				c-1.8-7.7-0.4-15.7,3.9-22.5c4.3-6.8,10.9-11.5,18.6-13.3c7.7-1.8,15.7-0.4,22.5,3.9c13.8,8.7,18.8,25.7,11.3,38.2L332,340.1z"/>
		</g>
	</g>
	<g>
		<path class="st2" d="M340.4,356.6c0.1,0.1,0.3,0.2,0.5,0.2l0.1,0c0.3,0,0.6-0.2,0.8-0.5c0.2-0.4,0-0.7-0.2-0.9l-5.9-6.7
			c-2-2.3-4-4.5-5.9-6.8l-4.9-5.7c-0.1-0.2-2.3-2.5-2.3-2.5l-0.5-0.6c-0.3-0.3-0.6-0.7-0.9-1c-0.5-0.5-0.9-1-1.3-1.5
			c-0.8-0.9-1.6-1.9-2.5-2.8c-0.5-0.5-1.3-0.8-2.1-0.8c-1.2,0-2.3,0.7-2.8,1.7c-0.4,0.8-0.4,1.6-0.1,2.6c0.1,0.4,1,1.3,1.9,2.1
			l0.8,0.7c1.1,0.9,2.1,1.9,3.2,2.8c0.8,0.7,1.7,1.5,2.5,2.2l0.2,0.1l15.1,13.3C337.4,354,338.9,355.3,340.4,356.6z"/>
		<path class="st2" d="M309,318.5l-0.2-0.2c-0.7-0.9-0.6-0.7-1.3-1.3l-0.1,0c-1.1-0.7-2.1-1.3-3.1-1.6c-2-0.7-3.8-1-5.4-0.9
			c1,0.8,2.3,2,2.9,3.9c0.3,0.9,0.5,1.8,0.7,3c0.1,0.3,0.1,0.7,0.2,1l0.1,0.6c0.2,1.4,1.4,2.4,3,2.6c0.1,0,0.3,0,0.4,0
			c1.8,0,3.5-1.2,3.9-2.9c0.3-1.2,0-2.4-0.8-3.7C309.2,318.8,309.1,318.6,309,318.5z"/>
	</g>
</g>
<g>
	<path class="st2" d="M332,498.6L332,498.6c-2.4,0-4.8-0.9-6.6-2.5c-1.5-1.3-27.8-27.7-30.8-30.7c-0.4,0-0.9,0-1.3,0
		c-4.4,0-8.2-1.6-11.4-4.7c-2.5-2.5-4.1-5.5-4.6-9c-0.2-1.5-0.4-3.1,0-4.8c0.4-1.7,1.8-2.8,3.5-2.8c0.6,0,1.1,0.1,1.6,0.4
		c0.8,0.4,1.4,0.9,1.9,1.4l1.7,1.7c1.1,1.1,2.2,2.2,3.4,3.4c0.3,0.3,0.4,0.4,0.5,0.4c0.1,0,0.3,0,0.4,0c0.6,0,1-0.2,1.3-0.5
		c0.1-0.1,0.3-0.3,0.4-0.4c0.1-0.1,0.2-0.2,0.3-0.3c0.4-0.5,0.8-0.9,1.3-1.3c0.6-0.6,1.1-1.1,1.5-1.6c0.1-0.1,0.1-0.2,0.1-0.2
		c0.1-0.4,0.1-0.8-0.4-1.4c-0.1-0.2-0.8-0.8-1.7-1.7c-1.4-1.4-3.2-3.2-4.1-4.1c-1.1-1.2-1.5-2.6-1.1-4.1l0.1-0.2
		c0.6-1.6,1.9-2.5,3.8-2.7c1.6-0.2,3.2-0.1,4.8,0.3c4.4,0.9,7.9,3.3,10.4,7c1.3,2,2.2,4.2,2.6,6.8c0.2,1.2,0.3,2.6,0.1,4.1
		c4,4.1,28,28.3,29.5,29.8c3.5,3.4,4.2,8.6,1.8,12.8C339,496.7,335.6,498.6,332,498.6z M294.8,461.7c0.9,0,1.6,0.3,2.2,0.9
		c3.7,3.7,29.4,29.6,30.8,30.7c1.2,1,2.7,1.6,4.2,1.6c2.4,0,4.5-1.2,5.7-3.3c1.6-2.7,1.1-6-1.2-8.2c-0.4-0.4-8.1-8.1-15.4-15.4
		C306,452.7,306,452.7,305.8,452l-0.1-0.4l0.1-0.9c0.3-1.1,0.1-2.2,0-3.3c-0.3-2-1-3.8-2-5.3c-2-2.9-4.6-4.7-8.1-5.4
		c-1.2-0.3-2.5-0.3-3.7-0.2c-0.5,0.1-0.6,0.1-0.7,0.2c0,0.1,0,0.2,0.3,0.5c0.8,0.9,2.7,2.7,4,4.1c1.2,1.2,1.7,1.7,1.8,1.8
		c1.3,1.5,1.7,3.2,1.2,4.9c-0.1,0.4-0.3,0.8-0.5,1l-0.1,0.2c-0.6,0.9-1.4,1.6-2.1,2.2c-0.4,0.4-0.7,0.7-1.1,1.1
		c-0.2,0.2-0.3,0.3-0.5,0.5c-0.1,0.1-0.2,0.2-0.3,0.3c-1.3,1.3-2.9,1.9-4.9,1.7c-1.4-0.2-2.2-1-2.6-1.4c-1.1-1.1-2.3-2.3-3.4-3.4
		l-1.7-1.7c-0.2-0.2-0.5-0.5-0.8-0.6c-0.2,1-0.1,2,0.1,3.2c0.4,2.7,1.6,5,3.5,6.9c2.8,2.7,6.2,3.9,10.1,3.6
		C294.6,461.7,294.7,461.7,294.8,461.7z M331.4,491.5c-1.9,0-3.4-1.5-3.4-3.4c0-1.9,1.5-3.4,3.4-3.4c1.9,0,3.4,1.5,3.4,3.4
		C334.8,489.9,333.2,491.5,331.4,491.5z"/>
</g>
<g>
	<rect x="433.5" y="181.7" class="st4" width="114.7" height="44.8"/>
	<text transform="matrix(1 0 0 1 433.4514 194.1133)" class="st5 st6 st7">Search</text>
	<rect x="433.5" y="321.7" class="st4" width="114.7" height="54.3"/>
	<text transform="matrix(1 0 0 1 433.4514 334.0977)" class="st5 st6 st7">Settings</text>
	<rect x="433.5" y="465.7" class="st4" width="147.5" height="54.3"/>
	<text transform="matrix(1 0 0 1 433.4514 478.1025)" class="st5 st6 st7">World</text>
	<rect x="433.5" y="608.7" class="st4" width="114.7" height="22.4"/>
	<text transform="matrix(1 0 0 1 433.4514 621.0693)" class="st5 st6 st7">Help</text>
	<rect x="686.2" y="181.7" class="st4" width="111.9" height="29.2"/>
	<text transform="matrix(1 0 0 1 686.1868 194.1133)" class="st5 st6 st7">Save</text>
	<rect x="686.2" y="321.7" class="st4" width="111.9" height="22.5"/>
	<text transform="matrix(1 0 0 1 686.1868 334.0977)" class="st5 st6 st7">Download</text>
	<rect x="686.2" y="465.7" class="st4" width="111.9" height="22.4"/>
	<text transform="matrix(1 0 0 1 686.1868 478.1025)" class="st5 st6 st7">Delete</text>
	<rect x="686.2" y="608.7" class="st4" width="111.9" height="44.8"/>
	<text transform="matrix(1 0 0 1 686.1868 621.0693)" class="st5 st6 st7">Publish</text>
	<rect x="946.7" y="181.7" class="st4" width="78.2" height="29.2"/>
	<text transform="matrix(1 0 0 1 946.6721 194.1133)" class="st5 st6 st7">Quit</text>
	<rect x="946.7" y="321.7" class="st4" width="78.2" height="24.4"/>
	<text transform="matrix(1 0 0 1 946.6721 334.0977)" class="st5 st6 st7">Menu</text>
	<rect x="168.3" y="181.7" class="st4" width="118.8" height="29.2"/>
	<text transform="matrix(1 0 0 1 168.3401 194.1133)" class="st5 st6 st7">Menu</text>
	<rect x="168.3" y="313.2" class="st4" width="118.8" height="45"/>
	<text transform="matrix(1 0 0 1 168.3401 325.5518)"><tspan x="0" y="0" class="st5 st6 st7">Style </tspan><tspan x="0" y="20.5" class="st5 st6 st7">Editor</tspan></text>
	<rect x="168.3" y="457.2" class="st4" width="118.8" height="44.8"/>
	<text transform="matrix(1 0 0 1 168.3401 469.5566)"><tspan x="0" y="0" class="st5 st6 st7">Object </tspan><tspan x="0" y="20.5" class="st5 st6 st7">Editor</tspan></text>
	<rect x="168.3" y="603.7" class="st4" width="118.8" height="44.8"/>
	<text transform="matrix(1 0 0 1 168.3401 616.0674)"><tspan x="0" y="0" class="st5 st6 st7">Advanced </tspan><tspan x="0" y="20.5" class="st5 st6 st7">Tools</tspan></text>
</g>
</svg>
