<?xml version="1.0" encoding="utf-8"?>
<!-- Generator: Adobe Illustrator 19.1.0, SVG Export Plug-In . SVG Version: 6.00 Build 0)  -->
<svg version="1.1" id="Layer_1" xmlns="http://www.w3.org/2000/svg" xmlns:xlink="http://www.w3.org/1999/xlink" x="0px" y="0px"
	 viewBox="0 0 866 809.6" style="enable-background:new 0 0 866 809.6;" xml:space="preserve">
<style type="text/css">
	.st0{fill:#4D4D4D;}
	.st1{fill:#FFFFFF;}
	.st2{fill:#CCCCCC;}
	.st3{fill:none;stroke:#000000;stroke-width:0.9336;stroke-miterlimit:10;}
	.st4{fill:#F2F2F2;}
	.st5{fill:#F57C00;}
	.st6{fill:none;stroke:#FFFFFF;stroke-width:0.8981;stroke-linecap:round;stroke-linejoin:round;stroke-miterlimit:10;}
	.st7{fill:none;stroke:#F2F2F2;stroke-width:2.1462;stroke-linecap:round;stroke-linejoin:round;stroke-miterlimit:10;}
	.st8{fill:none;stroke:#F57C00;stroke-width:3;stroke-linecap:round;stroke-linejoin:round;stroke-miterlimit:10;}
	.st9{fill:#808080;}
	.st10{fill:none;stroke:#FFFFFF;stroke-width:0.8059;stroke-linecap:round;stroke-linejoin:round;stroke-miterlimit:10;}
	.st11{fill:#E6E6E6;}
	.st12{fill:#808080;stroke:#808080;stroke-width:0.9519;stroke-linecap:round;stroke-linejoin:round;stroke-miterlimit:10;}
	.st13{fill:none;stroke:#FFFFFF;stroke-width:2;stroke-linecap:round;stroke-linejoin:round;stroke-miterlimit:10;}
	.st14{fill:none;stroke:#FFFFFF;stroke-width:1.0187;stroke-linecap:round;stroke-linejoin:round;stroke-miterlimit:10;}
	.st15{fill:none;stroke:#E6E6E6;stroke-miterlimit:10;}
	.st16{font-family:'MyriadPro-Bold';}
	.st17{font-size:30.1109px;}
	.st18{fill:none;stroke:#808080;stroke-miterlimit:10;}
	.st19{fill:#808080;stroke:#4D4D4D;stroke-width:0.2524;stroke-miterlimit:10;}
	.st20{fill:#808080;stroke:#4D4D4D;stroke-miterlimit:10;}
	.st21{fill:#999999;}
	.st22{font-family:'Roboto-Medium';}
	.st23{font-size:16px;}
	.st24{font-family:'Roboto-Light';}
	.st25{font-size:14.0211px;}
	.st26{font-family:'Roboto-Regular';}
	.st27{font-size:11.8303px;}
	.st28{font-size:14px;}
	.st29{fill:none;stroke:#F57C00;stroke-width:2;stroke-linecap:round;stroke-linejoin:round;stroke-miterlimit:10;}
	.st30{font-size:12px;}
	.st31{fill:none;stroke:#E6E6E6;stroke-width:0.8783;stroke-miterlimit:10;}
</style>
<text transform="matrix(1 0 0 1 91.2673 76.1526)" class="st16 st17">Search (world, modules, parts) Window - UI</text>
<g>
	<g>
		<g>
			<path id="bck_9_" class="st0" d="M742.8,737.5H74c-8.6,0-15.6-7.1-15.6-15.9V153.4c0-8.8,7-15.9,15.6-15.9h668.7
				c8.6,0,15.6,7.1,15.6,15.9v568.2C758.4,730.4,751.4,737.5,742.8,737.5z"/>
			<g>
				<path class="st19" d="M750.9,243c0-6.3-5-11.4-11.3-11.4H579.7v-35.3c0-6.5-5.2-11.7-11.6-11.7H419.1c-6.2,0-11.1,5-11.1,11.2
					v35.7H77.1c-1.9,0-3.8,0.5-5.3,1.4c-3.5,1.9-5.9,5.7-5.9,10v79.3v386.7v9c0,6.4,5.2,11.7,11.6,11.7h661.9
					c6.4,0,11.6-5.2,11.6-11.7v-9v-10.1v0V243z"/>
				<path class="st20" d="M579.7,231.6v-35.7c0-6.2,5-11.2,11.1-11.2h148.5c6.4,0,11.6,5.2,11.6,11.7v520.3
					c0,6.4-5.2,12.7-11.6,12.7H77.5c-6.4,0-11.6-6.3-11.6-12.7V241.9c0-6.3,5-10.3,11.2-10.3H579.7z"/>
				<path class="st19" d="M237.1,231.6v-35.7c0-6.2-5-11.2-11.1-11.2H77.5c-6.4,0-11.6,5.2-11.6,11.7v521.5
					c0,6.4,5.2,11.7,11.6,11.7h661.9c6.4,0,11.6-5.2,11.6-11.7V242.9c0-6.3-5-11.3-11.2-11.3H237.1z"/>
				<path class="st1" d="M739.6,231.6H407.9v-35.3c0-6.5-5.2-11.7-11.6-11.7H248.8c-6.2,0-11.1,5-11.1,11.2v35.7H77.1
					c-6.2,0-11.2,5.1-11.2,11.3v79.3v386.7v9c0,6.4,5.2,11.7,11.6,11.7h661.9c6.4,0,11.6-5.2,11.6-11.7v-9V263.1V243
					C750.9,236.7,745.9,231.6,739.6,231.6z"/>
			</g>
			<g>
				<text transform="matrix(1 0 0 1 106.4421 166.8461)" class="st1 st22 st23">Search</text>
				<g>
					<path class="st2" d="M88.1,149.5c-1.4,0-2.7,0.2-4,0.7c-2.9,1.1-5.2,3.3-6.4,6.1c-1.2,2.8-1.3,5.9-0.2,8.8
						c1.7,4.5,6,7.5,10.8,7.5c1.4,0,2.7-0.2,4-0.7c2.9-1.1,5.2-3.3,6.4-6.1c1.2-2.8,1.3-5.9,0.2-8.8
						C97.2,152.6,92.8,149.5,88.1,149.5z"/>
					<g>
						<g>
							<polygon points="89.4,156.4 89.4,156.4 89.4,156.4 							"/>
							<path d="M82.7,167.2c0.2,0,0.3,0,0.4-0.1l3.5-3.5l0.2,0.2c0.6,0.4,1.3,0.7,2.1,0.8c0.2,0,0.4,0,0.6,0l0,0
								c1.2,0,2.4-0.5,3.3-1.4c0.9-0.9,1.4-2.1,1.3-3.3c0-2.3-1.8-4.3-4.1-4.6c-0.2,0-0.4,0-0.6,0l0,0c-1.2,0-2.4,0.5-3.3,1.4
								c-0.9,0.9-1.4,2.1-1.3,3.3c0,1,0.3,2,0.9,2.8l0.2,0.2l-3.5,3.5c-0.1,0.1-0.1,0.2-0.1,0.4c0,0.1,0.1,0.3,0.1,0.3
								C82.5,167.1,82.6,167.1,82.7,167.2z M85.7,159.8c0-1,0.4-1.9,1.1-2.6c0.7-0.7,1.6-1.1,2.6-1.1l0,0c0.1,0,0.3,0,0.4,0
								c1.8,0.2,3.2,1.8,3.2,3.6c0,1-0.4,1.9-1.1,2.6c-0.7,0.7-1.6,1.1-2.6,1.1l0,0c-0.1,0-0.3,0-0.4,0
								C87.1,163.2,85.8,161.6,85.7,159.8z"/>
						</g>
					</g>
				</g>
			</g>
			<g>
				<g>
					<g>
						<circle class="st5" cx="733.8" cy="161.1" r="7.4"/>
						<g>
							<line class="st6" x1="730.2" y1="157.4" x2="737.6" y2="164.9"/>
							<line class="st6" x1="730.2" y1="164.9" x2="737.6" y2="157.4"/>
						</g>
					</g>
				</g>
				<g>
					<circle class="st2" cx="708.8" cy="161.1" r="7.4"/>
					<g>
						<g>
							<path class="st0" d="M712.8,161.6h-8c-0.3,0-0.5-0.2-0.5-0.5s0.2-0.5,0.5-0.5h8c0.3,0,0.5,0.2,0.5,0.5S713,161.6,712.8,161.6
								z"/>
						</g>
					</g>
				</g>
			</g>
		</g>
		<g>
			<text transform="matrix(1 0 0 1 620.7913 212.1301)" class="st1 st24 st25">Search in Files</text>
		</g>
		<g>
			<text transform="matrix(1 0 0 1 455.8639 212.1301)" class="st1 st24 st25">Search Files</text>
		</g>
		<g>
			<text transform="matrix(1 0 0 1 111.0754 212.1301)" class="st1 st24 st25">Search Code</text>
		</g>
		<g>
			<text transform="matrix(1 0 0 1 278.3208 204.1926)"><tspan x="0" y="0" class="st9 st22 st25">Search world, </tspan><tspan x="-14.2" y="16.8" class="st9 st22 st25">modules and parts</tspan></text>
		</g>
	</g>
	<g>
		<g>
			<g>
				<path class="st4" d="M725.7,266.2H90.6c-5.1,0-9.3-4.2-9.3-9.3v-1.4c0-5.1,4.2-9.3,9.3-9.3h635.2c5.1,0,9.3,4.2,9.3,9.3v1.4
					C735,262.1,730.8,266.2,725.7,266.2z"/>
			</g>
		</g>
		<g>
			<g>
				<path class="st5" d="M714.8,266.2h10.9c5.1,0,9.3-4.2,9.3-9.3v-1.4c0-5.1-4.2-9.3-9.3-9.3h-10.9V266.2z"/>
			</g>
		</g>
		<path class="st1" d="M730,254.1c-0.3-2.2-2.1-3.9-4.4-3.9c-0.2,0-0.4,0-0.5,0c-2.4,0.3-4.1,2.5-3.8,4.9c0.1,1.1,0.7,2,1.4,2.7
			l-2.9,3.8c-0.1,0.2-0.1,0.5,0.1,0.6c0.1,0.1,0.2,0.1,0.3,0.1c0.1,0,0.3-0.1,0.3-0.2l3-3.8c0.7,0.4,1.5,0.6,2.3,0.6
			c0.2,0,0.4,0,0.5,0C728.6,258.7,730.3,256.5,730,254.1z M726.1,258.2c-0.2,0-0.3,0-0.5,0c-1.8,0-3.3-1.3-3.5-3.1
			c-0.2-2,1.2-3.7,3.1-4c0.2,0,0.3,0,0.5,0c1.8,0,3.3,1.3,3.5,3.1C729.5,256.2,728.1,257.9,726.1,258.2z"/>
		<g>
			<text transform="matrix(1 0 0 1 90.3248 260.7453)" class="st9 st26 st27">Links</text>
		</g>
	</g>
	<g>
		<g>
			<g>
				<g>
					<g>
						<g>
							<path class="st4" d="M727.2,605.2H90.3c-5,0-9.1-4.2-9-9.1V485.6l655-0.2v110.5C736.3,601,732.2,605.2,727.2,605.2z"/>
						</g>
					</g>
				</g>
			</g>
			<g>
				<g>
					<text transform="matrix(1 0 0 1 81.3047 476.6781)" class="st5 st22 st28">Worlds</text>
				</g>
				<line class="st29" x1="82" y1="484.6" x2="735" y2="484.6"/>
			</g>
		</g>
		<g>
			<g>
				<g>
					<g>
						<g>
							<path class="st4" d="M727.2,714.2H90.3c-5,0-9.1-4.2-9-9.1v-47.5l655-0.2v47.5C736.3,710,732.2,714.2,727.2,714.2z"/>
						</g>
					</g>
				</g>
			</g>
			<g>
				<g>
					<text transform="matrix(1 0 0 1 81.3047 648.678)" class="st5 st22 st28">Modules and files</text>
				</g>
				<line class="st29" x1="82" y1="656.6" x2="735" y2="656.6"/>
			</g>
		</g>
		<g>
			<g>
				<g>
					<g>
						<g>
							<path class="st4" d="M727.2,436.2H90.3c-5,0-9.1-4.2-9-9.1V305.6l655-0.2v121.5C736.3,432,732.2,436.2,727.2,436.2z"/>
						</g>
					</g>
				</g>
			</g>
			<g>
				<g>
					<text transform="matrix(1 0 0 1 81.3047 296.6781)" class="st5 st22 st28">PartsBin Items</text>
				</g>
				<line class="st29" x1="82" y1="304.6" x2="735" y2="304.6"/>
			</g>
		</g>
		<g>
			<rect x="96.3" y="318.3" class="st1" width="104.9" height="104.9"/>
			<g>
				<text transform="matrix(1 0 0 1 120.9973 416.6674)" class="st9 st26 st30">Example 1</text>
			</g>
			<line class="st31" x1="98.2" y1="319.6" x2="199.3" y2="422"/>
			<line class="st31" x1="97.5" y1="421.3" x2="200" y2="320.3"/>
		</g>
		<g>
			<rect x="213.9" y="318.3" class="st1" width="104.9" height="104.9"/>
			<g>
				<text transform="matrix(1 0 0 1 238.5724 416.6678)" class="st9 st26 st30">Example 1</text>
			</g>
			<line class="st31" x1="214.8" y1="319.4" x2="315.9" y2="421.8"/>
			<line class="st31" x1="214.1" y1="421.1" x2="316.6" y2="320.1"/>
		</g>
		<g>
			<rect x="331.3" y="318.3" class="st1" width="104.9" height="104.9"/>
			<g>
				<text transform="matrix(1 0 0 1 355.9973 416.6674)" class="st9 st26 st30">Example 1</text>
			</g>
			<line class="st31" x1="333.2" y1="319.6" x2="434.3" y2="422"/>
			<line class="st31" x1="332.5" y1="421.3" x2="435" y2="320.3"/>
		</g>
		<g>
			<rect x="448.9" y="318.3" class="st1" width="104.9" height="104.9"/>
			<g>
				<text transform="matrix(1 0 0 1 473.5724 416.6678)" class="st9 st26 st30">Example 1</text>
			</g>
			<line class="st31" x1="449.8" y1="319.4" x2="550.9" y2="421.8"/>
			<line class="st31" x1="449.1" y1="421.1" x2="551.6" y2="320.1"/>
		</g>
		<g>
			<g>
				<path class="st5" d="M222.8,593.4H99.6c-5.1,0-9.3-4.2-9.3-9.3v-1.4c0-5.1,4.2-9.3,9.3-9.3h123.2c5.1,0,9.3,4.2,9.3,9.3v1.4
					C232,589.2,227.9,593.4,222.8,593.4z"/>
			</g>
		</g>
		<g>
			<g>
				<path class="st5" d="M222.8,689.3H99.6c-5.1,0-9.3-4.2-9.3-9.3v-1.4c0-5.1,4.2-9.3,9.3-9.3h123.2c5.1,0,9.3,4.2,9.3,9.3v1.4
					C232,685.1,227.9,689.3,222.8,689.3z"/>
			</g>
		</g>
		<g>
			<text transform="matrix(1 0 0 1 96.3044 508.1613)"><tspan x="0" y="0" class="st9 st26 st30">Lorem ipsum dolor (sit amet) </tspan><tspan x="0" y="20" class="st9 st26 st30">Aliquam tincidunt mauris eu risus</tspan><tspan x="0" y="40" class="st9 st26 st30">Vestibulum auctor (dapibus neque)</tspan><tspan x="0" y="60" class="st9 st26 st30">Nunc dignissim risus id metus</tspan><tspan x="0" y="80" class="st1 st26 st30">Cras ornare tristique elit</tspan></text>
		</g>
		<text transform="matrix(1 0 0 1 96.3049 682.4156)"><tspan x="0" y="0" class="st1 st26 st30">Lorem ipsum dolor (sit)</tspan><tspan x="0" y="20" class="st9 st26 st30">Aliquam tincidunt mauris eu risus</tspan></text>
	</g>
	<g>
		<g>
			<g>
				<g>
					<path class="st1" d="M721.2,592.1v-95.7c0-1.2,1-2.2,2.2-2.2h1.6c1.2,0,2.2,1,2.2,2.2v95.7c0,1.2-1,2.2-2.2,2.2h-1.6
						C722.2,594.3,721.2,593.3,721.2,592.1z"/>
				</g>
			</g>
		</g>
		<g>
			<g>
				<g>
					<path class="st2" d="M722,539.2v-20.4c0-0.9,0.7-1.6,1.6-1.6h1.1c0.9,0,1.6,0.7,1.6,1.6v20.4c0,0.9-0.7,1.6-1.6,1.6h-1.1
						C722.7,540.8,722,540.1,722,539.2z"/>
				</g>
			</g>
		</g>
	</g>
</g>
</svg>
