<?xml version="1.0" encoding="utf-8"?>
<!-- Generator: Adobe Illustrator 19.1.0, SVG Export Plug-In . SVG Version: 6.00 Build 0)  -->
<svg version="1.1" id="Layer_1" xmlns="http://www.w3.org/2000/svg" xmlns:xlink="http://www.w3.org/1999/xlink" x="0px" y="0px"
	 viewBox="0 0 1280 800" style="enable-background:new 0 0 1280 800;" xml:space="preserve">
<style type="text/css">
	.st0{fill:#4D4D4D;}
	.st1{clip-path:url(#SVGID_2_);}
	.st2{fill:#E6E6E6;}
	.st3{fill:#F57C00;}
	.st4{fill:#FF931E;}
	.st5{fill:#F2F2F2;}
	.st6{fill:#FFFFFF;}
	.st7{opacity:0.41;}
	.st8{fill:#00FF00;}
	.st9{fill:#0000FF;}
	.st10{fill:#FF0000;}
</style>
<g>
	<defs>
		<rect id="SVGID_1_" x="1356" width="1280" height="800"/>
	</defs>
	<clipPath id="SVGID_2_">
		<use xlink:href="#SVGID_1_"  style="overflow:visible;"/>
	</clipPath>
	<g class="st1">
		<g>
			<g>
				<path class="st2" d="M1224-79c25,0,49.6,0,74.4,0c64.9,0,129.9,0,194.8,0c90.4,0,180.8,0,271.2,0c101.3,0,202.7,0,304,0
					c97.7,0,195.4,0,293.1,0c79.5,0,159,0,238.5,0c46.7,0,93.4,0,140.2,0c4.9,0,9.7,0,14.6,0c1.7,0,4.2,0.5,4.2-0.4
					c0,10.3,0,20.7,0,31c0,67.4,0,134.8,0,202.1c0,98.6,0,197.3,0,295.9c0,92.7,0,185.4,0,278.1c0,49.5,0,99,0,148.5
					c0,1.3,0,2.6,0,3.9c0,0.8,1.1-0.1,0.4-0.1c-2.6,0-5.2,0-7.8,0c-14.3,0-28.6,0-42.9,0c-58.8,0-117.6,0-176.4,0
					c-86.9,0-173.8,0-260.7,0c-100.4,0-200.9,0-301.3,0c-99.4,0-198.9,0-298.3,0c-83.8,0-167.7,0-251.5,0c-53.7,0-107.4,0-161.1,0
					c-11,0-22,0-33,0c-0.8,0-1.6,0-2.4,0c-0.2,0,0,0.9,0-0.2c0-4.2,0-8.3,0-12.5c0-57.8,0-115.6,0-173.4c0-95.8,0-191.5,0-287.3
					c0-96.5,0-193,0-289.5c0-60,0-120.1,0-180.1C1224-68.4,1224-74,1224-79c0-1-1-1-1,0c0,37,0,74.4,0,111.9c0,87.5,0,175,0,262.5
					c0,100.3,0,200.7,0,301c0,76,0,151.9,0,227.9c0,18.7,0,37.5,0,56.2c0,0.2,0.6,0.5,0.8,0.5c24.9,0,49.8,0,74.6,0
					c64.9,0,129.9,0,194.8,0c90.4,0,180.8,0,271.2,0c101.3,0,202.7,0,304,0c97.7,0,195.4,0,293.1,0c79.5,0,159,0,238.5,0
					c46.7,0,93.4,0,140.2,0c6.5,0,13,0,19.6,0c0.2,0,0.2-0.2,0.2-0.5c0-37.4,0-74.9,0-112.3c0-87.5,0-175,0-262.5
					c0-100.3,0-200.7,0-301c0-76,0-151.9,0-227.9c0-18.7,0-37.5,0-56.2c0-0.2,0-0.6-0.2-0.6c-24.9,0-49.8,0-74.6,0
					c-64.9,0-129.9,0-194.8,0c-90.4,0-180.8,0-271.2,0c-101.3,0-202.7,0-304,0c-97.7,0-195.4,0-293.1,0c-79.5,0-159,0-238.5,0
					c-46.7,0-93.4,0-140.2,0c-6.5,0-13.4,0-19.4,0C1223-80,1223-79,1224-79z"/>
			</g>
		</g>
		<g>
			<g>
				<path class="st2" d="M1224,786c0,0,50.2,0,75,0c64.9,0,129.9,0,194.8,0c90.4,0,180.8,0,271.2,0c101.3,0,202.7,0,304,0
					c97.7,0,195.4,0,293.1,0c79.5,0,159,0,238.5,0c46.7,0,93.4,0,140.2,0c6.5,0,13.2,0,19.2,0c1,0,1-1,0-1c-24,0-49.4,0-74.2,0
					c-64.9,0-129.9,0-194.8,0c-90.4,0-180.8,0-271.2,0c-101.3,0-202.7,0-304,0c-97.7,0-195.4,0-293.1,0c-79.5,0-159,0-238.5,0
					c-46.7,0-93.4,0-140.2,0c-6.5,0-13,0-20,0V786L1224,786z"/>
			</g>
		</g>
		<g>
			<g>
				<path class="st2" d="M1224,767c0,0,50.2,0,75,0c64.9,0,129.9,0,194.8,0c90.4,0,180.8,0,271.2,0c101.3,0,202.7,0,304,0
					c97.7,0,195.4,0,293.1,0c79.5,0,159,0,238.5,0c46.7,0,93.4,0,140.2,0c6.5,0,13.2,0,19.2,0c1,0,1-1,0-1c-24,0-49.4,0-74.2,0
					c-64.9,0-129.9,0-194.8,0c-90.4,0-180.8,0-271.2,0c-101.3,0-202.7,0-304,0c-97.7,0-195.4,0-293.1,0c-79.5,0-159,0-238.5,0
					c-46.7,0-93.4,0-140.2,0c-6.5,0-13,0-20,0V767L1224,767z"/>
			</g>
		</g>
		<g>
			<g>
				<path class="st2" d="M1224,749c0,0,50.2,0,75,0c64.9,0,129.9,0,194.8,0c90.4,0,180.8,0,271.2,0c101.3,0,202.7,0,304,0
					c97.7,0,195.4,0,293.1,0c79.5,0,159,0,238.5,0c46.7,0,93.4,0,140.2,0c6.5,0,13.2,0,19.2,0c1,0,1-1,0-1c-24,0-49.4,0-74.2,0
					c-64.9,0-129.9,0-194.8,0c-90.4,0-180.8,0-271.2,0c-101.3,0-202.7,0-304,0c-97.7,0-195.4,0-293.1,0c-79.5,0-159,0-238.5,0
					c-46.7,0-93.4,0-140.2,0c-6.5,0-13,0-20,0V749L1224,749z"/>
			</g>
		</g>
		<g>
			<g>
				<path class="st2" d="M1224,730c0,0,50.2,0,75,0c64.9,0,129.9,0,194.8,0c90.4,0,180.8,0,271.2,0c101.3,0,202.7,0,304,0
					c97.7,0,195.4,0,293.1,0c79.5,0,159,0,238.5,0c46.7,0,93.4,0,140.2,0c6.5,0,13.2,0,19.2,0c1,0,1-1,0-1c-24,0-49.4,0-74.2,0
					c-64.9,0-129.9,0-194.8,0c-90.4,0-180.8,0-271.2,0c-101.3,0-202.7,0-304,0c-97.7,0-195.4,0-293.1,0c-79.5,0-159,0-238.5,0
					c-46.7,0-93.4,0-140.2,0c-6.5,0-13,0-20,0V730L1224,730z"/>
			</g>
		</g>
		<g>
			<g>
				<path class="st2" d="M1224,711c0,0,50.2,0,75,0c64.9,0,129.9,0,194.8,0c90.4,0,180.8,0,271.2,0c101.3,0,202.7,0,304,0
					c97.7,0,195.4,0,293.1,0c79.5,0,159,0,238.5,0c46.7,0,93.4,0,140.2,0c6.5,0,13.2,0,19.2,0c1,0,1-1,0-1c-24,0-49.4,0-74.2,0
					c-64.9,0-129.9,0-194.8,0c-90.4,0-180.8,0-271.2,0c-101.3,0-202.7,0-304,0c-97.7,0-195.4,0-293.1,0c-79.5,0-159,0-238.5,0
					c-46.7,0-93.4,0-140.2,0c-6.5,0-13,0-20,0V711L1224,711z"/>
			</g>
		</g>
		<g>
			<g>
				<path class="st2" d="M1224,693c0,0,50.2,0,75,0c64.9,0,129.9,0,194.8,0c90.4,0,180.8,0,271.2,0c101.3,0,202.7,0,304,0
					c97.7,0,195.4,0,293.1,0c79.5,0,159,0,238.5,0c46.7,0,93.4,0,140.2,0c6.5,0,13.2,0,19.2,0c1,0,1-1,0-1c-24,0-49.4,0-74.2,0
					c-64.9,0-129.9,0-194.8,0c-90.4,0-180.8,0-271.2,0c-101.3,0-202.7,0-304,0c-97.7,0-195.4,0-293.1,0c-79.5,0-159,0-238.5,0
					c-46.7,0-93.4,0-140.2,0c-6.5,0-13,0-20,0V693L1224,693z"/>
			</g>
		</g>
		<g>
			<g>
				<path class="st2" d="M1224,654c0,0,50.2,0,75,0c64.9,0,129.9,0,194.8,0c90.4,0,180.8,0,271.2,0c101.3,0,202.7,0,304,0
					c97.7,0,195.4,0,293.1,0c79.5,0,159,0,238.5,0c46.7,0,93.4,0,140.2,0c6.5,0,13.2,0,19.2,0c1,0,1-1,0-1c-24,0-49.4,0-74.2,0
					c-64.9,0-129.9,0-194.8,0c-90.4,0-180.8,0-271.2,0c-101.3,0-202.7,0-304,0c-97.7,0-195.4,0-293.1,0c-79.5,0-159,0-238.5,0
					c-46.7,0-93.4,0-140.2,0c-6.5,0-13,0-20,0V654L1224,654z"/>
			</g>
		</g>
		<g>
			<g>
				<path class="st2" d="M1224,636c0,0,50.2,0,75,0c64.9,0,129.9,0,194.8,0c90.4,0,180.8,0,271.2,0c101.3,0,202.7,0,304,0
					c97.7,0,195.4,0,293.1,0c79.5,0,159,0,238.5,0c46.7,0,93.4,0,140.2,0c6.5,0,13.2,0,19.2,0c1,0,1-1,0-1c-24,0-49.4,0-74.2,0
					c-64.9,0-129.9,0-194.8,0c-90.4,0-180.8,0-271.2,0c-101.3,0-202.7,0-304,0c-97.7,0-195.4,0-293.1,0c-79.5,0-159,0-238.5,0
					c-46.7,0-93.4,0-140.2,0c-6.5,0-13,0-20,0V636L1224,636z"/>
			</g>
		</g>
		<g>
			<g>
				<path class="st2" d="M1224,617c0,0,50.2,0,75,0c64.9,0,129.9,0,194.8,0c90.4,0,180.8,0,271.2,0c101.3,0,202.7,0,304,0
					c97.7,0,195.4,0,293.1,0c79.5,0,159,0,238.5,0c46.7,0,93.4,0,140.2,0c6.5,0,13.2,0,19.2,0c1,0,1-1,0-1c-24,0-49.4,0-74.2,0
					c-64.9,0-129.9,0-194.8,0c-90.4,0-180.8,0-271.2,0c-101.3,0-202.7,0-304,0c-97.7,0-195.4,0-293.1,0c-79.5,0-159,0-238.5,0
					c-46.7,0-93.4,0-140.2,0c-6.5,0-13,0-20,0V617L1224,617z"/>
			</g>
		</g>
		<g>
			<g>
				<path class="st2" d="M1224,598c0,0,50.2,0,75,0c64.9,0,129.9,0,194.8,0c90.4,0,180.8,0,271.2,0c101.3,0,202.7,0,304,0
					c97.7,0,195.4,0,293.1,0c79.5,0,159,0,238.5,0c46.7,0,93.4,0,140.2,0c6.5,0,13.2,0,19.2,0c1,0,1-1,0-1c-24,0-49.4,0-74.2,0
					c-64.9,0-129.9,0-194.8,0c-90.4,0-180.8,0-271.2,0c-101.3,0-202.7,0-304,0c-97.7,0-195.4,0-293.1,0c-79.5,0-159,0-238.5,0
					c-46.7,0-93.4,0-140.2,0c-6.5,0-13,0-20,0V598L1224,598z"/>
			</g>
		</g>
		<g>
			<g>
				<path class="st2" d="M1224,580c0,0,50.2,0,75,0c64.9,0,129.9,0,194.8,0c90.4,0,180.8,0,271.2,0c101.3,0,202.7,0,304,0
					c97.7,0,195.4,0,293.1,0c79.5,0,159,0,238.5,0c46.7,0,93.4,0,140.2,0c6.5,0,13.2,0,19.2,0c1,0,1-1,0-1c-24,0-49.4,0-74.2,0
					c-64.9,0-129.9,0-194.8,0c-90.4,0-180.8,0-271.2,0c-101.3,0-202.7,0-304,0c-97.7,0-195.4,0-293.1,0c-79.5,0-159,0-238.5,0
					c-46.7,0-93.4,0-140.2,0c-6.5,0-13,0-20,0V580L1224,580z"/>
			</g>
		</g>
		<g>
			<g>
				<path class="st2" d="M1224,561c0,0,50.2,0,75,0c64.9,0,129.9,0,194.8,0c90.4,0,180.8,0,271.2,0c101.3,0,202.7,0,304,0
					c97.7,0,195.4,0,293.1,0c79.5,0,159,0,238.5,0c46.7,0,93.4,0,140.2,0c6.5,0,13.2,0,19.2,0c1,0,1-1,0-1c-24,0-49.4,0-74.2,0
					c-64.9,0-129.9,0-194.8,0c-90.4,0-180.8,0-271.2,0c-101.3,0-202.7,0-304,0c-97.7,0-195.4,0-293.1,0c-79.5,0-159,0-238.5,0
					c-46.7,0-93.4,0-140.2,0c-6.5,0-13,0-20,0V561L1224,561z"/>
			</g>
		</g>
		<g>
			<g>
				<path class="st2" d="M1224,522c0,0,50.2,0,75,0c64.9,0,129.9,0,194.8,0c90.4,0,180.8,0,271.2,0c101.3,0,202.7,0,304,0
					c97.7,0,195.4,0,293.1,0c79.5,0,159,0,238.5,0c46.7,0,93.4,0,140.2,0c6.5,0,13.2,0,19.2,0c1,0,1-1,0-1c-24,0-49.4,0-74.2,0
					c-64.9,0-129.9,0-194.8,0c-90.4,0-180.8,0-271.2,0c-101.3,0-202.7,0-304,0c-97.7,0-195.4,0-293.1,0c-79.5,0-159,0-238.5,0
					c-46.7,0-93.4,0-140.2,0c-6.5,0-13,0-20,0V522L1224,522z"/>
			</g>
		</g>
		<g>
			<g>
				<path class="st2" d="M1224,504c0,0,50.2,0,75,0c64.9,0,129.9,0,194.8,0c90.4,0,180.8,0,271.2,0c101.3,0,202.7,0,304,0
					c97.7,0,195.4,0,293.1,0c79.5,0,159,0,238.5,0c46.7,0,93.4,0,140.2,0c6.5,0,13.2,0,19.2,0c1,0,1-1,0-1c-24,0-49.4,0-74.2,0
					c-64.9,0-129.9,0-194.8,0c-90.4,0-180.8,0-271.2,0c-101.3,0-202.7,0-304,0c-97.7,0-195.4,0-293.1,0c-79.5,0-159,0-238.5,0
					c-46.7,0-93.4,0-140.2,0c-6.5,0-13,0-20,0V504L1224,504z"/>
			</g>
		</g>
		<g>
			<g>
				<path class="st2" d="M1224,485c0,0,50.2,0,75,0c64.9,0,129.9,0,194.8,0c90.4,0,180.8,0,271.2,0c101.3,0,202.7,0,304,0
					c97.7,0,195.4,0,293.1,0c79.5,0,159,0,238.5,0c46.7,0,93.4,0,140.2,0c6.5,0,13.2,0,19.2,0c1,0,1-1,0-1c-24,0-49.4,0-74.2,0
					c-64.9,0-129.9,0-194.8,0c-90.4,0-180.8,0-271.2,0c-101.3,0-202.7,0-304,0c-97.7,0-195.4,0-293.1,0c-79.5,0-159,0-238.5,0
					c-46.7,0-93.4,0-140.2,0c-6.5,0-13,0-20,0V485L1224,485z"/>
			</g>
		</g>
		<g>
			<g>
				<path class="st2" d="M1224,466c0,0,50.2,0,75,0c64.9,0,129.9,0,194.8,0c90.4,0,180.8,0,271.2,0c101.3,0,202.7,0,304,0
					c97.7,0,195.4,0,293.1,0c79.5,0,159,0,238.5,0c46.7,0,93.4,0,140.2,0c6.5,0,13.2,0,19.2,0c1,0,1-1,0-1c-24,0-49.4,0-74.2,0
					c-64.9,0-129.9,0-194.8,0c-90.4,0-180.8,0-271.2,0c-101.3,0-202.7,0-304,0c-97.7,0-195.4,0-293.1,0c-79.5,0-159,0-238.5,0
					c-46.7,0-93.4,0-140.2,0c-6.5,0-13,0-20,0V466L1224,466z"/>
			</g>
		</g>
		<g>
			<g>
				<path class="st2" d="M1224,448c0,0,50.2,0,75,0c64.9,0,129.9,0,194.8,0c90.4,0,180.8,0,271.2,0c101.3,0,202.7,0,304,0
					c97.7,0,195.4,0,293.1,0c79.5,0,159,0,238.5,0c46.7,0,93.4,0,140.2,0c6.5,0,13.2,0,19.2,0c1,0,1-1,0-1c-24,0-49.4,0-74.2,0
					c-64.9,0-129.9,0-194.8,0c-90.4,0-180.8,0-271.2,0c-101.3,0-202.7,0-304,0c-97.7,0-195.4,0-293.1,0c-79.5,0-159,0-238.5,0
					c-46.7,0-93.4,0-140.2,0c-6.5,0-13,0-20,0V448L1224,448z"/>
			</g>
		</g>
		<g>
			<g>
				<path class="st2" d="M1224,429c0,0,50.2,0,75,0c64.9,0,129.9,0,194.8,0c90.4,0,180.8,0,271.2,0c101.3,0,202.7,0,304,0
					c97.7,0,195.4,0,293.1,0c79.5,0,159,0,238.5,0c46.7,0,93.4,0,140.2,0c6.5,0,13.2,0,19.2,0c1,0,1-1,0-1c-24,0-49.4,0-74.2,0
					c-64.9,0-129.9,0-194.8,0c-90.4,0-180.8,0-271.2,0c-101.3,0-202.7,0-304,0c-97.7,0-195.4,0-293.1,0c-79.5,0-159,0-238.5,0
					c-46.7,0-93.4,0-140.2,0c-6.5,0-13,0-20,0V429L1224,429z"/>
			</g>
		</g>
		<g>
			<g>
				<path class="st2" d="M1224,372c0,0,50.2,0,75,0c64.9,0,129.9,0,194.8,0c90.4,0,180.8,0,271.2,0c101.3,0,202.7,0,304,0
					c97.7,0,195.4,0,293.1,0c79.5,0,159,0,238.5,0c46.7,0,93.4,0,140.2,0c6.5,0,13.2,0,19.2,0c1,0,1-1,0-1c-24,0-49.4,0-74.2,0
					c-64.9,0-129.9,0-194.8,0c-90.4,0-180.8,0-271.2,0c-101.3,0-202.7,0-304,0c-97.7,0-195.4,0-293.1,0c-79.5,0-159,0-238.5,0
					c-46.7,0-93.4,0-140.2,0c-6.5,0-13,0-20,0V372L1224,372z"/>
			</g>
		</g>
		<g>
			<g>
				<path class="st2" d="M1224,353c0,0,50.2,0,75,0c64.9,0,129.9,0,194.8,0c90.4,0,180.8,0,271.2,0c101.3,0,202.7,0,304,0
					c97.7,0,195.4,0,293.1,0c79.5,0,159,0,238.5,0c46.7,0,93.4,0,140.2,0c6.5,0,13.2,0,19.2,0c1,0,1-1,0-1c-24,0-49.4,0-74.2,0
					c-64.9,0-129.9,0-194.8,0c-90.4,0-180.8,0-271.2,0c-101.3,0-202.7,0-304,0c-97.7,0-195.4,0-293.1,0c-79.5,0-159,0-238.5,0
					c-46.7,0-93.4,0-140.2,0c-6.5,0-13,0-20,0V353L1224,353z"/>
			</g>
		</g>
		<g>
			<g>
				<path class="st2" d="M1224,335c0,0,50.2,0,75,0c64.9,0,129.9,0,194.8,0c90.4,0,180.8,0,271.2,0c101.3,0,202.7,0,304,0
					c97.7,0,195.4,0,293.1,0c79.5,0,159,0,238.5,0c46.7,0,93.4,0,140.2,0c6.5,0,13.2,0,19.2,0c1,0,1-1,0-1c-24,0-49.4,0-74.2,0
					c-64.9,0-129.9,0-194.8,0c-90.4,0-180.8,0-271.2,0c-101.3,0-202.7,0-304,0c-97.7,0-195.4,0-293.1,0c-79.5,0-159,0-238.5,0
					c-46.7,0-93.4,0-140.2,0c-6.5,0-13,0-20,0V335L1224,335z"/>
			</g>
		</g>
		<g>
			<g>
				<path class="st2" d="M1224,316c0,0,50.2,0,75,0c64.9,0,129.9,0,194.8,0c90.4,0,180.8,0,271.2,0c101.3,0,202.7,0,304,0
					c97.7,0,195.4,0,293.1,0c79.5,0,159,0,238.5,0c46.7,0,93.4,0,140.2,0c6.5,0,13.2,0,19.2,0c1,0,1-1,0-1c-24,0-49.4,0-74.2,0
					c-64.9,0-129.9,0-194.8,0c-90.4,0-180.8,0-271.2,0c-101.3,0-202.7,0-304,0c-97.7,0-195.4,0-293.1,0c-79.5,0-159,0-238.5,0
					c-46.7,0-93.4,0-140.2,0c-6.5,0-13,0-20,0V316L1224,316z"/>
			</g>
		</g>
		<g>
			<g>
				<path class="st2" d="M1224,297c0,0,50.2,0,75,0c64.9,0,129.9,0,194.8,0c90.4,0,180.8,0,271.2,0c101.3,0,202.7,0,304,0
					c97.7,0,195.4,0,293.1,0c79.5,0,159,0,238.5,0c46.7,0,93.4,0,140.2,0c6.5,0,13.2,0,19.2,0c1,0,1-1,0-1c-24,0-49.4,0-74.2,0
					c-64.9,0-129.9,0-194.8,0c-90.4,0-180.8,0-271.2,0c-101.3,0-202.7,0-304,0c-97.7,0-195.4,0-293.1,0c-79.5,0-159,0-238.5,0
					c-46.7,0-93.4,0-140.2,0c-6.5,0-13,0-20,0V297L1224,297z"/>
			</g>
		</g>
		<g>
			<g>
				<path class="st2" d="M1224,279c0,0,50.2,0,75,0c64.9,0,129.9,0,194.8,0c90.4,0,180.8,0,271.2,0c101.3,0,202.7,0,304,0
					c97.7,0,195.4,0,293.1,0c79.5,0,159,0,238.5,0c46.7,0,93.4,0,140.2,0c6.5,0,13.2,0,19.2,0c1,0,1-1,0-1c-24,0-49.4,0-74.2,0
					c-64.9,0-129.9,0-194.8,0c-90.4,0-180.8,0-271.2,0c-101.3,0-202.7,0-304,0c-97.7,0-195.4,0-293.1,0c-79.5,0-159,0-238.5,0
					c-46.7,0-93.4,0-140.2,0c-6.5,0-13,0-20,0V279L1224,279z"/>
			</g>
		</g>
		<g>
			<g>
				<path class="st2" d="M1224,240c0,0,50.2,0,75,0c64.9,0,129.9,0,194.8,0c90.4,0,180.8,0,271.2,0c101.3,0,202.7,0,304,0
					c97.7,0,195.4,0,293.1,0c79.5,0,159,0,238.5,0c46.7,0,93.4,0,140.2,0c6.5,0,13.2,0,19.2,0c1,0,1-1,0-1c-24,0-49.4,0-74.2,0
					c-64.9,0-129.9,0-194.8,0c-90.4,0-180.8,0-271.2,0c-101.3,0-202.7,0-304,0c-97.7,0-195.4,0-293.1,0c-79.5,0-159,0-238.5,0
					c-46.7,0-93.4,0-140.2,0c-6.5,0-13,0-20,0V240L1224,240z"/>
			</g>
		</g>
		<g>
			<g>
				<path class="st2" d="M1224,221c0,0,50.2,0,75,0c64.9,0,129.9,0,194.8,0c90.4,0,180.8,0,271.2,0c101.3,0,202.7,0,304,0
					c97.7,0,195.4,0,293.1,0c79.5,0,159,0,238.5,0c46.7,0,93.4,0,140.2,0c6.5,0,13.2,0,19.2,0c1,0,1-1,0-1c-24,0-49.4,0-74.2,0
					c-64.9,0-129.9,0-194.8,0c-90.4,0-180.8,0-271.2,0c-101.3,0-202.7,0-304,0c-97.7,0-195.4,0-293.1,0c-79.5,0-159,0-238.5,0
					c-46.7,0-93.4,0-140.2,0c-6.5,0-13,0-20,0V221L1224,221z"/>
			</g>
		</g>
		<g>
			<g>
				<path class="st2" d="M1224,203c0,0,50.2,0,75,0c64.9,0,129.9,0,194.8,0c90.4,0,180.8,0,271.2,0c101.3,0,202.7,0,304,0
					c97.7,0,195.4,0,293.1,0c79.5,0,159,0,238.5,0c46.7,0,93.4,0,140.2,0c6.5,0,13.2,0,19.2,0c1,0,1-1,0-1c-24,0-49.4,0-74.2,0
					c-64.9,0-129.9,0-194.8,0c-90.4,0-180.8,0-271.2,0c-101.3,0-202.7,0-304,0c-97.7,0-195.4,0-293.1,0c-79.5,0-159,0-238.5,0
					c-46.7,0-93.4,0-140.2,0c-6.5,0-13,0-20,0V203L1224,203z"/>
			</g>
		</g>
		<g>
			<g>
				<path class="st2" d="M1224,184c0,0,50.2,0,75,0c64.9,0,129.9,0,194.8,0c90.4,0,180.8,0,271.2,0c101.3,0,202.7,0,304,0
					c97.7,0,195.4,0,293.1,0c79.5,0,159,0,238.5,0c46.7,0,93.4,0,140.2,0c6.5,0,13.2,0,19.2,0c1,0,1-1,0-1c-24,0-49.4,0-74.2,0
					c-64.9,0-129.9,0-194.8,0c-90.4,0-180.8,0-271.2,0c-101.3,0-202.7,0-304,0c-97.7,0-195.4,0-293.1,0c-79.5,0-159,0-238.5,0
					c-46.7,0-93.4,0-140.2,0c-6.5,0-13,0-20,0V184L1224,184z"/>
			</g>
		</g>
		<g>
			<g>
				<path class="st2" d="M1224,165c0,0,50.2,0,75,0c64.9,0,129.9,0,194.8,0c90.4,0,180.8,0,271.2,0c101.3,0,202.7,0,304,0
					c97.7,0,195.4,0,293.1,0c79.5,0,159,0,238.5,0c46.7,0,93.4,0,140.2,0c6.5,0,13.2,0,19.2,0c1,0,1-1,0-1c-24,0-49.4,0-74.2,0
					c-64.9,0-129.9,0-194.8,0c-90.4,0-180.8,0-271.2,0c-101.3,0-202.7,0-304,0c-97.7,0-195.4,0-293.1,0c-79.5,0-159,0-238.5,0
					c-46.7,0-93.4,0-140.2,0c-6.5,0-13,0-20,0V165L1224,165z"/>
			</g>
		</g>
		<g>
			<g>
				<path class="st2" d="M1224,147c0,0,50.2,0,75,0c64.9,0,129.9,0,194.8,0c90.4,0,180.8,0,271.2,0c101.3,0,202.7,0,304,0
					c97.7,0,195.4,0,293.1,0c79.5,0,159,0,238.5,0c46.7,0,93.4,0,140.2,0c6.5,0,13.2,0,19.2,0c1,0,1-1,0-1c-24,0-49.4,0-74.2,0
					c-64.9,0-129.9,0-194.8,0c-90.4,0-180.8,0-271.2,0c-101.3,0-202.7,0-304,0c-97.7,0-195.4,0-293.1,0c-79.5,0-159,0-238.5,0
					c-46.7,0-93.4,0-140.2,0c-6.5,0-13,0-20,0V147L1224,147z"/>
			</g>
		</g>
		<g>
			<g>
				<path class="st2" d="M1224,108c0,0,50.2,0,75,0c64.9,0,129.9,0,194.8,0c90.4,0,180.8,0,271.2,0c101.3,0,202.7,0,304,0
					c97.7,0,195.4,0,293.1,0c79.5,0,159,0,238.5,0c46.7,0,93.4,0,140.2,0c6.5,0,13.2,0,19.2,0c1,0,1-1,0-1c-24,0-49.4,0-74.2,0
					c-64.9,0-129.9,0-194.8,0c-90.4,0-180.8,0-271.2,0c-101.3,0-202.7,0-304,0c-97.7,0-195.4,0-293.1,0c-79.5,0-159,0-238.5,0
					c-46.7,0-93.4,0-140.2,0c-6.5,0-13,0-20,0V108L1224,108z"/>
			</g>
		</g>
		<g>
			<g>
				<path class="st2" d="M1224,90c0,0,50.2,0,75,0c64.9,0,129.9,0,194.8,0c90.4,0,180.8,0,271.2,0c101.3,0,202.7,0,304,0
					c97.7,0,195.4,0,293.1,0c79.5,0,159,0,238.5,0c46.7,0,93.4,0,140.2,0c6.5,0,13.2,0,19.2,0c1,0,1-1,0-1c-24,0-49.4,0-74.2,0
					c-64.9,0-129.9,0-194.8,0c-90.4,0-180.8,0-271.2,0c-101.3,0-202.7,0-304,0c-97.7,0-195.4,0-293.1,0c-79.5,0-159,0-238.5,0
					c-46.7,0-93.4,0-140.2,0c-6.5,0-13,0-20,0V90L1224,90z"/>
			</g>
		</g>
		<g>
			<g>
				<path class="st2" d="M1224,71c0,0,50.2,0,75,0c64.9,0,129.9,0,194.8,0c90.4,0,180.8,0,271.2,0c101.3,0,202.7,0,304,0
					c97.7,0,195.4,0,293.1,0c79.5,0,159,0,238.5,0c46.7,0,93.4,0,140.2,0c6.5,0,13.2,0,19.2,0c1,0,1-1,0-1c-24,0-49.4,0-74.2,0
					c-64.9,0-129.9,0-194.8,0c-90.4,0-180.8,0-271.2,0c-101.3,0-202.7,0-304,0c-97.7,0-195.4,0-293.1,0c-79.5,0-159,0-238.5,0
					c-46.7,0-93.4,0-140.2,0c-6.5,0-13,0-20,0V71L1224,71z"/>
			</g>
		</g>
		<g>
			<g>
				<path class="st2" d="M1224,52c0,0,50.2,0,75,0c64.9,0,129.9,0,194.8,0c90.4,0,180.8,0,271.2,0c101.3,0,202.7,0,304,0
					c97.7,0,195.4,0,293.1,0c79.5,0,159,0,238.5,0c46.7,0,93.4,0,140.2,0c6.5,0,13.2,0,19.2,0c1,0,1-1,0-1c-24,0-49.4,0-74.2,0
					c-64.9,0-129.9,0-194.8,0c-90.4,0-180.8,0-271.2,0c-101.3,0-202.7,0-304,0c-97.7,0-195.4,0-293.1,0c-79.5,0-159,0-238.5,0
					c-46.7,0-93.4,0-140.2,0c-6.5,0-13,0-20,0V52L1224,52z"/>
			</g>
		</g>
		<g>
			<g>
				<path class="st2" d="M1224,34c0,0,50.2,0,75,0c64.9,0,129.9,0,194.8,0c90.4,0,180.8,0,271.2,0c101.3,0,202.7,0,304,0
					c97.7,0,195.4,0,293.1,0c79.5,0,159,0,238.5,0c46.7,0,93.4,0,140.2,0c6.5,0,13.2,0,19.2,0c1,0,1-1,0-1c-24,0-49.4,0-74.2,0
					c-64.9,0-129.9,0-194.8,0c-90.4,0-180.8,0-271.2,0c-101.3,0-202.7,0-304,0c-97.7,0-195.4,0-293.1,0c-79.5,0-159,0-238.5,0
					c-46.7,0-93.4,0-140.2,0c-6.5,0-13,0-20,0V34L1224,34z"/>
			</g>
		</g>
		<g>
			<g>
				<path class="st2" d="M1224,15c0,0,50.2,0,75,0c64.9,0,129.9,0,194.8,0c90.4,0,180.8,0,271.2,0c101.3,0,202.7,0,304,0
					c97.7,0,195.4,0,293.1,0c79.5,0,159,0,238.5,0c46.7,0,93.4,0,140.2,0c6.5,0,13.2,0,19.2,0c1,0,1-1,0-1c-24,0-49.4,0-74.2,0
					c-64.9,0-129.9,0-194.8,0c-90.4,0-180.8,0-271.2,0c-101.3,0-202.7,0-304,0c-97.7,0-195.4,0-293.1,0c-79.5,0-159,0-238.5,0
					c-46.7,0-93.4,0-140.2,0c-6.5,0-13,0-20,0V15L1224,15z"/>
			</g>
		</g>
		<g>
			<g>
				<path class="st2" d="M1262-80c0,0,0,33.6,0,50.4c0,43.6,0,87.1,0,130.7c0,60,0,120,0,180c0,66.2,0,132.4,0,198.6
					c0,62.1,0,124.1,0,186.2c0,47.7,0,95.3,0,143c0,23,0,46,0,68.9c0,0.7,0,1.2,0,2.2s1,1,1,0c0-17,0-33.7,0-50.5
					c0-43.6,0-87.1,0-130.7c0-60,0-120,0-180c0-66.2,0-132.4,0-198.6c0-62.1,0-124.1,0-186.2c0-47.7,0-95.3,0-143c0-23,0-46,0-68.9
					c0-0.7,0-1.1,0-2.1S1262-81,1262-80C1262-80,1262-81,1262-80z"/>
			</g>
		</g>
	</g>
</g>
<g>
	<g>
		<g>
			<path class="st0" d="M633.7,198.2c0-1.7,0.5-3,1.6-4c1.1-1,2.6-1.5,4.7-1.5c0.5,0,1,0,1.6,0.1c0.6,0.1,1.2,0.2,1.7,0.4
				c0.5,0.2,0.9,0.4,1.3,0.7c0.3,0.3,0.5,0.6,0.5,1c0,0.4-0.1,0.7-0.4,1c-0.3,0.3-0.6,0.4-1,0.4c-0.2,0-0.4-0.1-0.7-0.2
				c-0.4-0.2-0.8-0.4-1.3-0.5c-0.4-0.1-1-0.2-1.7-0.2c-2.3,0-3.4,0.9-3.4,2.7c0,0.6,0.1,1.1,0.4,1.4c0.3,0.4,0.7,0.7,1.4,1
				c0.7,0.3,1.4,0.6,2.2,0.9s1.6,0.6,2.3,1.1c0.7,0.5,1.4,1,1.9,1.8c0.5,0.7,0.8,1.7,0.8,3c0,1.8-0.5,3.1-1.6,4.1s-2.7,1.5-4.9,1.5
				c-0.5,0-1.1,0-1.7-0.1s-1.3-0.2-1.9-0.3c-0.6-0.2-1.1-0.4-1.5-0.7c-0.4-0.3-0.6-0.7-0.6-1.1c0-0.3,0.1-0.7,0.4-0.9
				s0.6-0.4,1.1-0.4c0.1,0,0.2,0,0.3,0c0,0,0.1,0,0.1,0.1c0.5,0.2,1.1,0.4,1.8,0.6s1.3,0.3,2.1,0.3c1.1,0,1.9-0.2,2.6-0.7
				c0.6-0.5,1-1.2,1-2.2c0-0.7-0.1-1.2-0.4-1.6c-0.3-0.3-0.6-0.6-1-0.8c-0.6-0.3-1.4-0.6-2.2-0.9c-0.9-0.3-1.7-0.6-2.5-1
				c-0.8-0.4-1.5-1-2-1.7C633.9,200.5,633.7,199.5,633.7,198.2z"/>
			<path class="st0" d="M649.6,188.5c0-0.4,0.1-0.8,0.4-1c0.3-0.3,0.6-0.4,1.1-0.4s0.9,0.1,1.1,0.4s0.4,0.6,0.4,1v5.3h4
				c0.4,0,0.7,0.1,1,0.4c0.3,0.3,0.4,0.6,0.4,1c0,0.4-0.1,0.8-0.4,1c-0.3,0.3-0.6,0.4-1,0.4h-4v7.7c0,1,0,1.9,0.1,2.5
				c0.1,0.7,0.2,1.2,0.4,1.7c0.2,0.4,0.6,0.8,1,0.9s1,0.3,1.7,0.3c0.1,0,0.3,0,0.4,0c0.1,0,0.2,0,0.4,0c0.2,0,0.5,0,0.7,0
				c0.2,0,0.4,0.1,0.6,0.2c0.2,0.1,0.4,0.2,0.5,0.4c0.1,0.2,0.2,0.4,0.2,0.7c0,0.3-0.1,0.6-0.2,0.8c-0.1,0.2-0.3,0.3-0.5,0.4
				c-0.2,0.1-0.4,0.2-0.7,0.2c-0.3,0-0.5,0-0.8,0c-1.4,0-2.5-0.2-3.3-0.5c-0.9-0.3-1.5-0.8-2.1-1.5s-0.9-1.5-1-2.5
				c-0.2-1-0.3-2.2-0.3-3.5V188.5z"/>
			<path class="st0" d="M671.6,199.5c0-2.8-1.4-4.1-4.1-4.1c-0.7,0-1.2,0.1-1.6,0.2c-0.4,0.2-0.9,0.3-1.3,0.6
				c-0.1,0-0.2,0.1-0.4,0.2c-0.2,0.1-0.4,0.1-0.6,0.1c-0.4,0-0.6-0.1-0.8-0.4c-0.2-0.3-0.3-0.6-0.3-0.9c-0.1-0.4,0.1-0.8,0.4-1.1
				c0.3-0.3,0.7-0.6,1.3-0.8c0.5-0.2,1.1-0.4,1.8-0.4s1.3-0.1,2-0.1c2.4,0,4.2,0.7,5.2,2c1,1.3,1.6,3.3,1.6,5.8v8.5
				c0,0.8,0.2,1.2,0.7,1.2c0.1,0,0.1,0,0.1,0c0,0,0.1,0,0.2,0c0.4,0,0.6,0.1,0.8,0.4c0.2,0.3,0.3,0.6,0.3,0.9c0,0.5-0.2,0.8-0.5,1
				c-0.4,0.2-0.8,0.3-1.2,0.3c-0.6,0-1.2-0.2-1.7-0.5c-0.5-0.3-0.9-0.8-1.2-1.4c-1.5,1.4-3.3,2.1-5.3,2.1c-2,0-3.5-0.5-4.5-1.6
				s-1.5-2.5-1.5-4.2v-0.2c0-3.8,2.3-5.7,6.8-5.7c1.4,0,2.7,0.2,3.9,0.5V199.5z M667.7,203.7c-0.8,0-1.4,0.1-1.9,0.3
				c-0.5,0.2-0.9,0.4-1.1,0.7c-0.3,0.3-0.5,0.6-0.6,1c-0.1,0.4-0.2,0.8-0.2,1.2v0.2c0,0.9,0.2,1.6,0.7,2.2c0.5,0.6,1.4,0.9,2.7,0.9
				c0.8,0,1.6-0.1,2.3-0.4c0.7-0.3,1.4-0.7,2.1-1.3v-4.2c-0.6-0.2-1.3-0.4-2-0.4C668.9,203.8,668.2,203.7,667.7,203.7z"/>
			<path class="st0" d="M683.8,211.4c0,0.4-0.1,0.8-0.4,1.1c-0.3,0.3-0.6,0.4-1.1,0.4c-0.4,0-0.8-0.1-1.1-0.4s-0.4-0.6-0.4-1.1
				v-13.1c0-0.6,0-1.2-0.1-1.6c-0.1-0.4-0.3-0.8-0.5-1.1c-0.1-0.1-0.1-0.2-0.2-0.3s-0.1-0.2-0.1-0.4c0-0.4,0.1-0.7,0.4-1
				s0.6-0.4,1-0.4c0.3,0,0.6,0.1,0.9,0.3c0.3,0.2,0.5,0.4,0.7,0.8c0.8-0.5,1.7-0.9,2.7-1.2c1-0.3,1.8-0.4,2.6-0.4
				c0.8,0,1.3,0.1,1.6,0.4s0.4,0.6,0.4,1c0,0.5-0.1,0.9-0.4,1.2s-0.7,0.4-1.1,0.4c-0.8,0-1.6,0-2.3,0.1s-1.6,0.5-2.6,1.3
				c0,0.2,0,0.4,0.1,0.6c0,0.2,0,0.3,0,0.5V211.4z"/>
		</g>
		<g>
			<path class="st0" d="M644.1,240.4c0-2.8-1.4-4.1-4.1-4.1c-0.7,0-1.2,0.1-1.6,0.2c-0.4,0.2-0.9,0.3-1.3,0.6
				c-0.1,0-0.2,0.1-0.4,0.2c-0.2,0.1-0.4,0.1-0.6,0.1c-0.4,0-0.6-0.1-0.8-0.4c-0.2-0.3-0.3-0.6-0.3-0.9c-0.1-0.4,0.1-0.8,0.4-1.1
				c0.3-0.3,0.7-0.6,1.3-0.8c0.5-0.2,1.1-0.4,1.8-0.4s1.3-0.1,2-0.1c2.4,0,4.2,0.7,5.2,2c1,1.3,1.6,3.3,1.6,5.8v8.5
				c0,0.8,0.2,1.2,0.7,1.2c0.1,0,0.1,0,0.1,0c0,0,0.1,0,0.2,0c0.4,0,0.6,0.1,0.8,0.4c0.2,0.3,0.3,0.6,0.3,0.9c0,0.5-0.2,0.8-0.5,1
				c-0.4,0.2-0.8,0.3-1.2,0.3c-0.6,0-1.2-0.2-1.7-0.5c-0.5-0.3-0.9-0.8-1.2-1.4c-1.5,1.4-3.3,2.1-5.3,2.1c-2,0-3.5-0.5-4.5-1.6
				s-1.5-2.5-1.5-4.2v-0.2c0-3.8,2.3-5.7,6.8-5.7c1.4,0,2.7,0.2,3.9,0.5V240.4z M640.1,244.6c-0.8,0-1.4,0.1-1.9,0.3
				c-0.5,0.2-0.9,0.4-1.1,0.7c-0.3,0.3-0.5,0.6-0.6,1c-0.1,0.4-0.2,0.8-0.2,1.2v0.2c0,0.9,0.2,1.6,0.7,2.2c0.5,0.6,1.4,0.9,2.7,0.9
				c0.8,0,1.6-0.1,2.3-0.4c0.7-0.3,1.4-0.7,2.1-1.3v-4.2c-0.6-0.2-1.3-0.4-2-0.4C641.4,244.7,640.7,244.6,640.1,244.6z"/>
			<path class="st0" d="M652.6,239.2c0-1.7,0.5-3,1.6-4c1.1-1,2.6-1.5,4.7-1.5c0.5,0,1,0,1.6,0.1c0.6,0.1,1.2,0.2,1.7,0.4
				c0.5,0.2,0.9,0.4,1.3,0.7c0.3,0.3,0.5,0.6,0.5,1c0,0.4-0.1,0.7-0.4,1c-0.3,0.3-0.6,0.4-1,0.4c-0.2,0-0.4-0.1-0.7-0.2
				c-0.4-0.2-0.8-0.4-1.3-0.5c-0.4-0.1-1-0.2-1.7-0.2c-2.3,0-3.4,0.9-3.4,2.7c0,0.6,0.1,1.1,0.4,1.4c0.3,0.4,0.7,0.7,1.4,1
				c0.7,0.3,1.4,0.6,2.2,0.9s1.6,0.6,2.3,1.1c0.7,0.5,1.4,1,1.9,1.8c0.5,0.7,0.8,1.7,0.8,3c0,1.8-0.5,3.1-1.6,4.1s-2.7,1.5-4.9,1.5
				c-0.5,0-1.1,0-1.7-0.1s-1.3-0.2-1.9-0.3c-0.6-0.2-1.1-0.4-1.5-0.7c-0.4-0.3-0.6-0.7-0.6-1.1c0-0.3,0.1-0.7,0.4-0.9
				s0.6-0.4,1.1-0.4c0.1,0,0.2,0,0.3,0c0,0,0.1,0,0.1,0.1c0.5,0.2,1.1,0.4,1.8,0.6s1.3,0.3,2.1,0.3c1.1,0,1.9-0.2,2.6-0.7
				c0.6-0.5,1-1.2,1-2.2c0-0.7-0.1-1.2-0.4-1.6c-0.3-0.3-0.6-0.6-1-0.8c-0.6-0.3-1.4-0.6-2.2-0.9c-0.9-0.3-1.7-0.6-2.5-1
				c-0.8-0.4-1.5-1-2-1.7C652.9,241.5,652.6,240.4,652.6,239.2z"/>
			<path class="st0" d="M668.5,229.4c0-0.4,0.1-0.8,0.4-1c0.3-0.3,0.6-0.4,1.1-0.4s0.9,0.1,1.1,0.4s0.4,0.6,0.4,1v5.3h4
				c0.4,0,0.7,0.1,1,0.4c0.3,0.3,0.4,0.6,0.4,1c0,0.4-0.1,0.8-0.4,1c-0.3,0.3-0.6,0.4-1,0.4h-4v7.7c0,1,0,1.9,0.1,2.5
				c0.1,0.7,0.2,1.2,0.4,1.7c0.2,0.4,0.6,0.8,1,0.9s1,0.3,1.7,0.3c0.1,0,0.3,0,0.4,0c0.1,0,0.2,0,0.4,0c0.2,0,0.5,0,0.7,0
				c0.2,0,0.4,0.1,0.6,0.2c0.2,0.1,0.4,0.2,0.5,0.4c0.1,0.2,0.2,0.4,0.2,0.7c0,0.3-0.1,0.6-0.2,0.8c-0.1,0.2-0.3,0.3-0.5,0.4
				c-0.2,0.1-0.4,0.2-0.7,0.2c-0.3,0-0.5,0-0.8,0c-1.4,0-2.5-0.2-3.3-0.5c-0.9-0.3-1.5-0.8-2.1-1.5s-0.9-1.5-1-2.5
				c-0.2-1-0.3-2.2-0.3-3.5V229.4z"/>
			<path class="st0" d="M687.1,251.1c0.8,0,1.5-0.1,2.1-0.3c0.6-0.2,1.2-0.5,1.9-0.8c0.1,0,0.1-0.1,0.2-0.1c0.1,0,0.2,0,0.3,0
				c0.4,0,0.7,0.1,1,0.4c0.3,0.3,0.4,0.6,0.4,0.9c0,0.5-0.2,0.9-0.7,1.2c-0.5,0.3-1,0.6-1.7,0.8c-0.7,0.2-1.3,0.3-2.1,0.4
				s-1.3,0.1-1.9,0.1c-1.1,0-2.1-0.2-2.9-0.5c-0.9-0.3-1.6-0.8-2.2-1.4s-1-1.3-1.3-2.1c-0.3-0.8-0.5-1.6-0.5-2.5v-7.2
				c0-0.9,0.2-1.8,0.5-2.6c0.3-0.8,0.8-1.5,1.4-2.1c0.6-0.6,1.3-1,2.2-1.4c0.9-0.3,1.9-0.5,3.1-0.5c2.2,0,3.8,0.6,4.8,1.7
				c1.1,1.1,1.6,2.7,1.6,4.6c0,1.8-0.5,3.2-1.5,4.2c-1,1-2.7,1.5-5,1.5c-0.6,0-1.2,0-1.9-0.1c-0.7-0.1-1.4-0.1-2-0.3v2.3
				c0,1.1,0.4,1.9,1.1,2.6C684.6,250.8,685.7,251.1,687.1,251.1z M690.3,239.9c0-1.3-0.3-2.2-0.9-2.7c-0.6-0.6-1.5-0.8-2.6-0.8
				c-1.3,0-2.2,0.3-2.9,0.9c-0.7,0.6-1,1.5-1,2.6v2.9c0.7,0.1,1.5,0.2,2.3,0.2c0.8,0,1.4,0.1,1.8,0.1c0.7,0,1.3-0.1,1.8-0.3
				s0.8-0.4,1.1-0.7c0.3-0.3,0.4-0.6,0.5-1C690.3,240.7,690.3,240.3,690.3,239.9z"/>
			<path class="st0" d="M700.9,252.3c0,0.4-0.1,0.8-0.4,1.1c-0.3,0.3-0.6,0.4-1.1,0.4c-0.4,0-0.8-0.1-1.1-0.4s-0.4-0.6-0.4-1.1
				v-13.1c0-0.6,0-1.2-0.1-1.6c-0.1-0.4-0.3-0.8-0.5-1.1c-0.1-0.1-0.1-0.2-0.2-0.3s-0.1-0.2-0.1-0.4c0-0.4,0.1-0.7,0.4-1
				s0.6-0.4,1-0.4c0.3,0,0.6,0.1,0.9,0.3c0.3,0.2,0.5,0.4,0.7,0.8c0.8-0.5,1.7-0.9,2.7-1.2c1-0.3,1.8-0.4,2.6-0.4
				c0.8,0,1.3,0.1,1.6,0.4s0.4,0.6,0.4,1c0,0.5-0.1,0.9-0.4,1.2s-0.7,0.4-1.1,0.4c-0.8,0-1.6,0-2.3,0.1s-1.6,0.5-2.6,1.3
				c0,0.2,0,0.4,0.1,0.6c0,0.2,0,0.3,0,0.5V252.3z"/>
			<path class="st0" d="M714.3,227.6c0,0.5-0.2,1-0.5,1.3s-0.8,0.5-1.3,0.5s-1-0.2-1.3-0.5s-0.5-0.8-0.5-1.3s0.2-1,0.5-1.3
				s0.8-0.5,1.3-0.5s1,0.2,1.3,0.5S714.3,227.1,714.3,227.6z M714,252.3c0,0.4-0.1,0.8-0.4,1.1c-0.3,0.3-0.6,0.4-1.1,0.4
				s-0.8-0.1-1.1-0.4s-0.4-0.6-0.4-1.1v-17.1c0-0.4,0.1-0.8,0.4-1.1s0.6-0.4,1.1-0.4s0.8,0.1,1.1,0.4c0.3,0.3,0.4,0.7,0.4,1.1V252.3
				z"/>
			<path class="st0" d="M719.3,239.2c0-1.7,0.5-3,1.6-4c1.1-1,2.6-1.5,4.7-1.5c0.5,0,1,0,1.6,0.1c0.6,0.1,1.2,0.2,1.7,0.4
				c0.5,0.2,0.9,0.4,1.3,0.7c0.3,0.3,0.5,0.6,0.5,1c0,0.4-0.1,0.7-0.4,1c-0.3,0.3-0.6,0.4-1,0.4c-0.2,0-0.4-0.1-0.7-0.2
				c-0.4-0.2-0.8-0.4-1.3-0.5c-0.4-0.1-1-0.2-1.7-0.2c-2.3,0-3.4,0.9-3.4,2.7c0,0.6,0.1,1.1,0.4,1.4c0.3,0.4,0.7,0.7,1.4,1
				c0.7,0.3,1.4,0.6,2.2,0.9s1.6,0.6,2.3,1.1c0.7,0.5,1.4,1,1.9,1.8c0.5,0.7,0.8,1.7,0.8,3c0,1.8-0.5,3.1-1.6,4.1s-2.7,1.5-4.9,1.5
				c-0.5,0-1.1,0-1.7-0.1s-1.3-0.2-1.9-0.3c-0.6-0.2-1.1-0.4-1.5-0.7c-0.4-0.3-0.6-0.7-0.6-1.1c0-0.3,0.1-0.7,0.4-0.9
				s0.6-0.4,1.1-0.4c0.1,0,0.2,0,0.3,0c0,0,0.1,0,0.1,0.1c0.5,0.2,1.1,0.4,1.8,0.6s1.3,0.3,2.1,0.3c1.1,0,1.9-0.2,2.6-0.7
				c0.6-0.5,1-1.2,1-2.2c0-0.7-0.1-1.2-0.4-1.6c-0.3-0.3-0.6-0.6-1-0.8c-0.6-0.3-1.4-0.6-2.2-0.9c-0.9-0.3-1.7-0.6-2.5-1
				c-0.8-0.4-1.5-1-2-1.7C719.6,241.5,719.3,240.4,719.3,239.2z"/>
			<path class="st0" d="M738.2,241.4l7-7.3c0.1-0.1,0.2-0.2,0.4-0.3c0.2-0.1,0.3-0.1,0.5-0.1c0.4,0,0.8,0.1,1,0.4
				c0.3,0.3,0.4,0.6,0.4,1c0,0.4-0.1,0.7-0.4,1l-5.7,5.8l6.5,9.7c0.1,0.1,0.1,0.3,0.2,0.4c0,0.2,0.1,0.3,0.1,0.4
				c0,0.4-0.2,0.7-0.4,0.9c-0.3,0.2-0.6,0.3-1,0.3c-0.5,0-0.9-0.2-1.2-0.7l-6-9.1l-1.4,1.4v6.9c0,0.4-0.1,0.8-0.4,1.1
				c-0.3,0.3-0.6,0.4-1.1,0.4c-0.4,0-0.8-0.1-1.1-0.4s-0.4-0.6-0.4-1.1v-25.4c0-0.4,0.1-0.8,0.4-1.1s0.6-0.4,1.1-0.4
				c0.4,0,0.8,0.1,1.1,0.4c0.3,0.3,0.4,0.6,0.4,1.1V241.4z"/>
		</g>
		<g>
			<path class="st0" d="M634.5,270.8c0-0.4,0.1-0.8,0.4-1.1s0.6-0.4,1.1-0.4c0.4,0,0.8,0.1,1.1,0.4c0.3,0.3,0.4,0.6,0.4,1.1v22.9
				c0,0.4,0,0.8,0.1,1.1c0.1,0.3,0.2,0.5,0.4,0.8c0.1,0.1,0.1,0.2,0.2,0.3s0.1,0.3,0.1,0.4c0,0.4-0.1,0.7-0.4,1
				c-0.3,0.3-0.6,0.4-1,0.4c-0.2,0-0.5,0-0.8-0.1s-0.5-0.3-0.8-0.5c-0.2-0.3-0.5-0.7-0.6-1.2c-0.2-0.5-0.3-1.2-0.3-2.1V270.8z"/>
			<path class="st0" d="M647,271.5c0,0.5-0.2,1-0.5,1.3s-0.8,0.5-1.3,0.5s-1-0.2-1.3-0.5s-0.5-0.8-0.5-1.3s0.2-1,0.5-1.3
				s0.8-0.5,1.3-0.5s1,0.2,1.3,0.5S647,271,647,271.5z M646.7,296.2c0,0.4-0.1,0.8-0.4,1.1c-0.3,0.3-0.6,0.4-1.1,0.4
				s-0.8-0.1-1.1-0.4s-0.4-0.6-0.4-1.1v-17.1c0-0.4,0.1-0.8,0.4-1.1s0.6-0.4,1.1-0.4s0.8,0.1,1.1,0.4c0.3,0.3,0.4,0.7,0.4,1.1V296.2
				z"/>
			<path class="st0" d="M652.8,273.3c0-0.4,0.1-0.8,0.4-1c0.3-0.3,0.6-0.4,1.1-0.4s0.9,0.1,1.1,0.4s0.4,0.6,0.4,1v5.3h4
				c0.4,0,0.7,0.1,1,0.4c0.3,0.3,0.4,0.6,0.4,1c0,0.4-0.1,0.8-0.4,1c-0.3,0.3-0.6,0.4-1,0.4h-4v7.7c0,1,0,1.9,0.1,2.5
				c0.1,0.7,0.2,1.2,0.4,1.7c0.2,0.4,0.6,0.8,1,0.9s1,0.3,1.7,0.3c0.1,0,0.3,0,0.4,0c0.1,0,0.2,0,0.4,0c0.2,0,0.5,0,0.7,0
				c0.2,0,0.4,0.1,0.6,0.2c0.2,0.1,0.4,0.2,0.5,0.4c0.1,0.2,0.2,0.4,0.2,0.7c0,0.3-0.1,0.6-0.2,0.8c-0.1,0.2-0.3,0.3-0.5,0.4
				c-0.2,0.1-0.4,0.2-0.7,0.2c-0.3,0-0.5,0-0.8,0c-1.4,0-2.5-0.2-3.3-0.5c-0.9-0.3-1.5-0.8-2.1-1.5s-0.9-1.5-1-2.5
				c-0.2-1-0.3-2.2-0.3-3.5V273.3z"/>
			<path class="st0" d="M664.9,273.3c0-0.4,0.1-0.8,0.4-1c0.3-0.3,0.6-0.4,1.1-0.4s0.9,0.1,1.1,0.4s0.4,0.6,0.4,1v5.3h4
				c0.4,0,0.7,0.1,1,0.4c0.3,0.3,0.4,0.6,0.4,1c0,0.4-0.1,0.8-0.4,1c-0.3,0.3-0.6,0.4-1,0.4h-4v7.7c0,1,0,1.9,0.1,2.5
				c0.1,0.7,0.2,1.2,0.4,1.7c0.2,0.4,0.6,0.8,1,0.9s1,0.3,1.7,0.3c0.1,0,0.3,0,0.4,0c0.1,0,0.2,0,0.4,0c0.2,0,0.5,0,0.7,0
				c0.2,0,0.4,0.1,0.6,0.2c0.2,0.1,0.4,0.2,0.5,0.4c0.1,0.2,0.2,0.4,0.2,0.7c0,0.3-0.1,0.6-0.2,0.8c-0.1,0.2-0.3,0.3-0.5,0.4
				c-0.2,0.1-0.4,0.2-0.7,0.2c-0.3,0-0.5,0-0.8,0c-1.4,0-2.5-0.2-3.3-0.5c-0.9-0.3-1.5-0.8-2.1-1.5s-0.9-1.5-1-2.5
				c-0.2-1-0.3-2.2-0.3-3.5V273.3z"/>
			<path class="st0" d="M677.4,270.8c0-0.4,0.1-0.8,0.4-1.1s0.6-0.4,1.1-0.4c0.4,0,0.8,0.1,1.1,0.4c0.3,0.3,0.4,0.6,0.4,1.1v22.9
				c0,0.4,0,0.8,0.1,1.1c0.1,0.3,0.2,0.5,0.4,0.8c0.1,0.1,0.1,0.2,0.2,0.3s0.1,0.3,0.1,0.4c0,0.4-0.1,0.7-0.4,1
				c-0.3,0.3-0.6,0.4-1,0.4c-0.2,0-0.5,0-0.8-0.1s-0.5-0.3-0.8-0.5c-0.2-0.3-0.5-0.7-0.6-1.2c-0.2-0.5-0.3-1.2-0.3-2.1V270.8z"/>
			<path class="st0" d="M692.3,295c0.8,0,1.5-0.1,2.1-0.3c0.6-0.2,1.2-0.5,1.9-0.8c0.1,0,0.1-0.1,0.2-0.1c0.1,0,0.2,0,0.3,0
				c0.4,0,0.7,0.1,1,0.4c0.3,0.3,0.4,0.6,0.4,0.9c0,0.5-0.2,0.9-0.7,1.2c-0.5,0.3-1,0.6-1.7,0.8c-0.7,0.2-1.3,0.3-2.1,0.4
				s-1.3,0.1-1.9,0.1c-1.1,0-2.1-0.2-2.9-0.5c-0.9-0.3-1.6-0.8-2.2-1.4s-1-1.3-1.3-2.1c-0.3-0.8-0.5-1.6-0.5-2.5V284
				c0-0.9,0.2-1.8,0.5-2.6c0.3-0.8,0.8-1.5,1.4-2.1c0.6-0.6,1.3-1,2.2-1.4c0.9-0.3,1.9-0.5,3.1-0.5c2.2,0,3.8,0.6,4.8,1.7
				c1.1,1.1,1.6,2.7,1.6,4.6c0,1.8-0.5,3.2-1.5,4.2c-1,1-2.7,1.5-5,1.5c-0.6,0-1.2,0-1.9-0.1c-0.7-0.1-1.4-0.1-2-0.3v2.3
				c0,1.1,0.4,1.9,1.1,2.6C689.9,294.7,690.9,295,692.3,295z M695.6,283.8c0-1.3-0.3-2.2-0.9-2.7c-0.6-0.6-1.5-0.8-2.6-0.8
				c-1.3,0-2.2,0.3-2.9,0.9c-0.7,0.6-1,1.5-1,2.6v2.9c0.7,0.1,1.5,0.2,2.3,0.2c0.8,0,1.4,0.1,1.8,0.1c0.7,0,1.3-0.1,1.8-0.3
				s0.8-0.4,1.1-0.7c0.3-0.3,0.4-0.6,0.5-1C695.6,284.6,695.6,284.2,695.6,283.8z"/>
			<path class="st0" d="M736,284.1c0-1.1-0.3-2-0.9-2.8c-0.6-0.7-1.5-1.1-2.7-1.1c-0.8,0-1.6,0.2-2.4,0.6c-0.8,0.4-1.4,0.9-1.9,1.5
				c0.1,0.6,0.2,1.2,0.2,1.7v12.1c0,0.4-0.1,0.8-0.4,1c-0.2,0.3-0.6,0.4-1.1,0.4c-0.5,0-0.9-0.1-1.1-0.4c-0.2-0.3-0.4-0.6-0.4-1V285
				c0-0.7,0-1.3-0.1-1.9c-0.1-0.6-0.2-1.1-0.5-1.5c-0.2-0.4-0.6-0.7-1-1c-0.4-0.2-1-0.3-1.7-0.3c-0.9,0-1.7,0.2-2.5,0.5
				c-0.8,0.3-1.5,0.7-2,1.1c0.1,0.5,0.1,0.9,0.1,1.2v13.2c0,0.4-0.1,0.8-0.4,1c-0.2,0.3-0.6,0.4-1.1,0.4s-0.9-0.1-1.1-0.4
				c-0.2-0.3-0.4-0.6-0.4-1V283c0-0.5,0-1-0.1-1.2c0-0.3-0.1-0.5-0.2-0.7c-0.1-0.2-0.1-0.3-0.2-0.4c-0.1-0.1-0.2-0.2-0.3-0.4
				c-0.1-0.1-0.1-0.2-0.2-0.3s-0.1-0.3-0.1-0.5c0-0.4,0.1-0.7,0.4-1c0.3-0.3,0.6-0.4,1-0.4c0.3,0,0.6,0.1,0.9,0.3
				c0.2,0.2,0.5,0.4,0.7,0.8c0.9-0.5,1.8-1,2.7-1.3c1-0.3,1.9-0.5,2.9-0.5c1.1,0,2,0.2,2.7,0.5c0.7,0.3,1.3,0.8,1.8,1.5
				c0.8-0.6,1.7-1.1,2.6-1.5c0.9-0.3,1.9-0.5,3-0.5c2.1,0,3.7,0.6,4.8,1.8c1.1,1.2,1.7,2.8,1.7,4.8v12.1c0,0.4-0.1,0.8-0.4,1
				c-0.2,0.3-0.6,0.4-1.1,0.4c-0.5,0-0.9-0.1-1.1-0.4c-0.2-0.3-0.4-0.6-0.4-1V284.1z"/>
			<path class="st0" d="M754.4,284.3c0-2.8-1.4-4.1-4.1-4.1c-0.7,0-1.2,0.1-1.6,0.2c-0.4,0.2-0.9,0.3-1.3,0.6
				c-0.1,0-0.2,0.1-0.4,0.2c-0.2,0.1-0.4,0.1-0.6,0.1c-0.4,0-0.6-0.1-0.8-0.4c-0.2-0.3-0.3-0.6-0.3-0.9c-0.1-0.4,0.1-0.8,0.4-1.1
				c0.3-0.3,0.7-0.6,1.3-0.8c0.5-0.2,1.1-0.4,1.8-0.4s1.3-0.1,2-0.1c2.4,0,4.2,0.7,5.2,2c1,1.3,1.6,3.3,1.6,5.8v8.5
				c0,0.8,0.2,1.2,0.7,1.2c0.1,0,0.1,0,0.1,0c0,0,0.1,0,0.2,0c0.4,0,0.6,0.1,0.8,0.4c0.2,0.3,0.3,0.6,0.3,0.9c0,0.5-0.2,0.8-0.5,1
				c-0.4,0.2-0.8,0.3-1.2,0.3c-0.6,0-1.2-0.2-1.7-0.5c-0.5-0.3-0.9-0.8-1.2-1.4c-1.5,1.4-3.3,2.1-5.3,2.1c-2,0-3.5-0.5-4.5-1.6
				s-1.5-2.5-1.5-4.2v-0.2c0-3.8,2.3-5.7,6.8-5.7c1.4,0,2.7,0.2,3.9,0.5V284.3z M750.4,288.5c-0.8,0-1.4,0.1-1.9,0.3
				c-0.5,0.2-0.9,0.4-1.1,0.7c-0.3,0.3-0.5,0.6-0.6,1c-0.1,0.4-0.2,0.8-0.2,1.2v0.2c0,0.9,0.2,1.6,0.7,2.2c0.5,0.6,1.4,0.9,2.7,0.9
				c0.8,0,1.6-0.1,2.3-0.4c0.7-0.3,1.4-0.7,2.1-1.3v-4.2c-0.6-0.2-1.3-0.4-2-0.4C751.7,288.6,751,288.5,750.4,288.5z"/>
			<path class="st0" d="M766.6,296.2c0,0.4-0.1,0.8-0.4,1c-0.2,0.3-0.6,0.4-1.1,0.4s-0.9-0.1-1.1-0.4c-0.2-0.3-0.4-0.6-0.4-1V283
				c0-0.5,0-1-0.1-1.2c0-0.3-0.1-0.5-0.2-0.7c-0.1-0.2-0.1-0.3-0.2-0.4c-0.1-0.1-0.2-0.2-0.3-0.4c-0.1-0.1-0.1-0.2-0.2-0.3
				s-0.1-0.3-0.1-0.5c0-0.4,0.1-0.7,0.4-1c0.3-0.3,0.6-0.4,1-0.4c0.4,0,0.7,0.1,0.9,0.3s0.5,0.5,0.7,0.8c0.9-0.6,1.8-1,2.7-1.3
				c1-0.3,1.9-0.4,2.8-0.4c2.1,0,3.6,0.7,4.6,2c1,1.3,1.5,3.1,1.5,5.3v11.3c0,0.4-0.1,0.8-0.4,1c-0.3,0.3-0.6,0.4-1.1,0.4
				s-0.9-0.1-1.1-0.4c-0.3-0.3-0.4-0.6-0.4-1v-11.3c0-1.5-0.3-2.6-0.9-3.4s-1.5-1.2-2.7-1.2c-0.7,0-1.5,0.1-2.2,0.4
				s-1.4,0.7-2.1,1.2c0.1,0.4,0.1,0.8,0.1,1.1V296.2z"/>
		</g>
	</g>
	<g>
		<path class="st3" d="M525.7,175.9c-1,0-2.1,0.1-3,0.3c-1.6,0.1-3.3,0.5-5,1c-0.1,0-0.2,0.1-0.3,0.1c0,0-0.1,0-0.1,0
			c-2.5,0.8-4.9,2.2-7,3.7c0,0-0.1,0-0.1,0.1c-4,3.2-6.6,7.8-6.5,13.1c-0.1,1.7,0.1,3.3,0.6,5l4,11.9c0.2,0.5,0.3,1,0.5,1.5
			c0.5,2.7,0.2,5.5-1,7.7c-1.7,3-5.9,4.1-9.1,4.1l-12.6-0.1c-2.1,0-4.1,0.5-6,1.3c-5.1,2.2-8.4,6.4-10,11.5
			c-0.6,2.1-0.6,4.4-0.6,6.5v0c0,2.2,0.1,4.4,0.6,6.5c1.7,5.2,4.7,9.5,10,11.5c1.9,0.8,3.9,1.3,6,1.3l12.6-0.1c3.4,0,7,1.3,9.1,4.1
			c1.2,2.2,1.5,5,1,7.7c-0.1,0.5-0.3,0.9-0.5,1.5l-4,11.9c-0.5,1.7-0.8,3.3-0.6,5c-0.1,5.3,2.6,9.9,6.5,13.1c0,0,0.1,0,0.1,0.1
			c0.6,0.4,1.2,0.9,1.8,1.2c3.1,2,6.8,3.3,10.5,3.6c1.9,0.3,4.3,0.5,6.2,0c1.7-0.4,3.3-1.1,4.9-2c1.6-0.9,2.9-2.1,4.1-3.5
			c0.5-0.6,1-1.3,1.4-2c0.8-1.1,1.4-2.3,1.8-3.6c0,0,3.8-11.9,3.8-12c0.9-2.7,2.7-5.3,5.2-6.7c0,0,0.1,0,0.1-0.1
			c2.8-1.6,6.8-0.9,9.4,0.9c0.3,0.2,0.7,0.5,1,0.8l10.1,7.4c1.7,1.3,3.8,2.1,5.9,2.6c0.9,0.2,1.8,0.3,2.8,0.4c0.1,0,0.1,0,0.2,0
			c3.4,0.1,7.4-1,10.1-2.9c0,0,0.1,0,0.1-0.1c0.8-0.5,1.5-1.2,2.3-1.8c1-0.9,2-2,2.9-3.1c0.1-0.1,0.1-0.2,0.2-0.3
			c1.5-2,3.1-4.4,3.6-6.9c0.1-0.3,0.1-0.5,0.2-0.8c0.4-1.2,0.6-2.5,0.7-3.8c0.1-1.7,0-3.4-0.4-5.1c0-0.1,0-0.2-0.1-0.3
			c0-0.1,0-0.1,0-0.2v0c-0.5-1.9-1.4-3.8-2.7-5.5c-0.9-1.2-1.9-2.3-3.1-3.2c-0.1-0.1-0.2-0.1-0.3-0.2l-9.3-6.6
			c-0.6-0.4-1.2-0.9-1.8-1.3c-2.3-2.1-3.9-4.8-4.1-7.6c0.2-2.8,1.8-5.6,4.1-7.6c0.6-0.4,1.2-0.9,1.8-1.3l9.3-6.6
			c0.1-0.1,0.2-0.1,0.3-0.2c1.2-0.9,2.1-2,3.1-3.2c1.3-1.7,2.2-3.5,2.7-5.5v0c0.5-1.8,0.6-3.7,0.5-5.6c-0.3-3.6-1.5-7.1-3.6-10.1
			c-0.9-1.4-2-2.7-3.2-3.8c0,0,0,0-0.1-0.1c-1-0.9-2.1-1.8-3.1-2.6c0,0-0.1,0-0.1-0.1c-3.7-2.7-8.7-3.5-13.1-2.6c-0.1,0-0.1,0-0.2,0
			c-0.1,0-0.1,0-0.2,0c-1.9,0.5-3.9,1.2-5.5,2.4c0,0-10.1,7.4-10.1,7.4c-0.4,0.3-0.7,0.5-1,0.8c-2.8,1.6-6.4,2.6-9.4,0.9
			c-2.3-1.3-4.2-3.5-5-5.9c-1.4-4.2-2.7-8.5-4-12.7c-0.4-1.3-1-2.5-1.8-3.6c-0.4-0.7-0.9-1.4-1.4-2c-1.1-1.4-2.4-2.6-4.1-3.5
			c-1.5-0.9-3.2-1.6-4.9-2C527.9,175.9,526.8,175.8,525.7,175.9z"/>
	</g>
</g>
</svg>
