<?xml version="1.0" encoding="utf-8"?>
<!-- Generator: Adobe Illustrator 19.1.0, SVG Export Plug-In . SVG Version: 6.00 Build 0)  -->
<svg version="1.1" id="Layer_1" xmlns="http://www.w3.org/2000/svg" xmlns:xlink="http://www.w3.org/1999/xlink" x="0px" y="0px"
	 viewBox="0 0 1280 800" style="enable-background:new 0 0 1280 800;" xml:space="preserve">
<style type="text/css">
	.st0{fill:#4D4D4D;}
	.st1{clip-path:url(#SVGID_2_);}
	.st2{fill:#E6E6E6;}
	.st3{fill:#F57C00;}
	.st4{fill:#FF931E;}
	.st5{fill:#F2F2F2;}
	.st6{fill:#FFFFFF;}
	.st7{opacity:0.41;}
	.st8{fill:#00FF00;}
	.st9{fill:#0000FF;}
	.st10{fill:#FF0000;}
</style>
<g>
	<defs>
		<rect id="SVGID_1_" x="-1344" width="1280" height="800"/>
	</defs>
	<clipPath id="SVGID_2_">
		<use xlink:href="#SVGID_1_"  style="overflow:visible;"/>
	</clipPath>
	<g class="st1">
		<g>
			<g>
				<path class="st2" d="M-1476-79c25,0,49.6,0,74.4,0c64.9,0,129.9,0,194.8,0c90.4,0,180.8,0,271.2,0c101.3,0,202.7,0,304,0
					c97.7,0,195.4,0,293.1,0c79.5,0,159,0,238.5,0c46.7,0,93.4,0,140.2,0c4.9,0,9.7,0,14.6,0c1.7,0,4.2,0.5,4.2-0.4
					c0,10.3,0,20.7,0,31c0,67.4,0,134.8,0,202.1c0,98.6,0,197.3,0,295.9c0,92.7,0,185.4,0,278.1c0,49.5,0,99,0,148.5
					c0,1.3,0,2.6,0,3.9c0,0.8,1.1-0.1,0.4-0.1c-2.6,0-5.2,0-7.8,0c-14.3,0-28.6,0-42.9,0c-58.8,0-117.6,0-176.4,0
					c-86.9,0-173.8,0-260.7,0c-100.4,0-200.9,0-301.3,0c-99.4,0-198.9,0-298.3,0c-83.8,0-167.7,0-251.5,0c-53.7,0-107.4,0-161.1,0
					c-11,0-22,0-33,0c-0.8,0-1.6,0-2.4,0c-0.2,0,0,0.9,0-0.2c0-4.2,0-8.3,0-12.5c0-57.8,0-115.6,0-173.4c0-95.8,0-191.5,0-287.3
					c0-96.5,0-193,0-289.5c0-60,0-120.1,0-180.1C-1476-68.4-1476-74-1476-79c0-1-1-1-1,0c0,37,0,74.4,0,111.9c0,87.5,0,175,0,262.5
					c0,100.3,0,200.7,0,301c0,76,0,151.9,0,227.9c0,18.7,0,37.5,0,56.2c0,0.2,0.6,0.5,0.8,0.5c24.9,0,49.8,0,74.6,0
					c64.9,0,129.9,0,194.8,0c90.4,0,180.8,0,271.2,0c101.3,0,202.7,0,304,0c97.7,0,195.4,0,293.1,0c79.5,0,159,0,238.5,0
					c46.7,0,93.4,0,140.2,0c6.5,0,13,0,19.6,0c0.2,0,0.2-0.2,0.2-0.5c0-37.4,0-74.9,0-112.3c0-87.5,0-175,0-262.5
					c0-100.3,0-200.7,0-301c0-76,0-151.9,0-227.9c0-18.7,0-37.5,0-56.2c0-0.2,0-0.6-0.2-0.6c-24.9,0-49.8,0-74.6,0
					c-64.9,0-129.9,0-194.8,0c-90.4,0-180.8,0-271.2,0c-101.3,0-202.7,0-304,0c-97.7,0-195.4,0-293.1,0c-79.5,0-159,0-238.5,0
					c-46.7,0-93.4,0-140.2,0c-6.5,0-13.4,0-19.4,0C-1477-80-1477-79-1476-79z"/>
			</g>
		</g>
		<g>
			<g>
				<path class="st2" d="M-1476,786c0,0,50.2,0,75,0c64.9,0,129.9,0,194.8,0c90.4,0,180.8,0,271.2,0c101.3,0,202.7,0,304,0
					c97.7,0,195.4,0,293.1,0c79.5,0,159,0,238.5,0c46.7,0,93.4,0,140.2,0c6.5,0,13.2,0,19.2,0c1,0,1-1,0-1c-24,0-49.4,0-74.2,0
					c-64.9,0-129.9,0-194.8,0c-90.4,0-180.8,0-271.2,0c-101.3,0-202.7,0-304,0c-97.7,0-195.4,0-293.1,0c-79.5,0-159,0-238.5,0
					c-46.7,0-93.4,0-140.2,0c-6.5,0-13,0-20,0V786L-1476,786z"/>
			</g>
		</g>
		<g>
			<g>
				<path class="st2" d="M-1476,767c0,0,50.2,0,75,0c64.9,0,129.9,0,194.8,0c90.4,0,180.8,0,271.2,0c101.3,0,202.7,0,304,0
					c97.7,0,195.4,0,293.1,0c79.5,0,159,0,238.5,0c46.7,0,93.4,0,140.2,0c6.5,0,13.2,0,19.2,0c1,0,1-1,0-1c-24,0-49.4,0-74.2,0
					c-64.9,0-129.9,0-194.8,0c-90.4,0-180.8,0-271.2,0c-101.3,0-202.7,0-304,0c-97.7,0-195.4,0-293.1,0c-79.5,0-159,0-238.5,0
					c-46.7,0-93.4,0-140.2,0c-6.5,0-13,0-20,0V767L-1476,767z"/>
			</g>
		</g>
		<g>
			<g>
				<path class="st2" d="M-1476,749c0,0,50.2,0,75,0c64.9,0,129.9,0,194.8,0c90.4,0,180.8,0,271.2,0c101.3,0,202.7,0,304,0
					c97.7,0,195.4,0,293.1,0c79.5,0,159,0,238.5,0c46.7,0,93.4,0,140.2,0c6.5,0,13.2,0,19.2,0c1,0,1-1,0-1c-24,0-49.4,0-74.2,0
					c-64.9,0-129.9,0-194.8,0c-90.4,0-180.8,0-271.2,0c-101.3,0-202.7,0-304,0c-97.7,0-195.4,0-293.1,0c-79.5,0-159,0-238.5,0
					c-46.7,0-93.4,0-140.2,0c-6.5,0-13,0-20,0V749L-1476,749z"/>
			</g>
		</g>
		<g>
			<g>
				<path class="st2" d="M-1476,730c0,0,50.2,0,75,0c64.9,0,129.9,0,194.8,0c90.4,0,180.8,0,271.2,0c101.3,0,202.7,0,304,0
					c97.7,0,195.4,0,293.1,0c79.5,0,159,0,238.5,0c46.7,0,93.4,0,140.2,0c6.5,0,13.2,0,19.2,0c1,0,1-1,0-1c-24,0-49.4,0-74.2,0
					c-64.9,0-129.9,0-194.8,0c-90.4,0-180.8,0-271.2,0c-101.3,0-202.7,0-304,0c-97.7,0-195.4,0-293.1,0c-79.5,0-159,0-238.5,0
					c-46.7,0-93.4,0-140.2,0c-6.5,0-13,0-20,0V730L-1476,730z"/>
			</g>
		</g>
		<g>
			<g>
				<path class="st2" d="M-1476,711c0,0,50.2,0,75,0c64.9,0,129.9,0,194.8,0c90.4,0,180.8,0,271.2,0c101.3,0,202.7,0,304,0
					c97.7,0,195.4,0,293.1,0c79.5,0,159,0,238.5,0c46.7,0,93.4,0,140.2,0c6.5,0,13.2,0,19.2,0c1,0,1-1,0-1c-24,0-49.4,0-74.2,0
					c-64.9,0-129.9,0-194.8,0c-90.4,0-180.8,0-271.2,0c-101.3,0-202.7,0-304,0c-97.7,0-195.4,0-293.1,0c-79.5,0-159,0-238.5,0
					c-46.7,0-93.4,0-140.2,0c-6.5,0-13,0-20,0V711L-1476,711z"/>
			</g>
		</g>
		<g>
			<g>
				<path class="st2" d="M-1476,693c0,0,50.2,0,75,0c64.9,0,129.9,0,194.8,0c90.4,0,180.8,0,271.2,0c101.3,0,202.7,0,304,0
					c97.7,0,195.4,0,293.1,0c79.5,0,159,0,238.5,0c46.7,0,93.4,0,140.2,0c6.5,0,13.2,0,19.2,0c1,0,1-1,0-1c-24,0-49.4,0-74.2,0
					c-64.9,0-129.9,0-194.8,0c-90.4,0-180.8,0-271.2,0c-101.3,0-202.7,0-304,0c-97.7,0-195.4,0-293.1,0c-79.5,0-159,0-238.5,0
					c-46.7,0-93.4,0-140.2,0c-6.5,0-13,0-20,0V693L-1476,693z"/>
			</g>
		</g>
		<g>
			<g>
				<path class="st2" d="M-1476,654c0,0,50.2,0,75,0c64.9,0,129.9,0,194.8,0c90.4,0,180.8,0,271.2,0c101.3,0,202.7,0,304,0
					c97.7,0,195.4,0,293.1,0c79.5,0,159,0,238.5,0c46.7,0,93.4,0,140.2,0c6.5,0,13.2,0,19.2,0c1,0,1-1,0-1c-24,0-49.4,0-74.2,0
					c-64.9,0-129.9,0-194.8,0c-90.4,0-180.8,0-271.2,0c-101.3,0-202.7,0-304,0c-97.7,0-195.4,0-293.1,0c-79.5,0-159,0-238.5,0
					c-46.7,0-93.4,0-140.2,0c-6.5,0-13,0-20,0V654L-1476,654z"/>
			</g>
		</g>
		<g>
			<g>
				<path class="st2" d="M-1476,636c0,0,50.2,0,75,0c64.9,0,129.9,0,194.8,0c90.4,0,180.8,0,271.2,0c101.3,0,202.7,0,304,0
					c97.7,0,195.4,0,293.1,0c79.5,0,159,0,238.5,0c46.7,0,93.4,0,140.2,0c6.5,0,13.2,0,19.2,0c1,0,1-1,0-1c-24,0-49.4,0-74.2,0
					c-64.9,0-129.9,0-194.8,0c-90.4,0-180.8,0-271.2,0c-101.3,0-202.7,0-304,0c-97.7,0-195.4,0-293.1,0c-79.5,0-159,0-238.5,0
					c-46.7,0-93.4,0-140.2,0c-6.5,0-13,0-20,0V636L-1476,636z"/>
			</g>
		</g>
		<g>
			<g>
				<path class="st2" d="M-1476,617c0,0,50.2,0,75,0c64.9,0,129.9,0,194.8,0c90.4,0,180.8,0,271.2,0c101.3,0,202.7,0,304,0
					c97.7,0,195.4,0,293.1,0c79.5,0,159,0,238.5,0c46.7,0,93.4,0,140.2,0c6.5,0,13.2,0,19.2,0c1,0,1-1,0-1c-24,0-49.4,0-74.2,0
					c-64.9,0-129.9,0-194.8,0c-90.4,0-180.8,0-271.2,0c-101.3,0-202.7,0-304,0c-97.7,0-195.4,0-293.1,0c-79.5,0-159,0-238.5,0
					c-46.7,0-93.4,0-140.2,0c-6.5,0-13,0-20,0V617L-1476,617z"/>
			</g>
		</g>
		<g>
			<g>
				<path class="st2" d="M-1476,598c0,0,50.2,0,75,0c64.9,0,129.9,0,194.8,0c90.4,0,180.8,0,271.2,0c101.3,0,202.7,0,304,0
					c97.7,0,195.4,0,293.1,0c79.5,0,159,0,238.5,0c46.7,0,93.4,0,140.2,0c6.5,0,13.2,0,19.2,0c1,0,1-1,0-1c-24,0-49.4,0-74.2,0
					c-64.9,0-129.9,0-194.8,0c-90.4,0-180.8,0-271.2,0c-101.3,0-202.7,0-304,0c-97.7,0-195.4,0-293.1,0c-79.5,0-159,0-238.5,0
					c-46.7,0-93.4,0-140.2,0c-6.5,0-13,0-20,0V598L-1476,598z"/>
			</g>
		</g>
		<g>
			<g>
				<path class="st2" d="M-1476,580c0,0,50.2,0,75,0c64.9,0,129.9,0,194.8,0c90.4,0,180.8,0,271.2,0c101.3,0,202.7,0,304,0
					c97.7,0,195.4,0,293.1,0c79.5,0,159,0,238.5,0c46.7,0,93.4,0,140.2,0c6.5,0,13.2,0,19.2,0c1,0,1-1,0-1c-24,0-49.4,0-74.2,0
					c-64.9,0-129.9,0-194.8,0c-90.4,0-180.8,0-271.2,0c-101.3,0-202.7,0-304,0c-97.7,0-195.4,0-293.1,0c-79.5,0-159,0-238.5,0
					c-46.7,0-93.4,0-140.2,0c-6.5,0-13,0-20,0V580L-1476,580z"/>
			</g>
		</g>
		<g>
			<g>
				<path class="st2" d="M-1476,561c0,0,50.2,0,75,0c64.9,0,129.9,0,194.8,0c90.4,0,180.8,0,271.2,0c101.3,0,202.7,0,304,0
					c97.7,0,195.4,0,293.1,0c79.5,0,159,0,238.5,0c46.7,0,93.4,0,140.2,0c6.5,0,13.2,0,19.2,0c1,0,1-1,0-1c-24,0-49.4,0-74.2,0
					c-64.9,0-129.9,0-194.8,0c-90.4,0-180.8,0-271.2,0c-101.3,0-202.7,0-304,0c-97.7,0-195.4,0-293.1,0c-79.5,0-159,0-238.5,0
					c-46.7,0-93.4,0-140.2,0c-6.5,0-13,0-20,0V561L-1476,561z"/>
			</g>
		</g>
		<g>
			<g>
				<path class="st2" d="M-1476,522c0,0,50.2,0,75,0c64.9,0,129.9,0,194.8,0c90.4,0,180.8,0,271.2,0c101.3,0,202.7,0,304,0
					c97.7,0,195.4,0,293.1,0c79.5,0,159,0,238.5,0c46.7,0,93.4,0,140.2,0c6.5,0,13.2,0,19.2,0c1,0,1-1,0-1c-24,0-49.4,0-74.2,0
					c-64.9,0-129.9,0-194.8,0c-90.4,0-180.8,0-271.2,0c-101.3,0-202.7,0-304,0c-97.7,0-195.4,0-293.1,0c-79.5,0-159,0-238.5,0
					c-46.7,0-93.4,0-140.2,0c-6.5,0-13,0-20,0V522L-1476,522z"/>
			</g>
		</g>
		<g>
			<g>
				<path class="st2" d="M-1476,504c0,0,50.2,0,75,0c64.9,0,129.9,0,194.8,0c90.4,0,180.8,0,271.2,0c101.3,0,202.7,0,304,0
					c97.7,0,195.4,0,293.1,0c79.5,0,159,0,238.5,0c46.7,0,93.4,0,140.2,0c6.5,0,13.2,0,19.2,0c1,0,1-1,0-1c-24,0-49.4,0-74.2,0
					c-64.9,0-129.9,0-194.8,0c-90.4,0-180.8,0-271.2,0c-101.3,0-202.7,0-304,0c-97.7,0-195.4,0-293.1,0c-79.5,0-159,0-238.5,0
					c-46.7,0-93.4,0-140.2,0c-6.5,0-13,0-20,0V504L-1476,504z"/>
			</g>
		</g>
		<g>
			<g>
				<path class="st2" d="M-1476,485c0,0,50.2,0,75,0c64.9,0,129.9,0,194.8,0c90.4,0,180.8,0,271.2,0c101.3,0,202.7,0,304,0
					c97.7,0,195.4,0,293.1,0c79.5,0,159,0,238.5,0c46.7,0,93.4,0,140.2,0c6.5,0,13.2,0,19.2,0c1,0,1-1,0-1c-24,0-49.4,0-74.2,0
					c-64.9,0-129.9,0-194.8,0c-90.4,0-180.8,0-271.2,0c-101.3,0-202.7,0-304,0c-97.7,0-195.4,0-293.1,0c-79.5,0-159,0-238.5,0
					c-46.7,0-93.4,0-140.2,0c-6.5,0-13,0-20,0V485L-1476,485z"/>
			</g>
		</g>
		<g>
			<g>
				<path class="st2" d="M-1476,466c0,0,50.2,0,75,0c64.9,0,129.9,0,194.8,0c90.4,0,180.8,0,271.2,0c101.3,0,202.7,0,304,0
					c97.7,0,195.4,0,293.1,0c79.5,0,159,0,238.5,0c46.7,0,93.4,0,140.2,0c6.5,0,13.2,0,19.2,0c1,0,1-1,0-1c-24,0-49.4,0-74.2,0
					c-64.9,0-129.9,0-194.8,0c-90.4,0-180.8,0-271.2,0c-101.3,0-202.7,0-304,0c-97.7,0-195.4,0-293.1,0c-79.5,0-159,0-238.5,0
					c-46.7,0-93.4,0-140.2,0c-6.5,0-13,0-20,0V466L-1476,466z"/>
			</g>
		</g>
		<g>
			<g>
				<path class="st2" d="M-1476,448c0,0,50.2,0,75,0c64.9,0,129.9,0,194.8,0c90.4,0,180.8,0,271.2,0c101.3,0,202.7,0,304,0
					c97.7,0,195.4,0,293.1,0c79.5,0,159,0,238.5,0c46.7,0,93.4,0,140.2,0c6.5,0,13.2,0,19.2,0c1,0,1-1,0-1c-24,0-49.4,0-74.2,0
					c-64.9,0-129.9,0-194.8,0c-90.4,0-180.8,0-271.2,0c-101.3,0-202.7,0-304,0c-97.7,0-195.4,0-293.1,0c-79.5,0-159,0-238.5,0
					c-46.7,0-93.4,0-140.2,0c-6.5,0-13,0-20,0V448L-1476,448z"/>
			</g>
		</g>
		<g>
			<g>
				<path class="st2" d="M-1476,429c0,0,50.2,0,75,0c64.9,0,129.9,0,194.8,0c90.4,0,180.8,0,271.2,0c101.3,0,202.7,0,304,0
					c97.7,0,195.4,0,293.1,0c79.5,0,159,0,238.5,0c46.7,0,93.4,0,140.2,0c6.5,0,13.2,0,19.2,0c1,0,1-1,0-1c-24,0-49.4,0-74.2,0
					c-64.9,0-129.9,0-194.8,0c-90.4,0-180.8,0-271.2,0c-101.3,0-202.7,0-304,0c-97.7,0-195.4,0-293.1,0c-79.5,0-159,0-238.5,0
					c-46.7,0-93.4,0-140.2,0c-6.5,0-13,0-20,0V429L-1476,429z"/>
			</g>
		</g>
		<g>
			<g>
				<path class="st2" d="M-1476,372c0,0,50.2,0,75,0c64.9,0,129.9,0,194.8,0c90.4,0,180.8,0,271.2,0c101.3,0,202.7,0,304,0
					c97.7,0,195.4,0,293.1,0c79.5,0,159,0,238.5,0c46.7,0,93.4,0,140.2,0c6.5,0,13.2,0,19.2,0c1,0,1-1,0-1c-24,0-49.4,0-74.2,0
					c-64.9,0-129.9,0-194.8,0c-90.4,0-180.8,0-271.2,0c-101.3,0-202.7,0-304,0c-97.7,0-195.4,0-293.1,0c-79.5,0-159,0-238.5,0
					c-46.7,0-93.4,0-140.2,0c-6.5,0-13,0-20,0V372L-1476,372z"/>
			</g>
		</g>
		<g>
			<g>
				<path class="st2" d="M-1476,353c0,0,50.2,0,75,0c64.9,0,129.9,0,194.8,0c90.4,0,180.8,0,271.2,0c101.3,0,202.7,0,304,0
					c97.7,0,195.4,0,293.1,0c79.5,0,159,0,238.5,0c46.7,0,93.4,0,140.2,0c6.5,0,13.2,0,19.2,0c1,0,1-1,0-1c-24,0-49.4,0-74.2,0
					c-64.9,0-129.9,0-194.8,0c-90.4,0-180.8,0-271.2,0c-101.3,0-202.7,0-304,0c-97.7,0-195.4,0-293.1,0c-79.5,0-159,0-238.5,0
					c-46.7,0-93.4,0-140.2,0c-6.5,0-13,0-20,0V353L-1476,353z"/>
			</g>
		</g>
		<g>
			<g>
				<path class="st2" d="M-1476,335c0,0,50.2,0,75,0c64.9,0,129.9,0,194.8,0c90.4,0,180.8,0,271.2,0c101.3,0,202.7,0,304,0
					c97.7,0,195.4,0,293.1,0c79.5,0,159,0,238.5,0c46.7,0,93.4,0,140.2,0c6.5,0,13.2,0,19.2,0c1,0,1-1,0-1c-24,0-49.4,0-74.2,0
					c-64.9,0-129.9,0-194.8,0c-90.4,0-180.8,0-271.2,0c-101.3,0-202.7,0-304,0c-97.7,0-195.4,0-293.1,0c-79.5,0-159,0-238.5,0
					c-46.7,0-93.4,0-140.2,0c-6.5,0-13,0-20,0V335L-1476,335z"/>
			</g>
		</g>
		<g>
			<g>
				<path class="st2" d="M-1476,316c0,0,50.2,0,75,0c64.9,0,129.9,0,194.8,0c90.4,0,180.8,0,271.2,0c101.3,0,202.7,0,304,0
					c97.7,0,195.4,0,293.1,0c79.5,0,159,0,238.5,0c46.7,0,93.4,0,140.2,0c6.5,0,13.2,0,19.2,0c1,0,1-1,0-1c-24,0-49.4,0-74.2,0
					c-64.9,0-129.9,0-194.8,0c-90.4,0-180.8,0-271.2,0c-101.3,0-202.7,0-304,0c-97.7,0-195.4,0-293.1,0c-79.5,0-159,0-238.5,0
					c-46.7,0-93.4,0-140.2,0c-6.5,0-13,0-20,0V316L-1476,316z"/>
			</g>
		</g>
		<g>
			<g>
				<path class="st2" d="M-1476,297c0,0,50.2,0,75,0c64.9,0,129.9,0,194.8,0c90.4,0,180.8,0,271.2,0c101.3,0,202.7,0,304,0
					c97.7,0,195.4,0,293.1,0c79.5,0,159,0,238.5,0c46.7,0,93.4,0,140.2,0c6.5,0,13.2,0,19.2,0c1,0,1-1,0-1c-24,0-49.4,0-74.2,0
					c-64.9,0-129.9,0-194.8,0c-90.4,0-180.8,0-271.2,0c-101.3,0-202.7,0-304,0c-97.7,0-195.4,0-293.1,0c-79.5,0-159,0-238.5,0
					c-46.7,0-93.4,0-140.2,0c-6.5,0-13,0-20,0V297L-1476,297z"/>
			</g>
		</g>
		<g>
			<g>
				<path class="st2" d="M-1476,279c0,0,50.2,0,75,0c64.9,0,129.9,0,194.8,0c90.4,0,180.8,0,271.2,0c101.3,0,202.7,0,304,0
					c97.7,0,195.4,0,293.1,0c79.5,0,159,0,238.5,0c46.7,0,93.4,0,140.2,0c6.5,0,13.2,0,19.2,0c1,0,1-1,0-1c-24,0-49.4,0-74.2,0
					c-64.9,0-129.9,0-194.8,0c-90.4,0-180.8,0-271.2,0c-101.3,0-202.7,0-304,0c-97.7,0-195.4,0-293.1,0c-79.5,0-159,0-238.5,0
					c-46.7,0-93.4,0-140.2,0c-6.5,0-13,0-20,0V279L-1476,279z"/>
			</g>
		</g>
		<g>
			<g>
				<path class="st2" d="M-1476,240c0,0,50.2,0,75,0c64.9,0,129.9,0,194.8,0c90.4,0,180.8,0,271.2,0c101.3,0,202.7,0,304,0
					c97.7,0,195.4,0,293.1,0c79.5,0,159,0,238.5,0c46.7,0,93.4,0,140.2,0c6.5,0,13.2,0,19.2,0c1,0,1-1,0-1c-24,0-49.4,0-74.2,0
					c-64.9,0-129.9,0-194.8,0c-90.4,0-180.8,0-271.2,0c-101.3,0-202.7,0-304,0c-97.7,0-195.4,0-293.1,0c-79.5,0-159,0-238.5,0
					c-46.7,0-93.4,0-140.2,0c-6.5,0-13,0-20,0V240L-1476,240z"/>
			</g>
		</g>
		<g>
			<g>
				<path class="st2" d="M-1476,221c0,0,50.2,0,75,0c64.9,0,129.9,0,194.8,0c90.4,0,180.8,0,271.2,0c101.3,0,202.7,0,304,0
					c97.7,0,195.4,0,293.1,0c79.5,0,159,0,238.5,0c46.7,0,93.4,0,140.2,0c6.5,0,13.2,0,19.2,0c1,0,1-1,0-1c-24,0-49.4,0-74.2,0
					c-64.9,0-129.9,0-194.8,0c-90.4,0-180.8,0-271.2,0c-101.3,0-202.7,0-304,0c-97.7,0-195.4,0-293.1,0c-79.5,0-159,0-238.5,0
					c-46.7,0-93.4,0-140.2,0c-6.5,0-13,0-20,0V221L-1476,221z"/>
			</g>
		</g>
		<g>
			<g>
				<path class="st2" d="M-1476,203c0,0,50.2,0,75,0c64.9,0,129.9,0,194.8,0c90.4,0,180.8,0,271.2,0c101.3,0,202.7,0,304,0
					c97.7,0,195.4,0,293.1,0c79.5,0,159,0,238.5,0c46.7,0,93.4,0,140.2,0c6.5,0,13.2,0,19.2,0c1,0,1-1,0-1c-24,0-49.4,0-74.2,0
					c-64.9,0-129.9,0-194.8,0c-90.4,0-180.8,0-271.2,0c-101.3,0-202.7,0-304,0c-97.7,0-195.4,0-293.1,0c-79.5,0-159,0-238.5,0
					c-46.7,0-93.4,0-140.2,0c-6.5,0-13,0-20,0V203L-1476,203z"/>
			</g>
		</g>
		<g>
			<g>
				<path class="st2" d="M-1476,184c0,0,50.2,0,75,0c64.9,0,129.9,0,194.8,0c90.4,0,180.8,0,271.2,0c101.3,0,202.7,0,304,0
					c97.7,0,195.4,0,293.1,0c79.5,0,159,0,238.5,0c46.7,0,93.4,0,140.2,0c6.5,0,13.2,0,19.2,0c1,0,1-1,0-1c-24,0-49.4,0-74.2,0
					c-64.9,0-129.9,0-194.8,0c-90.4,0-180.8,0-271.2,0c-101.3,0-202.7,0-304,0c-97.7,0-195.4,0-293.1,0c-79.5,0-159,0-238.5,0
					c-46.7,0-93.4,0-140.2,0c-6.5,0-13,0-20,0V184L-1476,184z"/>
			</g>
		</g>
		<g>
			<g>
				<path class="st2" d="M-1476,165c0,0,50.2,0,75,0c64.9,0,129.9,0,194.8,0c90.4,0,180.8,0,271.2,0c101.3,0,202.7,0,304,0
					c97.7,0,195.4,0,293.1,0c79.5,0,159,0,238.5,0c46.7,0,93.4,0,140.2,0c6.5,0,13.2,0,19.2,0c1,0,1-1,0-1c-24,0-49.4,0-74.2,0
					c-64.9,0-129.9,0-194.8,0c-90.4,0-180.8,0-271.2,0c-101.3,0-202.7,0-304,0c-97.7,0-195.4,0-293.1,0c-79.5,0-159,0-238.5,0
					c-46.7,0-93.4,0-140.2,0c-6.5,0-13,0-20,0V165L-1476,165z"/>
			</g>
		</g>
		<g>
			<g>
				<path class="st2" d="M-1476,147c0,0,50.2,0,75,0c64.9,0,129.9,0,194.8,0c90.4,0,180.8,0,271.2,0c101.3,0,202.7,0,304,0
					c97.7,0,195.4,0,293.1,0c79.5,0,159,0,238.5,0c46.7,0,93.4,0,140.2,0c6.5,0,13.2,0,19.2,0c1,0,1-1,0-1c-24,0-49.4,0-74.2,0
					c-64.9,0-129.9,0-194.8,0c-90.4,0-180.8,0-271.2,0c-101.3,0-202.7,0-304,0c-97.7,0-195.4,0-293.1,0c-79.5,0-159,0-238.5,0
					c-46.7,0-93.4,0-140.2,0c-6.5,0-13,0-20,0V147L-1476,147z"/>
			</g>
		</g>
		<g>
			<g>
				<path class="st2" d="M-1476,108c0,0,50.2,0,75,0c64.9,0,129.9,0,194.8,0c90.4,0,180.8,0,271.2,0c101.3,0,202.7,0,304,0
					c97.7,0,195.4,0,293.1,0c79.5,0,159,0,238.5,0c46.7,0,93.4,0,140.2,0c6.5,0,13.2,0,19.2,0c1,0,1-1,0-1c-24,0-49.4,0-74.2,0
					c-64.9,0-129.9,0-194.8,0c-90.4,0-180.8,0-271.2,0c-101.3,0-202.7,0-304,0c-97.7,0-195.4,0-293.1,0c-79.5,0-159,0-238.5,0
					c-46.7,0-93.4,0-140.2,0c-6.5,0-13,0-20,0V108L-1476,108z"/>
			</g>
		</g>
		<g>
			<g>
				<path class="st2" d="M-1476,90c0,0,50.2,0,75,0c64.9,0,129.9,0,194.8,0c90.4,0,180.8,0,271.2,0c101.3,0,202.7,0,304,0
					c97.7,0,195.4,0,293.1,0c79.5,0,159,0,238.5,0c46.7,0,93.4,0,140.2,0c6.5,0,13.2,0,19.2,0c1,0,1-1,0-1c-24,0-49.4,0-74.2,0
					c-64.9,0-129.9,0-194.8,0c-90.4,0-180.8,0-271.2,0c-101.3,0-202.7,0-304,0c-97.7,0-195.4,0-293.1,0c-79.5,0-159,0-238.5,0
					c-46.7,0-93.4,0-140.2,0c-6.5,0-13,0-20,0V90L-1476,90z"/>
			</g>
		</g>
		<g>
			<g>
				<path class="st2" d="M-1476,71c0,0,50.2,0,75,0c64.9,0,129.9,0,194.8,0c90.4,0,180.8,0,271.2,0c101.3,0,202.7,0,304,0
					c97.7,0,195.4,0,293.1,0c79.5,0,159,0,238.5,0c46.7,0,93.4,0,140.2,0c6.5,0,13.2,0,19.2,0c1,0,1-1,0-1c-24,0-49.4,0-74.2,0
					c-64.9,0-129.9,0-194.8,0c-90.4,0-180.8,0-271.2,0c-101.3,0-202.7,0-304,0c-97.7,0-195.4,0-293.1,0c-79.5,0-159,0-238.5,0
					c-46.7,0-93.4,0-140.2,0c-6.5,0-13,0-20,0V71L-1476,71z"/>
			</g>
		</g>
		<g>
			<g>
				<path class="st2" d="M-1476,52c0,0,50.2,0,75,0c64.9,0,129.9,0,194.8,0c90.4,0,180.8,0,271.2,0c101.3,0,202.7,0,304,0
					c97.7,0,195.4,0,293.1,0c79.5,0,159,0,238.5,0c46.7,0,93.4,0,140.2,0c6.5,0,13.2,0,19.2,0c1,0,1-1,0-1c-24,0-49.4,0-74.2,0
					c-64.9,0-129.9,0-194.8,0c-90.4,0-180.8,0-271.2,0c-101.3,0-202.7,0-304,0c-97.7,0-195.4,0-293.1,0c-79.5,0-159,0-238.5,0
					c-46.7,0-93.4,0-140.2,0c-6.5,0-13,0-20,0V52L-1476,52z"/>
			</g>
		</g>
		<g>
			<g>
				<path class="st2" d="M-1476,34c0,0,50.2,0,75,0c64.9,0,129.9,0,194.8,0c90.4,0,180.8,0,271.2,0c101.3,0,202.7,0,304,0
					c97.7,0,195.4,0,293.1,0c79.5,0,159,0,238.5,0c46.7,0,93.4,0,140.2,0c6.5,0,13.2,0,19.2,0c1,0,1-1,0-1c-24,0-49.4,0-74.2,0
					c-64.9,0-129.9,0-194.8,0c-90.4,0-180.8,0-271.2,0c-101.3,0-202.7,0-304,0c-97.7,0-195.4,0-293.1,0c-79.5,0-159,0-238.5,0
					c-46.7,0-93.4,0-140.2,0c-6.5,0-13,0-20,0V34L-1476,34z"/>
			</g>
		</g>
		<g>
			<g>
				<path class="st2" d="M-1476,15c0,0,50.2,0,75,0c64.9,0,129.9,0,194.8,0c90.4,0,180.8,0,271.2,0c101.3,0,202.7,0,304,0
					c97.7,0,195.4,0,293.1,0c79.5,0,159,0,238.5,0c46.7,0,93.4,0,140.2,0c6.5,0,13.2,0,19.2,0c1,0,1-1,0-1c-24,0-49.4,0-74.2,0
					c-64.9,0-129.9,0-194.8,0c-90.4,0-180.8,0-271.2,0c-101.3,0-202.7,0-304,0c-97.7,0-195.4,0-293.1,0c-79.5,0-159,0-238.5,0
					c-46.7,0-93.4,0-140.2,0c-6.5,0-13,0-20,0V15L-1476,15z"/>
			</g>
		</g>
		<g>
			<g>
				<g>
					<path class="st2" d="M29-80c0,0,0,33.6,0,50.4c0,43.6,0,87.1,0,130.7c0,60,0,120,0,180c0,66.2,0,132.4,0,198.6
						c0,62.1,0,124.1,0,186.2c0,47.7,0,95.3,0,143c0,23,0,46,0,68.9c0,0.7,0,1.2,0,2.2s1,1,1,0c0-17,0-33.7,0-50.5
						c0-43.6,0-87.1,0-130.7c0-60,0-120,0-180c0-66.2,0-132.4,0-198.6c0-62.1,0-124.1,0-186.2c0-47.7,0-95.3,0-143c0-23,0-46,0-68.9
						c0-0.7,0-1.1,0-2.1S29-81,29-80C29-80,29-81,29-80z"/>
				</g>
			</g>
			<g>
				<g>
					<path class="st2" d="M10-80c0,0,0,33.6,0,50.4c0,43.6,0,87.1,0,130.7c0,60,0,120,0,180c0,66.2,0,132.4,0,198.6
						c0,62.1,0,124.1,0,186.2c0,47.7,0,95.3,0,143c0,23,0,46,0,68.9c0,0.7,0,1.2,0,2.2s1,1,1,0c0-17,0-33.7,0-50.5
						c0-43.6,0-87.1,0-130.7c0-60,0-120,0-180c0-66.2,0-132.4,0-198.6c0-62.1,0-124.1,0-186.2c0-47.7,0-95.3,0-143c0-23,0-46,0-68.9
						c0-0.7,0-1.1,0-2.1S10-81,10-80C10-80,10-81,10-80z"/>
				</g>
			</g>
		</g>
	</g>
</g>
<g>
	<g>
		<path class="st3" d="M610,520H116.7c-16.6,0-30-13.4-30-30V230c0-16.6,13.4-30,30-30H610c16.6,0,30,13.4,30,30v260
			C640,506.6,626.6,520,610,520z"/>
	</g>
	<g>
		<path class="st6" d="M231.3,320.1c-2.6-2.3-5.7-3.5-9.3-3.5c-3.6,0-6.8,1.2-9.3,3.5c-2.6,2.4-3.9,5.3-3.9,8.6
			c0,3.4,1.3,6.3,3.9,8.6c2.6,2.3,5.7,3.5,9.3,3.5s6.8-1.2,9.3-3.5c2.6-2.4,3.9-5.3,3.9-8.6C235.3,325.4,233.9,322.5,231.3,320.1z
			 M230.3,348.6c-2.3-2-5-3.1-8.4-3.1c-3.3,0-6.1,1-8.4,3.1c-2.4,2.1-3.5,4.7-3.5,7.7V412c0,3.1,1.2,5.8,3.6,7.9
			c2.3,2,5.1,3.1,8.4,3.1c3.3,0,5.9-1,8.2-3.1c2.4-2.1,3.4-4.8,3.4-7.9v-55.7C233.7,353.3,232.7,350.7,230.3,348.6z M195.5,406.6
			c-1.1-1.1-1.2-1.5-1.2-1.6c-0.1-0.2-0.1-0.9-0.1-2.6v-75.9c0-3.1-1.2-5.8-3.6-7.9c-2.3-2-5.2-3.1-8.4-3.1c-3.3,0-6.3,1.1-8.6,3.2
			c-2.4,2.2-3.7,4.8-3.7,7.8v77.6c0,4,0.6,7.2,1.6,9.7c1,2.6,2.4,4.5,4,5.9s3.5,2.4,5.4,2.8c1.7,0.4,3.5,0.5,5,0.5
			c3.7,0,6.8-0.8,9-2.3c2.5-1.7,3.8-4.3,3.8-7.6c0-1.9-0.4-3.3-1.2-4.3C196.9,408.2,196.3,407.5,195.5,406.6z M305.9,356.2
			c0-3.3-1-5.9-3.5-7.9c-2.3-1.9-5-2.8-8-2.8c-2.3,0-4.5,0.6-6.6,1.9c-2.2,1.3-3.8,3.3-4.6,5.6l-7.4,23.7c-1.1,3.6-1.9,7.3-2.5,10.9
			c-0.6-3.6-1.5-7.3-2.7-11l-7.8-23.8c-0.8-2.4-2.4-4.3-4.5-5.6c-2.1-1.3-4.3-2-6.6-2c-3.1,0-5.9,1-8.3,2.8c-2.5,2-3.9,4.7-3.9,7.9
			v1.2c0,0.6,0.3,1.3,0.6,2l19.7,53.9c1.2,3.3,2.9,5.8,4.9,7.4c2.1,1.6,5,2.4,8.6,2.4c3.5,0,6.4-0.8,8.4-2.6
			c1.9-1.6,3.6-4.2,4.9-7.5l19.1-53.6c0.3-0.7,0.2-1.4,0.2-2V356.2L305.9,356.2z M556.6,326.7c0-0.1-0.1-0.1-0.1-0.2
			c0-0.1-0.1-0.1-0.1-0.1l0,0c-0.6-1.2-0.8-2.4-1.6-3.4c-0.6-0.7-1.2-1.4-1.9-2c-0.1-0.1-0.1-0.1-0.2-0.1l-5.8-4.1
			c-0.4-0.3-0.7-0.5-1.1-0.8c-1.4-1.3-2.4-3-2.6-4.7c0.1-1.7,1.1-3.5,2.6-4.7c0.4-0.3,0.7-0.5,1.1-0.8l5.8-4.1
			c0.1-0.1,0.1-0.1,0.2-0.1c0.8-0.6,1.3-1.3,1.9-2c0.8-1,1-2.2,1.6-3.4l0,0c0-1.2,0.4-2.3,0.4-3.5c-0.2-2.2-0.9-4.4-2.2-6.3
			c-0.6-0.8-1.2-1.7-2-2.4c0,0,0,0-0.1-0.1c-0.6-0.6-1.3-1.2-1.9-1.6c0,0-0.1,0-0.1-0.1c-2.3-1.7-5.4-2.2-8.2-1.6
			c-0.1,0-0.1,0-0.1,0c-0.1,0-0.1,0-0.1,0c-1.2,0.3-2.4,0.8-3.5,1.5l-6.3,4.7c-0.3,0.1-0.4,0.3-0.6,0.4c-1.7,1-4,1.6-5.9,0.6
			c-1.4-0.8-2.6-2.2-3.1-3.7c-0.9-2.6-1.7-5.3-2.5-7.9c-0.3-0.8-0.6-1.6-1.2-2.2c-0.3-0.4-0.6-0.9-0.9-1.3c-0.7-0.8-1.5-1.6-2.6-2.2
			c-1-0.5-2-1-3-1.2c-0.6-0.1-1.3-0.1-1.9-0.1c-0.6,0-1.3,0.1-1.9,0.1c-1,0.1-2,0.3-3.1,0.6c-0.1,0-0.1,0.1-0.2,0.1h-0.1
			c-1.5,0.5-3.1,1.3-4.3,2.3c0,0-0.1,0-0.1,0.1c-2.5,2-4.1,4.9-4,8.2c-0.1,1,0.1,2.1,0.4,3.1l2.5,7.4c0.1,0.3,0.2,0.6,0.3,0.9
			c0.3,1.7,0.1,3.5-0.6,4.8c-1,1.9-3.6,2.6-5.6,2.6l-7.8-0.1c-1.3,0-2.6,0.3-3.8,0.8c-3.1,1.3-5.6,4-6.6,7.2c-0.4,1.3-0.7,2.7-0.7,4
			l0,0c0,1.3,0.4,2.7,0.7,4c1,3.2,3.1,5.9,6.4,7.2c1.2,0.5,2.5,0.8,3.8,0.8l7.9-0.1c2.1,0,4.4,0.8,5.7,2.6c0.8,1.3,1,3.1,0.6,4.8
			c-0.1,0.3-0.2,0.6-0.3,0.9l-2.5,7.4c-0.3,1-0.4,2.1-0.4,3.1c-0.1,3.3,1.6,6.1,4,8.2c0,0,0.1,0,0.1,0.1c0.4,0.3,0.8,0.5,1.2,0.8
			c1.9,1.3,4.3,2,6.5,2.2c1.2,0.1,2.7,0.3,3.8,0c1-0.3,2.1-0.7,3-1.2c1-0.6,1.9-1.3,2.6-2.2c0.3-0.4,0.6-0.8,0.9-1.3
			c0.4-0.7,0.8-1.4,1.2-2.2c0,0,2.4-7.4,2.4-7.5c0.5-1.7,1.7-3.3,3.3-4.2c0,0,0.1,0,0.1-0.1c1.8-1,4.3-0.6,5.9,0.6
			c0.2,0.1,0.4,0.3,0.6,0.4l6.3,4.7c1.1,0.8,2.4,1.1,3.7,1.4c0.6,0.1,1.2,0.1,1.7,0.1h0.1c2.1,0.6,4.6-0.4,6.3-1.7l0.1,0.1
			c0.4-0.3,1-0.6,1.4-1.1c0.6-0.6,1.3-1.2,1.8-1.9c0.1-0.1,0.1-0.1,0.1-0.2c1-1.3,1.9-2.7,2.2-4.3c0.1-0.1,0.1-0.3,0.1-0.5
			c0.3-0.8,0.4-1.5,0.4-2.4C557,328.9,556.9,327.8,556.6,326.7z M474,348.3c-2.4-1.9-5.2-2.9-8.1-2.9c-2.2,0-4.5,0.6-6.6,1.7
			c-2.3,1.2-3.9,3.2-4.8,5.8l-7.6,23.7c-0.8,2.3-1.4,4.7-2,7.2c-0.6-2.6-1.4-5-2.3-7.3l-8.8-23.7c-1-2.4-2.5-4.3-4.5-5.6
			c-2-1.2-4.2-1.8-6.5-1.8c-3.3,0-6.1,1-8.4,2.8c-2.4,2-3.6,4.6-3.6,7.7c0,0.6,0.1,1.2,0.2,1.9c0.1,0.7,0.3,1.5,0.7,2.4l21.5,55.4
			c-1.5,4.9-3.1,8.4-4.7,10.5c-1.4,1.9-3.3,2.9-5.8,3c-3.5,0.2-6.3,1.3-8.3,3.4c-2,2-3.1,4.5-3.1,7.3c0,3.1,1.2,5.8,3.6,7.8
			c2.3,1.9,5.2,2.9,8.5,2.9c5.8,0,10.6-1.1,14.4-3.2c3.8-2.1,7.1-5,9.8-8.8c2.6-3.6,4.9-8,6.8-12.9c1.9-4.9,3.8-10.2,5.8-15.9
			l17.2-50.2c0.4-1,0.6-2,0.6-3.3C477.9,353.1,476.6,350.4,474,348.3z M337.2,394.8c1.7,0.1,3.6,0.2,5.5,0.2
			c10.1,0,17.6-2.1,22.4-6.2c4.8-4.2,7.3-10.1,7.3-17.5c0-7.7-2.6-14.1-7.5-19c-5-4.9-12.5-7.3-22.4-7.3c-5.1,0-9.7,0.7-13.7,2
			c-4,1.3-7.5,3.3-10.2,5.8c-2.8,2.5-5.1,5.4-6.5,8.8c-1.4,3.3-2.3,7-2.3,10.8V396c0,3.8,1,7.4,2.4,10.7c1.5,3.3,3.6,6.2,6.4,8.6
			c2.7,2.4,6.1,4.3,10,5.7c3.8,1.3,8.3,2,13.3,2c2.3,0,5.1-0.2,8.3-0.6c3.3-0.4,6.4-1.1,9.3-2c3.1-1,5.8-2.4,7.9-4.2
			c2.5-2,3.8-4.7,3.8-7.8c0-1.1-0.2-2.2-0.5-3.3c-0.4-1.2-1-2.3-1.9-3.3c-0.9-1-2-1.8-3.5-2.5c-1.4-0.6-3.1-1-5.2-1
			c-1.5,0-2.6,0.1-3.5,0.4c-0.8,0.3-1.4,0.4-1.9,0.8c-2.1,1-4.1,1.7-5.9,2.2c-1.8,0.4-3.7,0.7-5.8,0.7c-3.3,0-5.8-0.6-7.2-1.7
			c-1.3-1-1.9-2.2-1.9-4v-2.1C335.3,394.6,336.3,394.8,337.2,394.8z M334,371.6c0-2.2,0.7-3.8,2-5c1.3-1.3,3.5-1.9,6.3-1.9
			c2.2,0,3.8,0.4,4.9,1.3c0.9,0.8,1.4,2.2,1.4,4.3c0,2.2-0.4,3.7-1.4,4.4c-1.2,0.8-2.9,1.3-5.1,1.3c-0.7,0-2-0.1-3.9-0.1
			c-1.3-0.1-2.9-0.1-4.2-0.3V371.6z M405.9,406.6c-1.1-1.1-1.3-1.5-1.3-1.6c-0.1-0.2-0.3-0.9-0.3-2.6v-75.9c0-3.1-1.2-5.8-3.5-7.9
			c-2.3-2-5.1-3.1-8.4-3.1c-3.3,0-6.3,1.1-8.6,3.2c-2.4,2.2-3.7,4.8-3.7,7.8v77.6c0,4,0.7,7.2,1.7,9.7c1,2.6,2.4,4.5,4,5.9
			c1.6,1.4,3.5,2.4,5.5,2.8c1.7,0.4,3.5,0.5,5,0.5c3.7,0,6.8-0.8,9-2.3c2.5-1.7,3.8-4.3,3.8-7.6c0-1.9-0.4-3.3-1.2-4.3
			C407.4,408.2,406.7,407.5,405.9,406.6z"/>
	</g>
	<g>
		<path class="st3" d="M784.6,320.1c-2.6-2.3-5.7-3.5-9.3-3.5s-6.8,1.2-9.3,3.5c-2.6,2.4-3.9,5.3-3.9,8.6c0,3.4,1.3,6.3,3.9,8.6
			c2.6,2.3,5.7,3.5,9.3,3.5c3.6,0,6.8-1.2,9.3-3.5c2.6-2.4,3.9-5.3,3.9-8.6C788.5,325.4,787.2,322.5,784.6,320.1z M783.6,348.6
			c-2.3-2-5-3.1-8.4-3.1c-3.3,0-6.1,1-8.4,3.1c-2.4,2.1-3.5,4.7-3.5,7.7V412c0,3.1,1.2,5.8,3.6,7.9c2.3,2,5.1,3.1,8.4,3.1
			c3.3,0,5.9-1,8.2-3.1c2.4-2.1,3.4-4.8,3.4-7.9v-55.7C786.9,353.3,785.9,350.7,783.6,348.6z M748.7,406.6c-1.1-1.1-1.2-1.5-1.2-1.6
			c-0.1-0.2-0.1-0.9-0.1-2.6v-75.9c0-3.1-1.2-5.8-3.6-7.9c-2.3-2-5.2-3.1-8.4-3.1c-3.3,0-6.3,1.1-8.6,3.2c-2.4,2.2-3.7,4.8-3.7,7.8
			v77.6c0,4,0.6,7.2,1.6,9.7c1,2.6,2.4,4.5,4,5.9c1.6,1.4,3.5,2.4,5.4,2.8c1.7,0.4,3.5,0.5,5,0.5c3.7,0,6.8-0.8,9-2.3
			c2.5-1.7,3.8-4.3,3.8-7.6c0-1.9-0.4-3.3-1.2-4.3C750.2,408.2,749.6,407.5,748.7,406.6z M859.2,356.2c0-3.3-1-5.9-3.5-7.9
			c-2.3-1.9-5-2.8-8-2.8c-2.3,0-4.5,0.6-6.6,1.9c-2.2,1.3-3.8,3.3-4.6,5.6l-7.4,23.7c-1.1,3.6-1.9,7.3-2.5,10.9
			c-0.6-3.6-1.5-7.3-2.7-11l-7.8-23.8c-0.8-2.4-2.4-4.3-4.5-5.6c-2.1-1.3-4.3-2-6.6-2c-3.1,0-5.9,1-8.3,2.8c-2.5,2-3.9,4.7-3.9,7.9
			v1.2c0,0.6,0.3,1.3,0.6,2l19.7,53.9c1.2,3.3,2.9,5.8,4.9,7.4c2.1,1.6,5,2.4,8.6,2.4c3.5,0,6.4-0.8,8.4-2.6
			c1.9-1.6,3.6-4.2,4.9-7.5l19.1-53.6c0.3-0.7,0.2-1.4,0.2-2V356.2L859.2,356.2z M1109.9,326.7c0-0.1-0.1-0.1-0.1-0.2
			c0-0.1-0.1-0.1-0.1-0.1l0,0c-0.6-1.2-0.8-2.4-1.6-3.4c-0.6-0.7-1.2-1.4-1.9-2c-0.1-0.1-0.1-0.1-0.2-0.1l-5.8-4.1
			c-0.4-0.3-0.7-0.5-1.1-0.8c-1.4-1.3-2.4-3-2.6-4.7c0.1-1.7,1.1-3.5,2.6-4.7c0.4-0.3,0.7-0.5,1.1-0.8l5.8-4.1
			c0.1-0.1,0.1-0.1,0.2-0.1c0.8-0.6,1.3-1.3,1.9-2c0.8-1,1-2.2,1.6-3.4l0,0c0-1.2,0.4-2.3,0.4-3.5c-0.2-2.2-0.9-4.4-2.2-6.3
			c-0.6-0.8-1.2-1.7-2-2.4c0,0,0,0-0.1-0.1c-0.6-0.6-1.3-1.2-1.9-1.6c0,0-0.1,0-0.1-0.1c-2.3-1.7-5.4-2.2-8.2-1.6
			c-0.1,0-0.1,0-0.1,0c-0.1,0-0.1,0-0.1,0c-1.2,0.3-2.4,0.8-3.5,1.5l-6.3,4.7c-0.3,0.1-0.4,0.3-0.6,0.4c-1.7,1-4,1.6-5.9,0.6
			c-1.4-0.8-2.6-2.2-3.1-3.7c-0.9-2.6-1.7-5.3-2.5-7.9c-0.3-0.8-0.6-1.6-1.2-2.2c-0.3-0.4-0.6-0.9-0.9-1.3c-0.7-0.8-1.5-1.6-2.6-2.2
			c-1-0.5-2-1-3-1.2c-0.6-0.1-1.3-0.1-1.9-0.1c-0.6,0-1.3,0.1-1.9,0.1c-1,0.1-2,0.3-3.1,0.6c-0.1,0-0.1,0.1-0.2,0.1h-0.1
			c-1.5,0.5-3.1,1.3-4.3,2.3c0,0-0.1,0-0.1,0.1c-2.5,2-4.1,4.9-4,8.2c-0.1,1,0.1,2.1,0.4,3.1l2.5,7.4c0.1,0.3,0.2,0.6,0.3,0.9
			c0.3,1.7,0.1,3.5-0.6,4.8c-1,1.9-3.6,2.6-5.6,2.6l-7.8-0.1c-1.3,0-2.6,0.3-3.8,0.8c-3.1,1.3-5.6,4-6.6,7.2c-0.4,1.3-0.7,2.7-0.7,4
			l0,0c0,1.3,0.4,2.7,0.7,4c1,3.2,3.1,5.9,6.4,7.2c1.2,0.5,2.5,0.8,3.8,0.8l7.9-0.1c2.1,0,4.4,0.8,5.7,2.6c0.8,1.3,1,3.1,0.6,4.8
			c-0.1,0.3-0.2,0.6-0.3,0.9l-2.5,7.4c-0.3,1-0.4,2.1-0.4,3.1c-0.1,3.3,1.6,6.1,4,8.2c0,0,0.1,0,0.1,0.1c0.4,0.3,0.8,0.5,1.2,0.8
			c1.9,1.3,4.3,2,6.5,2.2c1.2,0.1,2.7,0.3,3.8,0c1-0.3,2.1-0.7,3-1.2c1-0.6,1.9-1.3,2.6-2.2c0.3-0.4,0.6-0.8,0.9-1.3
			c0.4-0.7,0.8-1.4,1.2-2.2c0,0,2.4-7.4,2.4-7.5c0.5-1.7,1.7-3.3,3.3-4.2c0,0,0.1,0,0.1-0.1c1.8-1,4.3-0.6,5.9,0.6
			c0.2,0.1,0.4,0.3,0.6,0.4l6.3,4.7c1.1,0.8,2.4,1.1,3.7,1.4c0.6,0.1,1.2,0.1,1.7,0.1h0.1c2.1,0.6,4.6-0.4,6.3-1.7l0.1,0.1
			c0.4-0.3,1-0.6,1.4-1.1c0.6-0.6,1.3-1.2,1.8-1.9c0.1-0.1,0.1-0.1,0.1-0.2c1-1.3,1.9-2.7,2.2-4.3c0.1-0.1,0.1-0.3,0.1-0.5
			c0.3-0.8,0.4-1.5,0.4-2.4C1110.2,328.9,1110.2,327.8,1109.9,326.7z M1027.3,348.3c-2.4-1.9-5.2-2.9-8.1-2.9
			c-2.2,0-4.5,0.6-6.6,1.7c-2.3,1.2-3.9,3.2-4.8,5.8l-7.6,23.7c-0.8,2.3-1.4,4.7-2,7.2c-0.6-2.6-1.4-5-2.3-7.3l-8.8-23.7
			c-1-2.4-2.5-4.3-4.5-5.6c-2-1.2-4.2-1.8-6.5-1.8c-3.3,0-6.1,1-8.4,2.8c-2.4,2-3.6,4.6-3.6,7.7c0,0.6,0.1,1.2,0.2,1.9
			s0.3,1.5,0.7,2.4l21.5,55.4c-1.5,4.9-3.1,8.4-4.7,10.5c-1.4,1.9-3.3,2.9-5.8,3c-3.5,0.2-6.3,1.3-8.3,3.4c-2,2-3.1,4.5-3.1,7.3
			c0,3.1,1.2,5.8,3.6,7.8c2.3,1.9,5.2,2.9,8.5,2.9c5.8,0,10.6-1.1,14.4-3.2c3.8-2.1,7.1-5,9.8-8.8c2.6-3.6,4.9-8,6.8-12.9
			c1.9-4.9,3.8-10.2,5.8-15.9l17.2-50.2c0.4-1,0.6-2,0.6-3.3C1031.2,353.1,1029.9,350.4,1027.3,348.3z M890.5,394.8
			c1.7,0.1,3.6,0.2,5.5,0.2c10.1,0,17.6-2.1,22.4-6.2c4.8-4.2,7.3-10.1,7.3-17.5c0-7.7-2.6-14.1-7.5-19s-12.5-7.3-22.4-7.3
			c-5.1,0-9.7,0.7-13.7,2c-4,1.3-7.5,3.3-10.2,5.8c-2.8,2.5-5.1,5.4-6.5,8.8c-1.4,3.3-2.3,7-2.3,10.8V396c0,3.8,1,7.4,2.4,10.7
			c1.5,3.3,3.6,6.2,6.4,8.6c2.7,2.4,6.1,4.3,10,5.7c3.8,1.3,8.3,2,13.3,2c2.3,0,5.1-0.2,8.3-0.6c3.3-0.4,6.4-1.1,9.3-2
			c3.1-1,5.8-2.4,7.9-4.2c2.5-2,3.8-4.7,3.8-7.8c0-1.1-0.2-2.2-0.5-3.3c-0.4-1.2-1-2.3-1.9-3.3c-0.9-1-2-1.8-3.5-2.5
			c-1.4-0.6-3.1-1-5.2-1c-1.5,0-2.6,0.1-3.5,0.4c-0.8,0.3-1.4,0.4-1.9,0.8c-2.1,1-4.1,1.7-5.9,2.2c-1.8,0.4-3.7,0.7-5.8,0.7
			c-3.3,0-5.8-0.6-7.2-1.7c-1.3-1-1.9-2.2-1.9-4v-2.1C888.6,394.6,889.5,394.8,890.5,394.8z M887.3,371.6c0-2.2,0.7-3.8,2-5
			c1.3-1.3,3.5-1.9,6.3-1.9c2.2,0,3.8,0.4,4.9,1.3c0.9,0.8,1.4,2.2,1.4,4.3c0,2.2-0.4,3.7-1.4,4.4c-1.2,0.8-2.9,1.3-5.1,1.3
			c-0.7,0-2-0.1-3.9-0.1c-1.3-0.1-2.9-0.1-4.2-0.3V371.6z M959.1,406.6c-1.1-1.1-1.3-1.5-1.3-1.6c-0.1-0.2-0.3-0.9-0.3-2.6v-75.9
			c0-3.1-1.2-5.8-3.5-7.9c-2.3-2-5.1-3.1-8.4-3.1c-3.3,0-6.3,1.1-8.6,3.2c-2.4,2.2-3.7,4.8-3.7,7.8v77.6c0,4,0.7,7.2,1.7,9.7
			c1,2.6,2.4,4.5,4,5.9c1.6,1.4,3.5,2.4,5.5,2.8c1.7,0.4,3.5,0.5,5,0.5c3.7,0,6.8-0.8,9-2.3c2.5-1.7,3.8-4.3,3.8-7.6
			c0-1.9-0.4-3.3-1.2-4.3C960.7,408.2,960,407.5,959.1,406.6z"/>
	</g>
</g>
</svg>
