<?xml version="1.0" encoding="utf-8"?>
<!-- Generator: Adobe Illustrator 19.1.0, SVG Export Plug-In . SVG Version: 6.00 Build 0)  -->
<svg version="1.1" id="Layer_1" xmlns="http://www.w3.org/2000/svg" xmlns:xlink="http://www.w3.org/1999/xlink" x="0px" y="0px"
	 viewBox="0 0 1280 800" style="enable-background:new 0 0 1280 800;" xml:space="preserve">
<style type="text/css">
	.st0{fill:#4D4D4D;}
	.st1{clip-path:url(#SVGID_2_);}
	.st2{fill:#E6E6E6;}
	.st3{fill:#F57C00;}
	.st4{fill:#FF931E;}
	.st5{fill:#F2F2F2;}
	.st6{fill:none;}
	.st7{font-family:'BloggerSans';}
	.st8{font-size:29px;}
	.st9{fill:#FFFFFF;}
	.st10{opacity:0.41;}
	.st11{fill:#00FF00;}
	.st12{fill:#0000FF;}
	.st13{fill:#FF0000;}
</style>
<g>
	<g id="logo_7_" transform="scale(2)">
		<g id="engine_7_">
			<path class="st0" d="M366,99c3,1.1,6.1,2,9.1,3c1.6,0.6,2.4,1.2,2.4,2.1c0,0.6-0.3,1.3-1,2.3c-1.9,2.7-3.9,5.3-5.8,8.1
				c-1,1.4-1.5,2.8-1.5,4.1c0,1.8,0.9,3.4,2.8,4.9c1.9,1.5,3.8,2.9,5.8,4.2c3.7,2.6,6.7,2.1,9.4-1.5c1.9-2.6,3.8-5.2,5.7-7.8
				c1.8-2.4,2.9-2.4,4.8,0.1c2,2.7,3.8,5.4,5.9,8c2.4,3.1,5.5,3.6,8.7,1.4c2.2-1.4,4.3-2.9,6.3-4.6c1.8-1.5,2.7-3.1,2.7-4.8
				c0-1.3-0.5-2.7-1.6-4.2c-1.8-2.6-3.7-5-5.5-7.6c-0.9-1.2-1.4-2.1-1.4-2.8c0-0.9,0.9-1.5,2.8-2.1c3.1-1.1,6.3-2,9.4-3.1
				c2.8-1,4.3-3,4.3-5.5c0-0.8-0.1-1.6-0.4-2.4c-0.6-2.2-1.3-4.4-2.1-6.5c-1.6-4.5-4.3-6-8.9-4.6c-3.1,0.9-6.1,2-9.1,3
				c-2.5,0.8-3.5-0.1-3.5-2.6c0-0.2,0-0.4,0-0.6c0-1.7,0-3.3,0-5c0-1.5,0-3.1-0.1-4.6c-0.1-4.1-2.3-6.3-6.5-6.4
				c-2.2-0.1-4.4,0-6.5,0c-4.8,0-7.1,2.2-7.3,7c0,1.1-0.1,2.2-0.1,3.3c0,1.6,0,3.2,0,4.8v0.6c0,4.2-0.5,4.5-4.6,3.2
				c-3.6-1.2-7.3-2.3-10.1-3.2c-3.5,0.1-5.5,1.5-6.5,4.2c-0.9,2.3-1.6,4.7-2.3,7.1c-0.3,1-0.4,1.9-0.4,2.7
				C361.1,96,362.7,97.8,366,99z M366.8,92.4c0.6-2,1.3-4.4,2.2-6.7c0.1-0.3,0.2-0.5,0.3-0.5c0,0,0.2-0.1,0.6-0.2l1.8,0.6
				c2.3,0.7,4.6,1.2,7.1,2c2.2,0.7,5.6,1.8,8.6-0.3c2.9-2.1,2.9-5.6,2.9-7.9l0-0.6c0-0.8,0-1.6,0-2.5c0-0.8-0.1-0.4-0.1-1.2
				c0-1.2,0,0.6,0-0.2c0-1.1,0.3-1.5,0.3-1.6c0.1,0,0.5-0.3,1.8-0.3l1.1,0c1.8,0,3.5,0,5.2,0c0.6,0,1,0.1,1.1,0.2
				c0.1,0.1,0.1,0.5,0.2,1.1c0,1.3,0.1-0.2,0.1,1.6c0,0.8,0,0.5,0,1.3c0,0.8,0,1.7,0,2.5l0,0.6c0,3.9,1.7,5.9,3.1,6.9
				c1.4,1,3.9,2,7.4,0.7l0.9-0.3c2.6-0.9-1.4,0.3,1.2-0.5c1-0.3,1.5-0.3,1.7-0.3c0.1,0.1,0.4,0.5,0.7,1.5c0.7,2.1,1.4,4.2,2,6.3
				c0.1,0.5,0.2,0.8,0.2,0.9c-0.1,0.2-0.4,0.3-0.8,0.5c-1.8,0.7-0.3,0.3-2.2,0.9c-1.3,0.4,1-0.4-0.3,0.1c-1.6,0.5-6.4,2.2-6.4,7.1
				c0,2.4,1.2,4.3,2.4,5.9c0.7,1-0.6-0.8,0.1,0.2c1.1,1.5-0.3-0.3,0.7,1.1c0.4,0.6,0.5,0.9,0.6,1.1c-0.1,0.1-0.3,0.4-0.8,0.8
				c-1.7,1.4-3.6,2.8-5.9,4.3c-0.5,0.3-0.8,0.4-0.9,0.4c-0.1-0.1-0.4-0.2-0.7-0.7c-1.1-1.5,0.3,0.3-0.9-1.3
				c-0.8-1.1,0.5,0.6-0.4-0.5c-0.8-1.1-3-4-6.7-4c-3.7,0-5.8,2.8-6.6,3.9c-1,1.3-2,2.6-2.9,4c-0.9,1.3,1.1-1.3,0.2-0.1
				c-0.5,0.6-0.8,0.9-0.9,1c-0.2,0-0.6-0.2-1.2-0.6c-1.8-1.3-3.7-2.6-5.5-4c-0.5-0.4-0.7-0.7-0.8-0.8c0-0.2,0.2-0.5,0.5-1
				c0.9-1.4-1,1.2,0-0.2c0.9-1.3,1.9-2.6,2.9-4c0.8-1.2,1.9-3,1.9-5.3c0-2.3-1-5.4-6-7.1c-1.6-0.5-3.1-1.1-4.7-1.6
				c-1.5-0.5-2.8-0.7-4.2-1.2c-0.8-0.3-1.2-0.5-1.3-0.6C366.6,93.5,366.6,93.1,366.8,92.4z"/>
		</g>
	</g>
	<g id="logo_2_" transform="scale(2)">
		<g id="engine_2_">
			<path class="st0" d="M366,200.7c3,1.1,6.1,2,9.1,3c1.6,0.6,2.4,1.2,2.4,2.1c0,0.6-0.3,1.3-1,2.3c-1.9,2.7-3.9,5.3-5.8,8.1
				c-1,1.4-1.5,2.8-1.5,4.1c0,1.8,0.9,3.4,2.8,4.9c1.9,1.5,3.8,2.9,5.8,4.2c3.7,2.6,6.7,2.1,9.4-1.5c1.9-2.6,3.8-5.2,5.7-7.8
				c1.8-2.4,2.9-2.4,4.8,0.1c2,2.7,3.8,5.4,5.9,8c2.4,3.1,5.5,3.6,8.7,1.4c2.2-1.4,4.3-2.9,6.3-4.6c1.8-1.5,2.7-3.1,2.7-4.8
				c0-1.3-0.5-2.7-1.6-4.2c-1.8-2.6-3.7-5-5.5-7.6c-0.9-1.2-1.4-2.1-1.4-2.8c0-0.9,0.9-1.5,2.8-2.1c3.1-1.1,6.3-2,9.4-3.1
				c2.8-1,4.3-3,4.3-5.5c0-0.8-0.1-1.6-0.4-2.4c-0.6-2.2-1.3-4.4-2.1-6.5c-1.6-4.5-4.3-6-8.9-4.6c-3.1,0.9-6.1,2-9.1,3
				c-2.5,0.8-3.5-0.1-3.5-2.6c0-0.2,0-0.4,0-0.6c0-1.7,0-3.3,0-5c0-1.5,0-3.1-0.1-4.6c-0.1-4.1-2.3-6.3-6.5-6.4
				c-2.2-0.1-4.4,0-6.5,0c-4.8,0-7.1,2.2-7.3,7c0,1.1-0.1,2.2-0.1,3.3c0,1.6,0,3.2,0,4.8v0.6c0,4.2-0.5,4.5-4.6,3.2
				c-3.6-1.2-7.3-2.3-10.1-3.2c-3.5,0.1-5.5,1.5-6.5,4.2c-0.9,2.3-1.6,4.7-2.3,7.1c-0.3,1-0.4,1.9-0.4,2.7
				C361.1,197.8,362.7,199.6,366,200.7z"/>
		</g>
	</g>
	<g>
		<g>
			<path class="st0" d="M376.4,189.3c-0.9,0-1.7-0.1-2.3-0.4c-0.7-0.3-1.2-0.6-1.7-1.1c-0.5-0.5-0.8-1-1-1.6c-0.2-0.6-0.3-1.3-0.3-2
				v-4.8c0-0.7,0.1-1.4,0.3-2c0.2-0.6,0.6-1.2,1-1.6c0.5-0.5,1-0.8,1.7-1.1c0.7-0.3,1.5-0.4,2.3-0.4c0.9,0,1.7,0.1,2.3,0.4
				c0.7,0.3,1.2,0.6,1.7,1.1s0.8,1,1,1.6c0.2,0.6,0.3,1.3,0.3,2v4.8c0,0.7-0.1,1.4-0.3,2c-0.2,0.6-0.6,1.2-1,1.6s-1,0.8-1.7,1.1
				C378.1,189.2,377.3,189.3,376.4,189.3z M376.4,187.2c1,0,1.8-0.3,2.4-0.8c0.5-0.5,0.8-1.3,0.8-2.3v-4.9c0-0.9-0.3-1.7-0.8-2.2
				c-0.5-0.5-1.3-0.8-2.4-0.8c-1,0-1.8,0.3-2.4,0.8c-0.5,0.5-0.8,1.3-0.8,2.2v4.9c0,1,0.3,1.7,0.8,2.3
				C374.6,186.9,375.3,187.2,376.4,187.2z"/>
			<path class="st0" d="M387.6,188.2c0,0.3-0.1,0.6-0.3,0.8s-0.5,0.3-0.8,0.3c-0.3,0-0.6-0.1-0.8-0.3s-0.3-0.5-0.3-0.8v-9.8
				c0-0.5,0-0.9-0.1-1.2c-0.1-0.3-0.2-0.6-0.4-0.9c-0.1-0.1-0.1-0.2-0.1-0.3c0-0.1-0.1-0.2-0.1-0.3c0-0.3,0.1-0.6,0.3-0.7
				c0.2-0.2,0.5-0.3,0.7-0.3c0.2,0,0.4,0.1,0.6,0.2c0.2,0.1,0.4,0.3,0.5,0.6c0.6-0.4,1.3-0.7,2-0.9c0.7-0.2,1.4-0.3,1.9-0.3
				c0.6,0,1,0.1,1.2,0.3s0.3,0.5,0.3,0.8c0,0.4-0.1,0.7-0.3,0.9c-0.2,0.2-0.5,0.3-0.8,0.3c-0.6,0-1.2,0-1.8,0.1s-1.2,0.4-1.9,0.9
				c0,0.2,0,0.3,0,0.4s0,0.2,0,0.4V188.2z"/>
			<path class="st0" d="M397.6,169.7c0,0.4-0.1,0.7-0.4,1c-0.3,0.3-0.6,0.4-1,0.4s-0.7-0.1-1-0.4s-0.4-0.6-0.4-1s0.1-0.7,0.4-1
				c0.3-0.3,0.6-0.4,1-0.4s0.7,0.1,1,0.4C397.5,169,397.6,169.3,397.6,169.7z M397.4,188.2c0,0.3-0.1,0.6-0.3,0.8s-0.5,0.3-0.8,0.3
				c-0.3,0-0.6-0.1-0.8-0.3s-0.3-0.5-0.3-0.8v-12.8c0-0.3,0.1-0.6,0.3-0.8s0.5-0.3,0.8-0.3c0.3,0,0.6,0.1,0.8,0.3s0.3,0.5,0.3,0.8
				V188.2z"/>
			<path class="st0" d="M405.8,174.1c0.7,0,1.3,0.1,2,0.2c0.6,0.2,1.3,0.4,1.8,0.7c0.3-0.6,0.7-1,1.2-1.3c0.4-0.3,0.8-0.4,1.2-0.4
				c0.3,0,0.6,0.1,0.8,0.3c0.2,0.2,0.3,0.4,0.3,0.7c0,0.2,0,0.3-0.1,0.4c0,0.1-0.1,0.2-0.1,0.2c-0.3,0.3-0.5,0.5-0.7,0.7
				s-0.4,0.4-0.5,0.6c-0.1,0.2-0.2,0.4-0.3,0.7c-0.1,0.2-0.1,0.5-0.1,0.9v1.8c0,0.7-0.1,1.4-0.3,2.1c-0.2,0.6-0.6,1.2-1,1.7
				c-0.4,0.5-1,0.8-1.6,1.1c-0.7,0.3-1.4,0.4-2.3,0.4c-0.9,0-1.7-0.1-2.3-0.4c-0.1,0.3-0.2,0.5-0.3,0.7c0,0.2-0.1,0.4-0.1,0.6
				c0,0.3,0.1,0.5,0.2,0.6c0.1,0.2,0.2,0.3,0.4,0.4c0.2,0.1,0.3,0.2,0.5,0.2c0.2,0,0.4,0.1,0.5,0.1h1.2c0.8,0,1.6,0.1,2.3,0.3
				c0.7,0.2,1.3,0.4,1.8,0.8c0.5,0.3,0.9,0.8,1.2,1.3s0.4,1.2,0.4,1.9c0,0.7-0.2,1.4-0.5,2s-0.7,1.1-1.2,1.5
				c-0.5,0.4-1.2,0.7-1.9,0.9c-0.7,0.2-1.5,0.3-2.4,0.3c-0.8,0-1.6-0.1-2.2-0.3c-0.7-0.2-1.3-0.5-1.8-0.9s-0.9-0.8-1.1-1.4
				s-0.4-1.2-0.4-1.9c0-0.7,0.1-1.4,0.4-1.9s0.6-1.1,1.1-1.6c-0.3-0.3-0.6-0.7-0.7-1.1c-0.1-0.4-0.2-0.8-0.2-1.1
				c0-0.3,0.1-0.7,0.2-1.2c0.1-0.4,0.4-0.8,0.9-1.2c-1-1-1.6-2.3-1.6-4.1c0-0.8,0.1-1.5,0.3-2.1c0.2-0.6,0.5-1.2,1-1.7
				c0.4-0.5,1-0.8,1.6-1.1C404.1,174.3,404.9,174.1,405.8,174.1z M404.9,189.2c-0.4,0-0.9,0-1.3-0.1c-0.7,0.6-1,1.3-1,2.3
				c0,0.9,0.3,1.5,0.8,2c0.6,0.5,1.4,0.7,2.5,0.7c1,0,1.9-0.2,2.6-0.6c0.7-0.4,1-1.1,1-1.9c0-1.5-1.2-2.2-3.5-2.2H404.9z
				 M408.9,177.9c0-0.2,0-0.3,0-0.4c0-0.1,0-0.3,0-0.4c-0.4-0.3-0.9-0.5-1.4-0.6c-0.5-0.2-1-0.2-1.5-0.2c-1.1,0-1.9,0.3-2.4,0.9
				c-0.5,0.6-0.8,1.4-0.8,2.5c0,1,0.2,1.8,0.7,2.4c0.5,0.6,1.3,0.9,2.4,0.9c1,0,1.8-0.3,2.3-0.8c0.5-0.5,0.7-1.3,0.7-2.3V177.9z"/>
			<path class="st0" d="M418.3,169.7c0,0.4-0.1,0.7-0.4,1c-0.3,0.3-0.6,0.4-1,0.4s-0.7-0.1-1-0.4s-0.4-0.6-0.4-1s0.1-0.7,0.4-1
				c0.3-0.3,0.6-0.4,1-0.4s0.7,0.1,1,0.4C418.2,169,418.3,169.3,418.3,169.7z M418,188.2c0,0.3-0.1,0.6-0.3,0.8s-0.5,0.3-0.8,0.3
				c-0.3,0-0.6-0.1-0.8-0.3s-0.3-0.5-0.3-0.8v-12.8c0-0.3,0.1-0.6,0.3-0.8s0.5-0.3,0.8-0.3c0.3,0,0.6,0.1,0.8,0.3s0.3,0.5,0.3,0.8
				V188.2z"/>
			<path class="st0" d="M425,188.2c0,0.3-0.1,0.6-0.3,0.8c-0.2,0.2-0.5,0.3-0.9,0.3c-0.4,0-0.7-0.1-0.9-0.3
				c-0.2-0.2-0.3-0.5-0.3-0.8v-9.9c0-0.4,0-0.7,0-0.9s-0.1-0.4-0.1-0.5c0-0.1-0.1-0.2-0.2-0.3c-0.1-0.1-0.1-0.2-0.2-0.3
				c0-0.1-0.1-0.1-0.1-0.2c0-0.1-0.1-0.2-0.1-0.4c0-0.3,0.1-0.5,0.3-0.7s0.5-0.3,0.8-0.3c0.3,0,0.5,0.1,0.7,0.2
				c0.2,0.2,0.4,0.4,0.5,0.6c0.6-0.4,1.3-0.8,2-1c0.7-0.2,1.4-0.3,2.1-0.3c1.5,0,2.7,0.5,3.5,1.5s1.1,2.3,1.1,4v8.5
				c0,0.3-0.1,0.6-0.3,0.8c-0.2,0.2-0.5,0.3-0.8,0.3s-0.6-0.1-0.8-0.3c-0.2-0.2-0.3-0.5-0.3-0.8v-8.5c0-1.1-0.2-2-0.7-2.6
				c-0.5-0.6-1.1-0.9-2-0.9c-0.6,0-1.1,0.1-1.7,0.3s-1.1,0.5-1.6,0.9c0.1,0.3,0.1,0.6,0.1,0.8V188.2z"/>
			<path class="st0" d="M444.6,179.3c0-2.1-1-3.1-3.1-3.1c-0.5,0-0.9,0.1-1.2,0.2c-0.3,0.1-0.6,0.3-1,0.4c0,0-0.1,0.1-0.3,0.1
				c-0.2,0.1-0.3,0.1-0.5,0.1c-0.3,0-0.5-0.1-0.6-0.3c-0.1-0.2-0.2-0.4-0.2-0.6c0-0.3,0.1-0.6,0.3-0.9c0.2-0.2,0.5-0.4,0.9-0.6
				c0.4-0.2,0.8-0.3,1.3-0.3c0.5-0.1,1-0.1,1.5-0.1c1.8,0,3.1,0.5,3.9,1.5c0.8,1,1.2,2.4,1.2,4.4v6.4c0,0.6,0.2,0.9,0.5,0.9
				c0,0,0.1,0,0.1,0s0.1,0,0.1,0c0.3,0,0.5,0.1,0.6,0.3c0.1,0.2,0.2,0.4,0.2,0.7c0,0.4-0.1,0.6-0.4,0.8c-0.3,0.1-0.6,0.2-0.9,0.2
				c-0.5,0-0.9-0.1-1.3-0.4c-0.4-0.3-0.7-0.6-0.9-1.1c-1.1,1-2.4,1.5-4,1.5c-1.5,0-2.6-0.4-3.3-1.2c-0.7-0.8-1.1-1.9-1.1-3.2v-0.1
				c0-2.9,1.7-4.3,5.1-4.3c1,0,2,0.1,2.9,0.4V179.3z M441.6,182.4c-0.6,0-1.1,0.1-1.5,0.2s-0.7,0.3-0.9,0.5
				c-0.2,0.2-0.3,0.5-0.4,0.8c-0.1,0.3-0.1,0.6-0.1,0.9v0.1c0,0.7,0.2,1.2,0.6,1.7c0.4,0.4,1,0.7,2,0.7c0.6,0,1.2-0.1,1.7-0.3
				c0.5-0.2,1-0.5,1.5-1v-3.1c-0.5-0.2-1-0.3-1.5-0.3C442.5,182.4,442,182.4,441.6,182.4z"/>
			<path class="st0" d="M451.3,169.2c0-0.3,0.1-0.6,0.3-0.8c0.2-0.2,0.5-0.3,0.8-0.3c0.3,0,0.6,0.1,0.8,0.3s0.3,0.5,0.3,0.8v17.2
				c0,0.3,0,0.6,0.1,0.8c0,0.2,0.2,0.4,0.3,0.6c0,0.1,0.1,0.1,0.1,0.2s0.1,0.2,0.1,0.3c0,0.3-0.1,0.5-0.3,0.7
				c-0.2,0.2-0.5,0.3-0.7,0.3c-0.2,0-0.4,0-0.6-0.1c-0.2-0.1-0.4-0.2-0.6-0.4c-0.2-0.2-0.3-0.5-0.5-0.9c-0.1-0.4-0.2-0.9-0.2-1.6
				V169.2z"/>
			<path class="st0" d="M466,178.3c0-1.3,0.4-2.3,1.2-3c0.8-0.8,2-1.1,3.5-1.1c0.4,0,0.8,0,1.2,0.1c0.5,0.1,0.9,0.2,1.3,0.3
				c0.4,0.1,0.7,0.3,1,0.5c0.3,0.2,0.4,0.5,0.4,0.8c0,0.3-0.1,0.5-0.3,0.7s-0.4,0.3-0.8,0.3c-0.2,0-0.3,0-0.5-0.1
				c-0.3-0.2-0.6-0.3-0.9-0.4c-0.3-0.1-0.7-0.1-1.3-0.1c-1.7,0-2.6,0.7-2.6,2c0,0.4,0.1,0.8,0.3,1.1c0.2,0.3,0.6,0.5,1.1,0.8
				c0.5,0.3,1.1,0.5,1.7,0.7c0.6,0.2,1.2,0.5,1.8,0.8c0.6,0.3,1,0.8,1.4,1.3c0.4,0.5,0.6,1.3,0.6,2.2c0,1.3-0.4,2.3-1.2,3.1
				c-0.8,0.8-2,1.1-3.7,1.1c-0.4,0-0.8,0-1.3-0.1c-0.5,0-1-0.1-1.4-0.3c-0.4-0.1-0.8-0.3-1.1-0.5c-0.3-0.2-0.5-0.5-0.5-0.8
				c0-0.3,0.1-0.5,0.3-0.7c0.2-0.2,0.4-0.3,0.8-0.3c0.1,0,0.2,0,0.2,0c0,0,0.1,0,0.1,0c0.4,0.2,0.8,0.3,1.3,0.4
				c0.5,0.1,1,0.2,1.6,0.2c0.8,0,1.5-0.2,1.9-0.5c0.5-0.3,0.7-0.9,0.7-1.6c0-0.5-0.1-0.9-0.3-1.2c-0.2-0.3-0.5-0.5-0.8-0.6
				c-0.5-0.3-1-0.5-1.7-0.7c-0.6-0.2-1.3-0.5-1.9-0.8c-0.6-0.3-1.1-0.8-1.5-1.3S466,179.3,466,178.3z"/>
			<path class="st0" d="M478,171c0-0.3,0.1-0.6,0.3-0.8s0.5-0.3,0.8-0.3c0.4,0,0.6,0.1,0.8,0.3c0.2,0.2,0.3,0.5,0.3,0.8v4h3
				c0.3,0,0.5,0.1,0.7,0.3c0.2,0.2,0.3,0.5,0.3,0.8c0,0.3-0.1,0.6-0.3,0.8c-0.2,0.2-0.4,0.3-0.7,0.3h-3v5.8c0,0.8,0,1.4,0.1,1.9
				c0,0.5,0.2,0.9,0.3,1.3c0.2,0.3,0.4,0.6,0.7,0.7c0.3,0.1,0.7,0.2,1.2,0.2c0.1,0,0.2,0,0.3,0s0.2,0,0.3,0c0.2,0,0.3,0,0.5,0
				c0.2,0,0.3,0.1,0.5,0.1c0.1,0.1,0.3,0.2,0.4,0.3c0.1,0.1,0.1,0.3,0.1,0.6c0,0.3,0,0.5-0.1,0.6c-0.1,0.1-0.2,0.3-0.4,0.3
				c-0.2,0.1-0.3,0.1-0.5,0.1c-0.2,0-0.4,0-0.6,0c-1,0-1.9-0.1-2.5-0.4c-0.6-0.3-1.2-0.6-1.5-1.1s-0.6-1.1-0.8-1.9
				c-0.1-0.7-0.2-1.6-0.2-2.6V171z"/>
			<path class="st0" d="M494.5,179.3c0-2.1-1-3.1-3.1-3.1c-0.5,0-0.9,0.1-1.2,0.2c-0.3,0.1-0.6,0.3-1,0.4c0,0-0.1,0.1-0.3,0.1
				c-0.2,0.1-0.3,0.1-0.5,0.1c-0.3,0-0.5-0.1-0.6-0.3c-0.1-0.2-0.2-0.4-0.2-0.6c0-0.3,0.1-0.6,0.3-0.9c0.2-0.2,0.5-0.4,0.9-0.6
				c0.4-0.2,0.8-0.3,1.3-0.3c0.5-0.1,1-0.1,1.5-0.1c1.8,0,3.1,0.5,3.9,1.5c0.8,1,1.2,2.4,1.2,4.4v6.4c0,0.6,0.2,0.9,0.5,0.9
				c0,0,0.1,0,0.1,0s0.1,0,0.1,0c0.3,0,0.5,0.1,0.6,0.3c0.1,0.2,0.2,0.4,0.2,0.7c0,0.4-0.1,0.6-0.4,0.8c-0.3,0.1-0.6,0.2-0.9,0.2
				c-0.5,0-0.9-0.1-1.3-0.4c-0.4-0.3-0.7-0.6-0.9-1.1c-1.1,1-2.4,1.5-4,1.5c-1.5,0-2.6-0.4-3.3-1.2c-0.7-0.8-1.1-1.9-1.1-3.2v-0.1
				c0-2.9,1.7-4.3,5.1-4.3c1,0,2,0.1,2.9,0.4V179.3z M491.5,182.4c-0.6,0-1.1,0.1-1.5,0.2s-0.7,0.3-0.9,0.5
				c-0.2,0.2-0.3,0.5-0.4,0.8c-0.1,0.3-0.1,0.6-0.1,0.9v0.1c0,0.7,0.2,1.2,0.6,1.7c0.4,0.4,1,0.7,2,0.7c0.6,0,1.2-0.1,1.7-0.3
				c0.5-0.2,1-0.5,1.5-1v-3.1c-0.5-0.2-1-0.3-1.5-0.3C492.4,182.4,492,182.4,491.5,182.4z"/>
			<path class="st0" d="M503.6,188.2c0,0.3-0.1,0.6-0.3,0.8s-0.5,0.3-0.8,0.3c-0.3,0-0.6-0.1-0.8-0.3s-0.3-0.5-0.3-0.8v-9.8
				c0-0.5,0-0.9-0.1-1.2c-0.1-0.3-0.2-0.6-0.4-0.9c-0.1-0.1-0.1-0.2-0.1-0.3c0-0.1-0.1-0.2-0.1-0.3c0-0.3,0.1-0.6,0.3-0.7
				c0.2-0.2,0.5-0.3,0.7-0.3c0.2,0,0.4,0.1,0.6,0.2c0.2,0.1,0.4,0.3,0.5,0.6c0.6-0.4,1.3-0.7,2-0.9c0.7-0.2,1.4-0.3,1.9-0.3
				c0.6,0,1,0.1,1.2,0.3s0.3,0.5,0.3,0.8c0,0.4-0.1,0.7-0.3,0.9c-0.2,0.2-0.5,0.3-0.8,0.3c-0.6,0-1.2,0-1.8,0.1s-1.2,0.4-1.9,0.9
				c0,0.2,0,0.3,0,0.4s0,0.2,0,0.4V188.2z"/>
			<path class="st0" d="M532.5,188c-0.1,0.4-0.3,0.8-0.5,1s-0.5,0.3-0.9,0.3c-0.3,0-0.6-0.1-0.8-0.2c-0.2-0.2-0.4-0.4-0.5-0.7
				l-2.6-10.2l-2.6,10.2c-0.2,0.7-0.6,1-1.4,1c-0.4,0-0.7-0.1-0.9-0.3c-0.2-0.2-0.4-0.6-0.5-1l-3.4-12.5c0,0,0-0.1,0-0.2
				c0-0.3,0.1-0.5,0.3-0.7s0.5-0.3,0.8-0.3c0.2,0,0.4,0.1,0.6,0.2c0.2,0.1,0.3,0.3,0.4,0.6l2.7,10.7c0.4-1.8,0.9-3.5,1.3-5.2
				c0.4-1.7,0.9-3.5,1.3-5.2c0.1-0.3,0.2-0.5,0.4-0.7c0.2-0.2,0.5-0.3,0.9-0.3c0.3,0,0.6,0.1,0.8,0.3c0.2,0.2,0.4,0.4,0.4,0.7
				c0.4,1.8,0.9,3.5,1.3,5.2s0.9,3.5,1.3,5.2l2.7-10.7c0.1-0.2,0.2-0.4,0.4-0.6c0.2-0.2,0.4-0.2,0.7-0.2c0.3,0,0.5,0.1,0.8,0.3
				c0.2,0.2,0.3,0.5,0.3,0.8c0,0,0,0.1,0,0.1c0,0,0,0.1,0,0.1L532.5,188z"/>
			<path class="st0" d="M541.2,169.7c0,0.4-0.1,0.7-0.4,1c-0.3,0.3-0.6,0.4-1,0.4s-0.7-0.1-1-0.4s-0.4-0.6-0.4-1s0.1-0.7,0.4-1
				c0.3-0.3,0.6-0.4,1-0.4s0.7,0.1,1,0.4C541.1,169,541.2,169.3,541.2,169.7z M541,188.2c0,0.3-0.1,0.6-0.3,0.8s-0.5,0.3-0.8,0.3
				c-0.3,0-0.6-0.1-0.8-0.3s-0.3-0.5-0.3-0.8v-12.8c0-0.3,0.1-0.6,0.3-0.8s0.5-0.3,0.8-0.3c0.3,0,0.6,0.1,0.8,0.3s0.3,0.5,0.3,0.8
				V188.2z"/>
			<path class="st0" d="M545.5,171c0-0.3,0.1-0.6,0.3-0.8s0.5-0.3,0.8-0.3c0.4,0,0.6,0.1,0.8,0.3c0.2,0.2,0.3,0.5,0.3,0.8v4h3
				c0.3,0,0.5,0.1,0.7,0.3c0.2,0.2,0.3,0.5,0.3,0.8c0,0.3-0.1,0.6-0.3,0.8c-0.2,0.2-0.4,0.3-0.7,0.3h-3v5.8c0,0.8,0,1.4,0.1,1.9
				c0,0.5,0.2,0.9,0.3,1.3c0.2,0.3,0.4,0.6,0.7,0.7c0.3,0.1,0.7,0.2,1.2,0.2c0.1,0,0.2,0,0.3,0s0.2,0,0.3,0c0.2,0,0.3,0,0.5,0
				c0.2,0,0.3,0.1,0.5,0.1c0.1,0.1,0.3,0.2,0.4,0.3c0.1,0.1,0.1,0.3,0.1,0.6c0,0.3,0,0.5-0.1,0.6c-0.1,0.1-0.2,0.3-0.4,0.3
				c-0.2,0.1-0.3,0.1-0.5,0.1c-0.2,0-0.4,0-0.6,0c-1,0-1.9-0.1-2.5-0.4c-0.6-0.3-1.2-0.6-1.5-1.1s-0.6-1.1-0.8-1.9
				c-0.1-0.7-0.2-1.6-0.2-2.6V171z"/>
			<path class="st0" d="M556.8,189c-0.2,0.2-0.5,0.3-0.8,0.3c-0.3,0-0.6-0.1-0.8-0.3s-0.3-0.5-0.3-0.8V169c0-0.3,0.1-0.6,0.3-0.8
				c0.2-0.2,0.5-0.3,0.8-0.3c0.3,0,0.6,0.1,0.8,0.3s0.3,0.5,0.3,0.8v6.4c0.5-0.4,1.1-0.7,1.7-0.9c0.6-0.2,1.3-0.3,2-0.3
				c1.5,0,2.7,0.5,3.4,1.3c0.7,0.9,1.1,2.1,1.1,3.5v9.2c0,0.3-0.1,0.6-0.3,0.8s-0.5,0.3-0.8,0.3c-0.3,0-0.6-0.1-0.8-0.3
				s-0.3-0.5-0.3-0.8V179c0-0.9-0.2-1.6-0.6-2s-1-0.7-1.9-0.7c-0.6,0-1.2,0.1-1.8,0.4c-0.6,0.3-1.1,0.7-1.6,1.2v10.2
				C557.1,188.5,557,188.8,556.8,189z"/>
			<path class="st0" d="M587,179.9c-0.6,0.5-1.2,0.9-1.9,1.1s-1.4,0.3-2,0.3c-0.8,0-1.5-0.1-2.2-0.4c-0.7-0.3-1.3-0.7-1.9-1.2
				c-0.5-0.5-1-1.2-1.3-2c-0.3-0.8-0.5-1.7-0.5-2.8c0-0.9,0.1-1.7,0.3-2.5c0.2-0.8,0.6-1.5,1.1-2.1c0.5-0.6,1.1-1.1,1.8-1.4
				s1.6-0.5,2.7-0.5c1.2,0,2.2,0.2,3,0.7c0.8,0.5,1.4,1.2,1.9,2.1c0.5,0.9,0.8,2,1,3.2s0.3,2.6,0.3,4.2c0,3.6-0.5,6.3-1.6,8.1
				c-1,1.8-2.6,2.7-4.8,2.7c-0.3,0-0.6,0-1.1-0.1c-0.5,0-1-0.1-1.5-0.2c-0.5-0.1-0.9-0.3-1.3-0.5s-0.6-0.5-0.6-0.8
				c0-0.3,0.1-0.5,0.3-0.7c0.2-0.2,0.4-0.3,0.7-0.3c0.1,0,0.3,0,0.6,0.1c0.3,0.1,0.7,0.2,1.1,0.3c0.4,0.1,0.8,0.1,1.3,0.1
				c0.9,0,1.6-0.2,2.2-0.6s1-0.9,1.3-1.6c0.3-0.7,0.6-1.4,0.7-2.3C587,181.9,587,180.9,587,179.9z M587.1,176.8
				c0-0.9-0.1-1.7-0.2-2.4c-0.1-0.8-0.4-1.4-0.7-2s-0.7-1-1.2-1.3c-0.5-0.3-1.1-0.5-1.9-0.5c-0.7,0-1.2,0.1-1.7,0.4
				c-0.4,0.3-0.8,0.6-1.1,1c-0.3,0.4-0.5,0.9-0.6,1.4c-0.1,0.5-0.2,1.1-0.2,1.6c0,1.4,0.3,2.5,1,3.1s1.6,1,2.7,1
				c0.8,0,1.6-0.2,2.2-0.5c0.7-0.3,1.2-0.7,1.6-1.2V176.8z"/>
			<path class="st0" d="M597.8,168c1,0,1.9,0.2,2.6,0.5c0.7,0.3,1.3,0.8,1.8,1.4c0.5,0.6,0.8,1.3,1.1,2.1c0.2,0.8,0.3,1.7,0.3,2.6
				v8.6c0,0.9-0.1,1.6-0.4,2.4c-0.3,0.7-0.6,1.4-1.1,1.9c-0.5,0.6-1.1,1-1.8,1.3c-0.7,0.3-1.6,0.5-2.5,0.5s-1.8-0.2-2.5-0.5
				c-0.7-0.3-1.3-0.7-1.8-1.3c-0.5-0.6-0.9-1.2-1.1-1.9c-0.3-0.7-0.4-1.5-0.4-2.4v-8.6c0-0.9,0.1-1.8,0.3-2.6
				c0.2-0.8,0.6-1.5,1.1-2.1c0.5-0.6,1.1-1.1,1.8-1.4C595.9,168.2,596.8,168,597.8,168z M597.8,170.1c-0.6,0-1.2,0.1-1.6,0.3
				c-0.4,0.2-0.8,0.5-1.1,0.9s-0.5,0.8-0.6,1.4c-0.1,0.5-0.2,1.1-0.2,1.7v8.9c0,1.2,0.3,2.1,0.9,2.8c0.6,0.7,1.5,1.1,2.6,1.1
				s2-0.4,2.6-1.1s0.9-1.7,0.9-2.8v-8.9c0-0.6-0.1-1.2-0.2-1.7c-0.1-0.5-0.3-1-0.6-1.4c-0.3-0.4-0.6-0.7-1.1-0.9
				C599,170.3,598.5,170.1,597.8,170.1z"/>
			<path class="st0" d="M609,177.5c-0.5,0-1-0.1-1.4-0.2s-0.7-0.4-1-0.6s-0.5-0.6-0.6-1c-0.1-0.4-0.2-0.8-0.2-1.2v-2.8
				c0-0.4,0.1-0.8,0.2-1.2c0.1-0.4,0.3-0.7,0.6-1s0.6-0.5,1-0.6c0.4-0.2,0.9-0.2,1.4-0.2c0.5,0,1,0.1,1.4,0.2c0.4,0.2,0.7,0.4,1,0.6
				c0.3,0.3,0.5,0.6,0.6,1c0.1,0.4,0.2,0.8,0.2,1.2v2.8c0,0.4-0.1,0.8-0.2,1.2c-0.1,0.4-0.3,0.7-0.6,1c-0.3,0.3-0.6,0.5-1,0.6
				S609.5,177.5,609,177.5z M609,176.3c0.6,0,1.1-0.2,1.4-0.5c0.3-0.3,0.5-0.8,0.5-1.3v-2.8c0-0.6-0.2-1-0.5-1.3
				c-0.3-0.3-0.8-0.5-1.4-0.5c-0.6,0-1.1,0.2-1.4,0.5c-0.3,0.3-0.5,0.8-0.5,1.3v2.8c0,0.6,0.2,1,0.5,1.3
				C608,176.2,608.4,176.3,609,176.3z"/>
			<path class="st0" d="M432.5,209.1c0.5,0,1,0,1.6,0.1s1.1,0.2,1.6,0.4v-5.7c0-0.3,0.1-0.6,0.3-0.8c0.2-0.2,0.5-0.3,0.8-0.3
				s0.6,0.1,0.8,0.3s0.3,0.5,0.3,0.8v16.6c0,0.4,0.1,0.7,0.2,1s0.3,0.5,0.6,0.7c0.1,0.1,0.1,0.2,0.1,0.3c0,0.1,0.1,0.2,0.1,0.3
				c0,0.3-0.1,0.6-0.3,0.7s-0.4,0.3-0.7,0.3c-0.3,0-0.6-0.1-0.9-0.3c-0.3-0.2-0.5-0.4-0.7-0.7c-0.6,0.3-1.3,0.6-2,0.8
				c-0.7,0.2-1.4,0.3-2.1,0.3c-1.5,0-2.7-0.5-3.5-1.5c-0.8-1-1.2-2.3-1.2-4v-3.7c0-0.9,0.1-1.7,0.2-2.4c0.2-0.7,0.4-1.3,0.8-1.8
				c0.4-0.5,0.9-0.9,1.5-1.2C430.8,209.2,431.5,209.1,432.5,209.1z M435.7,211.6c-0.5-0.2-1-0.4-1.6-0.5s-1-0.1-1.4-0.1
				c-1.1,0-1.8,0.3-2.2,0.9c-0.4,0.6-0.6,1.6-0.6,3v3.7c0,2.3,0.9,3.5,2.8,3.5c0.5,0,1-0.1,1.5-0.2c0.5-0.1,1-0.4,1.6-0.6
				c0-0.1-0.1-0.2-0.1-0.3c0-0.1,0-0.2,0-0.3V211.6z"/>
			<path class="st0" d="M447.2,222.1c0.6,0,1.2-0.1,1.6-0.2c0.4-0.2,0.9-0.3,1.4-0.6c0,0,0.1,0,0.2-0.1s0.1,0,0.2,0
				c0.3,0,0.5,0.1,0.7,0.3s0.3,0.4,0.3,0.7c0,0.3-0.2,0.6-0.5,0.9c-0.3,0.2-0.8,0.4-1.2,0.6c-0.5,0.1-1,0.3-1.6,0.3
				c-0.5,0.1-1,0.1-1.4,0.1c-0.8,0-1.5-0.1-2.2-0.4c-0.6-0.2-1.2-0.6-1.6-1c-0.4-0.4-0.8-0.9-1-1.5c-0.2-0.6-0.3-1.2-0.3-1.9v-5.4
				c0-0.7,0.1-1.3,0.3-1.9c0.2-0.6,0.6-1.1,1-1.6c0.4-0.4,1-0.8,1.7-1c0.7-0.3,1.4-0.4,2.3-0.4c1.6,0,2.8,0.4,3.6,1.3
				c0.8,0.9,1.2,2,1.2,3.5c0,1.3-0.4,2.4-1.1,3.1s-2,1.1-3.8,1.1c-0.4,0-0.9,0-1.4-0.1c-0.5,0-1-0.1-1.5-0.2v1.7
				c0,0.8,0.3,1.5,0.8,1.9C445.4,221.8,446.1,222.1,447.2,222.1z M449.6,213.7c0-0.9-0.2-1.6-0.7-2c-0.5-0.4-1.1-0.6-2-0.6
				c-0.9,0-1.7,0.2-2.2,0.7c-0.5,0.5-0.8,1.1-0.8,1.9v2.2c0.5,0.1,1.1,0.1,1.7,0.2c0.6,0,1,0,1.3,0c0.5,0,1-0.1,1.3-0.2
				c0.3-0.1,0.6-0.3,0.8-0.5c0.2-0.2,0.3-0.5,0.4-0.8C449.6,214.3,449.6,214,449.6,213.7z"/>
			<path class="st0" d="M459.7,208.9c0.7,0,1.3,0.1,2,0.2c0.6,0.2,1.3,0.4,1.8,0.7c0.3-0.6,0.7-1,1.2-1.3c0.4-0.3,0.8-0.4,1.2-0.4
				c0.3,0,0.6,0.1,0.8,0.3c0.2,0.2,0.3,0.4,0.3,0.7c0,0.2,0,0.3-0.1,0.4c0,0.1-0.1,0.2-0.1,0.2c-0.3,0.3-0.5,0.5-0.7,0.7
				s-0.4,0.4-0.5,0.6c-0.1,0.2-0.2,0.4-0.3,0.7c-0.1,0.2-0.1,0.5-0.1,0.9v1.8c0,0.7-0.1,1.4-0.3,2.1c-0.2,0.6-0.6,1.2-1,1.7
				c-0.4,0.5-1,0.8-1.6,1.1c-0.7,0.3-1.4,0.4-2.3,0.4c-0.9,0-1.7-0.1-2.3-0.4c-0.1,0.3-0.2,0.5-0.3,0.7c0,0.2-0.1,0.4-0.1,0.6
				c0,0.3,0.1,0.5,0.2,0.6c0.1,0.2,0.2,0.3,0.4,0.4c0.2,0.1,0.3,0.2,0.5,0.2c0.2,0,0.4,0.1,0.5,0.1h1.2c0.8,0,1.6,0.1,2.3,0.3
				c0.7,0.2,1.3,0.4,1.8,0.8c0.5,0.3,0.9,0.8,1.2,1.3s0.4,1.2,0.4,1.9c0,0.7-0.2,1.4-0.5,2s-0.7,1.1-1.2,1.5
				c-0.5,0.4-1.2,0.7-1.9,0.9c-0.7,0.2-1.5,0.3-2.4,0.3c-0.8,0-1.6-0.1-2.2-0.3c-0.7-0.2-1.3-0.5-1.8-0.9s-0.9-0.8-1.1-1.4
				s-0.4-1.2-0.4-1.9c0-0.7,0.1-1.4,0.4-1.9s0.6-1.1,1.1-1.6c-0.3-0.3-0.6-0.7-0.7-1.1c-0.1-0.4-0.2-0.8-0.2-1.1
				c0-0.3,0.1-0.7,0.2-1.2c0.1-0.4,0.4-0.8,0.9-1.2c-1-1-1.6-2.3-1.6-4.1c0-0.8,0.1-1.5,0.3-2.1c0.2-0.6,0.5-1.2,1-1.7
				c0.4-0.5,1-0.8,1.6-1.1C458.1,209.1,458.8,208.9,459.7,208.9z M458.9,224c-0.4,0-0.9,0-1.3-0.1c-0.7,0.6-1,1.3-1,2.3
				c0,0.9,0.3,1.5,0.8,2c0.6,0.5,1.4,0.7,2.5,0.7c1,0,1.9-0.2,2.6-0.6c0.7-0.4,1-1.1,1-1.9c0-1.5-1.2-2.2-3.5-2.2H458.9z
				 M462.9,212.7c0-0.2,0-0.3,0-0.4c0-0.1,0-0.3,0-0.4c-0.4-0.3-0.9-0.5-1.4-0.6c-0.5-0.2-1-0.2-1.5-0.2c-1.1,0-1.9,0.3-2.4,0.9
				c-0.5,0.6-0.8,1.4-0.8,2.5c0,1,0.2,1.8,0.7,2.4c0.5,0.6,1.3,0.9,2.4,0.9c1,0,1.8-0.3,2.3-0.8c0.5-0.5,0.7-1.3,0.7-2.3V212.7z"/>
			<path class="st0" d="M471.8,223c0,0.3-0.1,0.6-0.3,0.8s-0.5,0.3-0.8,0.3c-0.3,0-0.6-0.1-0.8-0.3s-0.3-0.5-0.3-0.8v-9.8
				c0-0.5,0-0.9-0.1-1.2c-0.1-0.3-0.2-0.6-0.4-0.9c-0.1-0.1-0.1-0.2-0.1-0.3c0-0.1-0.1-0.2-0.1-0.3c0-0.3,0.1-0.6,0.3-0.7
				c0.2-0.2,0.5-0.3,0.7-0.3c0.2,0,0.4,0.1,0.6,0.2c0.2,0.1,0.4,0.3,0.5,0.6c0.6-0.4,1.3-0.7,2-0.9c0.7-0.2,1.4-0.3,1.9-0.3
				c0.6,0,1,0.1,1.2,0.3s0.3,0.5,0.3,0.8c0,0.4-0.1,0.7-0.3,0.9c-0.2,0.2-0.5,0.3-0.8,0.3c-0.6,0-1.2,0-1.8,0.1s-1.2,0.4-1.9,0.9
				c0,0.2,0,0.3,0,0.4s0,0.2,0,0.4V223z"/>
			<path class="st0" d="M483.8,222.1c0.6,0,1.2-0.1,1.6-0.2c0.4-0.2,0.9-0.3,1.4-0.6c0,0,0.1,0,0.2-0.1s0.1,0,0.2,0
				c0.3,0,0.5,0.1,0.7,0.3s0.3,0.4,0.3,0.7c0,0.3-0.2,0.6-0.5,0.9c-0.3,0.2-0.8,0.4-1.2,0.6c-0.5,0.1-1,0.3-1.6,0.3
				c-0.5,0.1-1,0.1-1.4,0.1c-0.8,0-1.5-0.1-2.2-0.4c-0.6-0.2-1.2-0.6-1.6-1c-0.4-0.4-0.8-0.9-1-1.5c-0.2-0.6-0.3-1.2-0.3-1.9v-5.4
				c0-0.7,0.1-1.3,0.3-1.9c0.2-0.6,0.6-1.1,1-1.6c0.4-0.4,1-0.8,1.7-1c0.7-0.3,1.4-0.4,2.3-0.4c1.6,0,2.8,0.4,3.6,1.3
				c0.8,0.9,1.2,2,1.2,3.5c0,1.3-0.4,2.4-1.1,3.1s-2,1.1-3.8,1.1c-0.4,0-0.9,0-1.4-0.1c-0.5,0-1-0.1-1.5-0.2v1.7
				c0,0.8,0.3,1.5,0.8,1.9C481.9,221.8,482.7,222.1,483.8,222.1z M486.2,213.7c0-0.9-0.2-1.6-0.7-2c-0.5-0.4-1.1-0.6-2-0.6
				c-0.9,0-1.7,0.2-2.2,0.7c-0.5,0.5-0.8,1.1-0.8,1.9v2.2c0.5,0.1,1.1,0.1,1.7,0.2c0.6,0,1,0,1.3,0c0.5,0,1-0.1,1.3-0.2
				c0.3-0.1,0.6-0.3,0.8-0.5c0.2-0.2,0.3-0.5,0.4-0.8C486.2,214.3,486.2,214,486.2,213.7z"/>
			<path class="st0" d="M496.4,222.1c0.6,0,1.2-0.1,1.6-0.2c0.4-0.2,0.9-0.3,1.4-0.6c0,0,0.1,0,0.2-0.1s0.1,0,0.2,0
				c0.3,0,0.5,0.1,0.7,0.3s0.3,0.4,0.3,0.7c0,0.3-0.2,0.6-0.5,0.9c-0.3,0.2-0.8,0.4-1.2,0.6c-0.5,0.1-1,0.3-1.6,0.3
				c-0.5,0.1-1,0.1-1.4,0.1c-0.8,0-1.5-0.1-2.2-0.4c-0.6-0.2-1.2-0.6-1.6-1c-0.4-0.4-0.8-0.9-1-1.5c-0.2-0.6-0.3-1.2-0.3-1.9v-5.4
				c0-0.7,0.1-1.3,0.3-1.9c0.2-0.6,0.6-1.1,1-1.6c0.4-0.4,1-0.8,1.7-1c0.7-0.3,1.4-0.4,2.3-0.4c1.6,0,2.8,0.4,3.6,1.3
				c0.8,0.9,1.2,2,1.2,3.5c0,1.3-0.4,2.4-1.1,3.1s-2,1.1-3.8,1.1c-0.4,0-0.9,0-1.4-0.1c-0.5,0-1-0.1-1.5-0.2v1.7
				c0,0.8,0.3,1.5,0.8,1.9C494.5,221.8,495.3,222.1,496.4,222.1z M498.8,213.7c0-0.9-0.2-1.6-0.7-2c-0.5-0.4-1.1-0.6-2-0.6
				c-0.9,0-1.7,0.2-2.2,0.7c-0.5,0.5-0.8,1.1-0.8,1.9v2.2c0.5,0.1,1.1,0.1,1.7,0.2c0.6,0,1,0,1.3,0c0.5,0,1-0.1,1.3-0.2
				c0.3-0.1,0.6-0.3,0.8-0.5c0.2-0.2,0.3-0.5,0.4-0.8C498.8,214.3,498.8,214,498.8,213.7z"/>
			<path class="st0" d="M503.7,213.1c0-1.3,0.4-2.3,1.2-3c0.8-0.8,2-1.1,3.5-1.1c0.4,0,0.8,0,1.2,0.1c0.5,0.1,0.9,0.2,1.3,0.3
				c0.4,0.1,0.7,0.3,1,0.5c0.3,0.2,0.4,0.5,0.4,0.8c0,0.3-0.1,0.5-0.3,0.7s-0.4,0.3-0.8,0.3c-0.2,0-0.3,0-0.5-0.1
				c-0.3-0.2-0.6-0.3-0.9-0.4c-0.3-0.1-0.7-0.1-1.3-0.1c-1.7,0-2.6,0.7-2.6,2c0,0.4,0.1,0.8,0.3,1.1c0.2,0.3,0.6,0.5,1.1,0.8
				c0.5,0.3,1.1,0.5,1.7,0.7c0.6,0.2,1.2,0.5,1.8,0.8c0.6,0.3,1,0.8,1.4,1.3c0.4,0.5,0.6,1.3,0.6,2.2c0,1.3-0.4,2.3-1.2,3.1
				c-0.8,0.8-2,1.1-3.7,1.1c-0.4,0-0.8,0-1.3-0.1c-0.5,0-1-0.1-1.4-0.3c-0.4-0.1-0.8-0.3-1.1-0.5c-0.3-0.2-0.5-0.5-0.5-0.8
				c0-0.3,0.1-0.5,0.3-0.7c0.2-0.2,0.4-0.3,0.8-0.3c0.1,0,0.2,0,0.2,0c0,0,0.1,0,0.1,0c0.4,0.2,0.8,0.3,1.3,0.4
				c0.5,0.1,1,0.2,1.6,0.2c0.8,0,1.5-0.2,1.9-0.5c0.5-0.3,0.7-0.9,0.7-1.6c0-0.5-0.1-0.9-0.3-1.2c-0.2-0.3-0.5-0.5-0.8-0.6
				c-0.5-0.3-1-0.5-1.7-0.7c-0.6-0.2-1.3-0.5-1.9-0.8c-0.6-0.3-1.1-0.8-1.5-1.3S503.7,214.1,503.7,213.1z"/>
			<path class="st0" d="M527.2,223c0,0.3-0.1,0.6-0.3,0.8s-0.5,0.3-0.8,0.3c-0.3,0-0.6-0.1-0.8-0.3s-0.3-0.5-0.3-0.8v-9.8
				c0-0.5,0-0.9-0.1-1.2c-0.1-0.3-0.2-0.6-0.4-0.9c-0.1-0.1-0.1-0.2-0.1-0.3c0-0.1-0.1-0.2-0.1-0.3c0-0.3,0.1-0.6,0.3-0.7
				c0.2-0.2,0.5-0.3,0.7-0.3c0.2,0,0.4,0.1,0.6,0.2c0.2,0.1,0.4,0.3,0.5,0.6c0.6-0.4,1.3-0.7,2-0.9c0.7-0.2,1.4-0.3,1.9-0.3
				c0.6,0,1,0.1,1.2,0.3s0.3,0.5,0.3,0.8c0,0.4-0.1,0.7-0.3,0.9c-0.2,0.2-0.5,0.3-0.8,0.3c-0.6,0-1.2,0-1.8,0.1s-1.2,0.4-1.9,0.9
				c0,0.2,0,0.3,0,0.4s0,0.2,0,0.4V223z"/>
			<path class="st0" d="M539.1,224.1c-0.9,0-1.7-0.1-2.3-0.4c-0.7-0.3-1.2-0.6-1.7-1.1c-0.5-0.5-0.8-1-1-1.6c-0.2-0.6-0.3-1.3-0.3-2
				v-4.8c0-0.7,0.1-1.4,0.3-2c0.2-0.6,0.6-1.2,1-1.6c0.5-0.5,1-0.8,1.7-1.1c0.7-0.3,1.5-0.4,2.3-0.4c0.9,0,1.7,0.1,2.3,0.4
				c0.7,0.3,1.2,0.6,1.7,1.1s0.8,1,1,1.6c0.2,0.6,0.3,1.3,0.3,2v4.8c0,0.7-0.1,1.4-0.3,2c-0.2,0.6-0.6,1.2-1,1.6s-1,0.8-1.7,1.1
				C540.7,224,539.9,224.1,539.1,224.1z M539.1,222c1,0,1.8-0.3,2.4-0.8c0.5-0.5,0.8-1.3,0.8-2.3v-4.9c0-0.9-0.3-1.7-0.8-2.2
				c-0.5-0.5-1.3-0.8-2.4-0.8c-1,0-1.8,0.3-2.4,0.8c-0.5,0.5-0.8,1.3-0.8,2.2v4.9c0,1,0.3,1.7,0.8,2.3
				C537.2,221.7,538,222,539.1,222z"/>
			<path class="st0" d="M547.9,205.8c0-0.3,0.1-0.6,0.3-0.8s0.5-0.3,0.8-0.3c0.4,0,0.6,0.1,0.8,0.3c0.2,0.2,0.3,0.5,0.3,0.8v4h3
				c0.3,0,0.5,0.1,0.7,0.3c0.2,0.2,0.3,0.5,0.3,0.8c0,0.3-0.1,0.6-0.3,0.8c-0.2,0.2-0.4,0.3-0.7,0.3h-3v5.8c0,0.8,0,1.4,0.1,1.9
				c0,0.5,0.2,0.9,0.3,1.3c0.2,0.3,0.4,0.6,0.7,0.7c0.3,0.1,0.7,0.2,1.2,0.2c0.1,0,0.2,0,0.3,0s0.2,0,0.3,0c0.2,0,0.3,0,0.5,0
				c0.2,0,0.3,0.1,0.5,0.1c0.1,0.1,0.3,0.2,0.4,0.3c0.1,0.1,0.1,0.3,0.1,0.6c0,0.3,0,0.5-0.1,0.6c-0.1,0.1-0.2,0.3-0.4,0.3
				c-0.2,0.1-0.3,0.1-0.5,0.1c-0.2,0-0.4,0-0.6,0c-1,0-1.9-0.1-2.5-0.4c-0.6-0.3-1.2-0.6-1.5-1.1s-0.6-1.1-0.8-1.9
				c-0.1-0.7-0.2-1.6-0.2-2.6V205.8z"/>
			<path class="st0" d="M564.4,214.1c0-2.1-1-3.1-3.1-3.1c-0.5,0-0.9,0.1-1.2,0.2c-0.3,0.1-0.6,0.3-1,0.4c0,0-0.1,0.1-0.3,0.1
				c-0.2,0.1-0.3,0.1-0.5,0.1c-0.3,0-0.5-0.1-0.6-0.3c-0.1-0.2-0.2-0.4-0.2-0.6c0-0.3,0.1-0.6,0.3-0.9c0.2-0.2,0.5-0.4,0.9-0.6
				c0.4-0.2,0.8-0.3,1.3-0.3c0.5-0.1,1-0.1,1.5-0.1c1.8,0,3.1,0.5,3.9,1.5c0.8,1,1.2,2.4,1.2,4.4v6.4c0,0.6,0.2,0.9,0.5,0.9
				c0,0,0.1,0,0.1,0s0.1,0,0.1,0c0.3,0,0.5,0.1,0.6,0.3c0.1,0.2,0.2,0.4,0.2,0.7c0,0.4-0.1,0.6-0.4,0.8c-0.3,0.1-0.6,0.2-0.9,0.2
				c-0.5,0-0.9-0.1-1.3-0.4c-0.4-0.3-0.7-0.6-0.9-1.1c-1.1,1-2.4,1.5-4,1.5c-1.5,0-2.6-0.4-3.3-1.2c-0.7-0.8-1.1-1.9-1.1-3.2v-0.1
				c0-2.9,1.7-4.3,5.1-4.3c1,0,2,0.1,2.9,0.4V214.1z M561.5,217.2c-0.6,0-1.1,0.1-1.5,0.2s-0.7,0.3-0.9,0.5
				c-0.2,0.2-0.3,0.5-0.4,0.8c-0.1,0.3-0.1,0.6-0.1,0.9v0.1c0,0.7,0.2,1.2,0.6,1.7c0.4,0.4,1,0.7,2,0.7c0.6,0,1.2-0.1,1.7-0.3
				c0.5-0.2,1-0.5,1.5-1v-3.1c-0.5-0.2-1-0.3-1.5-0.3C562.4,217.2,561.9,217.2,561.5,217.2z"/>
			<path class="st0" d="M570.6,205.8c0-0.3,0.1-0.6,0.3-0.8s0.5-0.3,0.8-0.3c0.4,0,0.6,0.1,0.8,0.3c0.2,0.2,0.3,0.5,0.3,0.8v4h3
				c0.3,0,0.5,0.1,0.7,0.3c0.2,0.2,0.3,0.5,0.3,0.8c0,0.3-0.1,0.6-0.3,0.8c-0.2,0.2-0.4,0.3-0.7,0.3h-3v5.8c0,0.8,0,1.4,0.1,1.9
				c0,0.5,0.2,0.9,0.3,1.3c0.2,0.3,0.4,0.6,0.7,0.7c0.3,0.1,0.7,0.2,1.2,0.2c0.1,0,0.2,0,0.3,0s0.2,0,0.3,0c0.2,0,0.3,0,0.5,0
				c0.2,0,0.3,0.1,0.5,0.1c0.1,0.1,0.3,0.2,0.4,0.3c0.1,0.1,0.1,0.3,0.1,0.6c0,0.3,0,0.5-0.1,0.6c-0.1,0.1-0.2,0.3-0.4,0.3
				c-0.2,0.1-0.3,0.1-0.5,0.1c-0.2,0-0.4,0-0.6,0c-1,0-1.9-0.1-2.5-0.4c-0.6-0.3-1.2-0.6-1.5-1.1s-0.6-1.1-0.8-1.9
				c-0.1-0.7-0.2-1.6-0.2-2.6V205.8z"/>
			<path class="st0" d="M582.6,204.5c0,0.4-0.1,0.7-0.4,1c-0.3,0.3-0.6,0.4-1,0.4s-0.7-0.1-1-0.4s-0.4-0.6-0.4-1s0.1-0.7,0.4-1
				c0.3-0.3,0.6-0.4,1-0.4s0.7,0.1,1,0.4C582.4,203.8,582.6,204.1,582.6,204.5z M582.3,223c0,0.3-0.1,0.6-0.3,0.8s-0.5,0.3-0.8,0.3
				c-0.3,0-0.6-0.1-0.8-0.3s-0.3-0.5-0.3-0.8v-12.8c0-0.3,0.1-0.6,0.3-0.8s0.5-0.3,0.8-0.3c0.3,0,0.6,0.1,0.8,0.3s0.3,0.5,0.3,0.8
				V223z"/>
			<path class="st0" d="M591.5,224.1c-0.9,0-1.7-0.1-2.3-0.4c-0.7-0.3-1.2-0.6-1.7-1.1c-0.5-0.5-0.8-1-1-1.6c-0.2-0.6-0.3-1.3-0.3-2
				v-4.8c0-0.7,0.1-1.4,0.3-2c0.2-0.6,0.6-1.2,1-1.6c0.5-0.5,1-0.8,1.7-1.1c0.7-0.3,1.5-0.4,2.3-0.4c0.9,0,1.7,0.1,2.3,0.4
				c0.7,0.3,1.2,0.6,1.7,1.1s0.8,1,1,1.6c0.2,0.6,0.3,1.3,0.3,2v4.8c0,0.7-0.1,1.4-0.3,2c-0.2,0.6-0.6,1.2-1,1.6s-1,0.8-1.7,1.1
				C593.1,224,592.3,224.1,591.5,224.1z M591.5,222c1,0,1.8-0.3,2.4-0.8c0.5-0.5,0.8-1.3,0.8-2.3v-4.9c0-0.9-0.3-1.7-0.8-2.2
				c-0.5-0.5-1.3-0.8-2.4-0.8c-1,0-1.8,0.3-2.4,0.8c-0.5,0.5-0.8,1.3-0.8,2.2v4.9c0,1,0.3,1.7,0.8,2.3
				C589.6,221.7,590.4,222,591.5,222z"/>
			<path class="st0" d="M602.7,223c0,0.3-0.1,0.6-0.3,0.8c-0.2,0.2-0.5,0.3-0.9,0.3c-0.4,0-0.7-0.1-0.9-0.3
				c-0.2-0.2-0.3-0.5-0.3-0.8v-9.9c0-0.4,0-0.7,0-0.9s-0.1-0.4-0.1-0.5c0-0.1-0.1-0.2-0.2-0.3c-0.1-0.1-0.1-0.2-0.2-0.3
				c0-0.1-0.1-0.1-0.1-0.2c0-0.1-0.1-0.2-0.1-0.4c0-0.3,0.1-0.5,0.3-0.7s0.5-0.3,0.8-0.3c0.3,0,0.5,0.1,0.7,0.2
				c0.2,0.2,0.4,0.4,0.5,0.6c0.6-0.4,1.3-0.8,2-1c0.7-0.2,1.4-0.3,2.1-0.3c1.5,0,2.7,0.5,3.5,1.5s1.1,2.3,1.1,4v8.5
				c0,0.3-0.1,0.6-0.3,0.8c-0.2,0.2-0.5,0.3-0.8,0.3s-0.6-0.1-0.8-0.3c-0.2-0.2-0.3-0.5-0.3-0.8v-8.5c0-1.1-0.2-2-0.7-2.6
				c-0.5-0.6-1.1-0.9-2-0.9c-0.6,0-1.1,0.1-1.7,0.3s-1.1,0.5-1.6,0.9c0.1,0.3,0.1,0.6,0.1,0.8V223z"/>
		</g>
	</g>
	<g>
		<g>
			<path class="st0" d="M429.7,596c0,0.3-0.1,0.6-0.3,0.8s-0.5,0.3-0.8,0.3c-0.3,0-0.6-0.1-0.8-0.3s-0.3-0.5-0.3-0.8v-9.8
				c0-0.5,0-0.9-0.1-1.2c-0.1-0.3-0.2-0.6-0.4-0.9c-0.1-0.1-0.1-0.2-0.1-0.3c0-0.1-0.1-0.2-0.1-0.3c0-0.3,0.1-0.6,0.3-0.7
				c0.2-0.2,0.5-0.3,0.7-0.3c0.2,0,0.4,0.1,0.6,0.2c0.2,0.1,0.4,0.3,0.5,0.6c0.6-0.4,1.3-0.7,2-0.9c0.7-0.2,1.4-0.3,1.9-0.3
				c0.6,0,1,0.1,1.2,0.3s0.3,0.5,0.3,0.8c0,0.4-0.1,0.7-0.3,0.9c-0.2,0.2-0.5,0.3-0.8,0.3c-0.6,0-1.2,0-1.8,0.1s-1.2,0.4-1.9,0.9
				c0,0.2,0,0.3,0,0.4s0,0.2,0,0.4V596z"/>
			<path class="st0" d="M441.6,597.2c-0.9,0-1.7-0.1-2.3-0.4c-0.7-0.3-1.2-0.6-1.7-1.1c-0.5-0.5-0.8-1-1-1.6c-0.2-0.6-0.3-1.3-0.3-2
				v-4.8c0-0.7,0.1-1.4,0.3-2c0.2-0.6,0.6-1.2,1-1.6c0.5-0.5,1-0.8,1.7-1.1c0.7-0.3,1.5-0.4,2.3-0.4c0.9,0,1.7,0.1,2.3,0.4
				c0.7,0.3,1.2,0.6,1.7,1.1s0.8,1,1,1.6c0.2,0.6,0.3,1.3,0.3,2v4.8c0,0.7-0.1,1.4-0.3,2c-0.2,0.6-0.6,1.2-1,1.6s-1,0.8-1.7,1.1
				C443.3,597,442.5,597.2,441.6,597.2z M441.6,595.1c1,0,1.8-0.3,2.4-0.8c0.5-0.5,0.8-1.3,0.8-2.3v-4.9c0-0.9-0.3-1.7-0.8-2.2
				c-0.5-0.5-1.3-0.8-2.4-0.8c-1,0-1.8,0.3-2.4,0.8c-0.5,0.5-0.8,1.3-0.8,2.2v4.9c0,1,0.3,1.7,0.8,2.3
				C439.8,594.8,440.5,595.1,441.6,595.1z"/>
			<path class="st0" d="M458.5,583.2c0-0.3,0.1-0.6,0.3-0.8s0.5-0.3,0.9-0.3s0.7,0.1,0.9,0.3s0.3,0.5,0.3,0.8v10.1
				c0,0.4,0,0.7,0,0.9s0.1,0.4,0.1,0.5c0.1,0.1,0.1,0.2,0.2,0.3c0.1,0.1,0.1,0.2,0.2,0.3c0,0.1,0.1,0.1,0.1,0.2
				c0,0.1,0.1,0.2,0.1,0.3c0,0.3-0.1,0.5-0.3,0.7c-0.2,0.2-0.5,0.3-0.8,0.3c-0.3,0-0.5-0.1-0.7-0.2c-0.2-0.2-0.4-0.4-0.5-0.6
				c-0.6,0.4-1.3,0.6-2,0.8s-1.4,0.2-2.1,0.2c-1.5,0-2.7-0.5-3.5-1.5c-0.8-1-1.1-2.3-1.1-4v-8.5c0-0.3,0.1-0.6,0.3-0.8
				s0.5-0.3,0.8-0.3c0.4,0,0.6,0.1,0.8,0.3c0.2,0.2,0.3,0.5,0.3,0.8v8.5c0,1.1,0.2,2,0.7,2.6c0.5,0.6,1.1,0.9,2,0.9
				c0.6,0,1.1-0.1,1.7-0.2c0.5-0.2,1.1-0.4,1.5-0.7c0-0.2,0-0.3,0-0.4c0-0.1,0-0.3,0-0.4V583.2z"/>
			<path class="st0" d="M467.6,596c0,0.3-0.1,0.6-0.3,0.8c-0.2,0.2-0.5,0.3-0.9,0.3c-0.4,0-0.7-0.1-0.9-0.3
				c-0.2-0.2-0.3-0.5-0.3-0.8v-9.9c0-0.4,0-0.7,0-0.9s-0.1-0.4-0.1-0.5c0-0.1-0.1-0.2-0.2-0.3c-0.1-0.1-0.1-0.2-0.2-0.3
				c0-0.1-0.1-0.1-0.1-0.2c0-0.1-0.1-0.2-0.1-0.4c0-0.3,0.1-0.5,0.3-0.7s0.5-0.3,0.8-0.3c0.3,0,0.5,0.1,0.7,0.2
				c0.2,0.2,0.4,0.4,0.5,0.6c0.6-0.4,1.3-0.8,2-1c0.7-0.2,1.4-0.3,2.1-0.3c1.5,0,2.7,0.5,3.5,1.5s1.1,2.3,1.1,4v8.5
				c0,0.3-0.1,0.6-0.3,0.8c-0.2,0.2-0.5,0.3-0.8,0.3s-0.6-0.1-0.8-0.3c-0.2-0.2-0.3-0.5-0.3-0.8v-8.5c0-1.1-0.2-2-0.7-2.6
				c-0.5-0.6-1.1-0.9-2-0.9c-0.6,0-1.1,0.1-1.7,0.3s-1.1,0.5-1.6,0.9c0.1,0.3,0.1,0.6,0.1,0.8V596z"/>
			<path class="st0" d="M484,582.1c0.5,0,1,0,1.6,0.1s1.1,0.2,1.6,0.4V577c0-0.3,0.1-0.6,0.3-0.8c0.2-0.2,0.5-0.3,0.8-0.3
				s0.6,0.1,0.8,0.3s0.3,0.5,0.3,0.8v16.6c0,0.4,0.1,0.7,0.2,1s0.3,0.5,0.6,0.7c0.1,0.1,0.1,0.2,0.1,0.3c0,0.1,0.1,0.2,0.1,0.3
				c0,0.3-0.1,0.6-0.3,0.7s-0.4,0.3-0.7,0.3c-0.3,0-0.6-0.1-0.9-0.3c-0.3-0.2-0.5-0.4-0.7-0.7c-0.6,0.3-1.3,0.6-2,0.8
				c-0.7,0.2-1.4,0.3-2.1,0.3c-1.5,0-2.7-0.5-3.5-1.5c-0.8-1-1.2-2.3-1.2-4V588c0-0.9,0.1-1.7,0.2-2.4c0.2-0.7,0.4-1.3,0.8-1.8
				c0.4-0.5,0.9-0.9,1.5-1.2C482.3,582.3,483.1,582.1,484,582.1z M487.2,584.7c-0.5-0.2-1-0.4-1.6-0.5s-1-0.1-1.4-0.1
				c-1.1,0-1.8,0.3-2.2,0.9c-0.4,0.6-0.6,1.6-0.6,3v3.7c0,2.3,0.9,3.5,2.8,3.5c0.5,0,1-0.1,1.5-0.2c0.5-0.1,1-0.4,1.6-0.6
				c0-0.1-0.1-0.2-0.1-0.3c0-0.1,0-0.2,0-0.3V584.7z"/>
			<path class="st0" d="M498.7,595.2c0.6,0,1.2-0.1,1.6-0.2c0.4-0.2,0.9-0.3,1.4-0.6c0,0,0.1,0,0.2-0.1s0.1,0,0.2,0
				c0.3,0,0.5,0.1,0.7,0.3s0.3,0.4,0.3,0.7c0,0.3-0.2,0.6-0.5,0.9c-0.3,0.2-0.8,0.4-1.2,0.6c-0.5,0.1-1,0.3-1.6,0.3
				c-0.5,0.1-1,0.1-1.4,0.1c-0.8,0-1.5-0.1-2.2-0.4c-0.6-0.2-1.2-0.6-1.6-1c-0.4-0.4-0.8-0.9-1-1.5c-0.2-0.6-0.3-1.2-0.3-1.9v-5.4
				c0-0.7,0.1-1.3,0.3-1.9c0.2-0.6,0.6-1.1,1-1.6c0.4-0.4,1-0.8,1.7-1c0.7-0.3,1.4-0.4,2.3-0.4c1.6,0,2.8,0.4,3.6,1.3
				c0.8,0.9,1.2,2,1.2,3.5c0,1.3-0.4,2.4-1.1,3.1s-2,1.1-3.8,1.1c-0.4,0-0.9,0-1.4-0.1c-0.5,0-1-0.1-1.5-0.2v1.7
				c0,0.8,0.3,1.5,0.8,1.9C496.9,594.9,497.7,595.2,498.7,595.2z M501.2,586.7c0-0.9-0.2-1.6-0.7-2c-0.5-0.4-1.1-0.6-2-0.6
				c-0.9,0-1.7,0.2-2.2,0.7c-0.5,0.5-0.8,1.1-0.8,1.9v2.2c0.5,0.1,1.1,0.1,1.7,0.2c0.6,0,1,0,1.3,0c0.5,0,1-0.1,1.3-0.2
				c0.3-0.1,0.6-0.3,0.8-0.5c0.2-0.2,0.3-0.5,0.4-0.8C501.2,587.3,501.2,587,501.2,586.7z"/>
			<path class="st0" d="M510.8,582.1c0.5,0,1,0,1.6,0.1s1.1,0.2,1.6,0.4V577c0-0.3,0.1-0.6,0.3-0.8c0.2-0.2,0.5-0.3,0.8-0.3
				s0.6,0.1,0.8,0.3s0.3,0.5,0.3,0.8v16.6c0,0.4,0.1,0.7,0.2,1s0.3,0.5,0.6,0.7c0.1,0.1,0.1,0.2,0.1,0.3c0,0.1,0.1,0.2,0.1,0.3
				c0,0.3-0.1,0.6-0.3,0.7s-0.4,0.3-0.7,0.3c-0.3,0-0.6-0.1-0.9-0.3c-0.3-0.2-0.5-0.4-0.7-0.7c-0.6,0.3-1.3,0.6-2,0.8
				c-0.7,0.2-1.4,0.3-2.1,0.3c-1.5,0-2.7-0.5-3.5-1.5c-0.8-1-1.2-2.3-1.2-4V588c0-0.9,0.1-1.7,0.2-2.4c0.2-0.7,0.4-1.3,0.8-1.8
				c0.4-0.5,0.9-0.9,1.5-1.2C509.1,582.3,509.8,582.1,510.8,582.1z M514,584.7c-0.5-0.2-1-0.4-1.6-0.5s-1-0.1-1.4-0.1
				c-1.1,0-1.8,0.3-2.2,0.9c-0.4,0.6-0.6,1.6-0.6,3v3.7c0,2.3,0.9,3.5,2.8,3.5c0.5,0,1-0.1,1.5-0.2c0.5-0.1,1-0.4,1.6-0.6
				c0-0.1-0.1-0.2-0.1-0.3c0-0.1,0-0.2,0-0.3V584.7z"/>
			<path class="st0" d="M529.6,577c0-0.3,0.1-0.5,0.3-0.8c0.2-0.2,0.5-0.3,0.8-0.3c0.4,0,0.6,0.1,0.8,0.3c0.2,0.2,0.3,0.5,0.3,0.8
				v6.2c0.5-0.4,1.1-0.7,1.7-0.9c0.6-0.2,1.3-0.3,2.1-0.3c0.8,0,1.5,0.1,2.1,0.3c0.6,0.2,1,0.6,1.4,1c0.4,0.4,0.6,0.9,0.8,1.4
				c0.2,0.6,0.2,1.1,0.2,1.8v5.5c0,0.7-0.1,1.4-0.3,2c-0.2,0.6-0.6,1.2-1,1.6s-1,0.8-1.7,1.1c-0.7,0.3-1.4,0.4-2.3,0.4
				c-0.9,0-1.6-0.1-2.3-0.4c-0.7-0.2-1.2-0.6-1.7-1c-0.4-0.4-0.8-0.9-1-1.5c-0.2-0.6-0.4-1.2-0.4-1.8V577z M531.9,592.6
				c0,0.8,0.3,1.4,0.8,1.8c0.5,0.4,1.3,0.7,2.2,0.7c1,0,1.8-0.3,2.3-0.8s0.7-1.3,0.7-2.3v-5.5c0-0.8-0.2-1.4-0.7-1.9
				c-0.4-0.4-1.1-0.7-2.1-0.7c-0.7,0-1.4,0.1-1.9,0.4c-0.5,0.3-1,0.6-1.4,1.1V592.6z"/>
			<path class="st0" d="M548.2,597.2c-0.9,0-1.7-0.1-2.3-0.4c-0.7-0.3-1.2-0.6-1.7-1.1c-0.5-0.5-0.8-1-1-1.6c-0.2-0.6-0.3-1.3-0.3-2
				v-4.8c0-0.7,0.1-1.4,0.3-2c0.2-0.6,0.6-1.2,1-1.6c0.5-0.5,1-0.8,1.7-1.1c0.7-0.3,1.5-0.4,2.3-0.4c0.9,0,1.7,0.1,2.3,0.4
				c0.7,0.3,1.2,0.6,1.7,1.1s0.8,1,1,1.6c0.2,0.6,0.3,1.3,0.3,2v4.8c0,0.7-0.1,1.4-0.3,2c-0.2,0.6-0.6,1.2-1,1.6s-1,0.8-1.7,1.1
				C549.9,597,549.1,597.2,548.2,597.2z M548.2,595.1c1,0,1.8-0.3,2.4-0.8c0.5-0.5,0.8-1.3,0.8-2.3v-4.9c0-0.9-0.3-1.7-0.8-2.2
				c-0.5-0.5-1.3-0.8-2.4-0.8c-1,0-1.8,0.3-2.4,0.8c-0.5,0.5-0.8,1.3-0.8,2.2v4.9c0,1,0.3,1.7,0.8,2.3
				C546.4,594.8,547.2,595.1,548.2,595.1z"/>
			<path class="st0" d="M559.5,596c0,0.3-0.1,0.6-0.3,0.8s-0.5,0.3-0.8,0.3c-0.3,0-0.6-0.1-0.8-0.3s-0.3-0.5-0.3-0.8v-9.8
				c0-0.5,0-0.9-0.1-1.2c-0.1-0.3-0.2-0.6-0.4-0.9c-0.1-0.1-0.1-0.2-0.1-0.3c0-0.1-0.1-0.2-0.1-0.3c0-0.3,0.1-0.6,0.3-0.7
				c0.2-0.2,0.5-0.3,0.7-0.3c0.2,0,0.4,0.1,0.6,0.2c0.2,0.1,0.4,0.3,0.5,0.6c0.6-0.4,1.3-0.7,2-0.9c0.7-0.2,1.4-0.3,1.9-0.3
				c0.6,0,1,0.1,1.2,0.3s0.3,0.5,0.3,0.8c0,0.4-0.1,0.7-0.3,0.9c-0.2,0.2-0.5,0.3-0.8,0.3c-0.6,0-1.2,0-1.8,0.1s-1.2,0.4-1.9,0.9
				c0,0.2,0,0.3,0,0.4s0,0.2,0,0.4V596z"/>
			<path class="st0" d="M570.8,582.1c0.5,0,1,0,1.6,0.1s1.1,0.2,1.6,0.4V577c0-0.3,0.1-0.6,0.3-0.8c0.2-0.2,0.5-0.3,0.8-0.3
				s0.6,0.1,0.8,0.3s0.3,0.5,0.3,0.8v16.6c0,0.4,0.1,0.7,0.2,1s0.3,0.5,0.6,0.7c0.1,0.1,0.1,0.2,0.1,0.3c0,0.1,0.1,0.2,0.1,0.3
				c0,0.3-0.1,0.6-0.3,0.7s-0.4,0.3-0.7,0.3c-0.3,0-0.6-0.1-0.9-0.3c-0.3-0.2-0.5-0.4-0.7-0.7c-0.6,0.3-1.3,0.6-2,0.8
				c-0.7,0.2-1.4,0.3-2.1,0.3c-1.5,0-2.7-0.5-3.5-1.5c-0.8-1-1.2-2.3-1.2-4V588c0-0.9,0.1-1.7,0.2-2.4c0.2-0.7,0.4-1.3,0.8-1.8
				c0.4-0.5,0.9-0.9,1.5-1.2C569.1,582.3,569.9,582.1,570.8,582.1z M574,584.7c-0.5-0.2-1-0.4-1.6-0.5s-1-0.1-1.4-0.1
				c-1.1,0-1.8,0.3-2.2,0.9c-0.4,0.6-0.6,1.6-0.6,3v3.7c0,2.3,0.9,3.5,2.8,3.5c0.5,0,1-0.1,1.5-0.2c0.5-0.1,1-0.4,1.6-0.6
				c0-0.1-0.1-0.2-0.1-0.3c0-0.1,0-0.2,0-0.3V584.7z"/>
			<path class="st0" d="M585.5,595.2c0.6,0,1.2-0.1,1.6-0.2c0.4-0.2,0.9-0.3,1.4-0.6c0,0,0.1,0,0.2-0.1s0.1,0,0.2,0
				c0.3,0,0.5,0.1,0.7,0.3s0.3,0.4,0.3,0.7c0,0.3-0.2,0.6-0.5,0.9c-0.3,0.2-0.8,0.4-1.2,0.6c-0.5,0.1-1,0.3-1.6,0.3
				c-0.5,0.1-1,0.1-1.4,0.1c-0.8,0-1.5-0.1-2.2-0.4c-0.6-0.2-1.2-0.6-1.6-1c-0.4-0.4-0.8-0.9-1-1.5c-0.2-0.6-0.3-1.2-0.3-1.9v-5.4
				c0-0.7,0.1-1.3,0.3-1.9c0.2-0.6,0.6-1.1,1-1.6c0.4-0.4,1-0.8,1.7-1c0.7-0.3,1.4-0.4,2.3-0.4c1.6,0,2.8,0.4,3.6,1.3
				c0.8,0.9,1.2,2,1.2,3.5c0,1.3-0.4,2.4-1.1,3.1s-2,1.1-3.8,1.1c-0.4,0-0.9,0-1.4-0.1c-0.5,0-1-0.1-1.5-0.2v1.7
				c0,0.8,0.3,1.5,0.8,1.9C583.7,594.9,584.5,595.2,585.5,595.2z M588,586.7c0-0.9-0.2-1.6-0.7-2c-0.5-0.4-1.1-0.6-2-0.6
				c-0.9,0-1.7,0.2-2.2,0.7c-0.5,0.5-0.8,1.1-0.8,1.9v2.2c0.5,0.1,1.1,0.1,1.7,0.2c0.6,0,1,0,1.3,0c0.5,0,1-0.1,1.3-0.2
				c0.3-0.1,0.6-0.3,0.8-0.5c0.2-0.2,0.3-0.5,0.4-0.8C588,587.3,588,587,588,586.7z"/>
			<path class="st0" d="M595.9,596c0,0.3-0.1,0.6-0.3,0.8s-0.5,0.3-0.8,0.3c-0.3,0-0.6-0.1-0.8-0.3s-0.3-0.5-0.3-0.8v-9.8
				c0-0.5,0-0.9-0.1-1.2c-0.1-0.3-0.2-0.6-0.4-0.9c-0.1-0.1-0.1-0.2-0.1-0.3c0-0.1-0.1-0.2-0.1-0.3c0-0.3,0.1-0.6,0.3-0.7
				c0.2-0.2,0.5-0.3,0.7-0.3c0.2,0,0.4,0.1,0.6,0.2c0.2,0.1,0.4,0.3,0.5,0.6c0.6-0.4,1.3-0.7,2-0.9c0.7-0.2,1.4-0.3,1.9-0.3
				c0.6,0,1,0.1,1.2,0.3s0.3,0.5,0.3,0.8c0,0.4-0.1,0.7-0.3,0.9c-0.2,0.2-0.5,0.3-0.8,0.3c-0.6,0-1.2,0-1.8,0.1s-1.2,0.4-1.9,0.9
				c0,0.2,0,0.3,0,0.4s0,0.2,0,0.4V596z"/>
			<path class="st0" d="M602.7,586.2c0-1.3,0.4-2.3,1.2-3c0.8-0.8,2-1.1,3.5-1.1c0.4,0,0.8,0,1.2,0.1c0.5,0.1,0.9,0.2,1.3,0.3
				c0.4,0.1,0.7,0.3,1,0.5c0.3,0.2,0.4,0.5,0.4,0.8c0,0.3-0.1,0.5-0.3,0.7s-0.4,0.3-0.8,0.3c-0.2,0-0.3,0-0.5-0.1
				c-0.3-0.2-0.6-0.3-0.9-0.4c-0.3-0.1-0.7-0.1-1.3-0.1c-1.7,0-2.6,0.7-2.6,2c0,0.4,0.1,0.8,0.3,1.1c0.2,0.3,0.6,0.5,1.1,0.8
				c0.5,0.3,1.1,0.5,1.7,0.7c0.6,0.2,1.2,0.5,1.8,0.8c0.6,0.3,1,0.8,1.4,1.3c0.4,0.5,0.6,1.3,0.6,2.2c0,1.3-0.4,2.3-1.2,3.1
				c-0.8,0.8-2,1.1-3.7,1.1c-0.4,0-0.8,0-1.3-0.1c-0.5,0-1-0.1-1.4-0.3c-0.4-0.1-0.8-0.3-1.1-0.5c-0.3-0.2-0.5-0.5-0.5-0.8
				c0-0.3,0.1-0.5,0.3-0.7c0.2-0.2,0.4-0.3,0.8-0.3c0.1,0,0.2,0,0.2,0c0,0,0.1,0,0.1,0c0.4,0.2,0.8,0.3,1.3,0.4
				c0.5,0.1,1,0.2,1.6,0.2c0.8,0,1.5-0.2,1.9-0.5c0.5-0.3,0.7-0.9,0.7-1.6c0-0.5-0.1-0.9-0.3-1.2c-0.2-0.3-0.5-0.5-0.8-0.6
				c-0.5-0.3-1-0.5-1.7-0.7c-0.6-0.2-1.3-0.5-1.9-0.8c-0.6-0.3-1.1-0.8-1.5-1.3S602.7,587.2,602.7,586.2z"/>
			<path class="st0" d="M484.6,621.9c0-2.1-1-3.1-3.1-3.1c-0.5,0-0.9,0.1-1.2,0.2c-0.3,0.1-0.6,0.3-1,0.4c0,0-0.1,0.1-0.3,0.1
				c-0.2,0.1-0.3,0.1-0.5,0.1c-0.3,0-0.5-0.1-0.6-0.3c-0.1-0.2-0.2-0.4-0.2-0.6c0-0.3,0.1-0.6,0.3-0.9c0.2-0.2,0.5-0.4,0.9-0.6
				c0.4-0.2,0.8-0.3,1.3-0.3c0.5-0.1,1-0.1,1.5-0.1c1.8,0,3.1,0.5,3.9,1.5c0.8,1,1.2,2.4,1.2,4.4v6.4c0,0.6,0.2,0.9,0.5,0.9
				c0,0,0.1,0,0.1,0s0.1,0,0.1,0c0.3,0,0.5,0.1,0.6,0.3c0.1,0.2,0.2,0.4,0.2,0.7c0,0.4-0.1,0.6-0.4,0.8c-0.3,0.1-0.6,0.2-0.9,0.2
				c-0.5,0-0.9-0.1-1.3-0.4c-0.4-0.3-0.7-0.6-0.9-1.1c-1.1,1-2.4,1.5-4,1.5c-1.5,0-2.6-0.4-3.3-1.2c-0.7-0.8-1.1-1.9-1.1-3.2v-0.1
				c0-2.9,1.7-4.3,5.1-4.3c1,0,2,0.1,2.9,0.4V621.9z M481.7,625.1c-0.6,0-1.1,0.1-1.5,0.2s-0.7,0.3-0.9,0.5
				c-0.2,0.2-0.3,0.5-0.4,0.8c-0.1,0.3-0.1,0.6-0.1,0.9v0.1c0,0.7,0.2,1.2,0.6,1.7c0.4,0.4,1,0.7,2,0.7c0.6,0,1.2-0.1,1.7-0.3
				c0.5-0.2,1-0.5,1.5-1v-3.1c-0.5-0.2-1-0.3-1.5-0.3C482.6,625.1,482.1,625.1,481.7,625.1z"/>
			<path class="st0" d="M491,621c0-1.3,0.4-2.3,1.2-3c0.8-0.8,2-1.1,3.5-1.1c0.4,0,0.8,0,1.2,0.1c0.5,0.1,0.9,0.2,1.3,0.3
				c0.4,0.1,0.7,0.3,1,0.5c0.3,0.2,0.4,0.5,0.4,0.8c0,0.3-0.1,0.5-0.3,0.7s-0.4,0.3-0.8,0.3c-0.2,0-0.3,0-0.5-0.1
				c-0.3-0.2-0.6-0.3-0.9-0.4c-0.3-0.1-0.7-0.1-1.3-0.1c-1.7,0-2.6,0.7-2.6,2c0,0.4,0.1,0.8,0.3,1.1c0.2,0.3,0.6,0.5,1.1,0.8
				c0.5,0.3,1.1,0.5,1.7,0.7c0.6,0.2,1.2,0.5,1.8,0.8c0.6,0.3,1,0.8,1.4,1.3c0.4,0.5,0.6,1.3,0.6,2.2c0,1.3-0.4,2.3-1.2,3.1
				c-0.8,0.8-2,1.1-3.7,1.1c-0.4,0-0.8,0-1.3-0.1c-0.5,0-1-0.1-1.4-0.3c-0.4-0.1-0.8-0.3-1.1-0.5c-0.3-0.2-0.5-0.5-0.5-0.8
				c0-0.3,0.1-0.5,0.3-0.7c0.2-0.2,0.4-0.3,0.8-0.3c0.1,0,0.2,0,0.2,0c0,0,0.1,0,0.1,0c0.4,0.2,0.8,0.3,1.3,0.4
				c0.5,0.1,1,0.2,1.6,0.2c0.8,0,1.5-0.2,1.9-0.5c0.5-0.3,0.7-0.9,0.7-1.6c0-0.5-0.1-0.9-0.3-1.2c-0.2-0.3-0.5-0.5-0.8-0.6
				c-0.5-0.3-1-0.5-1.7-0.7c-0.6-0.2-1.3-0.5-1.9-0.8c-0.6-0.3-1.1-0.8-1.5-1.3S491,622,491,621z"/>
			<path class="st0" d="M512.1,611.8c0-0.3,0.1-0.6,0.3-0.8c0.2-0.2,0.5-0.3,0.8-0.3c0.3,0,0.6,0.1,0.8,0.3s0.3,0.5,0.3,0.8V629
				c0,0.3,0,0.6,0.1,0.8c0,0.2,0.2,0.4,0.3,0.6c0,0.1,0.1,0.1,0.1,0.2s0.1,0.2,0.1,0.3c0,0.3-0.1,0.5-0.3,0.7
				c-0.2,0.2-0.5,0.3-0.7,0.3c-0.2,0-0.4,0-0.6-0.1c-0.2-0.1-0.4-0.2-0.6-0.4c-0.2-0.2-0.3-0.5-0.5-0.9c-0.1-0.4-0.2-0.9-0.2-1.6
				V611.8z"/>
			<path class="st0" d="M523.3,632c-0.9,0-1.7-0.1-2.3-0.4c-0.7-0.3-1.2-0.6-1.7-1.1c-0.5-0.5-0.8-1-1-1.6c-0.2-0.6-0.3-1.3-0.3-2
				V622c0-0.7,0.1-1.4,0.3-2c0.2-0.6,0.6-1.2,1-1.6c0.5-0.5,1-0.8,1.7-1.1c0.7-0.3,1.5-0.4,2.3-0.4c0.9,0,1.7,0.1,2.3,0.4
				c0.7,0.3,1.2,0.6,1.7,1.1s0.8,1,1,1.6c0.2,0.6,0.3,1.3,0.3,2v4.8c0,0.7-0.1,1.4-0.3,2c-0.2,0.6-0.6,1.2-1,1.6s-1,0.8-1.7,1.1
				C525,631.8,524.2,632,523.3,632z M523.3,629.9c1,0,1.8-0.3,2.4-0.8c0.5-0.5,0.8-1.3,0.8-2.3v-4.9c0-0.9-0.3-1.7-0.8-2.2
				c-0.5-0.5-1.3-0.8-2.4-0.8c-1,0-1.8,0.3-2.4,0.8c-0.5,0.5-0.8,1.3-0.8,2.2v4.9c0,1,0.3,1.7,0.8,2.3
				C521.5,629.6,522.3,629.9,523.3,629.9z"/>
			<path class="st0" d="M536.6,616.8c0.7,0,1.3,0.1,2,0.2c0.6,0.2,1.3,0.4,1.8,0.7c0.3-0.6,0.7-1,1.2-1.3c0.4-0.3,0.8-0.4,1.2-0.4
				c0.3,0,0.6,0.1,0.8,0.3c0.2,0.2,0.3,0.4,0.3,0.7c0,0.2,0,0.3-0.1,0.4c0,0.1-0.1,0.2-0.1,0.2c-0.3,0.3-0.5,0.5-0.7,0.7
				s-0.4,0.4-0.5,0.6c-0.1,0.2-0.2,0.4-0.3,0.7c-0.1,0.2-0.1,0.5-0.1,0.9v1.8c0,0.7-0.1,1.4-0.3,2.1c-0.2,0.6-0.6,1.2-1,1.7
				c-0.4,0.5-1,0.8-1.6,1.1c-0.7,0.3-1.4,0.4-2.3,0.4c-0.9,0-1.7-0.1-2.3-0.4c-0.1,0.3-0.2,0.5-0.3,0.7c0,0.2-0.1,0.4-0.1,0.6
				c0,0.3,0.1,0.5,0.2,0.6c0.1,0.2,0.2,0.3,0.4,0.4c0.2,0.1,0.3,0.2,0.5,0.2c0.2,0,0.4,0.1,0.5,0.1h1.2c0.8,0,1.6,0.1,2.3,0.3
				c0.7,0.2,1.3,0.4,1.8,0.8c0.5,0.3,0.9,0.8,1.2,1.3s0.4,1.2,0.4,1.9c0,0.7-0.2,1.4-0.5,2s-0.7,1.1-1.2,1.5
				c-0.5,0.4-1.2,0.7-1.9,0.9c-0.7,0.2-1.5,0.3-2.4,0.3c-0.8,0-1.6-0.1-2.2-0.3c-0.7-0.2-1.3-0.5-1.8-0.9s-0.9-0.8-1.1-1.4
				s-0.4-1.2-0.4-1.9c0-0.7,0.1-1.4,0.4-1.9s0.6-1.1,1.1-1.6c-0.3-0.3-0.6-0.7-0.7-1.1c-0.1-0.4-0.2-0.8-0.2-1.1
				c0-0.3,0.1-0.7,0.2-1.2c0.1-0.4,0.4-0.8,0.9-1.2c-1-1-1.6-2.3-1.6-4.1c0-0.8,0.1-1.5,0.3-2.1c0.2-0.6,0.5-1.2,1-1.7
				c0.4-0.5,1-0.8,1.6-1.1C535,617,535.8,616.8,536.6,616.8z M535.8,631.9c-0.4,0-0.9,0-1.3-0.1c-0.7,0.6-1,1.3-1,2.3
				c0,0.9,0.3,1.5,0.8,2c0.6,0.5,1.4,0.7,2.5,0.7c1,0,1.9-0.2,2.6-0.6c0.7-0.4,1-1.1,1-1.9c0-1.5-1.2-2.2-3.5-2.2H535.8z
				 M539.8,620.6c0-0.2,0-0.3,0-0.4c0-0.1,0-0.3,0-0.4c-0.4-0.3-0.9-0.5-1.4-0.6c-0.5-0.2-1-0.2-1.5-0.2c-1.1,0-1.9,0.3-2.4,0.9
				c-0.5,0.6-0.8,1.4-0.8,2.5c0,1,0.2,1.8,0.7,2.4c0.5,0.6,1.3,0.9,2.4,0.9c1,0,1.8-0.3,2.3-0.8c0.5-0.5,0.7-1.3,0.7-2.3V620.6z"/>
			<path class="st0" d="M550.6,632c-0.9,0-1.7-0.1-2.3-0.4c-0.7-0.3-1.2-0.6-1.7-1.1c-0.5-0.5-0.8-1-1-1.6c-0.2-0.6-0.3-1.3-0.3-2
				V622c0-0.7,0.1-1.4,0.3-2c0.2-0.6,0.6-1.2,1-1.6c0.5-0.5,1-0.8,1.7-1.1c0.7-0.3,1.5-0.4,2.3-0.4c0.9,0,1.7,0.1,2.3,0.4
				c0.7,0.3,1.2,0.6,1.7,1.1s0.8,1,1,1.6c0.2,0.6,0.3,1.3,0.3,2v4.8c0,0.7-0.1,1.4-0.3,2c-0.2,0.6-0.6,1.2-1,1.6s-1,0.8-1.7,1.1
				C552.3,631.8,551.5,632,550.6,632z M550.6,629.9c1,0,1.8-0.3,2.4-0.8c0.5-0.5,0.8-1.3,0.8-2.3v-4.9c0-0.9-0.3-1.7-0.8-2.2
				c-0.5-0.5-1.3-0.8-2.4-0.8c-1,0-1.8,0.3-2.4,0.8c-0.5,0.5-0.8,1.3-0.8,2.2v4.9c0,1,0.3,1.7,0.8,2.3
				C548.8,629.6,549.6,629.9,550.6,629.9z"/>
			<path class="st0" d="M568.2,616.2c0-0.9,0.1-1.7,0.4-2.4c0.3-0.7,0.6-1.2,1.1-1.7s1-0.8,1.6-1c0.6-0.2,1.3-0.4,2-0.4
				c0.1,0,0.3,0,0.6,0c0.3,0,0.6,0.1,0.9,0.1c0.3,0.1,0.6,0.2,0.8,0.4c0.2,0.2,0.3,0.4,0.3,0.8s-0.1,0.6-0.3,0.8
				c-0.2,0.2-0.5,0.3-0.8,0.3c-0.3,0-0.5,0-0.8-0.1c-0.3-0.1-0.6-0.1-1-0.1c-0.9,0-1.5,0.3-1.9,0.9c-0.4,0.6-0.6,1.3-0.6,2.1v1.8h3
				c0.3,0,0.5,0.1,0.7,0.3c0.2,0.2,0.3,0.5,0.3,0.8c0,0.3-0.1,0.6-0.3,0.8c-0.2,0.2-0.4,0.3-0.7,0.3h-3v10.9c0,0.3-0.1,0.6-0.3,0.8
				c-0.2,0.2-0.5,0.3-0.8,0.3c-0.4,0-0.6-0.1-0.8-0.3c-0.2-0.2-0.3-0.5-0.3-0.8V616.2z"/>
			<path class="st0" d="M582.1,632c-0.9,0-1.7-0.1-2.3-0.4c-0.7-0.3-1.2-0.6-1.7-1.1c-0.5-0.5-0.8-1-1-1.6c-0.2-0.6-0.3-1.3-0.3-2
				V622c0-0.7,0.1-1.4,0.3-2c0.2-0.6,0.6-1.2,1-1.6c0.5-0.5,1-0.8,1.7-1.1c0.7-0.3,1.5-0.4,2.3-0.4c0.9,0,1.7,0.1,2.3,0.4
				c0.7,0.3,1.2,0.6,1.7,1.1s0.8,1,1,1.6c0.2,0.6,0.3,1.3,0.3,2v4.8c0,0.7-0.1,1.4-0.3,2c-0.2,0.6-0.6,1.2-1,1.6s-1,0.8-1.7,1.1
				C583.8,631.8,583,632,582.1,632z M582.1,629.9c1,0,1.8-0.3,2.4-0.8c0.5-0.5,0.8-1.3,0.8-2.3v-4.9c0-0.9-0.3-1.7-0.8-2.2
				c-0.5-0.5-1.3-0.8-2.4-0.8c-1,0-1.8,0.3-2.4,0.8c-0.5,0.5-0.8,1.3-0.8,2.2v4.9c0,1,0.3,1.7,0.8,2.3
				C580.3,629.6,581.1,629.9,582.1,629.9z"/>
			<path class="st0" d="M593.4,630.8c0,0.3-0.1,0.6-0.3,0.8c-0.2,0.2-0.5,0.3-0.9,0.3c-0.4,0-0.7-0.1-0.9-0.3
				c-0.2-0.2-0.3-0.5-0.3-0.8V621c0-0.4,0-0.7,0-0.9s-0.1-0.4-0.1-0.5c0-0.1-0.1-0.2-0.2-0.3c-0.1-0.1-0.1-0.2-0.2-0.3
				c0-0.1-0.1-0.1-0.1-0.2c0-0.1-0.1-0.2-0.1-0.4c0-0.3,0.1-0.5,0.3-0.7s0.5-0.3,0.8-0.3c0.3,0,0.5,0.1,0.7,0.2
				c0.2,0.2,0.4,0.4,0.5,0.6c0.6-0.4,1.3-0.8,2-1c0.7-0.2,1.4-0.3,2.1-0.3c1.5,0,2.7,0.5,3.5,1.5s1.1,2.3,1.1,4v8.5
				c0,0.3-0.1,0.6-0.3,0.8c-0.2,0.2-0.5,0.3-0.8,0.3s-0.6-0.1-0.8-0.3c-0.2-0.2-0.3-0.5-0.3-0.8v-8.5c0-1.1-0.2-2-0.7-2.6
				c-0.5-0.6-1.1-0.9-2-0.9c-0.6,0-1.1,0.1-1.7,0.3s-1.1,0.5-1.6,0.9c0.1,0.3,0.1,0.6,0.1,0.8V630.8z"/>
			<path class="st0" d="M605.8,613.7c0-0.3,0.1-0.6,0.3-0.8s0.5-0.3,0.8-0.3c0.4,0,0.6,0.1,0.8,0.3c0.2,0.2,0.3,0.5,0.3,0.8v4h3
				c0.3,0,0.5,0.1,0.7,0.3c0.2,0.2,0.3,0.5,0.3,0.8c0,0.3-0.1,0.6-0.3,0.8c-0.2,0.2-0.4,0.3-0.7,0.3h-3v5.8c0,0.8,0,1.4,0.1,1.9
				c0,0.5,0.2,0.9,0.3,1.3c0.2,0.3,0.4,0.6,0.7,0.7c0.3,0.1,0.7,0.2,1.2,0.2c0.1,0,0.2,0,0.3,0s0.2,0,0.3,0c0.2,0,0.3,0,0.5,0
				c0.2,0,0.3,0.1,0.5,0.1c0.1,0.1,0.3,0.2,0.4,0.3c0.1,0.1,0.1,0.3,0.1,0.6c0,0.3,0,0.5-0.1,0.6c-0.1,0.1-0.2,0.3-0.4,0.3
				c-0.2,0.1-0.3,0.1-0.5,0.1c-0.2,0-0.4,0-0.6,0c-1,0-1.9-0.1-2.5-0.4c-0.6-0.3-1.2-0.6-1.5-1.1s-0.6-1.1-0.8-1.9
				c-0.1-0.7-0.2-1.6-0.2-2.6V613.7z"/>
		</g>
	</g>
	<g>
		<g>
			<path class="st0" d="M861.2,591.4c0-1.1-0.2-2.1-0.3-3.1c-0.1-1.6-0.5-3.3-1.1-5c0-0.1-0.1-0.2-0.1-0.3c0,0,0-0.1,0-0.1
				c-0.8-2.5-2.3-5-3.8-7.1c0,0,0-0.1-0.1-0.1c-3.4-4-8.2-6.7-13.7-6.6c-1.8-0.1-3.5,0.1-5.3,0.7l-12.4,4c-0.6,0.2-1.1,0.3-1.5,0.5
				c-2.8,0.5-5.7,0.2-8-1c-3.2-1.7-4.3-5.9-4.3-9.2l0.1-12.7c0-2.1-0.5-4.2-1.3-6.1c-2.3-5.1-6.7-8.5-12-10.2
				c-2.1-0.7-4.5-0.6-6.8-0.6h0c-2.3,0-4.5,0.1-6.8,0.7c-5.4,1.7-10,4.7-12,10.1c-0.8,1.9-1.3,4-1.3,6.1l0.1,12.7
				c0,3.5-1.3,7.1-4.3,9.2c-2.3,1.2-5.2,1.6-8,1c-0.5-0.1-1-0.3-1.5-0.5l-12.4-4.1c-1.7-0.5-3.5-0.8-5.3-0.7
				c-5.5-0.1-10.3,2.6-13.7,6.6c0,0,0,0.1-0.1,0.1c-0.5,0.6-0.9,1.2-1.3,1.9c-2.1,3.1-3.5,6.9-3.8,10.7c-0.3,2-0.5,4.3,0,6.3
				c0.4,1.7,1.2,3.4,2.1,4.9c1,1.6,2.2,3,3.6,4.1c0.6,0.5,1.4,1,2.1,1.5c1.1,0.8,2.4,1.4,3.8,1.8c0,0,12.5,3.8,12.5,3.8
				c2.8,0.9,5.5,2.8,7,5.3c0,0,0,0.1,0.1,0.1c1.7,2.9,1,6.9-1,9.6c-0.2,0.3-0.5,0.7-0.8,1.1l-7.8,10.2c-1.4,1.8-2.2,3.9-2.7,6
				c-0.2,0.9-0.3,1.9-0.4,2.8c0,0.1,0,0.1,0,0.2c-0.2,3.4,1,7.5,3.1,10.3c0,0,0,0.1,0.1,0.1c0.6,0.8,1.2,1.6,1.9,2.3
				c0.9,1.1,2.1,2,3.2,2.9c0.1,0.1,0.2,0.1,0.3,0.2c2.1,1.6,4.5,3.1,7.2,3.7c0.3,0.1,0.6,0.1,0.8,0.2c1.3,0.4,2.6,0.6,3.9,0.7
				c1.8,0.1,3.6,0,5.3-0.4c0.1,0,0.2,0,0.3-0.1c0.1,0,0.2,0,0.2,0h0c2-0.5,4-1.4,5.7-2.7c1.2-0.9,2.4-1.9,3.3-3.1
				c0.1-0.1,0.2-0.2,0.2-0.3l6.9-9.4c0.5-0.6,0.9-1.2,1.4-1.8c2.1-2.3,5-4,8-4.2c2.9,0.2,5.8,1.8,8,4.2c0.5,0.6,0.9,1.2,1.4,1.8
				l6.9,9.4c0.1,0.1,0.2,0.2,0.2,0.3c0.9,1.2,2.1,2.2,3.3,3.1c1.8,1.3,3.7,2.2,5.7,2.7h0c1.9,0.5,3.9,0.6,5.8,0.5
				c3.8-0.3,7.4-1.5,10.5-3.6c1.4-0.9,2.8-2,4-3.2c0,0,0,0,0.1-0.1c1-1,1.9-2.1,2.7-3.2c0,0,0-0.1,0.1-0.1c2.8-3.7,3.7-8.8,2.7-13.3
				c0-0.1,0-0.1,0-0.2c0-0.1,0-0.1,0-0.2c-0.5-1.9-1.3-4-2.6-5.6c0,0-7.8-10.2-7.8-10.2c-0.3-0.4-0.5-0.7-0.8-1.1
				c-1.7-2.8-2.7-6.5-1-9.6c1.3-2.3,3.6-4.3,6.2-5.1c4.4-1.5,8.9-2.7,13.3-4.1c1.4-0.4,2.6-1.1,3.8-1.8c0.8-0.4,1.5-0.9,2.1-1.5
				c1.4-1.1,2.7-2.5,3.6-4.1c0.9-1.5,1.7-3.2,2.1-4.9C861.2,593.7,861.3,592.5,861.2,591.4z"/>
		</g>
		<g>
			<path class="st3" d="M810.7,551.1c0-2.1-0.5-4.1-1.3-6c-2.3-5.1-6.7-8.7-12-10.4c-2.1-0.7-4.5-0.8-6.8-0.8h0
				c-2.3,0-4.5,0.3-6.8,0.9c-5.4,1.7-10,4.9-12,10.3c-0.8,1.9-1.3,3.8-1.3,5.9l0.1,10.9h40L810.7,551.1z"/>
		</g>
	</g>
	<g>
		<rect x="335.2" y="372.1" class="st6" width="277.8" height="84.7"/>
		<text transform="matrix(1 0 0 1 352.3862 393.1422)"><tspan x="0" y="0" class="st0 st7 st8"> proportional length to </tspan><tspan x="82.7" y="34.8" class="st0 st7 st8">font length line </tspan></text>
	</g>
</g>
</svg>
