<?xml version="1.0" encoding="utf-8"?>
<!-- Generator: Adobe Illustrator 19.1.0, SVG Export Plug-In . SVG Version: 6.00 Build 0)  -->
<svg version="1.1" id="Layer_1" xmlns="http://www.w3.org/2000/svg" xmlns:xlink="http://www.w3.org/1999/xlink" x="0px" y="0px"
	 viewBox="0 0 1280 800" style="enable-background:new 0 0 1280 800;" xml:space="preserve">
<style type="text/css">
	.st0{fill:#4D4D4D;}
	.st1{clip-path:url(#SVGID_2_);}
	.st2{fill:#E6E6E6;}
	.st3{fill:#F57C00;}
	.st4{fill:#FF931E;}
	.st5{fill:#F2F2F2;}
	.st6{fill:#FFFFFF;}
	.st7{opacity:0.41;}
	.st8{fill:#00FF00;}
	.st9{fill:#0000FF;}
	.st10{fill:#FF0000;}
</style>
<g>
	<path class="st5" d="M1158,418H121c-1.4,0-2.5-1.1-2.5-2.5s1.1-2.5,2.5-2.5h1037c1.4,0,2.5,1.1,2.5,2.5S1159.4,418,1158,418z"/>
</g>
<g>
	<path class="st5" d="M639.5,698.5c-1.4,0-2.5-1.1-2.5-2.5V144c0-1.4,1.1-2.5,2.5-2.5s2.5,1.1,2.5,2.5v552
		C642,697.4,640.9,698.5,639.5,698.5z"/>
</g>
<g>
	<g>
		<g>
			<g>
				<path class="st0" d="M531.5,188.5c-0.9-0.2-1.8-0.2-2.6-0.1c0,0,0,0,0,0c-1.3,0-2.7,0.5-4.2,1.6c-2.2,1.6-9.4,6.8-12.8,9.3
					c-1.1,0.6-2.3,0.7-3.4,0.3c-1.3-0.4-2.6-1.4-3.1-2.7c0,0,0,0,0,0c-1.4-4.2-4-12.4-4.9-15c-0.1-0.2-0.2-0.4-0.2-0.6l0,0
					c-0.8-2.4-2.4-4.1-4.8-5.1c-2.4-1-4.9-1.1-7.6-0.1c-2.7,0.9-4.6,2.2-5.8,4.5c-1.2,2.3-1.5,4.6-0.7,6.6h0c0.1,0,0.2,1.1,0.3,1.4
					c0.7,2.5,3.2,9.9,4.6,14.2c0,0,0,0.1,0,0.1c0.4,1.4,0.2,2.8-0.6,3.9c-0.8,1.1-2.1,2-3.4,2.1c-3.3,0-9.9,0-11.2,0
					c-1.5,0-3.1,0-4.6,0.1c-0.4,0-0.8,0.1-1.2,0.1c-2.3,0.2-4.2,1.2-5.7,3c-1.7,2-2.5,4.4-2.5,7.2c0.1,2.8,1.4,5.2,3.2,7.1
					c1.8,1.9,4.8,2.8,6.8,2.8v0c0,0,0.1,0,0.4,0.1c1.1,0,1.9,0,3,0c1.5,0,9.3,0,11.9,0c1.3,0.1,2.4,0.8,3.2,1.8
					c0.8,1,1.2,2.4,0.9,3.6c-1.3,4-4,12.5-5,15.8l0,0c0,0-0.1,0.2-0.1,0.3c-0.1,0.2-0.1,0.4-0.2,0.5c0,0,0,0.1,0,0.1
					c-0.5,2.2-0.1,4.3,1.1,6.3c1.3,2.2,3.4,3.8,6,4.6c2.7,0.8,5.2,0.7,7.6-0.5c2.4-1.2,3.9-2.9,4.6-5.2l0,0c0-0.1,0.1-0.3,0.1-0.4
					c0.9-2.5,3.5-10.7,4.9-15c0.5-1.3,1.5-2.2,2.7-2.6c1.3-0.4,2.9-0.4,4,0.4c3.7,2.7,10.4,7.6,12.6,9.2c0.2,0.1,0.4,0.3,0.6,0.4
					l0,0c2.1,1.4,4.4,1.9,6.9,1.3c2.5-0.6,4.6-2,6.2-4.3c1.6-2.3,2.2-4.8,1.9-7.4c-0.3-2.5-1.4-4.4-3.2-5.7
					c-0.2-0.2-0.5-0.4-0.8-0.6c-2.1-1.6-8.8-6.4-12.4-9c-1.1-0.9-1.6-2.1-1.6-3.4c0-1.3,0.5-2.8,1.5-3.6c3.6-2.6,10.6-7.6,12.9-9.4
					c0.2-0.2,0.4-0.3,0.6-0.5c1.7-1.5,2.6-3.4,2.8-5.7c0.2-2.6-0.5-5-2.2-7.2C536.2,190.3,534.1,188.9,531.5,188.5z"/>
			</g>
		</g>
		<g>
			<path class="st0" d="M167.2,323c-1.5,0-3-0.2-4.7-0.5c-1.7-0.3-3.2-1.1-4.5-2.3c-1.4-1.2-2.5-3-3.4-5.3c-0.9-2.3-1.4-5.3-1.4-9.1
				v-80.1c0-2.4,1-4.5,2.9-6.3c1.9-1.8,4.3-2.7,7.2-2.7c2.8,0,5.2,0.9,7.2,2.6c1.9,1.8,2.9,3.9,2.9,6.4V304c0,1.6,0.1,2.7,0.3,3.4
				c0.2,0.7,0.8,1.6,1.9,2.6c0.8,0.8,1.4,1.5,1.9,2.1c0.5,0.6,0.7,1.6,0.7,3c0,2.6-1,4.6-2.9,5.9C173.3,322.3,170.6,323,167.2,323z"
				/>
		</g>
		<g>
			<path class="st0" d="M215.9,228c0,2.8-1.1,5.2-3.3,7.2c-2.2,2-4.9,3-8.1,3c-3.2,0-5.9-1-8.1-3c-2.2-2-3.3-4.4-3.3-7.2
				c0-2.8,1.1-5.2,3.3-7.2c2.2-2,4.9-3,8.1-3c3.2,0,5.9,1,8.1,3C214.8,222.7,215.9,225.1,215.9,228z M214.6,313.9
				c0,2.5-1,4.7-2.9,6.4c-1.9,1.8-4.3,2.6-7.2,2.6c-2.8,0-5.2-0.9-7.2-2.6c-1.9-1.8-2.9-3.9-2.9-6.4v-57.5c0-2.4,1-4.5,2.9-6.3
				c1.9-1.8,4.3-2.6,7.2-2.6c2.8,0,5.2,0.9,7.2,2.6c1.9,1.8,2.9,3.8,2.9,6.3V313.9z"/>
		</g>
		<g>
			<path class="st0" d="M252.5,278.2c1.3,4,2.2,8,2.8,12c0.6,4,1.3,8,2.1,12.1c0.8-4.1,1.5-8.1,2.1-12.1c0.6-4,1.5-8,2.7-12
				l7.6-24.4c0.7-1.9,1.9-3.5,3.8-4.6c1.8-1.1,3.7-1.7,5.7-1.7c2.6,0,4.9,0.8,6.9,2.4c2,1.6,3,3.7,3,6.3c0,0.4,0,0.8,0,1.2
				c0,0.4-0.1,0.8-0.3,1.3l-20,55.3c-1.2,3.1-2.6,5.4-4.3,6.8c-1.7,1.4-4.1,2.1-7.2,2.1c-3.2,0-5.7-0.7-7.4-2
				c-1.8-1.4-3.2-3.6-4.2-6.6l-20.3-55.7c-0.2-0.5-0.3-0.9-0.3-1.3c0-0.4,0-0.8,0-1.2c0-2.6,1-4.7,3-6.3c2-1.6,4.3-2.4,6.9-2.4
				c1.9,0,3.8,0.6,5.6,1.7c1.8,1.1,3,2.7,3.7,4.6L252.5,278.2z"/>
		</g>
		<g>
			<path class="st0" d="M329.3,294.1c-1.9,0-3.8-0.1-5.5-0.2c-1.7-0.1-3.6-0.4-5.8-0.7v4.8c0,2.5,0.9,4.5,2.8,6
				c1.9,1.5,4.8,2.2,8.8,2.2c2.3,0,4.5-0.3,6.6-0.8c2-0.5,4.2-1.3,6.6-2.4c0.3-0.2,0.8-0.4,1.5-0.6c0.7-0.2,1.7-0.3,2.9-0.3
				c1.8,0,3.2,0.3,4.4,0.8c1.2,0.5,2.1,1.2,2.8,2c0.7,0.8,1.2,1.6,1.5,2.6c0.3,0.9,0.4,1.8,0.4,2.7c0,2.5-1,4.6-3.1,6.3
				c-2,1.7-4.5,3-7.4,3.9c-2.9,1-6,1.7-9.2,2c-3.2,0.4-6,0.6-8.3,0.6c-4.9,0-9.2-0.7-12.9-2c-3.7-1.3-6.9-3.1-9.5-5.4
				c-2.6-2.3-4.5-5-5.9-8.1c-1.4-3.1-2-6.5-2-10.1V273c0-3.7,0.7-7.1,2-10.3c1.3-3.2,3.3-5.9,5.9-8.2c2.6-2.3,5.9-4.2,9.8-5.5
				c3.9-1.3,8.4-2,13.4-2c9.6,0,16.8,2.3,21.5,6.9c4.7,4.6,7.1,10.6,7.1,17.9c0,7-2.2,12.5-6.7,16.3
				C346.4,292.1,339.2,294.1,329.3,294.1z M337.6,270.9c0-2.9-0.8-5-2.3-6.3c-1.5-1.3-3.7-1.9-6.5-1.9c-3.5,0-6.2,0.9-8,2.6
				c-1.8,1.7-2.8,4-2.8,6.9v6.3c2.3,0.2,4.5,0.3,6.4,0.4c1.9,0.1,3.3,0.1,4.1,0.1c2.8,0,5-0.6,6.6-1.8
				C336.8,276.1,337.6,274,337.6,270.9z"/>
		</g>
		<g>
			<path class="st0" d="M384.5,323c-1.5,0-3-0.2-4.7-0.5c-1.7-0.3-3.2-1.1-4.5-2.3c-1.4-1.2-2.5-3-3.4-5.3c-0.9-2.3-1.4-5.3-1.4-9.1
				v-80.1c0-2.4,1-4.5,2.9-6.3c1.9-1.8,4.3-2.7,7.2-2.7c2.8,0,5.2,0.9,7.2,2.6c1.9,1.8,2.9,3.9,2.9,6.4V304c0,1.6,0.1,2.7,0.3,3.4
				c0.2,0.7,0.8,1.6,1.9,2.6c0.8,0.8,1.4,1.5,1.9,2.1c0.5,0.6,0.7,1.6,0.7,3c0,2.6-1,4.6-2.9,5.9C390.5,322.3,387.9,323,384.5,323z"
				/>
		</g>
		<g>
			<path class="st0" d="M446.9,253.6c0.7-2.1,1.9-3.7,3.8-4.7c1.8-1,3.7-1.5,5.7-1.5c2.5,0,4.8,0.8,6.9,2.5c2.1,1.7,3.1,3.8,3.1,6.4
				c0,1.1-0.1,1.9-0.4,2.6l-17.8,52c-2,5.9-4,11.4-5.9,16.3c-1.9,5-4.1,9.2-6.7,12.8c-2.6,3.6-5.7,6.4-9.3,8.4c-3.6,2-8.2,3-13.8,3
				c-2.9,0-5.4-0.8-7.3-2.5c-1.9-1.7-2.9-3.7-2.9-6.3c0-2.2,0.9-4.2,2.6-5.9c1.7-1.7,4.1-2.7,7.1-2.8c3.2-0.2,5.8-1.5,7.7-4
				c1.9-2.5,3.7-6.6,5.5-12.3l-22.5-57.9c-0.3-0.8-0.5-1.5-0.6-2c-0.1-0.6-0.1-1.1-0.1-1.6c0-2.5,1-4.6,2.9-6.2
				c1.9-1.6,4.3-2.4,7.2-2.4c1.9,0,3.8,0.5,5.5,1.5c1.7,1,2.9,2.6,3.7,4.6l9.2,24.5c1.1,2.6,1.9,5.4,2.6,8.3
				c0.6,2.9,1.3,5.7,2.1,8.5c0.7-2.7,1.3-5.5,1.9-8.5c0.6-2.9,1.3-5.7,2.2-8.3L446.9,253.6z"/>
		</g>
	</g>
	<g>
		<g>
			<path class="st0" d="M167.2,626.2c-1.5,0-3-0.2-4.7-0.5c-1.7-0.3-3.2-1.1-4.5-2.3c-1.4-1.2-2.5-3-3.4-5.3
				c-0.9-2.3-1.4-5.3-1.4-9.1v-80.1c0-2.4,1-4.5,2.9-6.3c1.9-1.8,4.3-2.7,7.2-2.7c2.8,0,5.2,0.9,7.2,2.6c1.9,1.8,2.9,3.9,2.9,6.4
				v78.4c0,1.6,0.1,2.7,0.3,3.4c0.2,0.7,0.8,1.6,1.9,2.6c0.8,0.8,1.4,1.5,1.9,2.1c0.5,0.6,0.7,1.6,0.7,3c0,2.6-1,4.6-2.9,5.9
				C173.3,625.5,170.6,626.2,167.2,626.2z"/>
		</g>
		<g>
			<path class="st0" d="M215.9,531.2c0,2.8-1.1,5.2-3.3,7.2c-2.2,2-4.9,3-8.1,3c-3.2,0-5.9-1-8.1-3c-2.2-2-3.3-4.4-3.3-7.2
				c0-2.8,1.1-5.2,3.3-7.2c2.2-2,4.9-3,8.1-3c3.2,0,5.9,1,8.1,3C214.8,525.9,215.9,528.3,215.9,531.2z M214.6,617.1
				c0,2.5-1,4.7-2.9,6.4c-1.9,1.8-4.3,2.6-7.2,2.6c-2.8,0-5.2-0.9-7.2-2.6c-1.9-1.8-2.9-3.9-2.9-6.4v-57.5c0-2.4,1-4.5,2.9-6.3
				c1.9-1.8,4.3-2.6,7.2-2.6c2.8,0,5.2,0.9,7.2,2.6c1.9,1.8,2.9,3.8,2.9,6.3V617.1z"/>
		</g>
		<g>
			<path class="st0" d="M252.5,581.4c1.3,4,2.2,8,2.8,12c0.6,4,1.3,8,2.1,12.1c0.8-4.1,1.5-8.1,2.1-12.1c0.6-4,1.5-8,2.7-12
				l7.6-24.4c0.7-1.9,1.9-3.5,3.8-4.6c1.8-1.1,3.7-1.7,5.7-1.7c2.6,0,4.9,0.8,6.9,2.4c2,1.6,3,3.7,3,6.3c0,0.4,0,0.8,0,1.2
				c0,0.4-0.1,0.8-0.3,1.3l-20,55.3c-1.2,3.1-2.6,5.4-4.3,6.8c-1.7,1.4-4.1,2.1-7.2,2.1c-3.2,0-5.7-0.7-7.4-2
				c-1.8-1.4-3.2-3.6-4.2-6.6l-20.3-55.7c-0.2-0.5-0.3-0.9-0.3-1.3c0-0.4,0-0.8,0-1.2c0-2.6,1-4.7,3-6.3c2-1.6,4.3-2.4,6.9-2.4
				c1.9,0,3.8,0.6,5.6,1.7c1.8,1.1,3,2.7,3.7,4.6L252.5,581.4z"/>
		</g>
		<g>
			<path class="st0" d="M329.3,597.3c-1.9,0-3.8-0.1-5.5-0.2c-1.7-0.1-3.6-0.4-5.8-0.7v4.8c0,2.5,0.9,4.5,2.8,6
				c1.9,1.5,4.8,2.2,8.8,2.2c2.3,0,4.5-0.3,6.6-0.8c2-0.5,4.2-1.3,6.6-2.4c0.3-0.2,0.8-0.4,1.5-0.6c0.7-0.2,1.7-0.3,2.9-0.3
				c1.8,0,3.2,0.3,4.4,0.8c1.2,0.5,2.1,1.2,2.8,2c0.7,0.8,1.2,1.6,1.5,2.6c0.3,0.9,0.4,1.8,0.4,2.7c0,2.5-1,4.6-3.1,6.3
				c-2,1.7-4.5,3-7.4,3.9c-2.9,1-6,1.7-9.2,2c-3.2,0.4-6,0.6-8.3,0.6c-4.9,0-9.2-0.7-12.9-2c-3.7-1.3-6.9-3.1-9.5-5.4
				c-2.6-2.3-4.5-5-5.9-8.1c-1.4-3.1-2-6.5-2-10.1v-24.4c0-3.7,0.7-7.1,2-10.3c1.3-3.2,3.3-5.9,5.9-8.2c2.6-2.3,5.9-4.2,9.8-5.5
				c3.9-1.3,8.4-2,13.4-2c9.6,0,16.8,2.3,21.5,6.9c4.7,4.6,7.1,10.6,7.1,17.9c0,7-2.2,12.5-6.7,16.3
				C346.4,595.3,339.2,597.3,329.3,597.3z M337.6,574.1c0-2.9-0.8-5-2.3-6.3c-1.5-1.3-3.7-1.9-6.5-1.9c-3.5,0-6.2,0.9-8,2.6
				c-1.8,1.7-2.8,4-2.8,6.9v6.3c2.3,0.2,4.5,0.3,6.4,0.4c1.9,0.1,3.3,0.1,4.1,0.1c2.8,0,5-0.6,6.6-1.8
				C336.8,579.3,337.6,577.2,337.6,574.1z"/>
		</g>
		<g>
			<path class="st0" d="M384.5,626.2c-1.5,0-3-0.2-4.7-0.5c-1.7-0.3-3.2-1.1-4.5-2.3c-1.4-1.2-2.5-3-3.4-5.3
				c-0.9-2.3-1.4-5.3-1.4-9.1v-80.1c0-2.4,1-4.5,2.9-6.3c1.9-1.8,4.3-2.7,7.2-2.7c2.8,0,5.2,0.9,7.2,2.6c1.9,1.8,2.9,3.9,2.9,6.4
				v78.4c0,1.6,0.1,2.7,0.3,3.4c0.2,0.7,0.8,1.6,1.9,2.6c0.8,0.8,1.4,1.5,1.9,2.1c0.5,0.6,0.7,1.6,0.7,3c0,2.6-1,4.6-2.9,5.9
				C390.5,625.5,387.9,626.2,384.5,626.2z"/>
		</g>
		<g>
			<path class="st0" d="M446.9,556.9c0.7-2.1,1.9-3.7,3.8-4.7c1.8-1,3.7-1.5,5.7-1.5c2.5,0,4.8,0.8,6.9,2.5c2.1,1.7,3.1,3.8,3.1,6.4
				c0,1.1-0.1,1.9-0.4,2.6l-17.8,52c-2,5.9-4,11.4-5.9,16.3c-1.9,5-4.1,9.2-6.7,12.8c-2.6,3.6-5.7,6.4-9.3,8.4c-3.6,2-8.2,3-13.8,3
				c-2.9,0-5.4-0.8-7.3-2.5c-1.9-1.7-2.9-3.7-2.9-6.3c0-2.2,0.9-4.2,2.6-5.9c1.7-1.7,4.1-2.7,7.1-2.8c3.2-0.2,5.8-1.5,7.7-4
				c1.9-2.5,3.7-6.6,5.5-12.3L402.5,563c-0.3-0.8-0.5-1.5-0.6-2c-0.1-0.6-0.1-1.1-0.1-1.6c0-2.5,1-4.6,2.9-6.2
				c1.9-1.6,4.3-2.4,7.2-2.4c1.9,0,3.8,0.5,5.5,1.5c1.7,1,2.9,2.6,3.7,4.6l9.2,24.5c1.1,2.6,1.9,5.4,2.6,8.3
				c0.6,2.9,1.3,5.7,2.1,8.5c0.7-2.7,1.3-5.5,1.9-8.5c0.6-2.9,1.3-5.7,2.2-8.3L446.9,556.9z"/>
		</g>
		<g>
			<path class="st0" d="M492,474.4c-2.8,0.9-4.9,2.6-6.3,4.9c-1.4,2.4-1.8,4.8-1,7.1l2.2,6.7c1.4,4.4,0.2,9-2.7,12
				c-2.1,2.2-5.1,3.8-8.4,3.8h-3.5h-3.5c-2.6,0-4.8,0.6-6.5,2.6c-1.8,2-2.7,4.3-2.7,7.1c0,2.9,0.9,5.8,2.8,7.8c1.8,2,4,3.5,6.5,3.5
				h3.5h3.5c4.5,0,8.3,2.1,10.3,5.6c1.4,2.7,1.9,5.8,0.8,9l-2.2,6.6c-0.8,2.4-0.3,4.7,1,7.1c1.4,2.4,3.5,4,6.3,4.9
				c2.7,0.9,5.2,0.8,7.7-0.3c2.4-1.1,3.9-2.9,4.7-5.3l1.1-3.3l0,0l0-0.1l0,0l1.1-3.4c0.2-0.7,0.5-1.3,0.8-1.9
				c3.3-6.1,11.4-8.1,17.2-3.9l2.9,2.1l0-0.1l2.8,2c2,1.5,4.5,1.8,7.1,1.2c2.7-0.6,4.9-2.1,6.6-4.5c1.7-2.3,2.3-4.7,2.1-7.4
				c-0.3-2.6-1.5-4.6-3.6-6.2l-2.8-2l0,0L537,528c-3.1-2.3-4.8-5.7-4.8-9.2c0.1-3.5,1.7-6.9,4.8-9.2l2.8-2.1l0,0l2.8-2
				c2.1-1.5,3.3-3.5,3.6-6.2c0.3-2.7-0.4-5.1-2.1-7.4c-1.7-2.3-4-3.9-6.6-4.5c-2.7-0.6-5.1-0.3-7.1,1.2l-2.8,2l0-0.1l-2.9,2.1
				c-5.9,4.2-13.9,2.2-17.2-3.9c-0.3-0.6-0.6-1.2-0.8-1.9l-1.1-3.4l0,0l0-0.1l0,0l-1.1-3.3c-0.8-2.4-2.3-4.3-4.7-5.3
				C497.2,473.7,494.6,473.6,492,474.4z"/>
		</g>
	</g>
	<g>
		<g>
			<path class="st0" d="M740.8,323c-1.5,0-3-0.2-4.7-0.5c-1.7-0.3-3.2-1.1-4.5-2.3c-1.4-1.2-2.5-3-3.4-5.3c-0.9-2.3-1.4-5.3-1.4-9.1
				v-80.1c0-2.4,1-4.5,2.9-6.3c1.9-1.8,4.3-2.7,7.2-2.7c2.8,0,5.2,0.9,7.2,2.6c1.9,1.8,2.9,3.9,2.9,6.4V304c0,1.6,0.1,2.7,0.3,3.4
				c0.2,0.7,0.8,1.6,1.9,2.6c0.8,0.8,1.4,1.5,1.9,2.1c0.5,0.6,0.7,1.6,0.7,3c0,2.6-1,4.6-2.9,5.9C746.9,322.3,744.3,323,740.8,323z"
				/>
		</g>
		<g>
			<path class="st0" d="M789.6,228c0,2.8-1.1,5.2-3.3,7.2c-2.2,2-4.9,3-8.1,3c-3.2,0-5.9-1-8.1-3c-2.2-2-3.3-4.4-3.3-7.2
				c0-2.8,1.1-5.2,3.3-7.2c2.2-2,4.9-3,8.1-3c3.2,0,5.9,1,8.1,3C788.5,222.7,789.6,225.1,789.6,228z M788.3,313.9
				c0,2.5-1,4.7-2.9,6.4c-1.9,1.8-4.3,2.6-7.2,2.6c-2.8,0-5.2-0.9-7.2-2.6c-1.9-1.8-2.9-3.9-2.9-6.4v-57.5c0-2.4,1-4.5,2.9-6.3
				c1.9-1.8,4.3-2.6,7.2-2.6c2.8,0,5.2,0.9,7.2,2.6c1.9,1.8,2.9,3.8,2.9,6.3V313.9z"/>
		</g>
		<g>
			<path class="st0" d="M826.2,278.2c1.3,4,2.2,8,2.8,12c0.6,4,1.3,8,2.1,12.1c0.8-4.1,1.5-8.1,2.1-12.1c0.6-4,1.5-8,2.7-12
				l7.6-24.4c0.7-1.9,1.9-3.5,3.8-4.6c1.8-1.1,3.7-1.7,5.7-1.7c2.6,0,4.9,0.8,6.9,2.4c2,1.6,3,3.7,3,6.3c0,0.4,0,0.8,0,1.2
				c0,0.4-0.1,0.8-0.3,1.3l-20,55.3c-1.2,3.1-2.6,5.4-4.3,6.8c-1.7,1.4-4.1,2.1-7.2,2.1c-3.2,0-5.7-0.7-7.4-2
				c-1.8-1.4-3.2-3.6-4.2-6.6l-20.3-55.7c-0.2-0.5-0.3-0.9-0.3-1.3c0-0.4,0-0.8,0-1.2c0-2.6,1-4.7,3-6.3c2-1.6,4.3-2.4,6.9-2.4
				c1.9,0,3.8,0.6,5.6,1.7c1.8,1.1,3,2.7,3.7,4.6L826.2,278.2z"/>
		</g>
		<g>
			<path class="st0" d="M902.9,294.1c-1.9,0-3.8-0.1-5.5-0.2c-1.7-0.1-3.6-0.4-5.8-0.7v4.8c0,2.5,0.9,4.5,2.8,6
				c1.9,1.5,4.8,2.2,8.8,2.2c2.3,0,4.5-0.3,6.6-0.8c2-0.5,4.2-1.3,6.6-2.4c0.3-0.2,0.8-0.4,1.5-0.6c0.7-0.2,1.7-0.3,2.9-0.3
				c1.8,0,3.2,0.3,4.4,0.8c1.2,0.5,2.1,1.2,2.8,2c0.7,0.8,1.2,1.6,1.5,2.6c0.3,0.9,0.4,1.8,0.4,2.7c0,2.5-1,4.6-3.1,6.3
				c-2,1.7-4.5,3-7.4,3.9c-2.9,1-6,1.7-9.2,2c-3.2,0.4-6,0.6-8.3,0.6c-4.9,0-9.2-0.7-12.9-2c-3.7-1.3-6.9-3.1-9.5-5.4
				c-2.6-2.3-4.5-5-5.9-8.1c-1.4-3.1-2-6.5-2-10.1V273c0-3.7,0.7-7.1,2-10.3c1.3-3.2,3.3-5.9,5.9-8.2c2.6-2.3,5.9-4.2,9.8-5.5
				c3.9-1.3,8.4-2,13.4-2c9.6,0,16.8,2.3,21.5,6.9c4.7,4.6,7.1,10.6,7.1,17.9c0,7-2.2,12.5-6.7,16.3
				C920.1,292.1,912.9,294.1,902.9,294.1z M911.2,270.9c0-2.9-0.8-5-2.3-6.3c-1.5-1.3-3.7-1.9-6.5-1.9c-3.5,0-6.2,0.9-8,2.6
				c-1.8,1.7-2.8,4-2.8,6.9v6.3c2.3,0.2,4.5,0.3,6.4,0.4c1.9,0.1,3.3,0.1,4.1,0.1c2.8,0,5-0.6,6.6-1.8
				C910.4,276.1,911.2,274,911.2,270.9z"/>
		</g>
		<g>
			<path class="st0" d="M958.1,323c-1.5,0-3-0.2-4.7-0.5c-1.7-0.3-3.2-1.1-4.5-2.3c-1.4-1.2-2.5-3-3.4-5.3c-0.9-2.3-1.4-5.3-1.4-9.1
				v-80.1c0-2.4,1-4.5,2.9-6.3c1.9-1.8,4.3-2.7,7.2-2.7c2.8,0,5.2,0.9,7.2,2.6c1.9,1.8,2.9,3.9,2.9,6.4V304c0,1.6,0.1,2.7,0.3,3.4
				c0.2,0.7,0.8,1.6,1.9,2.6c0.8,0.8,1.4,1.5,1.9,2.1c0.5,0.6,0.7,1.6,0.7,3c0,2.6-1,4.6-2.9,5.9C964.2,322.3,961.5,323,958.1,323z"
				/>
		</g>
		<g>
			<path class="st0" d="M1020.6,253.6c0.7-2.1,1.9-3.7,3.8-4.7c1.8-1,3.7-1.5,5.7-1.5c2.5,0,4.8,0.8,6.9,2.5
				c2.1,1.7,3.1,3.8,3.1,6.4c0,1.1-0.1,1.9-0.4,2.6l-17.8,52c-2,5.9-4,11.4-5.9,16.3c-1.9,5-4.1,9.2-6.7,12.8
				c-2.6,3.6-5.7,6.4-9.3,8.4c-3.6,2-8.2,3-13.8,3c-2.9,0-5.4-0.8-7.3-2.5c-1.9-1.7-2.9-3.7-2.9-6.3c0-2.2,0.9-4.2,2.6-5.9
				c1.7-1.7,4.1-2.7,7.1-2.8c3.2-0.2,5.8-1.5,7.7-4c1.9-2.5,3.7-6.6,5.5-12.3l-22.5-57.9c-0.3-0.8-0.5-1.5-0.6-2
				c-0.1-0.6-0.1-1.1-0.1-1.6c0-2.5,1-4.6,2.9-6.2c1.9-1.6,4.3-2.4,7.2-2.4c1.9,0,3.8,0.5,5.5,1.5c1.7,1,2.9,2.6,3.7,4.6l9.2,24.5
				c1.1,2.6,1.9,5.4,2.6,8.3c0.6,2.9,1.3,5.7,2.1,8.5c0.7-2.7,1.3-5.5,1.9-8.5c0.6-2.9,1.3-5.7,2.2-8.3L1020.6,253.6z"/>
		</g>
		<g>
			<path class="st0" d="M1043.5,215.6c0,0.1,0,0.2-0.1,0.4l0,0c-1,3.2-0.4,7,2,9.6c0.9,1,2,1.8,3.1,2.3c0,0,0,0,0,0
				c0.1,0,0.2,0.1,0.3,0.1c0,0,0.1,0,0.1,0c0.1,0,0.2,0.1,0.3,0.1c0.7,0.2,1.3,0.3,2,0.3l0.4,0c0.4,0,0.9,0,1.3,0c0.1,0,0.2,0,0.2,0
				l0.1,0c2.1,0,1.6,0,1.6,0l0,0c1.5,0.1,3.1,0.1,3.5,0.1c0.5,0.1,1,0.1,1.5,0.3c0.3,0.1,0.5,0.2,0.8,0.4c0.1,0,0.1,0.1,0.2,0.1
				c2.5,1.7,2.4,2.7,1.8,5.2c-0.7,2.8-1.2,3.9-2.1,6.6c-0.7,2.2-0.6,4.3,0.6,6.4c1.2,2.1,3,3.5,5.3,4.3c0,0,0.1,0,0.1,0c0,0,0,0,0,0
				c0,0,0,0,0,0c0.1,0,0.2,0,0.2,0.1c0.1,0,0.2,0.1,0.2,0.1c0,0,0,0,0,0c0,0,0,0,0,0c0,0,0.1,0,0.1,0.1c2.4,0.8,4.6,0.7,6.8-0.3
				c2.2-0.9,3.5-2.6,4.3-4.8l0.7-2.1c0.3-0.8,0.5-1.7,0.8-2.6c0.2-0.6,0.5-1.3,0.7-1.9c1-2.4,1.5-3.3,4.5-3.2c0.1,0,0.1,0,0.2,0
				c0.3,0,0.6,0.1,0.9,0.2c0.5,0.2,0.9,0.4,1.4,0.6c0.4,0.2,1.6,1.2,2.9,2l0,0c0,0-0.4-0.3,1.3,0.9l0.1,0.1c0.1,0,0.1,0.1,0.2,0.2
				c0.4,0.3,0.7,0.5,1.1,0.8l0.3,0.2c0.6,0.4,1.2,0.7,1.8,0.9c0.1,0,0.2,0.1,0.3,0.1c0,0,0.1,0,0.1,0c0.1,0,0.2,0,0.3,0.1
				c0,0,0,0,0.1,0c1.2,0.3,2.5,0.2,3.9-0.1c3.3-0.8,6-3.5,7.2-6.7l0,0c0-0.1,0.1-0.2,0.1-0.3c0,0,0-0.1,0-0.1c0-0.1,0.1-0.2,0.1-0.3
				c0,0,0,0,0-0.1c0.9-3.2,0.2-6.6-2.9-8.8l-5-3.6l0,0c-1.7-1.2-2.8-3.1-2.5-4.9c0.2-0.9,0.6-1.8,1.3-2.5c0,0,0.1-0.1,0.1-0.1
				c0.3-0.2,0.6-0.5,1-0.7l0,0l5-3.6c1.8-1.3,2.8-3.3,3-5.8s-0.4-4.8-2-6.9c-1.3-1.8-2.9-3-4.9-3.6c0,0,0,0,0,0c0,0-0.1,0-0.1,0
				c-0.3-0.1-0.6-0.2-0.9-0.2c-2.3-0.5-4.4,0-6.3,1.4l-2.4,1.7c-1.1,0.7-2.3,1.6-3,2c-0.1,0.1-0.3,0.2-0.4,0.3
				c-0.1,0.1-0.1,0.1-0.1,0.1c-1.1,0.8-2.6,1.1-3.8,0.7c0,0-0.1,0-0.1,0s-0.1,0-0.1,0c-1.2-0.5-2.2-1.5-2.7-2.8c0,0,0-0.1-0.1-0.2
				c0-0.1-0.1-0.3-0.1-0.4c-0.3-0.8-0.7-2.2-1.2-3.4l-0.9-2.8c-0.7-2.2-2.1-3.8-4.3-4.8c-0.3-0.1-0.6-0.2-0.8-0.3c0,0-0.1,0-0.1,0
				c0,0,0,0,0,0c-2-0.7-4-0.7-6.1,0c-2.5,0.8-4.4,2.3-5.7,4.5c-1.2,2.1-1.6,4.3-0.9,6.4l2,5.9l0,0c0.2,0.5,0.3,0.9,0.4,1.2
				c0,0.1,0,0.1,0,0.2c0.2,1,0,2-0.4,2.8c-0.9,1.6-2.9,2.5-4.9,2.5l0,0l-6.2,0c-3.8,0-6.4,2.4-7.6,5.4c0,0,0,0,0,0.1
				C1043.5,215.3,1043.5,215.4,1043.5,215.6C1043.5,215.5,1043.5,215.5,1043.5,215.6z"/>
		</g>
	</g>
	<g>
		<g>
			<g>
				<g>
					<path class="st0" d="M970.5,609.2c-1.1-1.1-1.3-1.6-1.3-1.6c-0.1-0.2-0.2-0.9-0.2-2.7v-78.4c0-3.2-1.3-5.9-3.7-8.1
						c-2.4-2.1-5.3-3.2-8.7-3.2c-3.4,0-5.9,1.1-8.3,3.3c-2.4,2.2-3.3,5-3.3,8v80.1c0,4.1,0.1,7.4,1.2,10c1.1,2.6,2.2,4.7,3.8,6.1
						c1.7,1.5,3.4,2.5,5.5,2.9c1.8,0.4,3.5,0.6,5.1,0.6c3.9,0,7-0.8,9.3-2.4c2.6-1.7,3.9-4.4,3.9-7.8c0-1.9-0.4-3.3-1.2-4.4
						C972,610.9,971.3,610.1,970.5,609.2z"/>
				</g>
				<g>
					<path class="st0" d="M753.2,609.2c-1.1-1.1-0.6-1.6-0.6-1.6c-0.1-0.2,0.5-0.9,0.5-2.7v-78.4c0-3.2-1.9-5.9-4.3-8.1
						c-2.4-2.1-5.6-3.2-9-3.2c-3.4,0-6.5,1.1-8.8,3.3c-2.4,2.2-3.8,5-3.8,8v80.1c0,4.1,0.5,7.4,1.5,10c1.1,2.6,2.4,4.7,4,6.1
						c1.7,1.5,3.5,2.5,5.6,2.9c1.8,0.4,3.5,0.6,5.1,0.6c3.9,0,7-0.8,9.3-2.4c2.6-1.7,3.9-4.4,3.9-7.8c0-1.9-0.4-3.3-1.2-4.4
						C754.7,610.9,754.1,610.1,753.2,609.2z"/>
				</g>
				<g>
					<path class="st0" d="M790.3,519.9c-2.6-2.4-5.9-3.6-9.7-3.6c-3.8,0-7,1.2-9.7,3.6c-2.7,2.4-4,5.4-4,8.9c0,3.5,1.4,6.5,4,8.9
						c2.6,2.4,5.9,3.6,9.7,3.6c3.8,0,7-1.2,9.7-3.6c2.7-2.4,4-5.4,4-8.9C794.3,525.4,792.9,522.4,790.3,519.9z"/>
				</g>
				<g>
					<path class="st0" d="M789.3,549.3c-2.4-2.1-5.3-3.2-8.7-3.2c-3.4,0-5.9,1.1-8.3,3.2c-2.4,2.2-3.3,4.9-3.3,8v57.5
						c0,3.2,0.9,5.9,3.3,8.1c2.4,2.1,5.1,3.2,8.5,3.2c3.4,0,6.2-1.1,8.6-3.2c2.4-2.2,3.6-4.9,3.6-8.1v-57.5
						C793,554.2,791.8,551.5,789.3,549.3z"/>
				</g>
				<g>
					<path class="st0" d="M864,549c-2.4-1.9-5.3-2.9-8.5-2.9c-2.4,0-4.7,0.7-6.9,2c-2.3,1.4-3.9,3.4-4.8,5.8l-7.6,24.5
						c-1.1,3.7-2,7.5-2.6,11.3c-0.6-3.8-1.6-7.6-2.8-11.3l-8-24.6c-0.9-2.4-2.4-4.4-4.7-5.8c-2.2-1.3-4.5-2-6.8-2
						c-3.2,0-6,1-8.4,2.9c-2.6,2.1-3.9,4.8-3.9,8.1v1.2c0,0.7,0.2,1.4,0.4,2.1l20.3,55.7c1.2,3.4,2.9,6,5,7.6
						c2.2,1.7,5.1,2.5,8.9,2.5c3.6,0,6.6-0.9,8.7-2.6c2-1.7,3.7-4.3,5-7.8l20.1-55.3c0.3-0.7,0.6-1.5,0.6-2.1v-1.2
						C868,553.8,866.5,551.1,864,549z"/>
				</g>
				<g>
					<path class="st0" d="M900,597c1.8,0.2,3.5,0.2,5.5,0.2c10.5,0,18.2-2.2,23-6.4c5-4.3,7.5-10.4,7.5-18.1c0-8-2.6-14.6-7.8-19.6
						c-5.1-5-12.9-7.5-23.1-7.5c-5.3,0-10.1,0.7-14.2,2.1c-4.2,1.4-7.7,3.4-10.6,5.9c-2.9,2.6-5.4,5.6-6.8,9.1
						c-1.4,3.4-2.5,7.2-2.5,11.2v24.4c0,3.9,1.1,7.6,2.6,11c1.5,3.4,3.8,6.4,6.7,8.9c2.8,2.5,6.3,4.4,10.3,5.9
						c4,1.4,8.6,2.1,13.7,2.1c2.4,0,5.3-0.2,8.6-0.6c3.4-0.4,6.6-1.1,9.7-2.1c3.2-1.1,5.9-2.5,8.2-4.3c2.6-2.1,3.9-4.8,3.9-8.1
						c0-1.1-0.2-2.2-0.5-3.4c-0.4-1.2-1-2.4-1.9-3.4c-0.9-1-2.1-1.9-3.5-2.5c-1.5-0.7-3.3-1-5.3-1c-1.5,0-2.7,0.1-3.6,0.4
						c-0.8,0.2-1.4,0.5-1.9,0.8c-2.2,1-4.2,1.7-6.1,2.2c-1.8,0.5-3.9,0.7-6,0.7c-3.4,0-5.6-0.6-7.1-1.7c-1.3-1-1.6-2.3-1.6-4.2v-2.2
						C898,596.9,898.9,597,900,597z M897,577.2v-4.1c0-2.3,0.4-4,1.7-5.2c1.4-1.3,3.4-1.9,6.3-1.9c2.2,0,3.9,0.5,4.9,1.4
						c1,0.8,1.4,2.3,1.4,4.5c0,2.3-0.5,3.9-1.5,4.6c-1.2,0.9-3,1.3-5.3,1.3c-0.7,0-1.8,0-3.7-0.1C899.6,577.4,898,577.3,897,577.2z"
						/>
				</g>
				<g>
					<path class="st0" d="M1040.8,549.1c-2.5-2-5.3-3-8.4-3c-2.3,0-4.6,0.6-6.8,1.7c-2.4,1.3-4.1,3.3-4.9,6l-7.9,24.5
						c-0.8,2.4-1.5,4.8-2,7.4c-0.6-2.6-1.4-5.2-2.4-7.5l-9.2-24.5c-1-2.5-2.5-4.5-4.7-5.8c-2.1-1.2-4.3-1.9-6.7-1.9
						c-3.4,0-6.3,1-8.6,2.9c-2.5,2.1-3.8,4.7-3.8,8c0,0.6,0.1,1.3,0.2,2c0.1,0.7,0.3,1.5,0.7,2.5l22.2,57.2
						c-1.6,5.1-3.2,8.7-4.9,10.8c-1.5,1.9-3.4,3-6,3.1c-3.6,0.2-6.5,1.4-8.6,3.5c-2.1,2.1-3.2,4.7-3.2,7.5c0,3.2,1.3,5.9,3.7,8
						c2.4,2,5.3,3,8.8,3c5.9,0,10.9-1.1,14.9-3.3c3.9-2.2,7.3-5.2,10.1-9.1c2.7-3.8,5-8.2,7-13.4c1.9-5,3.9-10.5,5.9-16.4l17.8-51.9
						c0.4-1,0.6-2.1,0.6-3.4C1044.8,554,1043.5,551.2,1040.8,549.1z"/>
				</g>
			</g>
		</g>
		<g>
			<path class="st0" d="M1078.8,467.3c-0.7,0-1.3,0.1-1.9,0.2c-1,0.1-2.1,0.3-3.2,0.6c-0.1,0-0.1,0-0.2,0.1c0,0,0,0-0.1,0
				c-1.6,0.5-3.1,1.4-4.5,2.4c0,0,0,0,0,0c-2.5,2.1-4.3,5-4.2,8.4c-0.1,1.1,0.1,2.2,0.4,3.2l2.6,7.7c0.1,0.3,0.2,0.6,0.3,0.9
				c0.3,1.7,0.1,3.5-0.6,4.9c-1.1,1.9-3.8,2.7-5.8,2.7l-8.1-0.1c-1.3,0-2.7,0.3-3.9,0.8c-3.3,1.4-5.8,4.1-6.8,7.4
				c-0.4,1.3-0.8,2.8-0.8,4.2v0c0,1.4,0.4,2.8,0.8,4.2c1.1,3.3,3.2,6.1,6.6,7.4c1.2,0.5,2.6,0.8,4,0.8l8.1-0.1
				c2.2,0,4.5,0.8,5.9,2.7c0.8,1.4,1,3.2,0.7,4.9c-0.1,0.3-0.2,0.6-0.3,0.9l-2.6,7.6c-0.3,1.1-0.5,2.2-0.4,3.2
				c-0.1,3.4,1.6,6.3,4.2,8.4c0,0,0,0,0,0c0.4,0.3,0.8,0.6,1.2,0.8c2,1.3,4.4,2.1,6.8,2.3c1.2,0.2,2.8,0.3,4,0
				c1.1-0.3,2.2-0.7,3.1-1.3c1-0.6,1.9-1.4,2.6-2.2c0.3-0.4,0.6-0.8,0.9-1.3c0.5-0.7,0.9-1.5,1.2-2.3c0,0,2.4-7.7,2.4-7.7
				c0.6-1.7,1.8-3.4,3.4-4.3c0,0,0,0,0.1,0c1.8-1,4.4-0.6,6.1,0.6c0.2,0.1,0.4,0.3,0.7,0.5l6.5,4.8c1.1,0.8,2.5,1.5,3.8,1.8
				c0.6,0.1,1.2,0.4,1.8,0.4c0,0,0.1,0,0.1,0c2.2,0,4.8-0.8,6.5-2.1c0,0,0-0.1,0-0.1c0.5-0.3,1-0.8,1.5-1.2c0.7-0.6,1.3-1.3,1.8-2
				c0-0.1,0.1-0.1,0.1-0.2c1-1.3,2-2.8,2.3-4.4c0-0.2,0.1-0.3,0.1-0.5c0.2-0.8,0.4-1.6,0.4-2.4c0.1-1.1,0-2.2-0.2-3.3
				c0-0.1,0.4-0.1,0.4-0.2c0,0,0.4-0.1,0.4-0.1v0c-1-1.2-1.4-2.5-2.2-3.5c-0.6-0.7-1.4-1.5-2.2-2.1c-0.1,0-0.2-0.1-0.3-0.1l-6-4.3
				c-0.4-0.3-0.8-0.6-1.2-0.8c-1.5-1.3-2.5-3.1-2.7-4.9c0.1-1.8,1.1-3.6,2.6-4.9c0.4-0.3,0.7-0.6,1.1-0.8l6-4.3
				c0.1,0,0.1-0.1,0.2-0.1c0.8-0.6,1.8-1.3,2.4-2.1c0.9-1.1,1.2-2.3,2.2-3.5v0c0-1.2-0.1-2.4-0.2-3.6c-0.2-2.3-1.2-4.6-2.5-6.5
				c-0.6-0.9-1.4-1.7-2.2-2.5c0,0-0.1,0-0.1,0c-0.6-0.6-1.3-1.2-2-1.7c0,0-0.1,0-0.1,0c-2.4-1.7-5.6-2.3-8.4-1.7c0,0-0.1,0-0.1,0
				c0,0-0.1,0-0.1,0c-1.2,0.3-2.5,0.8-3.6,1.6c0,0-6.5,4.8-6.5,4.8c-0.2,0.2-0.5,0.3-0.7,0.5c-1.8,1-4.1,1.7-6.1,0.6
				c-1.5-0.8-2.7-2.2-3.2-3.8c-0.9-2.7-1.7-5.5-2.6-8.2c-0.3-0.9-0.7-1.6-1.2-2.3c-0.3-0.5-0.6-0.9-0.9-1.3
				c-0.7-0.9-1.6-1.6-2.6-2.2c-1-0.6-2-1-3.1-1.3C1080.3,467.3,1079.6,467.2,1078.8,467.3z"/>
		</g>
	</g>
</g>
</svg>
