<?xml version="1.0" encoding="utf-8"?>
<!-- Generator: Adobe Illustrator 19.1.0, SVG Export Plug-In . SVG Version: 6.00 Build 0)  -->
<svg version="1.1" id="Layer_1" xmlns="http://www.w3.org/2000/svg" xmlns:xlink="http://www.w3.org/1999/xlink" x="0px" y="0px"
	 viewBox="0 0 1280 800" style="enable-background:new 0 0 1280 800;" xml:space="preserve">
<style type="text/css">
	.st0{fill:#4D4D4D;}
	.st1{clip-path:url(#SVGID_2_);}
	.st2{fill:#E6E6E6;}
	.st3{fill:#F57C00;}
	.st4{fill:#FF931E;}
	.st5{fill:#F2F2F2;}
	.st6{fill:#FFFFFF;}
	.st7{opacity:0.41;}
	.st8{fill:#00FF00;}
	.st9{fill:#0000FF;}
	.st10{fill:#FF0000;}
</style>
<g>
	<g>
		<g>
			<g>
				<path class="st2" d="M690,495c0-47,0-94.5,0-141.8c0-25.6,0-51.2,0-76.9c0-2.8,0-5.6,0-8.5c0-0.6,0-1.2,0-1.9c0-0.9-0.6,0-0.3,0
					c3.5,0,7,0,10.6,0c51.4,0,102.8,0,154.3,0c57.3,0,114.7,0,172,0c6.9,0,13.7,0,20.6,0c1.5,0,3.1,0,4.6,0c1.3,0,0.3-0.9,0.3,0.4
					c0,18.7,0,37.4,0,56.1c0,55.6,0,111.2,0,166.8c0,1.8,0,3.7,0,5.5c0,0,1.1-0.8-0.7-0.8c-4.8,0-9.6,0-14.4,0
					c-22.2,0-44.4,0-66.6,0c-63.6,0-127.1,0-190.7,0c-30,0-59.6,0-89.6,0c-1,0-1,2,0,2c37,0,73.4,0,110.3,0c62.9,0,125.8,0,188.7,0
					c21.1,0,42.3,0,63.4,0c0.4,0,0.6-0.4,0.6-0.8c0-47.3,0-94.7,0-142c0-29.2,0-58.4,0-87.6c0-0.4-0.2-0.6-0.6-0.6
					c-36.9,0-73.8,0-110.7,0c-62.9,0-125.8,0-188.7,0c-21.1,0-42.3,0-63.4,0c-0.4,0-0.6,0.2-0.6,0.6c0,47.3,0,94.7,0,142
					c0,29.2,0,58.4,0,87.4C689,496,690,496,690,495z"/>
			</g>
		</g>
		<g>
			<g>
				<path class="st2" d="M998.6,439c-45.3,0-90.6,0-135.9,0c-29.4,0-58.8,0-88.3,0c-8.5,0-16.9,0-25.4,0c-1.7,0-3.3,0-5,0
					c-0.8,0,0.4,1.2,0.4,0.5c0-1,0-2.1,0-3.1c0-27.8,0-55.6,0-83.4c0-10.4,0-20.8,0-31.3c0-2.1-1.3-0.8,0.3-0.8c2.1,0,4.3,0,6.4,0
					c55.5,0,111,0,166.5,0c23.9,0,47.8,0,71.7,0c2.5,0,5,0,7.5,0c0.5,0,1,0,1.6,0c0.6,0-0.5-1.3-0.5-0.2c0,9.3,0,18.6,0,27.8
					c0,30.4,0,60.8,0,91.2c0,1,1.5,1,1.5,0c0-39.8,0-79.7,0-119.5c0-0.4-0.3-0.7-0.7-0.7c-45.3,0-90.6,0-135.9,0
					c-39.7,0-79.3,0-119,0c-0.4,0-0.7,0.3-0.7,0.7c0,39.8,0,79.7,0,119.5c0,0.4,0.3,0.7,0.7,0.7c45.3,0,90.6,0,135.9,0
					c39.7,0,79.3,0,119,0C999.5,440.5,999.5,439,998.6,439z"/>
			</g>
		</g>
		<g>
			<path class="st5" d="M897.7,302.5c0,0-0.1-0.1-0.1-0.1c0,0-0.1,0-0.1-0.1l0,0c-0.4-0.8-0.5-1.6-1-2.2c-0.4-0.5-0.8-0.9-1.2-1.3
				c0,0,0,0-0.1-0.1l-3.8-2.7c-0.3-0.2-0.5-0.3-0.7-0.5c-0.9-0.8-1.6-2-1.7-3.1c0.1-1.1,0.7-2.3,1.7-3.1c0.3-0.2,0.5-0.3,0.7-0.5
				l3.8-2.7c0,0,0.1,0,0.1-0.1c0.5-0.4,0.8-0.8,1.2-1.3c0.5-0.7,0.6-1.4,1-2.2l0,0c0-0.8,0.3-1.5,0.3-2.3c-0.1-1.5-0.6-2.9-1.4-4.1
				c-0.4-0.5-0.8-1.1-1.3-1.6c0,0,0,0,0,0c-0.4-0.4-0.8-0.8-1.3-1c0,0,0,0,0,0c-1.5-1.1-3.6-1.4-5.4-1c0,0,0,0-0.1,0s0,0-0.1,0
				c-0.8,0.2-1.6,0.5-2.3,1l-4.1,3.1c-0.2,0.1-0.3,0.2-0.4,0.3c-1.1,0.7-2.6,1-3.9,0.4c-0.9-0.5-1.7-1.4-2.1-2.4
				c-0.6-1.7-1.1-3.5-1.6-5.2c-0.2-0.5-0.4-1-0.8-1.5c-0.2-0.3-0.4-0.6-0.6-0.8c-0.5-0.5-1-1-1.7-1.4c-0.6-0.3-1.3-0.6-2-0.8
				c-0.4,0-0.8-0.1-1.3,0c-0.4,0-0.8,0-1.2,0.1c-0.7,0-1.3,0.2-2,0.4c0,0-0.1,0-0.1,0h0c-1,0.3-2,0.9-2.9,1.5c0,0,0,0,0,0
				c-1.6,1.3-2.7,3.2-2.6,5.4c0,0.7,0,1.4,0.3,2.1l1.6,4.9c0.1,0.2,0.1,0.4,0.2,0.6c0.2,1.1,0.1,2.3-0.4,3.1
				c-0.7,1.2-2.4,1.7-3.7,1.7l-5.1,0c-0.8,0-1.7,0.2-2.5,0.5c-2.1,0.9-3.6,2.6-4.3,4.7c-0.3,0.8-0.5,1.8-0.5,2.6l0,0
				c0,0.9,0.3,1.8,0.5,2.6c0.7,2.1,2,3.9,4.2,4.7c0.8,0.3,1.6,0.5,2.5,0.5l5.2,0c1.4,0,2.9,0.5,3.7,1.7c0.5,0.9,0.6,2.1,0.4,3.1
				c0,0.2-0.1,0.4-0.2,0.6l-1.6,4.9c-0.2,0.7-0.3,1.4-0.3,2.1c0,2.2,1,4,2.6,5.4c0,0,0,0,0,0c0.3,0.2,0.5,0.3,0.8,0.5
				c1.3,0.8,2.8,1.3,4.3,1.5c0.8,0.1,1.8,0.2,2.5,0c0.7-0.2,1.4-0.5,2-0.8c0.7-0.4,1.2-0.9,1.7-1.4c0.2-0.3,0.4-0.5,0.6-0.8
				c0.3-0.5,0.5-0.9,0.8-1.5c0,0,1.6-4.9,1.6-4.9c0.3-1.1,1.1-2.1,2.1-2.7c0,0,0,0,0,0c1.2-0.6,2.8-0.4,3.9,0.4
				c0.1,0.1,0.3,0.2,0.4,0.3l4.1,3.1c0.7,0.5,1.6,0.7,2.4,0.9c0.4,0.1,0.8,0,1.1,0h0.1c1.4,0.4,3-0.3,4.2-1.1l0,0
				c0.3-0.2,0.6-0.4,0.9-0.7c0.4-0.4,0.8-0.8,1.2-1.2c0,0,0-0.1,0.1-0.1c0.6-0.8,1.3-1.8,1.5-2.8c0-0.1,0-0.2,0.1-0.3
				c0.2-0.5,0.3-1,0.3-1.6C897.9,303.9,897.9,303.2,897.7,302.5z"/>
		</g>
		<g>
			<path class="st5" d="M897.7,476.9c0,0-0.1-0.1-0.1-0.1c0,0-0.1,0-0.1-0.1l0,0c-0.4-0.8-0.5-1.6-1-2.2c-0.4-0.5-0.8-0.9-1.2-1.3
				c0,0,0,0-0.1-0.1l-3.8-2.7c-0.3-0.2-0.5-0.3-0.7-0.5c-0.9-0.8-1.6-2-1.7-3.1c0.1-1.1,0.7-2.3,1.7-3.1c0.3-0.2,0.5-0.3,0.7-0.5
				l3.8-2.7c0,0,0.1,0,0.1-0.1c0.5-0.4,0.8-0.8,1.2-1.3c0.5-0.7,0.6-1.4,1-2.2l0,0c0-0.8,0.3-1.5,0.3-2.3c-0.1-1.5-0.6-2.9-1.4-4.1
				c-0.4-0.5-0.8-1.1-1.3-1.6c0,0,0,0,0,0c-0.4-0.4-0.8-0.8-1.3-1c0,0,0,0,0,0c-1.5-1.1-3.6-1.4-5.4-1c0,0,0,0-0.1,0s0,0-0.1,0
				c-0.8,0.2-1.6,0.5-2.3,1l-4.1,3.1c-0.2,0.1-0.3,0.2-0.4,0.3c-1.1,0.7-2.6,1-3.9,0.4c-0.9-0.5-1.7-1.4-2.1-2.4
				c-0.6-1.7-1.1-3.5-1.6-5.2c-0.2-0.5-0.4-1-0.8-1.5c-0.2-0.3-0.4-0.6-0.6-0.8c-0.5-0.5-1-1-1.7-1.4c-0.6-0.3-1.3-0.6-2-0.8
				c-0.4,0-0.8-0.1-1.3,0c-0.4,0-0.8,0-1.2,0.1c-0.7,0-1.3,0.2-2,0.4c0,0-0.1,0-0.1,0h0c-1,0.3-2,0.9-2.9,1.5c0,0,0,0,0,0
				c-1.6,1.3-2.7,3.2-2.6,5.4c0,0.7,0,1.4,0.3,2.1l1.6,4.9c0.1,0.2,0.1,0.4,0.2,0.6c0.2,1.1,0.1,2.3-0.4,3.1
				c-0.7,1.2-2.4,1.7-3.7,1.7l-5.1,0c-0.8,0-1.7,0.2-2.5,0.5c-2.1,0.9-3.6,2.6-4.3,4.7c-0.3,0.8-0.5,1.8-0.5,2.6l0,0
				c0,0.9,0.3,1.8,0.5,2.6c0.7,2.1,2,3.9,4.2,4.7c0.8,0.3,1.6,0.5,2.5,0.5l5.2,0c1.4,0,2.9,0.5,3.7,1.7c0.5,0.9,0.6,2.1,0.4,3.1
				c0,0.2-0.1,0.4-0.2,0.6l-1.6,4.9c-0.2,0.7-0.3,1.4-0.3,2.1c0,2.2,1,4,2.6,5.4c0,0,0,0,0,0c0.3,0.2,0.5,0.3,0.8,0.5
				c1.3,0.8,2.8,1.3,4.3,1.5c0.8,0.1,1.8,0.2,2.5,0c0.7-0.2,1.4-0.5,2-0.8c0.7-0.4,1.2-0.9,1.7-1.4c0.2-0.3,0.4-0.5,0.6-0.8
				c0.3-0.5,0.5-0.9,0.8-1.5c0,0,1.6-4.9,1.6-4.9c0.3-1.1,1.1-2.1,2.1-2.7c0,0,0,0,0,0c1.2-0.6,2.8-0.4,3.9,0.4
				c0.1,0.1,0.3,0.2,0.4,0.3l4.1,3.1c0.7,0.5,1.6,0.7,2.4,0.9c0.4,0.1,0.8,0,1.1,0h0.1c1.4,0.4,3-0.3,4.2-1.1l0,0
				c0.3-0.2,0.6-0.4,0.9-0.7c0.4-0.4,0.8-0.8,1.2-1.2c0,0,0-0.1,0.1-0.1c0.6-0.8,1.3-1.8,1.5-2.8c0-0.1,0-0.2,0.1-0.3
				c0.2-0.5,0.3-1,0.3-1.6C897.9,478.3,897.9,477.6,897.7,476.9z"/>
		</g>
		<g>
			<path class="st5" d="M1052.3,390.1c0,0-0.1-0.1-0.1-0.1c0,0-0.1,0-0.1-0.1l0,0c-0.4-0.8-0.5-1.6-1-2.2c-0.4-0.5-0.8-0.9-1.2-1.3
				c0,0,0,0-0.1-0.1l-3.8-2.7c-0.3-0.2-0.5-0.3-0.7-0.5c-0.9-0.8-1.6-2-1.7-3.1c0.1-1.1,0.7-2.3,1.7-3.1c0.3-0.2,0.5-0.3,0.7-0.5
				l3.8-2.7c0,0,0.1,0,0.1-0.1c0.5-0.4,0.8-0.8,1.2-1.3c0.5-0.7,0.6-1.4,1-2.2l0,0c0-0.8,0.3-1.5,0.3-2.3c-0.1-1.5-0.6-2.9-1.4-4.1
				c-0.4-0.5-0.8-1.1-1.3-1.6c0,0,0,0,0,0c-0.4-0.4-0.8-0.8-1.3-1c0,0,0,0,0,0c-1.5-1.1-3.6-1.4-5.4-1c0,0,0,0-0.1,0c0,0,0,0-0.1,0
				c-0.8,0.2-1.6,0.5-2.3,1l-4.1,3.1c-0.2,0.1-0.3,0.2-0.4,0.3c-1.1,0.7-2.6,1-3.9,0.4c-0.9-0.5-1.7-1.4-2.1-2.4
				c-0.6-1.7-1.1-3.5-1.6-5.2c-0.2-0.5-0.4-1-0.8-1.5c-0.2-0.3-0.4-0.6-0.6-0.8c-0.5-0.5-1-1-1.7-1.4c-0.6-0.3-1.3-0.6-2-0.8
				c-0.4,0-0.8-0.1-1.3,0c-0.4,0-0.8,0-1.2,0.1c-0.7,0-1.3,0.2-2,0.4c0,0-0.1,0-0.1,0h0c-1,0.3-2,0.9-2.9,1.5c0,0,0,0,0,0
				c-1.6,1.3-2.7,3.2-2.6,5.4c0,0.7,0,1.4,0.3,2.1l1.6,4.9c0.1,0.2,0.1,0.4,0.2,0.6c0.2,1.1,0.1,2.3-0.4,3.1
				c-0.7,1.2-2.4,1.7-3.7,1.7l-5.1,0c-0.8,0-1.7,0.2-2.5,0.5c-2.1,0.9-3.6,2.6-4.3,4.7c-0.3,0.8-0.5,1.8-0.5,2.6l0,0
				c0,0.9,0.3,1.8,0.5,2.6c0.7,2.1,2,3.9,4.2,4.7c0.8,0.3,1.6,0.5,2.5,0.5l5.2,0c1.4,0,2.9,0.5,3.7,1.7c0.5,0.9,0.6,2.1,0.4,3.1
				c0,0.2-0.1,0.4-0.2,0.6l-1.6,4.9c-0.2,0.7-0.3,1.4-0.3,2.1c0,2.2,1,4,2.6,5.4c0,0,0,0,0,0c0.3,0.2,0.5,0.3,0.8,0.5
				c1.3,0.8,2.8,1.3,4.3,1.5c0.8,0.1,1.8,0.2,2.5,0c0.7-0.2,1.4-0.5,2-0.8c0.7-0.4,1.2-0.9,1.7-1.4c0.2-0.3,0.4-0.5,0.6-0.8
				c0.3-0.5,0.5-0.9,0.8-1.5c0,0,1.6-4.9,1.6-4.9c0.3-1.1,1.1-2.1,2.1-2.7c0,0,0,0,0,0c1.2-0.6,2.8-0.4,3.9,0.4
				c0.1,0.1,0.3,0.2,0.4,0.3l4.1,3.1c0.7,0.5,1.6,0.7,2.4,0.9c0.4,0.1,0.8,0,1.1,0h0.1c1.4,0.4,3-0.3,4.2-1.1l0,0
				c0.3-0.2,0.6-0.4,0.9-0.7c0.4-0.4,0.8-0.8,1.2-1.2c0,0,0-0.1,0.1-0.1c0.6-0.8,1.3-1.8,1.5-2.8c0-0.1,0-0.2,0.1-0.3
				c0.2-0.5,0.3-1,0.3-1.6C1052.5,391.5,1052.4,390.8,1052.3,390.1z"/>
		</g>
		<g>
			<path class="st5" d="M743,390.1c0,0-0.1-0.1-0.1-0.1c0,0-0.1,0-0.1-0.1l0,0c-0.4-0.8-0.5-1.6-1-2.2c-0.4-0.5-0.8-0.9-1.2-1.3
				c0,0,0,0-0.1-0.1l-3.8-2.7c-0.3-0.2-0.5-0.3-0.7-0.5c-0.9-0.8-1.6-2-1.7-3.1c0.1-1.1,0.7-2.3,1.7-3.1c0.3-0.2,0.5-0.3,0.7-0.5
				l3.8-2.7c0,0,0.1,0,0.1-0.1c0.5-0.4,0.8-0.8,1.2-1.3c0.5-0.7,0.6-1.4,1-2.2l0,0c0-0.8,0.3-1.5,0.3-2.3c-0.1-1.5-0.6-2.9-1.4-4.1
				c-0.4-0.5-0.8-1.1-1.3-1.6c0,0,0,0,0,0c-0.4-0.4-0.8-0.8-1.3-1c0,0,0,0,0,0c-1.5-1.1-3.6-1.4-5.4-1c0,0,0,0-0.1,0s0,0-0.1,0
				c-0.8,0.2-1.6,0.5-2.3,1l-4.1,3.1c-0.2,0.1-0.3,0.2-0.4,0.3c-1.1,0.7-2.6,1-3.9,0.4c-0.9-0.5-1.7-1.4-2.1-2.4
				c-0.6-1.7-1.1-3.5-1.6-5.2c-0.2-0.5-0.4-1-0.8-1.5c-0.2-0.3-0.4-0.6-0.6-0.8c-0.5-0.5-1-1-1.7-1.4c-0.6-0.3-1.3-0.6-2-0.8
				c-0.4,0-0.8-0.1-1.3,0c-0.4,0-0.8,0-1.2,0.1c-0.7,0-1.3,0.2-2,0.4c0,0-0.1,0-0.1,0h0c-1,0.3-2,0.9-2.9,1.5c0,0,0,0,0,0
				c-1.6,1.3-2.7,3.2-2.6,5.4c0,0.7,0,1.4,0.3,2.1l1.6,4.9c0.1,0.2,0.1,0.4,0.2,0.6c0.2,1.1,0.1,2.3-0.4,3.1
				c-0.7,1.2-2.4,1.7-3.7,1.7l-5.1,0c-0.8,0-1.7,0.2-2.5,0.5c-2.1,0.9-3.6,2.6-4.3,4.7c-0.3,0.8-0.5,1.8-0.5,2.6l0,0
				c0,0.9,0.3,1.8,0.5,2.6c0.7,2.1,2,3.9,4.2,4.7c0.8,0.3,1.6,0.5,2.5,0.5l5.2,0c1.4,0,2.9,0.5,3.7,1.7c0.5,0.9,0.6,2.1,0.4,3.1
				c0,0.2-0.1,0.4-0.2,0.6l-1.6,4.9c-0.2,0.7-0.3,1.4-0.3,2.1c0,2.2,1,4,2.6,5.4c0,0,0,0,0,0c0.3,0.2,0.5,0.3,0.8,0.5
				c1.3,0.8,2.8,1.3,4.3,1.5c0.8,0.1,1.8,0.2,2.5,0c0.7-0.2,1.4-0.5,2-0.8c0.7-0.4,1.2-0.9,1.7-1.4c0.2-0.3,0.4-0.5,0.6-0.8
				c0.3-0.5,0.5-0.9,0.8-1.5c0,0,1.6-4.9,1.6-4.9c0.3-1.1,1.1-2.1,2.1-2.7c0,0,0,0,0,0c1.2-0.6,2.8-0.4,3.9,0.4
				c0.1,0.1,0.3,0.2,0.4,0.3l4.1,3.1c0.7,0.5,1.6,0.7,2.4,0.9c0.4,0.1,0.8,0,1.1,0h0.1c1.4,0.4,3-0.3,4.2-1.1l0,0
				c0.3-0.2,0.6-0.4,0.9-0.7c0.4-0.4,0.8-0.8,1.2-1.2c0,0,0-0.1,0.1-0.1c0.6-0.8,1.3-1.8,1.5-2.8c0-0.1,0-0.2,0.1-0.3
				c0.2-0.5,0.3-1,0.3-1.6C743.2,391.5,743.2,390.8,743,390.1z"/>
		</g>
		<g>
			<path class="st3" d="M784.5,353.8c-1.7-1.5-3.7-2.3-6.1-2.3c-2.4,0-4.5,0.8-6.1,2.3c-1.7,1.6-2.6,3.5-2.6,5.7
				c0,2.2,0.9,4.1,2.6,5.7c1.7,1.5,3.7,2.3,6.1,2.3c2.4,0,4.5-0.8,6.1-2.3c1.7-1.6,2.6-3.5,2.6-5.7
				C787.1,357.3,786.2,355.4,784.5,353.8z M783.8,372.5c-1.5-1.3-3.3-2.1-5.5-2.1c-2.1,0-4,0.7-5.5,2.1c-1.6,1.4-2.3,3.1-2.3,5.1
				v36.5c0,2.1,0.8,3.8,2.3,5.2c1.5,1.3,3.4,2.1,5.5,2.1c2.1,0,3.9-0.7,5.4-2.1c1.6-1.4,2.2-3.1,2.2-5.2v-36.5
				C786,375.6,785.4,373.9,783.8,372.5z M760.9,410.6c-0.7-0.7-0.8-1-0.8-1c0-0.1-0.1-0.6-0.1-1.7V358c0-2-0.8-3.8-2.4-5.2
				c-1.5-1.3-3.4-2.1-5.5-2.1c-2.2,0-4.1,0.7-5.6,2.1c-1.6,1.4-2.4,3.1-2.4,5.1v50.9c0,2.6,0.4,4.7,1,6.3c0.7,1.7,1.6,3,2.6,3.9
				c1,0.9,2.3,1.6,3.6,1.8c1.1,0.3,2.3,0.3,3.3,0.3c2.4,0,4.4-0.5,5.9-1.5c1.6-1.1,2.5-2.8,2.5-5c0-1.2-0.3-2.1-0.8-2.8
				C761.9,411.6,761.5,411.1,760.9,410.6z M833.4,377.5c0-2.1-0.7-3.9-2.3-5.2c-1.5-1.2-3.3-1.8-5.2-1.8c-1.5,0-2.9,0.4-4.4,1.3
				c-1.5,0.9-2.5,2.1-3,3.7l-4.8,15.6c-0.7,2.4-1.3,4.8-1.6,7.2c-0.4-2.4-1-4.8-1.8-7.2l-5.1-15.6c-0.5-1.6-1.6-2.8-3-3.7
				c-1.4-0.8-2.9-1.3-4.4-1.3c-2,0-3.9,0.6-5.5,1.8c-1.6,1.3-2.6,3.1-2.6,5.2v0.8c0,0.4,0.2,0.9,0.4,1.3l13,35.4
				c0.8,2.2,1.9,3.8,3.2,4.8c1.4,1,3.3,1.6,5.7,1.6c2.3,0,4.2-0.5,5.5-1.7c1.3-1,2.3-2.7,3.2-4.9l12.5-35.1c0.2-0.5,0.1-0.9,0.1-1.3
				V377.5L833.4,377.5z M998,358.2c0,0-0.1-0.1-0.1-0.1c0,0-0.1,0-0.1-0.1l0,0c-0.4-0.8-0.5-1.6-1-2.2c-0.4-0.5-0.8-0.9-1.2-1.3
				c0,0,0,0-0.1-0.1l-3.8-2.7c-0.3-0.2-0.5-0.3-0.7-0.5c-0.9-0.8-1.6-2-1.7-3.1c0.1-1.1,0.7-2.3,1.7-3.1c0.3-0.2,0.5-0.3,0.7-0.5
				l3.8-2.7c0,0,0.1,0,0.1-0.1c0.5-0.4,0.8-0.8,1.2-1.3c0.5-0.7,0.6-1.4,1-2.2l0,0c0-0.8,0.3-1.5,0.3-2.3c-0.1-1.5-0.6-2.9-1.4-4.1
				c-0.4-0.5-0.8-1.1-1.3-1.6c0,0,0,0,0,0c-0.4-0.4-0.8-0.8-1.3-1c0,0,0,0,0,0c-1.5-1.1-3.6-1.4-5.4-1c0,0,0,0-0.1,0s0,0-0.1,0
				c-0.8,0.2-1.6,0.5-2.3,1l-4.1,3.1c-0.2,0.1-0.3,0.2-0.4,0.3c-1.1,0.7-2.6,1-3.9,0.4c-0.9-0.5-1.7-1.4-2.1-2.4
				c-0.6-1.7-1.1-3.5-1.6-5.2c-0.2-0.5-0.4-1-0.8-1.5c-0.2-0.3-0.4-0.6-0.6-0.8c-0.5-0.5-1-1-1.7-1.4c-0.6-0.3-1.3-0.6-2-0.8
				c-0.4,0-0.8-0.1-1.3,0c-0.4,0-0.8,0-1.2,0.1c-0.7,0-1.3,0.2-2,0.4c0,0-0.1,0-0.1,0h0c-1,0.3-2,0.9-2.9,1.5c0,0,0,0,0,0
				c-1.6,1.3-2.7,3.2-2.6,5.4c0,0.7,0,1.4,0.3,2.1l1.6,4.9c0.1,0.2,0.1,0.4,0.2,0.6c0.2,1.1,0.1,2.3-0.4,3.1
				c-0.7,1.2-2.4,1.7-3.7,1.7l-5.1,0c-0.8,0-1.7,0.2-2.5,0.5c-2.1,0.9-3.6,2.6-4.3,4.7c-0.3,0.8-0.5,1.8-0.5,2.6l0,0
				c0,0.9,0.3,1.8,0.5,2.6c0.7,2.1,2,3.9,4.2,4.7c0.8,0.3,1.6,0.5,2.5,0.5l5.2,0c1.4,0,2.9,0.5,3.7,1.7c0.5,0.9,0.6,2.1,0.4,3.1
				c0,0.2-0.1,0.4-0.2,0.6l-1.6,4.9c-0.2,0.7-0.3,1.4-0.3,2.1c0,2.2,1,4,2.6,5.4c0,0,0,0,0,0c0.3,0.2,0.5,0.3,0.8,0.5
				c1.3,0.8,2.8,1.3,4.3,1.5c0.8,0.1,1.8,0.2,2.5,0c0.7-0.2,1.4-0.5,2-0.8c0.7-0.4,1.2-0.9,1.7-1.4c0.2-0.3,0.4-0.5,0.6-0.8
				c0.3-0.5,0.5-0.9,0.8-1.5c0,0,1.6-4.9,1.6-4.9c0.3-1.1,1.1-2.1,2.1-2.7c0,0,0,0,0,0c1.2-0.6,2.8-0.4,3.9,0.4
				c0.1,0.1,0.3,0.2,0.4,0.3l4.1,3.1c0.7,0.5,1.6,0.7,2.4,0.9c0.4,0.1,0.8,0,1.1,0h0.1c1.4,0.4,3-0.3,4.2-1.1l0,0
				c0.3-0.2,0.6-0.4,0.9-0.7c0.4-0.4,0.8-0.8,1.2-1.2c0,0,0-0.1,0.1-0.1c0.6-0.8,1.3-1.8,1.5-2.8c0-0.1,0-0.2,0.1-0.3
				c0.2-0.5,0.3-1,0.3-1.6C998.2,359.5,998.1,358.8,998,358.2z M943.7,372.3c-1.6-1.3-3.4-1.9-5.3-1.9c-1.5,0-2.9,0.4-4.3,1.1
				c-1.5,0.8-2.6,2.1-3.1,3.8l-5,15.6c-0.5,1.5-0.9,3.1-1.3,4.7c-0.4-1.7-0.9-3.3-1.5-4.8l-5.8-15.6c-0.6-1.6-1.6-2.9-3-3.6
				c-1.3-0.8-2.7-1.2-4.2-1.2c-2.1,0-4,0.6-5.5,1.8c-1.6,1.3-2.4,3-2.4,5.1c0,0.4,0,0.8,0.1,1.3c0.1,0.5,0.2,1,0.5,1.6l14.1,36.4
				c-1,3.2-2.1,5.5-3.1,6.9c-0.9,1.2-2.2,1.9-3.8,2c-2.3,0.1-4.1,0.9-5.5,2.2c-1.3,1.3-2.1,3-2.1,4.8c0,2.1,0.8,3.8,2.4,5.1
				c1.5,1.3,3.4,1.9,5.6,1.9c3.8,0,7-0.7,9.5-2.1c2.5-1.4,4.7-3.3,6.4-5.8c1.7-2.4,3.2-5.2,4.4-8.5c1.2-3.2,2.5-6.7,3.8-10.4
				l11.3-33c0.3-0.6,0.4-1.3,0.4-2.2C946.3,375.4,945.4,373.7,943.7,372.3z M854,402.8c1.1,0.1,2.3,0.1,3.6,0.1
				c6.6,0,11.6-1.4,14.7-4.1c3.1-2.8,4.8-6.6,4.8-11.5c0-5.1-1.7-9.3-4.9-12.5c-3.3-3.2-8.2-4.8-14.7-4.8c-3.4,0-6.4,0.5-9,1.3
				c-2.6,0.9-4.9,2.2-6.7,3.8c-1.8,1.6-3.4,3.6-4.3,5.8c-0.9,2.2-1.5,4.6-1.5,7.1v15.5c0,2.5,0.6,4.8,1.6,7c1,2.2,2.4,4.1,4.2,5.7
				c1.8,1.6,4,2.8,6.5,3.7c2.5,0.9,5.5,1.3,8.7,1.3c1.5,0,3.4-0.1,5.5-0.4c2.1-0.3,4.2-0.7,6.1-1.3c2-0.7,3.8-1.6,5.2-2.8
				c1.6-1.3,2.5-3.1,2.5-5.1c0-0.7-0.1-1.4-0.3-2.1c-0.3-0.8-0.7-1.5-1.2-2.1c-0.6-0.6-1.3-1.2-2.3-1.6c-0.9-0.4-2.1-0.6-3.4-0.6
				c-1,0-1.7,0.1-2.3,0.3c-0.5,0.2-0.9,0.3-1.2,0.5c-1.4,0.6-2.7,1.1-3.9,1.4c-1.2,0.3-2.4,0.5-3.8,0.5c-2.2,0-3.8-0.4-4.7-1.1
				c-0.8-0.6-1.3-1.5-1.3-2.6v-1.4C852.7,402.7,853.3,402.8,854,402.8z M851.9,387.6c0-1.4,0.5-2.5,1.3-3.3c0.9-0.8,2.3-1.2,4.1-1.2
				c1.4,0,2.5,0.3,3.2,0.9c0.6,0.5,0.9,1.5,0.9,2.9c0,1.5-0.3,2.4-0.9,2.9c-0.8,0.5-1.9,0.8-3.4,0.8c-0.5,0-1.3,0-2.6-0.1
				c-0.8,0-1.9-0.1-2.7-0.2V387.6z M899,410.6c-0.7-0.7-0.8-1-0.9-1c0-0.1-0.2-0.6-0.2-1.7V358c0-2-0.8-3.8-2.3-5.2
				c-1.5-1.3-3.4-2.1-5.5-2.1c-2.2,0-4.2,0.7-5.7,2.1c-1.6,1.4-2.4,3.1-2.4,5.1v50.9c0,2.6,0.5,4.7,1.1,6.3c0.7,1.7,1.6,3,2.6,3.9
				c1,0.9,2.3,1.6,3.6,1.8c1.1,0.3,2.3,0.3,3.3,0.3c2.4,0,4.4-0.5,5.9-1.5c1.6-1.1,2.5-2.8,2.5-5c0-1.2-0.3-2.1-0.8-2.8
				C900,411.6,899.6,411.1,899,410.6z"/>
		</g>
		<g>
			<g>
				<path class="st2" d="M1000,320c0-12,0-24,0-36c0-5.7,0-11.5,0-17.2c0-1.7-1.6-0.8-0.3-0.8c2.2,0,4.4,0,6.6,0
					c14.3,0,28.6,0,42.9,0c0.8,0,1.6,0,2.3,0c1.4,0,0.4,0.5,0.4-0.3c0,1.4,0,2.8,0,4.2c0,7,0,14,0,21c0,8.5,0,17,0,25.5
					c0,0.9,0,1.9,0,2.8c0,1.4,0-0.1,0.2-0.1c-2.4,0-4.8,0-7.2,0c-15.4,0-31,0-46,0c-1,0-1,2,0,2c18,0,35.6,0,53.4,0
					c0.4,0,0.6-0.7,0.6-1.1c0-18.1,0-36.2,0-54.3c0-0.4-0.2-0.6-0.6-0.6c-17.9,0-35.7,0-53.6,0c-0.4,0-0.9,0.2-0.9,0.6
					c0,18.1,0,36.4,0,54.4C998,321,1000,321,1000,320z"/>
			</g>
		</g>
		<g>
			<g>
				<path class="st2" d="M690,495c0-12,0-23.6,0-35.5c0-5.9,0-11.8,0-17.7c0-0.4,0-0.9,0-1.3c0,0.6-0.9,0.5,0.2,0.5c2,0,4.1,0,6.1,0
					c14.4,0,28.8,0,43.2,0c1.4,0,2.7,0,4.1,0c-0.6,0-0.6-1.2-0.6,0c0,0.8,0,1.7,0,2.5c0,6.6,0,13.2,0,19.9c0,9,0,18.1,0,27.1
					c0,1.2,0,2.4,0,3.6c0,1.7-0.2-0.1,0.6-0.1c-2.2,0-4.4,0-6.6,0c-15.8,0-32,0-47,0c-1,0-1,2,0,2c18,0,35.6,0,53.7,0
					c0.4,0,0.3-0.4,0.3-0.8c0-18.3,0-36.5,0-54.8c0-0.4,0.1-0.4-0.3-0.4c-18,0-36,0-54.1,0c-0.4,0-0.6,0-0.6,0.4
					c0,18.3,0,36.6,0,54.6C689,496,690,496,690,495z"/>
			</g>
		</g>
	</g>
	<g>
		<g>
			<g>
				<g>
					<path class="st2" d="M228,374c0-25,0-49.4,0-74.2c0-5.2,0-10.3,0-15.5c0-0.9,0-1.9,0-2.8c0,0.2-0.5,0.5,0.6,0.5
						c8.8,0,17.6,0,26.4,0c31,0,62,0,93,0c8.6,0,17.2,0,25.7,0c1,0,0.3-0.3,0.3-0.5c0,1.1,0,2.2,0,3.2c0,5.3,0,10.6,0,15.9
						c0,15.8,0,31.7,0,47.5c0,6.3,0,12.6,0,18.9c0,1.8,0,3.6,0,5.3c0,1.1,0,1.6,0.5,1.6c-21.7,0-43.3,0-65,0
						C282.2,374,255,374,228,374c-1,0-1,1,0,1c47,0,95,0,142.8,0c1.2,0,2.5,0,3.7,0c0.2,0,0.5-0.5,0.5-0.7c0-31,0-62,0-93
						c0-0.2-0.3-0.3-0.5-0.3c-47.8,0-95.5,0-143.3,0c-1.2,0-2.5,0-3.7,0c-0.2,0-0.5,0.2-0.5,0.3c0,31,0,61.7,0,92.7
						C227,375,228,375,228,374z"/>
				</g>
			</g>
			<g>
				<g>
					<path class="st2" d="M352.7,351.6c-24.5,0-49,0-73.5,0c-9.8,0-19.6,0-29.5,0c-0.2,0,0,0,0-1.3c0-2.7,0-5.4,0-8.1
						c0-7.9,0-15.8,0-23.7c0-5,0-9.9,0-14.9c0,0.3,0.1,0.2,1.2,0.2c1.7,0,3.5,0,5.2,0c13.8,0,27.7,0,41.5,0c14.8,0,29.6,0,44.4,0
						c3.4,0,6.9,0,10.3,0c0.6,0,0.2-0.3,0.2,1c0,2.6,0,5.1,0,7.7c0,13.2,0,26.3,0,39.5c0,0.4,0.6,0.4,0.6,0c0-16.1,0-32.3,0-48.4
						c0-0.2-0.1-0.3-0.3-0.3c-34.4,0-68.9,0-103.3,0c-0.2,0-0.3,0.1-0.3,0.3c0,16.1,0,32.3,0,48.4c0,0.2,0.1,0.3,0.3,0.3
						c34.4,0,68.9,0,103.3,0C353.1,352.2,353.1,351.6,352.7,351.6z"/>
				</g>
			</g>
			<g>
				<path class="st5" d="M311.9,296.3C311.9,296.3,311.8,296.2,311.9,296.3C311.8,296.2,311.8,296.2,311.9,296.3L311.9,296.3
					c-0.2-0.4-0.3-0.7-0.5-1c-0.2-0.2-0.3-0.4-0.5-0.5c0,0,0,0-0.1,0l-1.5-1.1c-0.1-0.1-0.2-0.1-0.3-0.2c-0.4-0.3-0.6-0.8-0.7-1.3
					c0-0.5,0.3-0.9,0.7-1.3c0.1-0.1,0.2-0.1,0.3-0.2l1.5-1.1c0,0,0,0,0.1,0c0.2-0.2,0.3-0.3,0.5-0.5c0.2-0.3,0.3-0.6,0.4-0.9l0,0
					c0-0.3,0.1-0.6,0.1-0.9c-0.1-0.6-0.2-1.2-0.6-1.7c-0.2-0.2-0.3-0.4-0.5-0.6c0,0,0,0,0,0c-0.2-0.2-0.3-0.3-0.5-0.4c0,0,0,0,0,0
					c-0.6-0.4-1.4-0.6-2.2-0.4c0,0,0,0,0,0s0,0,0,0c-0.3,0.1-0.6,0.2-0.9,0.4l-1.7,1.2c-0.1,0-0.1,0.1-0.2,0.1
					c-0.5,0.3-1.1,0.4-1.6,0.2c-0.4-0.2-0.7-0.6-0.8-1c-0.2-0.7-0.4-1.4-0.7-2.1c-0.1-0.2-0.2-0.4-0.3-0.6c-0.1-0.1-0.2-0.2-0.2-0.3
					c-0.2-0.2-0.4-0.4-0.7-0.6c-0.3-0.1-0.5-0.3-0.8-0.3c-0.2,0-0.3,0-0.5,0c-0.2,0-0.3,0-0.5,0c-0.3,0-0.5,0.1-0.8,0.2
					c0,0,0,0-0.1,0h0c-0.4,0.1-0.8,0.4-1.2,0.6c0,0,0,0,0,0c-0.7,0.5-1.1,1.3-1.1,2.2c0,0.3,0,0.6,0.1,0.8l0.7,2
					c0,0.1,0.1,0.2,0.1,0.2c0.1,0.4,0,0.9-0.2,1.3c-0.3,0.5-1,0.7-1.5,0.7l-2.1,0c-0.3,0-0.7,0.1-1,0.2c-0.8,0.4-1.5,1.1-1.8,1.9
					c-0.1,0.3-0.2,0.7-0.2,1.1l0,0c0,0.4,0.1,0.7,0.2,1.1c0.3,0.8,0.8,1.6,1.7,1.9c0.3,0.1,0.7,0.2,1,0.2l2.1,0
					c0.6,0,1.2,0.2,1.5,0.7c0.2,0.4,0.3,0.8,0.2,1.3c0,0.1-0.1,0.2-0.1,0.2l-0.7,2c-0.1,0.3-0.1,0.6-0.1,0.8c0,0.9,0.4,1.6,1.1,2.2
					c0,0,0,0,0,0c0.1,0.1,0.2,0.1,0.3,0.2c0.5,0.3,1.1,0.5,1.7,0.6c0.3,0,0.7,0.1,1,0c0.3-0.1,0.6-0.2,0.8-0.3
					c0.3-0.2,0.5-0.4,0.7-0.6c0.1-0.1,0.2-0.2,0.2-0.3c0.1-0.2,0.2-0.4,0.3-0.6c0,0,0.6-2,0.6-2c0.1-0.4,0.5-0.9,0.9-1.1
					c0,0,0,0,0,0c0.5-0.3,1.1-0.2,1.6,0.2c0.1,0,0.1,0.1,0.2,0.1l1.7,1.2c0.3,0.2,0.6,0.3,1,0.4c0.2,0,0.3,0,0.5,0h0
					c0.6,0.2,1.2-0.1,1.7-0.4l0,0c0.1-0.1,0.3-0.2,0.4-0.3c0.2-0.2,0.3-0.3,0.5-0.5c0,0,0,0,0-0.1c0.3-0.3,0.5-0.7,0.6-1.1
					c0,0,0-0.1,0-0.1c0.1-0.2,0.1-0.4,0.1-0.6C311.9,296.8,311.9,296.5,311.9,296.3z"/>
			</g>
			<g>
				<path class="st5" d="M311.9,366.9C311.9,366.9,311.8,366.9,311.9,366.9C311.8,366.9,311.8,366.9,311.9,366.9L311.9,366.9
					c-0.2-0.4-0.3-0.7-0.5-1c-0.2-0.2-0.3-0.4-0.5-0.5c0,0,0,0-0.1,0l-1.5-1.1c-0.1-0.1-0.2-0.1-0.3-0.2c-0.4-0.3-0.6-0.8-0.7-1.3
					c0-0.5,0.3-0.9,0.7-1.3c0.1-0.1,0.2-0.1,0.3-0.2l1.5-1.1c0,0,0,0,0.1,0c0.2-0.2,0.3-0.3,0.5-0.5c0.2-0.3,0.3-0.6,0.4-0.9l0,0
					c0-0.3,0.1-0.6,0.1-0.9c-0.1-0.6-0.2-1.2-0.6-1.7c-0.2-0.2-0.3-0.4-0.5-0.6c0,0,0,0,0,0c-0.2-0.2-0.3-0.3-0.5-0.4c0,0,0,0,0,0
					c-0.6-0.4-1.4-0.6-2.2-0.4c0,0,0,0,0,0s0,0,0,0c-0.3,0.1-0.6,0.2-0.9,0.4l-1.7,1.2c-0.1,0-0.1,0.1-0.2,0.1
					c-0.5,0.3-1.1,0.4-1.6,0.2c-0.4-0.2-0.7-0.6-0.8-1c-0.2-0.7-0.4-1.4-0.7-2.1c-0.1-0.2-0.2-0.4-0.3-0.6c-0.1-0.1-0.2-0.2-0.2-0.3
					c-0.2-0.2-0.4-0.4-0.7-0.6c-0.3-0.1-0.5-0.3-0.8-0.3c-0.2,0-0.3,0-0.5,0c-0.2,0-0.3,0-0.5,0c-0.3,0-0.5,0.1-0.8,0.2
					c0,0,0,0-0.1,0h0c-0.4,0.1-0.8,0.4-1.2,0.6c0,0,0,0,0,0c-0.7,0.5-1.1,1.3-1.1,2.2c0,0.3,0,0.6,0.1,0.8l0.7,2
					c0,0.1,0.1,0.2,0.1,0.2c0.1,0.4,0,0.9-0.2,1.3c-0.3,0.5-1,0.7-1.5,0.7l-2.1,0c-0.3,0-0.7,0.1-1,0.2c-0.8,0.4-1.5,1.1-1.8,1.9
					c-0.1,0.3-0.2,0.7-0.2,1.1l0,0c0,0.4,0.1,0.7,0.2,1.1c0.3,0.8,0.8,1.6,1.7,1.9c0.3,0.1,0.7,0.2,1,0.2l2.1,0
					c0.6,0,1.2,0.2,1.5,0.7c0.2,0.4,0.3,0.8,0.2,1.3c0,0.1-0.1,0.2-0.1,0.2l-0.7,2c-0.1,0.3-0.1,0.6-0.1,0.8c0,0.9,0.4,1.6,1.1,2.2
					c0,0,0,0,0,0c0.1,0.1,0.2,0.1,0.3,0.2c0.5,0.3,1.1,0.5,1.7,0.6c0.3,0,0.7,0.1,1,0c0.3-0.1,0.6-0.2,0.8-0.3
					c0.3-0.2,0.5-0.4,0.7-0.6c0.1-0.1,0.2-0.2,0.2-0.3c0.1-0.2,0.2-0.4,0.3-0.6c0,0,0.6-2,0.6-2c0.1-0.4,0.5-0.9,0.9-1.1
					c0,0,0,0,0,0c0.5-0.3,1.1-0.2,1.6,0.2c0.1,0,0.1,0.1,0.2,0.1l1.7,1.2c0.3,0.2,0.6,0.3,1,0.4c0.2,0,0.3,0,0.5,0h0
					c0.6,0.2,1.2-0.1,1.7-0.4l0,0c0.1-0.1,0.3-0.2,0.4-0.3c0.2-0.2,0.3-0.3,0.5-0.5c0,0,0,0,0-0.1c0.3-0.3,0.5-0.7,0.6-1.1
					c0,0,0-0.1,0-0.1c0.1-0.2,0.1-0.4,0.1-0.6C311.9,367.5,311.9,367.2,311.9,366.9z"/>
			</g>
			<g>
				<path class="st5" d="M374.5,331.8C374.5,331.8,374.4,331.7,374.5,331.8C374.4,331.7,374.4,331.7,374.5,331.8L374.5,331.8
					c-0.2-0.4-0.3-0.7-0.5-1c-0.2-0.2-0.3-0.4-0.5-0.5c0,0,0,0-0.1,0l-1.5-1.1c-0.1-0.1-0.2-0.1-0.3-0.2c-0.4-0.3-0.6-0.8-0.7-1.3
					c0-0.5,0.3-0.9,0.7-1.3c0.1-0.1,0.2-0.1,0.3-0.2l1.5-1.1c0,0,0,0,0.1,0c0.2-0.2,0.3-0.3,0.5-0.5c0.2-0.3,0.3-0.6,0.4-0.9l0,0
					c0-0.3,0.1-0.6,0.1-0.9c-0.1-0.6-0.2-1.2-0.6-1.7c-0.2-0.2-0.3-0.4-0.5-0.6c0,0,0,0,0,0c-0.2-0.2-0.3-0.3-0.5-0.4c0,0,0,0,0,0
					c-0.6-0.4-1.4-0.6-2.2-0.4c0,0,0,0,0,0c0,0,0,0,0,0c-0.3,0.1-0.6,0.2-0.9,0.4l-1.7,1.2c-0.1,0-0.1,0.1-0.2,0.1
					c-0.5,0.3-1.1,0.4-1.6,0.2c-0.4-0.2-0.7-0.6-0.8-1c-0.2-0.7-0.4-1.4-0.7-2.1c-0.1-0.2-0.2-0.4-0.3-0.6c-0.1-0.1-0.2-0.2-0.2-0.3
					c-0.2-0.2-0.4-0.4-0.7-0.6c-0.3-0.1-0.5-0.3-0.8-0.3c-0.2,0-0.3,0-0.5,0c-0.2,0-0.3,0-0.5,0c-0.3,0-0.5,0.1-0.8,0.2
					c0,0,0,0-0.1,0h0c-0.4,0.1-0.8,0.4-1.2,0.6c0,0,0,0,0,0c-0.7,0.5-1.1,1.3-1.1,2.2c0,0.3,0,0.6,0.1,0.8l0.7,2
					c0,0.1,0.1,0.2,0.1,0.2c0.1,0.4,0,0.9-0.2,1.3c-0.3,0.5-1,0.7-1.5,0.7l-2.1,0c-0.3,0-0.7,0.1-1,0.2c-0.8,0.4-1.5,1.1-1.8,1.9
					c-0.1,0.3-0.2,0.7-0.2,1.1l0,0c0,0.4,0.1,0.7,0.2,1.1c0.3,0.8,0.8,1.6,1.7,1.9c0.3,0.1,0.7,0.2,1,0.2l2.1,0
					c0.6,0,1.2,0.2,1.5,0.7c0.2,0.4,0.3,0.8,0.2,1.3c0,0.1-0.1,0.2-0.1,0.2l-0.7,2c-0.1,0.3-0.1,0.6-0.1,0.8c0,0.9,0.4,1.6,1.1,2.2
					c0,0,0,0,0,0c0.1,0.1,0.2,0.1,0.3,0.2c0.5,0.3,1.1,0.5,1.7,0.6c0.3,0,0.7,0.1,1,0c0.3-0.1,0.6-0.2,0.8-0.3
					c0.3-0.2,0.5-0.4,0.7-0.6c0.1-0.1,0.2-0.2,0.2-0.3c0.1-0.2,0.2-0.4,0.3-0.6c0,0,0.6-2,0.6-2c0.1-0.4,0.5-0.9,0.9-1.1
					c0,0,0,0,0,0c0.5-0.3,1.1-0.2,1.6,0.2c0.1,0,0.1,0.1,0.2,0.1l1.7,1.2c0.3,0.2,0.6,0.3,1,0.4c0.2,0,0.3,0,0.5,0h0
					c0.6,0.2,1.2-0.1,1.7-0.4l0,0c0.1-0.1,0.3-0.2,0.4-0.3c0.2-0.2,0.3-0.3,0.5-0.5c0,0,0,0,0-0.1c0.3-0.3,0.5-0.7,0.6-1.1
					c0,0,0-0.1,0-0.1c0.1-0.2,0.1-0.4,0.1-0.6C374.5,332.3,374.5,332,374.5,331.8z"/>
			</g>
			<g>
				<path class="st5" d="M249.2,331.8C249.2,331.8,249.1,331.7,249.2,331.8C249.1,331.7,249.1,331.7,249.2,331.8L249.2,331.8
					c-0.2-0.4-0.3-0.7-0.5-1c-0.2-0.2-0.3-0.4-0.5-0.5c0,0,0,0-0.1,0l-1.5-1.1c-0.1-0.1-0.2-0.1-0.3-0.2c-0.4-0.3-0.6-0.8-0.7-1.3
					c0-0.5,0.3-0.9,0.7-1.3c0.1-0.1,0.2-0.1,0.3-0.2l1.5-1.1c0,0,0,0,0.1,0c0.2-0.2,0.3-0.3,0.5-0.5c0.2-0.3,0.3-0.6,0.4-0.9l0,0
					c0-0.3,0.1-0.6,0.1-0.9c-0.1-0.6-0.2-1.2-0.6-1.7c-0.2-0.2-0.3-0.4-0.5-0.6c0,0,0,0,0,0c-0.2-0.2-0.3-0.3-0.5-0.4c0,0,0,0,0,0
					c-0.6-0.4-1.4-0.6-2.2-0.4c0,0,0,0,0,0s0,0,0,0c-0.3,0.1-0.6,0.2-0.9,0.4l-1.7,1.2c-0.1,0-0.1,0.1-0.2,0.1
					c-0.5,0.3-1.1,0.4-1.6,0.2c-0.4-0.2-0.7-0.6-0.8-1c-0.2-0.7-0.4-1.4-0.7-2.1c-0.1-0.2-0.2-0.4-0.3-0.6c-0.1-0.1-0.2-0.2-0.2-0.3
					c-0.2-0.2-0.4-0.4-0.7-0.6c-0.3-0.1-0.5-0.3-0.8-0.3c-0.2,0-0.3,0-0.5,0c-0.2,0-0.3,0-0.5,0c-0.3,0-0.5,0.1-0.8,0.2
					c0,0,0,0-0.1,0h0c-0.4,0.1-0.8,0.4-1.2,0.6c0,0,0,0,0,0c-0.7,0.5-1.1,1.3-1.1,2.2c0,0.3,0,0.6,0.1,0.8l0.7,2
					c0,0.1,0.1,0.2,0.1,0.2c0.1,0.4,0,0.9-0.2,1.3c-0.3,0.5-1,0.7-1.5,0.7l-2.1,0c-0.3,0-0.7,0.1-1,0.2c-0.8,0.4-1.5,1.1-1.8,1.9
					c-0.1,0.3-0.2,0.7-0.2,1.1l0,0c0,0.4,0.1,0.7,0.2,1.1c0.3,0.8,0.8,1.6,1.7,1.9c0.3,0.1,0.7,0.2,1,0.2l2.1,0
					c0.6,0,1.2,0.2,1.5,0.7c0.2,0.4,0.3,0.8,0.2,1.3c0,0.1-0.1,0.2-0.1,0.2l-0.7,2c-0.1,0.3-0.1,0.6-0.1,0.8c0,0.9,0.4,1.6,1.1,2.2
					c0,0,0,0,0,0c0.1,0.1,0.2,0.1,0.3,0.2c0.5,0.3,1.1,0.5,1.7,0.6c0.3,0,0.7,0.1,1,0c0.3-0.1,0.6-0.2,0.8-0.3
					c0.3-0.2,0.5-0.4,0.7-0.6c0.1-0.1,0.2-0.2,0.2-0.3c0.1-0.2,0.2-0.4,0.3-0.6c0,0,0.6-2,0.6-2c0.1-0.4,0.5-0.9,0.9-1.1
					c0,0,0,0,0,0c0.5-0.3,1.1-0.2,1.6,0.2c0.1,0,0.1,0.1,0.2,0.1l1.7,1.2c0.3,0.2,0.6,0.3,1,0.4c0.2,0,0.3,0,0.5,0h0
					c0.6,0.2,1.2-0.1,1.7-0.4l0,0c0.1-0.1,0.3-0.2,0.4-0.3c0.2-0.2,0.3-0.3,0.5-0.5c0,0,0,0,0-0.1c0.3-0.3,0.5-0.7,0.6-1.1
					c0,0,0-0.1,0-0.1c0.1-0.2,0.1-0.4,0.1-0.6C249.3,332.3,249.2,332,249.2,331.8z"/>
			</g>
			<g>
				<path class="st3" d="M266,317.1c-0.7-0.6-1.5-0.9-2.5-0.9s-1.8,0.3-2.5,0.9c-0.7,0.6-1,1.4-1,2.3c0,0.9,0.4,1.7,1,2.3
					c0.7,0.6,1.5,0.9,2.5,0.9s1.8-0.3,2.5-0.9c0.7-0.6,1-1.4,1-2.3C267,318.5,266.7,317.7,266,317.1z M265.7,324.6
					c-0.6-0.5-1.3-0.8-2.2-0.8c-0.9,0-1.6,0.3-2.2,0.8c-0.6,0.6-0.9,1.3-0.9,2.1v14.8c0,0.8,0.3,1.5,1,2.1c0.6,0.5,1.4,0.8,2.2,0.8
					c0.9,0,1.6-0.3,2.2-0.8c0.6-0.6,0.9-1.3,0.9-2.1v-14.8C266.6,325.9,266.3,325.2,265.7,324.6z M256.4,340.1
					c-0.3-0.3-0.3-0.4-0.3-0.4c0-0.1,0-0.2,0-0.7v-20.2c0-0.8-0.3-1.5-1-2.1c-0.6-0.5-1.4-0.8-2.2-0.8c-0.9,0-1.7,0.3-2.3,0.8
					c-0.6,0.6-1,1.3-1,2.1v20.6c0,1.1,0.2,1.9,0.4,2.6c0.3,0.7,0.6,1.2,1.1,1.6c0.4,0.4,0.9,0.6,1.4,0.7c0.5,0.1,0.9,0.1,1.3,0.1
					c1,0,1.8-0.2,2.4-0.6c0.7-0.4,1-1.1,1-2c0-0.5-0.1-0.9-0.3-1.1C256.8,340.5,256.7,340.3,256.4,340.1z M285.8,326.7
					c0-0.9-0.3-1.6-0.9-2.1c-0.6-0.5-1.3-0.7-2.1-0.7c-0.6,0-1.2,0.2-1.8,0.5c-0.6,0.4-1,0.9-1.2,1.5l-2,6.3c-0.3,1-0.5,1.9-0.7,2.9
					c-0.2-1-0.4-1.9-0.7-2.9l-2.1-6.3c-0.2-0.6-0.6-1.1-1.2-1.5c-0.6-0.3-1.2-0.5-1.8-0.5c-0.8,0-1.6,0.3-2.2,0.7
					c-0.7,0.5-1,1.2-1,2.1v0.3c0,0.2,0.1,0.4,0.2,0.5l5.3,14.3c0.3,0.9,0.8,1.5,1.3,2c0.6,0.4,1.3,0.6,2.3,0.6
					c0.9,0,1.7-0.2,2.2-0.7c0.5-0.4,1-1.1,1.3-2l5.1-14.2c0.1-0.2,0.1-0.4,0.1-0.5V326.7L285.8,326.7z M352.5,318.8
					C352.5,318.8,352.4,318.8,352.5,318.8C352.4,318.8,352.4,318.8,352.5,318.8L352.5,318.8c-0.2-0.4-0.3-0.7-0.5-1
					c-0.2-0.2-0.3-0.4-0.5-0.5c0,0,0,0-0.1,0l-1.5-1.1c-0.1-0.1-0.2-0.1-0.3-0.2c-0.4-0.3-0.6-0.8-0.7-1.3c0-0.5,0.3-0.9,0.7-1.3
					c0.1-0.1,0.2-0.1,0.3-0.2l1.5-1.1c0,0,0,0,0.1,0c0.2-0.2,0.3-0.3,0.5-0.5c0.2-0.3,0.3-0.6,0.4-0.9l0,0c0-0.3,0.1-0.6,0.1-0.9
					c-0.1-0.6-0.2-1.2-0.6-1.7c-0.2-0.2-0.3-0.4-0.5-0.6c0,0,0,0,0,0c-0.2-0.2-0.3-0.3-0.5-0.4c0,0,0,0,0,0
					c-0.6-0.4-1.4-0.6-2.2-0.4c0,0,0,0,0,0c0,0,0,0,0,0c-0.3,0.1-0.6,0.2-0.9,0.4l-1.7,1.2c-0.1,0-0.1,0.1-0.2,0.1
					c-0.5,0.3-1.1,0.4-1.6,0.2c-0.4-0.2-0.7-0.6-0.8-1c-0.2-0.7-0.4-1.4-0.7-2.1c-0.1-0.2-0.2-0.4-0.3-0.6c-0.1-0.1-0.2-0.2-0.2-0.3
					c-0.2-0.2-0.4-0.4-0.7-0.6c-0.3-0.1-0.5-0.3-0.8-0.3c-0.2,0-0.3,0-0.5,0c-0.2,0-0.3,0-0.5,0c-0.3,0-0.5,0.1-0.8,0.2
					c0,0,0,0-0.1,0h0c-0.4,0.1-0.8,0.4-1.2,0.6c0,0,0,0,0,0c-0.7,0.5-1.1,1.3-1.1,2.2c0,0.3,0,0.6,0.1,0.8l0.7,2
					c0,0.1,0.1,0.2,0.1,0.2c0.1,0.4,0,0.9-0.2,1.3c-0.3,0.5-1,0.7-1.5,0.7l-2.1,0c-0.3,0-0.7,0.1-1,0.2c-0.8,0.4-1.5,1.1-1.8,1.9
					c-0.1,0.3-0.2,0.7-0.2,1.1l0,0c0,0.4,0.1,0.7,0.2,1.1c0.3,0.8,0.8,1.6,1.7,1.9c0.3,0.1,0.7,0.2,1,0.2l2.1,0
					c0.6,0,1.2,0.2,1.5,0.7c0.2,0.4,0.3,0.8,0.2,1.3c0,0.1-0.1,0.2-0.1,0.2l-0.7,2c-0.1,0.3-0.1,0.6-0.1,0.8c0,0.9,0.4,1.6,1.1,2.2
					c0,0,0,0,0,0c0.1,0.1,0.2,0.1,0.3,0.2c0.5,0.3,1.1,0.5,1.7,0.6c0.3,0,0.7,0.1,1,0c0.3-0.1,0.6-0.2,0.8-0.3
					c0.3-0.2,0.5-0.4,0.7-0.6c0.1-0.1,0.2-0.2,0.2-0.3c0.1-0.2,0.2-0.4,0.3-0.6c0,0,0.6-2,0.6-2c0.1-0.4,0.5-0.9,0.9-1.1
					c0,0,0,0,0,0c0.5-0.3,1.1-0.2,1.6,0.2c0.1,0,0.1,0.1,0.2,0.1l1.7,1.2c0.3,0.2,0.6,0.3,1,0.4c0.2,0,0.3,0,0.5,0h0
					c0.6,0.2,1.2-0.1,1.7-0.4l0,0c0.1-0.1,0.3-0.2,0.4-0.3c0.2-0.2,0.3-0.3,0.5-0.5c0,0,0,0,0-0.1c0.3-0.3,0.5-0.7,0.6-1.1
					c0,0,0-0.1,0-0.1c0.1-0.2,0.1-0.4,0.1-0.6C352.5,319.4,352.5,319.1,352.5,318.8z M330.5,324.6c-0.6-0.5-1.4-0.8-2.2-0.8
					c-0.6,0-1.2,0.2-1.8,0.4c-0.6,0.3-1,0.8-1.3,1.5l-2,6.3c-0.2,0.6-0.4,1.2-0.5,1.9c-0.2-0.7-0.4-1.3-0.6-1.9l-2.3-6.3
					c-0.3-0.6-0.7-1.2-1.2-1.5c-0.5-0.3-1.1-0.5-1.7-0.5c-0.9,0-1.6,0.3-2.2,0.7c-0.6,0.5-1,1.2-1,2.1c0,0.2,0,0.3,0.1,0.5
					c0,0.2,0.1,0.4,0.2,0.6l5.7,14.7c-0.4,1.3-0.8,2.2-1.3,2.8c-0.4,0.5-0.9,0.8-1.5,0.8c-0.9,0.1-1.7,0.4-2.2,0.9
					c-0.5,0.5-0.8,1.2-0.8,1.9c0,0.8,0.3,1.5,1,2.1c0.6,0.5,1.4,0.8,2.3,0.8c1.5,0,2.8-0.3,3.8-0.8c1-0.6,1.9-1.3,2.6-2.3
					c0.7-1,1.3-2.1,1.8-3.4c0.5-1.3,1-2.7,1.5-4.2l4.6-13.4c0.1-0.3,0.2-0.5,0.2-0.9C331.5,325.8,331.2,325.1,330.5,324.6z
					 M294.1,336.9c0.5,0,1,0.1,1.5,0.1c2.7,0,4.7-0.6,6-1.6c1.3-1.1,1.9-2.7,1.9-4.7c0-2.1-0.7-3.8-2-5c-1.3-1.3-3.3-1.9-6-1.9
					c-1.4,0-2.6,0.2-3.7,0.5c-1.1,0.4-2,0.9-2.7,1.5c-0.7,0.7-1.4,1.4-1.7,2.3c-0.4,0.9-0.6,1.9-0.6,2.9v6.3c0,1,0.3,2,0.6,2.8
					c0.4,0.9,1,1.6,1.7,2.3c0.7,0.6,1.6,1.1,2.7,1.5c1,0.4,2.2,0.5,3.5,0.5c0.6,0,1.4-0.1,2.2-0.2c0.9-0.1,1.7-0.3,2.5-0.5
					c0.8-0.3,1.5-0.6,2.1-1.1c0.7-0.5,1-1.2,1-2.1c0-0.3-0.1-0.6-0.1-0.9c-0.1-0.3-0.3-0.6-0.5-0.9c-0.2-0.3-0.5-0.5-0.9-0.7
					c-0.4-0.2-0.8-0.3-1.4-0.3c-0.4,0-0.7,0-0.9,0.1c-0.2,0.1-0.4,0.1-0.5,0.2c-0.6,0.3-1.1,0.4-1.6,0.6c-0.5,0.1-1,0.2-1.5,0.2
					c-0.9,0-1.5-0.2-1.9-0.4c-0.3-0.3-0.5-0.6-0.5-1.1v-0.6C293.6,336.9,293.9,336.9,294.1,336.9z M293.3,330.7c0-0.6,0.2-1,0.5-1.3
					c0.4-0.3,0.9-0.5,1.7-0.5c0.6,0,1,0.1,1.3,0.4c0.2,0.2,0.4,0.6,0.4,1.2c0,0.6-0.1,1-0.4,1.2c-0.3,0.2-0.8,0.3-1.4,0.3
					c-0.2,0-0.5,0-1,0c-0.3,0-0.8,0-1.1-0.1V330.7z M312.4,340.1c-0.3-0.3-0.3-0.4-0.4-0.4c0-0.1-0.1-0.2-0.1-0.7v-20.2
					c0-0.8-0.3-1.5-0.9-2.1c-0.6-0.5-1.4-0.8-2.2-0.8c-0.9,0-1.7,0.3-2.3,0.8c-0.6,0.6-1,1.3-1,2.1v20.6c0,1.1,0.2,1.9,0.5,2.6
					c0.3,0.7,0.6,1.2,1.1,1.6c0.4,0.4,0.9,0.6,1.5,0.7c0.5,0.1,0.9,0.1,1.3,0.1c1,0,1.8-0.2,2.4-0.6c0.7-0.4,1-1.1,1-2
					c0-0.5-0.1-0.9-0.3-1.1C312.8,340.5,312.6,340.3,312.4,340.1z"/>
			</g>
			<g>
				<g>
					<path class="st2" d="M353,303c0-7,0-14.2,0-21.5c0-0.1-0.4,0.5,0.2,0.5c0.7,0,1.5,0,2.2,0c2.3,0,4.6,0,6.9,0c4,0,8.1,0,12.1,0
						c-0.5,0-0.5,1.5-0.5,2.4c0,2.3,0,4.7,0,7c0,3.9,0,7.9,0,11.8c0-0.5-1.7-0.3-2.7-0.3c-2.4,0-4.8,0-7.2,0
						C360.4,303,357,303,353,303c-1,0-1,1,0,1c7,0,14.3,0,21.5,0c0.2,0,0.5-0.5,0.5-0.7c0-7.3,0-14.7,0-22c0-0.2-0.3-0.3-0.5-0.3
						c-7.2,0-14.5,0-21.7,0c-0.2,0,0.2,0.2,0.2,0.3C353,288.7,353,296,353,303C353,304,353,304,353,303z"/>
				</g>
			</g>
			<g>
				<g>
					<path class="st2" d="M228,374c0-7,0-14.4,0-21.7c0-0.1-0.7-0.3-0.1-0.3c0.7,0,1.5,0,2.2,0c2.3,0,4.7,0,7,0c4.1,0,8.2,0,12.2,0
						c-0.5,0-0.4,2.3-0.4,3.3c0,2.4,0,4.7,0,7.1c0,4,0,8,0,11.9c0-0.5-1.8-0.3-2.8-0.3c-2.4,0-4.8,0-7.2,0
						C235.1,374,231,374,228,374c-1,0-1,1,0,1c7,0,14.1,0,21.4,0c0.2,0,0.6-0.5,0.6-0.7c0-7.4,0-14.8,0-22.2c0-0.2-0.4-0.1-0.6-0.1
						c-7.3,0-14.6,0-21.9,0c-0.2,0-0.5,0-0.5,0.1c0,7.4,0,14.9,0,21.9C227,375,228,375,228,374z"/>
				</g>
			</g>
		</g>
		<g>
			<g>
				<path class="st3" d="M352.7,400.1c-34.4,0-68.9,0-103.3,0c-1,0-1,1.5,0,1.5c34.4,0,68.9,0,103.3,0
					C353.7,401.6,353.7,400.1,352.7,400.1L352.7,400.1z"/>
			</g>
		</g>
		<g>
			<path class="st0" d="M263.5,425.8c0.2,0.8,0.4,1.6,0.5,2.4s0.2,1.6,0.4,2.4c0.2-0.8,0.3-1.6,0.4-2.4s0.3-1.6,0.5-2.4l1.9-7.4
				c0.1-0.5,0.3-0.8,0.7-1.1c0.3-0.3,0.7-0.4,1.2-0.4c0.3,0,0.5,0,0.8,0.1s0.5,0.2,0.7,0.3c0.2,0.1,0.4,0.3,0.6,0.6
				c0.1,0.2,0.2,0.5,0.2,0.8c0,0,0,0.1,0,0.1s0,0.1-0.1,0.2l-4.3,16.9c-0.2,0.5-0.4,0.9-0.8,1.3c-0.4,0.4-0.9,0.6-1.6,0.6
				c-0.7,0-1.2-0.2-1.6-0.6s-0.6-0.8-0.8-1.3l-1.7-7.1c-0.2-0.8-0.3-1.5-0.4-2.3c-0.1-0.8-0.2-1.6-0.3-2.3c-0.1,0.8-0.3,1.6-0.3,2.3
				c-0.1,0.8-0.2,1.6-0.4,2.3L257,436c-0.1,0.2-0.1,0.4-0.3,0.6c-0.1,0.2-0.3,0.4-0.4,0.6c-0.2,0.2-0.4,0.3-0.7,0.4
				c-0.3,0.1-0.6,0.2-1,0.2c-0.6,0-1.1-0.2-1.6-0.6c-0.4-0.4-0.7-0.8-0.9-1.2l-4.3-16.8c0-0.1,0-0.2-0.1-0.4c0-0.1,0-0.1,0-0.2
				c0-0.3,0.1-0.5,0.2-0.7c0.1-0.2,0.3-0.4,0.5-0.6c0.2-0.2,0.4-0.3,0.7-0.3c0.3-0.1,0.5-0.1,0.8-0.1c0.4,0,0.8,0.1,1.2,0.3
				c0.4,0.2,0.6,0.6,0.7,1.1l1.9,7.5c0.2,0.8,0.4,1.6,0.5,2.4c0.1,0.8,0.2,1.6,0.4,2.4c0.2-0.8,0.3-1.6,0.4-2.4s0.2-1.6,0.4-2.4
				l1.7-6.8c0.2-0.7,0.4-1.2,0.7-1.6s0.8-0.6,1.6-0.6c0.7,0,1.3,0.2,1.6,0.6s0.6,0.9,0.7,1.6L263.5,425.8z"/>
			<path class="st0" d="M278.5,432c-0.4,0-0.7,0-1.1,0c-0.3,0-0.7-0.1-1.1-0.1v1c0,0.5,0.2,0.9,0.6,1.2c0.4,0.3,1,0.4,1.8,0.4
				c0.5,0,0.9-0.1,1.3-0.2c0.4-0.1,0.8-0.3,1.3-0.5c0.1,0,0.2-0.1,0.3-0.1c0.1,0,0.3-0.1,0.6-0.1c0.3,0,0.6,0.1,0.9,0.2
				c0.2,0.1,0.4,0.2,0.6,0.4c0.1,0.2,0.2,0.3,0.3,0.5c0.1,0.2,0.1,0.4,0.1,0.5c0,0.5-0.2,0.9-0.6,1.2c-0.4,0.3-0.9,0.6-1.5,0.8
				s-1.2,0.3-1.8,0.4c-0.6,0.1-1.2,0.1-1.7,0.1c-1,0-1.8-0.1-2.6-0.4c-0.7-0.3-1.4-0.6-1.9-1.1c-0.5-0.5-0.9-1-1.2-1.6
				c-0.3-0.6-0.4-1.3-0.4-2v-4.8c0-0.7,0.1-1.4,0.4-2c0.3-0.6,0.7-1.2,1.2-1.6c0.5-0.5,1.2-0.8,1.9-1.1c0.8-0.3,1.7-0.4,2.7-0.4
				c1.9,0,3.3,0.5,4.3,1.4c0.9,0.9,1.4,2.1,1.4,3.6c0,1.4-0.4,2.5-1.3,3.2C281.9,431.6,280.5,432,278.5,432z M280.2,427.3
				c0-0.6-0.2-1-0.5-1.2c-0.3-0.2-0.7-0.4-1.3-0.4c-0.7,0-1.2,0.2-1.6,0.5c-0.4,0.3-0.6,0.8-0.6,1.4v1.2c0.5,0,0.9,0.1,1.3,0.1
				c0.4,0,0.7,0,0.8,0c0.6,0,1-0.1,1.3-0.3C280,428.4,280.2,428,280.2,427.3z"/>
			<path class="st0" d="M286.8,418.3c0-0.5,0.2-0.9,0.5-1.2s0.8-0.5,1.5-0.5c0.6,0,1.1,0.2,1.5,0.5s0.5,0.8,0.5,1.2v5.1
				c0.5-0.3,0.9-0.5,1.4-0.6c0.5-0.1,1.1-0.2,1.7-0.2c0.9,0,1.7,0.1,2.4,0.4c0.6,0.2,1.2,0.6,1.6,1c0.4,0.4,0.7,0.9,0.9,1.5
				s0.3,1.2,0.3,1.9v4.9c0,0.8-0.1,1.5-0.4,2.1s-0.6,1.2-1.2,1.7c-0.5,0.5-1.2,0.9-1.9,1.1c-0.8,0.3-1.7,0.4-2.7,0.4
				c-1,0-1.9-0.1-2.6-0.4s-1.4-0.6-1.9-1c-0.5-0.4-0.9-1-1.2-1.6s-0.4-1.2-0.4-1.9V418.3z M290.8,432.8c0,0.5,0.2,1,0.6,1.3
				c0.4,0.3,0.9,0.5,1.6,0.5c0.7,0,1.3-0.2,1.6-0.5c0.3-0.3,0.5-0.8,0.5-1.5v-5.3c0-0.5-0.2-0.9-0.5-1.2c-0.3-0.3-0.8-0.4-1.5-0.4
				c-1,0-1.8,0.3-2.3,0.8V432.8z"/>
			<path class="st0" d="M308.1,426.8c0,0.6-0.2,1.2-0.7,1.6c-0.5,0.4-1,0.7-1.7,0.7c-0.3,0-0.7-0.1-1-0.2c-0.3-0.1-0.5-0.3-0.8-0.5
				c-0.2-0.2-0.4-0.4-0.5-0.7c-0.1-0.3-0.2-0.6-0.2-0.9s0.1-0.6,0.2-0.9c0.1-0.3,0.3-0.5,0.5-0.7c0.2-0.2,0.5-0.4,0.8-0.5
				s0.6-0.2,1-0.2c0.7,0,1.2,0.2,1.7,0.7C307.8,425.7,308.1,426.2,308.1,426.8z M308.1,435.5c0,0.6-0.2,1.2-0.7,1.6
				c-0.5,0.4-1,0.7-1.7,0.7c-0.3,0-0.7-0.1-1-0.2s-0.5-0.3-0.8-0.5c-0.2-0.2-0.4-0.4-0.5-0.7c-0.1-0.3-0.2-0.6-0.2-0.9
				c0-0.3,0.1-0.6,0.2-0.9c0.1-0.3,0.3-0.5,0.5-0.7c0.2-0.2,0.5-0.4,0.8-0.5c0.3-0.1,0.6-0.2,1-0.2c0.7,0,1.2,0.2,1.7,0.7
				C307.8,434.4,308.1,434.9,308.1,435.5z"/>
			<path class="st0" d="M326.2,419.8l-3.6,2.3c-0.2,0.1-0.4,0.3-0.6,0.4c-0.2,0.1-0.4,0.2-0.6,0.2c-0.3,0-0.5-0.1-0.7-0.3
				c-0.2-0.2-0.3-0.4-0.3-0.7c0-0.4,0.2-0.8,0.5-1l5.7-3.7c0.2-0.1,0.4-0.2,0.7-0.2c0.3,0,0.6,0.1,0.9,0.4c0.2,0.2,0.4,0.5,0.4,0.9
				v18.6c0,0.3-0.1,0.6-0.3,0.8c-0.2,0.2-0.5,0.3-0.8,0.3c-0.3,0-0.6-0.1-0.8-0.3c-0.2-0.2-0.3-0.5-0.3-0.8V419.8z"/>
			<path class="st0" d="M340,416.5c1,0,1.9,0.2,2.6,0.5c0.7,0.3,1.3,0.8,1.8,1.4c0.5,0.6,0.8,1.3,1.1,2.1c0.2,0.8,0.3,1.7,0.3,2.6
				v8.6c0,0.9-0.1,1.6-0.4,2.4c-0.3,0.7-0.6,1.4-1.1,1.9c-0.5,0.6-1.1,1-1.8,1.3c-0.7,0.3-1.6,0.5-2.5,0.5s-1.8-0.2-2.5-0.5
				c-0.7-0.3-1.3-0.7-1.8-1.3c-0.5-0.6-0.9-1.2-1.1-1.9c-0.3-0.7-0.4-1.5-0.4-2.4v-8.6c0-0.9,0.1-1.8,0.3-2.6
				c0.2-0.8,0.6-1.5,1.1-2.1c0.5-0.6,1.1-1.1,1.8-1.4C338.1,416.6,339,416.5,340,416.5z M340,418.6c-0.6,0-1.2,0.1-1.6,0.3
				c-0.4,0.2-0.8,0.5-1.1,0.9s-0.5,0.8-0.6,1.4c-0.1,0.5-0.2,1.1-0.2,1.7v8.9c0,1.2,0.3,2.1,0.9,2.8c0.6,0.7,1.5,1.1,2.6,1.1
				s2-0.4,2.6-1.1s0.9-1.7,0.9-2.8v-8.9c0-0.6-0.1-1.2-0.2-1.7c-0.1-0.5-0.3-1-0.6-1.4c-0.3-0.4-0.6-0.7-1.1-0.9
				C341.2,418.7,340.7,418.6,340,418.6z"/>
			<path class="st0" d="M354.5,416.5c1,0,1.9,0.2,2.6,0.5c0.7,0.3,1.3,0.8,1.8,1.4c0.5,0.6,0.8,1.3,1.1,2.1c0.2,0.8,0.3,1.7,0.3,2.6
				v8.6c0,0.9-0.1,1.6-0.4,2.4c-0.3,0.7-0.6,1.4-1.1,1.9c-0.5,0.6-1.1,1-1.8,1.3c-0.7,0.3-1.6,0.5-2.5,0.5s-1.8-0.2-2.5-0.5
				c-0.7-0.3-1.3-0.7-1.8-1.3c-0.5-0.6-0.9-1.2-1.1-1.9c-0.3-0.7-0.4-1.5-0.4-2.4v-8.6c0-0.9,0.1-1.8,0.3-2.6
				c0.2-0.8,0.6-1.5,1.1-2.1c0.5-0.6,1.1-1.1,1.8-1.4C352.6,416.6,353.5,416.5,354.5,416.5z M354.5,418.6c-0.6,0-1.2,0.1-1.6,0.3
				c-0.4,0.2-0.8,0.5-1.1,0.9s-0.5,0.8-0.6,1.4c-0.1,0.5-0.2,1.1-0.2,1.7v8.9c0,1.2,0.3,2.1,0.9,2.8c0.6,0.7,1.5,1.1,2.6,1.1
				s2-0.4,2.6-1.1s0.9-1.7,0.9-2.8v-8.9c0-0.6-0.1-1.2-0.2-1.7c-0.1-0.5-0.3-1-0.6-1.4c-0.3-0.4-0.6-0.7-1.1-0.9
				C355.7,418.7,355.2,418.6,354.5,418.6z"/>
			<path class="st0" d="M382.1,436c0.1,0.2,0.1,0.3,0.1,0.5c0,0.3-0.1,0.6-0.3,0.8s-0.5,0.3-0.8,0.3c-0.3,0-0.5-0.1-0.6-0.2
				c-0.1-0.1-0.3-0.3-0.5-0.6l-3.3-5l-3.4,5.2c-0.3,0.4-0.6,0.6-0.9,0.6c-0.3,0-0.6-0.1-0.8-0.3c-0.2-0.2-0.3-0.5-0.3-0.8
				c0-0.2,0-0.3,0.1-0.5l4.1-6l-3.8-5.7c-0.1-0.1-0.2-0.3-0.2-0.5c0-0.3,0.1-0.6,0.3-0.8c0.2-0.2,0.5-0.3,0.8-0.3s0.6,0.1,0.8,0.3
				s0.4,0.4,0.5,0.7l2.9,4.5l3-4.7c0.2-0.2,0.3-0.4,0.4-0.6c0.1-0.1,0.4-0.2,0.6-0.2c0.3,0,0.5,0.1,0.8,0.3s0.3,0.5,0.3,0.8
				c0,0.1,0,0.2,0,0.3c0,0.1-0.1,0.2-0.1,0.3l-3.8,5.7L382.1,436z"/>
			<path class="st0" d="M403.4,436.6c0,0.3-0.1,0.6-0.3,0.8c-0.2,0.2-0.5,0.3-0.8,0.3c-0.3,0-0.6-0.1-0.8-0.3
				c-0.2-0.2-0.3-0.5-0.3-0.8v-3.5h-7.2c-0.3,0-0.6-0.1-0.9-0.4c-0.2-0.3-0.3-0.5-0.3-0.9c0,0,0-0.1,0.1-0.3c0-0.2,0.1-0.3,0.2-0.5
				l5.6-13.9c0.1-0.2,0.2-0.4,0.4-0.5s0.4-0.2,0.6-0.2c0.3,0,0.5,0.1,0.8,0.3c0.2,0.2,0.4,0.5,0.4,0.8c0,0.1,0,0.1,0,0.2
				s0,0.1-0.1,0.2l-5.2,12.9h5.8v-5.7c0-0.3,0.1-0.6,0.3-0.8c0.2-0.2,0.5-0.3,0.8-0.3c0.3,0,0.6,0.1,0.8,0.3
				c0.2,0.2,0.3,0.5,0.3,0.8v5.7h1.2c0.3,0,0.6,0.1,0.8,0.3s0.3,0.5,0.3,0.8c0,0.3-0.1,0.6-0.3,0.8s-0.5,0.3-0.8,0.3h-1.2V436.6z"/>
			<path class="st0" d="M409.8,426.2c0.6-0.5,1.2-0.9,1.9-1.1s1.4-0.3,2-0.3c0.8,0,1.6,0.1,2.3,0.4c0.7,0.3,1.3,0.7,1.8,1.2
				c0.5,0.5,0.9,1.2,1.2,2s0.5,1.7,0.5,2.7c0,0.9-0.1,1.8-0.4,2.6s-0.6,1.5-1.1,2.1s-1.1,1.1-1.9,1.4c-0.8,0.4-1.6,0.5-2.7,0.5
				c-1.2,0-2.2-0.2-2.9-0.7c-0.8-0.5-1.4-1.2-1.9-2.1c-0.5-0.9-0.8-1.9-1-3.1s-0.3-2.5-0.3-4c0-3.6,0.5-6.3,1.6-8.2s2.6-2.9,4.8-2.9
				c0.3,0,0.6,0,1.1,0.1s1,0.1,1.5,0.2c0.5,0.1,0.9,0.3,1.3,0.5c0.4,0.2,0.6,0.5,0.6,0.8c0,0.3-0.1,0.5-0.3,0.7s-0.4,0.3-0.7,0.3
				c-0.1,0-0.3,0-0.6-0.1c-0.3-0.1-0.7-0.2-1.1-0.3s-0.8-0.1-1.3-0.1c-0.9,0-1.6,0.2-2.2,0.6c-0.6,0.4-1,0.9-1.3,1.6
				c-0.3,0.7-0.6,1.4-0.7,2.3C409.8,424.2,409.8,425.2,409.8,426.2z M409.7,429.3c0,0.8,0.1,1.6,0.2,2.3c0.1,0.7,0.3,1.4,0.6,2
				s0.7,1,1.2,1.4s1.2,0.5,2,0.5c0.7,0,1.2-0.1,1.7-0.4c0.5-0.2,0.8-0.6,1.1-1s0.5-0.9,0.6-1.4c0.1-0.5,0.2-1.1,0.2-1.6
				c0-1.4-0.3-2.5-1-3.1c-0.7-0.7-1.5-1-2.6-1c-0.8,0-1.6,0.2-2.3,0.5c-0.7,0.3-1.2,0.7-1.6,1.2V429.3z"/>
			<path class="st0" d="M425.6,436.2c0,0.4-0.2,0.8-0.4,1.1c-0.3,0.3-0.7,0.5-1.1,0.5c-0.4,0-0.8-0.2-1.1-0.5
				c-0.3-0.3-0.5-0.7-0.5-1.1c0-0.4,0.2-0.8,0.5-1.1c0.3-0.3,0.7-0.4,1.1-0.4c0.4,0,0.8,0.1,1.1,0.4
				C425.4,435.4,425.6,435.8,425.6,436.2z"/>
			<path class="st0" d="M441,431.8c0,0.9-0.2,1.6-0.5,2.4c-0.3,0.7-0.8,1.4-1.3,1.9c-0.6,0.5-1.2,0.9-2,1.2
				c-0.8,0.3-1.6,0.4-2.6,0.4c-0.9,0-1.8-0.1-2.6-0.4c-0.8-0.3-1.5-0.7-2-1.2c-0.6-0.5-1-1.1-1.3-1.8c-0.3-0.7-0.5-1.5-0.5-2.3
				c0-1.3,0.3-2.4,1-3.2c0.7-0.8,1.5-1.5,2.5-2.1c-0.8-0.5-1.5-1.1-2-1.9s-0.8-1.7-0.8-2.8c0-0.8,0.1-1.5,0.4-2.1
				c0.3-0.6,0.7-1.2,1.2-1.6c0.5-0.5,1.1-0.8,1.8-1c0.7-0.2,1.4-0.4,2.2-0.4c0.8,0,1.5,0.1,2.2,0.4c0.7,0.3,1.3,0.6,1.8,1.1
				c0.5,0.5,0.9,1,1.2,1.6s0.4,1.3,0.4,2.1c0,1-0.2,1.9-0.7,2.6c-0.5,0.8-1.2,1.4-2.1,2c1,0.5,1.9,1.2,2.5,2.1
				C440.7,429.4,441,430.5,441,431.8z M438.7,431.8c0-0.6-0.1-1.1-0.4-1.6c-0.2-0.5-0.6-0.9-0.9-1.2c-0.4-0.3-0.8-0.6-1.3-0.8
				s-1-0.4-1.6-0.5c-0.6,0.1-1.1,0.3-1.6,0.5c-0.5,0.2-0.9,0.5-1.3,0.9c-0.4,0.3-0.7,0.8-0.9,1.2s-0.3,1-0.3,1.5
				c0,0.6,0.1,1.1,0.3,1.5c0.2,0.5,0.5,0.9,0.9,1.2c0.4,0.3,0.8,0.6,1.3,0.8c0.5,0.2,1.1,0.3,1.6,0.3c0.6,0,1.2-0.1,1.7-0.3
				c0.5-0.2,0.9-0.5,1.3-0.8s0.7-0.8,0.9-1.2C438.6,432.9,438.7,432.4,438.7,431.8z M438,422c0-0.5-0.1-0.9-0.3-1.3s-0.4-0.7-0.7-1
				c-0.3-0.3-0.7-0.5-1.1-0.7c-0.4-0.2-0.9-0.2-1.3-0.2s-0.9,0.1-1.4,0.2c-0.4,0.2-0.8,0.4-1.1,0.7c-0.3,0.3-0.6,0.6-0.7,1
				c-0.2,0.4-0.3,0.8-0.3,1.3c0,0.5,0.1,1,0.3,1.3s0.4,0.7,0.8,1s0.7,0.6,1.1,0.8c0.4,0.2,0.9,0.3,1.3,0.4c0.9-0.2,1.7-0.6,2.4-1.2
				C437.7,423.7,438,423,438,422z"/>
			<path class="st0" d="M458.3,437.7c-0.5,0-1,0-1.6-0.1c-0.6-0.1-1.1-0.2-1.6-0.4v5.5c0,0.3-0.1,0.6-0.3,0.8s-0.5,0.3-0.8,0.3
				c-0.4,0-0.6-0.1-0.8-0.3c-0.2-0.2-0.3-0.5-0.3-0.8v-15.8c0-0.5,0-0.9-0.1-1.2c-0.1-0.3-0.2-0.6-0.4-0.9c-0.1-0.1-0.1-0.2-0.1-0.3
				c0-0.1-0.1-0.2-0.1-0.3c0-0.3,0.1-0.6,0.3-0.7s0.4-0.3,0.7-0.3c0.2,0,0.4,0.1,0.6,0.2c0.2,0.1,0.4,0.3,0.5,0.5
				c0.7-0.3,1.3-0.6,2-0.9c0.7-0.3,1.4-0.4,2.2-0.4c1.5,0,2.7,0.5,3.5,1.5c0.8,1,1.2,2.3,1.2,4v3.8c0,0.9-0.1,1.7-0.2,2.4
				c-0.2,0.7-0.4,1.3-0.8,1.8s-0.9,0.9-1.5,1.2C460,437.6,459.2,437.7,458.3,437.7z M455.1,435.1c0.5,0.2,1,0.4,1.5,0.5
				c0.6,0.1,1,0.1,1.4,0.1c1.1,0,1.8-0.3,2.2-0.9c0.4-0.6,0.6-1.6,0.6-3v-3.8c0-2.3-0.9-3.5-2.8-3.5c-0.5,0-1,0.1-1.6,0.3
				c-0.5,0.2-1.1,0.4-1.6,0.7c0.1,0.5,0.1,0.9,0.1,1.2V435.1z"/>
			<path class="st0" d="M469.4,418.1c0,0.4-0.1,0.7-0.4,1c-0.3,0.3-0.6,0.4-1,0.4s-0.7-0.1-1-0.4c-0.3-0.3-0.4-0.6-0.4-1
				s0.1-0.7,0.4-1c0.3-0.3,0.6-0.4,1-0.4s0.7,0.1,1,0.4C469.2,417.4,469.4,417.7,469.4,418.1z M469.1,436.6c0,0.3-0.1,0.6-0.3,0.8
				s-0.5,0.3-0.8,0.3c-0.3,0-0.6-0.1-0.8-0.3s-0.3-0.5-0.3-0.8v-12.8c0-0.3,0.1-0.6,0.3-0.8s0.5-0.3,0.8-0.3c0.3,0,0.6,0.1,0.8,0.3
				s0.3,0.5,0.3,0.8V436.6z"/>
			<path class="st0" d="M483.2,436c0.1,0.2,0.1,0.3,0.1,0.5c0,0.3-0.1,0.6-0.3,0.8s-0.5,0.3-0.8,0.3c-0.3,0-0.5-0.1-0.6-0.2
				c-0.1-0.1-0.3-0.3-0.5-0.6l-3.3-5l-3.4,5.2c-0.3,0.4-0.6,0.6-0.9,0.6c-0.3,0-0.6-0.1-0.8-0.3c-0.2-0.2-0.3-0.5-0.3-0.8
				c0-0.2,0-0.3,0.1-0.5l4.1-6l-3.8-5.7c-0.1-0.1-0.2-0.3-0.2-0.5c0-0.3,0.1-0.6,0.3-0.8c0.2-0.2,0.5-0.3,0.8-0.3s0.6,0.1,0.8,0.3
				s0.4,0.4,0.5,0.7l2.9,4.5l3-4.7c0.2-0.2,0.3-0.4,0.4-0.6c0.1-0.1,0.4-0.2,0.6-0.2c0.3,0,0.5,0.1,0.8,0.3s0.3,0.5,0.3,0.8
				c0,0.1,0,0.2,0,0.3c0,0.1-0.1,0.2-0.1,0.3l-3.8,5.7L483.2,436z"/>
			<path class="st0" d="M490.6,435.7c0.6,0,1.2-0.1,1.6-0.2c0.4-0.2,0.9-0.3,1.4-0.6c0,0,0.1,0,0.2-0.1c0.1,0,0.1,0,0.2,0
				c0.3,0,0.5,0.1,0.7,0.3c0.2,0.2,0.3,0.4,0.3,0.7c0,0.3-0.2,0.6-0.5,0.9s-0.8,0.4-1.2,0.6c-0.5,0.1-1,0.3-1.6,0.3
				c-0.5,0.1-1,0.1-1.4,0.1c-0.8,0-1.5-0.1-2.2-0.4c-0.6-0.2-1.2-0.6-1.6-1c-0.4-0.4-0.8-0.9-1-1.5c-0.2-0.6-0.3-1.2-0.3-1.9v-5.4
				c0-0.7,0.1-1.3,0.3-1.9c0.2-0.6,0.6-1.1,1-1.6c0.4-0.4,1-0.8,1.7-1c0.7-0.3,1.4-0.4,2.3-0.4c1.6,0,2.8,0.4,3.6,1.3
				c0.8,0.9,1.2,2,1.2,3.5c0,1.3-0.4,2.4-1.1,3.1s-2,1.1-3.8,1.1c-0.4,0-0.9,0-1.4-0.1c-0.5,0-1-0.1-1.5-0.2v1.7
				c0,0.8,0.3,1.5,0.8,1.9C488.7,435.5,489.5,435.7,490.6,435.7z M493,427.3c0-0.9-0.2-1.6-0.7-2c-0.5-0.4-1.1-0.6-2-0.6
				c-0.9,0-1.7,0.2-2.2,0.7c-0.5,0.5-0.8,1.1-0.8,1.9v2.2c0.5,0.1,1.1,0.1,1.7,0.2c0.6,0,1,0,1.3,0c0.5,0,1-0.1,1.3-0.2
				c0.3-0.1,0.6-0.3,0.8-0.5s0.3-0.5,0.4-0.8C493,427.9,493,427.6,493,427.3z"/>
			<path class="st0" d="M498.2,417.6c0-0.3,0.1-0.6,0.3-0.8s0.5-0.3,0.8-0.3c0.3,0,0.6,0.1,0.8,0.3s0.3,0.5,0.3,0.8v17.2
				c0,0.3,0,0.6,0.1,0.8c0,0.2,0.2,0.4,0.3,0.6c0,0.1,0.1,0.1,0.1,0.2s0.1,0.2,0.1,0.3c0,0.3-0.1,0.5-0.3,0.7
				c-0.2,0.2-0.5,0.3-0.7,0.3c-0.2,0-0.4,0-0.6-0.1c-0.2-0.1-0.4-0.2-0.6-0.4c-0.2-0.2-0.3-0.5-0.5-0.9c-0.1-0.4-0.2-0.9-0.2-1.6
				V417.6z"/>
			<path class="st0" d="M504.2,426.8c0-1.3,0.4-2.3,1.2-3s2-1.1,3.5-1.1c0.4,0,0.8,0,1.2,0.1c0.5,0.1,0.9,0.2,1.3,0.3
				c0.4,0.1,0.7,0.3,1,0.5c0.3,0.2,0.4,0.5,0.4,0.8c0,0.3-0.1,0.5-0.3,0.7c-0.2,0.2-0.4,0.3-0.8,0.3c-0.2,0-0.3,0-0.5-0.1
				c-0.3-0.2-0.6-0.3-0.9-0.4c-0.3-0.1-0.7-0.1-1.3-0.1c-1.7,0-2.6,0.7-2.6,2c0,0.4,0.1,0.8,0.3,1.1c0.2,0.3,0.6,0.5,1.1,0.8
				c0.5,0.3,1.1,0.5,1.7,0.7c0.6,0.2,1.2,0.5,1.8,0.8c0.6,0.3,1,0.8,1.4,1.3c0.4,0.5,0.6,1.3,0.6,2.2c0,1.3-0.4,2.3-1.2,3.1
				c-0.8,0.8-2,1.1-3.7,1.1c-0.4,0-0.8,0-1.3-0.1c-0.5,0-1-0.1-1.4-0.3c-0.4-0.1-0.8-0.3-1.1-0.5c-0.3-0.2-0.5-0.5-0.5-0.8
				c0-0.3,0.1-0.5,0.3-0.7c0.2-0.2,0.4-0.3,0.8-0.3c0.1,0,0.2,0,0.2,0c0,0,0.1,0,0.1,0c0.4,0.2,0.8,0.3,1.3,0.5
				c0.5,0.1,1,0.2,1.6,0.2c0.8,0,1.5-0.2,1.9-0.5c0.5-0.3,0.7-0.9,0.7-1.6c0-0.5-0.1-0.9-0.3-1.2c-0.2-0.3-0.5-0.5-0.8-0.6
				c-0.5-0.3-1-0.5-1.7-0.7c-0.6-0.2-1.3-0.5-1.9-0.8c-0.6-0.3-1.1-0.8-1.5-1.3S504.2,427.7,504.2,426.8z"/>
			<path class="st0" d="M253.4,465.3v5.3c0,0.5-0.2,0.9-0.6,1.3c-0.4,0.4-0.9,0.6-1.4,0.6c-0.5,0-1-0.2-1.4-0.6
				c-0.4-0.4-0.6-0.8-0.6-1.3v-16.7c0-0.3,0.1-0.6,0.2-0.8c0.1-0.3,0.3-0.5,0.5-0.7s0.4-0.3,0.7-0.5c0.3-0.1,0.6-0.2,0.9-0.2h4.3
				c1.4,0,2.5,0.2,3.5,0.6s1.7,0.9,2.3,1.5c0.6,0.6,1,1.3,1.3,2.2c0.3,0.8,0.4,1.7,0.4,2.6c0,1.1-0.2,2-0.5,2.9
				c-0.3,0.8-0.8,1.5-1.5,2.1c-0.6,0.6-1.4,1-2.3,1.3c-0.9,0.3-1.9,0.4-3,0.4H253.4z M253.4,461.7h2.5c1.1,0,1.9-0.2,2.5-0.7
				s0.8-1.3,0.8-2.3c0-0.4,0-0.7-0.1-1.1s-0.3-0.7-0.5-1c-0.2-0.3-0.6-0.5-1-0.7s-1-0.3-1.7-0.3h-2.5V461.7z"/>
			<path class="st0" d="M272.7,461.1c-0.3,0-0.6,0-0.8,0c-0.2,0-0.5,0-0.7,0c-0.2,0-0.4,0.1-0.6,0.1c-0.2,0-0.4,0.1-0.7,0.2
				c0,0.1,0,0.2,0,0.3c0,0.1,0,0.2,0,0.3v8.8c0,0.5-0.2,0.9-0.6,1.3c-0.4,0.3-0.9,0.5-1.4,0.5c-0.6,0-1-0.2-1.4-0.5
				c-0.4-0.3-0.6-0.8-0.6-1.3v-8.8c0-0.3,0-0.6-0.1-0.8c0-0.2-0.1-0.4-0.2-0.6c-0.1-0.2-0.2-0.3-0.3-0.4c-0.1-0.1-0.1-0.3-0.1-0.5
				c0-0.5,0.2-0.9,0.6-1.3s0.9-0.5,1.4-0.5c0.3,0,0.6,0.1,0.8,0.2c0.3,0.2,0.5,0.4,0.7,0.7c0.7-0.4,1.3-0.7,2-0.9
				c0.6-0.2,1.2-0.3,1.6-0.3c0.9,0,1.5,0.2,1.9,0.5c0.3,0.3,0.5,0.8,0.5,1.2c0,0.6-0.2,1-0.6,1.4C273.7,461,273.3,461.1,272.7,461.1
				z"/>
			<path class="st0" d="M281.5,453.6c0,0.6-0.2,1-0.7,1.4s-1,0.6-1.6,0.6s-1.2-0.2-1.6-0.6c-0.4-0.4-0.7-0.9-0.7-1.4s0.2-1,0.7-1.4
				c0.4-0.4,1-0.6,1.6-0.6s1.2,0.2,1.6,0.6S281.5,453.1,281.5,453.6z M281.2,470.7c0,0.5-0.2,0.9-0.6,1.3c-0.4,0.3-0.9,0.5-1.4,0.5
				c-0.6,0-1-0.2-1.4-0.5c-0.4-0.3-0.6-0.8-0.6-1.3v-11.4c0-0.5,0.2-0.9,0.6-1.2c0.4-0.3,0.9-0.5,1.4-0.5c0.6,0,1,0.2,1.4,0.5
				c0.4,0.3,0.6,0.8,0.6,1.2V470.7z"/>
			<path class="st0" d="M289.3,470.7c0,0.5-0.2,0.9-0.5,1.3c-0.3,0.3-0.8,0.5-1.5,0.5c-0.7,0-1.2-0.2-1.5-0.5
				c-0.3-0.3-0.5-0.8-0.5-1.3v-8.8c0-0.5,0-0.8-0.1-0.9c0-0.1-0.1-0.2-0.2-0.3c-0.2-0.3-0.3-0.5-0.4-0.6c-0.1-0.1-0.1-0.3-0.1-0.5
				c0-0.5,0.2-0.9,0.6-1.2s0.8-0.5,1.4-0.5c0.6,0,1.1,0.3,1.5,0.8c0.7-0.4,1.3-0.8,2-1c0.7-0.2,1.3-0.3,1.9-0.3
				c1.8,0,3.2,0.5,4.1,1.6c0.9,1,1.4,2.4,1.4,4.1v7.6c0,0.5-0.2,0.9-0.5,1.3c-0.3,0.3-0.8,0.5-1.5,0.5s-1.1-0.2-1.5-0.5
				c-0.3-0.3-0.5-0.8-0.5-1.3v-7.6c0-0.7-0.2-1.3-0.5-1.7c-0.3-0.4-0.8-0.6-1.4-0.6c-0.6,0-1.3,0.2-2.2,0.6c0,0.1,0,0.2,0,0.3
				c0,0.1,0,0.2,0,0.3V470.7z"/>
			<path class="st0" d="M301.1,455c0-0.5,0.2-0.9,0.5-1.3c0.3-0.3,0.8-0.5,1.5-0.5c0.6,0,1.1,0.2,1.5,0.5c0.3,0.3,0.5,0.8,0.5,1.2
				v3.2h2.1c0.5,0,1,0.2,1.4,0.5c0.4,0.3,0.6,0.7,0.6,1.2c0,0.5-0.2,0.9-0.6,1.2c-0.4,0.3-0.8,0.5-1.4,0.5h-2.1v4.4c0,0.5,0,1,0,1.4
				s0.1,0.7,0.2,0.9c0.1,0.2,0.3,0.4,0.5,0.5c0.2,0.1,0.5,0.1,0.8,0.1c0.1,0,0.2,0,0.3,0c0.1,0,0.1,0,0.2,0c0.9,0,1.6,0.1,1.9,0.4
				c0.3,0.3,0.5,0.6,0.5,1.2c0,0.4-0.1,0.8-0.2,1c-0.2,0.3-0.4,0.4-0.6,0.6c-0.3,0.1-0.6,0.2-0.9,0.3s-0.7,0.1-1,0.1
				c-1.1,0-2-0.1-2.8-0.4c-0.7-0.3-1.3-0.7-1.7-1.2c-0.4-0.5-0.7-1.2-0.9-1.9s-0.2-1.6-0.2-2.6V455z"/>
			<path class="st0" d="M317.1,461.6c0,0.6-0.2,1.2-0.7,1.6c-0.5,0.4-1,0.7-1.7,0.7c-0.3,0-0.7-0.1-1-0.2c-0.3-0.1-0.5-0.3-0.8-0.5
				c-0.2-0.2-0.4-0.4-0.5-0.7c-0.1-0.3-0.2-0.6-0.2-0.9c0-0.3,0.1-0.6,0.2-0.9c0.1-0.3,0.3-0.5,0.5-0.7c0.2-0.2,0.5-0.4,0.8-0.5
				s0.6-0.2,1-0.2c0.7,0,1.2,0.2,1.7,0.7C316.8,460.5,317.1,461,317.1,461.6z M317.1,470.3c0,0.6-0.2,1.2-0.7,1.6s-1,0.7-1.7,0.7
				c-0.3,0-0.7-0.1-1-0.2c-0.3-0.1-0.5-0.3-0.8-0.5c-0.2-0.2-0.4-0.4-0.5-0.7c-0.1-0.3-0.2-0.6-0.2-0.9c0-0.3,0.1-0.6,0.2-0.9
				c0.1-0.3,0.3-0.5,0.5-0.7c0.2-0.2,0.5-0.4,0.8-0.5c0.3-0.1,0.6-0.2,1-0.2c0.7,0,1.2,0.2,1.7,0.7
				C316.8,469.2,317.1,469.7,317.1,470.3z"/>
			<path class="st0" d="M334.5,460.3c0.8,0,1.6,0.2,2.3,0.4c0.7,0.3,1.3,0.6,1.8,1.1c0.5,0.5,0.9,1.1,1.2,1.8s0.4,1.5,0.4,2.4
				c0,0.8-0.1,1.5-0.3,2.3c-0.2,0.8-0.6,1.5-1,2.1s-1.1,1.2-1.8,1.6c-0.7,0.4-1.6,0.6-2.7,0.6c-0.3,0-0.8,0-1.4-0.1
				c-0.6,0-1.3-0.2-1.9-0.3c-0.6-0.2-1.2-0.4-1.6-0.7c-0.5-0.3-0.7-0.7-0.7-1.1c0-0.3,0.1-0.5,0.3-0.8s0.5-0.3,0.8-0.3
				c0.2,0,0.4,0.1,0.6,0.2c0.4,0.3,0.9,0.5,1.4,0.7s1.1,0.3,1.9,0.3c0.8,0,1.5-0.1,2-0.4c0.5-0.3,1-0.6,1.3-1
				c0.3-0.4,0.6-0.9,0.7-1.4c0.1-0.5,0.2-1,0.2-1.6c0-0.7-0.1-1.2-0.3-1.7s-0.5-0.9-0.8-1.2c-0.3-0.3-0.8-0.5-1.2-0.7
				c-0.5-0.1-1-0.2-1.6-0.2c-0.5,0-0.9,0.1-1.2,0.2c-0.1,0-0.2,0.1-0.2,0.1c0,0-0.1,0.1-0.3,0.1c-0.2,0-0.4-0.1-0.5-0.2
				c-0.2-0.1-0.3-0.3-0.3-0.4c-0.1-0.2-0.1-0.4-0.1-0.6c0-0.2,0.1-0.4,0.2-0.6l5.2-6.8h-6.4c-0.3,0-0.6-0.1-0.8-0.3
				s-0.3-0.5-0.3-0.8c0-0.3,0.1-0.6,0.3-0.8s0.5-0.3,0.8-0.3h8.1c0.4,0,0.7,0.1,0.9,0.4c0.2,0.2,0.3,0.6,0.3,0.9
				c0,0.3-0.1,0.6-0.3,0.8L334.5,460.3z"/>
			<path class="st0" d="M346.7,471c0,0.4-0.2,0.8-0.4,1.1c-0.3,0.3-0.7,0.5-1.1,0.5c-0.4,0-0.8-0.2-1.1-0.5
				c-0.3-0.3-0.5-0.7-0.5-1.1c0-0.4,0.2-0.8,0.5-1.1c0.3-0.3,0.7-0.4,1.1-0.4c0.4,0,0.8,0.1,1.1,0.4
				C346.5,470.2,346.7,470.6,346.7,471z"/>
			<path class="st0" d="M352,461c0.6-0.5,1.2-0.9,1.9-1.1s1.4-0.3,2-0.3c0.8,0,1.6,0.1,2.3,0.4c0.7,0.3,1.3,0.7,1.8,1.2
				c0.5,0.5,0.9,1.2,1.2,2c0.3,0.8,0.5,1.7,0.5,2.7c0,0.9-0.1,1.8-0.4,2.6c-0.3,0.8-0.6,1.5-1.1,2.1c-0.5,0.6-1.1,1.1-1.9,1.5
				c-0.8,0.4-1.6,0.5-2.7,0.5c-1.2,0-2.2-0.2-2.9-0.7c-0.8-0.5-1.4-1.2-1.9-2.1c-0.5-0.9-0.8-1.9-1-3.1c-0.2-1.2-0.3-2.5-0.3-4
				c0-3.6,0.5-6.3,1.6-8.3c1-1.9,2.6-2.9,4.8-2.9c0.3,0,0.6,0,1.1,0.1s1,0.1,1.5,0.2c0.5,0.1,0.9,0.3,1.3,0.5
				c0.4,0.2,0.6,0.5,0.6,0.8c0,0.3-0.1,0.5-0.3,0.7c-0.2,0.2-0.4,0.3-0.7,0.3c-0.1,0-0.3,0-0.6-0.1c-0.3-0.1-0.7-0.2-1.1-0.3
				s-0.8-0.1-1.3-0.1c-0.9,0-1.6,0.2-2.2,0.6c-0.6,0.4-1,0.9-1.3,1.6c-0.3,0.7-0.6,1.4-0.7,2.3C352.1,459,352,460,352,461z
				 M352,464.1c0,0.8,0.1,1.6,0.2,2.3c0.1,0.7,0.3,1.4,0.6,2c0.3,0.6,0.7,1,1.2,1.4c0.5,0.3,1.2,0.5,2,0.5c0.7,0,1.2-0.1,1.7-0.4
				c0.5-0.2,0.8-0.6,1.1-1c0.3-0.4,0.5-0.9,0.6-1.4c0.1-0.5,0.2-1.1,0.2-1.6c0-1.4-0.3-2.5-1-3.1s-1.5-1-2.6-1
				c-0.8,0-1.6,0.2-2.3,0.5s-1.2,0.7-1.6,1.2V464.1z"/>
			<path class="st0" d="M383.3,470.8c0.1,0.2,0.1,0.3,0.1,0.5c0,0.3-0.1,0.6-0.3,0.8c-0.2,0.2-0.5,0.3-0.8,0.3
				c-0.3,0-0.5-0.1-0.6-0.2c-0.1-0.1-0.3-0.3-0.5-0.6l-3.3-5l-3.4,5.2c-0.3,0.4-0.6,0.6-0.9,0.6c-0.3,0-0.6-0.1-0.8-0.3
				c-0.2-0.2-0.3-0.5-0.3-0.8c0-0.2,0-0.3,0.1-0.5l4.1-6l-3.8-5.7c-0.1-0.1-0.2-0.3-0.2-0.5c0-0.3,0.1-0.6,0.3-0.8
				c0.2-0.2,0.5-0.3,0.8-0.3s0.6,0.1,0.8,0.3s0.4,0.4,0.5,0.7l2.9,4.5l3-4.7c0.2-0.2,0.3-0.4,0.4-0.6c0.1-0.1,0.4-0.2,0.6-0.2
				c0.3,0,0.5,0.1,0.8,0.3s0.3,0.5,0.3,0.8c0,0.1,0,0.2,0,0.3c0,0.1-0.1,0.2-0.1,0.3l-3.8,5.7L383.3,470.8z"/>
			<path class="st0" d="M400.7,454.6l-3.6,2.3c-0.2,0.1-0.4,0.3-0.6,0.4c-0.2,0.1-0.4,0.2-0.6,0.2c-0.3,0-0.5-0.1-0.7-0.3
				c-0.2-0.2-0.3-0.4-0.3-0.7c0-0.4,0.2-0.8,0.5-1l5.7-3.7c0.2-0.1,0.4-0.2,0.7-0.2c0.3,0,0.6,0.1,0.9,0.4c0.2,0.2,0.4,0.5,0.4,0.9
				v18.6c0,0.3-0.1,0.6-0.3,0.8c-0.2,0.2-0.5,0.3-0.8,0.3c-0.3,0-0.6-0.1-0.8-0.3c-0.2-0.2-0.3-0.5-0.3-0.8V454.6z"/>
			<path class="st0" d="M412.2,471c0,0.4-0.2,0.8-0.4,1.1c-0.3,0.3-0.7,0.5-1.1,0.5c-0.4,0-0.8-0.2-1.1-0.5
				c-0.3-0.3-0.5-0.7-0.5-1.1c0-0.4,0.2-0.8,0.5-1.1c0.3-0.3,0.7-0.4,1.1-0.4c0.4,0,0.8,0.1,1.1,0.4
				C412.1,470.2,412.2,470.6,412.2,471z"/>
			<path class="st0" d="M427.1,453c0,0.1,0,0.2,0,0.3c0,0.1,0,0.2-0.1,0.3l-7.2,18.2c-0.1,0.2-0.2,0.4-0.4,0.5
				c-0.2,0.1-0.4,0.2-0.6,0.2c-0.3,0-0.5-0.1-0.8-0.3c-0.2-0.2-0.4-0.4-0.4-0.7c0-0.2,0-0.4,0.1-0.6l6.8-16.9h-7.9
				c-0.3,0-0.5-0.1-0.8-0.3c-0.2-0.2-0.3-0.5-0.3-0.8c0-0.3,0.1-0.6,0.3-0.8c0.2-0.2,0.5-0.3,0.8-0.3h9.3c0.3,0,0.6,0.1,0.9,0.3
				C426.9,452.4,427.1,452.7,427.1,453z"/>
			<path class="st0" d="M438.5,462.8c0-0.8,0.1-1.5,0.3-2.1c0.2-0.6,0.5-1.2,0.9-1.7s1-0.9,1.6-1.1c0.7-0.3,1.4-0.4,2.3-0.4
				c0.3,0,0.7,0,1.2,0.1c0.5,0.1,0.9,0.2,1.3,0.3c0.4,0.1,0.8,0.3,1.1,0.5s0.4,0.5,0.4,0.9c0,0.3-0.1,0.5-0.3,0.7
				c-0.2,0.2-0.4,0.3-0.7,0.3c-0.1,0-0.3,0-0.5-0.1c-0.3-0.2-0.7-0.3-1.1-0.5c-0.4-0.1-0.8-0.2-1.3-0.2c-1.1,0-2,0.3-2.4,0.9
				s-0.7,1.4-0.7,2.5v4.4c0,1.1,0.2,1.9,0.7,2.5s1.3,0.9,2.4,0.9c0.5,0,0.9-0.1,1.3-0.2c0.4-0.1,0.7-0.3,1.1-0.5
				c0.2-0.1,0.3-0.1,0.5-0.1c0.3,0,0.5,0.1,0.7,0.3c0.2,0.2,0.3,0.4,0.3,0.7c0,0.3-0.1,0.6-0.4,0.9c-0.3,0.2-0.6,0.4-1.1,0.5
				c-0.4,0.1-0.9,0.2-1.3,0.3c-0.5,0.1-0.9,0.1-1.2,0.1c-0.9,0-1.7-0.1-2.3-0.4c-0.7-0.3-1.2-0.7-1.6-1.1s-0.7-1-0.9-1.7
				c-0.2-0.6-0.3-1.3-0.3-2.1V462.8z"/>
			<path class="st0" d="M466.7,462.4c0-0.8-0.2-1.5-0.7-2.1c-0.4-0.6-1.1-0.8-2-0.8c-0.6,0-1.2,0.1-1.8,0.4c-0.6,0.3-1,0.7-1.4,1.1
				c0.1,0.4,0.1,0.9,0.1,1.3v9.1c0,0.3-0.1,0.6-0.3,0.8c-0.2,0.2-0.5,0.3-0.9,0.3s-0.7-0.1-0.9-0.3c-0.2-0.2-0.3-0.5-0.3-0.8V463
				c0-0.5,0-1-0.1-1.4c-0.1-0.4-0.2-0.8-0.3-1.1c-0.2-0.3-0.4-0.6-0.7-0.7c-0.3-0.2-0.7-0.3-1.2-0.3c-0.6,0-1.3,0.1-1.9,0.3
				c-0.6,0.2-1.1,0.5-1.5,0.8c0.1,0.3,0.1,0.6,0.1,0.9v9.9c0,0.3-0.1,0.6-0.3,0.8c-0.2,0.2-0.5,0.3-0.9,0.3c-0.4,0-0.7-0.1-0.9-0.3
				c-0.2-0.2-0.3-0.5-0.3-0.8v-9.9c0-0.4,0-0.7,0-0.9s-0.1-0.4-0.1-0.5c0-0.1-0.1-0.2-0.2-0.3c-0.1-0.1-0.1-0.2-0.2-0.3
				c0-0.1-0.1-0.1-0.1-0.2c0-0.1-0.1-0.2-0.1-0.4c0-0.3,0.1-0.5,0.3-0.7s0.5-0.3,0.8-0.3c0.3,0,0.5,0.1,0.7,0.2
				c0.2,0.1,0.4,0.3,0.5,0.6c0.6-0.4,1.3-0.7,2-1c0.7-0.2,1.4-0.3,2.2-0.3c0.8,0,1.5,0.1,2,0.4c0.5,0.3,1,0.6,1.3,1.1
				c0.6-0.5,1.3-0.8,2-1.1c0.7-0.3,1.4-0.4,2.2-0.4c1.6,0,2.8,0.5,3.6,1.4c0.8,0.9,1.2,2.1,1.2,3.6v9.1c0,0.3-0.1,0.6-0.3,0.8
				c-0.2,0.2-0.5,0.3-0.9,0.3s-0.7-0.1-0.9-0.3c-0.2-0.2-0.3-0.5-0.3-0.8V462.4z"/>
		</g>
	</g>
</g>
</svg>
