<?xml version="1.0" encoding="utf-8"?>
<!-- Generator: Adobe Illustrator 19.1.0, SVG Export Plug-In . SVG Version: 6.00 Build 0)  -->
<svg version="1.1" id="Layer_1" xmlns="http://www.w3.org/2000/svg" xmlns:xlink="http://www.w3.org/1999/xlink" x="0px" y="0px"
	 viewBox="0 0 1280 800" style="enable-background:new 0 0 1280 800;" xml:space="preserve">
<style type="text/css">
	.st0{fill:#4D4D4D;}
	.st1{clip-path:url(#SVGID_2_);}
	.st2{fill:#E6E6E6;}
	.st3{fill:#F57C00;}
	.st4{fill:#FF931E;}
	.st5{fill:#F2F2F2;}
	.st6{fill:#FFFFFF;}
	.st7{opacity:0.41;}
	.st8{fill:#00FF00;}
	.st9{fill:#0000FF;}
	.st10{fill:#FF0000;}
</style>
<g>
	<defs>
		<rect id="SVGID_1_" width="1280" height="800"/>
	</defs>
	<clipPath id="SVGID_2_">
		<use xlink:href="#SVGID_1_"  style="overflow:visible;"/>
	</clipPath>
	<g class="st1">
		<g>
			<g>
				<path class="st2" d="M-132-79c25,0,49.6,0,74.4,0c64.9,0,129.9,0,194.8,0c90.4,0,180.8,0,271.2,0c101.3,0,202.7,0,304,0
					c97.7,0,195.4,0,293.1,0c79.5,0,159,0,238.5,0c46.7,0,93.4,0,140.2,0c4.9,0,9.7,0,14.6,0c1.7,0,4.2,0.5,4.2-0.4
					c0,10.3,0,20.7,0,31c0,67.4,0,134.8,0,202.1c0,98.6,0,197.3,0,295.9c0,92.7,0,185.4,0,278.1c0,49.5,0,99,0,148.5
					c0,1.3,0,2.6,0,3.9c0,0.8,1.1-0.1,0.4-0.1c-2.6,0-5.2,0-7.8,0c-14.3,0-28.6,0-42.9,0c-58.8,0-117.6,0-176.4,0
					c-86.9,0-173.8,0-260.7,0c-100.4,0-200.9,0-301.3,0c-99.4,0-198.9,0-298.3,0c-83.8,0-167.7,0-251.5,0c-53.7,0-107.4,0-161.1,0
					c-11,0-22,0-33,0c-0.8,0-1.6,0-2.4,0c-0.2,0,0,0.9,0-0.2c0-4.2,0-8.3,0-12.5c0-57.8,0-115.6,0-173.4c0-95.8,0-191.5,0-287.3
					c0-96.5,0-193,0-289.5c0-60,0-120.1,0-180.1C-132-68.4-132-74-132-79c0-1-1-1-1,0c0,37,0,74.4,0,111.9c0,87.5,0,175,0,262.5
					c0,100.3,0,200.7,0,301c0,76,0,151.9,0,227.9c0,18.7,0,37.5,0,56.2c0,0.2,0.6,0.5,0.8,0.5c24.9,0,49.8,0,74.6,0
					c64.9,0,129.9,0,194.8,0c90.4,0,180.8,0,271.2,0c101.3,0,202.7,0,304,0c97.7,0,195.4,0,293.1,0c79.5,0,159,0,238.5,0
					c46.7,0,93.4,0,140.2,0c6.5,0,13,0,19.6,0c0.2,0,0.2-0.2,0.2-0.5c0-37.4,0-74.9,0-112.3c0-87.5,0-175,0-262.5
					c0-100.3,0-200.7,0-301c0-76,0-151.9,0-227.9c0-18.7,0-37.5,0-56.2c0-0.2,0-0.6-0.2-0.6c-24.9,0-49.8,0-74.6,0
					c-64.9,0-129.9,0-194.8,0c-90.4,0-180.8,0-271.2,0c-101.3,0-202.7,0-304,0c-97.7,0-195.4,0-293.1,0c-79.5,0-159,0-238.5,0
					c-46.7,0-93.4,0-140.2,0c-6.5,0-13.4,0-19.4,0C-133-80-133-79-132-79z"/>
			</g>
		</g>
		<g>
			<g>
				<path class="st2" d="M-132,786c0,0,50.2,0,75,0c64.9,0,129.9,0,194.8,0c90.4,0,180.8,0,271.2,0c101.3,0,202.7,0,304,0
					c97.7,0,195.4,0,293.1,0c79.5,0,159,0,238.5,0c46.7,0,93.4,0,140.2,0c6.5,0,13.2,0,19.2,0c1,0,1-1,0-1c-24,0-49.4,0-74.2,0
					c-64.9,0-129.9,0-194.8,0c-90.4,0-180.8,0-271.2,0c-101.3,0-202.7,0-304,0c-97.7,0-195.4,0-293.1,0c-79.5,0-159,0-238.5,0
					c-46.7,0-93.4,0-140.2,0c-6.5,0-13,0-20,0V786L-132,786z"/>
			</g>
		</g>
		<g>
			<g>
				<path class="st2" d="M-132,767c0,0,50.2,0,75,0c64.9,0,129.9,0,194.8,0c90.4,0,180.8,0,271.2,0c101.3,0,202.7,0,304,0
					c97.7,0,195.4,0,293.1,0c79.5,0,159,0,238.5,0c46.7,0,93.4,0,140.2,0c6.5,0,13.2,0,19.2,0c1,0,1-1,0-1c-24,0-49.4,0-74.2,0
					c-64.9,0-129.9,0-194.8,0c-90.4,0-180.8,0-271.2,0c-101.3,0-202.7,0-304,0c-97.7,0-195.4,0-293.1,0c-79.5,0-159,0-238.5,0
					c-46.7,0-93.4,0-140.2,0c-6.5,0-13,0-20,0V767L-132,767z"/>
			</g>
		</g>
		<g>
			<g>
				<path class="st2" d="M-132,749c0,0,50.2,0,75,0c64.9,0,129.9,0,194.8,0c90.4,0,180.8,0,271.2,0c101.3,0,202.7,0,304,0
					c97.7,0,195.4,0,293.1,0c79.5,0,159,0,238.5,0c46.7,0,93.4,0,140.2,0c6.5,0,13.2,0,19.2,0c1,0,1-1,0-1c-24,0-49.4,0-74.2,0
					c-64.9,0-129.9,0-194.8,0c-90.4,0-180.8,0-271.2,0c-101.3,0-202.7,0-304,0c-97.7,0-195.4,0-293.1,0c-79.5,0-159,0-238.5,0
					c-46.7,0-93.4,0-140.2,0c-6.5,0-13,0-20,0V749L-132,749z"/>
			</g>
		</g>
		<g>
			<g>
				<path class="st2" d="M-132,730c0,0,50.2,0,75,0c64.9,0,129.9,0,194.8,0c90.4,0,180.8,0,271.2,0c101.3,0,202.7,0,304,0
					c97.7,0,195.4,0,293.1,0c79.5,0,159,0,238.5,0c46.7,0,93.4,0,140.2,0c6.5,0,13.2,0,19.2,0c1,0,1-1,0-1c-24,0-49.4,0-74.2,0
					c-64.9,0-129.9,0-194.8,0c-90.4,0-180.8,0-271.2,0c-101.3,0-202.7,0-304,0c-97.7,0-195.4,0-293.1,0c-79.5,0-159,0-238.5,0
					c-46.7,0-93.4,0-140.2,0c-6.5,0-13,0-20,0V730L-132,730z"/>
			</g>
		</g>
		<g>
			<g>
				<path class="st2" d="M-132,711c0,0,50.2,0,75,0c64.9,0,129.9,0,194.8,0c90.4,0,180.8,0,271.2,0c101.3,0,202.7,0,304,0
					c97.7,0,195.4,0,293.1,0c79.5,0,159,0,238.5,0c46.7,0,93.4,0,140.2,0c6.5,0,13.2,0,19.2,0c1,0,1-1,0-1c-24,0-49.4,0-74.2,0
					c-64.9,0-129.9,0-194.8,0c-90.4,0-180.8,0-271.2,0c-101.3,0-202.7,0-304,0c-97.7,0-195.4,0-293.1,0c-79.5,0-159,0-238.5,0
					c-46.7,0-93.4,0-140.2,0c-6.5,0-13,0-20,0V711L-132,711z"/>
			</g>
		</g>
		<g>
			<g>
				<path class="st2" d="M-132,693c0,0,50.2,0,75,0c64.9,0,129.9,0,194.8,0c90.4,0,180.8,0,271.2,0c101.3,0,202.7,0,304,0
					c97.7,0,195.4,0,293.1,0c79.5,0,159,0,238.5,0c46.7,0,93.4,0,140.2,0c6.5,0,13.2,0,19.2,0c1,0,1-1,0-1c-24,0-49.4,0-74.2,0
					c-64.9,0-129.9,0-194.8,0c-90.4,0-180.8,0-271.2,0c-101.3,0-202.7,0-304,0c-97.7,0-195.4,0-293.1,0c-79.5,0-159,0-238.5,0
					c-46.7,0-93.4,0-140.2,0c-6.5,0-13,0-20,0V693L-132,693z"/>
			</g>
		</g>
		<g>
			<g>
				<path class="st2" d="M-132,654c0,0,50.2,0,75,0c64.9,0,129.9,0,194.8,0c90.4,0,180.8,0,271.2,0c101.3,0,202.7,0,304,0
					c97.7,0,195.4,0,293.1,0c79.5,0,159,0,238.5,0c46.7,0,93.4,0,140.2,0c6.5,0,13.2,0,19.2,0c1,0,1-1,0-1c-24,0-49.4,0-74.2,0
					c-64.9,0-129.9,0-194.8,0c-90.4,0-180.8,0-271.2,0c-101.3,0-202.7,0-304,0c-97.7,0-195.4,0-293.1,0c-79.5,0-159,0-238.5,0
					c-46.7,0-93.4,0-140.2,0c-6.5,0-13,0-20,0V654L-132,654z"/>
			</g>
		</g>
		<g>
			<g>
				<path class="st2" d="M-132,636c0,0,50.2,0,75,0c64.9,0,129.9,0,194.8,0c90.4,0,180.8,0,271.2,0c101.3,0,202.7,0,304,0
					c97.7,0,195.4,0,293.1,0c79.5,0,159,0,238.5,0c46.7,0,93.4,0,140.2,0c6.5,0,13.2,0,19.2,0c1,0,1-1,0-1c-24,0-49.4,0-74.2,0
					c-64.9,0-129.9,0-194.8,0c-90.4,0-180.8,0-271.2,0c-101.3,0-202.7,0-304,0c-97.7,0-195.4,0-293.1,0c-79.5,0-159,0-238.5,0
					c-46.7,0-93.4,0-140.2,0c-6.5,0-13,0-20,0V636L-132,636z"/>
			</g>
		</g>
		<g>
			<g>
				<path class="st2" d="M-132,617c0,0,50.2,0,75,0c64.9,0,129.9,0,194.8,0c90.4,0,180.8,0,271.2,0c101.3,0,202.7,0,304,0
					c97.7,0,195.4,0,293.1,0c79.5,0,159,0,238.5,0c46.7,0,93.4,0,140.2,0c6.5,0,13.2,0,19.2,0c1,0,1-1,0-1c-24,0-49.4,0-74.2,0
					c-64.9,0-129.9,0-194.8,0c-90.4,0-180.8,0-271.2,0c-101.3,0-202.7,0-304,0c-97.7,0-195.4,0-293.1,0c-79.5,0-159,0-238.5,0
					c-46.7,0-93.4,0-140.2,0c-6.5,0-13,0-20,0V617L-132,617z"/>
			</g>
		</g>
		<g>
			<g>
				<path class="st2" d="M-132,598c0,0,50.2,0,75,0c64.9,0,129.9,0,194.8,0c90.4,0,180.8,0,271.2,0c101.3,0,202.7,0,304,0
					c97.7,0,195.4,0,293.1,0c79.5,0,159,0,238.5,0c46.7,0,93.4,0,140.2,0c6.5,0,13.2,0,19.2,0c1,0,1-1,0-1c-24,0-49.4,0-74.2,0
					c-64.9,0-129.9,0-194.8,0c-90.4,0-180.8,0-271.2,0c-101.3,0-202.7,0-304,0c-97.7,0-195.4,0-293.1,0c-79.5,0-159,0-238.5,0
					c-46.7,0-93.4,0-140.2,0c-6.5,0-13,0-20,0V598L-132,598z"/>
			</g>
		</g>
		<g>
			<g>
				<path class="st2" d="M-132,580c0,0,50.2,0,75,0c64.9,0,129.9,0,194.8,0c90.4,0,180.8,0,271.2,0c101.3,0,202.7,0,304,0
					c97.7,0,195.4,0,293.1,0c79.5,0,159,0,238.5,0c46.7,0,93.4,0,140.2,0c6.5,0,13.2,0,19.2,0c1,0,1-1,0-1c-24,0-49.4,0-74.2,0
					c-64.9,0-129.9,0-194.8,0c-90.4,0-180.8,0-271.2,0c-101.3,0-202.7,0-304,0c-97.7,0-195.4,0-293.1,0c-79.5,0-159,0-238.5,0
					c-46.7,0-93.4,0-140.2,0c-6.5,0-13,0-20,0V580L-132,580z"/>
			</g>
		</g>
		<g>
			<g>
				<path class="st2" d="M-132,561c0,0,50.2,0,75,0c64.9,0,129.9,0,194.8,0c90.4,0,180.8,0,271.2,0c101.3,0,202.7,0,304,0
					c97.7,0,195.4,0,293.1,0c79.5,0,159,0,238.5,0c46.7,0,93.4,0,140.2,0c6.5,0,13.2,0,19.2,0c1,0,1-1,0-1c-24,0-49.4,0-74.2,0
					c-64.9,0-129.9,0-194.8,0c-90.4,0-180.8,0-271.2,0c-101.3,0-202.7,0-304,0c-97.7,0-195.4,0-293.1,0c-79.5,0-159,0-238.5,0
					c-46.7,0-93.4,0-140.2,0c-6.5,0-13,0-20,0V561L-132,561z"/>
			</g>
		</g>
		<g>
			<g>
				<path class="st2" d="M-132,522c0,0,50.2,0,75,0c64.9,0,129.9,0,194.8,0c90.4,0,180.8,0,271.2,0c101.3,0,202.7,0,304,0
					c97.7,0,195.4,0,293.1,0c79.5,0,159,0,238.5,0c46.7,0,93.4,0,140.2,0c6.5,0,13.2,0,19.2,0c1,0,1-1,0-1c-24,0-49.4,0-74.2,0
					c-64.9,0-129.9,0-194.8,0c-90.4,0-180.8,0-271.2,0c-101.3,0-202.7,0-304,0c-97.7,0-195.4,0-293.1,0c-79.5,0-159,0-238.5,0
					c-46.7,0-93.4,0-140.2,0c-6.5,0-13,0-20,0V522L-132,522z"/>
			</g>
		</g>
		<g>
			<g>
				<path class="st2" d="M-132,504c0,0,50.2,0,75,0c64.9,0,129.9,0,194.8,0c90.4,0,180.8,0,271.2,0c101.3,0,202.7,0,304,0
					c97.7,0,195.4,0,293.1,0c79.5,0,159,0,238.5,0c46.7,0,93.4,0,140.2,0c6.5,0,13.2,0,19.2,0c1,0,1-1,0-1c-24,0-49.4,0-74.2,0
					c-64.9,0-129.9,0-194.8,0c-90.4,0-180.8,0-271.2,0c-101.3,0-202.7,0-304,0c-97.7,0-195.4,0-293.1,0c-79.5,0-159,0-238.5,0
					c-46.7,0-93.4,0-140.2,0c-6.5,0-13,0-20,0V504L-132,504z"/>
			</g>
		</g>
		<g>
			<g>
				<path class="st2" d="M-132,485c0,0,50.2,0,75,0c64.9,0,129.9,0,194.8,0c90.4,0,180.8,0,271.2,0c101.3,0,202.7,0,304,0
					c97.7,0,195.4,0,293.1,0c79.5,0,159,0,238.5,0c46.7,0,93.4,0,140.2,0c6.5,0,13.2,0,19.2,0c1,0,1-1,0-1c-24,0-49.4,0-74.2,0
					c-64.9,0-129.9,0-194.8,0c-90.4,0-180.8,0-271.2,0c-101.3,0-202.7,0-304,0c-97.7,0-195.4,0-293.1,0c-79.5,0-159,0-238.5,0
					c-46.7,0-93.4,0-140.2,0c-6.5,0-13,0-20,0V485L-132,485z"/>
			</g>
		</g>
		<g>
			<g>
				<path class="st2" d="M-132,466c0,0,50.2,0,75,0c64.9,0,129.9,0,194.8,0c90.4,0,180.8,0,271.2,0c101.3,0,202.7,0,304,0
					c97.7,0,195.4,0,293.1,0c79.5,0,159,0,238.5,0c46.7,0,93.4,0,140.2,0c6.5,0,13.2,0,19.2,0c1,0,1-1,0-1c-24,0-49.4,0-74.2,0
					c-64.9,0-129.9,0-194.8,0c-90.4,0-180.8,0-271.2,0c-101.3,0-202.7,0-304,0c-97.7,0-195.4,0-293.1,0c-79.5,0-159,0-238.5,0
					c-46.7,0-93.4,0-140.2,0c-6.5,0-13,0-20,0V466L-132,466z"/>
			</g>
		</g>
		<g>
			<g>
				<path class="st2" d="M-132,448c0,0,50.2,0,75,0c64.9,0,129.9,0,194.8,0c90.4,0,180.8,0,271.2,0c101.3,0,202.7,0,304,0
					c97.7,0,195.4,0,293.1,0c79.5,0,159,0,238.5,0c46.7,0,93.4,0,140.2,0c6.5,0,13.2,0,19.2,0c1,0,1-1,0-1c-24,0-49.4,0-74.2,0
					c-64.9,0-129.9,0-194.8,0c-90.4,0-180.8,0-271.2,0c-101.3,0-202.7,0-304,0c-97.7,0-195.4,0-293.1,0c-79.5,0-159,0-238.5,0
					c-46.7,0-93.4,0-140.2,0c-6.5,0-13,0-20,0V448L-132,448z"/>
			</g>
		</g>
		<g>
			<g>
				<path class="st2" d="M-132,429c0,0,50.2,0,75,0c64.9,0,129.9,0,194.8,0c90.4,0,180.8,0,271.2,0c101.3,0,202.7,0,304,0
					c97.7,0,195.4,0,293.1,0c79.5,0,159,0,238.5,0c46.7,0,93.4,0,140.2,0c6.5,0,13.2,0,19.2,0c1,0,1-1,0-1c-24,0-49.4,0-74.2,0
					c-64.9,0-129.9,0-194.8,0c-90.4,0-180.8,0-271.2,0c-101.3,0-202.7,0-304,0c-97.7,0-195.4,0-293.1,0c-79.5,0-159,0-238.5,0
					c-46.7,0-93.4,0-140.2,0c-6.5,0-13,0-20,0V429L-132,429z"/>
			</g>
		</g>
		<g>
			<g>
				<path class="st2" d="M-132,372c0,0,50.2,0,75,0c64.9,0,129.9,0,194.8,0c90.4,0,180.8,0,271.2,0c101.3,0,202.7,0,304,0
					c97.7,0,195.4,0,293.1,0c79.5,0,159,0,238.5,0c46.7,0,93.4,0,140.2,0c6.5,0,13.2,0,19.2,0c1,0,1-1,0-1c-24,0-49.4,0-74.2,0
					c-64.9,0-129.9,0-194.8,0c-90.4,0-180.8,0-271.2,0c-101.3,0-202.7,0-304,0c-97.7,0-195.4,0-293.1,0c-79.5,0-159,0-238.5,0
					c-46.7,0-93.4,0-140.2,0c-6.5,0-13,0-20,0V372L-132,372z"/>
			</g>
		</g>
		<g>
			<g>
				<path class="st2" d="M-132,353c0,0,50.2,0,75,0c64.9,0,129.9,0,194.8,0c90.4,0,180.8,0,271.2,0c101.3,0,202.7,0,304,0
					c97.7,0,195.4,0,293.1,0c79.5,0,159,0,238.5,0c46.7,0,93.4,0,140.2,0c6.5,0,13.2,0,19.2,0c1,0,1-1,0-1c-24,0-49.4,0-74.2,0
					c-64.9,0-129.9,0-194.8,0c-90.4,0-180.8,0-271.2,0c-101.3,0-202.7,0-304,0c-97.7,0-195.4,0-293.1,0c-79.5,0-159,0-238.5,0
					c-46.7,0-93.4,0-140.2,0c-6.5,0-13,0-20,0V353L-132,353z"/>
			</g>
		</g>
		<g>
			<g>
				<path class="st2" d="M-132,335c0,0,50.2,0,75,0c64.9,0,129.9,0,194.8,0c90.4,0,180.8,0,271.2,0c101.3,0,202.7,0,304,0
					c97.7,0,195.4,0,293.1,0c79.5,0,159,0,238.5,0c46.7,0,93.4,0,140.2,0c6.5,0,13.2,0,19.2,0c1,0,1-1,0-1c-24,0-49.4,0-74.2,0
					c-64.9,0-129.9,0-194.8,0c-90.4,0-180.8,0-271.2,0c-101.3,0-202.7,0-304,0c-97.7,0-195.4,0-293.1,0c-79.5,0-159,0-238.5,0
					c-46.7,0-93.4,0-140.2,0c-6.5,0-13,0-20,0V335L-132,335z"/>
			</g>
		</g>
		<g>
			<g>
				<path class="st2" d="M-132,316c0,0,50.2,0,75,0c64.9,0,129.9,0,194.8,0c90.4,0,180.8,0,271.2,0c101.3,0,202.7,0,304,0
					c97.7,0,195.4,0,293.1,0c79.5,0,159,0,238.5,0c46.7,0,93.4,0,140.2,0c6.5,0,13.2,0,19.2,0c1,0,1-1,0-1c-24,0-49.4,0-74.2,0
					c-64.9,0-129.9,0-194.8,0c-90.4,0-180.8,0-271.2,0c-101.3,0-202.7,0-304,0c-97.7,0-195.4,0-293.1,0c-79.5,0-159,0-238.5,0
					c-46.7,0-93.4,0-140.2,0c-6.5,0-13,0-20,0V316L-132,316z"/>
			</g>
		</g>
		<g>
			<g>
				<path class="st2" d="M-132,297c0,0,50.2,0,75,0c64.9,0,129.9,0,194.8,0c90.4,0,180.8,0,271.2,0c101.3,0,202.7,0,304,0
					c97.7,0,195.4,0,293.1,0c79.5,0,159,0,238.5,0c46.7,0,93.4,0,140.2,0c6.5,0,13.2,0,19.2,0c1,0,1-1,0-1c-24,0-49.4,0-74.2,0
					c-64.9,0-129.9,0-194.8,0c-90.4,0-180.8,0-271.2,0c-101.3,0-202.7,0-304,0c-97.7,0-195.4,0-293.1,0c-79.5,0-159,0-238.5,0
					c-46.7,0-93.4,0-140.2,0c-6.5,0-13,0-20,0V297L-132,297z"/>
			</g>
		</g>
		<g>
			<g>
				<path class="st2" d="M-132,279c0,0,50.2,0,75,0c64.9,0,129.9,0,194.8,0c90.4,0,180.8,0,271.2,0c101.3,0,202.7,0,304,0
					c97.7,0,195.4,0,293.1,0c79.5,0,159,0,238.5,0c46.7,0,93.4,0,140.2,0c6.5,0,13.2,0,19.2,0c1,0,1-1,0-1c-24,0-49.4,0-74.2,0
					c-64.9,0-129.9,0-194.8,0c-90.4,0-180.8,0-271.2,0c-101.3,0-202.7,0-304,0c-97.7,0-195.4,0-293.1,0c-79.5,0-159,0-238.5,0
					c-46.7,0-93.4,0-140.2,0c-6.5,0-13,0-20,0V279L-132,279z"/>
			</g>
		</g>
		<g>
			<g>
				<path class="st2" d="M-132,240c0,0,50.2,0,75,0c64.9,0,129.9,0,194.8,0c90.4,0,180.8,0,271.2,0c101.3,0,202.7,0,304,0
					c97.7,0,195.4,0,293.1,0c79.5,0,159,0,238.5,0c46.7,0,93.4,0,140.2,0c6.5,0,13.2,0,19.2,0c1,0,1-1,0-1c-24,0-49.4,0-74.2,0
					c-64.9,0-129.9,0-194.8,0c-90.4,0-180.8,0-271.2,0c-101.3,0-202.7,0-304,0c-97.7,0-195.4,0-293.1,0c-79.5,0-159,0-238.5,0
					c-46.7,0-93.4,0-140.2,0c-6.5,0-13,0-20,0V240L-132,240z"/>
			</g>
		</g>
		<g>
			<g>
				<path class="st2" d="M-132,221c0,0,50.2,0,75,0c64.9,0,129.9,0,194.8,0c90.4,0,180.8,0,271.2,0c101.3,0,202.7,0,304,0
					c97.7,0,195.4,0,293.1,0c79.5,0,159,0,238.5,0c46.7,0,93.4,0,140.2,0c6.5,0,13.2,0,19.2,0c1,0,1-1,0-1c-24,0-49.4,0-74.2,0
					c-64.9,0-129.9,0-194.8,0c-90.4,0-180.8,0-271.2,0c-101.3,0-202.7,0-304,0c-97.7,0-195.4,0-293.1,0c-79.5,0-159,0-238.5,0
					c-46.7,0-93.4,0-140.2,0c-6.5,0-13,0-20,0V221L-132,221z"/>
			</g>
		</g>
		<g>
			<g>
				<path class="st2" d="M-132,203c0,0,50.2,0,75,0c64.9,0,129.9,0,194.8,0c90.4,0,180.8,0,271.2,0c101.3,0,202.7,0,304,0
					c97.7,0,195.4,0,293.1,0c79.5,0,159,0,238.5,0c46.7,0,93.4,0,140.2,0c6.5,0,13.2,0,19.2,0c1,0,1-1,0-1c-24,0-49.4,0-74.2,0
					c-64.9,0-129.9,0-194.8,0c-90.4,0-180.8,0-271.2,0c-101.3,0-202.7,0-304,0c-97.7,0-195.4,0-293.1,0c-79.5,0-159,0-238.5,0
					c-46.7,0-93.4,0-140.2,0c-6.5,0-13,0-20,0V203L-132,203z"/>
			</g>
		</g>
		<g>
			<g>
				<path class="st2" d="M-132,184c0,0,50.2,0,75,0c64.9,0,129.9,0,194.8,0c90.4,0,180.8,0,271.2,0c101.3,0,202.7,0,304,0
					c97.7,0,195.4,0,293.1,0c79.5,0,159,0,238.5,0c46.7,0,93.4,0,140.2,0c6.5,0,13.2,0,19.2,0c1,0,1-1,0-1c-24,0-49.4,0-74.2,0
					c-64.9,0-129.9,0-194.8,0c-90.4,0-180.8,0-271.2,0c-101.3,0-202.7,0-304,0c-97.7,0-195.4,0-293.1,0c-79.5,0-159,0-238.5,0
					c-46.7,0-93.4,0-140.2,0c-6.5,0-13,0-20,0V184L-132,184z"/>
			</g>
		</g>
		<g>
			<g>
				<path class="st2" d="M-132,165c0,0,50.2,0,75,0c64.9,0,129.9,0,194.8,0c90.4,0,180.8,0,271.2,0c101.3,0,202.7,0,304,0
					c97.7,0,195.4,0,293.1,0c79.5,0,159,0,238.5,0c46.7,0,93.4,0,140.2,0c6.5,0,13.2,0,19.2,0c1,0,1-1,0-1c-24,0-49.4,0-74.2,0
					c-64.9,0-129.9,0-194.8,0c-90.4,0-180.8,0-271.2,0c-101.3,0-202.7,0-304,0c-97.7,0-195.4,0-293.1,0c-79.5,0-159,0-238.5,0
					c-46.7,0-93.4,0-140.2,0c-6.5,0-13,0-20,0V165L-132,165z"/>
			</g>
		</g>
		<g>
			<g>
				<path class="st2" d="M-132,147c0,0,50.2,0,75,0c64.9,0,129.9,0,194.8,0c90.4,0,180.8,0,271.2,0c101.3,0,202.7,0,304,0
					c97.7,0,195.4,0,293.1,0c79.5,0,159,0,238.5,0c46.7,0,93.4,0,140.2,0c6.5,0,13.2,0,19.2,0c1,0,1-1,0-1c-24,0-49.4,0-74.2,0
					c-64.9,0-129.9,0-194.8,0c-90.4,0-180.8,0-271.2,0c-101.3,0-202.7,0-304,0c-97.7,0-195.4,0-293.1,0c-79.5,0-159,0-238.5,0
					c-46.7,0-93.4,0-140.2,0c-6.5,0-13,0-20,0V147L-132,147z"/>
			</g>
		</g>
		<g>
			<g>
				<path class="st2" d="M-132,108c0,0,50.2,0,75,0c64.9,0,129.9,0,194.8,0c90.4,0,180.8,0,271.2,0c101.3,0,202.7,0,304,0
					c97.7,0,195.4,0,293.1,0c79.5,0,159,0,238.5,0c46.7,0,93.4,0,140.2,0c6.5,0,13.2,0,19.2,0c1,0,1-1,0-1c-24,0-49.4,0-74.2,0
					c-64.9,0-129.9,0-194.8,0c-90.4,0-180.8,0-271.2,0c-101.3,0-202.7,0-304,0c-97.7,0-195.4,0-293.1,0c-79.5,0-159,0-238.5,0
					c-46.7,0-93.4,0-140.2,0c-6.5,0-13,0-20,0V108L-132,108z"/>
			</g>
		</g>
		<g>
			<g>
				<path class="st2" d="M-132,90c0,0,50.2,0,75,0C8,90,72.9,90,137.8,90c90.4,0,180.8,0,271.2,0c101.3,0,202.7,0,304,0
					c97.7,0,195.4,0,293.1,0c79.5,0,159,0,238.5,0c46.7,0,93.4,0,140.2,0c6.5,0,13.2,0,19.2,0c1,0,1-1,0-1c-24,0-49.4,0-74.2,0
					c-64.9,0-129.9,0-194.8,0c-90.4,0-180.8,0-271.2,0c-101.3,0-202.7,0-304,0c-97.7,0-195.4,0-293.1,0c-79.5,0-159,0-238.5,0
					c-46.7,0-93.4,0-140.2,0c-6.5,0-13,0-20,0V90L-132,90z"/>
			</g>
		</g>
		<g>
			<g>
				<path class="st2" d="M-132,71c0,0,50.2,0,75,0C8,71,72.9,71,137.8,71c90.4,0,180.8,0,271.2,0c101.3,0,202.7,0,304,0
					c97.7,0,195.4,0,293.1,0c79.5,0,159,0,238.5,0c46.7,0,93.4,0,140.2,0c6.5,0,13.2,0,19.2,0c1,0,1-1,0-1c-24,0-49.4,0-74.2,0
					c-64.9,0-129.9,0-194.8,0c-90.4,0-180.8,0-271.2,0c-101.3,0-202.7,0-304,0c-97.7,0-195.4,0-293.1,0c-79.5,0-159,0-238.5,0
					c-46.7,0-93.4,0-140.2,0c-6.5,0-13,0-20,0V71L-132,71z"/>
			</g>
		</g>
		<g>
			<g>
				<path class="st2" d="M-132,52c0,0,50.2,0,75,0C8,52,72.9,52,137.8,52c90.4,0,180.8,0,271.2,0c101.3,0,202.7,0,304,0
					c97.7,0,195.4,0,293.1,0c79.5,0,159,0,238.5,0c46.7,0,93.4,0,140.2,0c6.5,0,13.2,0,19.2,0c1,0,1-1,0-1c-24,0-49.4,0-74.2,0
					c-64.9,0-129.9,0-194.8,0c-90.4,0-180.8,0-271.2,0c-101.3,0-202.7,0-304,0c-97.7,0-195.4,0-293.1,0c-79.5,0-159,0-238.5,0
					c-46.7,0-93.4,0-140.2,0c-6.5,0-13,0-20,0V52L-132,52z"/>
			</g>
		</g>
		<g>
			<g>
				<path class="st2" d="M-132,34c0,0,50.2,0,75,0C8,34,72.9,34,137.8,34c90.4,0,180.8,0,271.2,0c101.3,0,202.7,0,304,0
					c97.7,0,195.4,0,293.1,0c79.5,0,159,0,238.5,0c46.7,0,93.4,0,140.2,0c6.5,0,13.2,0,19.2,0c1,0,1-1,0-1c-24,0-49.4,0-74.2,0
					c-64.9,0-129.9,0-194.8,0c-90.4,0-180.8,0-271.2,0c-101.3,0-202.7,0-304,0c-97.7,0-195.4,0-293.1,0c-79.5,0-159,0-238.5,0
					c-46.7,0-93.4,0-140.2,0c-6.5,0-13,0-20,0V34L-132,34z"/>
			</g>
		</g>
		<g>
			<g>
				<path class="st2" d="M-132,15c0,0,50.2,0,75,0C8,15,72.9,15,137.8,15c90.4,0,180.8,0,271.2,0c101.3,0,202.7,0,304,0
					c97.7,0,195.4,0,293.1,0c79.5,0,159,0,238.5,0c46.7,0,93.4,0,140.2,0c6.5,0,13.2,0,19.2,0c1,0,1-1,0-1c-24,0-49.4,0-74.2,0
					c-64.9,0-129.9,0-194.8,0c-90.4,0-180.8,0-271.2,0c-101.3,0-202.7,0-304,0c-97.7,0-195.4,0-293.1,0c-79.5,0-159,0-238.5,0
					c-46.7,0-93.4,0-140.2,0c-6.5,0-13,0-20,0V15L-132,15z"/>
			</g>
		</g>
		<g>
			<g>
				<path class="st2" d="M790-80c0,0,0,33.6,0,50.4c0,43.6,0,87.1,0,130.7c0,60,0,120,0,180c0,66.2,0,132.4,0,198.6
					c0,62.1,0,124.1,0,186.2c0,47.7,0,95.3,0,143c0,23,0,46,0,68.9c0,0.7,0,1.2,0,2.2s1,1,1,0c0-17,0-33.7,0-50.5
					c0-43.6,0-87.1,0-130.7c0-60,0-120,0-180c0-66.2,0-132.4,0-198.6c0-62.1,0-124.1,0-186.2c0-47.7,0-95.3,0-143c0-23,0-46,0-68.9
					c0-0.7,0-1.1,0-2.1S790-81,790-80C790-80,790-81,790-80z"/>
			</g>
		</g>
		<g>
			<g>
				<path class="st2" d="M771-80c0,0,0,33.6,0,50.4c0,43.6,0,87.1,0,130.7c0,60,0,120,0,180c0,66.2,0,132.4,0,198.6
					c0,62.1,0,124.1,0,186.2c0,47.7,0,95.3,0,143c0,23,0,46,0,68.9c0,0.7,0,1.2,0,2.2s1,1,1,0c0-17,0-33.7,0-50.5
					c0-43.6,0-87.1,0-130.7c0-60,0-120,0-180c0-66.2,0-132.4,0-198.6c0-62.1,0-124.1,0-186.2c0-47.7,0-95.3,0-143c0-23,0-46,0-68.9
					c0-0.7,0-1.1,0-2.1S771-81,771-80C771-80,771-81,771-80z"/>
			</g>
		</g>
		<g>
			<g>
				<path class="st2" d="M753-80c0,0,0,33.6,0,50.4c0,43.6,0,87.1,0,130.7c0,60,0,120,0,180c0,66.2,0,132.4,0,198.6
					c0,62.1,0,124.1,0,186.2c0,47.7,0,95.3,0,143c0,23,0,46,0,68.9c0,0.7,0,1.2,0,2.2s1,1,1,0c0-17,0-33.7,0-50.5
					c0-43.6,0-87.1,0-130.7c0-60,0-120,0-180c0-66.2,0-132.4,0-198.6c0-62.1,0-124.1,0-186.2c0-47.7,0-95.3,0-143c0-23,0-46,0-68.9
					c0-0.7,0-1.1,0-2.1S753-81,753-80C753-80,753-81,753-80z"/>
			</g>
		</g>
		<g>
			<g>
				<path class="st2" d="M734-80c0,0,0,33.6,0,50.4c0,43.6,0,87.1,0,130.7c0,60,0,120,0,180c0,66.2,0,132.4,0,198.6
					c0,62.1,0,124.1,0,186.2c0,47.7,0,95.3,0,143c0,23,0,46,0,68.9c0,0.7,0,1.2,0,2.2s1,1,1,0c0-17,0-33.7,0-50.5
					c0-43.6,0-87.1,0-130.7c0-60,0-120,0-180c0-66.2,0-132.4,0-198.6c0-62.1,0-124.1,0-186.2c0-47.7,0-95.3,0-143c0-23,0-46,0-68.9
					c0-0.7,0-1.1,0-2.1S734-81,734-80C734-80,734-81,734-80z"/>
			</g>
		</g>
		<g>
			<g>
				<path class="st2" d="M677-80c0,0,0,33.6,0,50.4c0,43.6,0,87.1,0,130.7c0,60,0,120,0,180c0,66.2,0,132.4,0,198.6
					c0,62.1,0,124.1,0,186.2c0,47.7,0,95.3,0,143c0,23,0,46,0,68.9c0,0.7,0,1.2,0,2.2s1,1,1,0c0-17,0-33.7,0-50.5
					c0-43.6,0-87.1,0-130.7c0-60,0-120,0-180c0-66.2,0-132.4,0-198.6c0-62.1,0-124.1,0-186.2c0-47.7,0-95.3,0-143c0-23,0-46,0-68.9
					c0-0.7,0-1.1,0-2.1S677-81,677-80C677-80,677-81,677-80z"/>
			</g>
		</g>
		<g>
			<g>
				<path class="st2" d="M658-80c0,0,0,33.6,0,50.4c0,43.6,0,87.1,0,130.7c0,60,0,120,0,180c0,66.2,0,132.4,0,198.6
					c0,62.1,0,124.1,0,186.2c0,47.7,0,95.3,0,143c0,23,0,46,0,68.9c0,0.7,0,1.2,0,2.2s1,1,1,0c0-17,0-33.7,0-50.5
					c0-43.6,0-87.1,0-130.7c0-60,0-120,0-180c0-66.2,0-132.4,0-198.6c0-62.1,0-124.1,0-186.2c0-47.7,0-95.3,0-143c0-23,0-46,0-68.9
					c0-0.7,0-1.1,0-2.1S658-81,658-80C658-80,658-81,658-80z"/>
			</g>
		</g>
		<g>
			<g>
				<path class="st2" d="M640-80c0,0,0,33.6,0,50.4c0,43.6,0,87.1,0,130.7c0,60,0,120,0,180c0,66.2,0,132.4,0,198.6
					c0,62.1,0,124.1,0,186.2c0,47.7,0,95.3,0,143c0,23,0,46,0,68.9c0,0.7,0,1.2,0,2.2s1,1,1,0c0-17,0-33.7,0-50.5
					c0-43.6,0-87.1,0-130.7c0-60,0-120,0-180c0-66.2,0-132.4,0-198.6c0-62.1,0-124.1,0-186.2c0-47.7,0-95.3,0-143c0-23,0-46,0-68.9
					c0-0.7,0-1.1,0-2.1S640-81,640-80C640-80,640-81,640-80z"/>
			</g>
		</g>
		<g>
			<g>
				<path class="st2" d="M621-80c0,0,0,33.6,0,50.4c0,43.6,0,87.1,0,130.7c0,60,0,120,0,180c0,66.2,0,132.4,0,198.6
					c0,62.1,0,124.1,0,186.2c0,47.7,0,95.3,0,143c0,23,0,46,0,68.9c0,0.7,0,1.2,0,2.2s1,1,1,0c0-17,0-33.7,0-50.5
					c0-43.6,0-87.1,0-130.7c0-60,0-120,0-180c0-66.2,0-132.4,0-198.6c0-62.1,0-124.1,0-186.2c0-47.7,0-95.3,0-143c0-23,0-46,0-68.9
					c0-0.7,0-1.1,0-2.1S621-81,621-80C621-80,621-81,621-80z"/>
			</g>
		</g>
		<g>
			<g>
				<path class="st2" d="M602-80c0,0,0,33.6,0,50.4c0,43.6,0,87.1,0,130.7c0,60,0,120,0,180c0,66.2,0,132.4,0,198.6
					c0,62.1,0,124.1,0,186.2c0,47.7,0,95.3,0,143c0,23,0,46,0,68.9c0,0.7,0,1.2,0,2.2s1,1,1,0c0-17,0-33.7,0-50.5
					c0-43.6,0-87.1,0-130.7c0-60,0-120,0-180c0-66.2,0-132.4,0-198.6c0-62.1,0-124.1,0-186.2c0-47.7,0-95.3,0-143c0-23,0-46,0-68.9
					c0-0.7,0-1.1,0-2.1S602-81,602-80C602-80,602-81,602-80z"/>
			</g>
		</g>
		<g>
			<g>
				<path class="st2" d="M584-80c0,0,0,33.6,0,50.4c0,43.6,0,87.1,0,130.7c0,60,0,120,0,180c0,66.2,0,132.4,0,198.6
					c0,62.1,0,124.1,0,186.2c0,47.7,0,95.3,0,143c0,23,0,46,0,68.9c0,0.7,0,1.2,0,2.2s1,1,1,0c0-17,0-33.7,0-50.5
					c0-43.6,0-87.1,0-130.7c0-60,0-120,0-180c0-66.2,0-132.4,0-198.6c0-62.1,0-124.1,0-186.2c0-47.7,0-95.3,0-143c0-23,0-46,0-68.9
					c0-0.7,0-1.1,0-2.1S584-81,584-80C584-80,584-81,584-80z"/>
			</g>
		</g>
		<g>
			<g>
				<path class="st2" d="M545-80c0,0,0,33.6,0,50.4c0,43.6,0,87.1,0,130.7c0,60,0,120,0,180c0,66.2,0,132.4,0,198.6
					c0,62.1,0,124.1,0,186.2c0,47.7,0,95.3,0,143c0,23,0,46,0,68.9c0,0.7,0,1.2,0,2.2s1,1,1,0c0-17,0-33.7,0-50.5
					c0-43.6,0-87.1,0-130.7c0-60,0-120,0-180c0-66.2,0-132.4,0-198.6c0-62.1,0-124.1,0-186.2c0-47.7,0-95.3,0-143c0-23,0-46,0-68.9
					c0-0.7,0-1.1,0-2.1S545-81,545-80C545-80,545-81,545-80z"/>
			</g>
		</g>
		<g>
			<g>
				<path class="st2" d="M527-80c0,0,0,33.6,0,50.4c0,43.6,0,87.1,0,130.7c0,60,0,120,0,180c0,66.2,0,132.4,0,198.6
					c0,62.1,0,124.1,0,186.2c0,47.7,0,95.3,0,143c0,23,0,46,0,68.9c0,0.7,0,1.2,0,2.2s1,1,1,0c0-17,0-33.7,0-50.5
					c0-43.6,0-87.1,0-130.7c0-60,0-120,0-180c0-66.2,0-132.4,0-198.6c0-62.1,0-124.1,0-186.2c0-47.7,0-95.3,0-143c0-23,0-46,0-68.9
					c0-0.7,0-1.1,0-2.1S527-81,527-80C527-80,527-81,527-80z"/>
			</g>
		</g>
		<g>
			<g>
				<path class="st2" d="M508-80c0,0,0,33.6,0,50.4c0,43.6,0,87.1,0,130.7c0,60,0,120,0,180c0,66.2,0,132.4,0,198.6
					c0,62.1,0,124.1,0,186.2c0,47.7,0,95.3,0,143c0,23,0,46,0,68.9c0,0.7,0,1.2,0,2.2s1,1,1,0c0-17,0-33.7,0-50.5
					c0-43.6,0-87.1,0-130.7c0-60,0-120,0-180c0-66.2,0-132.4,0-198.6c0-62.1,0-124.1,0-186.2c0-47.7,0-95.3,0-143c0-23,0-46,0-68.9
					c0-0.7,0-1.1,0-2.1S508-81,508-80C508-80,508-81,508-80z"/>
			</g>
		</g>
		<g>
			<g>
				<path class="st2" d="M489-80c0,0,0,33.6,0,50.4c0,43.6,0,87.1,0,130.7c0,60,0,120,0,180c0,66.2,0,132.4,0,198.6
					c0,62.1,0,124.1,0,186.2c0,47.7,0,95.3,0,143c0,23,0,46,0,68.9c0,0.7,0,1.2,0,2.2s1,1,1,0c0-17,0-33.7,0-50.5
					c0-43.6,0-87.1,0-130.7c0-60,0-120,0-180c0-66.2,0-132.4,0-198.6c0-62.1,0-124.1,0-186.2c0-47.7,0-95.3,0-143c0-23,0-46,0-68.9
					c0-0.7,0-1.1,0-2.1S489-81,489-80C489-80,489-81,489-80z"/>
			</g>
		</g>
		<g>
			<g>
				<path class="st2" d="M470-80c0,0,0,33.6,0,50.4c0,43.6,0,87.1,0,130.7c0,60,0,120,0,180c0,66.2,0,132.4,0,198.6
					c0,62.1,0,124.1,0,186.2c0,47.7,0,95.3,0,143c0,23,0,46,0,68.9c0,0.7,0,1.2,0,2.2s1,1,1,0c0-17,0-33.7,0-50.5
					c0-43.6,0-87.1,0-130.7c0-60,0-120,0-180c0-66.2,0-132.4,0-198.6c0-62.1,0-124.1,0-186.2c0-47.7,0-95.3,0-143c0-23,0-46,0-68.9
					c0-0.7,0-1.1,0-2.1S470-81,470-80C470-80,470-81,470-80z"/>
			</g>
		</g>
		<g>
			<g>
				<path class="st2" d="M452-80c0,0,0,33.6,0,50.4c0,43.6,0,87.1,0,130.7c0,60,0,120,0,180c0,66.2,0,132.4,0,198.6
					c0,62.1,0,124.1,0,186.2c0,47.7,0,95.3,0,143c0,23,0,46,0,68.9c0,0.7,0,1.2,0,2.2s1,1,1,0c0-17,0-33.7,0-50.5
					c0-43.6,0-87.1,0-130.7c0-60,0-120,0-180c0-66.2,0-132.4,0-198.6c0-62.1,0-124.1,0-186.2c0-47.7,0-95.3,0-143c0-23,0-46,0-68.9
					c0-0.7,0-1.1,0-2.1S452-81,452-80C452-80,452-81,452-80z"/>
			</g>
		</g>
		<g>
			<g>
				<path class="st2" d="M413-80c0,0,0,33.6,0,50.4c0,43.6,0,87.1,0,130.7c0,60,0,120,0,180c0,66.2,0,132.4,0,198.6
					c0,62.1,0,124.1,0,186.2c0,47.7,0,95.3,0,143c0,23,0,46,0,68.9c0,0.7,0,1.2,0,2.2s1,1,1,0c0-17,0-33.7,0-50.5
					c0-43.6,0-87.1,0-130.7c0-60,0-120,0-180c0-66.2,0-132.4,0-198.6c0-62.1,0-124.1,0-186.2c0-47.7,0-95.3,0-143c0-23,0-46,0-68.9
					c0-0.7,0-1.1,0-2.1S413-81,413-80C413-80,413-81,413-80z"/>
			</g>
		</g>
		<g>
			<g>
				<path class="st2" d="M395-80c0,0,0,33.6,0,50.4c0,43.6,0,87.1,0,130.7c0,60,0,120,0,180c0,66.2,0,132.4,0,198.6
					c0,62.1,0,124.1,0,186.2c0,47.7,0,95.3,0,143c0,23,0,46,0,68.9c0,0.7,0,1.2,0,2.2s1,1,1,0c0-17,0-33.7,0-50.5
					c0-43.6,0-87.1,0-130.7c0-60,0-120,0-180c0-66.2,0-132.4,0-198.6c0-62.1,0-124.1,0-186.2c0-47.7,0-95.3,0-143c0-23,0-46,0-68.9
					c0-0.7,0-1.1,0-2.1S395-81,395-80C395-80,395-81,395-80z"/>
			</g>
		</g>
		<g>
			<g>
				<path class="st2" d="M376-80c0,0,0,33.6,0,50.4c0,43.6,0,87.1,0,130.7c0,60,0,120,0,180c0,66.2,0,132.4,0,198.6
					c0,62.1,0,124.1,0,186.2c0,47.7,0,95.3,0,143c0,23,0,46,0,68.9c0,0.7,0,1.2,0,2.2s1,1,1,0c0-17,0-33.7,0-50.5
					c0-43.6,0-87.1,0-130.7c0-60,0-120,0-180c0-66.2,0-132.4,0-198.6c0-62.1,0-124.1,0-186.2c0-47.7,0-95.3,0-143c0-23,0-46,0-68.9
					c0-0.7,0-1.1,0-2.1S376-81,376-80C376-80,376-81,376-80z"/>
			</g>
		</g>
		<g>
			<g>
				<path class="st2" d="M357-80c0,0,0,33.6,0,50.4c0,43.6,0,87.1,0,130.7c0,60,0,120,0,180c0,66.2,0,132.4,0,198.6
					c0,62.1,0,124.1,0,186.2c0,47.7,0,95.3,0,143c0,23,0,46,0,68.9c0,0.7,0,1.2,0,2.2s1,1,1,0c0-17,0-33.7,0-50.5
					c0-43.6,0-87.1,0-130.7c0-60,0-120,0-180c0-66.2,0-132.4,0-198.6c0-62.1,0-124.1,0-186.2c0-47.7,0-95.3,0-143c0-23,0-46,0-68.9
					c0-0.7,0-1.1,0-2.1S357-81,357-80C357-80,357-81,357-80z"/>
			</g>
		</g>
		<g>
			<g>
				<path class="st2" d="M339-80c0,0,0,33.6,0,50.4c0,43.6,0,87.1,0,130.7c0,60,0,120,0,180c0,66.2,0,132.4,0,198.6
					c0,62.1,0,124.1,0,186.2c0,47.7,0,95.3,0,143c0,23,0,46,0,68.9c0,0.7,0,1.2,0,2.2s1,1,1,0c0-17,0-33.7,0-50.5
					c0-43.6,0-87.1,0-130.7c0-60,0-120,0-180c0-66.2,0-132.4,0-198.6c0-62.1,0-124.1,0-186.2c0-47.7,0-95.3,0-143c0-23,0-46,0-68.9
					c0-0.7,0-1.1,0-2.1S339-81,339-80C339-80,339-81,339-80z"/>
			</g>
		</g>
		<g>
			<g>
				<path class="st2" d="M320-80c0,0,0,33.6,0,50.4c0,43.6,0,87.1,0,130.7c0,60,0,120,0,180c0,66.2,0,132.4,0,198.6
					c0,62.1,0,124.1,0,186.2c0,47.7,0,95.3,0,143c0,23,0,46,0,68.9c0,0.7,0,1.2,0,2.2s1,1,1,0c0-17,0-33.7,0-50.5
					c0-43.6,0-87.1,0-130.7c0-60,0-120,0-180c0-66.2,0-132.4,0-198.6c0-62.1,0-124.1,0-186.2c0-47.7,0-95.3,0-143c0-23,0-46,0-68.9
					c0-0.7,0-1.1,0-2.1S320-81,320-80C320-80,320-81,320-80z"/>
			</g>
		</g>
		<g>
			<g>
				<path class="st2" d="M263-80c0,0,0,33.6,0,50.4c0,43.6,0,87.1,0,130.7c0,60,0,120,0,180c0,66.2,0,132.4,0,198.6
					c0,62.1,0,124.1,0,186.2c0,47.7,0,95.3,0,143c0,23,0,46,0,68.9c0,0.7,0,1.2,0,2.2s1,1,1,0c0-17,0-33.7,0-50.5
					c0-43.6,0-87.1,0-130.7c0-60,0-120,0-180c0-66.2,0-132.4,0-198.6c0-62.1,0-124.1,0-186.2c0-47.7,0-95.3,0-143c0-23,0-46,0-68.9
					c0-0.7,0-1.1,0-2.1S263-81,263-80C263-80,263-81,263-80z"/>
			</g>
		</g>
		<g>
			<g>
				<path class="st2" d="M244-80c0,0,0,33.6,0,50.4c0,43.6,0,87.1,0,130.7c0,60,0,120,0,180c0,66.2,0,132.4,0,198.6
					c0,62.1,0,124.1,0,186.2c0,47.7,0,95.3,0,143c0,23,0,46,0,68.9c0,0.7,0,1.2,0,2.2s1,1,1,0c0-17,0-33.7,0-50.5
					c0-43.6,0-87.1,0-130.7c0-60,0-120,0-180c0-66.2,0-132.4,0-198.6c0-62.1,0-124.1,0-186.2c0-47.7,0-95.3,0-143c0-23,0-46,0-68.9
					c0-0.7,0-1.1,0-2.1S244-81,244-80C244-80,244-81,244-80z"/>
			</g>
		</g>
		<g>
			<g>
				<path class="st2" d="M226-80c0,0,0,33.6,0,50.4c0,43.6,0,87.1,0,130.7c0,60,0,120,0,180c0,66.2,0,132.4,0,198.6
					c0,62.1,0,124.1,0,186.2c0,47.7,0,95.3,0,143c0,23,0,46,0,68.9c0,0.7,0,1.2,0,2.2s1,1,1,0c0-17,0-33.7,0-50.5
					c0-43.6,0-87.1,0-130.7c0-60,0-120,0-180c0-66.2,0-132.4,0-198.6c0-62.1,0-124.1,0-186.2c0-47.7,0-95.3,0-143c0-23,0-46,0-68.9
					c0-0.7,0-1.1,0-2.1S226-81,226-80C226-80,226-81,226-80z"/>
			</g>
		</g>
		<g>
			<g>
				<path class="st2" d="M207-80c0,0,0,33.6,0,50.4c0,43.6,0,87.1,0,130.7c0,60,0,120,0,180c0,66.2,0,132.4,0,198.6
					c0,62.1,0,124.1,0,186.2c0,47.7,0,95.3,0,143c0,23,0,46,0,68.9c0,0.7,0,1.2,0,2.2s1,1,1,0c0-17,0-33.7,0-50.5
					c0-43.6,0-87.1,0-130.7c0-60,0-120,0-180c0-66.2,0-132.4,0-198.6c0-62.1,0-124.1,0-186.2c0-47.7,0-95.3,0-143c0-23,0-46,0-68.9
					c0-0.7,0-1.1,0-2.1S207-81,207-80C207-80,207-81,207-80z"/>
			</g>
		</g>
		<g>
			<g>
				<path class="st2" d="M188-80c0,0,0,33.6,0,50.4c0,43.6,0,87.1,0,130.7c0,60,0,120,0,180c0,66.2,0,132.4,0,198.6
					c0,62.1,0,124.1,0,186.2c0,47.7,0,95.3,0,143c0,23,0,46,0,68.9c0,0.7,0,1.2,0,2.2s1,1,1,0c0-17,0-33.7,0-50.5
					c0-43.6,0-87.1,0-130.7c0-60,0-120,0-180c0-66.2,0-132.4,0-198.6c0-62.1,0-124.1,0-186.2c0-47.7,0-95.3,0-143c0-23,0-46,0-68.9
					c0-0.7,0-1.1,0-2.1S188-81,188-80C188-80,188-81,188-80z"/>
			</g>
		</g>
		<g>
			<g>
				<path class="st2" d="M131-80c0,0,0,33.6,0,50.4c0,43.6,0,87.1,0,130.7c0,60,0,120,0,180c0,66.2,0,132.4,0,198.6
					c0,62.1,0,124.1,0,186.2c0,47.7,0,95.3,0,143c0,23,0,46,0,68.9c0,0.7,0,1.2,0,2.2s1,1,1,0c0-17,0-33.7,0-50.5
					c0-43.6,0-87.1,0-130.7c0-60,0-120,0-180c0-66.2,0-132.4,0-198.6c0-62.1,0-124.1,0-186.2c0-47.7,0-95.3,0-143c0-23,0-46,0-68.9
					c0-0.7,0-1.1,0-2.1S131-81,131-80C131-80,131-81,131-80z"/>
			</g>
		</g>
		<g>
			<g>
				<path class="st2" d="M112-80c0,0,0,33.6,0,50.4c0,43.6,0,87.1,0,130.7c0,60,0,120,0,180c0,66.2,0,132.4,0,198.6
					c0,62.1,0,124.1,0,186.2c0,47.7,0,95.3,0,143c0,23,0,46,0,68.9c0,0.7,0,1.2,0,2.2s1,1,1,0c0-17,0-33.7,0-50.5
					c0-43.6,0-87.1,0-130.7c0-60,0-120,0-180c0-66.2,0-132.4,0-198.6c0-62.1,0-124.1,0-186.2c0-47.7,0-95.3,0-143c0-23,0-46,0-68.9
					c0-0.7,0-1.1,0-2.1S112-81,112-80C112-80,112-81,112-80z"/>
			</g>
		</g>
		<g>
			<g>
				<path class="st2" d="M94-80c0,0,0,33.6,0,50.4c0,43.6,0,87.1,0,130.7c0,60,0,120,0,180c0,66.2,0,132.4,0,198.6
					c0,62.1,0,124.1,0,186.2c0,47.7,0,95.3,0,143c0,23,0,46,0,68.9c0,0.7,0,1.2,0,2.2s1,1,1,0c0-17,0-33.7,0-50.5
					c0-43.6,0-87.1,0-130.7c0-60,0-120,0-180c0-66.2,0-132.4,0-198.6c0-62.1,0-124.1,0-186.2c0-47.7,0-95.3,0-143c0-23,0-46,0-68.9
					c0-0.7,0-1.1,0-2.1S94-81,94-80C94-80,94-81,94-80z"/>
			</g>
		</g>
		<g>
			<g>
				<path class="st2" d="M75-80c0,0,0,33.6,0,50.4c0,43.6,0,87.1,0,130.7c0,60,0,120,0,180c0,66.2,0,132.4,0,198.6
					c0,62.1,0,124.1,0,186.2c0,47.7,0,95.3,0,143c0,23,0,46,0,68.9c0,0.7,0,1.2,0,2.2s1,1,1,0c0-17,0-33.7,0-50.5
					c0-43.6,0-87.1,0-130.7c0-60,0-120,0-180c0-66.2,0-132.4,0-198.6c0-62.1,0-124.1,0-186.2c0-47.7,0-95.3,0-143c0-23,0-46,0-68.9
					c0-0.7,0-1.1,0-2.1S75-81,75-80C75-80,75-81,75-80z"/>
			</g>
		</g>
		<g>
			<g>
				<path class="st2" d="M56-80c0,0,0,33.6,0,50.4c0,43.6,0,87.1,0,130.7c0,60,0,120,0,180c0,66.2,0,132.4,0,198.6
					c0,62.1,0,124.1,0,186.2c0,47.7,0,95.3,0,143c0,23,0,46,0,68.9c0,0.7,0,1.2,0,2.2s1,1,1,0c0-17,0-33.7,0-50.5
					c0-43.6,0-87.1,0-130.7c0-60,0-120,0-180c0-66.2,0-132.4,0-198.6c0-62.1,0-124.1,0-186.2c0-47.7,0-95.3,0-143c0-23,0-46,0-68.9
					c0-0.7,0-1.1,0-2.1S56-81,56-80C56-80,56-81,56-80z"/>
			</g>
		</g>
		<g>
			<g>
				<path class="st2" d="M38-80c0,0,0,33.6,0,50.4c0,43.6,0,87.1,0,130.7c0,60,0,120,0,180c0,66.2,0,132.4,0,198.6
					c0,62.1,0,124.1,0,186.2c0,47.7,0,95.3,0,143c0,23,0,46,0,68.9c0,0.7,0,1.2,0,2.2s1,1,1,0c0-17,0-33.7,0-50.5
					c0-43.6,0-87.1,0-130.7c0-60,0-120,0-180c0-66.2,0-132.4,0-198.6c0-62.1,0-124.1,0-186.2c0-47.7,0-95.3,0-143c0-23,0-46,0-68.9
					c0-0.7,0-1.1,0-2.1S38-81,38-80C38-80,38-81,38-80z"/>
			</g>
		</g>
		<g>
			<g>
				<path class="st2" d="M1204-80c0,0,0,33.6,0,50.4c0,43.6,0,87.1,0,130.7c0,60,0,120,0,180c0,66.2,0,132.4,0,198.6
					c0,62.1,0,124.1,0,186.2c0,47.7,0,95.3,0,143c0,23,0,46,0,68.9c0,0.7,0,1.2,0,2.2s1,1,1,0c0-17,0-33.7,0-50.5
					c0-43.6,0-87.1,0-130.7c0-60,0-120,0-180c0-66.2,0-132.4,0-198.6c0-62.1,0-124.1,0-186.2c0-47.7,0-95.3,0-143c0-23,0-46,0-68.9
					c0-0.7,0-1.1,0-2.1S1204-81,1204-80C1204-80,1204-81,1204-80z"/>
			</g>
		</g>
		<g>
			<g>
				<path class="st2" d="M1185-80c0,0,0,33.6,0,50.4c0,43.6,0,87.1,0,130.7c0,60,0,120,0,180c0,66.2,0,132.4,0,198.6
					c0,62.1,0,124.1,0,186.2c0,47.7,0,95.3,0,143c0,23,0,46,0,68.9c0,0.7,0,1.2,0,2.2s1,1,1,0c0-17,0-33.7,0-50.5
					c0-43.6,0-87.1,0-130.7c0-60,0-120,0-180c0-66.2,0-132.4,0-198.6c0-62.1,0-124.1,0-186.2c0-47.7,0-95.3,0-143c0-23,0-46,0-68.9
					c0-0.7,0-1.1,0-2.1S1185-81,1185-80C1185-80,1185-81,1185-80z"/>
			</g>
		</g>
		<g>
			<g>
				<path class="st2" d="M1167-80c0,0,0,33.6,0,50.4c0,43.6,0,87.1,0,130.7c0,60,0,120,0,180c0,66.2,0,132.4,0,198.6
					c0,62.1,0,124.1,0,186.2c0,47.7,0,95.3,0,143c0,23,0,46,0,68.9c0,0.7,0,1.2,0,2.2s1,1,1,0c0-17,0-33.7,0-50.5
					c0-43.6,0-87.1,0-130.7c0-60,0-120,0-180c0-66.2,0-132.4,0-198.6c0-62.1,0-124.1,0-186.2c0-47.7,0-95.3,0-143c0-23,0-46,0-68.9
					c0-0.7,0-1.1,0-2.1S1167-81,1167-80C1167-80,1167-81,1167-80z"/>
			</g>
		</g>
		<g>
			<g>
				<path class="st2" d="M1148-80c0,0,0,33.6,0,50.4c0,43.6,0,87.1,0,130.7c0,60,0,120,0,180c0,66.2,0,132.4,0,198.6
					c0,62.1,0,124.1,0,186.2c0,47.7,0,95.3,0,143c0,23,0,46,0,68.9c0,0.7,0,1.2,0,2.2s1,1,1,0c0-17,0-33.7,0-50.5
					c0-43.6,0-87.1,0-130.7c0-60,0-120,0-180c0-66.2,0-132.4,0-198.6c0-62.1,0-124.1,0-186.2c0-47.7,0-95.3,0-143c0-23,0-46,0-68.9
					c0-0.7,0-1.1,0-2.1S1148-81,1148-80C1148-80,1148-81,1148-80z"/>
			</g>
		</g>
		<g>
			<g>
				<path class="st2" d="M1091-80c0,0,0,33.6,0,50.4c0,43.6,0,87.1,0,130.7c0,60,0,120,0,180c0,66.2,0,132.4,0,198.6
					c0,62.1,0,124.1,0,186.2c0,47.7,0,95.3,0,143c0,23,0,46,0,68.9c0,0.7,0,1.2,0,2.2s1,1,1,0c0-17,0-33.7,0-50.5
					c0-43.6,0-87.1,0-130.7c0-60,0-120,0-180c0-66.2,0-132.4,0-198.6c0-62.1,0-124.1,0-186.2c0-47.7,0-95.3,0-143c0-23,0-46,0-68.9
					c0-0.7,0-1.1,0-2.1S1091-81,1091-80C1091-80,1091-81,1091-80z"/>
			</g>
		</g>
		<g>
			<g>
				<path class="st2" d="M1072-80c0,0,0,33.6,0,50.4c0,43.6,0,87.1,0,130.7c0,60,0,120,0,180c0,66.2,0,132.4,0,198.6
					c0,62.1,0,124.1,0,186.2c0,47.7,0,95.3,0,143c0,23,0,46,0,68.9c0,0.7,0,1.2,0,2.2s1,1,1,0c0-17,0-33.7,0-50.5
					c0-43.6,0-87.1,0-130.7c0-60,0-120,0-180c0-66.2,0-132.4,0-198.6c0-62.1,0-124.1,0-186.2c0-47.7,0-95.3,0-143c0-23,0-46,0-68.9
					c0-0.7,0-1.1,0-2.1S1072-81,1072-80C1072-80,1072-81,1072-80z"/>
			</g>
		</g>
		<g>
			<g>
				<path class="st2" d="M1054-80c0,0,0,33.6,0,50.4c0,43.6,0,87.1,0,130.7c0,60,0,120,0,180c0,66.2,0,132.4,0,198.6
					c0,62.1,0,124.1,0,186.2c0,47.7,0,95.3,0,143c0,23,0,46,0,68.9c0,0.7,0,1.2,0,2.2s1,1,1,0c0-17,0-33.7,0-50.5
					c0-43.6,0-87.1,0-130.7c0-60,0-120,0-180c0-66.2,0-132.4,0-198.6c0-62.1,0-124.1,0-186.2c0-47.7,0-95.3,0-143c0-23,0-46,0-68.9
					c0-0.7,0-1.1,0-2.1S1054-81,1054-80C1054-80,1054-81,1054-80z"/>
			</g>
		</g>
		<g>
			<g>
				<path class="st2" d="M1035-80c0,0,0,33.6,0,50.4c0,43.6,0,87.1,0,130.7c0,60,0,120,0,180c0,66.2,0,132.4,0,198.6
					c0,62.1,0,124.1,0,186.2c0,47.7,0,95.3,0,143c0,23,0,46,0,68.9c0,0.7,0,1.2,0,2.2s1,1,1,0c0-17,0-33.7,0-50.5
					c0-43.6,0-87.1,0-130.7c0-60,0-120,0-180c0-66.2,0-132.4,0-198.6c0-62.1,0-124.1,0-186.2c0-47.7,0-95.3,0-143c0-23,0-46,0-68.9
					c0-0.7,0-1.1,0-2.1S1035-81,1035-80C1035-80,1035-81,1035-80z"/>
			</g>
		</g>
		<g>
			<g>
				<path class="st2" d="M1016-80c0,0,0,33.6,0,50.4c0,43.6,0,87.1,0,130.7c0,60,0,120,0,180c0,66.2,0,132.4,0,198.6
					c0,62.1,0,124.1,0,186.2c0,47.7,0,95.3,0,143c0,23,0,46,0,68.9c0,0.7,0,1.2,0,2.2s1,1,1,0c0-17,0-33.7,0-50.5
					c0-43.6,0-87.1,0-130.7c0-60,0-120,0-180c0-66.2,0-132.4,0-198.6c0-62.1,0-124.1,0-186.2c0-47.7,0-95.3,0-143c0-23,0-46,0-68.9
					c0-0.7,0-1.1,0-2.1S1016-81,1016-80C1016-80,1016-81,1016-80z"/>
			</g>
		</g>
		<g>
			<g>
				<path class="st2" d="M998-80c0,0,0,33.6,0,50.4c0,43.6,0,87.1,0,130.7c0,60,0,120,0,180c0,66.2,0,132.4,0,198.6
					c0,62.1,0,124.1,0,186.2c0,47.7,0,95.3,0,143c0,23,0,46,0,68.9c0,0.7,0,1.2,0,2.2s1,1,1,0c0-17,0-33.7,0-50.5
					c0-43.6,0-87.1,0-130.7c0-60,0-120,0-180c0-66.2,0-132.4,0-198.6c0-62.1,0-124.1,0-186.2c0-47.7,0-95.3,0-143c0-23,0-46,0-68.9
					c0-0.7,0-1.1,0-2.1S998-81,998-80C998-80,998-81,998-80z"/>
			</g>
		</g>
		<g>
			<g>
				<path class="st2" d="M959-80c0,0,0,33.6,0,50.4c0,43.6,0,87.1,0,130.7c0,60,0,120,0,180c0,66.2,0,132.4,0,198.6
					c0,62.1,0,124.1,0,186.2c0,47.7,0,95.3,0,143c0,23,0,46,0,68.9c0,0.7,0,1.2,0,2.2s1,1,1,0c0-17,0-33.7,0-50.5
					c0-43.6,0-87.1,0-130.7c0-60,0-120,0-180c0-66.2,0-132.4,0-198.6c0-62.1,0-124.1,0-186.2c0-47.7,0-95.3,0-143c0-23,0-46,0-68.9
					c0-0.7,0-1.1,0-2.1S959-81,959-80C959-80,959-81,959-80z"/>
			</g>
		</g>
		<g>
			<g>
				<path class="st2" d="M941-80c0,0,0,33.6,0,50.4c0,43.6,0,87.1,0,130.7c0,60,0,120,0,180c0,66.2,0,132.4,0,198.6
					c0,62.1,0,124.1,0,186.2c0,47.7,0,95.3,0,143c0,23,0,46,0,68.9c0,0.7,0,1.2,0,2.2s1,1,1,0c0-17,0-33.7,0-50.5
					c0-43.6,0-87.1,0-130.7c0-60,0-120,0-180c0-66.2,0-132.4,0-198.6c0-62.1,0-124.1,0-186.2c0-47.7,0-95.3,0-143c0-23,0-46,0-68.9
					c0-0.7,0-1.1,0-2.1S941-81,941-80C941-80,941-81,941-80z"/>
			</g>
		</g>
		<g>
			<g>
				<path class="st2" d="M922-80c0,0,0,33.6,0,50.4c0,43.6,0,87.1,0,130.7c0,60,0,120,0,180c0,66.2,0,132.4,0,198.6
					c0,62.1,0,124.1,0,186.2c0,47.7,0,95.3,0,143c0,23,0,46,0,68.9c0,0.7,0,1.2,0,2.2s1,1,1,0c0-17,0-33.7,0-50.5
					c0-43.6,0-87.1,0-130.7c0-60,0-120,0-180c0-66.2,0-132.4,0-198.6c0-62.1,0-124.1,0-186.2c0-47.7,0-95.3,0-143c0-23,0-46,0-68.9
					c0-0.7,0-1.1,0-2.1S922-81,922-80C922-80,922-81,922-80z"/>
			</g>
		</g>
		<g>
			<g>
				<path class="st2" d="M903-80c0,0,0,33.6,0,50.4c0,43.6,0,87.1,0,130.7c0,60,0,120,0,180c0,66.2,0,132.4,0,198.6
					c0,62.1,0,124.1,0,186.2c0,47.7,0,95.3,0,143c0,23,0,46,0,68.9c0,0.7,0,1.2,0,2.2s1,1,1,0c0-17,0-33.7,0-50.5
					c0-43.6,0-87.1,0-130.7c0-60,0-120,0-180c0-66.2,0-132.4,0-198.6c0-62.1,0-124.1,0-186.2c0-47.7,0-95.3,0-143c0-23,0-46,0-68.9
					c0-0.7,0-1.1,0-2.1S903-81,903-80C903-80,903-81,903-80z"/>
			</g>
		</g>
		<g>
			<g>
				<path class="st2" d="M884-80c0,0,0,33.6,0,50.4c0,43.6,0,87.1,0,130.7c0,60,0,120,0,180c0,66.2,0,132.4,0,198.6
					c0,62.1,0,124.1,0,186.2c0,47.7,0,95.3,0,143c0,23,0,46,0,68.9c0,0.7,0,1.2,0,2.2s1,1,1,0c0-17,0-33.7,0-50.5
					c0-43.6,0-87.1,0-130.7c0-60,0-120,0-180c0-66.2,0-132.4,0-198.6c0-62.1,0-124.1,0-186.2c0-47.7,0-95.3,0-143c0-23,0-46,0-68.9
					c0-0.7,0-1.1,0-2.1S884-81,884-80C884-80,884-81,884-80z"/>
			</g>
		</g>
		<g>
			<g>
				<path class="st2" d="M866-80c0,0,0,33.6,0,50.4c0,43.6,0,87.1,0,130.7c0,60,0,120,0,180c0,66.2,0,132.4,0,198.6
					c0,62.1,0,124.1,0,186.2c0,47.7,0,95.3,0,143c0,23,0,46,0,68.9c0,0.7,0,1.2,0,2.2s1,1,1,0c0-17,0-33.7,0-50.5
					c0-43.6,0-87.1,0-130.7c0-60,0-120,0-180c0-66.2,0-132.4,0-198.6c0-62.1,0-124.1,0-186.2c0-47.7,0-95.3,0-143c0-23,0-46,0-68.9
					c0-0.7,0-1.1,0-2.1S866-81,866-80C866-80,866-81,866-80z"/>
			</g>
		</g>
		<g>
			<g>
				<path class="st2" d="M827-80c0,0,0,33.6,0,50.4c0,43.6,0,87.1,0,130.7c0,60,0,120,0,180c0,66.2,0,132.4,0,198.6
					c0,62.1,0,124.1,0,186.2c0,47.7,0,95.3,0,143c0,23,0,46,0,68.9c0,0.7,0,1.2,0,2.2s1,1,1,0c0-17,0-33.7,0-50.5
					c0-43.6,0-87.1,0-130.7c0-60,0-120,0-180c0-66.2,0-132.4,0-198.6c0-62.1,0-124.1,0-186.2c0-47.7,0-95.3,0-143c0-23,0-46,0-68.9
					c0-0.7,0-1.1,0-2.1S827-81,827-80C827-80,827-81,827-80z"/>
			</g>
		</g>
		<g>
			<g>
				<path class="st2" d="M809-80c0,0,0,33.6,0,50.4c0,43.6,0,87.1,0,130.7c0,60,0,120,0,180c0,66.2,0,132.4,0,198.6
					c0,62.1,0,124.1,0,186.2c0,47.7,0,95.3,0,143c0,23,0,46,0,68.9c0,0.7,0,1.2,0,2.2s1,1,1,0c0-17,0-33.7,0-50.5
					c0-43.6,0-87.1,0-130.7c0-60,0-120,0-180c0-66.2,0-132.4,0-198.6c0-62.1,0-124.1,0-186.2c0-47.7,0-95.3,0-143c0-23,0-46,0-68.9
					c0-0.7,0-1.1,0-2.1S809-81,809-80C809-80,809-81,809-80z"/>
			</g>
		</g>
		<g>
			<g>
				<g>
					<path class="st2" d="M1241-80c0,0,0,33.6,0,50.4c0,43.6,0,87.1,0,130.7c0,60,0,120,0,180c0,66.2,0,132.4,0,198.6
						c0,62.1,0,124.1,0,186.2c0,47.7,0,95.3,0,143c0,23,0,46,0,68.9c0,0.7,0,1.2,0,2.2s1,1,1,0c0-17,0-33.7,0-50.5
						c0-43.6,0-87.1,0-130.7c0-60,0-120,0-180c0-66.2,0-132.4,0-198.6c0-62.1,0-124.1,0-186.2c0-47.7,0-95.3,0-143c0-23,0-46,0-68.9
						c0-0.7,0-1.1,0-2.1S1241-81,1241-80C1241-80,1241-81,1241-80z"/>
				</g>
			</g>
			<g>
				<g>
					<path class="st2" d="M1223-80c0,0,0,33.6,0,50.4c0,43.6,0,87.1,0,130.7c0,60,0,120,0,180c0,66.2,0,132.4,0,198.6
						c0,62.1,0,124.1,0,186.2c0,47.7,0,95.3,0,143c0,23,0,46,0,68.9c0,0.7,0,1.2,0,2.2s1,1,1,0c0-17,0-33.7,0-50.5
						c0-43.6,0-87.1,0-130.7c0-60,0-120,0-180c0-66.2,0-132.4,0-198.6c0-62.1,0-124.1,0-186.2c0-47.7,0-95.3,0-143c0-23,0-46,0-68.9
						c0-0.7,0-1.1,0-2.1S1223-81,1223-80C1223-80,1223-81,1223-80z"/>
				</g>
			</g>
		</g>
	</g>
</g>
<g>
	<path class="st0" d="M1158,410H121c-1.4,0-2.5-1.1-2.5-2.5s1.1-2.5,2.5-2.5h1037c1.4,0,2.5,1.1,2.5,2.5S1159.4,410,1158,410z"/>
</g>
<g>
	<g>
		<path class="st3" d="M209.1,151.2c0.1,0.1,0.1,0.2,0.1,0.4c0,0.3-0.1,0.5-0.2,0.6c-0.2,0.2-0.4,0.3-0.6,0.3c-0.2,0-0.4,0-0.5-0.1
			c-0.1-0.1-0.2-0.2-0.4-0.5L205,148l-2.6,4.1c-0.2,0.3-0.4,0.4-0.7,0.4c-0.3,0-0.5-0.1-0.6-0.2s-0.3-0.4-0.3-0.6
			c0-0.1,0-0.3,0.1-0.4l3.1-4.7l-2.9-4.4c-0.1-0.1-0.1-0.2-0.1-0.4c0-0.2,0.1-0.4,0.2-0.6s0.4-0.3,0.6-0.3c0.3,0,0.5,0.1,0.6,0.3
			c0.1,0.2,0.3,0.3,0.4,0.5l2.3,3.5l2.4-3.7c0.1-0.2,0.2-0.3,0.3-0.4c0.1-0.1,0.3-0.2,0.5-0.2s0.4,0.1,0.6,0.2
			c0.2,0.2,0.3,0.4,0.3,0.6c0,0.1,0,0.1,0,0.2c0,0.1,0,0.1-0.1,0.2l-2.9,4.4L209.1,151.2z"/>
	</g>
	<g>
		<path class="st3" d="M538.1,151.2c0.1,0.1,0.1,0.2,0.1,0.4c0,0.3-0.1,0.5-0.2,0.6c-0.2,0.2-0.4,0.3-0.6,0.3c-0.2,0-0.4,0-0.5-0.1
			c-0.1-0.1-0.2-0.2-0.4-0.5L534,148l-2.6,4.1c-0.2,0.3-0.4,0.4-0.7,0.4c-0.3,0-0.5-0.1-0.6-0.2s-0.3-0.4-0.3-0.6
			c0-0.1,0-0.3,0.1-0.4l3.1-4.7l-2.9-4.4c-0.1-0.1-0.1-0.2-0.1-0.4c0-0.2,0.1-0.4,0.2-0.6s0.4-0.3,0.6-0.3c0.3,0,0.5,0.1,0.6,0.3
			c0.1,0.2,0.3,0.3,0.4,0.5l2.3,3.5l2.4-3.7c0.1-0.2,0.2-0.3,0.3-0.4c0.1-0.1,0.3-0.2,0.5-0.2s0.4,0.1,0.6,0.2
			c0.2,0.2,0.3,0.4,0.3,0.6c0,0.1,0,0.1,0,0.2c0,0.1,0,0.1-0.1,0.2l-2.9,4.4L538.1,151.2z"/>
	</g>
	<g>
		<path class="st3" d="M271.8,362.7c0.1,0.1,0.1,0.2,0.1,0.4c0,0.3-0.1,0.5-0.2,0.6c-0.2,0.2-0.4,0.3-0.6,0.3c-0.2,0-0.4,0-0.5-0.1
			c-0.1-0.1-0.2-0.2-0.4-0.5l-2.5-3.9l-2.6,4.1c-0.2,0.3-0.4,0.4-0.7,0.4c-0.3,0-0.5-0.1-0.6-0.2s-0.3-0.4-0.3-0.6
			c0-0.1,0-0.3,0.1-0.4l3.1-4.7l-2.9-4.4c-0.1-0.1-0.1-0.2-0.1-0.4c0-0.2,0.1-0.4,0.2-0.6c0.2-0.2,0.4-0.3,0.6-0.3
			c0.3,0,0.5,0.1,0.6,0.3c0.1,0.2,0.3,0.3,0.4,0.5l2.3,3.5l2.4-3.7c0.1-0.2,0.2-0.3,0.3-0.4c0.1-0.1,0.3-0.2,0.5-0.2
			s0.4,0.1,0.6,0.2c0.2,0.2,0.3,0.4,0.3,0.6c0,0.1,0,0.1,0,0.2c0,0.1,0,0.1-0.1,0.2l-2.9,4.4L271.8,362.7z"/>
	</g>
	<g>
		<g>
			<path class="st0" d="M557.2,306.9c-1.7-1.7-1.9-2.4-1.9-2.5c-0.1-0.3-0.3-1.4-0.3-4.1V181.6c0-4.8-1.9-9-5.6-12.3
				c-3.6-3.2-8.1-4.9-13.2-4.9c-5.2,0-9.8,1.7-13.4,5c-3.7,3.4-5.7,7.5-5.7,12.2V303c0,6.3,1,11.2,2.5,15.1c1.6,4,3.7,7.1,6.2,9.3
				c2.5,2.2,5.4,3.7,8.5,4.4c2.7,0.6,5.4,0.8,7.8,0.8c5.8,0,10.6-1.2,14.1-3.6c3.9-2.6,6-6.7,6-11.9c0-2.9-0.6-5.1-1.8-6.7
				C559.5,309.4,558.5,308.2,557.2,306.9z"/>
		</g>
		<g>
			<path class="st0" d="M227.9,306.9c-1.7-1.7-1.8-2.4-1.8-2.5c-0.1-0.3-0.1-1.4-0.1-4.1V181.6c0-4.8-2.1-9-5.8-12.3
				c-3.6-3.2-8.1-4.9-13.3-4.9c-5.2,0-9.7,1.7-13.3,5c-3.7,3.4-5.6,7.5-5.6,12.2V303c0,6.3,0.8,11.2,2.4,15.1c1.6,4,3.7,7.1,6.1,9.3
				c2.5,2.2,5.4,3.7,8.5,4.4c2.7,0.6,5.4,0.8,7.8,0.8c5.8,0,10.6-1.2,14.1-3.6c3.9-2.6,6-6.7,6-11.9c0-2.9-0.6-5.1-1.8-6.7
				C230.2,309.4,229.2,308.2,227.9,306.9z"/>
		</g>
		<g>
			<path class="st0" d="M284.1,171.6c-4-3.6-8.9-5.4-14.6-5.4s-10.7,1.8-14.6,5.4c-4.1,3.7-6.1,8.3-6.1,13.5c0,5.3,2.1,9.8,6.1,13.5
				c4,3.6,8.9,5.4,14.6,5.4s10.7-1.8,14.6-5.4c4.1-3.7,6.1-8.3,6.1-13.5C290.2,179.8,288.1,175.3,284.1,171.6z"/>
		</g>
		<g>
			<path class="st0" d="M282.5,216.1c-3.6-3.2-8-4.9-13.1-4.9c-5.1,0-9.4,1.6-13,4.9c-3.7,3.3-5.4,7.4-5.4,12.1v87.1
				c0,4.9,1.7,9,5.4,12.3c3.6,3.2,8,4.9,13.1,4.9c5.1,0,9.4-1.6,13-4.9c3.7-3.3,5.4-7.5,5.4-12.3v-87.1
				C288,223.5,286.2,219.5,282.5,216.1z"/>
		</g>
		<g>
			<path class="st0" d="M395.4,215.7c-3.6-2.9-7.8-4.4-12.6-4.4c-3.6,0-7,1-10.4,3c-3.5,2.1-5.9,5.1-7.2,8.8l-11.5,37.1
				c-1.7,5.7-3,11.4-3.9,17.1c-1-5.7-2.4-11.4-4.2-17.2l-12.2-37.2c-1.3-3.7-3.7-6.7-7.1-8.8c-3.3-2-6.8-3.1-10.4-3.1
				c-4.8,0-9.2,1.5-12.9,4.4c-3.9,3.1-6,7.3-6,12.3v1.8c0,1,0.4,2.1,0.8,3.2l30.8,84.4c1.8,5.2,4.4,9.1,7.6,11.5
				c3.3,2.5,7.8,3.8,13.4,3.8c5.5,0,10-1.3,13.2-4c3-2.5,5.6-6.5,7.6-11.8l30.1-83.8c0.4-1.1,0.5-2.2,0.5-3.2V228
				C401,223,399.2,218.8,395.4,215.7z"/>
		</g>
		<g>
			<path class="st0" d="M449.9,288.5c2.7,0.2,5.5,0.3,8.6,0.3c15.8,0,27.6-3.3,35-9.7c7.5-6.6,11.4-15.8,11.4-27.4
				c0-12.1-4-22.1-11.8-29.7c-7.8-7.6-19.6-11.4-35.1-11.4c-8,0-15.2,1.1-21.5,3.2c-6.3,2.1-11.7,5.2-16,9
				c-4.4,3.9-7.9,8.5-10.1,13.8c-2.2,5.2-3.5,10.9-3.5,16.9v36.9c0,5.9,1.3,11.5,3.6,16.7c2.3,5.2,5.7,9.7,9.9,13.5
				c4.2,3.8,9.5,6.7,15.6,8.9c6,2.1,13,3.2,20.8,3.2c3.6,0,8-0.3,13-0.9c5.1-0.6,10-1.7,14.6-3.2c4.8-1.6,9-3.8,12.4-6.6
				c3.9-3.2,5.9-7.3,5.9-12.2c0-1.7-0.3-3.4-0.8-5.1c-0.6-1.8-1.6-3.6-2.9-5.1c-1.4-1.5-3.2-2.8-5.4-3.9c-2.2-1-4.9-1.5-8.1-1.5
				c-2.3,0-4,0.2-5.4,0.6c-1.2,0.4-2.2,0.7-2.9,1.2c-3.3,1.5-6.4,2.6-9.2,3.4c-2.8,0.7-5.8,1.1-9.1,1.1c-5.2,0-9-0.9-11.2-2.6
				c-2-1.5-2.9-3.5-2.9-6.3V288C447,288.2,448.4,288.3,449.9,288.5z M445,258.4v-6.3c0-3.4,1-6,3-7.9c2.1-2,5.4-2.9,9.8-2.9
				c3.4,0,6,0.7,7.6,2.1c1.4,1.2,2.2,3.5,2.2,6.8c0,3.5-0.7,5.8-2.2,6.9c-1.8,1.3-4.5,2-8,2c-1.1,0-3.1-0.1-6-0.2
				C449.4,258.7,447,258.6,445,258.4z"/>
		</g>
		<g>
			<path class="st0" d="M663.8,215.8c-3.8-3-8.1-4.5-12.7-4.5c-3.5,0-7,0.9-10.3,2.6c-3.6,1.9-6.1,5-7.5,9.1l-11.9,37.1
				c-1.2,3.6-2.2,7.3-3.1,11.2c-1-4-2.2-7.8-3.6-11.4l-13.9-37.2c-1.5-3.8-3.9-6.8-7.1-8.7c-3.1-1.9-6.5-2.8-10.1-2.8
				c-5.1,0-9.5,1.5-13.1,4.4c-3.8,3.1-5.7,7.2-5.7,12.1c0,0.9,0.1,1.9,0.3,3c0.2,1.1,0.5,2.3,1.1,3.8l33.6,86.7
				c-2.4,7.7-4.9,13.2-7.4,16.4c-2.2,2.9-5.2,4.5-9.1,4.7c-5.4,0.3-9.8,2.1-13,5.3c-3.2,3.2-4.9,7.1-4.9,11.4c0,4.9,1.9,9,5.7,12.2
				c3.6,3,8.1,4.6,13.3,4.6c9,0,16.6-1.7,22.6-5c6-3.3,11.1-7.9,15.3-13.8c4.1-5.7,7.6-12.5,10.6-20.2c2.9-7.6,5.9-15.9,9-24.9
				l26.9-78.6c0.6-1.5,0.9-3.2,0.9-5.2C669.9,223.2,667.8,219,663.8,215.8z"/>
		</g>
		<g>
			<path class="st0" d="M809.8,166.2c0-1-0.1-2-0.2-2.9c-0.1-1.6-0.5-3.2-1-4.8c0-0.1-0.1-0.2-0.1-0.3c0,0,0-0.1,0-0.1
				c-0.8-2.4-2.1-4.8-3.6-6.8c0,0,0-0.1-0.1-0.1c-3.2-3.9-7.6-6.4-12.8-6.3c-1.6-0.1-3.3,0.1-4.9,0.6l-11.6,3.9
				c-0.5,0.2-1,0.3-1.4,0.5c-2.6,0.5-5.4,0.2-7.5-1c-2.9-1.6-4-5.7-4-8.8l0.1-12.2c0-2-0.5-4-1.2-5.9c-2.1-4.9-6.2-8.4-11.2-10
				c-2-0.6-4.2-0.8-6.3-0.8h0c-2.1,0-4.2,0.3-6.3,0.9c-5,1.6-9.3,4.7-11.2,9.9c-0.8,1.8-1.2,3.9-1.2,5.9l0.1,12.3
				c0,3.3-1.2,6.8-4,8.8c-2.1,1.2-4.9,1.5-7.5,1c-0.5-0.1-0.9-0.3-1.4-0.5l-11.6-3.9c-1.6-0.5-3.3-0.7-4.9-0.6
				c-5.2-0.1-9.6,2.5-12.8,6.3c0,0,0,0.1-0.1,0.1c-0.4,0.6-0.8,1.2-1.2,1.8c-2,3-3.2,6.7-3.5,10.2c-0.2,1.9-0.5,4.2,0,6
				c0.4,1.6,1.1,3.3,1.9,4.7c0.9,1.6,2.1,2.9,3.4,4c0.6,0.5,1.3,1,2,1.4c1.1,0.7,2.2,1.3,3.5,1.8c0,0,11.6,3.7,11.7,3.7
				c2.6,0.8,5.1,2.7,6.5,5.1c0,0,0,0.1,0.1,0.1c1.5,2.8,0.9,6.7-0.9,9.2c-0.2,0.3-0.5,0.7-0.7,1l-7.3,9.8c-1.3,1.7-1.8,3.7-2.3,5.8
				c-0.2,0.9-0.2,1.8-0.2,2.7c0,0.1,0,0.1,0,0.2c-1,3.3,0.8,7.2,2.7,9.9c0,0-0.1,0.1,0,0.1c0.5,0.7,1.1,1.5,1.7,2.2
				c0.9,1,1.9,2,3,2.8c0.1,0.1,0.2,0.1,0.3,0.2c2,1.5,4.2,3,6.7,3.5c0.2,0.1,0.5,0.1,0.8,0.2c1.2,0.4,2.4,0.6,3.7,0.7
				c1.6,0.1,3.3,0,4.9-0.4c0.1,0,0.2,0.1,0.3,0.1c0.1,0,0.1,0.1,0.2,0.1h0c1.9-1,3.7-1.5,5.3-2.8c1.1-0.9,2.2-1.9,3.1-3.1
				c0.1-0.1,0.1-0.2,0.2-0.3l6.4-9.1c0.4-0.6,0.8-1.1,1.3-1.7c2-2.2,4.7-3.8,7.4-4c2.7,0.2,5.4,1.7,7.4,4c0.4,0.6,0.8,1.1,1.3,1.7
				l6.4,9c0.1,0.1,0.1,0.2,0.2,0.3c0.9,1.2,2,2.2,3.1,3.1c1.6,1.3,3.4,1.8,5.3,2.8h0c1.8,0,3.6,0.4,5.4,0.3c3.5-0.3,6.9-1.5,9.8-3.5
				c1.3-0.9,2.6-2,3.7-3.1c0,0,0-0.1,0.1-0.1c0.9-0.9,1.8-2,2.5-3.1c0,0,0-0.1,0.1-0.1c2.6-3.6,3.4-8.5,2.5-12.8c0-0.1,0-0.1,0-0.2
				s0-0.1,0-0.2c-0.5-1.9-1.2-3.8-2.4-5.4c0,0-7.3-9.8-7.3-9.8c-0.2-0.4-0.5-0.7-0.7-1c-1.6-2.7-2.5-6.2-0.9-9.2
				c1.2-2.2,3.4-4.1,5.8-4.9c4.1-1.4,8.3-2.6,12.4-3.9c1.3-0.4,2.5-1,3.5-1.8c0.7-0.4,1.4-0.9,2-1.4c1.3-1.1,2.5-2.4,3.4-4
				c0.8-1.5,1.5-3.1,1.9-4.7C809.8,168.3,809.9,167.2,809.8,166.2z"/>
		</g>
	</g>
	<g>
		<path class="st3" d="M746.2,96.2c0.1,0.1,0.1,0.2,0.1,0.4c0,0.3-0.1,0.5-0.2,0.6c-0.2,0.2-0.4,0.3-0.7,0.3c-0.2,0-0.4,0-0.5-0.1
			c-0.1-0.1-0.2-0.2-0.4-0.5L742,93l-2.6,4.1c-0.2,0.3-0.4,0.4-0.7,0.4c-0.3,0-0.5-0.1-0.6-0.2s-0.3-0.4-0.3-0.6
			c0-0.1,0-0.3,0.1-0.4l3.1-4.7l-2.9-4.4c-0.1-0.1-0.1-0.2-0.1-0.4c0-0.2,0.1-0.4,0.2-0.6s0.4-0.3,0.6-0.3s0.5,0.1,0.6,0.3
			c0.1,0.2,0.3,0.3,0.4,0.5l2.3,3.5l2.4-3.7c0.1-0.2,0.2-0.3,0.3-0.4c0.1-0.1,0.3-0.2,0.5-0.2s0.4,0.1,0.6,0.2s0.3,0.4,0.3,0.6
			c0,0.1,0,0.1,0,0.2c0,0.1,0,0.1-0.1,0.2l-2.9,4.4L746.2,96.2z"/>
	</g>
	<g>
		<g>
			<rect x="726" y="103" class="st4" width="36" height="2"/>
		</g>
		<g>
			<g>
				<rect x="725" y="97" class="st4" width="2" height="13"/>
			</g>
		</g>
		<g>
			<g>
				<rect x="761" y="97" class="st4" width="2" height="13"/>
			</g>
		</g>
	</g>
	<g>
		<g>
			<rect x="518" y="156" class="st4" width="36" height="2"/>
		</g>
		<g>
			<g>
				<rect x="517" y="150" class="st4" width="2" height="13"/>
			</g>
		</g>
		<g>
			<g>
				<rect x="553" y="150" class="st4" width="2" height="13"/>
			</g>
		</g>
	</g>
	<g>
		<g>
			<rect x="189" y="156" class="st4" width="36" height="2"/>
		</g>
		<g>
			<g>
				<rect x="188" y="150" class="st4" width="2" height="13"/>
			</g>
		</g>
		<g>
			<g>
				<rect x="224" y="150" class="st4" width="2" height="13"/>
			</g>
		</g>
	</g>
	<g>
		<g>
			<rect x="252" y="341" class="st4" width="36" height="2"/>
		</g>
		<g>
			<g>
				<rect x="251" y="335" class="st4" width="2" height="13"/>
			</g>
		</g>
		<g>
			<g>
				<rect x="287" y="335" class="st4" width="2" height="13"/>
			</g>
		</g>
	</g>
	<g>
		<path class="st3" d="M725,142.1v-14.7c0-4.6,1.8-8.5,5.5-11.9c3.6-3.4,8.1-5.1,13.4-5.1c5.3,0,9.8,1.6,13.4,4.9
			c3.6,3.3,5.5,7.3,5.5,12v14.7H725z"/>
	</g>
	<g>
		<path class="st3" d="M520.9,195.8v-14.3c0-3.7,1.5-6.9,4.4-9.6c2.9-2.7,6.6-4.1,10.8-4.1c4.3,0,7.9,1.3,10.8,4
			c2.9,2.7,4.4,5.9,4.4,9.7v14.3H520.9z"/>
	</g>
	<g>
		<path class="st3" d="M517.2,196.2v-14.7c0-4.6,1.8-8.5,5.5-11.9c3.6-3.4,8.1-5.1,13.4-5.1c5.3,0,9.8,1.6,13.4,4.9
			c3.6,3.3,5.5,7.3,5.5,12v14.7H517.2z"/>
	</g>
</g>
<g>
	<g>
		<path class="st4" d="M1073,496h-2v-3h2V496z M1073,490h-2v-3h2V490z M1073,484h-2v-3h2V484z M1073,478h-2v-3h2V478z M1073,472h-2
			v-3h2V472z M1073,466h-2v-3h2V466z M1073,460h-2v-3h2V460z M1073,454h-2v-3h2V454z M1073,448h-2v-3h2V448z M1073,442h-2v-3h2V442z
			 M1073,436h-2v-3h2V436z M1073,430h-2v-3h2V430z M1073,424h-2v-2h2V424z"/>
	</g>
	<g>
		<path class="st4" d="M1073,497h-3v-2h3V497z M1067,497h-3v-2h3V497z M1061,497h-3v-2h3V497z M1055,497h-3v-2h3V497z M1049,497h-3
			v-2h3V497z M1043,497h-3v-2h3V497z M1037,497h-3v-2h3V497z M1031,497h-3v-2h3V497z M1025,497h-3v-2h3V497z M1019,497h-3v-2h3V497z
			 M1013,497h-3v-2h3V497z M1007,497h-3v-2h3V497z M1001,497h-2v-2h2V497z"/>
	</g>
	<g>
		<g>
			<path class="st4" d="M1048.2,491.2l-2.2-0.4c2.4-12.4,13.9-21.4,25.9-21.4v2.1C1061,471.5,1050.5,479.8,1048.2,491.2z"/>
		</g>
		<g>
			<g>
				<polygon class="st4" points="1050.9,489.1 1047.7,490 1044.7,488.4 1047,496 				"/>
			</g>
		</g>
	</g>
	<g>
		<g>
			<path class="st3" d="M1027.4,468.1c-0.4,0.4-0.9,0.7-1.5,0.8c-0.5,0.2-1.1,0.2-1.6,0.2c-0.6,0-1.2-0.1-1.7-0.3
				c-0.5-0.2-1-0.5-1.4-0.9c-0.4-0.4-0.7-0.9-1-1.5c-0.2-0.6-0.4-1.3-0.4-2.2c0-0.7,0.1-1.3,0.3-2c0.2-0.6,0.5-1.2,0.8-1.6
				c0.4-0.5,0.8-0.8,1.4-1.1c0.6-0.3,1.3-0.4,2-0.4c0.9,0,1.7,0.2,2.3,0.6c0.6,0.4,1.1,0.9,1.5,1.6c0.4,0.7,0.6,1.5,0.8,2.5
				c0.2,1,0.2,2,0.2,3.2c0,2.8-0.4,4.9-1.2,6.3s-2,2.1-3.7,2.1c-0.2,0-0.5,0-0.9,0s-0.8-0.1-1.2-0.2s-0.7-0.2-1-0.4
				s-0.4-0.4-0.4-0.7c0-0.2,0.1-0.4,0.2-0.6c0.2-0.2,0.3-0.3,0.6-0.3c0.1,0,0.3,0,0.5,0.1c0.3,0.1,0.5,0.2,0.9,0.2
				c0.3,0.1,0.7,0.1,1,0.1c0.7,0,1.2-0.1,1.7-0.4c0.4-0.3,0.8-0.7,1-1.2c0.3-0.5,0.4-1.1,0.5-1.8
				C1027.4,469.6,1027.4,468.8,1027.4,468.1z M1027.5,465.6c0-0.7-0.1-1.3-0.2-1.9c-0.1-0.6-0.3-1.1-0.5-1.5s-0.6-0.8-1-1
				c-0.4-0.2-0.9-0.4-1.4-0.4c-0.5,0-0.9,0.1-1.3,0.3c-0.3,0.2-0.6,0.4-0.8,0.8c-0.2,0.3-0.4,0.7-0.5,1.1c-0.1,0.4-0.1,0.8-0.1,1.3
				c0,1.1,0.3,1.9,0.8,2.4s1.2,0.8,2.1,0.8c0.6,0,1.2-0.1,1.7-0.4c0.5-0.2,0.9-0.5,1.2-0.9V465.6z"/>
			<path class="st3" d="M1035.8,458.9c0.8,0,1.4,0.1,2,0.4c0.6,0.3,1,0.6,1.4,1.1c0.4,0.5,0.6,1,0.8,1.6c0.2,0.6,0.3,1.3,0.3,2v6.7
				c0,0.7-0.1,1.3-0.3,1.8c-0.2,0.6-0.5,1.1-0.9,1.5s-0.9,0.8-1.4,1c-0.6,0.2-1.2,0.4-1.9,0.4s-1.4-0.1-1.9-0.4
				c-0.6-0.2-1-0.6-1.4-1s-0.7-0.9-0.9-1.5c-0.2-0.6-0.3-1.2-0.3-1.8V464c0-0.7,0.1-1.4,0.3-2c0.2-0.6,0.4-1.2,0.8-1.6
				c0.4-0.5,0.8-0.8,1.4-1.1C1034.3,459,1035,458.9,1035.8,458.9z M1035.8,460.5c-0.5,0-0.9,0.1-1.3,0.2c-0.3,0.2-0.6,0.4-0.8,0.7
				c-0.2,0.3-0.4,0.6-0.5,1.1c-0.1,0.4-0.2,0.9-0.2,1.3v6.9c0,0.9,0.2,1.6,0.7,2.2s1.1,0.8,2,0.8s1.6-0.3,2-0.8s0.7-1.3,0.7-2.2
				v-6.9c0-0.5-0.1-0.9-0.2-1.3c-0.1-0.4-0.3-0.8-0.5-1.1c-0.2-0.3-0.5-0.5-0.8-0.7C1036.7,460.6,1036.3,460.5,1035.8,460.5z"/>
		</g>
		<g>
			<path class="st4" d="M1050.5,463.7c-2.2,0-4.1-1.8-4.1-4.1s1.8-4.1,4.1-4.1s4.1,1.8,4.1,4.1S1052.8,463.7,1050.5,463.7z
				 M1050.5,458.1c-0.8,0-1.5,0.7-1.5,1.5s0.7,1.5,1.5,1.5c0.8,0,1.5-0.7,1.5-1.5S1051.3,458.1,1050.5,458.1z"/>
		</g>
	</g>
</g>
<g>
	<rect x="661.7" y="514.4" class="st3" width="38" height="38"/>
</g>
<g>
	<path class="st6" d="M683,539.6c0.1,0.1,0.1,0.2,0.1,0.4c0,0.3-0.1,0.5-0.2,0.6c-0.2,0.2-0.4,0.3-0.6,0.3c-0.2,0-0.4,0-0.5-0.1
		c-0.1-0.1-0.2-0.2-0.4-0.5l-2.5-3.9l-2.6,4.1c-0.2,0.3-0.4,0.4-0.7,0.4c-0.3,0-0.5-0.1-0.6-0.2s-0.3-0.4-0.3-0.6
		c0-0.1,0-0.3,0.1-0.4l3.1-4.7l-2.9-4.4c-0.1-0.1-0.1-0.2-0.1-0.4c0-0.2,0.1-0.4,0.2-0.6s0.4-0.3,0.6-0.3c0.3,0,0.5,0.1,0.6,0.3
		c0.1,0.2,0.3,0.3,0.4,0.5l2.3,3.5l2.4-3.7c0.1-0.2,0.2-0.3,0.3-0.4c0.1-0.1,0.3-0.2,0.5-0.2s0.4,0.1,0.6,0.2
		c0.2,0.2,0.3,0.4,0.3,0.6c0,0.1,0,0.1,0,0.2c0,0.1,0,0.1-0.1,0.2l-2.9,4.4L683,539.6z"/>
</g>
<g>
	<g>
		<g>
			<g>
				<path class="st0" d="M557.2,644.9c-1.7-1.7-1.9-2.4-1.9-2.5c-0.1-0.3-0.3-1.4-0.3-4.1V519.6c0-4.8-1.9-9-5.6-12.3
					c-3.6-3.2-8.1-4.9-13.2-4.9c-5.2,0-9.8,1.7-13.4,5c-3.7,3.4-5.7,7.5-5.7,12.2V641c0,6.3,1,11.2,2.5,15.1c1.6,4,3.7,7.1,6.2,9.3
					c2.5,2.2,5.4,3.7,8.5,4.4c2.7,0.6,5.4,0.8,7.8,0.8c5.8,0,10.6-1.2,14.1-3.6c3.9-2.6,6-6.7,6-11.9c0-2.9-0.6-5.1-1.8-6.7
					C559.5,647.4,558.5,646.2,557.2,644.9z"/>
			</g>
			<g>
				<path class="st0" d="M227.9,644.9c-1.7-1.7-1.8-2.4-1.8-2.5c-0.1-0.3-0.1-1.4-0.1-4.1V519.6c0-4.8-2.1-9-5.8-12.3
					c-3.6-3.2-8.1-4.9-13.3-4.9c-5.2,0-9.7,1.7-13.3,5c-3.7,3.4-5.6,7.5-5.6,12.2V641c0,6.3,0.8,11.2,2.4,15.1
					c1.6,4,3.7,7.1,6.1,9.3c2.5,2.2,5.4,3.7,8.5,4.4c2.7,0.6,5.4,0.8,7.8,0.8c5.8,0,10.6-1.2,14.1-3.6c3.9-2.6,6-6.7,6-11.9
					c0-2.9-0.6-5.1-1.8-6.7C230.2,647.4,229.2,646.2,227.9,644.9z"/>
			</g>
			<g>
				<path class="st0" d="M284.1,509.6c-4-3.6-8.9-5.4-14.6-5.4s-10.7,1.8-14.6,5.4c-4.1,3.7-6.1,8.3-6.1,13.5
					c0,5.3,2.1,9.8,6.1,13.5c4,3.6,8.9,5.4,14.6,5.4s10.7-1.8,14.6-5.4c4.1-3.7,6.1-8.3,6.1-13.5
					C290.2,517.8,288.1,513.3,284.1,509.6z"/>
			</g>
			<g>
				<path class="st0" d="M282.5,554.1c-3.6-3.2-8-4.9-13.1-4.9c-5.1,0-9.4,1.6-13,4.9c-3.7,3.3-5.4,7.4-5.4,12.1v87.1
					c0,4.9,1.7,9,5.4,12.3c3.6,3.2,8,4.9,13.1,4.9c5.1,0,9.4-1.6,13-4.9c3.7-3.3,5.4-7.5,5.4-12.3v-87.1
					C288,561.5,286.2,557.5,282.5,554.1z"/>
			</g>
			<g>
				<path class="st0" d="M395.4,553.7c-3.6-2.9-7.8-4.4-12.6-4.4c-3.6,0-7,1-10.4,3c-3.5,2.1-5.9,5.1-7.2,8.8l-11.5,37.1
					c-1.7,5.7-3,11.4-3.9,17.1c-1-5.7-2.4-11.4-4.2-17.2l-12.2-37.2c-1.3-3.7-3.7-6.7-7.1-8.8c-3.3-2-6.8-3.1-10.4-3.1
					c-4.8,0-9.2,1.5-12.9,4.4c-3.9,3.1-6,7.3-6,12.3v1.8c0,1,0.4,2.1,0.8,3.2l30.8,84.4c1.8,5.2,4.4,9.1,7.6,11.5
					c3.3,2.5,7.8,3.8,13.4,3.8c5.5,0,10-1.3,13.2-4c3-2.5,5.6-6.5,7.6-11.8l30.1-83.8c0.4-1.1,0.5-2.2,0.5-3.2V566
					C401,561,399.2,556.8,395.4,553.7z"/>
			</g>
			<g>
				<path class="st0" d="M449.9,626.5c2.7,0.2,5.5,0.3,8.6,0.3c15.8,0,27.6-3.3,35-9.7c7.5-6.6,11.4-15.8,11.4-27.4
					c0-12.1-4-22.1-11.8-29.7c-7.8-7.6-19.6-11.4-35.1-11.4c-8,0-15.2,1.1-21.5,3.2c-6.3,2.1-11.7,5.2-16,9
					c-4.4,3.9-7.9,8.5-10.1,13.8c-2.2,5.2-3.5,10.9-3.5,16.9v36.9c0,5.9,1.3,11.5,3.6,16.7c2.3,5.2,5.7,9.7,9.9,13.5
					c4.2,3.8,9.5,6.7,15.6,8.9c6,2.1,13,3.2,20.8,3.2c3.6,0,8-0.3,13-0.9c5.1-0.6,10-1.7,14.6-3.2c4.8-1.6,9-3.8,12.4-6.6
					c3.9-3.2,5.9-7.3,5.9-12.2c0-1.7-0.3-3.4-0.8-5.1c-0.6-1.8-1.6-3.6-2.9-5.1c-1.4-1.5-3.2-2.8-5.4-3.9c-2.2-1-4.9-1.5-8.1-1.5
					c-2.3,0-4,0.2-5.4,0.6c-1.2,0.4-2.2,0.7-2.9,1.2c-3.3,1.5-6.4,2.6-9.2,3.4c-2.8,0.7-5.8,1.1-9.1,1.1c-5.2,0-9-0.9-11.2-2.6
					c-2-1.5-2.9-3.5-2.9-6.3V626C447,626.2,448.4,626.3,449.9,626.5z M445,596.4v-6.3c0-3.4,1-6,3-7.9c2.1-2,5.4-2.9,9.8-2.9
					c3.4,0,6,0.7,7.6,2.1c1.4,1.2,2.2,3.5,2.2,6.8c0,3.5-0.7,5.8-2.2,6.9c-1.8,1.3-4.5,2-8,2c-1.1,0-3.1-0.1-6-0.2
					C449.4,596.7,447,596.6,445,596.4z"/>
			</g>
			<g>
				<path class="st0" d="M663.8,553.8c-3.8-3-8.1-4.5-12.7-4.5c-3.5,0-7,0.9-10.3,2.6c-3.6,1.9-6.1,5-7.5,9.1l-11.9,37.1
					c-1.2,3.6-2.2,7.3-3.1,11.2c-1-4-2.2-7.8-3.6-11.4l-13.9-37.2c-1.5-3.8-3.9-6.8-7.1-8.7c-3.1-1.9-6.5-2.8-10.1-2.8
					c-5.1,0-9.5,1.5-13.1,4.4c-3.8,3.1-5.7,7.2-5.7,12.1c0,0.9,0.1,1.9,0.3,3c0.2,1.1,0.5,2.3,1.1,3.8l33.6,86.7
					c-2.4,7.7-4.9,13.2-7.4,16.4c-2.2,2.9-5.2,4.5-9.1,4.7c-5.4,0.3-9.8,2.1-13,5.3c-3.2,3.2-4.9,7.1-4.9,11.4c0,4.9,1.9,9,5.7,12.2
					c3.6,3,8.1,4.6,13.3,4.6c9,0,16.6-1.7,22.6-5c6-3.3,11.1-7.9,15.3-13.8c4.1-5.7,7.6-12.5,10.6-20.2c2.9-7.6,5.9-15.9,9-24.9
					l26.9-78.6c0.6-1.5,0.9-3.2,0.9-5.2C669.9,561.2,667.8,557,663.8,553.8z"/>
			</g>
		</g>
	</g>
	<g>
		<path class="st0" d="M721.4,429.8c-1,0-2,0.1-2.9,0.2c-1.6,0.1-3.2,0.5-4.8,1c-0.1,0-0.2,0.1-0.3,0.1c0,0-0.1,0-0.1,0
			c-2.4,0.8-4.8,2.1-6.8,3.6c0,0-0.1,0-0.1,0.1c-3.9,3.2-6.4,7.6-6.3,12.8c-0.1,1.6,0.1,3.3,0.6,4.9l3.9,11.6c0.2,0.5,0.3,1,0.5,1.4
			c0.5,2.6,0.2,5.4-1,7.5c-1.6,2.9-5.7,4-8.8,4l-12.2-0.1c-2,0-4,0.5-5.9,1.2c-4.9,2.1-8.5,6.2-10.2,11.2c-0.6,2-0.9,4.2-0.9,6.3v0
			c0,2.1,0.4,4.2,1,6.3c1.6,5,4.7,9.3,9.9,11.2c1.8,0.8,3.9,1.2,5.9,1.2l12.3-0.1c3.3,0,6.9,1.2,8.9,4c1.2,2.1,1.5,4.9,1,7.5
			c-0.1,0.5-0.3,0.9-0.4,1.4l-3.9,11.6c-0.5,1.6-0.7,3.3-0.6,4.9c-0.1,5.2,2.5,9.6,6.3,12.8c0,0,0.1,0,0.1,0.1
			c0.6,0.4,1.2,0.8,1.8,1.2c3,2,6.7,3.2,10.2,3.5c1.9,0.2,4.2,0.5,6,0c1.6-0.4,3.3-1.1,4.7-1.9c1.6-0.9,2.9-2.1,4-3.4
			c0.5-0.6,1-1.3,1.4-2c0.7-1.1,1.3-2.2,1.8-3.5c0,0,3.7-11.6,3.7-11.7c0.8-2.6,2.7-5.1,5.1-6.5c0,0,0.1,0,0.1-0.1
			c2.8-1.5,6.7-0.9,9.2,0.9c0.3,0.2,0.7,0.5,1,0.7l9.8,7.3c1.7,1.3,3.7,2,5.8,2.5c0.9,0.2,1.8,0.4,2.7,0.4c0.1,0,0.1,0,0.2,0
			c3.3,1,7.2-1,9.9-2.9c0,0,0.1,0,0.1-0.1c0.7-0.5,1.5-1.1,2.2-1.8c1-0.9,2-1.9,2.8-3c0.1-0.1,0.1-0.2,0.2-0.3c1.5-2,3-4.2,3.5-6.7
			c0.1-0.2,0.1-0.5,0.2-0.8c0.4-1.2,0.6-2.4,0.7-3.7c0.1-1.6,0-3.3-0.4-4.9c0-0.1,0-0.2-0.1-0.3c0-0.1,0-0.1,0-0.2v0
			c-1-1.9-1.4-3.7-2.6-5.3c-0.9-1.1-1.8-2.2-3-3.1c-0.1-0.1-0.2-0.1-0.3-0.2l-9-6.4c-0.6-0.4-1.1-0.8-1.7-1.3c-2.2-2-3.8-4.7-4-7.4
			c0.2-2.7,1.7-5.4,4-7.4c0.6-0.4,1.1-0.8,1.7-1.3l9-6.4c0.1-0.1,0.2-0.1,0.3-0.2c1.2-0.9,2.1-2,3-3.1c1.3-1.6,1.6-3.4,2.6-5.3v0
			c0-1.8,0.6-3.6,0.4-5.4c-0.3-3.5-1.5-6.9-3.5-9.8c-0.9-1.3-1.9-2.6-3.1-3.7c0,0,0,0-0.1-0.1c-0.9-0.9-2-1.8-3-2.5
			c0,0-0.1,0-0.1-0.1c-3.6-2.6-8.5-3.4-12.8-2.5c-0.1,0-0.1,0-0.2,0s-0.1,0-0.2,0c-1.9,0.5-3.8,1.2-5.4,2.4c0,0-9.8,7.3-9.8,7.3
			c-0.4,0.2-0.7,0.5-1,0.7c-2.7,1.6-6.2,2.5-9.2,0.9c-2.2-1.2-4.1-3.4-4.9-5.8c-1.4-4.1-2.6-8.3-3.9-12.4c-0.4-1.3-1-2.5-1.8-3.5
			c-0.4-0.7-0.9-1.4-1.4-2c-1.1-1.3-2.4-2.5-4-3.4c-1.5-0.8-3.1-1.5-4.7-1.9C723.6,429.8,722.5,429.7,721.4,429.8z"/>
	</g>
</g>
<g>
	<path class="st3" d="M887.4,429.8c-1,0-2,0.1-2.9,0.2c-1.6,0.1-3.2,0.5-4.8,1c-0.1,0-0.2,0.1-0.3,0.1c0,0-0.1,0-0.1,0
		c-2.4,0.8-4.8,2.1-6.8,3.6c0,0-0.1,0-0.1,0.1c-3.9,3.2-6.4,7.6-6.3,12.8c-0.1,1.6,0.1,3.3,0.6,4.9l3.9,11.6c0.2,0.5,0.3,1,0.5,1.4
		c0.5,2.6,0.2,5.4-1,7.5c-1.6,2.9-5.7,4-8.8,4l-12.2-0.1c-2,0-4,0.5-5.9,1.2c-4.9,2.1-8.5,6.2-10.2,11.2c-0.6,2-0.9,4.2-0.9,6.3v0
		c0,2.1,0.4,4.2,1,6.3c1.6,5,4.7,9.3,9.9,11.2c1.8,0.8,3.9,1.2,5.9,1.2l12.3-0.1c3.3,0,6.9,1.2,8.9,4c1.2,2.1,1.5,4.9,1,7.5
		c-0.1,0.5-0.3,0.9-0.4,1.4l-3.9,11.6c-0.5,1.6-0.7,3.3-0.6,4.9c-0.1,5.2,2.5,9.6,6.3,12.8c0,0,0.1,0,0.1,0.1
		c0.6,0.4,1.2,0.8,1.8,1.2c3,2,6.7,3.2,10.2,3.5c1.9,0.2,4.2,0.5,6,0c1.6-0.4,3.3-1.1,4.7-1.9c1.6-0.9,2.9-2.1,4-3.4
		c0.5-0.6,1-1.3,1.4-2c0.7-1.1,1.3-2.2,1.8-3.5c0,0,3.7-11.6,3.7-11.7c0.8-2.6,2.7-5.1,5.1-6.5c0,0,0.1,0,0.1-0.1
		c2.8-1.5,6.7-0.9,9.2,0.9c0.3,0.2,0.7,0.5,1,0.7l9.8,7.3c1.7,1.3,3.7,2,5.8,2.5c0.9,0.2,1.8,0.4,2.7,0.4c0.1,0,0.1,0,0.2,0
		c3.3,1,7.2-1,9.9-2.9c0,0,0.1,0,0.1-0.1c0.7-0.5,1.5-1.1,2.2-1.8c1-0.9,2-1.9,2.8-3c0.1-0.1,0.1-0.2,0.2-0.3c1.5-2,3-4.2,3.5-6.7
		c0.1-0.2,0.1-0.5,0.2-0.8c0.4-1.2,0.6-2.4,0.7-3.7c0.1-1.6,0-3.3-0.4-4.9c0-0.1,0-0.2-0.1-0.3c0-0.1,0-0.1,0-0.2v0
		c-1-1.9-1.4-3.7-2.6-5.3c-0.9-1.1-1.8-2.2-3-3.1c-0.1-0.1-0.2-0.1-0.3-0.2l-9-6.4c-0.6-0.4-1.1-0.8-1.7-1.3c-2.2-2-3.8-4.7-4-7.4
		c0.2-2.7,1.7-5.4,4-7.4c0.6-0.4,1.1-0.8,1.7-1.3l9-6.4c0.1-0.1,0.2-0.1,0.3-0.2c1.2-0.9,2.1-2,3-3.1c1.3-1.6,1.6-3.4,2.6-5.3v0
		c0-1.8,0.6-3.6,0.4-5.4c-0.3-3.5-1.5-6.9-3.5-9.8c-0.9-1.3-1.9-2.6-3.1-3.7c0,0,0,0-0.1-0.1c-0.9-0.9-2-1.8-3-2.5
		c0,0-0.1,0-0.1-0.1c-3.6-2.6-8.5-3.4-12.8-2.5c-0.1,0-0.1,0-0.2,0s-0.1,0-0.2,0c-1.9,0.5-3.8,1.2-5.4,2.4c0,0-9.8,7.3-9.8,7.3
		c-0.4,0.2-0.7,0.5-1,0.7c-2.7,1.6-6.2,2.5-9.2,0.9c-2.2-1.2-4.1-3.4-4.9-5.8c-1.4-4.1-2.6-8.3-3.9-12.4c-0.4-1.3-1-2.5-1.8-3.5
		c-0.4-0.7-0.9-1.4-1.4-2c-1.1-1.3-2.4-2.5-4-3.4c-1.5-0.8-3.1-1.5-4.7-1.9C889.6,429.8,888.5,429.7,887.4,429.8z"/>
</g>
<g class="st7">
	<path class="st3" d="M1137.6,487.3c0-1-0.1-2-0.2-2.9c-0.1-1.6-0.5-3.2-1-4.8c0-0.1-0.1-0.2-0.1-0.3c0,0,0-0.1,0-0.1
		c-0.8-2.4-2.1-4.8-3.6-6.8c0,0,0-0.1-0.1-0.1c-3.2-3.9-7.6-6.4-12.8-6.3c-1.6-0.1-3.3,0.1-4.9,0.6l-11.6,3.9
		c-0.5,0.2-1,0.3-1.4,0.5c-2.6,0.5-5.4,0.2-7.5-1c-2.9-1.6-4-5.7-4-8.8l0.1-12.2c0-2-0.5-4-1.2-5.9c-2.1-4.9-6.2-8.5-11.2-10.1
		c-2-0.6-4.2-0.9-6.3-0.9h0c-2.1,0-4.2,0.4-6.3,1c-5,1.6-9.3,4.7-11.2,9.9c-0.8,1.8-1.2,3.9-1.2,5.9l0.1,12.3c0,3.3-1.2,6.9-4,8.9
		c-2.1,1.2-4.9,1.5-7.5,1c-0.5-0.1-0.9-0.3-1.4-0.5l-11.6-3.9c-1.6-0.5-3.3-0.7-4.9-0.6c-5.2-0.1-9.6,2.5-12.8,6.3
		c0,0,0,0.1-0.1,0.1c-0.4,0.6-0.8,1.2-1.2,1.8c-2,3-3.2,6.7-3.5,10.2c-0.2,1.9-0.5,4.2,0,6c0.4,1.6,1.1,3.3,1.9,4.7
		c0.9,1.6,2.1,2.9,3.4,4c0.6,0.5,1.3,1,2,1.4c1.1,0.7,2.2,1.3,3.5,1.8c0,0,11.6,3.7,11.7,3.7c2.6,0.8,5.1,2.7,6.5,5.1
		c0,0,0,0.1,0.1,0.1c1.5,2.8,0.9,6.7-0.9,9.2c-0.2,0.3-0.5,0.7-0.7,1l-7.3,9.8c-1.3,1.7-2.2,3.7-2.7,5.8c-0.2,0.9-0.6,1.8-0.6,2.7
		c0,0.1,0,0.1,0,0.2c-1,3.3,1.2,7.2,3.1,9.9c0,0,0.1,0.1,0.2,0.1c0.5,0.7,1.2,1.5,1.8,2.2c0.9,1,2,2,3,2.8c0.1,0.1,0.2,0.1,0.3,0.2
		c2,1.5,4.2,3,6.7,3.5c0.2,0.1,0.5,0.1,0.8,0.2c1.2,0.4,2.4,0.6,3.7,0.7c1.6,0.1,3.3,0,4.9-0.4c0.1,0,0.2,0,0.3,0c0.1,0,0.1,0,0.2,0
		h0c1.9-1,3.7-1.4,5.3-2.7c1.1-0.9,2.2-1.8,3.1-3c0.1-0.1,0.1-0.2,0.2-0.3l6.4-9c0.4-0.6,0.8-1.1,1.3-1.7c2-2.2,4.7-3.8,7.4-4
		c2.7,0.2,5.4,1.7,7.4,4c0.4,0.6,0.8,1.1,1.3,1.7l6.4,9c0.1,0.1,0.1,0.2,0.2,0.3c0.9,1.2,2,2.1,3.1,3c1.6,1.3,3.4,1.7,5.3,2.7h0
		c1.8,0,3.6,0.5,5.4,0.4c3.5-0.3,6.9-1.5,9.8-3.5c1.3-0.9,2.6-1.9,3.7-3.1c0,0,0,0,0.1-0.1c0.9-0.9,1.8-2,2.5-3.1c0,0,0-0.1,0.1-0.1
		c2.6-3.6,3.4-8.5,2.5-12.8c0-0.1,0-0.1,0-0.2s0-0.1,0-0.2c-0.5-1.9-1.2-3.8-2.4-5.4c0,0-7.3-9.8-7.3-9.8c-0.2-0.4-0.5-0.7-0.7-1
		c-1.6-2.7-2.5-6.2-0.9-9.2c1.2-2.2,3.4-4.1,5.8-4.9c4.1-1.4,8.3-2.6,12.4-3.9c1.3-0.4,2.5-1,3.5-1.8c0.7-0.4,1.4-0.9,2-1.4
		c1.3-1.1,2.5-2.4,3.4-4c0.8-1.5,1.5-3.1,1.9-4.7C1137.6,489.5,1137.7,488.4,1137.6,487.3z"/>
</g>
</svg>
