<?xml version="1.0" encoding="utf-8"?>
<!-- Generator: Adobe Illustrator 19.1.0, SVG Export Plug-In . SVG Version: 6.00 Build 0)  -->
<svg version="1.1" id="Layer_1" xmlns="http://www.w3.org/2000/svg" xmlns:xlink="http://www.w3.org/1999/xlink" x="0px" y="0px"
	 viewBox="0 0 884.8 809.6" style="enable-background:new 0 0 884.8 809.6;" xml:space="preserve">
<style type="text/css">
	.st0{font-family:'MyriadPro-Bold';}
	.st1{font-size:30.1109px;}
	.st2{fill:#4D4D4D;}
	.st3{fill:#FFFFFF;}
	.st4{fill:#F57C00;}
	.st5{fill:none;stroke:#FFFFFF;stroke-width:0.8981;stroke-linecap:round;stroke-linejoin:round;stroke-miterlimit:10;}
	.st6{fill:#CCCCCC;}
	.st7{stroke:#000000;stroke-width:0.25;stroke-miterlimit:10;}
	.st8{fill:#F2F2F2;}
	.st9{fill:none;stroke:#F57C00;stroke-width:2;stroke-linecap:round;stroke-linejoin:round;stroke-miterlimit:10;}
	.st10{fill:#E6E6E6;stroke:#CCCCCC;stroke-width:0.2864;stroke-miterlimit:10;}
	.st11{fill:#808080;}
	.st12{fill:none;stroke:#FFFFFF;stroke-width:0.8927;stroke-linecap:round;stroke-linejoin:round;stroke-miterlimit:10;}
	.st13{fill:#FFFF00;}
	.st14{fill:#E6E6E6;}
	.st15{fill:#FFFFFF;stroke:#FFFFFF;stroke-width:0.5;stroke-miterlimit:10;}
	.st16{fill:#FFFFFF;stroke:#FFFFFF;stroke-width:0.6;stroke-miterlimit:10;}
	.st17{fill:none;stroke:#FFFFFF;stroke-width:1.5;stroke-linecap:round;stroke-linejoin:round;stroke-miterlimit:10;}
	.st18{fill:none;stroke:#666666;stroke-width:0.6;stroke-miterlimit:10;}
	.st19{fill:#808080;stroke:#808080;stroke-width:0.9519;stroke-linecap:round;stroke-linejoin:round;stroke-miterlimit:10;}
	.st20{fill:#FFFFFF;stroke:#FFFFFF;stroke-width:0.9519;stroke-linecap:round;stroke-linejoin:round;stroke-miterlimit:10;}
	.st21{fill:#58595B;}
	.st22{fill:#58595B;stroke:#FFFFFF;stroke-width:0.3269;stroke-miterlimit:10;}
	.st23{fill:#B3B3B3;}
	.st24{fill:none;stroke:#B3B3B3;stroke-width:0.6;stroke-miterlimit:10;}
	.st25{fill:none;stroke:#F57C00;stroke-width:0.6;stroke-linecap:round;stroke-linejoin:round;stroke-miterlimit:10;}
	.st26{fill:#FFFFFF;stroke:#FFFFFF;stroke-width:0.25;stroke-miterlimit:10;}
	.st27{fill:none;stroke:#FFFFFF;stroke-width:2.5352;stroke-linecap:round;stroke-linejoin:round;stroke-miterlimit:10;}
	.st28{font-family:'Roboto-Medium';}
	.st29{font-size:16.65px;}
	.st30{font-family:'Roboto-Regular';}
	.st31{font-size:11.8303px;}
	.st32{font-size:12px;}
	.st33{font-family:'Roboto-Bold';}
	.st34{font-size:14px;}
	.st35{font-size:7.5815px;}
	.st36{fill:none;}
	.st37{font-size:11px;}
	.st38{fill:none;stroke:#00FFFF;stroke-miterlimit:10;}
	.st39{fill:#00FFFF;}
</style>
<text transform="matrix(1 0 0 1 91.3 73.7945)" class="st0 st1">Style Editor Window - UI</text>
<g>
	<g>
		<g>
			<path id="bck_1_" class="st2" d="M776.8,724.8H108c-8.6,0-15.6-7.1-15.6-15.9V140.7c0-8.8,7-15.9,15.6-15.9h668.7
				c8.6,0,15.6,7.1,15.6,15.9v568.2C792.4,717.7,785.4,724.8,776.8,724.8z"/>
			<path class="st3" d="M783.3,177.2c0-6.1-4.8-11.1-10.9-11.1H113c-6.4,0-11.5,5.6-11.5,12v527.4c0,6.4,5.2,11.5,11.5,11.5h658.7
				c6.4,0,11.5-5.2,11.5-11.5V177.2z"/>
			<g>
				<g>
					<g>
						<circle class="st4" cx="766.8" cy="145.4" r="7.4"/>
						<g>
							<line class="st5" x1="763.2" y1="141.7" x2="770.6" y2="149.2"/>
							<line class="st5" x1="763.2" y1="149.2" x2="770.6" y2="141.7"/>
						</g>
					</g>
				</g>
				<g>
					<circle class="st6" cx="741.8" cy="145.4" r="7.4"/>
					<g>
						<g>
							<path class="st2" d="M745.8,145.6h-8c-0.3,0-0.5-0.2-0.5-0.5s0.2-0.5,0.5-0.5h8c0.3,0,0.5,0.2,0.5,0.5S746,145.6,745.8,145.6
								z"/>
						</g>
					</g>
				</g>
			</g>
			<g>
				<text transform="matrix(1 0 0 1 140.4421 151.0959)" class="st3 st28 st29">Object Editor</text>
				<g>
					<path class="st6" d="M122.1,133.8c-1.4,0-2.7,0.2-4,0.7c-2.9,1.1-5.2,3.3-6.4,6.1c-1.2,2.8-1.3,5.9-0.2,8.8
						c1.7,4.5,6,7.5,10.8,7.5c1.4,0,2.7-0.2,4-0.7c2.9-1.1,5.2-3.3,6.4-6.1c1.2-2.8,1.3-5.9,0.2-8.8
						C131.2,136.8,126.8,133.8,122.1,133.8z"/>
				</g>
				<path class="st7" d="M126.4,151.6L126.4,151.6c-0.5,0-0.9-0.2-1.3-0.5c-0.3-0.3-5.3-5.3-5.9-5.8c-0.1,0-0.2,0-0.2,0
					c-0.8,0-1.6-0.3-2.2-0.9c-0.5-0.5-0.8-1-0.9-1.7c0-0.3-0.1-0.6,0-0.9c0.1-0.3,0.3-0.5,0.7-0.5c0.1,0,0.2,0,0.3,0.1
					c0.2,0.1,0.3,0.2,0.4,0.3l0.3,0.3c0.2,0.2,0.4,0.4,0.6,0.6c0.1,0.1,0.1,0.1,0.1,0.1c0,0,0.1,0,0.1,0c0.1,0,0.2,0,0.3-0.1
					c0,0,0.1-0.1,0.1-0.1c0,0,0,0,0.1-0.1c0.1-0.1,0.2-0.2,0.2-0.2c0.1-0.1,0.2-0.2,0.3-0.3c0,0,0,0,0,0c0-0.1,0-0.2-0.1-0.3
					c0,0-0.2-0.2-0.3-0.3c-0.3-0.3-0.6-0.6-0.8-0.8c-0.2-0.2-0.3-0.5-0.2-0.8l0,0c0.1-0.3,0.4-0.5,0.7-0.5c0.3,0,0.6,0,0.9,0
					c0.8,0.2,1.5,0.6,2,1.3c0.3,0.4,0.4,0.8,0.5,1.3c0,0.2,0.1,0.5,0,0.8c0.8,0.8,5.3,5.4,5.6,5.7c0.7,0.6,0.8,1.6,0.3,2.4
					C127.8,151.3,127.1,151.6,126.4,151.6z M119.3,144.6c0.2,0,0.3,0.1,0.4,0.2c0.7,0.7,5.6,5.6,5.9,5.8c0.2,0.2,0.5,0.3,0.8,0.3
					c0.5,0,0.9-0.2,1.1-0.6c0.3-0.5,0.2-1.1-0.2-1.6c-0.1-0.1-1.5-1.5-2.9-2.9c-2.9-2.9-2.9-2.9-2.9-3l0-0.1l0-0.2
					c0-0.2,0-0.4,0-0.6c-0.1-0.4-0.2-0.7-0.4-1c-0.4-0.6-0.9-0.9-1.5-1c-0.2,0-0.5-0.1-0.7,0c-0.1,0-0.1,0-0.1,0c0,0,0,0,0.1,0.1
					c0.2,0.2,0.5,0.5,0.8,0.8c0.2,0.2,0.3,0.3,0.3,0.3c0.2,0.3,0.3,0.6,0.2,0.9c0,0.1-0.1,0.1-0.1,0.2l0,0c-0.1,0.2-0.3,0.3-0.4,0.4
					c-0.1,0.1-0.1,0.1-0.2,0.2c0,0-0.1,0.1-0.1,0.1c0,0,0,0-0.1,0.1c-0.2,0.3-0.6,0.4-0.9,0.3c-0.3,0-0.4-0.2-0.5-0.3
					c-0.2-0.2-0.4-0.4-0.6-0.6l-0.3-0.3c0,0-0.1-0.1-0.1-0.1c0,0.2,0,0.4,0,0.6c0.1,0.5,0.3,1,0.7,1.3
					C117.9,144.5,118.5,144.7,119.3,144.6C119.3,144.6,119.3,144.6,119.3,144.6z M126.3,150.3c-0.4,0-0.7-0.3-0.7-0.6
					s0.3-0.6,0.7-0.6c0.4,0,0.7,0.3,0.7,0.6S126.7,150.3,126.3,150.3z"/>
			</g>
		</g>
		<g>
			<g>
				<g>
					<g>
						<g>
							<path class="st8" d="M291.1,367.6H126.2c-5,0-9.1-4.2-9-9.1V202.2l183-0.2v156.2C300.3,363.4,296.1,367.6,291.1,367.6z"/>
						</g>
					</g>
				</g>
				<g>
					<rect x="132.1" y="335.9" class="st4" width="114.3" height="16.2"/>
					<g>
						<g>
							<g>
								<g>
									<path class="st3" d="M253.3,237.8H139.9c-4.3,0-7.8-3.5-7.8-7.8v-4.3c0-4.3,3.5-7.8,7.8-7.8h113.3c4.3,0,7.8,3.5,7.8,7.8
										v4.3C261.1,234.3,257.6,237.8,253.3,237.8z"/>
								</g>
							</g>
						</g>
						<g>
							<path class="st4" d="M283.9,226.1c1.2,6.2-4.2,11.6-10.4,10.4c-3.5-0.7-6.3-3.5-6.9-6.9c-1.2-6.2,4.2-11.6,10.4-10.4
								C280.5,219.8,283.3,222.6,283.9,226.1z"/>
							<g>
								<g>
									<path class="st15" d="M270.7,232.8c0.1,0,0.3,0,0.3-0.1l2.9-2.9l0.2,0.1c0.5,0.3,1.1,0.6,1.7,0.6c0.2,0,0.3,0,0.5,0l0,0
										c1,0,2-0.4,2.7-1.1c0.7-0.7,1.1-1.7,1.1-2.7c0-1.9-1.5-3.6-3.4-3.8c-0.2,0-0.3,0-0.5,0l0,0c-1,0-2,0.4-2.7,1.1
										c-0.7,0.7-1.1,1.7-1.1,2.7c0,0.8,0.3,1.6,0.8,2.3l0.1,0.2l-2.9,2.9c-0.1,0.1-0.1,0.2-0.1,0.3c0,0.1,0,0.2,0.1,0.3
										C270.6,232.7,270.7,232.8,270.7,232.8z M273.3,226.7c0-0.8,0.3-1.6,0.9-2.1c0.6-0.6,1.3-0.9,2.1-0.9l0,0c0.1,0,0.2,0,0.4,0
										c1.5,0.2,2.7,1.5,2.7,3c0,0.8-0.3,1.6-0.9,2.1c-0.6,0.6-1.3,0.9-2.1,0.9l0,0c-0.1,0-0.2,0-0.4,0
										C274.4,229.5,273.3,228.2,273.3,226.7z"/>
								</g>
							</g>
						</g>
						<g>
							<text transform="matrix(1 0 0 1 138.1284 232.2595)" class="st11 st30 st31">Search Morph</text>
						</g>
					</g>
					<g>
						<g>
							<path class="st18" d="M256,265.6l0-2.6c-0.6,0-1.1-0.2-1.6-0.6l-1.8,1.9C253.5,265.1,254.7,265.6,256,265.6z"/>
							<path class="st18" d="M258.7,260.3l2.5,0c0-1.3-0.6-2.5-1.4-3.4l-1.7,1.8C258.4,259.1,258.7,259.7,258.7,260.3z"/>
							<path class="st18" d="M256.2,257.7c0.6,0,1.2,0.3,1.6,0.7l1.7-1.7c-0.9-0.8-2-1.3-3.3-1.4L256.2,257.7z"/>
							<path class="st18" d="M254.2,258.5c0.5-0.5,1.1-0.7,1.8-0.8l0-2.4c-1.4,0-2.6,0.6-3.5,1.5L254.2,258.5z"/>
							<path class="st18" d="M252.4,264.1l1.8-1.9c-0.4-0.4-0.7-1-0.8-1.6l-2.5,0l0-0.2l2.5,0c0,0,0,0,0,0c0-0.6,0.2-1.2,0.6-1.7
								l-1.7-1.7c-0.8,0.9-1.4,2.1-1.4,3.5C250.9,261.9,251.5,263.2,252.4,264.1z"/>
							<path class="st18" d="M257.8,262.3c-0.4,0.4-1,0.6-1.5,0.6l0,2.6c1.3,0,2.5-0.6,3.4-1.4L257.8,262.3z"/>
							<path class="st18" d="M258.7,260.6c-0.1,0.6-0.3,1.2-0.7,1.6l1.8,1.8c0.8-0.9,1.3-2.1,1.4-3.4L258.7,260.6z"/>
						</g>
						<g>
							<path class="st18" d="M256,282.6l0-2.6c-0.6,0-1.1-0.2-1.6-0.6l-1.8,1.9C253.5,282.1,254.7,282.6,256,282.6z"/>
							<path class="st18" d="M258.7,277.3l2.5,0c0-1.3-0.6-2.5-1.4-3.4l-1.7,1.8C258.4,276.1,258.7,276.7,258.7,277.3z"/>
							<path class="st18" d="M256.2,274.7c0.6,0,1.2,0.3,1.6,0.7l1.7-1.7c-0.9-0.8-2-1.3-3.3-1.4L256.2,274.7z"/>
							<path class="st18" d="M254.2,275.5c0.5-0.5,1.1-0.7,1.8-0.8l0-2.4c-1.4,0-2.6,0.6-3.5,1.5L254.2,275.5z"/>
							<path class="st18" d="M252.4,281.1l1.8-1.9c-0.4-0.4-0.7-1-0.8-1.6l-2.5,0l0-0.2l2.5,0c0,0,0,0,0,0c0-0.6,0.2-1.2,0.6-1.7
								l-1.7-1.7c-0.8,0.9-1.4,2.1-1.4,3.5C250.9,278.9,251.5,280.2,252.4,281.1z"/>
							<path class="st18" d="M257.8,279.3c-0.4,0.4-1,0.6-1.5,0.6l0,2.6c1.3,0,2.5-0.6,3.4-1.4L257.8,279.3z"/>
							<path class="st18" d="M258.7,277.6c-0.1,0.6-0.3,1.2-0.7,1.6l1.8,1.8c0.8-0.9,1.3-2.1,1.4-3.4L258.7,277.6z"/>
						</g>
						<g>
							<g>
								<g>
									<g>
										<polygon class="st19" points="160.2,273 163,275.8 160.2,278.6 										"/>
									</g>
								</g>
							</g>
							<g>
								<g>
									<g>
										<polygon class="st19" points="160.2,290.2 163,293 160.2,295.8 										"/>
									</g>
								</g>
							</g>
							<g>
								<g>
									<g>
										<polygon class="st19" points="136.5,307.4 139.3,310.2 136.5,313 										"/>
									</g>
								</g>
							</g>
							<g>
								<g>
									<g>
										<polygon class="st19" points="136.5,324.1 139.3,326.9 136.5,329.7 										"/>
									</g>
								</g>
							</g>
							<g>
								<g>
									<g>
										<polygon class="st20" points="136.5,341.3 139.3,344.1 136.5,346.9 										"/>
									</g>
								</g>
							</g>
							<g>
								<g>
									<g>
										<polygon class="st19" points="140.7,258.5 137.9,261.2 135.2,258.5 										"/>
									</g>
								</g>
							</g>
							<g>
								<text transform="matrix(0.9952 0 0 1 142.7104 263.5959)"><tspan x="0" y="0" class="st11 st30 st32">Menu 1</tspan><tspan x="0" y="17" class="st11 st30 st32">        Text 9</tspan><tspan x="0" y="34" class="st11 st30 st32">        Circle 4008</tspan><tspan x="0" y="51" class="st11 st30 st32">Text 45</tspan><tspan x="0" y="68" class="st11 st30 st32">Rectangle</tspan><tspan x="0" y="85" class="st3 st33 st32">Circle 4008</tspan></text>
							</g>
						</g>
						<g>
							<path class="st21" d="M276.7,259.1c0.2,0,0.4-0.2,0.4-0.5v-1.1c0-1.2-1.1-2.3-2.5-2.3s-2.5,1-2.5,2.3v2.3h0.8v-2.3
								c0-0.8,0.7-1.5,1.6-1.5c0.9,0,1.7,0.7,1.7,1.5v1.1C276.3,258.9,276.5,259.1,276.7,259.1z"/>
							<rect x="276.3" y="257.8" class="st21" width="0.8" height="2.5"/>
							<path class="st21" d="M272,259.8c-1.1,0.1-1.4,0.8-1.4,1.8c0,0.9,0,1.8,0,2.7c0.1,1.9,3,1.4,4.3,1.4c1.3,0,3.7,0.5,3.8-1.5
								c0-0.9,0-1.8,0-2.8c0-0.9-0.5-1.5-1.5-1.6C275.5,259.7,273.7,259.8,272,259.8c-0.5,0-0.5,0.8,0,0.8c1.2,0,2.4,0,3.6,0
								c0.5,0,1.1-0.1,1.6,0c0.9,0.1,0.6,1.3,0.6,2c0,0.5,0.1,1.2,0,1.7c-0.2,0.7-1.1,0.5-1.7,0.5c-1.3,0-2.8,0.1-4.1,0
								c-0.9-0.1-0.7-1.2-0.7-1.9c0-0.6-0.3-2.3,0.6-2.4C272.5,260.5,272.6,259.7,272,259.8z"/>
							<g>
								<path class="st21" d="M274.9,262.7v1.1c0,0.1-0.1,0.2-0.2,0.2c-0.1,0-0.2-0.1-0.2-0.2v-1.1c-0.3-0.1-0.5-0.3-0.5-0.6
									c0-0.3,0.3-0.6,0.7-0.6c0.4,0,0.7,0.3,0.7,0.6C275.3,262.4,275.1,262.6,274.9,262.7L274.9,262.7z"/>
								<path class="st21" d="M274.6,264.1c-0.2,0-0.4-0.2-0.4-0.4v-1c-0.3-0.1-0.5-0.4-0.5-0.7c0-0.4,0.4-0.8,0.8-0.8
									c0.4,0,0.8,0.4,0.8,0.8c0,0.3-0.2,0.6-0.5,0.7v1C275,263.9,274.9,264.1,274.6,264.1z M274.6,261.6c-0.3,0-0.5,0.2-0.5,0.5
									c0,0.2,0.1,0.4,0.3,0.4l0.1,0v1.2c0,0,0,0,0.1,0c0.1,0,0.1,0,0.1,0v-1.2l0.1,0c0.1,0,0.3-0.1,0.3-0.4
									C275.1,261.8,274.9,261.6,274.6,261.6z"/>
							</g>
						</g>
						<g>
							<path class="st21" d="M276.7,275.7c0.2,0,0.4-0.2,0.4-0.5v-1.1c0-1.2-1.1-2.3-2.5-2.3s-2.5,1-2.5,2.3v2.3h0.8v-2.3
								c0-0.8,0.7-1.5,1.6-1.5c0.9,0,1.7,0.7,1.7,1.5v1.1C276.3,275.5,276.5,275.7,276.7,275.7z"/>
							<rect x="276.3" y="274.4" class="st21" width="0.8" height="2.5"/>
							<path class="st21" d="M272,276.4c-1.1,0.1-1.4,0.8-1.4,1.8c0,0.9,0,1.8,0,2.7c0.1,1.9,3,1.4,4.3,1.4c1.3,0,3.7,0.5,3.8-1.5
								c0-0.9,0-1.8,0-2.8c0-0.9-0.5-1.5-1.5-1.6C275.5,276.3,273.7,276.4,272,276.4c-0.5,0-0.5,0.8,0,0.8c1.2,0,2.4,0,3.6,0
								c0.5,0,1.1-0.1,1.6,0c0.9,0.1,0.6,1.3,0.6,2c0,0.5,0.1,1.2,0,1.7c-0.2,0.7-1.1,0.5-1.7,0.5c-1.3,0-2.8,0.1-4.1,0
								c-0.9-0.1-0.7-1.2-0.7-1.9c0-0.6-0.3-2.3,0.6-2.4C272.5,277.1,272.6,276.3,272,276.4z"/>
							<g>
								<path class="st21" d="M274.9,279.2v1.1c0,0.1-0.1,0.2-0.2,0.2c-0.1,0-0.2-0.1-0.2-0.2v-1.1c-0.3-0.1-0.5-0.3-0.5-0.6
									c0-0.3,0.3-0.6,0.7-0.6c0.4,0,0.7,0.3,0.7,0.6C275.3,279,275.1,279.2,274.9,279.2L274.9,279.2z"/>
								<path class="st21" d="M274.6,280.7c-0.2,0-0.4-0.2-0.4-0.4v-1c-0.3-0.1-0.5-0.4-0.5-0.7c0-0.4,0.4-0.8,0.8-0.8
									c0.4,0,0.8,0.4,0.8,0.8c0,0.3-0.2,0.6-0.5,0.7v1C275,280.5,274.9,280.7,274.6,280.7z M274.6,278.2c-0.3,0-0.5,0.2-0.5,0.5
									c0,0.2,0.1,0.4,0.3,0.4l0.1,0v1.2c0,0,0,0,0.1,0c0.1,0,0.1,0,0.1,0v-1.2l0.1,0c0.1,0,0.3-0.1,0.3-0.4
									C275.1,278.4,274.9,278.2,274.6,278.2z"/>
							</g>
						</g>
						<g>
							<path class="st23" d="M271.3,338.5c-1.4,0-2.5,1.1-2.5,2.3v1.1c0,0.3,0.2,0.5,0.4,0.5c0.2,0,0.4-0.2,0.4-0.5v-1.1
								c0-0.8,0.7-1.5,1.6-1.5c0.9,0,1.6,0.7,1.6,1.5v2.4h0.9v-2.4C273.8,339.6,272.6,338.5,271.3,338.5z"/>
							<path class="st23" d="M273,343.1c-1.1,0.1-1.4,0.8-1.4,1.8c0,0.9,0,1.8,0,2.7c0.1,1.9,3,1.4,4.3,1.4c1.3,0,3.8,0.5,3.8-1.5
								c0-0.9,0-1.9,0-2.8c0-0.9-0.5-1.5-1.5-1.6C276.5,343.1,274.7,343.1,273,343.1c-0.5,0-0.5,0.8,0,0.8c1.2,0,2.4,0,3.6,0
								c0.5,0,1.1-0.1,1.6,0c0.9,0.1,0.6,1.3,0.6,2c0,0.5,0.1,1.2,0,1.7c-0.2,0.7-1.1,0.6-1.7,0.6c-1.4,0-2.8,0.1-4.1,0
								c-0.9-0.1-0.7-1.2-0.7-1.9c0-0.6-0.3-2.3,0.6-2.4C273.5,343.9,273.5,343.1,273,343.1z"/>
							<g>
								<path class="st23" d="M275.8,346v1.1c0,0.1-0.1,0.2-0.2,0.2c-0.1,0-0.2-0.1-0.2-0.2V346c-0.3-0.1-0.5-0.3-0.5-0.6
									c0-0.3,0.3-0.6,0.7-0.6c0.4,0,0.7,0.3,0.7,0.6C276.3,345.7,276.1,346,275.8,346L275.8,346z"/>
								<path class="st23" d="M275.6,347.5c-0.2,0-0.4-0.2-0.4-0.4v-1c-0.3-0.1-0.5-0.4-0.5-0.7c0-0.4,0.4-0.8,0.8-0.8
									c0.5,0,0.8,0.4,0.8,0.8c0,0.3-0.2,0.6-0.5,0.7v1C276,347.3,275.8,347.5,275.6,347.5z M275.6,345c-0.3,0-0.5,0.2-0.5,0.5
									c0,0.2,0.1,0.4,0.3,0.4l0.1,0v1.2c0,0,0,0,0.1,0c0.1,0,0.1,0,0.1,0v-1.2l0.1,0c0.1,0,0.3-0.1,0.3-0.4
									C276.1,345.2,275.9,345,275.6,345z"/>
							</g>
						</g>
						<g>
							<path class="st23" d="M271.3,321.8c-1.4,0-2.5,1.1-2.5,2.3v1.1c0,0.3,0.2,0.5,0.4,0.5c0.2,0,0.4-0.2,0.4-0.5v-1.1
								c0-0.8,0.7-1.5,1.6-1.5c0.9,0,1.6,0.7,1.6,1.5v2.4h0.9v-2.4C273.8,322.9,272.6,321.8,271.3,321.8z"/>
							<path class="st23" d="M273,326.4c-1.1,0.1-1.4,0.8-1.4,1.8c0,0.9,0,1.8,0,2.7c0.1,1.9,3,1.4,4.3,1.4c1.3,0,3.8,0.5,3.8-1.5
								c0-0.9,0-1.9,0-2.8c0-0.9-0.5-1.5-1.5-1.6C276.5,326.4,274.7,326.4,273,326.4c-0.5,0-0.5,0.8,0,0.8c1.2,0,2.4,0,3.6,0
								c0.5,0,1.1-0.1,1.6,0c0.9,0.1,0.6,1.3,0.6,2c0,0.5,0.1,1.2,0,1.7c-0.2,0.7-1.1,0.6-1.7,0.6c-1.4,0-2.8,0.1-4.1,0
								c-0.9-0.1-0.7-1.2-0.7-1.9c0-0.6-0.3-2.3,0.6-2.4C273.5,327.2,273.5,326.4,273,326.4z"/>
							<g>
								<path class="st23" d="M275.8,329.3v1.1c0,0.1-0.1,0.2-0.2,0.2c-0.1,0-0.2-0.1-0.2-0.2v-1.1c-0.3-0.1-0.5-0.3-0.5-0.6
									c0-0.3,0.3-0.6,0.7-0.6c0.4,0,0.7,0.3,0.7,0.6C276.3,329,276.1,329.3,275.8,329.3L275.8,329.3z"/>
								<path class="st23" d="M275.6,330.8c-0.2,0-0.4-0.2-0.4-0.4v-1c-0.3-0.1-0.5-0.4-0.5-0.7c0-0.4,0.4-0.8,0.8-0.8
									c0.5,0,0.8,0.4,0.8,0.8c0,0.3-0.2,0.6-0.5,0.7v1C276,330.6,275.8,330.8,275.6,330.8z M275.6,328.3c-0.3,0-0.5,0.2-0.5,0.5
									c0,0.2,0.1,0.4,0.3,0.4l0.1,0v1.2c0,0,0,0,0.1,0c0.1,0,0.1,0,0.1,0v-1.2l0.1,0c0.1,0,0.3-0.1,0.3-0.4
									C276.1,328.5,275.9,328.3,275.6,328.3z"/>
							</g>
						</g>
						<g>
							<path class="st23" d="M271.3,305.1c-1.4,0-2.5,1.1-2.5,2.3v1.1c0,0.3,0.2,0.5,0.4,0.5c0.2,0,0.4-0.2,0.4-0.5v-1.1
								c0-0.8,0.7-1.5,1.6-1.5c0.9,0,1.6,0.7,1.6,1.5v2.4h0.9v-2.4C273.8,306.2,272.6,305.1,271.3,305.1z"/>
							<path class="st23" d="M273,309.7c-1.1,0.1-1.4,0.8-1.4,1.8c0,0.9,0,1.8,0,2.7c0.1,1.9,3,1.4,4.3,1.4c1.3,0,3.8,0.5,3.8-1.5
								c0-0.9,0-1.9,0-2.8c0-0.9-0.5-1.5-1.5-1.6C276.5,309.6,274.7,309.7,273,309.7c-0.5,0-0.5,0.8,0,0.8c1.2,0,2.4,0,3.6,0
								c0.5,0,1.1-0.1,1.6,0c0.9,0.1,0.6,1.3,0.6,2c0,0.5,0.1,1.2,0,1.7c-0.2,0.7-1.1,0.6-1.7,0.6c-1.4,0-2.8,0.1-4.1,0
								c-0.9-0.1-0.7-1.2-0.7-1.9c0-0.6-0.3-2.3,0.6-2.4C273.5,310.5,273.5,309.7,273,309.7z"/>
							<g>
								<path class="st23" d="M275.8,312.6v1.1c0,0.1-0.1,0.2-0.2,0.2c-0.1,0-0.2-0.1-0.2-0.2v-1.1c-0.3-0.1-0.5-0.3-0.5-0.6
									c0-0.3,0.3-0.6,0.7-0.6c0.4,0,0.7,0.3,0.7,0.6C276.3,312.3,276.1,312.5,275.8,312.6L275.8,312.6z"/>
								<path class="st23" d="M275.6,314.1c-0.2,0-0.4-0.2-0.4-0.4v-1c-0.3-0.1-0.5-0.4-0.5-0.7c0-0.4,0.4-0.8,0.8-0.8
									c0.5,0,0.8,0.4,0.8,0.8c0,0.3-0.2,0.6-0.5,0.7v1C276,313.9,275.8,314.1,275.6,314.1z M275.6,311.6c-0.3,0-0.5,0.2-0.5,0.5
									c0,0.2,0.1,0.4,0.3,0.4l0.1,0v1.2c0,0,0,0,0.1,0c0.1,0,0.1,0,0.1,0v-1.2l0.1,0c0.1,0,0.3-0.1,0.3-0.4
									C276.1,311.8,275.9,311.6,275.6,311.6z"/>
							</g>
						</g>
						<g>
							<path class="st23" d="M271.3,288.4c-1.4,0-2.5,1.1-2.5,2.3v1.1c0,0.3,0.2,0.5,0.4,0.5c0.2,0,0.4-0.2,0.4-0.5v-1.1
								c0-0.8,0.7-1.5,1.6-1.5c0.9,0,1.6,0.7,1.6,1.5v2.4h0.9v-2.4C273.8,289.5,272.6,288.4,271.3,288.4z"/>
							<path class="st23" d="M273,293c-1.1,0.1-1.4,0.8-1.4,1.8c0,0.9,0,1.8,0,2.7c0.1,1.9,3,1.4,4.3,1.4c1.3,0,3.8,0.5,3.8-1.5
								c0-0.9,0-1.9,0-2.8c0-0.9-0.5-1.5-1.5-1.6C276.5,292.9,274.7,293,273,293c-0.5,0-0.5,0.8,0,0.8c1.2,0,2.4,0,3.6,0
								c0.5,0,1.1-0.1,1.6,0c0.9,0.1,0.6,1.3,0.6,2c0,0.5,0.1,1.2,0,1.7c-0.2,0.7-1.1,0.6-1.7,0.6c-1.4,0-2.8,0.1-4.1,0
								c-0.9-0.1-0.7-1.2-0.7-1.9c0-0.6-0.3-2.3,0.6-2.4C273.5,293.8,273.5,293,273,293z"/>
							<g>
								<path class="st23" d="M275.8,295.9v1.1c0,0.1-0.1,0.2-0.2,0.2c-0.1,0-0.2-0.1-0.2-0.2v-1.1c-0.3-0.1-0.5-0.3-0.5-0.6
									c0-0.3,0.3-0.6,0.7-0.6c0.4,0,0.7,0.3,0.7,0.6C276.3,295.6,276.1,295.8,275.8,295.9L275.8,295.9z"/>
								<path class="st23" d="M275.6,297.4c-0.2,0-0.4-0.2-0.4-0.4v-1c-0.3-0.1-0.5-0.4-0.5-0.7c0-0.4,0.4-0.8,0.8-0.8
									c0.5,0,0.8,0.4,0.8,0.8c0,0.3-0.2,0.6-0.5,0.7v1C276,297.2,275.8,297.4,275.6,297.4z M275.6,294.9c-0.3,0-0.5,0.2-0.5,0.5
									c0,0.2,0.1,0.4,0.3,0.4l0.1,0v1.2c0,0,0,0,0.1,0c0.1,0,0.1,0,0.1,0v-1.2l0.1,0c0.1,0,0.3-0.1,0.3-0.4
									C276.1,295.1,275.9,294.9,275.6,294.9z"/>
							</g>
						</g>
						<g>
							<g>
								<path class="st14" d="M132.6,269.2c48.6,0,97.1,0,145.7,0c2.1,0,4.2,0,6.3,0c0.5,0,0.5-0.8,0-0.8c-48.6,0-97.1,0-145.7,0
									c-2.1,0-4.2,0-6.3,0C132.1,268.5,132.1,269.2,132.6,269.2L132.6,269.2z"/>
							</g>
						</g>
						<g>
							<g>
								<path class="st14" d="M132.6,252.5c48.6,0,97.1,0,145.7,0c2.1,0,4.2,0,6.3,0c0.5,0,0.5-0.8,0-0.8c-48.6,0-97.1,0-145.7,0
									c-2.1,0-4.2,0-6.3,0C132.1,251.8,132.1,252.5,132.6,252.5L132.6,252.5z"/>
							</g>
						</g>
						<g>
							<g>
								<path class="st14" d="M265.2,252.4c0,33.2,0,66.5,0,99.7c0,0.5,0.8,0.5,0.8,0c0-33.2,0-66.5,0-99.7
									C265.9,252,265.2,252,265.2,252.4L265.2,252.4z"/>
							</g>
						</g>
						<g>
							<g>
								<path class="st14" d="M284.2,252.4c0,33.2,0,66.5,0,99.7c0,0.5,0.8,0.5,0.8,0c0-33.2,0-66.5,0-99.7
									C284.9,252,284.2,252,284.2,252.4L284.2,252.4z"/>
							</g>
						</g>
						<g>
							<g>
								<path class="st14" d="M132.2,252.4c0,33.2,0,66.5,0,99.7c0,0.5,0.8,0.5,0.8,0c0-33.2,0-66.5,0-99.7
									C132.9,252,132.2,252,132.2,252.4L132.2,252.4z"/>
							</g>
						</g>
						<g>
							<g>
								<path class="st14" d="M246.2,252.4c0,33.2,0,66.5,0,99.7c0,0.5,0.8,0.5,0.8,0c0-33.2,0-66.5,0-99.7
									C246.9,252,246.2,252,246.2,252.4L246.2,252.4z"/>
							</g>
						</g>
						<g>
							<g>
								<path class="st14" d="M132.6,285.9c48.6,0,97.1,0,145.7,0c2.1,0,4.2,0,6.3,0c0.5,0,0.5-0.8,0-0.8c-48.6,0-97.1,0-145.7,0
									c-2.1,0-4.2,0-6.3,0C132.1,285.1,132.1,285.9,132.6,285.9L132.6,285.9z"/>
							</g>
						</g>
						<g>
							<g>
								<path class="st14" d="M132.6,302.5c48.6,0,97.1,0,145.7,0c2.1,0,4.2,0,6.3,0c0.5,0,0.5-0.8,0-0.8c-48.6,0-97.1,0-145.7,0
									c-2.1,0-4.2,0-6.3,0C132.1,301.8,132.1,302.5,132.6,302.5L132.6,302.5z"/>
							</g>
						</g>
						<g>
							<g>
								<path class="st14" d="M132.6,319.2c48.6,0,97.1,0,145.7,0c2.1,0,4.2,0,6.3,0c0.5,0,0.5-0.8,0-0.8c-48.6,0-97.1,0-145.7,0
									c-2.1,0-4.2,0-6.3,0C132.1,318.5,132.1,319.2,132.6,319.2L132.6,319.2z"/>
							</g>
						</g>
						<g>
							<g>
								<path class="st14" d="M132.6,335.9c48.6,0,97.1,0,145.7,0c2.1,0,4.2,0,6.3,0c0.5,0,0.5-0.8,0-0.8c-48.6,0-97.1,0-145.7,0
									c-2.1,0-4.2,0-6.3,0C132.1,335.1,132.1,335.9,132.6,335.9L132.6,335.9z"/>
							</g>
						</g>
						<g>
							<g>
								<path class="st14" d="M132.6,352.5c48.6,0,97.1,0,145.7,0c2.1,0,4.2,0,6.3,0c0.5,0,0.5-0.8,0-0.8c-48.6,0-97.1,0-145.7,0
									c-2.1,0-4.2,0-6.3,0C132.1,351.8,132.1,352.5,132.6,352.5L132.6,352.5z"/>
							</g>
						</g>
						<g>
							<g>
								<path class="st24" d="M256,298.8l0-2.6c-0.6,0-1.1-0.2-1.6-0.6l-1.8,1.9C253.5,298.3,254.7,298.8,256,298.8z"/>
								<path class="st24" d="M258.7,293.5l2.5,0c0-1.3-0.6-2.5-1.4-3.4l-1.7,1.8C258.4,292.3,258.7,292.9,258.7,293.5z"/>
								<path class="st24" d="M256.2,290.9c0.6,0,1.2,0.3,1.6,0.7l1.7-1.7c-0.9-0.8-2-1.3-3.3-1.4L256.2,290.9z"/>
								<path class="st24" d="M254.2,291.7c0.5-0.5,1.1-0.7,1.8-0.8l0-2.4c-1.4,0-2.6,0.6-3.5,1.5L254.2,291.7z"/>
								<path class="st24" d="M252.4,297.3l1.8-1.9c-0.4-0.4-0.7-1-0.8-1.6l-2.5,0l0-0.2l2.5,0c0,0,0,0,0,0c0-0.6,0.2-1.2,0.6-1.7
									l-1.7-1.7c-0.8,0.9-1.4,2.1-1.4,3.5C250.9,295.1,251.5,296.4,252.4,297.3z"/>
								<path class="st24" d="M257.8,295.5c-0.4,0.4-1,0.6-1.5,0.6l0,2.6c1.3,0,2.5-0.6,3.4-1.4L257.8,295.5z"/>
								<path class="st24" d="M258.7,293.8c-0.1,0.6-0.3,1.2-0.7,1.6l1.8,1.8c0.8-0.9,1.3-2.1,1.4-3.4L258.7,293.8z"/>
							</g>
							<line class="st25" x1="250.1" y1="299.7" x2="261.8" y2="287.9"/>
						</g>
						<g>
							<g>
								<path class="st24" d="M256,315.8l0-2.6c-0.6,0-1.1-0.2-1.6-0.6l-1.8,1.9C253.5,315.3,254.7,315.8,256,315.8z"/>
								<path class="st24" d="M258.7,310.5l2.5,0c0-1.3-0.6-2.5-1.4-3.4l-1.7,1.8C258.4,309.3,258.7,309.9,258.7,310.5z"/>
								<path class="st24" d="M256.2,307.9c0.6,0,1.2,0.3,1.6,0.7l1.7-1.7c-0.9-0.8-2-1.3-3.3-1.4L256.2,307.9z"/>
								<path class="st24" d="M254.2,308.7c0.5-0.5,1.1-0.7,1.8-0.8l0-2.4c-1.4,0-2.6,0.6-3.5,1.5L254.2,308.7z"/>
								<path class="st24" d="M252.4,314.3l1.8-1.9c-0.4-0.4-0.7-1-0.8-1.6l-2.5,0l0-0.2l2.5,0c0,0,0,0,0,0c0-0.6,0.2-1.2,0.6-1.7
									l-1.7-1.7c-0.8,0.9-1.4,2.1-1.4,3.5C250.9,312.1,251.5,313.4,252.4,314.3z"/>
								<path class="st24" d="M257.8,312.5c-0.4,0.4-1,0.6-1.5,0.6l0,2.6c1.3,0,2.5-0.6,3.4-1.4L257.8,312.5z"/>
								<path class="st24" d="M258.7,310.8c-0.1,0.6-0.3,1.2-0.7,1.6l1.8,1.8c0.8-0.9,1.3-2.1,1.4-3.4L258.7,310.8z"/>
							</g>
							<line class="st25" x1="250.1" y1="316.7" x2="261.8" y2="304.9"/>
						</g>
						<g>
							<g>
								<path class="st24" d="M256,332.8l0-2.6c-0.6,0-1.1-0.2-1.6-0.6l-1.8,1.9C253.5,332.3,254.7,332.8,256,332.8z"/>
								<path class="st24" d="M258.7,327.5l2.5,0c0-1.3-0.6-2.5-1.4-3.4l-1.7,1.8C258.4,326.3,258.7,326.9,258.7,327.5z"/>
								<path class="st24" d="M256.2,324.9c0.6,0,1.2,0.3,1.6,0.7l1.7-1.7c-0.9-0.8-2-1.3-3.3-1.4L256.2,324.9z"/>
								<path class="st24" d="M254.2,325.7c0.5-0.5,1.1-0.7,1.8-0.8l0-2.4c-1.4,0-2.6,0.6-3.5,1.5L254.2,325.7z"/>
								<path class="st24" d="M252.4,331.3l1.8-1.9c-0.4-0.4-0.7-1-0.8-1.6l-2.5,0l0-0.2l2.5,0c0,0,0,0,0,0c0-0.6,0.2-1.2,0.6-1.7
									l-1.7-1.7c-0.8,0.9-1.4,2.1-1.4,3.5C250.9,329.1,251.5,330.4,252.4,331.3z"/>
								<path class="st24" d="M257.8,329.5c-0.4,0.4-1,0.6-1.5,0.6l0,2.6c1.3,0,2.5-0.6,3.4-1.4L257.8,329.5z"/>
								<path class="st24" d="M258.7,327.8c-0.1,0.6-0.3,1.2-0.7,1.6l1.8,1.8c0.8-0.9,1.3-2.1,1.4-3.4L258.7,327.8z"/>
							</g>
							<line class="st25" x1="250.1" y1="333.7" x2="261.8" y2="321.9"/>
						</g>
						<g>
							<g>
								<path class="st24" d="M256,348.8l0-2.6c-0.6,0-1.1-0.2-1.6-0.6l-1.8,1.9C253.5,348.3,254.7,348.8,256,348.8z"/>
								<path class="st24" d="M258.7,343.5l2.5,0c0-1.3-0.6-2.5-1.4-3.4l-1.7,1.8C258.4,342.3,258.7,342.9,258.7,343.5z"/>
								<path class="st24" d="M256.2,340.9c0.6,0,1.2,0.3,1.6,0.7l1.7-1.7c-0.9-0.8-2-1.3-3.3-1.4L256.2,340.9z"/>
								<path class="st24" d="M254.2,341.7c0.5-0.5,1.1-0.7,1.8-0.8l0-2.4c-1.4,0-2.6,0.6-3.5,1.5L254.2,341.7z"/>
								<path class="st24" d="M252.4,347.3l1.8-1.9c-0.4-0.4-0.7-1-0.8-1.6l-2.5,0l0-0.2l2.5,0c0,0,0,0,0,0c0-0.6,0.2-1.2,0.6-1.7
									l-1.7-1.7c-0.8,0.9-1.4,2.1-1.4,3.5C250.9,345.1,251.5,346.4,252.4,347.3z"/>
								<path class="st24" d="M257.8,345.5c-0.4,0.4-1,0.6-1.5,0.6l0,2.6c1.3,0,2.5-0.6,3.4-1.4L257.8,345.5z"/>
								<path class="st24" d="M258.7,343.8c-0.1,0.6-0.3,1.2-0.7,1.6l1.8,1.8c0.8-0.9,1.3-2.1,1.4-3.4L258.7,343.8z"/>
							</g>
							<line class="st25" x1="250.1" y1="349.7" x2="261.8" y2="337.9"/>
						</g>
					</g>
				</g>
				<g>
					<g>
						<g>
							<path class="st3" d="M289.3,350.1v-95.7c0-1.2,1-2.2,2.2-2.2h1.6c1.2,0,2.2,1,2.2,2.2v95.7c0,1.2-1,2.2-2.2,2.2h-1.6
								C290.3,352.3,289.3,351.3,289.3,350.1z"/>
						</g>
					</g>
				</g>
				<g>
					<g>
						<g>
							<path class="st6" d="M290.1,297.2v-20.4c0-0.9,0.7-1.6,1.6-1.6h1.1c0.9,0,1.6,0.7,1.6,1.6v20.4c0,0.9-0.7,1.6-1.6,1.6h-1.1
								C290.9,298.8,290.1,298.1,290.1,297.2z"/>
						</g>
					</g>
				</g>
			</g>
			<g>
				<g>
					<text transform="matrix(1 0 0 1 135.9561 193.3416)" class="st4 st28 st34">Morphs</text>
				</g>
				<g>
					<circle class="st10" cx="123.8" cy="188.1" r="5.5"/>
				</g>
				<line class="st9" x1="118" y1="201.6" x2="299" y2="201.6"/>
				<circle class="st4" cx="123.8" cy="188.1" r="3.1"/>
			</g>
		</g>
		<g>
			<g>
				<g>
					<g>
						<g>
							<path class="st8" d="M759.1,367.6H330.2c-5,0-9.1-4.2-9-9.1V202.2l447-0.2v156.2C768.3,363.4,764.1,367.6,759.1,367.6z"/>
						</g>
					</g>
				</g>
			</g>
			<g>
				<line class="st9" x1="322" y1="201.6" x2="767" y2="201.6"/>
			</g>
		</g>
		<g>
			<g>
				<g>
					<g>
						<path class="st8" d="M291.1,700.7H126.2c-5,0-9.1-4.2-9-9.1V432.2l183-0.2v259.4C300.3,696.5,296.1,700.7,291.1,700.7z"/>
					</g>
				</g>
			</g>
			<g>
				<g>
					<g>
						<path class="st3" d="M289.3,681.9V484.4c0-1.2,1-2.2,2.2-2.2h1.6c1.2,0,2.2,1,2.2,2.2v197.5c0,1.2-1,2.2-2.2,2.2h-1.6
							C290.3,684.1,289.3,683.1,289.3,681.9z"/>
					</g>
				</g>
			</g>
			<g>
				<g>
					<g>
						<path class="st6" d="M290.1,527.2v-20.4c0-0.9,0.7-1.6,1.6-1.6h1.1c0.9,0,1.6,0.7,1.6,1.6v20.4c0,0.9-0.7,1.6-1.6,1.6h-1.1
							C290.9,528.8,290.1,528.1,290.1,527.2z"/>
					</g>
				</g>
			</g>
			<g>
				<g>
					<text transform="matrix(1 0 0 1 135.9561 405.3416)"><tspan x="0" y="0" class="st4 st28 st34">Scripts, Connections </tspan><tspan x="0" y="16.8" class="st4 st28 st34">and Properties</tspan></text>
				</g>
				<g>
					<circle class="st10" cx="123.8" cy="400.1" r="5.5"/>
				</g>
				<line class="st9" x1="118" y1="431.6" x2="299" y2="431.6"/>
				<circle class="st4" cx="123.8" cy="400.1" r="3.1"/>
			</g>
			<g>
				<g>
					<g>
						<g>
							<g>
								<path class="st3" d="M277.3,467.8H139.9c-4.3,0-7.8-3.5-7.8-7.8v-4.3c0-4.3,3.5-7.8,7.8-7.8h137.3c4.3,0,7.8,3.5,7.8,7.8
									v4.3C285.1,464.3,281.6,467.8,277.3,467.8z"/>
							</g>
						</g>
					</g>
					<g>
						<text transform="matrix(1 0 0 1 138.1283 462.2595)" class="st11 st30 st31">Most Used</text>
					</g>
					<g>
						<g>
							<g>
								<path class="st4" d="M264.9,447.9h12.5c4.2,0,7.7,3.5,7.7,7.7v4.5c0,4.2-3.5,7.7-7.7,7.7h-12.5V447.9z"/>
							</g>
						</g>
						<g>
							<polyline class="st12" points="278.5,456.7 275,460.2 271.5,456.7 							"/>
						</g>
					</g>
				</g>
				<rect x="244.5" y="515.4" class="st13" width="40.8" height="17.3"/>
				<rect x="132.5" y="550" class="st4" width="112" height="16.1"/>
				<rect x="132.5" y="499.1" class="st4" width="112" height="16.1"/>
				<g>
					<g>
						<g>
							<path class="st14" d="M132.1,499.2c48.6,0,97.2,0,145.9,0c2.4,0,4.8,0,7.1,0c0.5,0,0.5-0.8,0-0.8c-48.6,0-97.2,0-145.9,0
								c-2.4,0-4.8,0-7.1,0C131.6,498.5,131.6,499.2,132.1,499.2L132.1,499.2z"/>
						</g>
					</g>
					<g>
						<g>
							<path class="st14" d="M132.1,482.5c48.6,0,97.2,0,145.9,0c2.4,0,4.8,0,7.1,0c0.5,0,0.5-0.8,0-0.8c-48.6,0-97.2,0-145.9,0
								c-2.4,0-4.8,0-7.1,0C131.6,481.8,131.6,482.5,132.1,482.5L132.1,482.5z"/>
						</g>
					</g>
					<g>
						<g>
							<path class="st14" d="M284.7,482.4c0,49.2,0,98.3,0,147.5c0,17.7,0,35.5,0,53.2c0,0.5,0.8,0.5,0.8,0c0-49.2,0-98.3,0-147.5
								c0-17.7,0-35.5,0-53.2C285.5,482,284.7,482,284.7,482.4L284.7,482.4z"/>
						</g>
					</g>
					<g>
						<g>
							<path class="st14" d="M131.7,482.4c0,49.2,0,98.3,0,147.5c0,17.7,0,35.5,0,53.2c0,0.5,0.8,0.5,0.8,0c0-49.2,0-98.3,0-147.5
								c0-17.7,0-35.5,0-53.2C132.5,482,131.7,482,131.7,482.4L131.7,482.4z"/>
						</g>
					</g>
					<g>
						<g>
							<path class="st14" d="M243.9,482.4c0,49.2,0,98.3,0,147.5c0,17.7,0,35.5,0,53.2c0,0.5,0.8,0.5,0.8,0c0-49.2,0-98.3,0-147.5
								c0-17.7,0-35.5,0-53.2C244.6,482,243.9,482,243.9,482.4L243.9,482.4z"/>
						</g>
					</g>
					<g>
						<g>
							<path class="st14" d="M132.1,515.9c48.6,0,97.2,0,145.9,0c2.4,0,4.8,0,7.1,0c0.5,0,0.5-0.8,0-0.8c-48.6,0-97.2,0-145.9,0
								c-2.4,0-4.8,0-7.1,0C131.6,515.1,131.6,515.9,132.1,515.9L132.1,515.9z"/>
						</g>
					</g>
					<g>
						<g>
							<path class="st14" d="M132.1,533.1c48.6,0,97.2,0,145.9,0c2.4,0,4.8,0,7.1,0c0.5,0,0.5-0.8,0-0.8c-48.6,0-97.2,0-145.9,0
								c-2.4,0-4.8,0-7.1,0C131.6,532.3,131.6,533.1,132.1,533.1L132.1,533.1z"/>
						</g>
					</g>
					<g>
						<g>
							<path class="st14" d="M132.1,549.9c48.6,0,97.2,0,145.9,0c2.4,0,4.8,0,7.1,0c0.5,0,0.5-0.8,0-0.8c-48.6,0-97.2,0-145.9,0
								c-2.4,0-4.8,0-7.1,0C131.6,549.2,131.6,549.9,132.1,549.9L132.1,549.9z"/>
						</g>
					</g>
					<g>
						<g>
							<path class="st14" d="M132.1,566.8c48.6,0,97.2,0,145.9,0c2.4,0,4.8,0,7.1,0c0.5,0,0.5-0.8,0-0.8c-48.6,0-97.2,0-145.9,0
								c-2.4,0-4.8,0-7.1,0C131.6,566,131.6,566.8,132.1,566.8L132.1,566.8z"/>
						</g>
					</g>
					<g>
						<g>
							<path class="st14" d="M132.1,583.6c48.6,0,97.2,0,145.9,0c2.4,0,4.8,0,7.1,0c0.5,0,0.5-0.8,0-0.8c-48.6,0-97.2,0-145.9,0
								c-2.4,0-4.8,0-7.1,0C131.6,582.9,131.6,583.6,132.1,583.6L132.1,583.6z"/>
						</g>
					</g>
					<g>
						<g>
							<path class="st14" d="M132.1,600.5c48.6,0,97.2,0,145.9,0c2.4,0,4.8,0,7.1,0c0.5,0,0.5-0.8,0-0.8c-48.6,0-97.2,0-145.9,0
								c-2.4,0-4.8,0-7.1,0C131.6,599.7,131.6,600.5,132.1,600.5L132.1,600.5z"/>
						</g>
					</g>
					<g>
						<g>
							<path class="st14" d="M132.1,617.3c48.6,0,97.2,0,145.9,0c2.4,0,4.8,0,7.1,0c0.5,0,0.5-0.8,0-0.8c-48.6,0-97.2,0-145.9,0
								c-2.4,0-4.8,0-7.1,0C131.6,616.6,131.6,617.3,132.1,617.3L132.1,617.3z"/>
						</g>
					</g>
					<g>
						<g>
							<path class="st14" d="M132.1,634.2c48.6,0,97.2,0,145.9,0c2.4,0,4.8,0,7.1,0c0.5,0,0.5-0.8,0-0.8c-48.6,0-97.2,0-145.9,0
								c-2.4,0-4.8,0-7.1,0C131.6,633.4,131.6,634.2,132.1,634.2L132.1,634.2z"/>
						</g>
					</g>
					<g>
						<g>
							<path class="st14" d="M132.1,651c48.6,0,97.2,0,145.9,0c2.4,0,4.8,0,7.1,0c0.5,0,0.5-0.8,0-0.8c-48.6,0-97.2,0-145.9,0
								c-2.4,0-4.8,0-7.1,0C131.6,650.3,131.6,651,132.1,651L132.1,651z"/>
						</g>
					</g>
					<g>
						<g>
							<path class="st14" d="M132.1,667.9c48.6,0,97.2,0,145.9,0c2.4,0,4.8,0,7.1,0c0.5,0,0.5-0.8,0-0.8c-48.6,0-97.2,0-145.9,0
								c-2.4,0-4.8,0-7.1,0C131.6,667.1,131.6,667.9,132.1,667.9L132.1,667.9z"/>
						</g>
					</g>
					<g>
						<g>
							<path class="st14" d="M132.1,684.3c48.6,0,97.2,0,145.9,0c2.4,0,4.8,0,7.1,0c0.5,0,0.5-0.8,0-0.8c-48.6,0-97.2,0-145.9,0
								c-2.4,0-4.8,0-7.1,0C131.6,683.6,131.6,684.3,132.1,684.3L132.1,684.3z"/>
						</g>
					</g>
					<g>
						<g>
							<text transform="matrix(0.9952 0 0 1 137.7103 493.5959)"><tspan x="0" y="0" class="st11 st30 st32">Connection</tspan><tspan x="0" y="17" class="st3 st33 st32">Script 1</tspan><tspan x="0" y="34" class="st11 st30 st32">Property 10</tspan><tspan x="0" y="51" class="st11 st30 st32">Script 8</tspan><tspan x="0" y="68" class="st3 st33 st32">Script 3</tspan><tspan x="0" y="85" class="st11 st30 st32">Connection 7</tspan><tspan x="0" y="102" class="st11 st30 st32">Script 4</tspan><tspan x="0" y="119" class="st11 st30 st32">Connection 5</tspan><tspan x="0" y="136" class="st11 st30 st32">Property 4 </tspan><tspan x="0" y="153" class="st11 st30 st32">Property 5</tspan><tspan x="0" y="170" class="st11 st30 st32">Connection 8</tspan><tspan x="0" y="187" class="st11 st30 st32">Connection 5</tspan></text>
						</g>
					</g>
					<g>
						<g>
							<path class="st14" d="M264.4,617.3c0,5.5,0,11,0,16.5c0,0.5,0.8,0.5,0.8,0c0-5.5,0-11,0-16.5
								C265.2,616.8,264.4,616.8,264.4,617.3L264.4,617.3z"/>
						</g>
					</g>
				</g>
				<g>
					<text transform="matrix(1 0 0 1 248.6833 644.8361)" class="st11 st30 st35">pt (10,10)</text>
				</g>
				<g>
					<text transform="matrix(1 0 0 1 247.3009 628.0666)" class="st11 st30 st35">True</text>
				</g>
				<g>
					<text transform="matrix(1 0 0 1 267.2618 628.0666)" class="st11 st30 st35">True</text>
				</g>
			</g>
		</g>
		<g>
			<path class="st2" d="M768.1,186.3c1.2,6.2-4.2,11.6-10.4,10.4c-3.5-0.7-6.3-3.5-6.9-6.9c-1.2-6.2,4.2-11.6,10.4-10.4
				C764.6,180.1,767.4,182.9,768.1,186.3z"/>
		</g>
		<g>
			<path class="st2" d="M745.3,186.3c1.2,6.2-4.2,11.6-10.4,10.4c-3.5-0.7-6.3-3.5-6.9-6.9c-1.2-6.2,4.2-11.6,10.4-10.4
				C741.9,180.1,744.7,182.9,745.3,186.3z"/>
		</g>
		<g>
			<path class="st2" d="M722.6,186.3c1.2,6.2-4.2,11.6-10.4,10.4c-3.5-0.7-6.3-3.5-6.9-6.9c-1.2-6.2,4.2-11.6,10.4-10.4
				C719.1,180.1,721.9,182.9,722.6,186.3z"/>
		</g>
		<g>
			<path class="st2" d="M699.8,186.3c1.2,6.2-4.2,11.6-10.4,10.4c-3.5-0.7-6.3-3.5-6.9-6.9c-1.2-6.2,4.2-11.6,10.4-10.4
				C696.4,180.1,699.2,182.9,699.8,186.3z"/>
		</g>
		<g>
			<g>
				<path class="st3" d="M763.7,185.8c0-0.2-0.1-0.5-0.3-0.6c-0.3-0.3-0.9-0.3-1.3,0l-3.6,3.6c-0.1,0.1-0.4,0.1-0.5,0l-1.3-1.3
					c-0.2-0.2-0.4-0.3-0.6-0.3s-0.5,0.1-0.6,0.3c-0.4,0.4-0.4,0.9,0,1.3l2.2,2.2c0.3,0.3,0.9,0.3,1.3,0l4.5-4.5
					C763.6,186.3,763.7,186.1,763.7,185.8z"/>
			</g>
		</g>
		<g>
			<g>
				<g>
					<path class="st3" d="M732.2,187.1c1.8,1.8,3.7,3.7,5.5,5.5c2.3,2.3,5.8-1.3,3.5-3.5c-1.8-1.8-3.7-3.7-5.5-5.5
						C733.4,181.3,729.9,184.8,732.2,187.1L732.2,187.1z"/>
				</g>
			</g>
			<g>
				<g>
					<path class="st3" d="M735.7,192.6c1.8-1.8,3.7-3.7,5.5-5.5c2.3-2.3-1.3-5.8-3.5-3.5c-1.8,1.8-3.7,3.7-5.5,5.5
						C729.9,191.3,733.4,194.9,735.7,192.6L735.7,192.6z"/>
				</g>
			</g>
		</g>
		<g>
			<g>
				<path class="st16" d="M709.7,192.7c0.1,0,0.2,0,0.3-0.1l2.7-2.7l0.2,0.1c0.5,0.3,1,0.5,1.6,0.6c0.1,0,0.3,0,0.4,0l0,0
					c1,0,1.8-0.4,2.5-1.1c0.7-0.7,1-1.6,1-2.5c0-1.8-1.4-3.3-3.1-3.5c-0.1,0-0.3,0-0.4,0l0,0c-1,0-1.8,0.4-2.5,1.1
					c-0.7,0.7-1,1.6-1,2.5c0,0.8,0.3,1.5,0.7,2.1l0.1,0.2l-2.7,2.7c-0.1,0.1-0.1,0.2-0.1,0.3c0,0.1,0,0.2,0.1,0.3
					C709.6,192.6,709.6,192.7,709.7,192.7z M712.1,187c0-0.7,0.3-1.5,0.8-2c0.5-0.5,1.2-0.8,2-0.8l0,0c0.1,0,0.2,0,0.3,0
					c1.4,0.2,2.5,1.4,2.5,2.8c0,0.7-0.3,1.5-0.8,2c-0.5,0.5-1.2,0.8-2,0.8l0,0c-0.1,0-0.2,0-0.3,0
					C713.1,189.6,712.1,188.5,712.1,187z"/>
			</g>
		</g>
		<g>
			<g>
				<g>
					<polygon class="st17" points="688.9,184.6 695.2,188.1 688.9,191.5 					"/>
				</g>
			</g>
		</g>
		<g>
			<g>
				<g>
					<g>
						<g>
							<g>
								<path class="st8" d="M759.1,700.6H330.2c-5,0-9.1-4.2-9-9.1V432.2l447-0.2v259.2C768.3,696.4,764.1,700.6,759.1,700.6z"/>
							</g>
						</g>
					</g>
				</g>
				<g>
					<line class="st9" x1="322" y1="431.6" x2="767" y2="431.6"/>
				</g>
			</g>
			<g>
				<path class="st2" d="M768.1,416.3c1.2,6.2-4.2,11.6-10.4,10.4c-3.5-0.7-6.3-3.5-6.9-6.9c-1.2-6.2,4.2-11.6,10.4-10.4
					C764.6,410.1,767.4,412.9,768.1,416.3z"/>
			</g>
			<g>
				<path class="st2" d="M745.3,416.3c1.2,6.2-4.2,11.6-10.4,10.4c-3.5-0.7-6.3-3.5-6.9-6.9c-1.2-6.2,4.2-11.6,10.4-10.4
					C741.9,410.1,744.7,412.9,745.3,416.3z"/>
			</g>
			<g>
				<path class="st2" d="M722.6,416.3c1.2,6.2-4.2,11.6-10.4,10.4c-3.5-0.7-6.3-3.5-6.9-6.9c-1.2-6.2,4.2-11.6,10.4-10.4
					C719.1,410.1,721.9,412.9,722.6,416.3z"/>
			</g>
			<g>
				<path class="st2" d="M699.8,416.3c1.2,6.2-4.2,11.6-10.4,10.4c-3.5-0.7-6.3-3.5-6.9-6.9c-1.2-6.2,4.2-11.6,10.4-10.4
					C696.4,410.1,699.2,412.9,699.8,416.3z"/>
			</g>
			<g>
				<g>
					<path class="st3" d="M763.7,415.8c0-0.2-0.1-0.5-0.3-0.6c-0.3-0.3-0.9-0.3-1.3,0l-3.6,3.6c-0.1,0.1-0.4,0.1-0.5,0l-1.3-1.3
						c-0.2-0.2-0.4-0.3-0.6-0.3s-0.5,0.1-0.6,0.3c-0.4,0.4-0.4,0.9,0,1.3l2.2,2.2c0.3,0.3,0.9,0.3,1.3,0l4.5-4.5
						C763.6,416.3,763.7,416.1,763.7,415.8z"/>
				</g>
			</g>
			<g>
				<g>
					<g>
						<path class="st3" d="M732.2,417.1c1.8,1.8,3.7,3.7,5.5,5.5c2.3,2.3,5.8-1.3,3.5-3.5c-1.8-1.8-3.7-3.7-5.5-5.5
							C733.4,411.3,729.9,414.8,732.2,417.1L732.2,417.1z"/>
					</g>
				</g>
				<g>
					<g>
						<path class="st3" d="M735.7,422.6c1.8-1.8,3.7-3.7,5.5-5.5c2.3-2.3-1.3-5.8-3.5-3.5c-1.8,1.8-3.7,3.7-5.5,5.5
							C729.9,421.3,733.4,424.9,735.7,422.6L735.7,422.6z"/>
					</g>
				</g>
			</g>
			<g>
				<g>
					<path class="st16" d="M709.7,422.7c0.1,0,0.2,0,0.3-0.1l2.7-2.7l0.2,0.1c0.5,0.3,1,0.5,1.6,0.6c0.1,0,0.3,0,0.4,0l0,0
						c1,0,1.8-0.4,2.5-1.1c0.7-0.7,1-1.6,1-2.5c0-1.8-1.4-3.3-3.1-3.5c-0.1,0-0.3,0-0.4,0l0,0c-1,0-1.8,0.4-2.5,1.1
						c-0.7,0.7-1,1.6-1,2.5c0,0.8,0.3,1.5,0.7,2.1l0.1,0.2l-2.7,2.7c-0.1,0.1-0.1,0.2-0.1,0.3c0,0.1,0,0.2,0.1,0.3
						C709.6,422.6,709.6,422.7,709.7,422.7z M712.1,417c0-0.7,0.3-1.5,0.8-2c0.5-0.5,1.2-0.8,2-0.8l0,0c0.1,0,0.2,0,0.3,0
						c1.4,0.2,2.5,1.4,2.5,2.8c0,0.7-0.3,1.5-0.8,2c-0.5,0.5-1.2,0.8-2,0.8l0,0c-0.1,0-0.2,0-0.3,0
						C713.1,419.6,712.1,418.5,712.1,417z"/>
				</g>
			</g>
			<g>
				<g>
					<g>
						<polygon class="st17" points="688.9,414.6 695.2,418.1 688.9,421.5 						"/>
					</g>
				</g>
			</g>
		</g>
		<g>
			<rect x="335.2" y="216.8" class="st36" width="416.5" height="132.9"/>
			<text transform="matrix(0.9952 0 0 1 335.1957 225.1867)"><tspan x="0" y="0" class="st4 st30 st37">this.</tspan><tspan x="21.5" y="0" class="st11 st30 st37">addScript(function rebuildButtons() {  //this.rebuildButtons();</tspan><tspan x="0" y="17" class="st11 st30 st37">    this.submorphs.select(function (m) { return m instanceof lively.morphic.Button })</tspan></text>
		</g>
		<g>
			<text transform="matrix(0.9952 0 0 1 335.1958 470.7922)"><tspan x="0" y="0" class="st4 st30 st37">this.</tspan><tspan x="21.5" y="0" class="st11 st30 st37">addScript(function movePiston(cyl) { // Method to move piston and connecting </tspan><tspan x="0" y="17" class="st11 st30 st37">    var pi = Math.PI;</tspan><tspan x="0" y="34" class="st11 st30 st37">    var phase = (this.crankAngle - cyl.angle);</tspan><tspan x="0" y="51" class="st11 st30 st37">    if (phase &lt; 0) phase += pi*4;</tspan><tspan x="0" y="68" class="st11 st30 st37">    var dy = (Math.cos(phase) - 1 - 0.1) * this.stroke/2;  //0.1 fudge for appearance</tspan><tspan x="0" y="85" class="st11 st30 st37">    cyl.piston.setPosition(cyl.piston.topPos.addXY(0, -dy));</tspan><tspan x="0" y="102" class="st11 st30 st37">    var cycle = Math.floor(phase / pi);  // Change color based on cycle</tspan><tspan x="0" y="119" class="st11 st30 st37">    var frac = phase / pi - cycle;  // Change shading based on fractional part of cycle</tspan><tspan x="0" y="136" class="st11 st30 st37">    switch (cycle) {</tspan><tspan x="0" y="153" class="st11 st30 st37">    </tspan></text>
		</g>
	</g>
	<line class="st38" x1="768.5" y1="-0.4" x2="768.5" y2="809.6"/>
	<line class="st38" x1="321.5" y1="-0.4" x2="321.5" y2="809.6"/>
	<line class="st38" x1="299.5" y1="-0.4" x2="299.5" y2="809.6"/>
	<line class="st38" x1="101.5" y1="-0.4" x2="101.5" y2="809.6"/>
	<rect x="102.2" y="216.1" class="st39" width="15" height="15"/>
	<rect x="197.6" y="202.6" class="st39" width="15" height="15"/>
	<text transform="matrix(1 0 0 1 102.1518 228.3667)" class="st11 st30 st32">15px</text>
	<rect x="727.8" y="186.2" class="st39" width="18" height="18"/>
	<rect x="700.1" y="179.8" class="st39" width="5" height="17"/>
	<text transform="matrix(1 0 0 1 726.907 199.7276)" class="st11 st30 st32">18px</text>
	<text transform="matrix(1 0 0 1 692.657 176.6026)" class="st11 st30 st32">5px</text>
	<rect x="197.6" y="237.8" class="st39" width="15" height="14.6"/>
	<text transform="matrix(1 0 0 1 192.0302 250.1011)" class="st11 st30 st32">15px</text>
	<rect x="200.4" y="352.4" class="st39" width="15" height="15"/>
	<rect x="136.6" y="367.9" class="st39" width="7.1" height="27"/>
	<rect x="132.8" y="482.9" class="st39" width="111.2" height="16.7"/>
	<text transform="matrix(1 0 0 1 200.3914 364.6414)" class="st11 st30 st32">15px</text>
	<rect x="200.4" y="701.4" class="st39" width="15" height="15"/>
	<text transform="matrix(1 0 0 1 200.3914 713.6915)" class="st11 st30 st32">15px</text>
	<rect x="768.6" y="604.2" class="st39" width="15" height="15"/>
	<text transform="matrix(1 0 0 1 768.5641 616.4726)" class="st11 st30 st32">15px</text>
	<text transform="matrix(1 0 0 1 146.9502 385.815)" class="st11 st30 st32">27px</text>
	<text transform="matrix(1 0 0 1 159.2539 494.7626)" class="st11 st30 st32">111 x 16px</text>
	<rect x="132.8" y="302.3" class="st39" width="113.5" height="16.7"/>
	<text transform="matrix(1 0 0 1 159.2539 314.1852)" class="st11 st30 st32">111 x 16px</text>
	<rect x="244.8" y="499.2" class="st39" width="40.5" height="16.7"/>
	<rect x="246.8" y="335.9" class="st39" width="18.4" height="15.9"/>
	<text transform="matrix(1 0 0 1 245.2734 511.0959)" class="st11 st30 st32">40x16px</text>
	<rect x="285.2" y="304.5" class="st39" width="15" height="15"/>
	<text transform="matrix(1 0 0 1 285.1555 316.8258)" class="st11 st30 st32">15px</text>
	<text transform="matrix(1 0 0 1 248.4889 361.1591)" class="st11 st30 st32">18x16px</text>
	<rect x="300.1" y="249.3" class="st39" width="21" height="21"/>
	<text transform="matrix(1 0 0 1 300.0464 268.058)" class="st11 st30 st32">21px</text>
	<rect x="117.4" y="285.4" class="st39" width="15" height="15"/>
	<text transform="matrix(1 0 0 1 117.2642 297.6995)" class="st11 st30 st32">15px</text>
	<text transform="matrix(1 0 0 1 192.0302 213.8046)" class="st11 st30 st32">15px</text>
</g>
</svg>
