<?xml version="1.0" encoding="utf-8"?>
<!-- Generator: Adobe Illustrator 19.1.0, SVG Export Plug-In . SVG Version: 6.00 Build 0)  -->
<svg version="1.1" id="Layer_1" xmlns="http://www.w3.org/2000/svg" xmlns:xlink="http://www.w3.org/1999/xlink" x="0px" y="0px"
	 viewBox="0 0 87.2 86" style="enable-background:new 0 0 87.2 86;" xml:space="preserve">
<style type="text/css">
	.st0{fill:#4D4D4D;}
	.st1{fill:#F57C00;}
	.st2{fill:#F1F2F2;}
	.st3{fill:none;stroke:#FFFFFF;stroke-width:1.6434;stroke-miterlimit:10;}
	.st4{fill:#F57C00;stroke:#FFFFFF;stroke-width:1.6434;stroke-miterlimit:10;}
	.st5{fill:none;stroke:#FFFFFF;stroke-width:1.6434;stroke-linecap:round;stroke-linejoin:round;stroke-miterlimit:10;}
	.st6{opacity:0.5;fill:none;stroke:#FFFFFF;stroke-width:1.6434;stroke-linecap:round;stroke-linejoin:round;stroke-miterlimit:10;}
	.st7{fill:#FFFFFF;}
	.st8{fill:#E26D03;}
	.st9{fill:none;stroke:#FFFFFF;stroke-width:2;stroke-linecap:round;stroke-linejoin:round;stroke-miterlimit:10;}
	.st10{opacity:0.5;}
	.st11{fill:#5E5E5E;}
	.st12{opacity:0.5;fill:#FFFFFF;}
	.st13{fill:#F57C00;stroke:#FFFFFF;stroke-width:1.5;stroke-miterlimit:10;}
	.st14{fill:none;stroke:#FFFFFF;stroke-width:1.5;stroke-linecap:round;stroke-linejoin:round;stroke-miterlimit:10;}
	.st15{fill:#E6E6E6;}
	.st16{fill:#808080;}
	.st17{fill:none;stroke:#666666;stroke-miterlimit:10;}
	.st18{fill:#666666;}
	.st19{opacity:0.3;}
	.st20{opacity:0.4;}
	.st21{fill:#333333;}
	.st22{fill:none;stroke:#333333;stroke-width:0.8052;stroke-miterlimit:10;}
	.st23{fill:none;stroke:#333333;stroke-width:0.8595;stroke-miterlimit:10;}
</style>
<g>
	<path class="st1" d="M43.6,83.9c4,0,7.9,0.8,11.5,2.1L87.2,8.5c-27-11-58.1-11.8-87.2,0L32.1,86C35.7,84.7,39.5,83.9,43.6,83.9z"/>
	<g>
		<path class="st8" d="M81.4,22.5l5.8-13.9c-27-11-58.1-11.8-87.2,0l5.7,13.8C31,12.2,58,13,81.4,22.5z"/>
	</g>
	<g class="st10">
		<path class="st12" d="M48.7,11.1c-0.2,0-0.4-0.1-0.6-0.2l-4.6-4.6L39,10.8c-0.3,0.3-0.8,0.3-1.2,0c-0.3-0.3-0.3-0.8,0-1.2L43,4.5
			c0.3-0.3,0.8-0.3,1.2,0l5.1,5.1c0.3,0.3,0.3,0.8,0,1.2C49.1,11,48.9,11.1,48.7,11.1z"/>
	</g>
</g>
</svg>
