<?xml version="1.0" encoding="utf-8"?>
<!-- Generator: Adobe Illustrator 19.1.0, SVG Export Plug-In . SVG Version: 6.00 Build 0)  -->
<svg version="1.1" id="Layer_1" xmlns="http://www.w3.org/2000/svg" xmlns:xlink="http://www.w3.org/1999/xlink" x="0px" y="0px"
	 viewBox="0 0 395.8 395.8" style="enable-background:new 0 0 395.8 395.8;" xml:space="preserve">
<style type="text/css">
	.st0{fill:#4D4D4D;}
	.st1{fill:#F57C00;}
	.st2{fill:#F1F2F2;}
	.st3{fill:none;stroke:#FFFFFF;stroke-width:1.6434;stroke-miterlimit:10;}
	.st4{fill:#F57C00;stroke:#FFFFFF;stroke-width:1.6434;stroke-miterlimit:10;}
	.st5{fill:none;stroke:#FFFFFF;stroke-width:1.6434;stroke-linecap:round;stroke-linejoin:round;stroke-miterlimit:10;}
	.st6{opacity:0.5;fill:none;stroke:#FFFFFF;stroke-width:1.6434;stroke-linecap:round;stroke-linejoin:round;stroke-miterlimit:10;}
	.st7{fill:#FFFFFF;}
	.st8{fill:#E26D03;}
	.st9{fill:none;stroke:#FFFFFF;stroke-width:2;stroke-linecap:round;stroke-linejoin:round;stroke-miterlimit:10;}
	.st10{opacity:0.5;}
	.st11{fill:#5E5E5E;}
	.st12{opacity:0.5;fill:#FFFFFF;}
	.st13{fill:#F57C00;stroke:#FFFFFF;stroke-width:1.5;stroke-miterlimit:10;}
	.st14{fill:none;stroke:#FFFFFF;stroke-width:1.5;stroke-linecap:round;stroke-linejoin:round;stroke-miterlimit:10;}
	.st15{fill:#E6E6E6;}
	.st16{fill:#808080;}
	.st17{fill:none;stroke:#666666;stroke-miterlimit:10;}
	.st18{fill:#666666;}
	.st19{opacity:0.3;}
	.st20{opacity:0.4;}
	.st21{fill:#333333;}
	.st22{fill:none;stroke:#333333;stroke-width:0.8052;stroke-miterlimit:10;}
	.st23{fill:none;stroke:#333333;stroke-width:0.8595;stroke-miterlimit:10;}
</style>
<g>
	<g>
		<circle class="st0" cx="199.1" cy="223.6" r="115.8"/>
		<path class="st4" d="M244.3,117.3c-27.8-11.3-59.8-12.2-89.8,0l44.9,108.3L244.3,117.3z"/>
		<g>
			<path class="st8" d="M237.4,130.5l5.8-14c-27.1-11-58.4-11.9-87.6,0l5.7,13.9C186.7,120,213.9,120.8,237.4,130.5z"/>
		</g>
		<polygon class="st2" points="154.8,116.7 154.8,116.7 154.8,116.7 		"/>
		<path class="st2" d="M154.1,117L154.1,117c0.3-0.1,0.5-0.2,0.8-0.3L154.1,117z"/>
		<path class="st2" d="M155.6,116.3l-0.8,0.3C155.1,116.6,155.4,116.5,155.6,116.3L155.6,116.3z"/>
		<g>
			<polygon class="st1" points="154.8,111.2 154.8,111.2 154.8,111.2 			"/>
		</g>
		<line class="st3" x1="243.4" y1="330.6" x2="154.8" y2="116.7"/>
		<path class="st2" d="M244.2,117l-1.5-0.6l0,0C243.2,116.6,243.7,116.8,244.2,117L244.2,117z"/>
		<line class="st3" x1="92.2" y1="267.9" x2="306.1" y2="179.3"/>
		<line class="st3" x1="243.4" y1="116.7" x2="154.8" y2="330.6"/>
		<line class="st3" x1="92.2" y1="179.3" x2="306.1" y2="267.9"/>
		<circle class="st4" cx="199.1" cy="223.6" r="31.2"/>
		<g>
			<line class="st5" x1="184.5" y1="223.7" x2="213.8" y2="223.7"/>
			<line class="st5" x1="184.5" y1="216.2" x2="213.8" y2="216.2"/>
			<line class="st5" x1="213.8" y1="231.1" x2="184.5" y2="231.1"/>
		</g>
		<polyline class="st6" points="194,118.1 199.1,112.9 204.3,118.1 		"/>
		<path class="st7" d="M207.3,143.6c-1.7-2.7-4.6-4.6-8.2-4.6c-3.5-0.1-6.5,1.9-8.2,4.7h-0.2c-2,0.5-10.1,2.7-6.7,6.3
			c1.4,1.5,3.4,2.1,5.3,2.6c0.3,0.1,0.7,0.2,1,0.2c1.6,3.2,5.1,5.3,8.7,5.4c3.8,0.1,7-2.2,8.6-5.4c0.4-0.1,0.8-0.2,1.2-0.2
			c1.9-0.5,4-1.2,5.3-2.6C217.6,146.2,209.4,144,207.3,143.6z M189.8,151.2c-1.1-0.3-2.2-0.7-3.2-1.2c-4.3-2.1,0.8-4,3.5-4.8
			c-0.4,1-0.6,2.2-0.7,3.3C189.4,149.5,189.5,150.4,189.8,151.2z M199.1,156.8c-2.9,0.1-5.3-1.4-6.7-3.6c2.2,0.3,4.5,0.5,6.7,0.5
			c2.2,0,4.5-0.1,6.7-0.5C204.4,155.3,202,156.7,199.1,156.8z M206.6,151.7c-2.5,0.5-5.2,0.5-7.5,0.5c-2.4,0-5.1-0.1-7.5-0.6
			c-0.4-1-0.6-2-0.7-3c-0.1-4.6,3.9-8.1,8.2-8.2c4.6-0.1,8.1,3.9,8.2,8.2C207.3,149.7,207.1,150.7,206.6,151.7z M211.6,150
			c-1,0.5-2.2,1-3.3,1.3c0.3-0.9,0.4-1.8,0.5-2.7v-0.2c0-1.1-0.3-2.2-0.7-3.1c1.5,0.4,3,0.8,4.3,1.7
			C214.3,148.1,213,149.3,211.6,150z"/>
		<path class="st7" d="M151.8,170.1c0.6-0.3,0.9-1,1.1-1.6c0.5-1.3-0.5-2.6-1.5-3.2c-1.8-0.9-1-1.8-0.9-3.3c0-0.7-0.1-1.1-0.4-1.8
			c-0.6-1.3-2.2-1.4-3.4-1.1c-1.9,0.6-1.9-0.6-2.9-1.7c-0.4-0.5-0.9-0.8-1.5-1c-1.3-0.5-2.6,0.6-3.2,1.6c-1.1,2-3.3,0.5-5.1,1.3
			c-0.9,0.4-1.5,2-1.2,3c0.5,1.5-0.2,2.5-1.5,3.2c-0.6,0.4-0.9,1.1-1.1,1.7c-0.4,1.2,0.6,2.4,1.6,3c2.3,1.3,0.3,2.9,1.1,4.7
			c0.6,1.2,1.7,1.8,3,1.6c1.4-0.2,2.3-0.8,3.1,1c0.3,0.6,0.8,1.1,1.4,1.3c1.1,0.4,2.7,0.2,3.4-0.9c0.7-1.1,1.1-2.2,2.8-1.5
			c0.6,0.2,1.2,0.2,1.9,0.1c1.2-0.2,2.2-1.9,1.9-3.1c-0.2-0.6-0.3-1.1-0.4-1.7C150,170.8,151.2,170.4,151.8,170.1z M149.2,170.2
			c-0.7,0.9-0.6,1.9-0.2,3c0.4,1.4-0.3,2.2-1.9,1.9c-0.3-0.2-0.6-0.2-1-0.3c-0.5-0.1-0.9,0-1.4,0.1c-0.9,0.2-1.5,1.2-1.8,1.9
			c-1.2,2.6-2.7-0.8-3.7-1.5c-0.9-0.7-1.9-0.6-3-0.2c-2.8,0.9-1.4-2.3-1.6-3.6c-0.2-1-0.8-1.6-1.6-2.2c-0.8-0.5-2.7-1.4-0.4-2.8
			c0.6-0.4,1.1-0.6,1.6-1.2c0.6-0.7,0.5-1.7,0.4-2.5c-0.2-1.1-0.7-3,1.7-2.4c0.6,0.2,1.1,0.3,1.8,0.3c0.9,0,1.6-0.8,2.1-1.5
			c0.8-1.1,1.9-2.3,2.9-0.6c0.3,0.5,0.6,0.9,0.9,1.4c0.6,0.6,1.7,0.8,2.5,0.6c3.5-1.1,2,1.7,2.3,3.7c0.1,1,1.1,1.7,2,2.1
			C153.4,168,150,169.1,149.2,170.2z M141.7,163.2c-2.6-0.2-4.5,2.2-4.6,4.6c-0.2,2.5,2.1,4.4,4.4,4.6c0.1,0,0.1,0,0.2,0h0.2
			c2.5-0.2,4.3-2.1,4.4-4.6C146.4,165.2,144.1,163.3,141.7,163.2z M141.7,171c-4.1-0.2-4.1-6.2,0-6.4
			C145.8,164.4,145.8,170.8,141.7,171z"/>
		<path class="st7" d="M132.4,287.1c0,0.2,0.1,0.4,0.2,0.5c0.1,0.1,0.3,0.2,0.4,0.2c0.2,0,0.5-0.1,0.7-0.2l5.5-5.6l0.3,0.2
			c1,0.7,2.1,1,3.2,1.2c0.3,0,0.6,0,0.9,0h0c2,0,3.8-0.7,5.2-2.1c1.4-1.4,2.1-3.2,2.1-5.2c0-3.7-2.8-6.7-6.5-7.1c-0.3,0-0.6,0-0.9,0
			h0c-2,0-3.8,0.7-5.2,2.1c-1.4,1.4-2.1,3.2-2.1,5.2c0,1.6,0.5,3.1,1.5,4.3l0.3,0.3l-5.5,5.6C132.5,286.7,132.4,286.9,132.4,287.1z
			 M137.9,276.3c0-1.5,0.6-3,1.7-4.1c1.1-1.1,2.5-1.8,4.1-1.8h0c0.2,0,0.4,0,0.7,0.1c2.9,0.3,5.1,2.8,5.1,5.7c0,1.5-0.6,3.1-1.7,4.2
			c-1.1,1.1-2.5,1.8-4.1,1.8h0c-0.2,0-0.4,0-0.7-0.1C140.1,281.7,137.9,279.1,137.9,276.3z"/>
		<path class="st7" d="M116,228.3c-0.4,0-0.8,0.3-0.8,0.8s0.3,0.8,0.8,0.8c0.4,0,0.8-0.3,0.8-0.8C116.7,228.7,116.4,228.3,116,228.3
			z M116,212.9c-5.9-0.1-10.5,4.9-10.7,10.7c-0.1,5.9,4.9,10.5,10.7,10.7c5.9,0.1,10.5-4.9,10.7-10.7
			C126.5,217.7,121.9,213.1,116,212.9z M116,233.1c-5.3,0.1-9.3-4.4-9.5-9.5c-0.1-5.3,4.4-9.3,9.5-9.5c5.3-0.1,9.3,4.4,9.5,9.5
			C125.4,228.8,121.2,232.9,116,233.1z M116.9,217.2c-0.9-0.2-1.9,0-2.6,0.4c-1.8,0.9-1.9,2.8-1.9,2.9c0,0.5,0.1,0.8,0.7,0.9
			c0.4,0.1,0.7-0.4,0.7-0.8c0-0.2,0.2-1,1-1.5c0.9-0.5,2.3-0.7,3.1,0.6c0.3,0.6,0.4,1.5-0.6,2.4c-1.5,1.3-2.1,2.3-2.1,3.2v1
			c0,0.4,0.1,0.8,0.5,0.8s0.5-0.4,0.5-0.8v-0.8c0-0.1,0.1-0.8,1.7-2.1c1.8-1.5,1.9-3.3,1.4-4.5C118.9,218,118,217.5,116.9,217.2z"/>
		<path class="st7" d="M288.7,231.8V218c0-0.8-0.5-1.4-1.3-1.4h-5.9c-0.2,0-0.3-0.2-0.3-0.4v-0.9c0-1-1-1.8-2-1.8h-5.6
			c-1,0-1.7,0.8-1.7,1.8v0.9c0,0.2-0.3,0.4-0.5,0.4h-5.6c-1,0-1.8,0.8-1.8,1.8v13.5c0,1,0.7,1.9,1.7,1.9H287
			C288,233.7,288.7,232.8,288.7,231.8z M273.2,215.2c0-0.2,0.2-0.4,0.4-0.4h5.7c0.2,0,0.4,0.2,0.4,0.4v0.9c0,0.2-0.2,0.4-0.4,0.4
			h-5.7c-0.2,0-0.4-0.2-0.4-0.4V215.2z M287,232.3h-21.3c-0.2,0-0.4-0.3-0.4-0.5V223c0-0.2,0.1-0.3,0.4-0.3h3.4v0.2
			c0,0.3,0.2,0.5,0.5,0.5h0.2c0.3,0,0.6-0.2,0.6-0.5v-0.2h12v0.2c0,0.3,0.1,0.5,0.4,0.5h0.2c0.3,0,0.7-0.2,0.7-0.5v-0.2h3.1
			c0.2,0,0.3,0.1,0.3,0.3v8.8h0.1C287.3,232,287.2,232.3,287,232.3z M287.4,220.9L287.4,220.9c-0.1,0.2-0.2,0.4-0.5,0.4h-3v-0.3
			c0-0.3-0.3-0.4-0.7-0.4H283c-0.3,0-0.4,0.1-0.4,0.4v0.3h-12v-0.3c0-0.3-0.3-0.4-0.6-0.4h-0.2c-0.3,0-0.5,0.1-0.5,0.4v0.3h-3.4
			c-0.2,0-0.4-0.2-0.4-0.4v-2.6c0-0.2,0.2-0.4,0.4-0.4H287c0.2,0,0.4,0.2,0.4,0.4V220.9z"/>
		<path class="st7" d="M269.3,164.9c-1.5-0.8-3-1.5-4.5-2.3c-0.2-0.1-0.4-0.2-0.6-0.2c0,0-0.1-0.1-0.1-0.1c-3.3-1.8-6.5-3.5-9.8-5.3
			c-0.1-0.1-0.1-0.1-0.2-0.2l-4.4-2.5c-1.1-0.7-1.5-0.3-2.6,0.3c-3,1.7-6,3.4-9.1,5c-0.5,0.3-0.5,1.1,0,1.3c1.5,0.8,3.3,1.6,4.6,2.4
			v9.5c0,0.5-0.2,1.5,0.1,2c0.3,0.4,1,0.8,1.4,1c1.2,0.7,2.4,1.5,3.6,2.2c1.8,1.1,3.6,2.2,5.4,3.3c0.1,0.1,0.2,0.1,0.4,0.1h0.1
			c0.1,0,0.2,0,0.4-0.1c3-1.8,6-3.6,9-5.5c0.9-0.6,1.6-0.8,1.6-2v-5c1.4-0.9,3.2-1.8,4.8-2.6C269.8,166,269.8,165.2,269.3,164.9z
			 M243.5,162.1c-1.2-0.6-2.3-1.2-3.5-1.8c2.9-1.6,5.7-3.2,8.6-4.8c1.1,0.7,2.3,1.3,3.4,2C249.2,159,246.3,160.6,243.5,162.1z
			 M252.9,179.3c-3.1-1.8-5.8-3.5-8.6-5.3v-9.8c1,0.7,2.6,1.4,4,2.2c0.4,0.2,0.8,0.4,1.2,0.7c0.8,0.4,1.7,0.9,2.5,1.3
			c0.2,0.1,0.5,0.3,0.9,0.5V179.3z M253.5,167.6c-1.1-0.6-2.2-1.2-3.3-1.8l-5.2-2.8l8.5-4.6c2.8,1.5,5.6,3,8.4,4.5
			C259.2,164.6,256.4,166.1,253.5,167.6z M262.9,174.1c-2.7,1.8-5.8,3.5-8.6,5.3v-9.6c1,0.6,2.3,1.2,3.4,1.8c1,0.5,1.5,0.2,2.5-0.4
			c0.9-0.5,1.7-1,2.7-1.5V174.1z M258.6,170.3c-1.1-0.6-2.2-1.2-3.3-1.8c2.9-1.5,5.7-3.1,8.5-4.6c1.1,0.6,2.3,1.1,3.4,1.7
			C264.3,167.2,261.5,168.7,258.6,170.3z M250.6,172.3c-0.5-0.3-1.1-0.5-1.4-0.8v-1.8c0-0.7-1.4-0.7-1.4,0v1
			c-0.3-0.1-0.5-0.3-0.8-0.4c-0.8-0.4-1.4,0.7-0.7,1.2c0.5,0.3,1.1,0.5,1.4,0.8v1.6c0,1,1.4,1,1.4,0v-0.8c0.3,0.1,0.5,0.3,0.8,0.4
			C250.7,173.9,251.3,172.8,250.6,172.3z"/>
		<path class="st7" d="M261.7,290.2L261.7,290.2c-0.8,0-1.6-0.3-2.2-0.8c-0.5-0.4-9.2-9.2-10.2-10.2c-0.1,0-0.3,0-0.4,0
			c-1.5,0-2.7-0.5-3.8-1.6c-0.8-0.8-1.4-1.8-1.5-3c-0.1-0.5-0.1-1,0-1.6c0.1-0.6,0.6-0.9,1.1-0.9c0.2,0,0.4,0,0.5,0.1
			c0.3,0.1,0.5,0.3,0.6,0.5l0.6,0.6c0.4,0.4,0.7,0.7,1.1,1.1c0.1,0.1,0.1,0.1,0.2,0.1c0,0,0.1,0,0.1,0c0.2,0,0.3-0.1,0.4-0.2
			c0,0,0.1-0.1,0.1-0.1c0,0,0.1-0.1,0.1-0.1c0.1-0.2,0.3-0.3,0.4-0.4c0.2-0.2,0.4-0.4,0.5-0.5c0,0,0-0.1,0-0.1c0-0.1,0-0.3-0.1-0.5
			c0-0.1-0.3-0.3-0.6-0.6c-0.5-0.5-1.1-1.1-1.4-1.4c-0.4-0.4-0.5-0.9-0.4-1.4l0-0.1c0.2-0.5,0.6-0.8,1.3-0.9c0.5-0.1,1.1,0,1.6,0.1
			c1.5,0.3,2.6,1.1,3.5,2.3c0.4,0.6,0.7,1.4,0.9,2.2c0.1,0.4,0.1,0.9,0,1.3c1.3,1.4,9.3,9.4,9.8,9.9c1.1,1.1,1.4,2.9,0.6,4.2
			C264,289.5,262.9,290.2,261.7,290.2z M249.4,277.9c0.3,0,0.5,0.1,0.7,0.3c1.2,1.2,9.8,9.8,10.2,10.2c0.4,0.3,0.9,0.5,1.4,0.5
			c0.8,0,1.5-0.4,1.9-1.1c0.5-0.9,0.4-2-0.4-2.7c-0.1-0.1-2.7-2.7-5.1-5.1c-5-5.1-5-5.1-5.1-5.3l0-0.1l0-0.3c0.1-0.4,0-0.7,0-1.1
			c-0.1-0.7-0.3-1.2-0.7-1.7c-0.7-1-1.5-1.6-2.7-1.8c-0.4-0.1-0.8-0.1-1.2-0.1c-0.2,0-0.2,0-0.2,0.1c0,0,0,0.1,0.1,0.2
			c0.3,0.3,0.9,0.9,1.3,1.3c0.4,0.4,0.6,0.5,0.6,0.6c0.4,0.5,0.6,1,0.4,1.6c0,0.1-0.1,0.3-0.2,0.3l0,0.1c-0.2,0.3-0.4,0.5-0.7,0.7
			c-0.1,0.1-0.2,0.2-0.4,0.4c-0.1,0.1-0.1,0.1-0.2,0.2c0,0-0.1,0.1-0.1,0.1c-0.4,0.4-1,0.6-1.6,0.6c-0.4-0.1-0.7-0.3-0.9-0.5
			c-0.4-0.4-0.7-0.7-1.1-1.1l-0.6-0.6c-0.1-0.1-0.2-0.2-0.3-0.2c-0.1,0.3,0,0.7,0,1.1c0.1,0.9,0.5,1.7,1.2,2.3
			c0.9,0.9,2,1.3,3.3,1.2C249.3,277.9,249.3,277.9,249.4,277.9z M261.5,287.8c-0.6,0-1.1-0.5-1.1-1.1c0-0.6,0.5-1.1,1.1-1.1
			c0.6,0,1.1,0.5,1.1,1.1C262.6,287.3,262.1,287.8,261.5,287.8z"/>
		<g>
			<g>
				<g>
					<path class="st7" d="M208.4,307.8c2.2-4,0.5-9.3-3.9-12.1c-2.2-1.4-4.8-1.8-7.4-1.3c-2.5,0.6-4.7,2.1-6.1,4.4
						c-1.4,2.2-1.8,4.8-1.3,7.4c0.6,2.5,2.1,4.7,4.4,6.1c0.5,0.3,1.2,0.1,1.5-0.3c0.2-0.3,0.2-0.5,0.1-0.8l0-0.1l0-0.1
						c0-0.4,0-1,0.3-1.5c0.7-1.1,2.2-1.4,3.3-0.7l1.8,1.1c1.5,0.9,3.2,1,4.7,0.4l1,0.9c-1.9,1-4.3,1-6.4-0.3l-1.8-1.1
						c-0.5-0.3-1.2-0.1-1.5,0.4c-0.1,0.2-0.1,0.4-0.1,0.8c0.1,0.6,0,1.1-0.3,1.6c-0.7,1.1-2.2,1.4-3.2,0.7c-2.5-1.6-4.2-4-4.9-6.9
						c-0.7-2.9-0.1-5.8,1.4-8.3c1.6-2.5,4-4.2,6.9-4.9s5.8-0.1,8.3,1.4c5.1,3.2,7,9.5,4.2,14.1L208.4,307.8z"/>
				</g>
			</g>
			<g>
				<path class="st7" d="M211.5,313.9c0.1,0,0.1,0.1,0.2,0.1l0,0c0.1,0,0.2-0.1,0.3-0.2c0.1-0.1,0-0.3-0.1-0.3l-2.2-2.5
					c-0.7-0.8-1.5-1.7-2.2-2.5l-1.8-2.1c-0.1-0.1-0.8-0.9-0.8-0.9l-0.2-0.2c-0.1-0.1-0.2-0.2-0.3-0.4c-0.2-0.2-0.3-0.4-0.5-0.6
					c-0.3-0.3-0.6-0.7-0.9-1c-0.2-0.2-0.5-0.3-0.8-0.3c-0.4,0-0.9,0.2-1,0.6c-0.1,0.3-0.2,0.6-0.1,1c0,0.1,0.4,0.5,0.7,0.8l0.3,0.3
					c0.4,0.3,0.8,0.7,1.2,1c0.3,0.3,0.6,0.6,0.9,0.8l0.1,0.1l5.6,4.9C210.4,312.9,211,313.4,211.5,313.9z"/>
				<path class="st7" d="M199.9,299.8L199.9,299.8c-0.3-0.4-0.3-0.3-0.5-0.6l0,0c-0.4-0.3-0.8-0.5-1.1-0.6c-0.7-0.3-1.4-0.4-2-0.3
					c0.4,0.3,0.9,0.7,1.1,1.4c0.1,0.3,0.2,0.7,0.3,1.1c0,0.1,0,0.2,0.1,0.4l0,0.2c0.1,0.5,0.5,0.9,1.1,1c0,0,0.1,0,0.1,0
					c0.7,0,1.3-0.5,1.4-1.1c0.1-0.4,0-0.9-0.3-1.4C200,299.9,200,299.9,199.9,299.8z"/>
			</g>
		</g>
	</g>
	<circle class="st0" cx="296.4" cy="110" r="18.2"/>
	<circle class="st0" cx="251.1" cy="82.6" r="18.2"/>
	<circle class="st0" cx="145.5" cy="82.6" r="18.2"/>
	<circle class="st1" cx="199" cy="73" r="18.2"/>
	<circle class="st0" cx="98.8" cy="110" r="18.2"/>
	<g>
		<g>
			<path class="st7" d="M105.8,100.4H91.9c-1.1,0-2.1,0.9-2.1,2.1v15c0,1.1,0.9,2.1,2.1,2.1h13.9c1.1,0,2.1-0.9,2.1-2.1v-15
				C107.8,101.4,106.9,100.4,105.8,100.4L105.8,100.4z M102.7,101.5v6.6h-7.9v-6.6H102.7z M96.4,118.6v-5h4.8v5H96.4z M106.8,117.5
				c0,0.6-0.5,1-1,1h-3.5V113c0-0.3-0.2-0.5-0.5-0.5h-5.8c-0.3,0-0.5,0.2-0.5,0.5v5.6h-3.5c-0.6,0-1-0.5-1-1v-15c0-0.6,0.5-1,1-1h2
				v7.1c0,0.3,0.2,0.5,0.5,0.5h8.9c0.3,0,0.5-0.2,0.5-0.5v-7.1h2c0.6,0,1,0.5,1,1V117.5z M106.8,117.5"/>
			<path class="st7" d="M105.8,119.7H91.9c-1.2,0-2.1-1-2.1-2.1v-15c0-1.2,1-2.1,2.1-2.1h13.9c1.2,0,2.1,1,2.1,2.1v15
				C107.9,118.7,106.9,119.7,105.8,119.7z M91.9,100.5c-1.1,0-2,0.9-2,2v15c0,1.1,0.9,2,2,2h13.9c1.1,0,2-0.9,2-2v-15
				c0-1.1-0.9-2-2-2H91.9z M105.8,118.6h-3.6V113c0-0.3-0.2-0.5-0.5-0.5h-5.8c-0.3,0-0.5,0.2-0.5,0.5v5.6h-3.6
				c-0.6,0-1.1-0.5-1.1-1.1v-15c0-0.6,0.5-1.1,1.1-1.1h2v7.1c0,0.3,0.2,0.5,0.5,0.5h8.9c0.3,0,0.5-0.2,0.5-0.5v-7.1h2
				c0.6,0,1.1,0.5,1.1,1.1v15C106.9,118.2,106.4,118.6,105.8,118.6z M102.3,118.5h3.5c0.5,0,1-0.4,1-1v-15c0-0.5-0.4-1-1-1h-1.9v7
				c0,0.3-0.3,0.6-0.6,0.6h-8.9c-0.3,0-0.6-0.3-0.6-0.6v-7h-1.9c-0.5,0-1,0.4-1,1v15c0,0.5,0.4,1,1,1h3.5V113c0-0.3,0.3-0.6,0.6-0.6
				h5.8c0.3,0,0.6,0.3,0.6,0.6V118.5z M101.3,118.6h-4.9v-5.2h4.9V118.6z M96.5,118.5h4.7v-4.9h-4.7V118.5z M102.8,108.1h-8v-6.7h8
				V108.1z M94.9,108h7.8v-6.5h-7.8V108z"/>
		</g>
		<g>
			<path class="st7" d="M96,107.1h5.5c0.3,0,0.5-0.2,0.5-0.5c0-0.3-0.2-0.5-0.5-0.5H96c-0.3,0-0.5,0.2-0.5,0.5
				C95.5,106.9,95.8,107.1,96,107.1L96,107.1z M96,107.1"/>
			<path class="st7" d="M101.6,107.2H96c-0.3,0-0.6-0.3-0.6-0.6s0.3-0.6,0.6-0.6h5.5c0.3,0,0.6,0.3,0.6,0.6S101.9,107.2,101.6,107.2
				z M96,106.1c-0.3,0-0.5,0.2-0.5,0.5c0,0.3,0.2,0.5,0.5,0.5h5.5c0.3,0,0.5-0.2,0.5-0.5c0-0.3-0.2-0.5-0.5-0.5H96z"/>
		</g>
		<g>
			<path class="st7" d="M96,105.3h5.5c0.3,0,0.5-0.2,0.5-0.5c0-0.3-0.2-0.5-0.5-0.5H96c-0.3,0-0.5,0.2-0.5,0.5
				C95.5,105,95.8,105.3,96,105.3L96,105.3z M96,105.3"/>
			<path class="st7" d="M101.6,105.3H96c-0.3,0-0.6-0.3-0.6-0.6s0.3-0.6,0.6-0.6h5.5c0.3,0,0.6,0.3,0.6,0.6S101.9,105.3,101.6,105.3
				z M96,104.3c-0.3,0-0.5,0.2-0.5,0.5s0.2,0.5,0.5,0.5h5.5c0.3,0,0.5-0.2,0.5-0.5s-0.2-0.5-0.5-0.5H96z"/>
		</g>
		<g>
			<path class="st7" d="M96,103.4h5.5c0.3,0,0.5-0.2,0.5-0.5c0-0.3-0.2-0.5-0.5-0.5H96c-0.3,0-0.5,0.2-0.5,0.5
				C95.5,103.2,95.8,103.4,96,103.4L96,103.4z M96,103.4"/>
			<path class="st7" d="M101.6,103.5H96c-0.3,0-0.6-0.3-0.6-0.6s0.3-0.6,0.6-0.6h5.5c0.3,0,0.6,0.3,0.6,0.6S101.9,103.5,101.6,103.5
				z M96,102.5c-0.3,0-0.5,0.2-0.5,0.5s0.2,0.5,0.5,0.5h5.5c0.3,0,0.5-0.2,0.5-0.5s-0.2-0.5-0.5-0.5H96z"/>
		</g>
		<g>
			<path class="st7" d="M100.2,114.1c-0.3,0-0.5,0.2-0.5,0.5v1.5c0,0.3,0.2,0.5,0.5,0.5c0.3,0,0.5-0.2,0.5-0.5v-1.5
				C100.7,114.3,100.5,114.1,100.2,114.1L100.2,114.1z M100.2,114.1"/>
			<path class="st7" d="M100.2,116.6c-0.3,0-0.6-0.3-0.6-0.6v-1.5c0-0.3,0.3-0.6,0.6-0.6s0.6,0.3,0.6,0.6v1.5
				C100.8,116.4,100.5,116.6,100.2,116.6z M100.2,114.1c-0.3,0-0.5,0.2-0.5,0.5v1.5c0,0.3,0.2,0.5,0.5,0.5s0.5-0.2,0.5-0.5v-1.5
				C100.6,114.3,100.4,114.1,100.2,114.1z"/>
		</g>
	</g>
	<g>
		<path class="st7" d="M199,82.7c-0.4,0-0.8-0.2-1-0.5l-5.9-6.7c-0.3-0.4-0.4-1-0.2-1.4s0.7-0.8,1.2-0.8h2.2v-8.5
			c0-0.9,0.7-1.6,1.6-1.6h4.3c0.9,0,1.6,0.7,1.6,1.6l0,8.5h2.2c0.5,0,1,0.3,1.2,0.8s0.1,1-0.2,1.4l-5.9,6.7
			C199.7,82.6,199.4,82.7,199,82.7z M193.1,74.6l5.9,6.8c0,0,0,0,0,0l5.9-6.8l-3.5,0l0-9.8c0-0.1-0.1-0.3-0.3-0.3h-4.3
			c-0.1,0-0.3,0.1-0.3,0.3v9.8H193.1z"/>
	</g>
	<g>
		<g>
			<path class="st7" d="M300.1,119.2h-11.4c-0.9,0-1.6-0.7-1.6-1.6v-11.4c0-0.9,0.7-1.6,1.6-1.6h2.9v1.4h-2.9
				c-0.1,0-0.2,0.1-0.2,0.2v11.4c0,0.1,0.1,0.2,0.2,0.2h11.4c0.1,0,0.2-0.1,0.2-0.2V115h1.4v2.6C301.7,118.5,301,119.2,300.1,119.2z
				"/>
		</g>
		<g>
			<path class="st7" d="M304.1,115.4h-11.4c-0.9,0-1.6-0.7-1.6-1.6v-11.4c0-0.9,0.7-1.6,1.6-1.6h11.4c0.9,0,1.6,0.7,1.6,1.6v11.4
				C305.7,114.7,305,115.4,304.1,115.4z M292.7,102.2c-0.1,0-0.2,0.1-0.2,0.2v11.4c0,0.1,0.1,0.2,0.2,0.2h11.4
				c0.1,0,0.2-0.1,0.2-0.2v-11.4c0-0.1-0.1-0.2-0.2-0.2H292.7z"/>
		</g>
	</g>
	<g>
		<path class="st7" d="M145.5,73.3c-5.1,0-9.2,4.1-9.2,9.2s4.1,9.2,9.2,9.2s9.2-4.1,9.2-9.2S150.6,73.3,145.5,73.3z M145.5,90.3
			c-4.3,0-7.7-3.5-7.7-7.7s3.5-7.7,7.7-7.7s7.7,3.5,7.7,7.7S149.7,90.3,145.5,90.3z"/>
		<path class="st7" d="M147.5,79.6c-0.7,0.7-1.3,1.3-2,2c-0.7-0.7-1.3-1.3-2-2c-0.6-0.6-1.5,0.3-0.9,0.9c0.7,0.7,1.3,1.3,2,2
			c-0.7,0.7-1.3,1.3-2,2c-0.6,0.6,0.3,1.5,0.9,0.9c0.7-0.7,1.3-1.3,2-2c0.7,0.7,1.3,1.3,2,2c0.6,0.6,1.5-0.3,0.9-0.9
			c-0.7-0.7-1.3-1.3-2-2c0.7-0.7,1.3-1.3,2-2C149,80,148.1,79,147.5,79.6z"/>
	</g>
	<g>
		<path class="st7" d="M251.1,73.3c-5.1,0-9.2,4.1-9.2,9.2s4.1,9.2,9.2,9.2c5.1,0,9.2-4.1,9.2-9.2S256.2,73.3,251.1,73.3z
			 M251.1,90.3c-4.3,0-7.7-3.5-7.7-7.7s3.5-7.7,7.7-7.7s7.7,3.5,7.7,7.7S255.4,90.3,251.1,90.3z"/>
		<path class="st7" d="M253.5,80l-3.2,3.2c-0.1,0.1-0.2,0.1-0.3,0l-1.2-1.2c-0.3-0.4-0.9-0.4-1.3,0c-0.3,0.4-0.3,0.9,0,1.3l2,2
			c0.3,0.3,0.9,0.3,1.3,0l4-4c0.2-0.2,0.3-0.4,0.3-0.6c0-0.2-0.1-0.5-0.3-0.6C254.4,79.6,253.8,79.6,253.5,80z"/>
	</g>
	<g>
		<polygon class="st9" points="216.6,77.6 208.3,70.7 209.6,81.4 212.3,79.9 215.1,85.2 216,84.7 213.2,79.4 		"/>
		<polygon points="216.6,77.6 208.3,70.7 209.6,81.4 212.3,79.9 215.1,85.2 216,84.7 213.2,79.4 		"/>
	</g>
</g>
</svg>
