<?xml version="1.0" encoding="utf-8"?>
<!-- Generator: Adobe Illustrator 19.1.0, SVG Export Plug-In . SVG Version: 6.00 Build 0)  -->
<svg version="1.1" id="Layer_1" xmlns="http://www.w3.org/2000/svg" xmlns:xlink="http://www.w3.org/1999/xlink" x="0px" y="0px"
	 viewBox="0 0 231.8 231.8" style="enable-background:new 0 0 231.8 231.8;" xml:space="preserve">
<style type="text/css">
	.st0{fill:#4D4D4D;}
	.st1{fill:#F57C00;}
	.st2{fill:#F1F2F2;}
	.st3{fill:none;stroke:#FFFFFF;stroke-width:1.6434;stroke-miterlimit:10;}
	.st4{fill:#F57C00;stroke:#FFFFFF;stroke-width:1.6434;stroke-miterlimit:10;}
	.st5{fill:none;stroke:#FFFFFF;stroke-width:1.6434;stroke-linecap:round;stroke-linejoin:round;stroke-miterlimit:10;}
	.st6{opacity:0.5;fill:none;stroke:#FFFFFF;stroke-width:1.6434;stroke-linecap:round;stroke-linejoin:round;stroke-miterlimit:10;}
	.st7{fill:#FFFFFF;}
	.st8{fill:#E26D03;}
	.st9{fill:none;stroke:#FFFFFF;stroke-width:2;stroke-linecap:round;stroke-linejoin:round;stroke-miterlimit:10;}
	.st10{opacity:0.5;}
	.st11{fill:#5E5E5E;}
	.st12{opacity:0.5;fill:#FFFFFF;}
	.st13{fill:#F57C00;stroke:#FFFFFF;stroke-width:1.5;stroke-miterlimit:10;}
	.st14{fill:none;stroke:#FFFFFF;stroke-width:1.5;stroke-linecap:round;stroke-linejoin:round;stroke-miterlimit:10;}
	.st15{fill:#E6E6E6;}
	.st16{fill:#808080;}
	.st17{fill:none;stroke:#666666;stroke-miterlimit:10;}
	.st18{fill:#666666;}
	.st19{opacity:0.3;}
	.st20{opacity:0.4;}
	.st21{fill:#333333;}
	.st22{fill:none;stroke:#333333;stroke-width:0.8052;stroke-miterlimit:10;}
	.st23{fill:none;stroke:#333333;stroke-width:0.8595;stroke-miterlimit:10;}
</style>
<g>
	<g>
		<path class="st0" d="M145.4,102.7l77.5-32.1C210.7,41.7,188.1,20.3,161.3,9l-32.1,77.5C136.4,89.7,142.2,95.5,145.4,102.7z"/>
		<path class="st0" d="M84.1,115.8c0-4,0.8-7.9,2.1-11.5L8.8,72.2c-11,27-11.8,58.1,0,87.2l77.5-32.1
			C84.9,123.7,84.1,119.8,84.1,115.8z"/>
		<polygon class="st0" points="160.5,222.8 160.5,222.8 160.5,222.8 		"/>
		<path class="st0" d="M223.5,72.2L146,104.3c1.4,3.6,2.1,7.4,2.1,11.5s-0.8,7.9-2.1,11.5l77.5,32.1
			C234.5,132.3,235.3,101.2,223.5,72.2z"/>
		<path class="st0" d="M116.2,147.8c-4,0-7.9-0.8-11.5-2.1l-32.1,77.5c27,11,58.1,11.8,87.2,0l-32.1-77.5
			C124.1,147,120.2,147.8,116.2,147.8z"/>
		<path class="st0" d="M129.2,145l32.1,77.5c28.9-12.2,50.3-34.8,61.6-61.6l-77.5-32.1C142.2,136,136.4,141.8,129.2,145z"/>
		<path class="st0" d="M86.9,128.8L9.4,160.9c12.2,28.9,34.8,50.3,61.6,61.6l32.1-77.5C95.9,141.8,90.1,136,86.9,128.8z"/>
		<path class="st0" d="M103.2,86.5L71,9C42.1,21.2,20.7,43.8,9.4,70.6l77.5,32.1C90.1,95.5,95.9,89.7,103.2,86.5z"/>
		<g>
			<path class="st0" d="M116.2,83.7c4,0,7.9,0.8,11.5,2.1l32.1-77.5c-27-11-58.1-11.8-87.2,0l32.1,77.5
				C108.2,84.5,112.1,83.7,116.2,83.7z"/>
			<g>
				<path class="st11" d="M154,22.3l5.8-13.9c-27-11-58.1-11.8-87.2,0l5.7,13.8C103.5,12,130.5,12.8,154,22.3z"/>
			</g>
			<g class="st10">
				<path class="st7" d="M121.3,10.9c-0.2,0-0.4-0.1-0.6-0.2l-4.6-4.6l-4.6,4.6c-0.3,0.3-0.8,0.3-1.2,0c-0.3-0.3-0.3-0.8,0-1.2
					l5.1-5.1c0.3-0.3,0.8-0.3,1.2,0l5.1,5.1c0.3,0.3,0.3,0.8,0,1.2C121.7,10.8,121.5,10.9,121.3,10.9z"/>
			</g>
		</g>
	</g>
	<polygon class="st2" points="71.8,8.7 71.8,8.7 71.8,8.7 	"/>
	<path class="st2" d="M71,9L71,9c0.3-0.1,0.5-0.2,0.8-0.3L71,9z"/>
	<path class="st2" d="M72.6,8.4l-0.8,0.3C72.1,8.6,72.3,8.5,72.6,8.4L72.6,8.4z"/>
	<g>
		<polygon class="st1" points="71.8,3.2 71.8,3.2 71.8,3.2 		"/>
	</g>
	<path class="st2" d="M161.3,9l-1.5-0.6l0,0C160.3,8.6,160.8,8.8,161.3,9L161.3,9z"/>
	<path class="st1" d="M116.2,85.4c-16.7,0-30.4,13.6-30.4,30.4s13.6,30.4,30.4,30.4s30.4-13.6,30.4-30.4S132.9,85.4,116.2,85.4z"/>
</g>
</svg>
