<?xml version="1.0" encoding="utf-8"?>
<!-- Generator: Adobe Illustrator 19.1.0, SVG Export Plug-In . SVG Version: 6.00 Build 0)  -->
<svg version="1.1" id="Layer_1" xmlns="http://www.w3.org/2000/svg" xmlns:xlink="http://www.w3.org/1999/xlink" x="0px" y="0px"
	 viewBox="0 0 395.8 395.8" style="enable-background:new 0 0 395.8 395.8;" xml:space="preserve">
<style type="text/css">
	.st0{fill:#4D4D4D;}
	.st1{fill:#F57C00;}
	.st2{fill:#F1F2F2;}
	.st3{fill:none;stroke:#FFFFFF;stroke-width:1.6434;stroke-miterlimit:10;}
	.st4{fill:#F57C00;stroke:#FFFFFF;stroke-width:1.6434;stroke-miterlimit:10;}
	.st5{fill:none;stroke:#FFFFFF;stroke-width:1.6434;stroke-linecap:round;stroke-linejoin:round;stroke-miterlimit:10;}
	.st6{opacity:0.5;fill:none;stroke:#FFFFFF;stroke-width:1.6434;stroke-linecap:round;stroke-linejoin:round;stroke-miterlimit:10;}
	.st7{fill:#FFFFFF;}
	.st8{fill:#E26D03;}
	.st9{fill:none;stroke:#FFFFFF;stroke-width:2;stroke-linecap:round;stroke-linejoin:round;stroke-miterlimit:10;}
	.st10{opacity:0.5;}
	.st11{fill:#5E5E5E;}
	.st12{opacity:0.5;fill:#FFFFFF;}
	.st13{fill:#F57C00;stroke:#FFFFFF;stroke-width:1.5;stroke-miterlimit:10;}
	.st14{fill:none;stroke:#FFFFFF;stroke-width:1.5;stroke-linecap:round;stroke-linejoin:round;stroke-miterlimit:10;}
	.st15{fill:#E6E6E6;}
	.st16{fill:#808080;}
	.st17{fill:none;stroke:#666666;stroke-miterlimit:10;}
	.st18{fill:#666666;}
	.st19{opacity:0.3;}
	.st20{opacity:0.4;}
	.st21{fill:#333333;}
	.st22{fill:none;stroke:#333333;stroke-width:0.8052;stroke-miterlimit:10;}
	.st23{fill:none;stroke:#333333;stroke-width:0.8595;stroke-miterlimit:10;}
</style>
<g>
	<g>
		<path class="st0" d="M228.7,206.5l77.5-32.1c-12.2-28.9-34.8-50.3-61.6-61.6l-32.1,77.5C219.6,193.4,225.4,199.2,228.7,206.5z"/>
		<path class="st0" d="M167.4,219.5c0-4,0.8-7.9,2.1-11.5L92,175.9c-11,27-11.8,58.1,0,87.2l77.5-32.1
			C168.2,227.4,167.4,223.5,167.4,219.5z"/>
		<polygon class="st0" points="243.8,326.5 243.8,326.5 243.8,326.5 		"/>
		<path class="st0" d="M306.8,175.9L229.3,208c1.4,3.6,2.1,7.4,2.1,11.5s-0.8,7.9-2.1,11.5l77.5,32.1
			C317.8,236.1,318.6,204.9,306.8,175.9z"/>
		<path class="st0" d="M199.4,251.5c-4,0-7.9-0.8-11.5-2.1l-32.1,77.5c27,11,58.1,11.8,87.2,0l-32.1-77.5
			C207.3,250.7,203.5,251.5,199.4,251.5z"/>
		<path class="st0" d="M212.4,248.7l32.1,77.5c28.9-12.2,50.3-34.8,61.6-61.6l-77.5-32.1C225.4,239.7,219.6,245.5,212.4,248.7z"/>
		<path class="st0" d="M170.2,232.5l-77.5,32.1c12.2,28.9,34.8,50.3,61.6,61.6l32.1-77.5C179.2,245.5,173.4,239.7,170.2,232.5z"/>
		<path class="st0" d="M186.4,190.2l-32.1-77.5c-28.9,12.2-50.3,34.8-61.6,61.6l77.5,32.1C173.4,199.2,179.2,193.4,186.4,190.2z"/>
		<g>
			<path class="st1" d="M199.4,187.4c4,0,7.9,0.8,11.5,2.1l32.1-77.5c-27-11-58.1-11.8-87.2,0l32.1,77.5
				C191.5,188.2,195.4,187.4,199.4,187.4z"/>
			<g>
				<path class="st8" d="M237.2,126l5.8-13.9c-27-11-58.1-11.8-87.2,0l5.7,13.8C186.8,115.7,213.8,116.5,237.2,126z"/>
			</g>
			<g class="st10">
				<path class="st7" d="M204.6,114.6c-0.2,0-0.4-0.1-0.6-0.2l-4.6-4.6l-4.6,4.6c-0.3,0.3-0.8,0.3-1.2,0c-0.3-0.3-0.3-0.8,0-1.2
					l5.1-5.1c0.3-0.3,0.8-0.3,1.2,0l5.1,5.1c0.3,0.3,0.3,0.8,0,1.2C205,114.5,204.8,114.6,204.6,114.6z"/>
			</g>
		</g>
	</g>
	<polygon class="st2" points="155.1,112.4 155.1,112.4 155.1,112.4 	"/>
	<path class="st2" d="M154.3,112.7L154.3,112.7c0.3-0.1,0.5-0.2,0.8-0.3L154.3,112.7z"/>
	<path class="st2" d="M155.8,112.1l-0.8,0.3C155.3,112.3,155.6,112.2,155.8,112.1L155.8,112.1z"/>
	<g>
		<polygon class="st1" points="155.1,106.9 155.1,106.9 155.1,106.9 		"/>
	</g>
	<path class="st2" d="M244.5,112.7l-1.5-0.6l0,0C243.5,112.3,244,112.5,244.5,112.7L244.5,112.7z"/>
	<path class="st1" d="M199.4,189.1c-16.7,0-30.4,13.6-30.4,30.4s13.6,30.4,30.4,30.4s30.4-13.6,30.4-30.4S216.2,189.1,199.4,189.1z"
		/>
</g>
<g>
	<path class="st0" d="M216.8,66.5c-2.8-7.3-9.8-12.2-17.5-12.2c-2.2,0-4.4,0.4-6.5,1.2c-4.7,1.8-8.4,5.3-10.4,9.9
		c-2,4.5-2.1,9.6-0.4,14.3c2.8,7.3,9.8,12.2,17.5,12.2c2.2,0,4.4-0.4,6.5-1.2c4.7-1.8,8.4-5.3,10.4-9.9
		C218.4,76.2,218.6,71.1,216.8,66.5z"/>
	<path class="st0" d="M270.6,76.5c-2.8-7.3-9.8-12.2-17.5-12.2c-2.2,0-4.4,0.4-6.5,1.2c-4.7,1.8-8.4,5.3-10.4,9.9
		c-2,4.5-2.1,9.6-0.4,14.3c2.8,7.3,9.8,12.2,17.5,12.2c2.2,0,4.4-0.4,6.5-1.2c4.7-1.8,8.4-5.3,10.4-9.9
		C272.2,86.2,272.3,81.1,270.6,76.5z"/>
	<path class="st0" d="M313.3,103.5c-2.8-7.3-9.8-12.2-17.5-12.2c-2.2,0-4.4,0.4-6.5,1.2c-4.7,1.8-8.4,5.3-10.4,9.9
		c-2,4.5-2.1,9.6-0.4,14.3c2.8,7.3,9.8,12.2,17.5,12.2c2.2,0,4.4-0.4,6.5-1.2c4.7-1.8,8.4-5.3,10.4-9.9
		C314.9,113.2,315.1,108.1,313.3,103.5z"/>
	<path class="st0" d="M163.1,76.5c-2.8-7.3-9.8-12.2-17.5-12.2c-2.2,0-4.4,0.4-6.5,1.2c-4.7,1.8-8.4,5.3-10.4,9.9
		c-2,4.5-2.1,9.6-0.4,14.3c2.8,7.3,9.8,12.2,17.5,12.2c2.2,0,4.4-0.4,6.5-1.2c4.7-1.8,8.4-5.3,10.4-9.9
		C164.7,86.2,164.8,81.1,163.1,76.5z"/>
	<path class="st0" d="M120.3,103.5c-2.8-7.3-9.8-12.2-17.5-12.2c-2.2,0-4.4,0.4-6.5,1.2c-4.7,1.8-8.4,5.3-10.4,9.9
		c-2,4.5-2.1,9.6-0.4,14.3c2.8,7.3,9.8,12.2,17.5,12.2c2.2,0,4.4-0.4,6.5-1.2c4.7-1.8,8.4-5.3,10.4-9.9
		C121.9,113.2,122.1,108.1,120.3,103.5z"/>
</g>
</svg>
