<?xml version="1.0" encoding="utf-8"?>
<!-- Generator: Adobe Illustrator 19.1.0, SVG Export Plug-In . SVG Version: 6.00 Build 0)  -->
<svg version="1.1" id="Layer_1" xmlns="http://www.w3.org/2000/svg" xmlns:xlink="http://www.w3.org/1999/xlink" x="0px" y="0px"
	 viewBox="0 0 1246 809.6" style="enable-background:new 0 0 1246 809.6;" xml:space="preserve">
<style type="text/css">
	.st0{font-family:'MyriadPro-Bold';}
	.st1{font-size:30.1109px;}
	.st2{fill:#4D4D4D;}
	.st3{fill:#FFFFFF;}
	.st4{fill:#808080;}
	.st5{font-family:'Roboto-Regular';}
	.st6{font-size:12px;}
	.st7{fill:#F2F2F2;}
	.st8{fill:#F57C00;}
	.st9{fill:none;stroke:#FFFFFF;stroke-width:0.8981;stroke-linecap:round;stroke-linejoin:round;stroke-miterlimit:10;}
	.st10{fill:#CCCCCC;}
	.st11{fill:none;stroke:#000000;stroke-miterlimit:10;}
	.st12{fill:none;stroke:#4D4D4D;stroke-miterlimit:10;}
	.st13{fill:none;stroke:#E6E6E6;stroke-miterlimit:10;}
	.st14{fill:#FFFFFF;stroke:#FFFFFF;stroke-width:0.9519;stroke-linecap:round;stroke-linejoin:round;stroke-miterlimit:10;}
	.st15{fill:#808080;stroke:#808080;stroke-width:0.9519;stroke-linecap:round;stroke-linejoin:round;stroke-miterlimit:10;}
	.st16{fill:none;stroke:#FFFFFF;stroke-width:2.5352;stroke-linecap:round;stroke-linejoin:round;stroke-miterlimit:10;}
	.st17{fill:#808080;stroke:#4D4D4D;stroke-width:0.253;stroke-miterlimit:10;}
	.st18{font-family:'Roboto-Light';}
	.st19{font-size:14.0211px;}
	.st20{font-family:'Roboto-Medium';}
	.st21{font-size:14px;}
	.st22{fill:none;stroke:#F2F2F2;stroke-width:2.1462;stroke-linecap:round;stroke-linejoin:round;stroke-miterlimit:10;}
	.st23{font-size:16.65px;}
	.st24{fill:#E6E6E6;stroke:#CCCCCC;stroke-width:0.5;stroke-miterlimit:10;}
	.st25{fill:none;stroke:#FFFFFF;stroke-width:2;stroke-linecap:round;stroke-linejoin:round;stroke-miterlimit:10;}
	.st26{fill:#141414;}
	.st27{fill:#F2F2F2;stroke:#E6E6E6;stroke-width:0.3909;stroke-miterlimit:10;}
	.st28{fill:#F57C00;stroke:#E6E6E6;stroke-width:0.3909;stroke-miterlimit:10;}
	.st29{fill:#4D4D4D;stroke:#FFFFFF;stroke-width:0.6083;stroke-linecap:round;stroke-linejoin:round;stroke-miterlimit:10;}
	.st30{fill:none;stroke:#FFFFFF;stroke-width:0.807;stroke-linecap:round;stroke-linejoin:round;stroke-miterlimit:10;}
	.st31{fill:#F2F2F2;stroke:#E6E6E6;stroke-width:0.5;stroke-miterlimit:10;}
	.st32{fill:#E6E7E8;stroke:#E6E7E8;stroke-width:0.8569;stroke-miterlimit:10;}
	.st33{fill:#39B54A;}
</style>
<text transform="matrix(1 0 0 1 91.4171 69.0838)" class="st0 st1">Advanced Tools Window - File Tree UI</text>
<g>
	<g>
		<path class="st2" d="M1168.5,240.2c0-4.7-3.9-7.8-8.5-7.8H876.5c-4.5,0-8,3.1-8,7.8v123c0,4.7,3.4,9.3,8,9.3H1160
			c4.5,0,8.5-4.6,8.5-9.3V240.2z"/>
		<path class="st3" d="M1159.6,367.2H877.4c-2.3,0-4.2-1.9-4.2-4.2V241.9c0-2.3,1.9-4.2,4.2-4.2h282.2c2.3,0,4.2,1.9,4.2,4.2V363
			C1163.8,365.3,1161.9,367.2,1159.6,367.2z"/>
	</g>
	<g>
		<text transform="matrix(1 0 0 1 936.8987 260.4333)" class="st4 st5 st6">Create directory: Enter a name</text>
	</g>
	<g>
		<g>
			<g>
				<path class="st2" d="M1084.1,341.6h-46.8c-5,0-9.1-4.1-9.1-9.1v-1.8c0-5,4.1-9.1,9.1-9.1h46.8c5,0,9.1,4.1,9.1,9.1v1.8
					C1093.2,337.5,1089.1,341.6,1084.1,341.6z"/>
			</g>
		</g>
		<g>
			<text transform="matrix(1 0 0 1 1052.854 335.0774)" class="st3 st5 st6">OK</text>
		</g>
		<g>
			<g>
				<g>
					<path class="st2" d="M999.2,341.6h-46.8c-5,0-9.1-4.1-9.1-9.1v-1.8c0-5,4.1-9.1,9.1-9.1h46.8c5,0,9.1,4.1,9.1,9.1v1.8
						C1008.3,337.5,1004.2,341.6,999.2,341.6z"/>
				</g>
			</g>
			<g>
				<text transform="matrix(1 0 0 1 957.514 335.0774)" class="st3 st5 st6">Cancel</text>
			</g>
		</g>
	</g>
	<g>
		<g>
			<g>
				<path class="st7" d="M1143.6,299H893.4c-3.9,0-7.2-3.2-7.2-7.2v-5.7c0-3.9,3.2-7.2,7.2-7.2h250.2c3.9,0,7.2,3.2,7.2,7.2v5.7
					C1150.8,295.8,1147.5,299,1143.6,299z"/>
			</g>
		</g>
	</g>
</g>
<g>
	<g>
		<path class="st2" d="M1168.5,466.2c0-4.7-3.9-7.8-8.5-7.8H876.5c-4.5,0-8,3.1-8,7.8v123c0,4.7,3.4,9.3,8,9.3H1160
			c4.5,0,8.5-4.6,8.5-9.3V466.2z"/>
		<path class="st3" d="M1159.6,593.2H877.4c-2.3,0-4.2-1.9-4.2-4.2V467.9c0-2.3,1.9-4.2,4.2-4.2h282.2c2.3,0,4.2,1.9,4.2,4.2V589
			C1163.8,591.3,1161.9,593.2,1159.6,593.2z"/>
	</g>
	<g>
		<text transform="matrix(1 0 0 1 952.5256 486.4333)" class="st4 st5 st6">Create file: Enter a name</text>
	</g>
	<g>
		<g>
			<g>
				<path class="st2" d="M1084.1,567.6h-46.8c-5,0-9.1-4.1-9.1-9.1v-1.8c0-5,4.1-9.1,9.1-9.1h46.8c5,0,9.1,4.1,9.1,9.1v1.8
					C1093.2,563.5,1089.1,567.6,1084.1,567.6z"/>
			</g>
		</g>
		<g>
			<text transform="matrix(1 0 0 1 1052.854 561.0773)" class="st3 st5 st6">OK</text>
		</g>
		<g>
			<g>
				<g>
					<path class="st2" d="M999.2,567.6h-46.8c-5,0-9.1-4.1-9.1-9.1v-1.8c0-5,4.1-9.1,9.1-9.1h46.8c5,0,9.1,4.1,9.1,9.1v1.8
						C1008.3,563.5,1004.2,567.6,999.2,567.6z"/>
				</g>
			</g>
			<g>
				<text transform="matrix(1 0 0 1 957.514 561.0773)" class="st3 st5 st6">Cancel</text>
			</g>
		</g>
	</g>
	<g>
		<g>
			<g>
				<path class="st7" d="M1143.6,525H893.4c-3.9,0-7.2-3.2-7.2-7.2v-5.7c0-3.9,3.2-7.2,7.2-7.2h250.2c3.9,0,7.2,3.2,7.2,7.2v5.7
					C1150.8,521.8,1147.5,525,1143.6,525z"/>
			</g>
		</g>
	</g>
</g>
<g>
	<path class="st2" d="M774.7,727.1H106c-8.6,0-15.6-7.1-15.6-15.9V143c0-8.8,7-15.9,15.6-15.9h668.7c8.6,0,15.6,7.1,15.6,15.9v568.2
		C790.3,719.9,783.3,727.1,774.7,727.1z"/>
	<g>
		<path class="st17" d="M674.1,221.5v-36c0-6.2,5-11.3,11.1-11.3h85.5c6.4,0,11.5,5.3,11.5,11.8V708c0,6.5-5.2,11.8-11.5,11.8H110
			c-6.4,0-11.5-5.3-11.5-11.8V232.9c0-6.3,5-11.4,11.2-11.4H674.1z"/>
		<path class="st17" d="M207.2,221.5v-36c0-6.2-5-11.3-11.1-11.3H110c-6.4,0-11.5,5.3-11.5,11.8V708c0,6.5,5.2,11.8,11.5,11.8h660.8
			c6.4,0,11.5-5.3,11.5-11.8V232.9c0-6.3-5-11.4-11.2-11.4H207.2z"/>
		<path class="st17" d="M206.6,221.5v-36c0-6.2,5-11.3,11.1-11.3H313c6.4,0,11.5,5.3,11.5,11.8v35.5H771c6.2,0,11.2,5.1,11.2,11.4
			V708c0,6.5-5.2,11.8-11.5,11.8H110c-6.4,0-11.5-5.3-11.5-11.8V232.9c0-6.3,5-11.4,11.2-11.4H206.6z"/>
		<path class="st17" d="M324,221.5v-36c0-6.2,5-11.3,11.1-11.3h94.2c6.4,0,11.5,5.3,11.5,11.8v35.5H771c6.2,0,11.2,5.1,11.2,11.4
			V708c0,6.5-5.2,11.8-11.5,11.8H110c-6.4,0-11.5-5.3-11.5-11.8V232.9c0-6.3,5-11.4,11.2-11.4H324z"/>
		<path class="st17" d="M440.9,221.5v-36c0-6.2,5-11.3,11.1-11.3h93.7c6.4,0,11.5,5.3,11.5,11.8v35.5H771c6.2,0,11.2,5.1,11.2,11.4
			V708c0,6.5-5.2,11.8-11.5,11.8H110c-6.4,0-11.5-5.3-11.5-11.8V232.9c0-6.3,5-11.4,11.2-11.4H440.9z"/>
		<path class="st3" d="M557.2,221.5v-36c0-6.2,5-11.3,11.1-11.3H663c6.4,0,11.5,5.3,11.5,11.8v35.5H771c6.2,0,11.2,5.1,11.2,11.4
			V708c0,6.5-5.2,11.8-11.5,11.8H110c-6.4,0-11.5-5.3-11.5-11.8V232.9c0-6.3,5-11.4,11.2-11.4H557.2z"/>
	</g>
	<g>
		<text transform="matrix(1 0 0 1 139.434 195.3952)"><tspan x="0" y="0" class="st3 st18 st19">Test</tspan><tspan x="-8.7" y="16.8" class="st3 st18 st19">Runner</tspan></text>
	</g>
	<g>
		<g>
			<g>
				<g>
					<path class="st8" d="M548,282.7h-46.8c-5,0-9.1-4.1-9.1-9.1v-1.8c0-5,4.1-9.1,9.1-9.1H548c5,0,9.1,4.1,9.1,9.1v1.8
						C557.1,278.6,553,282.7,548,282.7z"/>
				</g>
			</g>
			<g>
				<text transform="matrix(1 0 0 1 506.1959 276.7951)" class="st3 st5 st6">add dir</text>
			</g>
		</g>
		<g>
			<g>
				<g>
					<path class="st2" d="M617.9,282.7h-46.8c-5,0-9.1-4.1-9.1-9.1v-1.8c0-5,4.1-9.1,9.1-9.1h46.8c5,0,9.1,4.1,9.1,9.1v1.8
						C627,278.6,622.9,282.7,617.9,282.7z"/>
				</g>
			</g>
			<g>
				<text transform="matrix(1 0 0 1 574.8507 276.7951)" class="st3 st5 st6">add file</text>
			</g>
		</g>
		<g>
			<g>
				<g>
					<path class="st2" d="M687.9,282.7h-46.8c-5,0-9.1-4.1-9.1-9.1v-1.8c0-5,4.1-9.1,9.1-9.1h46.8c5,0,9.1,4.1,9.1,9.1v1.8
						C697,278.6,692.9,282.7,687.9,282.7z"/>
				</g>
			</g>
			<g>
				<text transform="matrix(1 0 0 1 643.7108 276.7951)" class="st3 st5 st6">set cwd</text>
			</g>
		</g>
		<g>
			<g>
				<g>
					<path class="st2" d="M757.9,282.7h-46.8c-5,0-9.1-4.1-9.1-9.1v-1.8c0-5,4.1-9.1,9.1-9.1h46.8c5,0,9.1,4.1,9.1,9.1v1.8
						C767,278.6,762.9,282.7,757.9,282.7z"/>
				</g>
			</g>
			<g>
				<text transform="matrix(1 0 0 1 708.3859 276.7951)" class="st3 st5 st6">download</text>
			</g>
		</g>
	</g>
	<g>
		<g>
			<g>
				<path class="st7" d="M467.6,282.6H123.1c-5.1,0-9.3-4.2-9.3-9.3v-1.4c0-5.1,4.2-9.3,9.3-9.3h344.5c5.1,0,9.3,4.2,9.3,9.3v1.4
					C476.9,278.4,472.7,282.6,467.6,282.6z"/>
			</g>
		</g>
		<g>
			<g>
				<path class="st8" d="M456.7,282.6h10.9c5.1,0,9.3-4.2,9.3-9.3v-1.4c0-5.1-4.2-9.3-9.3-9.3h-10.9V282.6z"/>
			</g>
		</g>
		<path class="st3" d="M471.9,270.4c-0.3-2.2-2.1-3.9-4.4-3.9c-0.2,0-0.4,0-0.5,0c-2.4,0.3-4.1,2.5-3.8,4.9c0.1,1.1,0.7,2,1.4,2.7
			l-2.9,3.8c-0.1,0.2-0.1,0.5,0.1,0.6c0.1,0.1,0.2,0.1,0.3,0.1c0.1,0,0.3-0.1,0.3-0.2l3-3.8c0.7,0.4,1.5,0.6,2.3,0.6
			c0.2,0,0.4,0,0.5,0C470.5,275.1,472.2,272.8,471.9,270.4z M468,274.5c-0.2,0-0.3,0-0.5,0c-1.8,0-3.3-1.3-3.5-3.1
			c-0.2-2,1.2-3.7,3.1-4c0.2,0,0.3,0,0.5,0c1.8,0,3.3,1.3,3.5,3.1C471.3,272.5,469.9,274.3,468,274.5z"/>
	</g>
	<g>
		<g>
			<g>
				<path class="st7" d="M757.8,256.6H188.3c-5.1,0-9.3-4.2-9.3-9.3V246c0-5.1,4.2-9.3,9.3-9.3h569.4c5.1,0,9.3,4.2,9.3,9.3v1.4
					C767,252.5,762.9,256.6,757.8,256.6z"/>
			</g>
		</g>
	</g>
	<g>
		<g>
			<g>
				<path class="st7" d="M757.8,319.3H122.8c-5.1,0-9.3-4.2-9.3-9.3v-1.4c0-5.1,4.2-9.3,9.3-9.3h634.9c5.1,0,9.3,4.2,9.3,9.3v1.4
					C767,315.1,762.9,319.3,757.8,319.3z"/>
			</g>
		</g>
	</g>
	<g>
		<text transform="matrix(1 0 0 1 113.8102 250.7758)" class="st4 st20 st21">Direction:</text>
	</g>
	<g>
		<text transform="matrix(1 0 0 1 187.3927 250.1914)" class="st4 st5 st6">/home/lively/LivelyKernel</text>
	</g>
	<line class="st22" x1="331.6" y1="300.3" x2="331.6" y2="704.2"/>
	<line class="st22" x1="549.3" y1="300.3" x2="549.3" y2="704.2"/>
	<g>
		<text transform="matrix(1 0 0 1 257.6156 195.3952)"><tspan x="0" y="0" class="st3 st18 st19">Git</tspan><tspan x="-13.8" y="16.8" class="st3 st18 st19">Control</tspan></text>
	</g>
	<g>
		<text transform="matrix(1 0 0 1 359.6306 195.395)"><tspan x="0" y="0" class="st3 st18 st19">System</tspan><tspan x="-1.6" y="16.8" class="st3 st18 st19">Console</tspan></text>
	</g>
	<g>
		<text transform="matrix(1 0 0 1 479.3584 195.3947)"><tspan x="0" y="0" class="st3 st18 st19">Server</tspan><tspan x="-14.9" y="16.8" class="st3 st18 st19">Workspace</tspan></text>
	</g>
	<g>
		<text transform="matrix(1 0 0 1 699.4324 203.8076)" class="st3 st18 st19">Terminal</text>
	</g>
	<g>
		<text transform="matrix(1 0 0 1 604.2512 195.3952)"><tspan x="0" y="0" class="st4 st20 st19">File</tspan><tspan x="-2.5" y="16.8" class="st4 st20 st19">Tree</tspan></text>
	</g>
	<g>
		<g>
			<text transform="matrix(1 0 0 1 133.3656 155.7605)" class="st3 st20 st23">Advanced Tools</text>
		</g>
		<g>
			<path class="st10" d="M113,139.4c-1.4,0-2.7,0.2-4,0.7c-2.9,1.1-5.2,3.2-6.4,6c-1.2,2.8-1.3,5.9-0.2,8.7
				c1.7,4.5,6.1,7.5,10.8,7.5c1.4,0,2.7-0.2,4-0.7c2.9-1.1,5.2-3.2,6.4-6c1.2-2.8,1.3-5.9,0.2-8.7
				C122.1,142.4,117.8,139.4,113,139.4z"/>
		</g>
		<g>
			<g>
				<path d="M114.6,145.6h-2.9c-0.5,0-1,0.4-1,1v0.5c0,0.1-0.1,0.2-0.2,0.2h-2.9c-0.5,0-1,0.4-1,1v7c0,0.5,0.4,0.9,0.9,0.9h11.2
					c0.5,0,1-0.4,1-1V148c0-0.4-0.3-0.8-0.8-0.8h-3.1c-0.1,0-0.2-0.1-0.2-0.2v-0.5C115.5,146,115.1,145.6,114.6,145.6z M111.4,146.6
					c0-0.1,0.1-0.2,0.2-0.2h2.9c0.1,0,0.2,0.1,0.2,0.2v0.5c0,0.1-0.1,0.2-0.2,0.2h-2.9c-0.1,0-0.2-0.1-0.2-0.2V146.6z M118.9,155.2
					c0,0.1-0.1,0.2-0.2,0.2h-11.2c-0.1,0-0.2-0.1-0.2-0.2v-4.6c0-0.1,0.1-0.2,0.2-0.2h11.2c0.1,0,0.2,0.1,0.2,0.2V155.2z M118.7,148
					c0.1,0,0.2,0.1,0.2,0.2v1.3c0,0.1-0.1,0.2-0.2,0.2h-11.2c-0.1,0-0.2-0.1-0.2-0.2v-1.3c0-0.1,0.1-0.2,0.2-0.2H118.7z"/>
			</g>
			<path d="M109.7,150.9h-0.1c-0.2,0-0.3-0.1-0.3-0.3v-1c0-0.2,0.1-0.3,0.3-0.3h0.1c0.2,0,0.3,0.1,0.3,0.3v1
				C110,150.8,109.8,150.9,109.7,150.9z"/>
			<path d="M116.7,150.9h-0.1c-0.2,0-0.3-0.1-0.3-0.3v-1c0-0.2,0.1-0.3,0.3-0.3h0.1c0.2,0,0.3,0.1,0.3,0.3v1
				C117,150.8,116.8,150.9,116.7,150.9z"/>
		</g>
	</g>
	<g>
		<text transform="matrix(1 0 0 1 427.1036 314.4887)" class="st4 st20 st21">Size</text>
	</g>
	<g>
		<text transform="matrix(1 0 0 1 638.8734 314.4887)" class="st4 st20 st21">Name</text>
	</g>
	<g>
		<text transform="matrix(1 0 0 1 207.3429 314.4887)" class="st4 st20 st21">Time</text>
	</g>
	<g>
		<g>
			<g>
				<polygon class="st15" points="319,308.4 316.2,311.1 313.4,308.4 				"/>
			</g>
		</g>
	</g>
	<g>
		<g>
			<g>
				<polygon class="st15" points="539.3,308.4 536.5,311.1 533.7,308.4 				"/>
			</g>
		</g>
	</g>
	<g>
		<g>
			<g>
				<polygon class="st15" points="758.9,308.4 756.1,311.1 753.3,308.4 				"/>
			</g>
		</g>
	</g>
	<g>
		<polygon class="st16" points="551.7,282.7 541.2,274 542.8,287.6 546.2,285.7 549.8,292.4 551,291.8 547.3,285.1 		"/>
		<polygon points="551.7,282.7 541.2,274 542.8,287.6 546.2,285.7 549.8,292.4 551,291.8 547.3,285.1 		"/>
	</g>
	<g>
		<g>
			<g>
				<circle class="st8" cx="764" cy="150.9" r="7.4"/>
				<g>
					<line class="st9" x1="760.4" y1="147.3" x2="767.8" y2="154.7"/>
					<line class="st9" x1="760.4" y1="154.7" x2="767.8" y2="147.3"/>
				</g>
			</g>
		</g>
		<g>
			<circle class="st10" cx="739" cy="150.9" r="7.4"/>
			<g>
				<g>
					<path class="st2" d="M743,151.6h-8c-0.3,0-0.5-0.2-0.5-0.5s0.2-0.5,0.5-0.5h8c0.3,0,0.5,0.2,0.5,0.5S743.2,151.6,743,151.6z"/>
				</g>
			</g>
		</g>
	</g>
</g>
</svg>
