<?xml version="1.0" encoding="utf-8"?>
<!-- Generator: Adobe Illustrator 19.1.0, SVG Export Plug-In . SVG Version: 6.00 Build 0)  -->
<svg version="1.1" id="Layer_1" xmlns="http://www.w3.org/2000/svg" xmlns:xlink="http://www.w3.org/1999/xlink" x="0px" y="0px"
	 viewBox="0 0 883.5 809.6" style="enable-background:new 0 0 883.5 809.6;" xml:space="preserve">
<style type="text/css">
	.st0{font-family:'MyriadPro-Bold';}
	.st1{font-size:30.1109px;}
	.st2{fill:#4D4D4D;}
	.st3{fill:#FFFFFF;}
	.st4{fill:#808080;}
	.st5{fill:#F2F2F2;}
	.st6{fill:#F57C00;}
	.st7{fill:none;stroke:#FFFFFF;stroke-width:0.8981;stroke-linecap:round;stroke-linejoin:round;stroke-miterlimit:10;}
	.st8{fill:#CCCCCC;}
	.st9{fill:none;stroke:#000000;stroke-miterlimit:10;}
	.st10{fill:none;stroke:#4D4D4D;stroke-miterlimit:10;}
	.st11{fill:none;stroke:#E6E6E6;stroke-miterlimit:10;}
	.st12{fill:#FFFFFF;stroke:#FFFFFF;stroke-width:0.9519;stroke-linecap:round;stroke-linejoin:round;stroke-miterlimit:10;}
	.st13{fill:#808080;stroke:#808080;stroke-width:0.9519;stroke-linecap:round;stroke-linejoin:round;stroke-miterlimit:10;}
	.st14{fill:none;stroke:#FFFFFF;stroke-width:2.5352;stroke-linecap:round;stroke-linejoin:round;stroke-miterlimit:10;}
	.st15{fill:#808080;stroke:#4D4D4D;stroke-width:0.253;stroke-miterlimit:10;}
	.st16{fill:none;stroke:#F2F2F2;stroke-width:2.1462;stroke-linecap:round;stroke-linejoin:round;stroke-miterlimit:10;}
	.st17{font-family:'Roboto-Light';}
	.st18{font-size:14.0211px;}
	.st19{font-family:'Roboto-Medium';}
	.st20{font-family:'Roboto-Regular';}
	.st21{font-size:12px;}
	.st22{fill:#E6E6E6;stroke:#CCCCCC;stroke-width:0.5;stroke-miterlimit:10;}
	.st23{font-size:16.65px;}
	.st24{fill:none;stroke:#FFFFFF;stroke-width:2;stroke-linecap:round;stroke-linejoin:round;stroke-miterlimit:10;}
	.st25{fill:#141414;}
	.st26{fill:#F2F2F2;stroke:#E6E6E6;stroke-width:0.3909;stroke-miterlimit:10;}
	.st27{fill:#F57C00;stroke:#E6E6E6;stroke-width:0.3909;stroke-miterlimit:10;}
	.st28{fill:#4D4D4D;stroke:#FFFFFF;stroke-width:0.6083;stroke-linecap:round;stroke-linejoin:round;stroke-miterlimit:10;}
	.st29{fill:none;stroke:#FFFFFF;stroke-width:0.807;stroke-linecap:round;stroke-linejoin:round;stroke-miterlimit:10;}
	.st30{fill:#F2F2F2;stroke:#E6E6E6;stroke-width:0.5;stroke-miterlimit:10;}
	.st31{fill:#E6E7E8;stroke:#E6E7E8;stroke-width:0.8569;stroke-miterlimit:10;}
	.st32{fill:#39B54A;}
</style>
<text transform="matrix(1 0 0 1 91.6691 68.4941)" class="st0 st1">Advanced Tools Window - Systen Console UI</text>
<g>
	<path class="st2" d="M774.9,726.5H106.2c-8.6,0-15.6-7.1-15.6-15.9V142.4c0-8.8,7-15.9,15.6-15.9h668.7c8.6,0,15.6,7.1,15.6,15.9
		v568.2C790.6,719.3,783.6,726.5,774.9,726.5z"/>
	<g>
		<path class="st15" d="M674.3,220.9v-36c0-6.2,5-11.3,11.1-11.3H771c6.4,0,11.5,5.3,11.5,11.8v521.1c0,6.5-5.2,11.8-11.5,11.8
			H110.2c-6.4,0-11.5-5.3-11.5-11.8V232.3c0-6.3,5-11.4,11.2-11.4H674.3z"/>
		<path class="st15" d="M441.1,220.9v-36c0-6.2,5-11.3,11.1-11.3h93.7c6.4,0,11.5,5.3,11.5,11.8v35.5h213.8
			c6.2,0,11.2,5.1,11.2,11.4v474.1c0,6.5-5.2,11.8-11.5,11.8H110.2c-6.4,0-11.5-5.3-11.5-11.8V232.3c0-6.3,5-11.4,11.2-11.4H441.1z"
			/>
		<path class="st15" d="M557.5,220.9v-36c0-6.2,5-11.3,11.1-11.3h94.7c6.4,0,11.5,5.3,11.5,11.8v35.5h96.4c6.2,0,11.2,5.1,11.2,11.4
			v474.1c0,6.5-5.2,11.8-11.5,11.8H110.2c-6.4,0-11.5-5.3-11.5-11.8V232.3c0-6.3,5-11.4,11.2-11.4H557.5z"/>
		<path class="st15" d="M207.4,220.9v-36c0-6.2-5-11.3-11.1-11.3h-86.1c-6.4,0-11.5,5.3-11.5,11.8v521.1c0,6.5,5.2,11.8,11.5,11.8
			H771c6.4,0,11.5-5.3,11.5-11.8V232.3c0-6.3-5-11.4-11.2-11.4H207.4z"/>
		<path class="st15" d="M206.9,220.9v-36c0-6.2,5-11.3,11.1-11.3h95.2c6.4,0,11.5,5.3,11.5,11.8v35.5h446.5
			c6.2,0,11.2,5.1,11.2,11.4v474.1c0,6.5-5.2,11.8-11.5,11.8H110.2c-6.4,0-11.5-5.3-11.5-11.8V232.3c0-6.3,5-11.4,11.2-11.4H206.9z"
			/>
		<path class="st3" d="M324.3,220.9v-36c0-6.2,5-11.3,11.1-11.3h94.2c6.4,0,11.5,5.3,11.5,11.8v35.5h330.2c6.2,0,11.2,5.1,11.2,11.4
			v474.1c0,6.5-5.2,11.8-11.5,11.8H110.2c-6.4,0-11.5-5.3-11.5-11.8V232.3c0-6.3,5-11.4,11.2-11.4H324.3z"/>
	</g>
	<g>
		<g>
			<g>
				<path class="st5" d="M762.7,256.9h-643c-5.1,0-9.3-4.2-9.3-9.3v-1.4c0-5.1,4.2-9.3,9.3-9.3h643c5.1,0,9.3,4.2,9.3,9.3v1.4
					C771.9,252.7,767.8,256.9,762.7,256.9z"/>
			</g>
		</g>
	</g>
	<g>
		<text transform="matrix(1 0 0 1 257.8672 194.8056)"><tspan x="0" y="0" class="st3 st17 st18">Git</tspan><tspan x="-13.8" y="16.8" class="st3 st17 st18">Control</tspan></text>
	</g>
	<g>
		<text transform="matrix(1 0 0 1 359.396 194.8054)"><tspan x="0" y="0" class="st4 st19 st18">System</tspan><tspan x="-1.7" y="16.8" class="st4 st19 st18">Console</tspan></text>
	</g>
	<g>
		<text transform="matrix(1 0 0 1 479.6101 194.8051)"><tspan x="0" y="0" class="st3 st17 st18">Server</tspan><tspan x="-14.9" y="16.8" class="st3 st17 st18">Workspace</tspan></text>
	</g>
	<g>
		<text transform="matrix(1 0 0 1 699.6841 203.218)" class="st3 st17 st18">Terminal</text>
	</g>
	<g>
		<text transform="matrix(1 0 0 1 605.0779 194.8056)"><tspan x="0" y="0" class="st3 st17 st18">File</tspan><tspan x="-2.9" y="16.8" class="st3 st17 st18">Tree</tspan></text>
	</g>
	<g>
		<text transform="matrix(1 0 0 1 139.6855 194.8056)"><tspan x="0" y="0" class="st3 st17 st18">Test</tspan><tspan x="-8.7" y="16.8" class="st3 st17 st18">Runner</tspan></text>
	</g>
	<g>
		<g>
			<g>
				<path class="st2" d="M594.5,706.4h-46.8c-5,0-9.1-4.1-9.1-9.1v-1.8c0-5,4.1-9.1,9.1-9.1h46.8c5,0,9.1,4.1,9.1,9.1v1.8
					C603.6,702.3,599.5,706.4,594.5,706.4z"/>
			</g>
		</g>
		<g>
			<text transform="matrix(1 0 0 1 557.2375 700.4866)" class="st3 st20 st21">Clear</text>
		</g>
		<g>
			<g>
				<path class="st2" d="M667.4,706.4h-46.8c-5,0-9.1-4.1-9.1-9.1v-1.8c0-5,4.1-9.1,9.1-9.1h46.8c5,0,9.1,4.1,9.1,9.1v1.8
					C676.5,702.3,672.4,706.4,667.4,706.4z"/>
			</g>
		</g>
		<g>
			<text transform="matrix(1 0 0 1 620.2371 700.4866)" class="st3 st20 st21">Reattach</text>
		</g>
		<g>
			<text transform="matrix(1 0 0 1 708.6017 700.4866)" class="st4 st20 st21">Follow Log</text>
			<circle class="st22" cx="696.2" cy="696" r="4.8"/>
			<circle class="st6" cx="696.2" cy="696" r="3.1"/>
		</g>
	</g>
	<g>
		<text transform="matrix(1 0 0 1 119.7666 251.3867)" class="st4 st19 st18">Log Messages</text>
	</g>
	<g>
		<defs>
			<rect id="SVGID_3_" x="110.4" y="272.8" width="435" height="90"/>
		</defs>
		<clipPath id="SVGID_2_">
			<use xlink:href="#SVGID_3_"  style="overflow:visible;"/>
		</clipPath>
		<g transform="matrix(1 0 0 1 0 1.525879e-05)" style="clip-path:url(#SVGID_2_);">
			
				<image style="overflow:visible;" width="627" height="332" xlink:href="7591DE91670A8839.jpg"  transform="matrix(0.9132 0 0 0.9132 102.5812 251.5669)">
			</image>
		</g>
	</g>
	<g>
		<g>
			<text transform="matrix(1 0 0 1 133.6173 155.171)" class="st3 st19 st23">Advanced Tools</text>
		</g>
		<g>
			<path class="st8" d="M113.2,138.8c-1.4,0-2.7,0.2-4,0.7c-2.9,1.1-5.2,3.2-6.4,6c-1.2,2.8-1.3,5.9-0.2,8.7
				c1.7,4.5,6.1,7.5,10.8,7.5c1.4,0,2.7-0.2,4-0.7c2.9-1.1,5.2-3.2,6.4-6c1.2-2.8,1.3-5.9,0.2-8.7
				C122.4,141.8,118,138.8,113.2,138.8z"/>
		</g>
		<g>
			<g>
				<path d="M114.8,145h-2.9c-0.5,0-1,0.4-1,1v0.5c0,0.1-0.1,0.2-0.2,0.2h-2.9c-0.5,0-1,0.4-1,1v7c0,0.5,0.4,0.9,0.9,0.9h11.2
					c0.5,0,1-0.4,1-1v-7.2c0-0.4-0.3-0.8-0.8-0.8H116c-0.1,0-0.2-0.1-0.2-0.2V146C115.8,145.4,115.3,145,114.8,145z M111.6,146
					c0-0.1,0.1-0.2,0.2-0.2h2.9c0.1,0,0.2,0.1,0.2,0.2v0.5c0,0.1-0.1,0.2-0.2,0.2h-2.9c-0.1,0-0.2-0.1-0.2-0.2V146z M119.1,154.7
					c0,0.1-0.1,0.2-0.2,0.2h-11.2c-0.1,0-0.2-0.1-0.2-0.2v-4.6c0-0.1,0.1-0.2,0.2-0.2h11.2c0.1,0,0.2,0.1,0.2,0.2V154.7z
					 M118.9,147.4c0.1,0,0.2,0.1,0.2,0.2v1.3c0,0.1-0.1,0.2-0.2,0.2h-11.2c-0.1,0-0.2-0.1-0.2-0.2v-1.3c0-0.1,0.1-0.2,0.2-0.2H118.9
					z"/>
			</g>
			<path d="M109.9,150.3h-0.1c-0.2,0-0.3-0.1-0.3-0.3v-1c0-0.2,0.1-0.3,0.3-0.3h0.1c0.2,0,0.3,0.1,0.3,0.3v1
				C110.2,150.2,110.1,150.3,109.9,150.3z"/>
			<path d="M116.9,150.3h-0.1c-0.2,0-0.3-0.1-0.3-0.3v-1c0-0.2,0.1-0.3,0.3-0.3h0.1c0.2,0,0.3,0.1,0.3,0.3v1
				C117.2,150.2,117.1,150.3,116.9,150.3z"/>
		</g>
	</g>
	<g>
		<g>
			<g>
				<circle class="st6" cx="764.3" cy="150.3" r="7.4"/>
				<g>
					<line class="st7" x1="760.6" y1="146.7" x2="768.1" y2="154.1"/>
					<line class="st7" x1="760.6" y1="154.1" x2="768.1" y2="146.7"/>
				</g>
			</g>
		</g>
		<g>
			<circle class="st8" cx="739.3" cy="150.3" r="7.4"/>
			<g>
				<g>
					<path class="st2" d="M743.2,150.6h-8c-0.3,0-0.5-0.2-0.5-0.5s0.2-0.5,0.5-0.5h8c0.3,0,0.5,0.2,0.5,0.5S743.5,150.6,743.2,150.6
						z"/>
				</g>
			</g>
		</g>
	</g>
</g>
</svg>
