<?xml version="1.0" encoding="utf-8"?>
<!-- Generator: Adobe Illustrator 18.0.0, SVG Export Plug-In . SVG Version: 6.00 Build 0)  -->
<!DOCTYPE svg PUBLIC "-//W3C//DTD SVG 1.1//EN" "http://www.w3.org/Graphics/SVG/1.1/DTD/svg11.dtd">
<svg version="1.1" id="Layer_1" xmlns="http://www.w3.org/2000/svg" xmlns:xlink="http://www.w3.org/1999/xlink" x="0px" y="0px"
	 viewBox="0 0 49.2 49.8" style="enable-background:new 0 0 49.2 49.8;" xml:space="preserve">
<style type="text/css">
	.st0{fill:#4D4D4D;}
	.st1{fill:#58595B;}
	.st2{fill:#FFFFFF;}
	.st3{fill:#FFFFFF;stroke:#58595B;stroke-width:3.5;stroke-miterlimit:10;}
	.st4{fill:none;stroke:#FFFFFF;stroke-width:3.5;stroke-miterlimit:10;}
	.st5{fill-rule:evenodd;clip-rule:evenodd;fill:#58595B;stroke:#58595B;stroke-miterlimit:10;}
	.st6{fill-rule:evenodd;clip-rule:evenodd;fill:#FFFFFF;stroke:#FFFFFF;stroke-miterlimit:10;}
	.st7{fill:#58595B;stroke:#58595B;stroke-width:1.5;stroke-miterlimit:10;}
	.st8{fill:#58595B;stroke:#58595B;stroke-miterlimit:10;}
	.st9{fill:#FFFFFF;stroke:#FFFFFF;stroke-width:1.5;stroke-miterlimit:10;}
	.st10{fill:#FFFFFF;stroke:#FFFFFF;stroke-miterlimit:10;}
	.st11{fill:none;stroke:#58595B;stroke-width:3;stroke-miterlimit:10;}
	.st12{fill:none;stroke:#FFFFFF;stroke-width:3;stroke-miterlimit:10;}
</style>
<g>
	<g>
		<circle class="st0" cx="24.8" cy="25.4" r="23.9"/>
	</g>
</g>
<g>
	<path class="st6" d="M28.9,25.4h-9.8c-0.5,0-1,0.4-1,1c0,0.5,0.4,1,1,1h9.8c0.5,0,1-0.4,1-1C29.9,25.8,29.5,25.4,28.9,25.4
		L28.9,25.4z M31.2,20h-12c-0.5,0-0.9,0.4-0.9,1c0,0.5,0.4,1,0.9,1h12c0.5,0,0.9-0.4,0.9-1C32.1,20.5,31.7,20,31.2,20L31.2,20z
		 M24.8,9.7c-8.7,0-15.7,6.1-15.7,13.7c0,4.3,2.3,8.2,5.9,10.7v6.9l6.9-4.2c1,0.2,1.9,0.2,2.9,0.2c8.7,0,15.7-6.1,15.7-13.7
		C40.5,15.8,33.4,9.7,24.8,9.7L24.8,9.7z M24.8,35.2c-1.1,0-2.2-0.1-3.3-0.4l-4.6,2.8l0.1-4.5c-3.5-2.1-5.9-5.6-5.9-9.6
		c0-6.5,6.1-11.8,13.7-11.8c7.6,0,13.7,5.3,13.7,11.8C38.5,29.9,32.3,35.2,24.8,35.2L24.8,35.2z M24.8,35.2"/>
</g>
</svg>
