<?xml version="1.0" encoding="utf-8"?>
<!-- Generator: Adobe Illustrator 18.0.0, SVG Export Plug-In . SVG Version: 6.00 Build 0)  -->
<!DOCTYPE svg PUBLIC "-//W3C//DTD SVG 1.1//EN" "http://www.w3.org/Graphics/SVG/1.1/DTD/svg11.dtd">
<svg version="1.1" id="Layer_1" xmlns="http://www.w3.org/2000/svg" xmlns:xlink="http://www.w3.org/1999/xlink" x="0px" y="0px"
	 viewBox="0 0 50.7 50.7" style="enable-background:new 0 0 50.7 50.7;" xml:space="preserve">
<style type="text/css">
	.st0{fill:#4D4D4D;}
	.st1{fill:#58595B;}
	.st2{fill:#FFFFFF;}
	.st3{fill:#FFFFFF;stroke:#58595B;stroke-width:3.5;stroke-miterlimit:10;}
	.st4{fill:none;stroke:#FFFFFF;stroke-width:3.5;stroke-miterlimit:10;}
	.st5{fill-rule:evenodd;clip-rule:evenodd;fill:#58595B;stroke:#58595B;stroke-miterlimit:10;}
	.st6{fill-rule:evenodd;clip-rule:evenodd;fill:#FFFFFF;stroke:#FFFFFF;stroke-miterlimit:10;}
	.st7{fill:#58595B;stroke:#58595B;stroke-width:1.5;stroke-miterlimit:10;}
	.st8{fill:#58595B;stroke:#58595B;stroke-miterlimit:10;}
	.st9{fill:#FFFFFF;stroke:#FFFFFF;stroke-width:1.5;stroke-miterlimit:10;}
	.st10{fill:#FFFFFF;stroke:#FFFFFF;stroke-miterlimit:10;}
	.st11{fill:none;stroke:#58595B;stroke-width:3;stroke-miterlimit:10;}
	.st12{fill:none;stroke:#FFFFFF;stroke-width:3;stroke-miterlimit:10;}
</style>
<g>
	<g>
		<g>
			<circle class="st0" cx="25.3" cy="25.2" r="23.9"/>
		</g>
	</g>
	<g>
		<g>
			<g>
				<path class="st4" d="M25.3,16.2c-9.5,0-14.4,7-14.4,8.1c0,1.1,5,8.1,14.4,8.1s14.4-7,14.4-8.1C39.8,23.2,34.8,16.2,25.3,16.2
					L25.3,16.2z M25.3,27.8c-2,0-3.6-1.6-3.6-3.5c0-1.9,1.6-3.5,3.6-3.5c2,0,3.6,1.6,3.6,3.5C29,26.2,27.3,27.8,25.3,27.8L25.3,27.8
					z"/>
			</g>
		</g>
		<circle class="st1" cx="25.4" cy="24.3" r="2.5"/>
		<circle class="st2" cx="26.4" cy="23.7" r="1.5"/>
	</g>
</g>
</svg>
