<?xml version="1.0" encoding="utf-8"?>
<!-- Generator: Adobe Illustrator 18.0.0, SVG Export Plug-In . SVG Version: 6.00 Build 0)  -->
<!DOCTYPE svg PUBLIC "-//W3C//DTD SVG 1.1//EN" "http://www.w3.org/Graphics/SVG/1.1/DTD/svg11.dtd">
<svg version="1.1" id="Layer_1" xmlns="http://www.w3.org/2000/svg" xmlns:xlink="http://www.w3.org/1999/xlink" x="0px" y="0px"
	 viewBox="0 0 50 50.3" style="enable-background:new 0 0 50 50.3;" xml:space="preserve">
<style type="text/css">
	.st0{fill:#4D4D4D;}
	.st1{fill:#58595B;}
	.st2{fill:#FFFFFF;}
	.st3{fill:#FFFFFF;stroke:#58595B;stroke-width:3.5;stroke-miterlimit:10;}
	.st4{fill:none;stroke:#FFFFFF;stroke-width:3.5;stroke-miterlimit:10;}
	.st5{fill-rule:evenodd;clip-rule:evenodd;fill:#58595B;stroke:#58595B;stroke-miterlimit:10;}
	.st6{fill-rule:evenodd;clip-rule:evenodd;fill:#FFFFFF;stroke:#FFFFFF;stroke-miterlimit:10;}
	.st7{fill:#58595B;stroke:#58595B;stroke-width:1.5;stroke-miterlimit:10;}
	.st8{fill:#58595B;stroke:#58595B;stroke-miterlimit:10;}
	.st9{fill:#FFFFFF;stroke:#FFFFFF;stroke-width:1.5;stroke-miterlimit:10;}
	.st10{fill:#FFFFFF;stroke:#FFFFFF;stroke-miterlimit:10;}
	.st11{fill:none;stroke:#58595B;stroke-width:3;stroke-miterlimit:10;}
	.st12{fill:none;stroke:#FFFFFF;stroke-width:3;stroke-miterlimit:10;}
</style>
<g>
	<g>
		<g>
			<circle class="st0" cx="25" cy="25.1" r="23.9"/>
		</g>
	</g>
	<g>
		<g>
			<path class="st2" d="M25,40.1c7,0,12.7-5.7,12.7-12.7c0-6.6-5.2-12.2-11.8-12.7l-1.8-0.1l2.4-2.4c0.6-0.6,0.6-1.6,0-2.2
				c-0.6-0.6-1.6-0.6-2.2,0L19,15.3c-0.3,0.3-0.5,0.7-0.5,1.1c0,0.4,0.2,0.8,0.5,1.1l5.4,5.4c0.6,0.6,1.6,0.6,2.2,0
				c0.3-0.3,0.5-0.7,0.5-1.1c0-0.4-0.2-0.8-0.5-1.1l-3-3l2.2,0.2c4.9,0.4,8.8,4.6,8.8,9.6c0,5.3-4.3,9.6-9.6,9.6
				c-5.3,0-9.6-4.3-9.6-9.6c0-0.9-0.7-1.6-1.6-1.6c-0.9,0-1.6,0.7-1.6,1.6C12.3,34.4,18,40.1,25,40.1z"/>
		</g>
	</g>
</g>
</svg>
