<?xml version="1.0" encoding="utf-8"?>
<!-- Generator: Adobe Illustrator 18.0.0, SVG Export Plug-In . SVG Version: 6.00 Build 0)  -->
<!DOCTYPE svg PUBLIC "-//W3C//DTD SVG 1.1//EN" "http://www.w3.org/Graphics/SVG/1.1/DTD/svg11.dtd">
<svg version="1.1" id="Layer_1" xmlns="http://www.w3.org/2000/svg" xmlns:xlink="http://www.w3.org/1999/xlink" x="0px" y="0px"
	 viewBox="0 0 50.4 51" style="enable-background:new 0 0 50.4 51;" xml:space="preserve">
<style type="text/css">
	.st0{fill:#4D4D4D;}
	.st1{fill:#58595B;}
	.st2{fill:#FFFFFF;}
	.st3{fill:#FFFFFF;stroke:#58595B;stroke-width:3.5;stroke-miterlimit:10;}
	.st4{fill:none;stroke:#FFFFFF;stroke-width:3.5;stroke-miterlimit:10;}
	.st5{fill-rule:evenodd;clip-rule:evenodd;fill:#58595B;stroke:#58595B;stroke-miterlimit:10;}
	.st6{fill-rule:evenodd;clip-rule:evenodd;fill:#FFFFFF;stroke:#FFFFFF;stroke-miterlimit:10;}
	.st7{fill:#58595B;stroke:#58595B;stroke-width:1.5;stroke-miterlimit:10;}
	.st8{fill:#58595B;stroke:#58595B;stroke-miterlimit:10;}
	.st9{fill:#FFFFFF;stroke:#FFFFFF;stroke-width:1.5;stroke-miterlimit:10;}
	.st10{fill:#FFFFFF;stroke:#FFFFFF;stroke-miterlimit:10;}
	.st11{fill:none;stroke:#58595B;stroke-width:3;stroke-miterlimit:10;}
	.st12{fill:none;stroke:#FFFFFF;stroke-width:3;stroke-miterlimit:10;}
</style>
<g>
	<g>
		<circle class="st0" cx="24.8" cy="25.7" r="23.9"/>
	</g>
</g>
<g>
	<path class="st9" d="M34.6,12.2H15c-1.6,0-2.9,1.3-2.9,2.9v21.2c0,1.6,1.3,2.9,2.9,2.9h19.6c1.6,0,2.9-1.3,2.9-2.9V15.1
		C37.5,13.5,36.2,12.2,34.6,12.2L34.6,12.2z M30.3,13.6v9.3H19.2v-9.3H30.3z M19.1,37.8v-5H30v5H19.1z M36,36.3
		c0,0.8-0.7,1.5-1.5,1.5h-3.1v-5.7c0-0.4-0.3-0.7-0.7-0.7H18.4c-0.4,0-0.7,0.3-0.7,0.7v5.7H15c-0.8,0-1.5-0.7-1.5-1.5V15.1
		c0-0.8,0.7-1.5,1.5-1.5h2.8v10c0,0.4,0.3,0.7,0.7,0.7H31c0.4,0,0.7-0.3,0.7-0.7v-10h2.8c0.8,0,1.5,0.7,1.5,1.5V36.3z M36,36.3"/>
	<path class="st10" d="M22.6,19.1h4.3c0.2,0,0.4-0.3,0.4-0.7c0-0.4-0.2-0.7-0.4-0.7h-4.3c-0.2,0-0.4,0.3-0.4,0.7
		C22.2,18.8,22.4,19.1,22.6,19.1L22.6,19.1z M22.6,19.1"/>
</g>
</svg>
