<?xml version="1.0" encoding="utf-8"?>
<!-- Generator: Adobe Illustrator 18.0.0, SVG Export Plug-In . SVG Version: 6.00 Build 0)  -->
<!DOCTYPE svg PUBLIC "-//W3C//DTD SVG 1.1//EN" "http://www.w3.org/Graphics/SVG/1.1/DTD/svg11.dtd">
<svg version="1.1" id="Layer_1" xmlns="http://www.w3.org/2000/svg" xmlns:xlink="http://www.w3.org/1999/xlink" x="0px" y="0px"
	 viewBox="0 0 49 49.8" style="enable-background:new 0 0 49 49.8;" xml:space="preserve">
<style type="text/css">
	.st0{fill:#4D4D4D;}
	.st1{fill:#58595B;}
	.st2{fill:#FFFFFF;}
	.st3{fill:#FFFFFF;stroke:#58595B;stroke-width:3.5;stroke-miterlimit:10;}
	.st4{fill:none;stroke:#FFFFFF;stroke-width:3.5;stroke-miterlimit:10;}
	.st5{fill-rule:evenodd;clip-rule:evenodd;fill:#58595B;stroke:#58595B;stroke-miterlimit:10;}
	.st6{fill-rule:evenodd;clip-rule:evenodd;fill:#FFFFFF;stroke:#FFFFFF;stroke-miterlimit:10;}
	.st7{fill:#58595B;stroke:#58595B;stroke-width:1.5;stroke-miterlimit:10;}
	.st8{fill:#58595B;stroke:#58595B;stroke-miterlimit:10;}
	.st9{fill:#FFFFFF;stroke:#FFFFFF;stroke-width:1.5;stroke-miterlimit:10;}
	.st10{fill:#FFFFFF;stroke:#FFFFFF;stroke-miterlimit:10;}
	.st11{fill:none;stroke:#58595B;stroke-width:3;stroke-miterlimit:10;}
	.st12{fill:none;stroke:#FFFFFF;stroke-width:3;stroke-miterlimit:10;}
</style>
<g>
	<g>
		<circle class="st0" cx="24.7" cy="24.8" r="23.9"/>
	</g>
</g>
<g>
	<path class="st2" d="M24.8,26.2c-3.9,0-13.2,2.2-13.2,7.6l0,0c0.6,3.7,8.1,7.8,13.2,7.8c5.2,0,12.6-3.9,13.2-7.8l0,0
		C38,28.4,28.6,26.2,24.8,26.2z M24.8,38.6c-4,0-9.5-2.8-10.2-5.2c0.6-2.3,6.5-4.2,10.2-4.2c3.6,0,9.5,1.9,10.2,4.2
		C34.7,35.9,28.7,38.6,24.8,38.6z"/>
	<path class="st2" d="M24.8,8.7c-4.1,0-7.4,3.2-7.4,7.4c0,4.1,3.2,7.4,7.4,7.4c4.1,0,7.4-3.2,7.4-7.4C32.1,12,28.9,8.7,24.8,8.7z
		 M24.8,20.5c-2.5,0-4.4-1.9-4.4-4.4c0-2.5,1.9-4.4,4.4-4.4c2.5,0,4.4,1.9,4.4,4.4C29.1,18.6,27.2,20.5,24.8,20.5z"/>
</g>
</svg>
