<?xml version="1.0"?>
<svg width="48" height="48" xmlns="http://www.w3.org/2000/svg" xmlns:svg="http://www.w3.org/2000/svg">
 <style type="text/css">
	.st6{fill-rule:evenodd;clip-rule:evenodd;fill:#FFFFFF;stroke:#FFFFFF;stroke-miterlimit:10;}
 </style>
 <g>
   <path id="svg_5" d="m28,23.9l-9.800001,0c-0.5,0 -1,0.4 -1,1c0,0.5 0.4,1 1,1l9.800001,0c0.5,0 1,-0.4 1,-1c0,-0.6 -0.4,-1 -1,-1l0,0zm2.300001,-5.4l-12,0c-0.5,0 -0.9,0.4 -0.9,1c0,0.5 0.4,1 0.9,1l12,0c0.5,0 0.900002,-0.4 0.900002,-1c-0.000004,-0.5 -0.400002,-1 -0.900002,-1l0,0zm-6.400002,-10.3c-8.700001,0 -15.7,6.1 -15.7,13.7c0,4.300001 2.299999,8.199999 5.900001,10.699999l0,6.900002l6.9,-4.200001c1,0.200001 1.9,0.200001 2.9,0.200001c8.699999,0 15.699999,-6.1 15.699999,-13.700001c0,-7.499999 -7.099998,-13.599999 -15.699999,-13.599999l0,0zm0,25.500001c-1.1,0 -2.200001,-0.099998 -3.300001,-0.400002l-4.599998,2.800003l0.099998,-4.5c-3.499999,-2.1 -5.899999,-5.6 -5.899999,-9.600002c0,-6.5 6.099999,-11.8 13.7,-11.8c7.599998,0 13.699999,5.3 13.699999,11.8c0,6.4 -6.199999,11.700001 -13.699999,11.700001l0,0zm0,0" class="st6"/>
 </g>
</svg>