<?xml version="1.0"?>
<svg width="103" height="48" xmlns="http://www.w3.org/2000/svg" xmlns:svg="http://www.w3.org/2000/svg">
 <g>
  <path class="st1" d="m16.300049,13.30002c-0.70001,-0.6 -1.5,-0.89999 -2.5,-0.89999s-1.800048,0.29999 -2.5,0.89999c-0.70001,0.60001 -1,1.4 -1,2.29999c0,0.9 0.399961,1.70001 1,2.30002c0.699952,0.599979 1.5,0.89999 2.5,0.89999s1.79999,-0.300011 2.5,-0.89999c0.699951,-0.60001 1,-1.400021 1,-2.30002c0.09997,-0.89999 -0.300049,-1.69998 -1,-2.29999zm-0.20001,7.60001c-0.600039,-0.5 -1.29999,-0.80002 -2.200019,-0.80002c-0.900019,0 -1.599971,0.30002 -2.200009,0.80002c-0.599971,0.599979 -0.899961,1.29999 -0.899961,2.099979l0,14.800009c0,0.799995 0.299991,1.5 1,2.100014c0.59997,0.5 1.399961,0.799992 2.199952,0.799992c0.900019,0 1.600038,-0.299992 2.200009,-0.799992c0.600039,-0.600014 0.900028,-1.300018 0.900028,-2.100014l0,-14.899988c-0.100039,-0.80002 -0.400028,-1.5 -1,-2zm-9.299988,15.399988c-0.300051,-0.300007 -0.300051,-0.399986 -0.300051,-0.399986c0,-0.100014 0,-0.200008 0,-0.700012l0,-20.20001c0,-0.79999 -0.29999,-1.5 -1,-2.099979c-0.599979,-0.5 -1.39996,-0.80002 -2.199949,-0.80002c-0.90003,0 -1.70001,0.30002 -2.30005,0.80002c-0.59998,0.599979 -1,1.29999 -1,2.099979l0,20.600004c0,1.10001 0.20001,1.899994 0.40002,2.600006c0.29999,0.700012 0.59998,1.200012 1.099979,1.599998c0.400021,0.299995 0.900021,0.600014 1.400021,0.699989c0.5,0.100006 0.90003,0.100006 1.29999,0.100006c1,0 1.79999,-0.199982 2.40002,-0.600002c0.700021,-0.399998 1,-1.099979 1,-2c0,-0.500004 -0.10003,-0.899998 -0.299979,-1.099979c-0.10004,-0.200008 -0.300051,-0.400024 -0.5,-0.600014zm29.399962,-13.399988c0,-0.900021 -0.299992,-1.60001 -0.89996,-2.10001c-0.60004,-0.5 -1.300053,-0.70001 -2.10004,-0.70001c-0.599972,0 -1.200014,0.20001 -1.799994,0.5c-0.599968,0.4 -1,0.9 -1.200008,1.5l-2,6.30002c-0.299992,1 -0.5,1.89999 -0.700012,2.89999c-0.199947,-1 -0.39996,-1.89999 -0.699947,-2.89999l-2.10004,-6.30002c-0.20001,-0.6 -0.599981,-1.1 -1.20001,-1.5c-0.599981,-0.29999 -1.199951,-0.5 -1.79999,-0.5c-0.799992,0 -1.599972,0.30002 -2.20001,0.70001c-0.699951,0.5 -1,1.199989 -1,2.10001l0,0.29999c0,0.20001 0.100039,0.39999 0.20001,0.5l5.200008,14.299992c0.299992,0.900021 0.799992,1.499996 1.299992,2c0.60004,0.400021 1.299988,0.600002 2.299988,0.600002c0.900021,0 1.700012,-0.199982 2.200012,-0.699982c0.5,-0.400024 1,-1.100014 1.299988,-2l5.100042,-14.200012c0.099972,-0.20001 0.099972,-0.4 0.099972,-0.5l0,-0.29999l0,0zm66.600037,-7.80002c0,-0.1 0,-0.1 0,0c0,-0.1 0,-0.1 0,0l0,0c-0.200005,-0.39999 -0.300049,-0.69998 -0.5,-1c-0.200005,-0.19998 -0.300049,-0.39999 -0.5,-0.5c0,0 0,0 -0.100037,0l-1.5,-1.1c-0.099983,-0.099979 -0.200012,-0.099979 -0.299988,-0.199989c-0.400024,-0.300011 -0.599976,-0.800011 -0.700012,-1.300011c0,-0.5 0.299988,-0.9 0.700012,-1.29999c0.099976,-0.10001 0.200005,-0.10001 0.299988,-0.200009l1.5,-1.09998c0,0 0,0 0.100037,0c0.199951,-0.20001 0.299995,-0.30002 0.5,-0.5c0.199951,-0.30002 0.299995,-0.60001 0.399963,-0.90002l0,0c0,-0.299991 0.100037,-0.59998 0.100037,-0.900001c-0.100037,-0.599999 -0.200005,-1.19998 -0.600037,-1.69998c-0.200012,-0.20001 -0.299988,-0.40002 -0.5,-0.60001c0,0 0,0 0,0c-0.200012,-0.20001 -0.299988,-0.30001 -0.5,-0.39999c0,0 0,0 0,0c-0.599983,-0.40002 -1.399963,-0.60001 -2.200012,-0.40002c0,0 0,0 0,0c0,0 0,0 0,0c-0.299988,0.099999 -0.599976,0.200009 -0.899956,0.40002l-1.70002,1.19998c-0.099976,0 -0.099976,0.10001 -0.200012,0.10001c-0.5,0.299991 -1.099968,0.39999 -1.599968,0.20001c-0.400032,-0.20001 -0.70002,-0.60001 -0.799995,-1c-0.200005,-0.70001 -0.400024,-1.40002 -0.700005,-2.10001c-0.100044,-0.20001 -0.20002,-0.39999 -0.299995,-0.6c-0.100037,-0.10001 -0.200005,-0.20001 -0.200005,-0.29999c-0.20002,-0.20001 -0.400032,-0.40002 -0.70002,-0.60001c-0.29998,-0.1 -0.5,-0.30002 -0.79998,-0.30002c-0.20002,0 -0.299995,0 -0.5,0c-0.20002,0 -0.299995,0 -0.5,0c-0.299995,0 -0.5,0.10001 -0.799995,0.20002c0,0 0,0 -0.100037,0l0,0c-0.399963,0.1 -0.799988,0.39999 -1.200012,0.6c0,0 0,0 0,0c-0.699951,0.5 -1.099976,1.29999 -1.099976,2.19999c0,0.30001 0,0.599999 0.099976,0.80001l0.700012,2c0,0.10001 0.100037,0.19999 0.100037,0.19999c0.099976,0.40002 0,0.90002 -0.200005,1.30001c-0.299995,0.5 -1,0.69999 -1.5,0.69999l-2.100044,0c-0.299988,0 -0.699951,0.099999 -1,0.200009c-0.799988,0.39999 -1.5,1.1 -1.799988,1.89999c-0.099983,0.30002 -0.200012,0.70001 -0.200012,1.10001l0,0c0,0.39999 0.100044,0.70001 0.200012,1.1c0.299988,0.79999 0.799988,1.60001 1.700012,1.9c0.299988,0.1 0.700005,0.20001 1,0.20001l2.099976,0c0.600044,0 1.200012,0.19998 1.5,0.69998c0.200012,0.4 0.300049,0.80002 0.200012,1.30002c0,0.099979 -0.099968,0.19998 -0.099968,0.19998l-0.70002,2c-0.099976,0.30002 -0.099976,0.60001 -0.099976,0.80002c0,0.89999 0.399963,1.599979 1.099976,2.19998c0,0 0,0 0,0c0.099976,0.10001 0.20002,0.10001 0.299988,0.20001c0.5,0.29999 1.100037,0.5 1.700012,0.60001c0.299988,0 0.70002,0.099979 1,0c0.299988,-0.10001 0.599976,-0.20001 0.799988,-0.30002c0.299988,-0.19998 0.5,-0.39999 0.700012,-0.6c0.099976,-0.099979 0.200005,-0.199989 0.200005,-0.29999c0.099983,-0.20001 0.20002,-0.4 0.299995,-0.60001c0,0 0.599976,-2 0.599976,-2c0.100044,-0.39999 0.5,-0.89999 0.900024,-1.1c0,0 0,0 0,0c0.5,-0.29999 1.099976,-0.199989 1.599976,0.20001c0.100044,0 0.100044,0.1 0.200012,0.1l1.700012,1.199989c0.299988,0.20001 0.599976,0.300011 1,0.400021c0.20002,0 0.299988,0 0.5,0l0,0c0.599976,0.19998 1.20002,-0.10001 1.70002,-0.400021l0,0c0.099968,-0.099979 0.29998,-0.199989 0.399956,-0.29999c0.200012,-0.20001 0.300049,-0.29999 0.5,-0.5c0,0 0,0 0,-0.10001c0.300049,-0.29999 0.5,-0.69998 0.600044,-1.1c0,0 0,-0.099979 0,-0.099979c0.099968,-0.20001 0.099968,-0.400021 0.099968,-0.60001c0.200012,-0.70001 0.200012,-1 0.100037,-1.20001zm-22,5.70001c-0.600037,-0.5 -1.400024,-0.800011 -2.200005,-0.800011c-0.600044,0 -1.20002,0.20001 -1.799995,0.400021c-0.600037,0.29999 -1,0.79999 -1.300049,1.5l-2,6.299992c-0.199951,0.599998 -0.399956,1.200008 -0.5,1.89999c-0.199951,-0.699982 -0.399956,-1.299992 -0.599976,-1.89999l-2.299995,-6.299992c-0.29998,-0.60001 -0.700005,-1.20001 -1.200005,-1.5c-0.5,-0.30002 -1.099976,-0.5 -1.700012,-0.5c-0.899963,0 -1.599983,0.29999 -2.200012,0.69998c-0.599976,0.5 -1,1.20001 -1,2.10001c0,0.20001 0,0.29999 0.100044,0.5c0,0.20001 0.099968,0.39999 0.200005,0.6l5.699951,14.699987c-0.399956,1.300011 -0.799988,2.200016 -1.299988,2.800011c-0.399963,0.5 -0.899963,0.799995 -1.5,0.799995c-0.899963,0.100006 -1.700012,0.399994 -2.200012,0.899998c-0.5,0.499996 -0.799988,1.200008 -0.799988,1.900021c0,0.799992 0.299988,1.5 1,2.099979c0.600037,0.499996 1.400032,0.800007 2.299988,0.800007c1.5,0 2.800049,-0.300011 3.800049,-0.800007s1.899963,-1.299988 2.599976,-2.299988c0.70002,-1 1.299988,-2.10001 1.799988,-3.400005c0.5,-1.300007 1,-2.700005 1.5,-4.200005l4.600037,-13.399994c0.099983,-0.29999 0.199951,-0.5 0.199951,-0.9c-0.099976,-0.70001 -0.5,-1.39999 -1.199951,-2zm-36.300049,12.4c0.5,0 1,0.099998 1.5,0.099998c2.700012,0 4.700012,-0.599995 6,-1.599997c1.300053,-1.10001 1.900021,-2.700012 1.900021,-4.700012c0,-2.099979 -0.700008,-3.79999 -2,-5c-1.299988,-1.29999 -3.299988,-1.9 -6,-1.9c-1.400021,0 -2.599968,0.20001 -3.700008,0.5c-1.099979,0.4 -2,0.9 -2.700012,1.5c-0.699947,0.70001 -1.39996,1.4 -1.699947,2.30002c-0.400032,0.79999 -0.60004,1.79999 -0.60004,2.799992l0,6.299986c0,1 0.299988,2 0.60004,2.800011c0.39996,0.900002 1,1.600014 1.699947,2.299995c0.700012,0.600006 1.60004,1.10001 2.700012,1.5c1,0.399994 2.200008,0.5 3.5,0.5c0.60004,0 1.400021,-0.100006 2.200008,-0.199982c0.900032,-0.100014 1.700012,-0.300018 2.5,-0.5c0.799992,-0.300018 1.5,-0.600014 2.099979,-1.100014c0.700012,-0.5 1,-1.200005 1,-2.099995c0,-0.299992 -0.099979,-0.60001 -0.099979,-0.900005c-0.099968,-0.300011 -0.299988,-0.599998 -0.5,-0.899986c-0.200008,-0.300018 -0.5,-0.5 -0.900021,-0.700012c-0.39996,-0.200008 -0.799988,-0.299988 -1.39996,-0.299988c-0.400028,0 -0.70002,0 -0.900028,0.099979c-0.200012,0.100002 -0.39996,0.100002 -0.5,0.200008c-0.599972,0.299988 -1.099972,0.399994 -1.599972,0.599998c-0.5,0.100014 -1,0.199993 -1.5,0.199993c-0.900028,0 -1.5,-0.199993 -1.900028,-0.399998c-0.299992,-0.299995 -0.5,-0.600002 -0.5,-1.100006l0,-0.599976c0.299988,0.199982 0.5,0.199982 0.799988,0.299988zm-0.89996,-6.20001c0,-0.599979 0.200012,-1 0.5,-1.29999c0.39996,-0.29999 0.89996,-0.5 1.700012,-0.5c0.599968,0 1,0.1 1.299988,0.39999c0.200012,0.20001 0.39996,0.60001 0.39996,1.20001c0,0.60001 -0.099979,1 -0.39996,1.199989c-0.299988,0.200012 -0.799988,0.300011 -1.400028,0.300011c-0.200012,0 -0.5,0 -1,0c-0.299992,0 -0.799992,0 -1.099972,-0.099998l0,-1.200012zm19.099972,9.300009c-0.299988,-0.300007 -0.299988,-0.399986 -0.399963,-0.399986c0,-0.100014 -0.100037,-0.200008 -0.100037,-0.700012l0,-20.20001c0,-0.79999 -0.299988,-1.5 -0.899963,-2.099979c-0.600037,-0.5 -1.400024,-0.80002 -2.200005,-0.80002c-0.900032,0 -1.700024,0.30002 -2.299992,0.80002c-0.60004,0.599979 -1,1.29999 -1,2.099979l0,20.600004c0,1.10001 0.199947,1.899994 0.5,2.600006c0.299988,0.700012 0.599968,1.200012 1.099968,1.599998s0.900028,0.600014 1.500004,0.699989c0.5,0.100006 0.900024,0.100006 1.299988,0.100006c1,0 1.799988,-0.199982 2.400032,-0.600002c0.700005,-0.399998 1,-1.099979 1,-2c0,-0.500004 -0.100044,-0.899998 -0.299995,-1.099979c-0.200005,-0.200008 -0.300049,-0.400024 -0.600037,-0.600014z" fill="#F57C00" id="lively_logo"/>
 </g>
</svg>