<?xml version="1.0"?>
<svg width="48" height="48" xmlns="http://www.w3.org/2000/svg" xmlns:svg="http://www.w3.org/2000/svg">
 <style type="text/css">
	.st2{fill:#FFFFFF;}
 </style>
 <g>
  <path id="svg_6" d="m24,37.599998c7.000002,0 12.699997,-5.699999 12.699997,-12.699999c0,-0.9 -0.699997,-1.599998 -1.599998,-1.599998c-0.900002,0 -1.599998,0.699999 -1.599998,1.599998c0,5.300001 -4.300001,9.6 -9.6,9.6c-5.300001,0 -9.6,-4.299999 -9.6,-9.6c0,-4.9 3.9,-9.099998 8.799999,-9.599998l2.200001,-0.200001l-3,3c-0.299999,0.299999 -0.5,0.700001 -0.5,1.1s0.200001,0.799999 0.5,1.1c0.6,0.599998 1.6,0.599998 2.200001,0l5.4,-5.400002c0.299999,-0.299999 0.5,-0.699999 0.5,-1.099999c0,-0.4 -0.200001,-0.8 -0.5,-1.099999l-5.299999,-5.3c-0.299999,-0.3 -0.700001,-0.5 -1.1,-0.5c-0.4,0 -0.799999,0.2 -1.1,0.5c-0.299999,0.3 -0.5,0.7 -0.5,1.099999c0,0.400001 0.200001,0.8 0.5,1.1l2.400002,2.4l-1.800001,0.1c-6.6,0.5 -11.799999,6.1 -11.799999,12.700001c0,7.099998 5.699999,12.799997 12.799999,12.799997z" class="st2"/>
 </g>
</svg>