<?xml version="1.0"?>
<svg width="48" height="48" xmlns="http://www.w3.org/2000/svg" xmlns:svg="http://www.w3.org/2000/svg">
 <style type="text/css">
	.st9{fill:#FFFFFF;stroke:#FFFFFF;stroke-width:1.5;stroke-miterlimit:10;}
	.st10{fill:#FFFFFF;stroke:#FFFFFF;stroke-miterlimit:10;}
 </style>
 <g>
  <g id="save_icon">
   <path id="svg_5" d="m33.699997,10.399999l-19.599997,0c-1.6,0 -2.9,1.3 -2.9,2.900001l0,21.200001c0,1.599998 1.299999,2.900002 2.9,2.900002l19.599997,0c1.600006,0 2.900002,-1.300003 2.900002,-2.900002l0,-21.200001c0,-1.6 -1.299995,-2.900001 -2.900002,-2.900001l0,0zm-4.299997,1.400001l0,9.300001l-11.099998,0l0,-9.300001l11.099998,0zm-11.199999,24.200001l0,-5.000002l10.9,0l0,5.000002l-10.9,0zm16.899998,-1.5c0,0.799999 -0.699997,1.5 -1.5,1.5l-3.099998,0l0,-5.700003c0,-0.4 -0.299999,-0.699999 -0.699999,-0.699999l-12.300001,0c-0.4,0 -0.699999,0.299999 -0.699999,0.699999l0,5.700003l-2.700001,0c-0.8,0 -1.5,-0.700001 -1.5,-1.5l0,-21.200001c0,-0.8 0.7,-1.5 1.5,-1.5l2.799999,0l0,10c0,0.4 0.300001,0.699999 0.700001,0.699999l12.5,0c0.4,0 0.700001,-0.299999 0.700001,-0.699999l0,-10l2.799997,0c0.800003,0 1.5,0.7 1.5,1.5l0,21.200001zm0,0" class="st9"/>
   <path id="svg_6" d="m21.700001,17.299999l4.300001,0c0.199999,0 0.4,-0.300001 0.4,-0.700001c0,-0.4 -0.200001,-0.699999 -0.4,-0.699999l-4.300001,0c-0.200001,0 -0.4,0.299999 -0.4,0.699999c0,0.4 0.199999,0.700001 0.4,0.700001l0,0zm0,0" class="st10"/>
  </g>
 </g>
</svg>