<?xml version="1.0"?>
<svg width="47.99999999999999" height="47.99999999999999" xmlns="http://www.w3.org/2000/svg" xmlns:svg="http://www.w3.org/2000/svg">
 <style type="text/css">
	.st2{fill:#FFFFFF;}
 </style>
 <g>
   <path id="svg_5" d="m23.999998,25.300001c-3.9,0 -13.2,2.200001 -13.2,7.599997l0,0c0.599999,3.700001 8.100001,7.800007 13.2,7.800007c5.199999,0 12.6,-3.900002 13.199999,-7.800007l0,0c0,-5.399998 -9.399998,-7.599997 -13.199999,-7.599997zm0,12.399996c-4,0 -9.5,-2.799999 -10.2,-5.199997c0.599999,-2.300001 6.499999,-4.200001 10.2,-4.200001c3.6,0 9.500002,1.9 10.199999,4.200001c-0.299999,2.500004 -6.299997,5.199997 -10.199999,5.199997z" class="st2"/>
   <path id="svg_6" d="m23.999998,7.8c-4.1,0 -7.4,3.2 -7.4,7.400001c0,4.1 3.199999,7.4 7.4,7.4c4.1,0 7.400002,-3.200001 7.400002,-7.4c-0.100002,-4.1 -3.300001,-7.400001 -7.400002,-7.400001zm0,11.8c-2.5,0 -4.4,-1.9 -4.4,-4.4c0,-2.5 1.9,-4.400001 4.4,-4.400001c2.5,0 4.4,1.900001 4.4,4.400001c-0.099998,2.5 -1.999998,4.4 -4.4,4.4z" class="st2"/>
 </g>
</svg>