<?xml version="1.0"?>
<svg width="48" height="48" xmlns="http://www.w3.org/2000/svg" xmlns:svg="http://www.w3.org/2000/svg">
 <style type="text/css">
	.st2{fill:#FFFFFF;}
 </style>
 <g>
  <path id="svg_7" d="m23.9,38.899998c7,0 12.699999,-5.700001 12.699999,-12.699999c0,-6.6 -5.199999,-12.200001 -11.799999,-12.700001l-1.799999,-0.099999l2.4,-2.400001c0.6,-0.599999 0.6,-1.599999 0,-2.2c-0.6,-0.6 -1.6,-0.6 -2.200001,0l-5.299999,5.300001c-0.299999,0.3 -0.5,0.7 -0.5,1.099999c0,0.4 0.200001,0.800001 0.5,1.1l5.4,5.4c0.6,0.6 1.6,0.6 2.200001,0c0.299999,-0.299999 0.5,-0.699999 0.5,-1.1c0,-0.4 -0.200001,-0.799999 -0.5,-1.099998l-3,-3l2.199999,0.199999c4.900002,0.4 8.800001,4.6 8.800001,9.600002c0,5.299997 -4.300001,9.6 -9.6,9.6c-5.299999,0 -9.6,-4.300003 -9.6,-9.6c0,-0.900002 -0.7,-1.6 -1.599999,-1.6c-0.900001,0 -1.6,0.699999 -1.6,1.6c0.1,6.9 5.8,12.599997 12.8,12.599997z" class="st2"/>
 </g>
</svg>