<?xml version="1.0" encoding="utf-8"?>
<!-- Generator: Adobe Illustrator 19.1.0, SVG Export Plug-In . SVG Version: 6.00 Build 0)  -->
<svg version="1.1" id="Layer_1" xmlns="http://www.w3.org/2000/svg" xmlns:xlink="http://www.w3.org/1999/xlink" x="0px" y="0px"
	 viewBox="0 0 1280 797.8" style="enable-background:new 0 0 1280 797.8;" xml:space="preserve">
<style type="text/css">
	.st0{fill:#4D4D4D;}
	.st1{fill:#FFFCF9;}
	.st2{fill:#58595B;}
	.st3{fill:#58595B;stroke:#58595B;stroke-width:0.5;stroke-miterlimit:10;}
	.st4{fill:none;}
	.st5{fill:#F57C00;}
	.st6{fill:none;stroke:#D1D3D4;stroke-width:3;stroke-miterlimit:10;}
	.st7{fill:#E6E7E8;}
	.st8{fill:#D1D3D4;}
	.st9{fill:#FFFAF5;stroke:#D1D3D4;stroke-width:3;stroke-miterlimit:10;}
	.st10{opacity:0.3;fill:#FDE5CC;}
	.st11{fill:#FFFFFF;}
	.st12{opacity:0.2;fill:#FFFFFF;}
	.st13{opacity:0.3;fill:#FFFFFF;}
	.st14{fill:none;stroke:#F57C00;stroke-width:3;stroke-miterlimit:10;}
	.st15{fill:#A7A9AC;}
	.st16{fill:#F5844E;}
	.st17{fill:#85D866;}
	.st18{fill:#7DCCED;}
	.st19{fill:#808285;}
	.st20{opacity:0.4;fill:#E7F7E0;}
	.st21{fill:#B6E8A3;}
	.st22{fill-rule:evenodd;clip-rule:evenodd;stroke:#FFFFFF;stroke-miterlimit:10;}
	.st23{fill:#FFFFFF;stroke:#FFFFFF;stroke-miterlimit:10;}
	.st24{opacity:0.8;fill:#FFFCF9;}
	.st25{opacity:0.5;}
	.st26{fill:#E7F7E0;}
	.st27{fill:#F1F2F2;}
	.st28{clip-path:url(#SVGID_20_);}
	.st29{fill:#FEFEFE;}
	.st30{fill:#FDFDFD;}
	.st31{fill:#030303;}
	.st32{fill:#EFEFEF;}
	.st33{fill:#040404;}
	.st34{fill:#050505;}
	.st35{fill:#070707;}
	.st36{fill:#020202;}
	.st37{fill:#010101;}
	.st38{fill:#FBFBFB;}
	.st39{fill:#F7F7F7;}
	.st40{fill:#D0AE89;}
	.st41{fill-rule:evenodd;clip-rule:evenodd;fill:none;}
	.st42{font-family:'BloggerSans-Medium';}
	.st43{font-size:18.6116px;}
	.st44{font-family:'BloggerSans-Bold';}
	.st45{font-size:17.1799px;}
	.st46{font-size:15.0324px;}
	.st47{font-family:'BloggerSans';}
	.st48{font-size:46.5289px;}
	.st49{font-size:10px;}
	.st50{letter-spacing:1;}
	.st51{opacity:0.6;}
	.st52{fill:#E5F5FB;}
	.st53{fill:#B1E0F4;}
	.st54{font-family:'FZY3JW--GB1-0';}
	.st55{font-size:19.3643px;}
	.st56{opacity:0.2;fill:#B1E0F4;}
	.st57{font-size:14px;}
</style>
<rect x="0" y="0" class="st0" width="1280" height="800"/>
<rect x="0" y="0" class="st1" width="1280" height="797.8"/>
<circle class="st10" cx="592.7" cy="430.7" r="109.4"/>
<g>
	<rect x="1001.2" y="73.2" class="st41" width="90.9" height="32.9"/>
	<text transform="matrix(1 0 0 1 1019.84 86.6618)" class="st2 st42 st43">ABOUT</text>
	<rect x="884.7" y="73.2" class="st41" width="121.7" height="32.9"/>
	<text transform="matrix(1 0 0 1 901.5421 86.6618)" class="st2 st42 st43">TUTORIALS</text>
	<rect x="770.2" y="73.2" class="st41" width="121.7" height="32.9"/>
	<text transform="matrix(1 0 0 1 795.9327 86.6618)" class="st2 st42 st43">GALLERY</text>
	<rect x="662.8" y="73.2" class="st41" width="117.1" height="32.9"/>
	<text transform="matrix(1 0 0 1 689.9044 86.6433)" class="st3 st44 st43">CREATE</text>
	<g>
		<rect x="1123.2" y="73.2" class="st4" width="117.1" height="32.9"/>
		<text transform="matrix(1 0 0 1 1157.5031 85.6267)" class="st2 st42 st45">Camila</text>
	</g>
	<g>
		<circle class="st4" cx="807.8" cy="80.1" r="2.9"/>
		<circle class="st4" cx="926.7" cy="80.1" r="2.9"/>
		<circle class="st4" cx="1141.3" cy="80.1" r="2.9"/>
	</g>
</g>
<path class="st5" d="M94.4,54c-1.1-1-2.5-1.5-4.1-1.5s-3,0.5-4.1,1.5c-1.1,1-1.7,2.3-1.7,3.8c0,1.5,0.6,2.8,1.7,3.8
	c1.1,1,2.5,1.5,4.1,1.5s3-0.5,4.1-1.5c1.1-1,1.7-2.3,1.7-3.8C96.2,56.4,95.6,55.1,94.4,54z M94.1,66.6c-1-0.9-2.3-1.4-3.7-1.4
	c-1.5,0-2.4,0.5-3.4,1.4c-1,0.9-1.3,2.1-1.3,3.4v24.6c0,1.4,0.2,2.5,1.3,3.5c1,0.9,2.1,1.4,3.6,1.4c1.5,0,2.6-0.5,3.7-1.4
	c1-0.9,1.5-2.1,1.5-3.5V70C95.7,68.7,95.1,67.6,94.1,66.6z M127.7,70c0-1.4-0.6-2.6-1.7-3.5c-1-0.8-2.3-1.2-3.6-1.2
	c-1,0-2,0.3-3,0.9c-1,0.6-1.7,1.4-2.1,2.5l-3.3,10.5c-0.5,1.6-0.8,3.2-1.1,4.8c-0.3-1.6-0.7-3.2-1.2-4.8l-3.4-10.5
	c-0.4-1-1-1.9-2-2.5c-0.9-0.6-1.9-0.9-2.9-0.9c-1.4,0-2.3,0.4-3.4,1.2c-1.1,0.9-1.4,2.1-1.4,3.5v0.5c0,0.3-0.2,0.6,0,0.9l8.6,23.9
	c0.5,1.5,1.2,2.6,2.1,3.3c0.9,0.7,2.2,1.1,3.8,1.1c1.6,0,2.8-0.4,3.7-1.1c0.9-0.7,1.6-1.8,2.1-3.3l8.6-23.7c0.1-0.3,0.2-0.6,0.2-0.9
	V70z M201.7,66.5c-1.1-0.8-2.3-1.3-3.6-1.3c-1,0-2,0.2-2.9,0.7c-1,0.5-1.7,1.4-2.1,2.6L189.8,79c-0.3,1-0.6,2.1-0.9,3.2
	c-0.3-1.1-0.6-2.2-1-3.2L184,68.5c-0.4-1.1-1.1-1.9-2-2.5c-0.9-0.5-1.8-0.8-2.9-0.8c-1.4,0-2.7,0.4-3.7,1.3c-1.1,0.9-1.6,2-1.6,3.4
	c0,0.3,0,0.6,0.1,0.8c0.1,0.3,0.1,0.7,0.3,1.1l9.5,24.5c-0.7,2.2-1.4,3.7-2.1,4.6c-0.6,0.8-1.5,1.3-2.6,1.3
	c-1.5,0.1-2.8,0.6-3.7,1.5c-0.9,0.9-1.4,2-1.4,3.2c0,1.4,0.5,2.5,1.6,3.4c1,0.9,2.3,1.3,3.8,1.3c2.5,0,4.7-0.5,6.4-1.4
	c1.7-0.9,3.1-2.2,4.3-3.9c1.1-1.6,2.2-3.5,3-5.7c0.8-2.1,1.7-4.5,2.5-7l7.6-22.2c0.2-0.4,0.3-0.9,0.3-1.5
	C203.5,68.6,202.9,67.4,201.7,66.5z M78.6,92.3c-0.5-0.5-0.2-0.7-0.2-0.7c0-0.1,0.3-0.4,0.3-1.2V56.8c0-1.4-0.9-2.5-1.9-3.5
	c-1-0.9-2.5-1.4-3.9-1.4c-1.5,0-2.6,0.5-3.7,1.4c-1,1-1.5,2.1-1.5,3.4v34.3c0,1.8,0,3.2,0.5,4.3c0.5,1.1,0.9,2,1.6,2.6
	c0.7,0.6,1.5,1,2.4,1.2c0.8,0.2,1.5,0.2,2.2,0.2c1.7,0,3-0.3,4-1c1.1-0.7,1.7-1.9,1.7-3.4c0-0.8-0.2-1.4-0.5-1.9
	C79.2,93,78.9,92.6,78.6,92.3z M171.6,92.3c-0.5-0.5-0.2-0.7-0.2-0.7c0-0.1,0.3-0.4,0.3-1.2V56.8c0-1.4-0.9-2.5-1.9-3.5
	c-1-0.9-2.4-1.4-3.9-1.4c-1.5,0-2.7,0.5-3.7,1.4c-1,1-1.5,2.1-1.5,3.4v34.3c0,1.8,0.1,3.2,0.5,4.3c0.5,1.1,1,2,1.7,2.6
	c0.7,0.6,1.5,1,2.4,1.2c0.8,0.2,1.5,0.2,2.2,0.2c1.7,0,3-0.3,4-1c1.1-0.7,1.7-1.9,1.7-3.4c0-0.8-0.2-1.4-0.5-1.9
	C172.3,93,172,92.6,171.6,92.3z M141.7,87c0.8,0.1,1.4,0.1,2.2,0.1c4.5,0,7.7-0.9,9.8-2.7c2.1-1.9,3.2-4.5,3.2-7.7
	c0-3.4-1.1-6.3-3.4-8.4c-2.2-2.1-5.5-3.2-9.9-3.2c-2.3,0-4.3,0.3-6.1,0.9c-1.8,0.6-3.3,1.5-4.5,2.5c-1.2,1.1-2,2.4-2.6,3.9
	c-0.6,1.5-0.7,3.1-0.7,4.8v10.4c0,1.7,0.1,3.3,0.8,4.7c0.6,1.5,1.5,2.7,2.7,3.8c1.2,1.1,2.6,1.9,4.3,2.5c1.7,0.6,3.6,0.9,5.8,0.9
	c1,0,2.3-0.1,3.7-0.3c1.4-0.2,2.8-0.5,4.1-0.9c1.4-0.5,2.5-1.1,3.5-1.9c1.1-0.9,1.7-2.1,1.7-3.5c0-0.5-0.1-1-0.2-1.5
	c-0.2-0.5-0.4-1-0.8-1.4c-0.4-0.4-0.9-0.8-1.5-1.1c-0.6-0.3-1.4-0.4-2.3-0.4c-0.6,0-1.1,0.1-1.5,0.2c-0.4,0.1-0.6,0.2-0.8,0.3
	c-0.9,0.4-1.8,0.7-2.6,0.9c-0.8,0.2-1.6,0.3-2.6,0.3c-1.5,0-2.2-0.2-2.8-0.7c-0.6-0.4-0.4-1-0.4-1.8v-0.9
	C140.7,87,141.2,87,141.7,87z M140.7,76.8c0-1-0.1-1.7,0.5-2.2c0.6-0.6,1.3-0.8,2.6-0.8c1,0,1.6,0.2,2,0.6c0.4,0.3,0.6,1,0.6,1.9
	c0,1-0.2,1.6-0.6,2c-0.5,0.4-1.3,0.6-2.3,0.6c-0.3,0-0.5,0-1.3-0.1c-0.6,0-1.4-0.1-1.4-0.1V76.8z M238.3,56.9c0,0,0.2-0.1,0.2-0.1
	c0,0,0.2,0,0.2-0.1v0c0-0.5-0.6-1-1-1.5c-0.2-0.3-0.6-0.6-0.9-0.9c0,0-0.1,0-0.1-0.1l-2.6-1.8c-0.2-0.1-0.3-0.2-0.5-0.4
	c-0.6-0.6-1.1-1.3-1.1-2.1c0-0.8,0.5-1.5,1.1-2.1c0.2-0.1,0.3-0.2,0.5-0.4l2.6-1.8c0,0,0,0,0.1-0.1c0.3-0.2,0.8-0.6,1.1-0.9
	c0.4-0.5,1-1,1-1.5v0c0-0.5,0-1-0.1-1.5c-0.1-1-0.5-2-1.1-2.8c-0.2-0.4-0.6-0.7-0.9-1.1c0,0,0,0,0,0c-0.3-0.3-0.6-0.5-0.9-0.7
	c0,0,0,0,0,0c-1-0.7-2.4-1-3.6-0.7c0,0,0,0-0.1,0c0,0,0,0-0.1,0c-0.5,0.1-1.1,0.3-1.5,0.7c0,0-2.8,2-2.8,2c-0.1,0.1-0.2,0.1-0.3,0.2
	c-0.8,0.4-1.8,0.7-2.6,0.3c-0.6-0.3-1.2-1-1.4-1.6c-0.4-1.2-0.7-2.3-1.1-3.5c-0.1-0.4-0.3-0.7-0.5-1c-0.1-0.2-0.3-0.4-0.4-0.6
	c-0.3-0.4-0.7-0.7-1.1-1c-0.4-0.2-0.9-0.4-1.3-0.5c-0.2,0-0.6,0-0.9,0c-0.3,0-0.6,0-0.8,0.1c-0.4,0-0.9,0.1-1.4,0.3c0,0-0.1,0-0.1,0
	c0,0,0,0,0,0c-0.7,0.2-1.3,0.6-1.9,1c0,0,0,0,0,0c-1.1,0.9-1.8,2.1-1.8,3.6c0,0.5,0,0.9,0.2,1.4l1.1,3.3c0,0.1,0.1,0.3,0.1,0.4
	c0.1,0.7,0.1,1.5-0.3,2.1c-0.5,0.8-1.6,1.1-2.5,1.1l-3.5,0c-0.6,0-1.1,0.1-1.7,0.3c-1.4,0.6-1.8,1.8-2.2,3.2
	c-0.2,0.6,0.4,1.2,0.4,1.8v0c0,0.6-0.5,1.2-0.4,1.8c0.5,1.4,1,2.6,2.5,3.2c0.5,0.2,0.9,0.3,1.5,0.3l3.4,0c0.9,0,1.9,0.3,2.5,1.1
	c0.3,0.6,0.4,1.4,0.3,2.1c0,0.1-0.1,0.3-0.1,0.4l-1.1,3.3c-0.1,0.5-0.2,0.9-0.2,1.4c0,1.5,0.7,2.7,1.8,3.6c0,0,0,0,0,0
	c0.2,0.1,0.3,0.2,0.5,0.3c0.9,0.6,1.9,0.9,2.9,1c0.5,0.1,1.2,0.1,1.7,0c0.5-0.1,0.9-0.3,1.3-0.5c0.4-0.3,0.8-0.6,1.1-1
	c0.1-0.2,0.3-0.4,0.4-0.6c0.2-0.3,0.4-0.6,0.5-1c0,0,1-3.3,1-3.3c0.2-0.7,0.8-1.4,1.4-1.8c0,0,0,0,0,0c0.8-0.4,1.9-0.3,2.6,0.3
	c0.1,0.1,0.2,0.1,0.3,0.2l2.8,2c0.5,0.4,1.1,0.9,1.6,1.1c0.3,0,0.5,0.5,0.8,0.5h0c0.9,0,2-0.6,2.8-1.2c0,0,0-0.2,0-0.2
	c0.2-0.1,0.4-0.4,0.6-0.6c0.3-0.2,0.6-0.6,0.8-0.9c0,0,0-0.1,0.1-0.1c0.4-0.6,0.9-1.2,1-1.9c0-0.1,0-0.2,0.1-0.2
	c0.1-0.3,0.2-0.7,0.2-1C238.4,57.9,238.4,57.4,238.3,56.9z"/>
<circle class="st6" cx="125.6" cy="220.6" r="14.1"/>
<circle class="st6" cx="125.6" cy="220.6" r="14.1"/>
<g>
	<rect x="152.6" y="215.5" class="st4" width="99.5" height="32.9"/>
	<text transform="matrix(1 0 0 1 152.6227 226.3569)" class="st7 st42 st46">Groups</text>
</g>
<circle class="st6" cx="125.6" cy="178.7" r="14.1"/>
<g>
	<rect x="152.6" y="173.6" class="st4" width="99.5" height="32.9"/>
	<text transform="matrix(1 0 0 1 152.6227 184.4188)" class="st7 st42 st46">Projects</text>
</g>
<g>
	<g>
		<g>
			<circle class="st6" cx="1198.4" cy="180.4" r="14.1"/>
			<path class="st8" d="M1196.8,181.8c0.1,0.2,0.2,0.4,0.2,0.6v6.4c0,0.4,0.5,0.6,0.7,0.3l1.8-2c0.2-0.3,0.4-0.4,0.4-0.7v-4
				c0-0.2,0.1-0.4,0.2-0.6l5.1-5.6c0.4-0.4,0.1-1.1-0.5-1.1h-12.6c-0.6,0-0.9,0.7-0.5,1.1L1196.8,181.8z M1196.8,181.8"/>
		</g>
		<g>
			<path class="st9" d="M1159.4,194.5H936.9c-7.8,0-14.1-6.3-14.1-14.1v0c0-7.8,6.3-14.1,14.1-14.1h222.5c7.8,0,14.1,6.3,14.1,14.1
				v0C1173.5,188.2,1167.2,194.5,1159.4,194.5z"/>
			<g>
				<path class="st8" d="M949,188.1c0.5,0.5,0.5,1.2,0,1.7c-0.5,0.4-1.3,0.4-1.7,0l-4.8-4.8c-1.2,0.9-2.7,1.4-4.2,1.4
					c-4.1,0-7.4-3.3-7.4-7.4c0-4.1,3.3-7.4,7.4-7.4c4.1,0,7.4,3.3,7.4,7.4c0,1.6-0.5,3-1.4,4.2L949,188.1L949,188.1z M938.2,184.6
					c3.1,0,5.6-2.5,5.6-5.6c0-3.1-2.5-5.6-5.6-5.6c-3.1,0-5.6,2.5-5.6,5.6C932.6,182.1,935.1,184.6,938.2,184.6L938.2,184.6z
					 M938.2,184.6"/>
			</g>
		</g>
	</g>
</g>
<circle class="st5" cx="125.6" cy="220.6" r="6.5"/>
<g>
	
		<image style="overflow:visible;opacity:0.1;" width="225" height="225" xlink:href="302C8D0131E1C294.png"  transform="matrix(0.24 0 0 0.24 496.0407 481.8379)">
	</image>
	<g>
		<circle class="st40" cx="521" cy="506.8" r="24"/>
	</g>
</g>
<g>
	<g>
		
			<image style="overflow:visible;opacity:0.1;" width="339" height="339" xlink:href="302C8D0131E1C295.png"  transform="matrix(0.24 0 0 0.24 553.2772 387.2144)">
		</image>
		<g>
			<g>
				<g>
					<g>
						<defs>
							<circle id="SVGID_27_" cx="591.9" cy="425.9" r="33.9"/>
						</defs>
						<clipPath id="SVGID_2_">
							<use xlink:href="#SVGID_27_"  style="overflow:visible;"/>
						</clipPath>
					</g>
				</g>
			</g>
			<g>
				<g>
					<circle class="st11" cx="591.9" cy="425.8" r="37.6"/>
					<g>
						<defs>
							<circle id="SVGID_29_" cx="591.9" cy="425.9" r="33.9"/>
						</defs>
						<clipPath id="SVGID_4_">
							<use xlink:href="#SVGID_29_"  style="overflow:visible;"/>
						</clipPath>
						<g style="clip-path:url(#SVGID_4_);">
							
								<image style="overflow:visible;" width="384" height="384" xlink:href="302C8D0131E1C293.png"  transform="matrix(0.1764 0 0 0.1764 558.0501 392.0542)">
							</image>
						</g>
					</g>
				</g>
				<circle class="st12" cx="591.9" cy="425.8" r="37.6"/>
			</g>
			<g>
				<g>
					<g>
						<defs>
							<circle id="SVGID_31_" cx="591.9" cy="425.9" r="33.9"/>
						</defs>
						<clipPath id="SVGID_6_">
							<use xlink:href="#SVGID_31_"  style="overflow:visible;"/>
						</clipPath>
					</g>
				</g>
			</g>
		</g>
	</g>
	<circle class="st13" cx="591.9" cy="426.2" r="34.4"/>
</g>
<rect x="252.1" y="66.8" class="st4" width="286.3" height="50.1"/>
<text transform="matrix(1 0 0 1 252.1231 100.4963)" class="st8 st47 st48">MyWorld</text>
<path class="st14" d="M1213.2,94.9h-60.6c-6.9,0-12.5-5.6-12.5-12.5v-6c0-6.9,5.6-12.5,12.5-12.5h60.6c6.9,0,12.5,5.6,12.5,12.5v6
	C1225.7,89.3,1220.1,94.9,1213.2,94.9z"/>
<rect x="485.5" y="497.9" class="st4" width="71" height="25.1"/>
<text transform="matrix(1 0 0 1 514.8068 505.1623)"><tspan x="0" y="0" class="st11 st42 st49 st50">UX</tspan><tspan x="-6.7" y="10.8" class="st11 st42 st49 st50">Class</tspan></text>
<rect x="343.1" y="273.3" class="st24" width="487.9" height="308"/>
<g class="st51">
	
		<image style="overflow:visible;opacity:0.1;" width="879" height="879" xlink:href="302C8D0131E1C29C.png"  transform="matrix(0.24 0 0 0.24 576.1325 267.9185)">
	</image>
	<g>
		<circle class="st52" cx="679.6" cy="371.3" r="87.4"/>
	</g>
</g>
<g>
	<g>
		
			<image style="overflow:visible;opacity:0.1;" width="260" height="260" xlink:href="302C8D0131E1C29F.png"  transform="matrix(0.24 0 0 0.24 714.5899 401.5682)">
		</image>
		<g>
			<circle class="st53" cx="743.7" cy="430.7" r="22.1"/>
		</g>
	</g>
	<g>
		<rect x="723.1" y="423.9" class="st4" width="41.3" height="28.5"/>
		<text transform="matrix(1 0 0 1 738.7614 439.39)" class="st11 st54 st55 st50">L</text>
	</g>
</g>
<g>
	<g>
		
			<image style="overflow:visible;opacity:0.1;" width="278" height="278" xlink:href="302C8D0131E1C29D.png"  transform="matrix(0.24 0 0 0.24 726.339 298.5682)">
		</image>
		<g>
			<g>
				<g>
					<g>
						<g>
							<defs>
								<circle id="SVGID_33_" cx="757.6" cy="329.9" r="21.9"/>
							</defs>
							<clipPath id="SVGID_8_">
								<use xlink:href="#SVGID_33_"  style="overflow:visible;"/>
							</clipPath>
						</g>
					</g>
				</g>
			</g>
			<g>
				<g>
					<circle class="st53" cx="757.6" cy="329.9" r="24.3"/>
					<g>
						<circle class="st53" cx="757.6" cy="329.9" r="21.9"/>
						<g>
							<defs>
								<circle id="SVGID_35_" cx="757.6" cy="329.9" r="21.9"/>
							</defs>
							<use xlink:href="#SVGID_35_"  style="overflow:visible;fill:#B1E0F4;"/>
							<clipPath id="SVGID_10_">
								<use xlink:href="#SVGID_35_"  style="overflow:visible;"/>
							</clipPath>
						</g>
					</g>
				</g>
				<circle class="st56" cx="757.6" cy="329.9" r="24.3"/>
			</g>
			<g>
				<g>
					<g>
						<g>
							<defs>
								<circle id="SVGID_37_" cx="757.6" cy="329.9" r="21.9"/>
							</defs>
							<clipPath id="SVGID_12_">
								<use xlink:href="#SVGID_37_"  style="overflow:visible;"/>
							</clipPath>
						</g>
					</g>
				</g>
			</g>
		</g>
	</g>
	<g>
		<rect x="737" y="321.9" class="st4" width="41.3" height="28.5"/>
		<text transform="matrix(1 0 0 1 750.8282 337.4198)" class="st11 st54 st55 st50">H</text>
	</g>
</g>
<g>
	<g>
		
			<image style="overflow:visible;opacity:0.1;" width="278" height="278" xlink:href="302C8D0131E1C292.png"  transform="matrix(0.24 0 0 0.24 566.7957 306.0438)">
		</image>
		<g>
			<g>
				<g>
					<g>
						<g>
							<defs>
								<circle id="SVGID_39_" cx="598.1" cy="337.4" r="21.9"/>
							</defs>
							<clipPath id="SVGID_14_">
								<use xlink:href="#SVGID_39_"  style="overflow:visible;"/>
							</clipPath>
						</g>
					</g>
				</g>
			</g>
			<g>
				<g>
					<circle class="st53" cx="598.1" cy="337.3" r="24.3"/>
					<g>
						<circle class="st53" cx="598.1" cy="337.4" r="21.9"/>
						<g>
							<defs>
								<circle id="SVGID_41_" cx="598.1" cy="337.4" r="21.9"/>
							</defs>
							<use xlink:href="#SVGID_41_"  style="overflow:visible;fill:#B1E0F4;"/>
							<clipPath id="SVGID_16_">
								<use xlink:href="#SVGID_41_"  style="overflow:visible;"/>
							</clipPath>
						</g>
					</g>
				</g>
				<circle class="st56" cx="598.1" cy="337.3" r="24.3"/>
			</g>
			<g>
				<g>
					<g>
						<g>
							<defs>
								<circle id="SVGID_43_" cx="598.1" cy="337.4" r="21.9"/>
							</defs>
							<clipPath id="SVGID_18_">
								<use xlink:href="#SVGID_43_"  style="overflow:visible;"/>
							</clipPath>
						</g>
					</g>
				</g>
			</g>
		</g>
	</g>
	<g>
		<rect x="577.4" y="329.4" class="st4" width="41.3" height="28.5"/>
		<text transform="matrix(1 0 0 1 589.6586 344.8954)" class="st11 st54 st55 st50">M</text>
	</g>
</g>
<g>
	<g>
		
			<image style="overflow:visible;opacity:0.1;" width="278" height="278" xlink:href="302C8D0131E1C296.png"  transform="matrix(0.24 0 0 0.24 648.2596 246.1766)">
		</image>
		<g>
			<g>
				<g>
					<g>
						<g>
							<defs>
								<circle id="SVGID_45_" cx="679.6" cy="277.5" r="21.9"/>
							</defs>
							<clipPath id="SVGID_20_">
								<use xlink:href="#SVGID_45_"  style="overflow:visible;"/>
							</clipPath>
						</g>
					</g>
				</g>
			</g>
			<g>
				<g>
					<circle class="st53" cx="679.6" cy="277.5" r="24.3"/>
					<g>
						<circle class="st53" cx="679.6" cy="277.5" r="21.9"/>
						<g>
							<defs>
								<circle id="SVGID_47_" cx="679.6" cy="277.5" r="21.9"/>
							</defs>
							<use xlink:href="#SVGID_47_"  style="overflow:visible;fill:#B1E0F4;"/>
							<clipPath id="SVGID_22_">
								<use xlink:href="#SVGID_47_"  style="overflow:visible;"/>
							</clipPath>
						</g>
					</g>
				</g>
				<circle class="st56" cx="679.6" cy="277.5" r="24.3"/>
			</g>
			<g>
				<g>
					<g>
						<g>
							<defs>
								<circle id="SVGID_49_" cx="679.6" cy="277.5" r="21.9"/>
							</defs>
							<clipPath id="SVGID_24_">
								<use xlink:href="#SVGID_49_"  style="overflow:visible;"/>
							</clipPath>
						</g>
					</g>
				</g>
			</g>
		</g>
	</g>
	<g>
		<rect x="658.9" y="269.5" class="st4" width="41.3" height="28.5"/>
		<text transform="matrix(1 0 0 1 673.1556 285.0283)" class="st11 st54 st55 st50">A</text>
	</g>
</g>
<g>
	<g>
		
			<image style="overflow:visible;opacity:0.1;" width="228" height="228" xlink:href="302C8D0131E1C297.png"  transform="matrix(0.24 0 0 0.24 625.308 429.716)">
		</image>
		<g>
			<g>
				<g>
					<g>
						<defs>
							<circle id="SVGID_51_" cx="650.6" cy="455.1" r="21.9"/>
						</defs>
						<clipPath id="SVGID_26_">
							<use xlink:href="#SVGID_51_"  style="overflow:visible;"/>
						</clipPath>
					</g>
				</g>
			</g>
			<g>
				<g>
					<circle class="st11" cx="650.6" cy="455" r="24.3"/>
					<g>
						<defs>
							<circle id="SVGID_53_" cx="650.6" cy="455.1" r="21.9"/>
						</defs>
						<clipPath id="SVGID_28_">
							<use xlink:href="#SVGID_53_"  style="overflow:visible;"/>
						</clipPath>
						<g transform="matrix(1 0 0 1 0 0)" style="clip-path:url(#SVGID_28_);">
							
								<image style="overflow:visible;" width="384" height="386" xlink:href="F670612C35A11FB3.png"  transform="matrix(0.1133 0 0 0.1133 628.857 433.1949)">
							</image>
						</g>
					</g>
				</g>
				<circle class="st12" cx="650.6" cy="455" r="24.3"/>
			</g>
			<g>
				<g>
					<g>
						<defs>
							<circle id="SVGID_55_" cx="650.6" cy="455.1" r="21.9"/>
						</defs>
						<clipPath id="SVGID_30_">
							<use xlink:href="#SVGID_55_"  style="overflow:visible;"/>
						</clipPath>
					</g>
				</g>
			</g>
		</g>
	</g>
	<circle class="st13" cx="650.6" cy="455.1" r="22.2"/>
</g>
<g>
	<g>
		
			<image style="overflow:visible;opacity:0.1;" width="329" height="329" xlink:href="F670612C35A11FB1.png"  transform="matrix(0.24 0 0 0.24 642.0881 336.3829)">
		</image>
		<g>
			<circle class="st18" cx="679.5" cy="373.8" r="36.4"/>
		</g>
	</g>
	<rect x="645" y="362.9" class="st4" width="71" height="40.8"/>
	<text transform="matrix(1 0 0 1 666.2083 373.0343)"><tspan x="0" y="0" class="st11 st42 st57 st50">CDM</tspan><tspan x="-4" y="14.8" class="st11 st42 st57 st50">Team</tspan></text>
</g>
<g>
	<path class="st22" d="M666,461.1V473l3.6-1.6l2.4,5.6l2-1l-2.3-5.5l3.3-1.5L666,461.1z M666,461.1"/>
</g>
</svg>
