<?xml version="1.0" encoding="utf-8"?>
<!-- Generator: Adobe Illustrator 19.1.0, SVG Export Plug-In . SVG Version: 6.00 Build 0)  -->
<svg version="1.1" id="Layer_1" xmlns="http://www.w3.org/2000/svg" xmlns:xlink="http://www.w3.org/1999/xlink" x="0px" y="0px"
	 viewBox="0 0 1280 800" style="enable-background:new 0 0 1280 800;" xml:space="preserve">
<style type="text/css">
	.st0{fill:#4D4D4D;}
	.st1{fill:#FFFCF9;}
	.st2{fill-rule:evenodd;clip-rule:evenodd;fill:none;}
	.st3{fill:#58595B;}
	.st4{font-family:'BloggerSans-Medium';}
	.st5{font-size:18.6116px;}
	.st6{fill:#58595B;stroke:#58595B;stroke-width:0.5;stroke-miterlimit:10;}
	.st7{font-family:'BloggerSans-Bold';}
	.st8{fill:none;}
	.st9{font-size:17.1799px;}
	.st10{fill:#F57C00;}
	.st11{fill:none;stroke:#D1D3D4;stroke-width:3;stroke-miterlimit:10;}
	.st12{fill:#E6E7E8;}
	.st13{font-size:15.0324px;}
	.st14{fill:#D1D3D4;}
	.st15{fill:#FFFAF5;stroke:#D1D3D4;stroke-width:3;stroke-miterlimit:10;}
	.st16{opacity:0.3;fill:#FDE5CC;}
	.st17{fill:#FFFFFF;}
	.st18{opacity:0.2;fill:#FFFFFF;}
	.st19{opacity:0.3;fill:#FFFFFF;}
	.st20{font-family:'BloggerSans';}
	.st21{font-size:46.5289px;}
	.st22{fill:none;stroke:#F57C00;stroke-width:3;stroke-miterlimit:10;}
	.st23{fill:#A7A9AC;}
	.st24{fill:#F5844E;}
	.st25{fill:#85D866;}
	.st26{fill:#7DCCED;}
	.st27{fill:#808285;}
	.st28{opacity:0.4;fill:#E7F7E0;}
	.st29{fill:#B6E8A3;}
	.st30{fill-rule:evenodd;clip-rule:evenodd;stroke:#FFFFFF;stroke-miterlimit:10;}
	.st31{fill:#FFFFFF;stroke:#FFFFFF;stroke-miterlimit:10;}
	.st32{opacity:0.8;fill:#FFFCF9;}
	.st33{opacity:0.5;}
	.st34{fill:#E7F7E0;}
	.st35{fill:#F1F2F2;}
	.st36{clip-path:url(#SVGID_20_);}
	.st37{fill:#FEFEFE;}
	.st38{fill:#FDFDFD;}
	.st39{fill:#030303;}
	.st40{fill:#EFEFEF;}
	.st41{fill:#040404;}
	.st42{fill:#050505;}
	.st43{fill:#070707;}
	.st44{fill:#020202;}
	.st45{fill:#010101;}
	.st46{fill:#FBFBFB;}
	.st47{fill:#F7F7F7;}
	.st48{fill:#D0AE89;}
	.st49{opacity:0.6;}
	.st50{fill:#E5F5FB;}
	.st51{fill:#B1E0F4;}
	.st52{opacity:0.2;fill:#B1E0F4;}
</style>
<rect x="0.3" y="-0.4" class="st0" width="1280" height="800"/>
<rect x="0.3" y="-0.4" class="st1" width="1280" height="800"/>
<g>
	<rect x="1001.6" y="72.8" class="st2" width="90.9" height="32.9"/>
	<text transform="matrix(1 0 0 1 1020.1699 86.2325)" class="st3 st4 st5">ABOUT</text>
	<rect x="885" y="72.8" class="st2" width="121.7" height="32.9"/>
	<text transform="matrix(1 0 0 1 901.872 86.2325)" class="st3 st4 st5">TUTORIALS</text>
	<rect x="770.5" y="72.8" class="st2" width="121.7" height="32.9"/>
	<text transform="matrix(1 0 0 1 796.2626 86.2325)" class="st3 st4 st5">GALLERY</text>
	<rect x="663.1" y="72.8" class="st2" width="117.1" height="32.9"/>
	<text transform="matrix(1 0 0 1 690.2343 86.214)" class="st6 st7 st5">CREATE</text>
	<g>
		<rect x="1123.5" y="72.8" class="st8" width="117.1" height="32.9"/>
		<text transform="matrix(1 0 0 1 1157.833 85.1974)" class="st3 st4 st9">Camila</text>
	</g>
	<g>
		<circle class="st8" cx="808.1" cy="79.7" r="2.9"/>
		<circle class="st8" cx="927" cy="79.7" r="2.9"/>
		<circle class="st8" cx="1141.6" cy="79.7" r="2.9"/>
	</g>
</g>
<path class="st10" d="M94.8,53.6c-1.1-1-2.5-1.5-4.1-1.5c-1.6,0-3,0.5-4.1,1.5c-1.1,1-1.7,2.3-1.7,3.8c0,1.5,0.6,2.8,1.7,3.8
	c1.1,1,2.5,1.5,4.1,1.5s3-0.5,4.1-1.5c1.1-1,1.7-2.3,1.7-3.8C96.5,55.9,95.9,54.6,94.8,53.6z M93.9,66.2c-1-0.9-2-1.4-3.5-1.4
	c-1.5,0-2.8,0.5-3.8,1.4c-1,0.9-1.6,2.1-1.6,3.4v24.6c0,1.4,0.7,2.5,1.8,3.5c1,0.9,2.4,1.4,3.8,1.4c1.5,0,2.3-0.5,3.3-1.4
	c1-0.9,1.1-2.1,1.1-3.5V69.6C95,68.3,94.9,67.1,93.9,66.2z M127,69.5c0-1.4-0.1-2.6-1.2-3.5c-1-0.8-2-1.2-3.4-1.2
	c-1,0-1.9,0.3-2.8,0.9c-1,0.6-1.6,1.4-2,2.5l-3.2,10.5c-0.5,1.6-0.8,3.2-1.1,4.8c-0.3-1.6-0.7-3.2-1.2-4.8l-3.4-10.5
	c-0.4-1-1-1.9-2-2.5c-0.9-0.6-1.9-0.9-2.9-0.9c-1.4,0-2.8,0.4-3.9,1.2C98.8,66.9,98,68,98,69.5V70c0,0.3,0.3,0.6,0.5,0.9l8.8,23.9
	c0.5,1.5,1.3,2.6,2.2,3.3c0.9,0.7,2.2,1.1,3.8,1.1c1.6,0,2.8-0.4,3.7-1.1c0.9-0.7,1.6-1.8,2.2-3.3l8.1-23.7c0.1-0.3-0.3-0.6-0.3-0.9
	V69.5z M202.1,66.1c-1.1-0.8-2.3-1.3-3.6-1.3c-1,0-2,0.2-2.9,0.7c-1,0.5-1.7,1.4-2.1,2.6l-3.4,10.5c-0.3,1-0.6,2.1-0.9,3.2
	c-0.3-1.1-0.6-2.2-1-3.2l-3.9-10.5c-0.4-1.1-1.1-1.9-2-2.5c-0.9-0.5-1.8-0.8-2.9-0.8c-1.4,0-2.7,0.4-3.7,1.3c-1.1,0.9-1.6,2-1.6,3.4
	c0,0.3,0,0.6,0.1,0.8c0.1,0.3,0.1,0.7,0.3,1.1l9.5,24.5c-0.7,2.2-1.4,3.7-2.1,4.6c-0.6,0.8-1.5,1.3-2.6,1.3
	c-1.5,0.1-2.8,0.6-3.7,1.5c-0.9,0.9-1.4,2-1.4,3.2c0,1.4,0.5,2.5,1.6,3.4c1,0.9,2.3,1.3,3.8,1.3c2.5,0,4.7-0.5,6.4-1.4
	c1.7-0.9,3.1-2.2,4.3-3.9c1.1-1.6,2.2-3.5,3-5.7c0.8-2.1,1.7-4.5,2.5-7l7.6-22.2c0.2-0.4,0.3-0.9,0.3-1.5
	C203.8,68.2,203.2,67,202.1,66.1z M78.9,91.8c-0.5-0.5-0.7-0.7-0.7-0.7c0-0.1-0.2-0.4-0.2-1.2V56.4c0-1.4-0.4-2.5-1.4-3.5
	c-1-0.9-2.2-1.4-3.7-1.4c-1.5,0-3,0.5-4,1.4c-1,1-1.9,2.1-1.9,3.4v34.3c0,1.8,0.5,3.2,1,4.3c0.5,1.1,1.2,2,1.9,2.6
	c0.7,0.6,1.6,1,2.5,1.2c0.8,0.2,1.6,0.2,2.2,0.2c1.7,0,3-0.3,4-1c1.1-0.7,1.7-1.9,1.7-3.4c0-0.8-0.2-1.4-0.5-1.9
	C79.6,92.5,79.3,92.2,78.9,91.8z M171.9,91.8c-0.5-0.5-0.7-0.7-0.7-0.7c0-0.1-0.2-0.4-0.2-1.2V56.4c0-1.4-0.4-2.5-1.4-3.5
	c-1-0.9-2.2-1.4-3.6-1.4c-1.5,0-3,0.5-4,1.4c-1,1-1.9,2.1-1.9,3.4v34.3c0,1.8,0.6,3.2,1,4.3c0.5,1.1,1.2,2,1.9,2.6
	c0.7,0.6,1.6,1,2.5,1.2c0.8,0.2,1.6,0.2,2.2,0.2c1.7,0,3-0.3,4-1c1.1-0.7,1.7-1.9,1.7-3.4c0-0.8-0.2-1.4-0.5-1.9
	C172.6,92.5,172.3,92.2,171.9,91.8z M141.5,86.6c0.8,0.1,1.6,0.1,2.5,0.1c4.5,0,7.8-0.9,9.9-2.7c2.1-1.9,3.2-4.5,3.2-7.7
	c0-3.4-1.1-6.3-3.3-8.4c-2.2-2.1-5.5-3.2-9.9-3.2c-2.3,0-4.3,0.3-6.1,0.9c-1.8,0.6-3.3,1.5-4.5,2.5c-1.2,1.1-2.5,2.4-3.1,3.9
	c-0.6,1.5-1.2,3.1-1.2,4.8v10.4c0,1.7,0.6,3.3,1.3,4.7c0.6,1.5,1.7,2.7,2.9,3.8c1.2,1.1,2.8,1.9,4.5,2.5c1.7,0.6,3.7,0.9,5.9,0.9
	c1,0,2.3-0.1,3.7-0.3c1.4-0.2,2.8-0.5,4.1-0.9c1.4-0.5,2.5-1.1,3.5-1.9c1.1-0.9,1.7-2.1,1.7-3.5c0-0.5-0.1-1-0.2-1.5
	c-0.2-0.5-0.4-1-0.8-1.4c-0.4-0.4-0.9-0.8-1.5-1.1c-0.6-0.3-1.4-0.4-2.3-0.4c-0.6,0-1.1,0.1-1.5,0.2c-0.4,0.1-0.6,0.2-0.8,0.3
	c-0.9,0.4-1.8,0.7-2.6,0.9c-0.8,0.2-1.6,0.3-2.6,0.3c-1.5,0-2.7-0.2-3.3-0.7c-0.6-0.4-0.9-1-0.9-1.8v-0.9
	C140,86.5,141.1,86.6,141.5,86.6z M140,76.4c0-1,0.4-1.7,1-2.2c0.6-0.6,1.6-0.8,2.8-0.8c1,0,1.7,0.2,2.2,0.6c0.4,0.3,0.6,1,0.6,1.9
	c0,1-0.2,1.6-0.6,2c-0.5,0.4-1.3,0.6-2.3,0.6c-0.3,0-1,0-1.8-0.1c-0.6,0-1.9-0.1-1.9-0.1V76.4z M238.6,56.5c0,0-0.3-0.1-0.3-0.1
	c0,0-0.3,0-0.3-0.1v0c0-0.5-0.1-1-0.5-1.5c-0.2-0.3-0.4-0.6-0.7-0.9c0,0,0,0,0-0.1l-2.5-1.8c-0.2-0.1-0.3-0.2-0.5-0.4
	c-0.6-0.6-1.1-1.3-1.1-2.1c0-0.8,0.5-1.5,1.1-2.1c0.2-0.1,0.3-0.2,0.5-0.4l2.6-1.8c0,0,0.1,0,0.1-0.1c0.3-0.2,0.3-0.6,0.6-0.9
	c0.4-0.5,0.5-1,0.5-1.5v0c0-0.5,0.5-1,0.4-1.5c-0.1-1-0.3-2-0.8-2.8c-0.2-0.4-0.5-0.7-0.8-1.1c0,0,0,0,0,0c-0.3-0.3-0.5-0.5-0.8-0.7
	c0,0,0,0,0,0c-1-0.7-2.4-1-3.6-0.7c0,0,0,0-0.1,0c0,0,0,0,0,0c-0.5,0.1-1.1,0.3-1.5,0.7c0,0-2.8,2-2.8,2c-0.1,0.1-0.2,0.1-0.3,0.2
	c-0.8,0.4-1.8,0.7-2.6,0.3c-0.6-0.3-1.2-1-1.4-1.6c-0.4-1.2-0.7-2.3-1.1-3.5c-0.1-0.4-0.3-0.7-0.5-1c-0.1-0.2-0.3-0.4-0.4-0.6
	c-0.3-0.4-0.7-0.7-1.1-1c-0.4-0.2-0.9-0.4-1.3-0.5c-0.2,0-0.6,0-0.9,0c-0.3,0-0.6,0-0.8,0.1c-0.4,0-0.9,0.1-1.4,0.3c0,0-0.1,0-0.1,0
	c0,0,0,0,0,0c-0.7,0.2-1.3,0.6-1.9,1c0,0,0,0,0,0c-1.1,0.9-1.8,2.1-1.8,3.6c0,0.5,0,0.9,0.2,1.4l1.1,3.3c0,0.1,0.1,0.3,0.1,0.4
	c0.1,0.7,0.1,1.5-0.3,2.1c-0.5,0.8-1.6,1.1-2.5,1.1l-3.5,0c-0.6,0-1.1,0.1-1.7,0.3c-1.4,0.6-2.3,1.8-2.7,3.2
	c-0.2,0.6-0.1,1.2-0.1,1.8v0c0,0.6,0,1.2,0.1,1.8c0.5,1.4,1.3,2.6,2.7,3.2c0.5,0.2,1.1,0.3,1.6,0.3l3.5,0c0.9,0,1.9,0.3,2.5,1.1
	c0.3,0.6,0.4,1.4,0.3,2.1c0,0.1-0.1,0.3-0.1,0.4l-1.1,3.3c-0.1,0.5-0.2,0.9-0.2,1.4c0,1.5,0.7,2.7,1.8,3.6c0,0,0,0,0,0
	c0.2,0.1,0.3,0.2,0.5,0.3c0.9,0.6,1.9,0.9,2.9,1c0.5,0.1,1.2,0.1,1.7,0c0.5-0.1,0.9-0.3,1.3-0.5c0.4-0.3,0.8-0.6,1.1-1
	c0.1-0.2,0.3-0.4,0.4-0.6c0.2-0.3,0.4-0.6,0.5-1c0,0,1-3.3,1-3.3c0.2-0.7,0.8-1.4,1.4-1.8c0,0,0,0,0,0c0.8-0.4,1.9-0.3,2.6,0.3
	c0.1,0.1,0.2,0.1,0.3,0.2l2.8,2c0.5,0.4,1.1,0.5,1.6,0.6c0.3,0,0.5,0,0.8,0h0c0.9,0,2-0.2,2.8-0.7c0,0,0,0,0,0
	c0.2-0.1,0.4-0.3,0.6-0.5c0.3-0.2,0.6-0.5,0.8-0.8c0,0,0,0,0.1-0.1c0.4-0.6,0.9-1.2,1-1.9c0-0.1,0-0.1,0.1-0.2
	c0.1-0.3,0.2-0.7,0.2-1C238.7,57.4,238.7,57,238.6,56.5z"/>
<circle class="st11" cx="126" cy="178.8" r="14.1"/>
<circle class="st11" cx="126" cy="219.7" r="14.1"/>
<g>
	<rect x="153" y="214.6" class="st8" width="99.5" height="32.9"/>
	<text transform="matrix(1 0 0 1 152.9526 225.4276)" class="st12 st4 st13">Groups</text>
</g>
<g>
	<rect x="153" y="172.6" class="st8" width="99.5" height="32.9"/>
	<text transform="matrix(1 0 0 1 152.9526 183.4894)" class="st12 st4 st13">Projects</text>
</g>
<g>
	<g>
		<g>
			<circle class="st11" cx="1198.8" cy="180" r="14.1"/>
			<path class="st14" d="M1197.1,181.4c0.1,0.2,0.2,0.4,0.2,0.6v6.4c0,0.4,0.5,0.6,0.7,0.3l1.8-2c0.2-0.3,0.4-0.4,0.4-0.7v-4
				c0-0.2,0.1-0.4,0.2-0.6l5.1-5.6c0.4-0.4,0.1-1.1-0.5-1.1h-12.6c-0.6,0-0.9,0.7-0.5,1.1L1197.1,181.4z M1197.1,181.4"/>
		</g>
		<g>
			<path class="st15" d="M1159.7,194.1H937.3c-7.8,0-14.1-6.3-14.1-14.1v0c0-7.8,6.3-14.1,14.1-14.1h222.5c7.8,0,14.1,6.3,14.1,14.1
				v0C1173.8,187.8,1167.5,194.1,1159.7,194.1z"/>
			<g>
				<path class="st14" d="M949.3,187.7c0.5,0.5,0.5,1.2,0,1.7c-0.5,0.4-1.3,0.4-1.7,0l-4.8-4.8c-1.2,0.9-2.7,1.4-4.2,1.4
					c-4.1,0-7.4-3.3-7.4-7.4c0-4.1,3.3-7.4,7.4-7.4c4.1,0,7.4,3.3,7.4,7.4c0,1.6-0.5,3-1.4,4.2L949.3,187.7L949.3,187.7z
					 M938.5,184.2c3.1,0,5.6-2.5,5.6-5.6c0-3.1-2.5-5.6-5.6-5.6c-3.1,0-5.6,2.5-5.6,5.6C932.9,181.7,935.4,184.2,938.5,184.2
					L938.5,184.2z M938.5,184.2"/>
			</g>
		</g>
	</g>
</g>
<circle class="st10" cx="126" cy="178.8" r="6.5"/>
<circle class="st16" cx="593" cy="427.9" r="109.4"/>
<g>
	<g>
		
			<image style="overflow:visible;opacity:0.1;" width="339" height="339" xlink:href="300AE0CE49A87170.png"  transform="matrix(0.24 0 0 0.24 553.6073 386.785)">
		</image>
		<g>
			<g>
				<g>
					<g>
						<defs>
							<circle id="SVGID_1_" cx="592.2" cy="425.5" r="33.9"/>
						</defs>
						<clipPath id="SVGID_2_">
							<use xlink:href="#SVGID_1_"  style="overflow:visible;"/>
						</clipPath>
					</g>
				</g>
			</g>
			<g>
				<g>
					<circle class="st17" cx="592.2" cy="425.4" r="37.6"/>
					<g>
						<defs>
							<circle id="SVGID_3_" cx="592.2" cy="425.5" r="33.9"/>
						</defs>
						<clipPath id="SVGID_4_">
							<use xlink:href="#SVGID_3_"  style="overflow:visible;"/>
						</clipPath>
						<g style="clip-path:url(#SVGID_4_);">
							
								<image style="overflow:visible;" width="384" height="384" xlink:href="300AE0CE49A87171.png"  transform="matrix(0.1764 0 0 0.1764 558.3801 391.6248)">
							</image>
						</g>
					</g>
				</g>
				<circle class="st18" cx="592.2" cy="425.4" r="37.6"/>
			</g>
			<g>
				<g>
					<g>
						<defs>
							<circle id="SVGID_5_" cx="592.2" cy="425.5" r="33.9"/>
						</defs>
						<clipPath id="SVGID_6_">
							<use xlink:href="#SVGID_5_"  style="overflow:visible;"/>
						</clipPath>
					</g>
				</g>
			</g>
		</g>
	</g>
	<circle class="st19" cx="592.2" cy="425.8" r="34.4"/>
</g>
<rect x="252.5" y="66.3" class="st8" width="286.3" height="50.1"/>
<text transform="matrix(1 0 0 1 252.4531 100.0671)" class="st14 st20 st21">MyWorld</text>
<path class="st22" d="M1213.5,94.4H1153c-6.9,0-12.5-5.6-12.5-12.5v-6c0-6.9,5.6-12.5,12.5-12.5h60.6c6.9,0,12.5,5.6,12.5,12.5v6
	C1226,88.8,1220.4,94.4,1213.5,94.4z"/>
<g>
	<rect x="242.1" y="411" class="st8" width="99.5" height="32.9"/>
	<text transform="matrix(1 0 0 1 242.1061 421.9167)" class="st12 st4 st13">Productivity</text>
</g>
<g>
	<rect x="242.1" y="463.3" class="st8" width="99.5" height="32.9"/>
	<text transform="matrix(1 0 0 1 242.1061 474.1578)" class="st12 st4 st13">Games</text>
</g>
<g>
	<rect x="242.1" y="383.1" class="st8" width="99.5" height="32.9"/>
	<text transform="matrix(1 0 0 1 242.1061 393.9739)" class="st23 st4 st13">All</text>
</g>
<g>
	<rect x="242.1" y="436.8" class="st8" width="99.5" height="16.5"/>
	<text transform="matrix(1 0 0 1 242.1061 447.6725)" class="st12 st4 st13">Parts</text>
</g>
<g>
	
		<image style="overflow:visible;opacity:5.000000e-02;" width="109" height="109" xlink:href="300AE0CE49A87177.png"  transform="matrix(0.24 0 0 0.24 206.3131 429.808)">
	</image>
	<g>
		<circle class="st24" cx="218.3" cy="441.8" r="10"/>
	</g>
</g>
<g>
	
		<image style="overflow:visible;opacity:5.000000e-02;" width="109" height="109" xlink:href="300AE0CE49A87172.png"  transform="matrix(0.24 0 0 0.24 206.3131 456.711)">
	</image>
	<g>
		<circle class="st25" cx="218.3" cy="468.7" r="10"/>
	</g>
</g>
<g>
	
		<image style="overflow:visible;opacity:5.000000e-02;" width="109" height="109" xlink:href="300AE0CE49A87173.png"  transform="matrix(0.24 0 0 0.24 206.3131 403.3223)">
	</image>
	<g>
		<circle class="st26" cx="218.3" cy="415.3" r="10"/>
	</g>
</g>
<g>
	
		<image style="overflow:visible;opacity:5.000000e-02;" width="109" height="109" xlink:href="300AE0CE49A8717E.png"  transform="matrix(0.24 0 0 0.24 206.3132 375.7633)">
	</image>
	<g>
		<g>
			<circle class="st17" cx="218.3" cy="387.8" r="9.1"/>
			<path class="st27" d="M218.3,397.8c-5.5,0-10-4.5-10-10c0-5.5,4.5-10,10-10c5.5,0,10,4.5,10,10
				C228.4,393.3,223.9,397.8,218.3,397.8z M218.3,379.6c-4.5,0-8.2,3.7-8.2,8.2c0,4.5,3.7,8.2,8.2,8.2s8.2-3.7,8.2-8.2
				C226.5,383.3,222.9,379.6,218.3,379.6z"/>
		</g>
	</g>
</g>
<g>
	<g>
		
			<image style="overflow:visible;opacity:0.15;" width="261" height="261" xlink:href="300AE0CE49A8717F.png"  transform="matrix(0.24 0 0 0.24 540.5884 501.0142)">
		</image>
		<g>
			<circle class="st24" cx="569.8" cy="530.3" r="25.2"/>
		</g>
	</g>
	<g>
		<g>
			<g>
				<g>
					<path class="st17" d="M581.4,525.5c1.2-2.5,0.5-5.2-1.8-6.8c-0.2-0.1-0.5-0.1-0.6,0c-2.3,1.6-3,4.3-1.8,6.8
						c0.1,0.2,0.3,0.3,0.5,0.3c1,0,2.1,0,3.1,0c0.8,0,0.8-1.2,0-1.2c-1,0-2.1,0-3.1,0c0.2,0.1,0.4,0.2,0.5,0.3
						c-0.9-1.9-0.3-4,1.4-5.1c-0.2,0-0.4,0-0.6,0c1.7,1.2,2.3,3.3,1.4,5.1C580,525.6,581,526.2,581.4,525.5z"/>
					<path class="st17" d="M580.9,525.8c0.8,0,0.8-1.2,0-1.2C580.1,524.6,580.1,525.8,580.9,525.8L580.9,525.8z"/>
				</g>
				<path class="st17" d="M568.7,541.6L568.7,541.6c-5,0-9.4-3.4-10.7-8.2c-0.8-2.9-0.4-5.8,1.1-8.4c1.5-2.6,3.9-4.4,6.7-5.1
					c0.2-0.1,0.4-0.1,0.7-0.2c1.7-0.3,3.4,0.2,4.6,1.5c0.9,1,1.4,2.3,1.3,3.7c-0.2,1.9-0.1,3.5,0.2,4.6c0.3,1.1,1,2.5,2.1,4.1
					c0.9,1.3,1.1,2.8,0.6,4.3c-0.5,1.5-1.6,2.6-3.1,3.1c-0.2,0.1-0.5,0.1-0.7,0.2C570.6,541.5,569.6,541.6,568.7,541.6z
					 M567.5,520.9c-0.2,0-0.5,0-0.7,0.1c-0.2,0-0.4,0.1-0.6,0.1c-2.5,0.7-4.7,2.3-6,4.6c-1.3,2.3-1.7,4.9-1,7.5
					c1.1,4.3,5,7.3,9.5,7.3h0c0.9,0,1.7-0.1,2.5-0.3c0.2-0.1,0.4-0.1,0.6-0.2c1.1-0.4,1.9-1.2,2.3-2.3c0.4-1.1,0.2-2.3-0.5-3.2
					c-1.2-1.7-2-3.2-2.3-4.5c-0.3-1.3-0.4-3-0.2-5c0.1-1-0.2-2-0.9-2.8C569.5,521.3,568.5,520.9,567.5,520.9z"/>
			</g>
			<path class="st17" d="M579.3,541.1c-0.7,0-1.3-0.5-1.4-1.3l-0.9-10.3c0-0.2,0-0.5,0.2-0.7c0.1-0.2,0.4-0.4,0.8-0.4
				c0.1,0,0.3,0,0.8,0c0.7,0,1.6,0,1.6,0h0c0.5,0,1.1,0.4,1.1,1.1l0,0.1l-0.9,10.3C580.6,540.6,580,541.1,579.3,541.1z M578.2,529.7
				l0.9,10.1c0,0.1,0.1,0.1,0.2,0.1c0.1,0,0.2-0.1,0.2-0.1l0.9-10.1c-0.3,0-1,0-1.5,0C578.5,529.6,578.3,529.6,578.2,529.7z"/>
		</g>
		<path class="st17" d="M577.7,527.7c1.1,0,2.1,0,3.2,0c0.8,0,0.8-1.2,0-1.2c-1.1,0-2.1,0-3.2,0
			C576.9,526.5,576.9,527.7,577.7,527.7L577.7,527.7z"/>
		<circle class="st17" cx="565.3" cy="525.2" r="1.2"/>
		<circle class="st17" cx="562.3" cy="529.2" r="1.2"/>
		<circle class="st17" cx="563.6" cy="534.4" r="1.2"/>
		<circle class="st17" cx="568.3" cy="537.1" r="1.2"/>
	</g>
</g>
<g>
	<g>
		<g>
			
				<image style="overflow:visible;opacity:0.15;" width="264" height="264" xlink:href="300AE0CE49A87174.png"  transform="matrix(0.24 0 0 0.24 490.9383 325.8164)">
			</image>
			<g>
				<circle class="st26" cx="520.5" cy="355.4" r="25.6"/>
			</g>
		</g>
		<g>
			<g>
				<path class="st17" d="M519.4,367.6c-0.3,0-0.6-0.1-0.9-0.3c-0.5-0.3-0.7-0.8-0.7-1.4c0-1.9-0.8-3.8-2.2-5
					c-1.2-1.1-2.8-1.7-4.4-1.7c-0.3,0-0.6,0-0.9,0.1c-0.1,0-0.1,0-0.2,0c-0.5,0-1-0.2-1.3-0.6c-0.4-0.4-0.5-1-0.3-1.6
					c0.4-1.1,0.9-2.2,1.7-3.1c1.6-1.8,3.9-2.9,6.4-2.9c0.5,0,1,0,1.5,0.1l4.1-4.6c0.8-0.9,1.8-1.7,3-2.2l4.2-2
					c0.7-0.3,1.5-0.2,2.1,0.3c0.6,0.5,0.8,1.3,0.6,2.1l-1.4,4.4c-0.4,1.2-1,2.3-1.8,3.2l-4.1,4.6c0.9,2.8,0.2,5.9-1.7,8.1
					c-0.8,0.9-1.7,1.6-2.8,2.1C519.9,367.6,519.7,367.6,519.4,367.6z M511.1,357.6c2,0,4,0.7,5.5,2.1c1.8,1.6,2.8,3.8,2.8,6.2
					c0.8-0.4,1.6-0.9,2.2-1.6c1.7-1.9,2.1-4.5,1.3-6.9l-0.2-0.5l4.7-5.4c0.7-0.8,1.2-1.7,1.5-2.6l1.4-4.5c0-0.1,0-0.2-0.1-0.3
					c-0.1-0.1-0.2-0.1-0.3,0l-4.2,2c-0.9,0.4-1.7,1-2.4,1.8l-4.7,5.4l-0.5-0.1c-0.5-0.1-1.1-0.2-1.6-0.2c-1.9,0-3.8,0.8-5.1,2.3
					c-0.6,0.7-1.1,1.5-1.4,2.4C510.5,357.6,510.8,357.6,511.1,357.6z"/>
			</g>
			<path class="st17" d="M513.3,361.9c0-0.2-0.1-0.4-0.3-0.6c-0.2-0.1-0.4-0.2-0.6-0.2c-0.3,0-0.5,0.1-0.7,0.3l-2.9,3.3
				c-0.2,0.2-0.2,0.4-0.2,0.6c0,0.2,0.1,0.4,0.3,0.6c0.3,0.3,0.9,0.3,1.2-0.1l2.9-3.3C513.3,362.3,513.3,362.1,513.3,361.9z"/>
			<path class="st17" d="M514.9,363.2c-0.3,0-0.5,0.1-0.7,0.3l-2.9,3.3c-0.2,0.2-0.2,0.4-0.2,0.6c0,0.2,0.1,0.4,0.3,0.6
				c0.4,0.3,0.9,0.3,1.2-0.1l2.9-3.3c0.2-0.2,0.2-0.4,0.2-0.6c0-0.2-0.1-0.4-0.3-0.6C515.3,363.3,515.1,363.2,514.9,363.2z"/>
			<circle class="st17" cx="525.3" cy="350" r="1.5"/>
		</g>
	</g>
</g>
<circle class="st10" cx="218.3" cy="387.8" r="3.9"/>
<g>
	<path class="st30" d="M732.4,488.3v11.9l3.6-1.6l2.4,5.6l2-1l-2.3-5.5l3.3-1.5L732.4,488.3z M732.4,488.3"/>
</g>
<g>
	<g>
		
			<image style="overflow:visible;opacity:0.15;" width="264" height="264" xlink:href="300AE0CE49A87175.png"  transform="matrix(0.24 0 0 0.24 665.9382 371.609)">
		</image>
		<g>
			<circle class="st25" cx="695.5" cy="401.2" r="25.6"/>
		</g>
	</g>
	<g>
		<path class="st17" d="M710.4,404.3c-0.1-0.2-0.1-0.4-0.2-0.6c-0.1-0.4-0.2-0.8-0.3-1.2c-0.1-0.4-0.2-0.9-0.3-1.4
			c-0.1-0.4-0.2-0.8-0.3-1.2c-0.3-1.4-0.6-2.9-1.2-4c-0.5-1-1.4-1.8-2.5-2.4c-1.2-0.7-2.5-1-3.8-1c-0.7,0-1.4,0.1-2.1,0.3
			c-0.7,0.2-1.3,0.6-1.8,0.9c-0.4,0.3-0.8,0.5-1.2,0.6c-0.3,0-0.6,0.1-0.9,0.1c-0.8,0-1.3-0.2-1.9-0.6c-0.5-0.3-1.1-0.7-2-0.9
			c-0.6-0.2-1.4-0.2-1.9-0.2c-0.3,0-0.5,0-0.8,0c-2.3,0.2-4.4,1.3-5.4,2.9c-0.7,1.1-1,2.5-1.3,4c-0.1,0.5-0.2,1-0.3,1.4l-0.3,1.2
			c-0.1,0.5-0.2,1-0.3,1.4c-0.1,0.2-0.1,0.5-0.2,0.7c-0.2,0.7-0.4,1.5-0.4,2.2l0,0.1v0c0,1.2,0.6,2.4,1.6,3.2
			c0.9,0.8,2.2,1.3,3.4,1.3c0.7,0,1.5-0.2,2.2-0.5c1.1-0.5,1.9-1.4,2.4-2.2l0.1-0.1c0.1-0.2,0.3-0.4,0.4-0.6
			c0.2-0.3,0.5-0.8,0.7-0.9c0.3-0.1,0.6-0.1,1.1-0.1c0.4,0,0.8,0,1.2,0c0.5,0,1.1,0.1,1.7,0.1c0.5,0,1,0,1.5-0.1
			c0.5,0,1-0.1,1.5-0.1c0.6,0,0.9,0,1.1,0.1c0,0,0.2,0.1,0.4,0.3c0.2,0.2,0.4,0.5,0.6,0.7c0.1,0.1,0.2,0.3,0.3,0.4l0.2,0.2
			c0.5,0.7,1.2,1.7,2.5,2.1c0.6,0.2,1.2,0.3,1.9,0.3c1,0,2.1-0.3,2.9-0.9c0.9-0.6,1.5-1.3,1.8-2.2c0.2-0.5,0.3-0.9,0.3-1.5
			C710.8,405.7,710.6,405,710.4,404.3L710.4,404.3z M709.2,407.6c-0.6,1.5-2.7,2.7-4.7,1.9c-1-0.4-1.5-1.2-2-1.9
			c-0.4-0.5-1.1-1.7-1.9-2c-1.1-0.3-3.1-0.1-4.5-0.1c-1.8,0-3.3-0.2-4.5,0.1c-0.8,0.2-1.4,1.3-1.9,2c-0.5,0.7-1.1,1.5-2,1.8
			c-2.3,1-5-0.6-5.1-2.9c0-0.8,0.3-1.7,0.6-2.7c0.2-0.9,0.4-1.8,0.6-2.6c0.5-1.8,0.7-3.8,1.5-5c0.9-1.3,2.6-2.1,4.3-2.3
			c0.6-0.1,1.6,0,2.2,0.1c1.9,0.6,2.4,2,5.4,1.5c1.2-0.2,2-1.2,3.1-1.5c2.9-0.8,5.6,0.7,6.6,2.5c0.7,1.3,1,3.3,1.3,4.9
			c0.2,0.9,0.4,1.7,0.6,2.5C709.1,405.1,709.6,406.4,709.2,407.6L709.2,407.6z M705.1,399.6 M706.2,400.7c0,0.6-0.5,1-1,1
			c-0.6,0-1-0.5-1-1s0.5-1,1-1C705.8,399.7,706.2,400.2,706.2,400.7z M704.1,398.5c0,0.6-0.5,1-1,1c-0.6,0-1-0.5-1-1s0.5-1,1-1
			C703.6,397.5,704.1,398,704.1,398.5z M704.1,402.8c0,0.6-0.5,1-1,1c-0.6,0-1-0.5-1-1s0.5-1,1-1
			C703.6,401.8,704.1,402.2,704.1,402.8z M701.9,400.7c0,0.6-0.5,1-1,1c-0.6,0-1-0.5-1-1s0.5-1,1-1
			C701.5,399.7,701.9,400.2,701.9,400.7z M689.2,403.9L689.2,403.9c-0.6,0-1.1-0.4-1.1-1v-4.4c0-0.5,0.4-1,1-1h0.1c0.5,0,1,0.4,1,1
			v4.4C690.2,403.4,689.8,403.9,689.2,403.9z M686,400.7L686,400.7c0-0.6,0.4-1.1,1-1.1h4.4c0.5,0,1,0.4,1,1v0.1c0,0.5-0.4,1-1,1
			H687C686.4,401.7,686,401.3,686,400.7z"/>
	</g>
</g>
</svg>
