<?xml version="1.0" encoding="utf-8"?>
<!-- Generator: Adobe Illustrator 19.1.0, SVG Export Plug-In . SVG Version: 6.00 Build 0)  -->
<svg version="1.1" id="Layer_1" xmlns="http://www.w3.org/2000/svg" xmlns:xlink="http://www.w3.org/1999/xlink" x="0px" y="0px"
	 viewBox="0 0 1280 797.8" style="enable-background:new 0 0 1280 797.8;" xml:space="preserve">
<style type="text/css">
	.st0{fill:#4D4D4D;}
	.st1{fill:#FFFCF9;}
	.st2{fill:#58595B;}
	.st3{fill:#58595B;stroke:#58595B;stroke-width:0.5;stroke-miterlimit:10;}
	.st4{fill:none;}
	.st5{fill:#F57C00;}
	.st6{fill:none;stroke:#D1D3D4;stroke-width:3;stroke-miterlimit:10;}
	.st7{fill:#E6E7E8;}
	.st8{fill:#D1D3D4;}
	.st9{fill:#FFFAF5;stroke:#D1D3D4;stroke-width:3;stroke-miterlimit:10;}
	.st10{opacity:0.3;fill:#FDE5CC;}
	.st11{fill:#FFFFFF;}
	.st12{opacity:0.2;fill:#FFFFFF;}
	.st13{opacity:0.3;fill:#FFFFFF;}
	.st14{fill:none;stroke:#F57C00;stroke-width:3;stroke-miterlimit:10;}
	.st15{fill:#A7A9AC;}
	.st16{fill:#F5844E;}
	.st17{fill:#85D866;}
	.st18{fill:#7DCCED;}
	.st19{fill:#808285;}
	.st20{fill-rule:evenodd;clip-rule:evenodd;fill:none;}
	.st21{font-family:'BloggerSans-Medium';}
	.st22{font-size:18.6116px;}
	.st23{font-family:'BloggerSans-Bold';}
	.st24{font-size:17.1799px;}
	.st25{font-size:15.0324px;}
	.st26{opacity:0.4;fill:#E7F7E0;}
	.st27{font-family:'BloggerSans';}
	.st28{font-size:46.5289px;}
	.st29{fill:#B6E8A3;}
	.st30{fill-rule:evenodd;clip-rule:evenodd;stroke:#FFFFFF;stroke-miterlimit:10;}
	.st31{fill:#FFFFFF;stroke:#FFFFFF;stroke-miterlimit:10;}
	.st32{opacity:0.8;fill:#FFFCF9;}
	.st33{opacity:0.5;}
	.st34{fill:#E7F7E0;}
	.st35{fill:#F1F2F2;}
	.st36{clip-path:url(#SVGID_20_);}
	.st37{fill:#FEFEFE;}
	.st38{fill:#FDFDFD;}
	.st39{fill:#030303;}
	.st40{fill:#EFEFEF;}
	.st41{fill:#040404;}
	.st42{fill:#050505;}
	.st43{fill:#070707;}
	.st44{fill:#020202;}
	.st45{fill:#010101;}
	.st46{fill:#FBFBFB;}
	.st47{fill:#F7F7F7;}
	.st48{fill:#D0AE89;}
	.st49{opacity:0.6;}
	.st50{fill:#E5F5FB;}
	.st51{fill:#B1E0F4;}
	.st52{opacity:0.2;fill:#B1E0F4;}
</style>
<rect x="0" y="0.5" class="st0" width="1280" height="800"/>
<rect x="0" y="0.5" class="st1" width="1280" height="797.8"/>
<g>
	<rect x="1001.2" y="73.7" class="st20" width="90.9" height="32.9"/>
	<text transform="matrix(1 0 0 1 1019.8398 87.136)" class="st2 st21 st22">ABOUT</text>
	<rect x="884.7" y="73.7" class="st20" width="121.7" height="32.9"/>
	<text transform="matrix(1 0 0 1 901.542 87.136)" class="st2 st21 st22">TUTORIALS</text>
	<rect x="770.2" y="73.7" class="st20" width="121.7" height="32.9"/>
	<text transform="matrix(1 0 0 1 795.9326 87.136)" class="st2 st21 st22">GALLERY</text>
	<rect x="662.8" y="73.7" class="st20" width="117.1" height="32.9"/>
	<text transform="matrix(1 0 0 1 689.9043 87.1175)" class="st3 st23 st22">CREATE</text>
	<g>
		<rect x="1123.2" y="73.7" class="st4" width="117.1" height="32.9"/>
		<text transform="matrix(1 0 0 1 1157.5029 86.1009)" class="st2 st21 st24">Camila</text>
	</g>
	<g>
		<circle class="st4" cx="807.8" cy="80.6" r="2.9"/>
		<circle class="st4" cx="926.7" cy="80.6" r="2.9"/>
		<circle class="st4" cx="1141.3" cy="80.6" r="2.9"/>
	</g>
</g>
<path class="st5" d="M94.4,54.5c-1.1-1-2.5-1.5-4.1-1.5c-1.6,0-3,0.5-4.1,1.5c-1.1,1-1.7,2.3-1.7,3.8c0,1.5,0.6,2.8,1.7,3.8
	c1.1,1,2.5,1.5,4.1,1.5s3-0.5,4.1-1.5c1.1-1,1.7-2.3,1.7-3.8C96.2,56.8,95.6,55.5,94.4,54.5z M93.6,67.1c-1-0.9-2-1.4-3.5-1.4
	c-1.5,0-2.8,0.5-3.8,1.4c-1,0.9-1.6,2.1-1.6,3.4v24.6c0,1.4,0.7,2.5,1.8,3.5c1,0.9,2.4,1.4,3.8,1.4c1.5,0,2.3-0.5,3.3-1.4
	c1-0.9,1.1-2.1,1.1-3.5V70.5C94.7,69.2,94.6,68,93.6,67.1z M126.7,70.4c0-1.4-0.1-2.6-1.2-3.5c-1-0.8-2-1.2-3.4-1.2
	c-1,0-1.9,0.3-2.8,0.9c-1,0.6-1.6,1.4-2,2.5l-3.2,10.5c-0.5,1.6-0.8,3.2-1.1,4.8c-0.3-1.6-0.7-3.2-1.2-4.8L108.4,69
	c-0.4-1-1-1.9-2-2.5c-0.9-0.6-1.9-0.9-2.9-0.9c-1.4,0-2.8,0.4-3.9,1.2c-1.1,0.9-1.9,2.1-1.9,3.5v0.5c0,0.3,0.3,0.6,0.5,0.9l8.8,23.9
	c0.5,1.5,1.3,2.6,2.2,3.3c0.9,0.7,2.2,1.1,3.8,1.1c1.6,0,2.8-0.4,3.7-1.1c0.9-0.7,1.6-1.8,2.2-3.3l8.1-23.7c0.1-0.3-0.3-0.6-0.3-0.9
	V70.4z M201.7,67c-1.1-0.8-2.3-1.3-3.6-1.3c-1,0-2,0.2-2.9,0.7c-1,0.5-1.7,1.4-2.1,2.6l-3.4,10.5c-0.3,1-0.6,2.1-0.9,3.2
	c-0.3-1.1-0.6-2.2-1-3.2L184,69c-0.4-1.1-1.1-1.9-2-2.5c-0.9-0.5-1.8-0.8-2.9-0.8c-1.4,0-2.7,0.4-3.7,1.3c-1.1,0.9-1.6,2-1.6,3.4
	c0,0.3,0,0.6,0.1,0.8c0.1,0.3,0.1,0.7,0.3,1.1l9.5,24.5c-0.7,2.2-1.4,3.7-2.1,4.6c-0.6,0.8-1.5,1.3-2.6,1.3
	c-1.5,0.1-2.8,0.6-3.7,1.5c-0.9,0.9-1.4,2-1.4,3.2c0,1.4,0.5,2.5,1.6,3.4c1,0.9,2.3,1.3,3.8,1.3c2.5,0,4.7-0.5,6.4-1.4
	c1.7-0.9,3.1-2.2,4.3-3.9c1.1-1.6,2.2-3.5,3-5.7c0.8-2.1,1.7-4.5,2.5-7l7.6-22.2c0.2-0.4,0.3-0.9,0.3-1.5
	C203.5,69.1,202.9,67.9,201.7,67z M78.6,92.7c-0.5-0.5-0.7-0.7-0.7-0.7c0-0.1-0.2-0.4-0.2-1.2V57.3c0-1.4-0.4-2.5-1.4-3.5
	c-1-0.9-2.2-1.4-3.7-1.4c-1.5,0-3,0.5-4,1.4c-1,1-1.9,2.1-1.9,3.4v34.3c0,1.8,0.5,3.2,1,4.3c0.5,1.1,1.2,2,1.9,2.6
	c0.7,0.6,1.6,1,2.5,1.2c0.8,0.2,1.6,0.2,2.2,0.2c1.7,0,3-0.3,4-1c1.1-0.7,1.7-1.9,1.7-3.4c0-0.8-0.2-1.4-0.5-1.9
	C79.2,93.4,78.9,93.1,78.6,92.7z M171.6,92.7c-0.5-0.5-0.7-0.7-0.7-0.7c0-0.1-0.2-0.4-0.2-1.2V57.3c0-1.4-0.4-2.5-1.4-3.5
	c-1-0.9-2.2-1.4-3.6-1.4c-1.5,0-3,0.5-4,1.4c-1,1-1.9,2.1-1.9,3.4v34.3c0,1.8,0.6,3.2,1,4.3c0.5,1.1,1.2,2,1.9,2.6
	c0.7,0.6,1.6,1,2.5,1.2c0.8,0.2,1.6,0.2,2.2,0.2c1.7,0,3-0.3,4-1c1.1-0.7,1.7-1.9,1.7-3.4c0-0.8-0.2-1.4-0.5-1.9
	C172.3,93.4,172,93.1,171.6,92.7z M141.2,87.5c0.8,0.1,1.6,0.1,2.5,0.1c4.5,0,7.8-0.9,9.9-2.7c2.1-1.9,3.2-4.5,3.2-7.7
	c0-3.4-1.1-6.3-3.3-8.4c-2.2-2.1-5.5-3.2-9.9-3.2c-2.3,0-4.3,0.3-6.1,0.9c-1.8,0.6-3.3,1.5-4.5,2.5c-1.2,1.1-2.5,2.4-3.1,3.9
	c-0.6,1.5-1.2,3.1-1.2,4.8v10.4c0,1.7,0.6,3.3,1.3,4.7c0.6,1.5,1.7,2.7,2.9,3.8c1.2,1.1,2.8,1.9,4.5,2.5c1.7,0.6,3.7,0.9,5.9,0.9
	c1,0,2.3-0.1,3.7-0.3c1.4-0.2,2.8-0.5,4.1-0.9c1.4-0.5,2.5-1.1,3.5-1.9c1.1-0.9,1.7-2.1,1.7-3.5c0-0.5-0.1-1-0.2-1.5
	c-0.2-0.5-0.4-1-0.8-1.4c-0.4-0.4-0.9-0.8-1.5-1.1c-0.6-0.3-1.4-0.4-2.3-0.4c-0.6,0-1.1,0.1-1.5,0.2c-0.4,0.1-0.6,0.2-0.8,0.3
	c-0.9,0.4-1.8,0.7-2.6,0.9c-0.8,0.2-1.6,0.3-2.6,0.3c-1.5,0-2.7-0.2-3.3-0.7c-0.6-0.4-0.9-1-0.9-1.8v-0.9
	C139.7,87.4,140.7,87.5,141.2,87.5z M139.7,77.3c0-1,0.4-1.7,1-2.2c0.6-0.6,1.6-0.8,2.8-0.8c1,0,1.7,0.2,2.2,0.6
	c0.4,0.3,0.6,1,0.6,1.9c0,1-0.2,1.6-0.6,2c-0.5,0.4-1.3,0.6-2.3,0.6c-0.3,0-1,0-1.8-0.1c-0.6,0-1.9-0.1-1.9-0.1V77.3z M238.3,57.4
	c0,0-0.3-0.1-0.3-0.1c0,0-0.3,0-0.3-0.1v0c0-0.5-0.1-1-0.5-1.5c-0.2-0.3-0.4-0.6-0.7-0.9c0,0,0,0,0-0.1L234,53
	c-0.2-0.1-0.3-0.2-0.5-0.4c-0.6-0.6-1.1-1.3-1.1-2.1c0-0.8,0.5-1.5,1.1-2.1c0.2-0.1,0.3-0.2,0.5-0.4l2.6-1.8c0,0,0.1,0,0.1-0.1
	c0.3-0.2,0.3-0.6,0.6-0.9c0.4-0.5,0.5-1,0.5-1.5v0c0-0.5,0.5-1,0.4-1.5c-0.1-1-0.3-2-0.8-2.8c-0.2-0.4-0.5-0.7-0.8-1.1c0,0,0,0,0,0
	c-0.3-0.3-0.5-0.5-0.8-0.7c0,0,0,0,0,0c-1-0.7-2.4-1-3.6-0.7c0,0,0,0-0.1,0c0,0,0,0,0,0c-0.5,0.1-1.1,0.3-1.5,0.7c0,0-2.8,2-2.8,2
	c-0.1,0.1-0.2,0.1-0.3,0.2c-0.8,0.4-1.8,0.7-2.6,0.3c-0.6-0.3-1.2-1-1.4-1.6c-0.4-1.2-0.7-2.3-1.1-3.5c-0.1-0.4-0.3-0.7-0.5-1
	c-0.1-0.2-0.3-0.4-0.4-0.6c-0.3-0.4-0.7-0.7-1.1-1c-0.4-0.2-0.9-0.4-1.3-0.5c-0.2,0-0.6,0-0.9,0c-0.3,0-0.6,0-0.8,0.1
	c-0.4,0-0.9,0.1-1.4,0.3c0,0-0.1,0-0.1,0c0,0,0,0,0,0c-0.7,0.2-1.3,0.6-1.9,1c0,0,0,0,0,0c-1.1,0.9-1.8,2.1-1.8,3.6
	c0,0.5,0,0.9,0.2,1.4l1.1,3.3c0,0.1,0.1,0.3,0.1,0.4c0.1,0.7,0.1,1.5-0.3,2.1c-0.5,0.8-1.6,1.1-2.5,1.1l-3.5,0
	c-0.6,0-1.1,0.1-1.7,0.3c-1.4,0.6-2.3,1.8-2.7,3.2c-0.2,0.6-0.1,1.2-0.1,1.8v0c0,0.6,0,1.2,0.1,1.8c0.5,1.4,1.3,2.6,2.7,3.2
	c0.5,0.2,1.1,0.3,1.6,0.3l3.5,0c0.9,0,1.9,0.3,2.5,1.1c0.3,0.6,0.4,1.4,0.3,2.1c0,0.1-0.1,0.3-0.1,0.4l-1.1,3.3
	c-0.1,0.5-0.2,0.9-0.2,1.4c0,1.5,0.7,2.7,1.8,3.6c0,0,0,0,0,0c0.2,0.1,0.3,0.2,0.5,0.3c0.9,0.6,1.9,0.9,2.9,1c0.5,0.1,1.2,0.1,1.7,0
	c0.5-0.1,0.9-0.3,1.3-0.5c0.4-0.3,0.8-0.6,1.1-1c0.1-0.2,0.3-0.4,0.4-0.6c0.2-0.3,0.4-0.6,0.5-1c0,0,1-3.3,1-3.3
	c0.2-0.7,0.8-1.4,1.4-1.8c0,0,0,0,0,0c0.8-0.4,1.9-0.3,2.6,0.3c0.1,0.1,0.2,0.1,0.3,0.2l2.8,2c0.5,0.4,1.1,0.5,1.6,0.6
	c0.3,0,0.5,0,0.8,0h0c0.9,0,2-0.2,2.8-0.7c0,0,0,0,0,0c0.2-0.1,0.4-0.3,0.6-0.5c0.3-0.2,0.6-0.5,0.8-0.8c0,0,0,0,0.1-0.1
	c0.4-0.6,0.9-1.2,1-1.9c0-0.1,0-0.1,0.1-0.2c0.1-0.3,0.2-0.7,0.2-1C238.4,58.4,238.4,57.9,238.3,57.4z"/>
<circle class="st6" cx="125.6" cy="179.7" r="14.1"/>
<circle class="st6" cx="125.6" cy="220.6" r="14.1"/>
<g>
	<rect x="152.6" y="215.5" class="st4" width="99.5" height="32.9"/>
	<text transform="matrix(1 0 0 1 152.6226 226.3311)" class="st7 st21 st25">Groups</text>
</g>
<g>
	<rect x="152.6" y="173.5" class="st4" width="99.5" height="32.9"/>
	<text transform="matrix(1 0 0 1 152.6226 184.3929)" class="st7 st21 st25">Projects</text>
</g>
<g>
	<g>
		<g>
			<circle class="st6" cx="1198.4" cy="180.9" r="14.1"/>
			<path class="st8" d="M1196.8,182.3c0.1,0.2,0.2,0.4,0.2,0.6v6.4c0,0.4,0.5,0.6,0.7,0.3l1.8-2c0.2-0.3,0.4-0.4,0.4-0.7v-4
				c0-0.2,0.1-0.4,0.2-0.6l5.1-5.6c0.4-0.4,0.1-1.1-0.5-1.1h-12.6c-0.6,0-0.9,0.7-0.5,1.1L1196.8,182.3z M1196.8,182.3"/>
		</g>
		<g>
			<path class="st9" d="M1159.4,195H936.9c-7.8,0-14.1-6.3-14.1-14.1v0c0-7.8,6.3-14.1,14.1-14.1h222.5c7.8,0,14.1,6.3,14.1,14.1v0
				C1173.5,188.7,1167.2,195,1159.4,195z"/>
			<g>
				<path class="st8" d="M949,188.6c0.5,0.5,0.5,1.2,0,1.7c-0.5,0.4-1.3,0.4-1.7,0l-4.8-4.8c-1.2,0.9-2.7,1.4-4.2,1.4
					c-4.1,0-7.4-3.3-7.4-7.4c0-4.1,3.3-7.4,7.4-7.4c4.1,0,7.4,3.3,7.4,7.4c0,1.6-0.5,3-1.4,4.2L949,188.6L949,188.6z M938.2,185.1
					c3.1,0,5.6-2.5,5.6-5.6c0-3.1-2.5-5.6-5.6-5.6c-3.1,0-5.6,2.5-5.6,5.6C932.6,182.6,935.1,185.1,938.2,185.1L938.2,185.1z
					 M938.2,185.1"/>
			</g>
		</g>
	</g>
</g>
<circle class="st5" cx="125.6" cy="179.7" r="6.5"/>
<circle class="st26" cx="592.7" cy="428.8" r="109.4"/>
<g>
	<g>
		
			<image style="overflow:visible;opacity:0.1;" width="339" height="339" xlink:href="30134BDB03B6C5BB.png"  transform="matrix(0.24 0 0 0.24 553.2773 387.6886)">
		</image>
		<g>
			<g>
				<g>
					<g>
						<defs>
							<circle id="SVGID_7_" cx="591.9" cy="426.4" r="33.9"/>
						</defs>
						<clipPath id="SVGID_2_">
							<use xlink:href="#SVGID_7_"  style="overflow:visible;"/>
						</clipPath>
					</g>
				</g>
			</g>
			<g>
				<g>
					<circle class="st11" cx="591.9" cy="426.3" r="37.6"/>
					<g>
						<defs>
							<circle id="SVGID_9_" cx="591.9" cy="426.4" r="33.9"/>
						</defs>
						<clipPath id="SVGID_4_">
							<use xlink:href="#SVGID_9_"  style="overflow:visible;"/>
						</clipPath>
						<g style="clip-path:url(#SVGID_4_);">
							
								<image style="overflow:visible;" width="384" height="384" xlink:href="30134BDB03B6C5B9.png"  transform="matrix(0.1764 0 0 0.1764 558.05 392.5284)">
							</image>
						</g>
					</g>
				</g>
				<circle class="st12" cx="591.9" cy="426.3" r="37.6"/>
			</g>
			<g>
				<g>
					<g>
						<defs>
							<circle id="SVGID_11_" cx="591.9" cy="426.4" r="33.9"/>
						</defs>
						<clipPath id="SVGID_6_">
							<use xlink:href="#SVGID_11_"  style="overflow:visible;"/>
						</clipPath>
					</g>
				</g>
			</g>
		</g>
	</g>
	<circle class="st13" cx="591.9" cy="426.7" r="34.4"/>
</g>
<rect x="252.1" y="67.2" class="st4" width="286.3" height="50.1"/>
<text transform="matrix(1 0 0 1 252.1231 100.9706)" class="st8 st27 st28">MyWorld</text>
<path class="st14" d="M1213.2,95.3h-60.6c-6.9,0-12.5-5.6-12.5-12.5v-6c0-6.9,5.6-12.5,12.5-12.5h60.6c6.9,0,12.5,5.6,12.5,12.5v6
	C1225.7,89.8,1220.1,95.3,1213.2,95.3z"/>
<g>
	<rect x="241.8" y="412" class="st4" width="99.5" height="32.9"/>
	<text transform="matrix(1 0 0 1 241.7761 422.8202)" class="st7 st21 st25">Productivity</text>
</g>
<g>
	<rect x="241.8" y="464.2" class="st4" width="99.5" height="32.9"/>
	<text transform="matrix(1 0 0 1 241.7761 475.0613)" class="st15 st21 st25">Games</text>
</g>
<g>
	<rect x="241.8" y="384" class="st4" width="99.5" height="32.9"/>
	<text transform="matrix(1 0 0 1 241.7761 394.8774)" class="st7 st21 st25">All</text>
</g>
<g>
	<rect x="241.8" y="437.7" class="st4" width="99.5" height="16.5"/>
	<text transform="matrix(1 0 0 1 241.7761 448.576)" class="st7 st21 st25">Parts</text>
</g>
<g>
	
		<image style="overflow:visible;opacity:5.000000e-02;" width="109" height="109" xlink:href="30134BDB03B6C5BF.png"  transform="matrix(0.24 0 0 0.24 205.9831 430.7116)">
	</image>
	<g>
		<circle class="st16" cx="218" cy="442.7" r="10"/>
	</g>
</g>
<g>
	
		<image style="overflow:visible;opacity:5.000000e-02;" width="109" height="109" xlink:href="30134BDB03B6C5B8.png"  transform="matrix(0.24 0 0 0.24 205.9831 457.6146)">
	</image>
	<g>
		<circle class="st17" cx="218" cy="469.6" r="10"/>
	</g>
</g>
<g>
	
		<image style="overflow:visible;opacity:5.000000e-02;" width="109" height="109" xlink:href="30134BDB03B6C5B6.png"  transform="matrix(0.24 0 0 0.24 205.9831 404.2259)">
	</image>
	<g>
		<circle class="st18" cx="218" cy="416.2" r="10"/>
	</g>
</g>
<g>
	
		<image style="overflow:visible;opacity:5.000000e-02;" width="109" height="109" xlink:href="30134BDB03B6C5B7.png"  transform="matrix(0.24 0 0 0.24 205.9832 376.6669)">
	</image>
	<g>
		<g>
			<circle class="st11" cx="218" cy="388.7" r="9.1"/>
			<path class="st19" d="M218,398.7c-5.5,0-10-4.5-10-10c0-5.5,4.5-10,10-10c5.5,0,10,4.5,10,10C228,394.2,223.5,398.7,218,398.7z
				 M218,380.5c-4.5,0-8.2,3.7-8.2,8.2c0,4.5,3.7,8.2,8.2,8.2s8.2-3.7,8.2-8.2C226.2,384.2,222.5,380.5,218,380.5z"/>
		</g>
	</g>
</g>
<g>
	
		<image style="overflow:visible;opacity:5.000000e-02;" width="109" height="109" xlink:href="30134BDB03B6C5C7.png"  transform="matrix(0.24 0 0 0.24 542.2557 313.3999)">
	</image>
	<g>
		<circle class="st29" cx="554.3" cy="325.4" r="10"/>
	</g>
</g>
<g>
	
		<image style="overflow:visible;opacity:5.000000e-02;" width="175" height="175" xlink:href="30134BDB03B6C5C9.png"  transform="matrix(0.24 0 0 0.24 673.9079 368.4137)">
	</image>
	<g>
		<circle class="st29" cx="693.8" cy="388.3" r="17.9"/>
	</g>
</g>
<g>
	
		<image style="overflow:visible;opacity:5.000000e-02;" width="109" height="109" xlink:href="30134BDB03B6C5CB.png"  transform="matrix(0.24 0 0 0.24 568.9689 526.1381)">
	</image>
	<g>
		<circle class="st29" cx="581" cy="538.2" r="10"/>
	</g>
</g>
<g>
	<path class="st30" d="M736.6,444.8v11.9l3.6-1.6l2.4,5.6l2-1l-2.3-5.5l3.3-1.5L736.6,444.8z M736.6,444.8"/>
</g>
<g>
	<g>
		<circle class="st17" cx="592.2" cy="426.2" r="37.7"/>
	</g>
	<g>
		<path class="st11" d="M614.2,430.8c-0.1-0.3-0.2-0.6-0.2-0.9c-0.1-0.6-0.3-1.1-0.4-1.7c-0.1-0.6-0.3-1.3-0.4-2
			c-0.1-0.5-0.2-1.1-0.4-1.8c-0.4-2.1-0.9-4.3-1.8-5.9c-0.8-1.4-2.1-2.7-3.7-3.6c-1.7-1-3.6-1.5-5.6-1.5c-1,0-2.1,0.1-3.1,0.4
			c-1,0.3-1.9,0.8-2.6,1.3c-0.7,0.4-1.2,0.8-1.8,0.9c-0.5,0.1-0.9,0.1-1.3,0.1c-1.2,0-1.9-0.4-2.9-0.9c-0.8-0.5-1.7-1-2.9-1.3
			c-0.9-0.3-2.1-0.3-2.8-0.3c-0.4,0-0.8,0-1.2,0c-3.5,0.3-6.5,1.9-8,4.3c-1.1,1.7-1.5,3.7-2,5.9c-0.1,0.7-0.3,1.4-0.5,2.1l-0.4,1.7
			c-0.2,0.7-0.3,1.4-0.5,2.1c-0.1,0.3-0.2,0.7-0.3,1c-0.3,1.1-0.6,2.2-0.6,3.2l0,0.2v0c0.1,1.8,0.9,3.5,2.3,4.8
			c1.4,1.2,3.2,1.9,5.1,1.9c1.1,0,2.2-0.2,3.2-0.7c1.7-0.7,2.7-2.1,3.6-3.2l0.1-0.1c0.2-0.3,0.4-0.6,0.6-0.9
			c0.3-0.4,0.8-1.1,1.1-1.3c0.4-0.1,0.9-0.1,1.6-0.1c0.6,0,1.2,0,1.8,0.1c0.8,0,1.6,0.1,2.5,0.1c0.7,0,1.5,0,2.2-0.1
			c0.7,0,1.5-0.1,2.2-0.1c0.9,0,1.4,0.1,1.6,0.1c0.1,0,0.2,0.2,0.5,0.5c0.3,0.3,0.6,0.7,0.8,1.1c0.1,0.2,0.3,0.4,0.4,0.5l0.3,0.3
			c0.8,1.1,1.8,2.5,3.7,3.2c0.9,0.3,1.8,0.5,2.8,0.5c1.5,0,3.1-0.5,4.3-1.3c1.3-0.8,2.2-2,2.7-3.2c0.3-0.7,0.4-1.4,0.4-2.2
			C614.8,433,614.5,431.8,614.2,430.8L614.2,430.8z M612.4,435.7c-0.8,2.3-4,3.9-7,2.8c-1.4-0.5-2.2-1.7-3-2.8
			c-0.5-0.7-1.6-2.5-2.8-2.9c-1.6-0.5-4.5-0.1-6.7-0.1c-2.6,0-4.9-0.4-6.6,0.1c-1.3,0.3-2,1.9-2.8,2.9c-0.8,1-1.6,2.1-2.9,2.7
			c-3.5,1.5-7.4-0.8-7.5-4.2c0-1.2,0.5-2.6,0.8-3.9c0.3-1.3,0.6-2.6,0.9-3.8c0.7-2.7,1-5.6,2.2-7.4c1.3-2,3.8-3.2,6.4-3.4
			c0.9-0.1,2.4,0,3.2,0.2c2.9,0.8,3.6,2.9,8,2.2c1.8-0.3,3-1.8,4.6-2.2c4.3-1.2,8.3,1,9.8,3.7c1,1.9,1.4,4.9,2,7.2
			c0.3,1.4,0.5,2.6,0.8,3.8C612.2,432,613,433.9,612.4,435.7L612.4,435.7z M606.4,423.9 M608,425.6c0,0.8-0.7,1.5-1.5,1.5
			c-0.8,0-1.5-0.7-1.5-1.5s0.7-1.5,1.5-1.5C607.3,424.1,608,424.7,608,425.6z M604.8,422.4c0,0.8-0.7,1.5-1.5,1.5
			c-0.8,0-1.5-0.7-1.5-1.5s0.7-1.5,1.5-1.5C604.2,420.8,604.8,421.5,604.8,422.4z M604.8,428.7c0,0.8-0.7,1.5-1.5,1.5
			c-0.8,0-1.5-0.7-1.5-1.5s0.7-1.5,1.5-1.5C604.2,427.1,604.8,427.8,604.8,428.7z M601.7,425.6c0,0.8-0.7,1.5-1.5,1.5
			c-0.8,0-1.5-0.7-1.5-1.5s0.7-1.5,1.5-1.5C601,424.1,601.7,424.7,601.7,425.6z M583.4,430.2h-1.1c-0.5,0-1-0.4-1-1v-7.4
			c0-0.5,0.4-1,1-1h1.1c0.5,0,1,0.4,1,1v7.4C584.3,429.8,583.9,430.2,583.4,430.2z M578.1,426V425c0-0.5,0.4-1,1-1h7.4
			c0.5,0,1,0.4,1,1v1.1c0,0.5-0.4,1-1,1h-7.4C578.6,427,578.1,426.6,578.1,426z"/>
	</g>
</g>
<circle class="st31" cx="218" cy="469.6" r="3.9"/>
</svg>
