<?xml version="1.0" encoding="utf-8"?>
<!-- Generator: Adobe Illustrator 19.1.0, SVG Export Plug-In . SVG Version: 6.00 Build 0)  -->
<svg version="1.1" id="Layer_1" xmlns="http://www.w3.org/2000/svg" xmlns:xlink="http://www.w3.org/1999/xlink" x="0px" y="0px"
	 viewBox="0 0 1280 797.8" style="enable-background:new 0 0 1280 797.8;" xml:space="preserve">
<style type="text/css">
	.st0{fill:#4D4D4D;}
	.st1{fill:#FFFCF9;}
	.st2{fill:#58595B;}
	.st3{fill:#58595B;stroke:#58595B;stroke-width:0.5;stroke-miterlimit:10;}
	.st4{fill:none;}
	.st5{fill:#F57C00;}
	.st6{fill:none;stroke:#D1D3D4;stroke-width:3;stroke-miterlimit:10;}
	.st7{fill:#E6E7E8;}
	.st8{fill:#D1D3D4;}
	.st9{fill:#FFFAF5;stroke:#D1D3D4;stroke-width:3;stroke-miterlimit:10;}
	.st10{opacity:0.3;fill:#FDE5CC;}
	.st11{fill:#FFFFFF;}
	.st12{opacity:0.2;fill:#FFFFFF;}
	.st13{opacity:0.3;fill:#FFFFFF;}
	.st14{fill:none;stroke:#F57C00;stroke-width:3;stroke-miterlimit:10;}
	.st15{fill:#A7A9AC;}
	.st16{fill:#F5844E;}
	.st17{fill:#85D866;}
	.st18{fill:#7DCCED;}
	.st19{fill:#808285;}
	.st20{opacity:0.4;fill:#E7F7E0;}
	.st21{fill:#B6E8A3;}
	.st22{fill-rule:evenodd;clip-rule:evenodd;stroke:#FFFFFF;stroke-miterlimit:10;}
	.st23{fill:#FFFFFF;stroke:#FFFFFF;stroke-miterlimit:10;}
	.st24{fill-rule:evenodd;clip-rule:evenodd;fill:none;}
	.st25{font-family:'BloggerSans-Medium';}
	.st26{font-size:18.6116px;}
	.st27{font-family:'BloggerSans-Bold';}
	.st28{font-size:17.1799px;}
	.st29{font-size:15.0324px;}
	.st30{font-family:'BloggerSans';}
	.st31{font-size:46.5289px;}
	.st32{opacity:0.8;fill:#FFFCF9;}
	.st33{opacity:0.5;}
	.st34{fill:#E7F7E0;}
	.st35{font-family:'Roboto-Medium';}
	.st36{font-size:8.7762px;}
	.st37{letter-spacing:1;}
	.st38{font-size:9.7514px;}
	.st39{fill:#F1F2F2;}
	.st40{clip-path:url(#SVGID_20_);}
	.st41{fill:#FEFEFE;}
	.st42{fill:#FDFDFD;}
	.st43{fill:#030303;}
	.st44{fill:#EFEFEF;}
	.st45{fill:#040404;}
	.st46{fill:#050505;}
	.st47{fill:#070707;}
	.st48{fill:#020202;}
	.st49{fill:#010101;}
	.st50{fill:#FBFBFB;}
	.st51{fill:#F7F7F7;}
	.st52{fill:#D0AE89;}
	.st53{opacity:0.6;}
	.st54{fill:#E5F5FB;}
	.st55{fill:#B1E0F4;}
	.st56{opacity:0.2;fill:#B1E0F4;}
</style>
<rect x="0.5" y="0.6" class="st0" width="1280" height="800"/>
<rect x="0.5" y="0.6" class="st1" width="1280" height="797.8"/>
<g>
	<rect x="1001.7" y="73.8" class="st24" width="90.9" height="32.9"/>
	<text transform="matrix(1 0 0 1 1020.3 87.2182)" class="st2 st25 st26">ABOUT</text>
	<rect x="885.1" y="73.8" class="st24" width="121.7" height="32.9"/>
	<text transform="matrix(1 0 0 1 902.0021 87.2182)" class="st2 st25 st26">TUTORIALS</text>
	<rect x="770.6" y="73.8" class="st24" width="121.7" height="32.9"/>
	<text transform="matrix(1 0 0 1 796.3928 87.2182)" class="st2 st25 st26">GALLERY</text>
	<rect x="663.2" y="73.8" class="st24" width="117.1" height="32.9"/>
	<text transform="matrix(1 0 0 1 690.3644 87.1997)" class="st3 st27 st26">CREATE</text>
	<g>
		<rect x="1123.6" y="73.8" class="st4" width="117.1" height="32.9"/>
		<text transform="matrix(1 0 0 1 1157.9631 86.1831)" class="st2 st25 st28">Camila</text>
	</g>
	<g>
		<circle class="st4" cx="808.3" cy="80.7" r="2.9"/>
		<circle class="st4" cx="927.1" cy="80.7" r="2.9"/>
		<circle class="st4" cx="1141.8" cy="80.7" r="2.9"/>
	</g>
</g>
<path class="st5" d="M94.9,54.6c-1.1-1-2.5-1.5-4.1-1.5c-1.6,0-3,0.5-4.1,1.5c-1.1,1-1.7,2.3-1.7,3.8c0,1.5,0.6,2.8,1.7,3.8
	c1.1,1,2.5,1.5,4.1,1.5s3-0.5,4.1-1.5c1.1-1,1.7-2.3,1.7-3.8C96.6,56.9,96.1,55.6,94.9,54.6z M94,67.2c-1-0.9-2-1.4-3.5-1.4
	c-1.5,0-2.8,0.5-3.8,1.4c-1,0.9-1.6,2.1-1.6,3.4v24.6c0,1.4,0.7,2.5,1.8,3.5c1,0.9,2.4,1.4,3.8,1.4c1.5,0,2.3-0.5,3.3-1.4
	c1-0.9,1.1-2.1,1.1-3.5V70.6C95.1,69.3,95.1,68.1,94,67.2z M127.1,70.5c0-1.4-0.1-2.6-1.2-3.5c-1-0.8-2-1.2-3.4-1.2
	c-1,0-1.9,0.3-2.8,0.9c-1,0.6-1.6,1.4-2,2.5l-3.2,10.5c-0.5,1.6-0.8,3.2-1.1,4.8c-0.3-1.6-0.7-3.2-1.2-4.8l-3.4-10.5
	c-0.4-1-1-1.9-2-2.5c-0.9-0.6-1.9-0.9-2.9-0.9c-1.4,0-2.8,0.4-3.9,1.2c-1.1,0.9-1.9,2.1-1.9,3.5V71c0,0.3,0.3,0.6,0.5,0.9l8.8,23.9
	c0.5,1.5,1.3,2.6,2.2,3.3c0.9,0.7,2.2,1.1,3.8,1.1c1.6,0,2.8-0.4,3.7-1.1c0.9-0.7,1.6-1.8,2.2-3.3l8.1-23.7c0.1-0.3-0.3-0.6-0.3-0.9
	V70.5z M202.2,67.1c-1.1-0.8-2.3-1.3-3.6-1.3c-1,0-2,0.2-2.9,0.7c-1,0.5-1.7,1.4-2.1,2.6l-3.4,10.5c-0.3,1-0.6,2.1-0.9,3.2
	c-0.3-1.1-0.6-2.2-1-3.2L184.4,69c-0.4-1.1-1.1-1.9-2-2.5c-0.9-0.5-1.8-0.8-2.9-0.8c-1.4,0-2.7,0.4-3.7,1.3c-1.1,0.9-1.6,2-1.6,3.4
	c0,0.3,0,0.6,0.1,0.8c0.1,0.3,0.1,0.7,0.3,1.1l9.5,24.5c-0.7,2.2-1.4,3.7-2.1,4.6c-0.6,0.8-1.5,1.3-2.6,1.3
	c-1.5,0.1-2.8,0.6-3.7,1.5c-0.9,0.9-1.4,2-1.4,3.2c0,1.4,0.5,2.5,1.6,3.4c1,0.9,2.3,1.3,3.8,1.3c2.5,0,4.7-0.5,6.4-1.4
	c1.7-0.9,3.1-2.2,4.3-3.9c1.1-1.6,2.2-3.5,3-5.7c0.8-2.1,1.7-4.5,2.5-7l7.6-22.2c0.2-0.4,0.3-0.9,0.3-1.5
	C203.9,69.2,203.3,68,202.2,67.1z M79,92.8c-0.5-0.5-0.7-0.7-0.7-0.7c0-0.1-0.2-0.4-0.2-1.2V57.4c0-1.4-0.4-2.5-1.4-3.5
	c-1-0.9-2.2-1.4-3.7-1.4c-1.5,0-3,0.5-4,1.4c-1,1-1.9,2.1-1.9,3.4v34.3c0,1.8,0.5,3.2,1,4.3c0.5,1.1,1.2,2,1.9,2.6
	c0.7,0.6,1.6,1,2.5,1.2c0.8,0.2,1.6,0.2,2.2,0.2c1.7,0,3-0.3,4-1c1.1-0.7,1.7-1.9,1.7-3.4c0-0.8-0.2-1.4-0.5-1.9
	C79.7,93.5,79.4,93.2,79,92.8z M172.1,92.8c-0.5-0.5-0.7-0.7-0.7-0.7c0-0.1-0.2-0.4-0.2-1.2V57.4c0-1.4-0.4-2.5-1.4-3.5
	c-1-0.9-2.2-1.4-3.6-1.4c-1.5,0-3,0.5-4,1.4c-1,1-1.9,2.1-1.9,3.4v34.3c0,1.8,0.6,3.2,1,4.3c0.5,1.1,1.2,2,1.9,2.6
	c0.7,0.6,1.6,1,2.5,1.2c0.8,0.2,1.6,0.2,2.2,0.2c1.7,0,3-0.3,4-1c1.1-0.7,1.7-1.9,1.7-3.4c0-0.8-0.2-1.4-0.5-1.9
	C172.7,93.5,172.4,93.2,172.1,92.8z M141.6,87.6c0.8,0.1,1.6,0.1,2.5,0.1c4.5,0,7.8-0.9,9.9-2.7c2.1-1.9,3.2-4.5,3.2-7.7
	c0-3.4-1.1-6.3-3.3-8.4c-2.2-2.1-5.5-3.2-9.9-3.2c-2.3,0-4.3,0.3-6.1,0.9c-1.8,0.6-3.3,1.5-4.5,2.5c-1.2,1.1-2.5,2.4-3.1,3.9
	c-0.6,1.5-1.2,3.1-1.2,4.8v10.4c0,1.7,0.6,3.3,1.3,4.7c0.6,1.5,1.7,2.7,2.9,3.8c1.2,1.1,2.8,1.9,4.5,2.5c1.7,0.6,3.7,0.9,5.9,0.9
	c1,0,2.3-0.1,3.7-0.3c1.4-0.2,2.8-0.5,4.1-0.9c1.4-0.5,2.5-1.1,3.5-1.9c1.1-0.9,1.7-2.1,1.7-3.5c0-0.5-0.1-1-0.2-1.5
	c-0.2-0.5-0.4-1-0.8-1.4c-0.4-0.4-0.9-0.8-1.5-1.1c-0.6-0.3-1.4-0.4-2.3-0.4c-0.6,0-1.1,0.1-1.5,0.2c-0.4,0.1-0.6,0.2-0.8,0.3
	c-0.9,0.4-1.8,0.7-2.6,0.9c-0.8,0.2-1.6,0.3-2.6,0.3c-1.5,0-2.7-0.2-3.3-0.7c-0.6-0.4-0.9-1-0.9-1.8v-0.9
	C140.1,87.5,141.2,87.6,141.6,87.6z M140.1,77.3c0-1,0.4-1.7,1-2.2c0.6-0.6,1.6-0.8,2.8-0.8c1,0,1.7,0.2,2.2,0.6
	c0.4,0.3,0.6,1,0.6,1.9c0,1-0.2,1.6-0.6,2c-0.5,0.4-1.3,0.6-2.3,0.6c-0.3,0-1,0-1.8-0.1c-0.6,0-1.9-0.1-1.9-0.1V77.3z M238.7,57.5
	c0,0-0.3-0.1-0.3-0.1c0,0-0.3,0-0.3-0.1v0c0-0.5-0.1-1-0.5-1.5c-0.2-0.3-0.4-0.6-0.7-0.9c0,0,0,0,0-0.1l-2.5-1.8
	c-0.2-0.1-0.3-0.2-0.5-0.4c-0.6-0.6-1.1-1.3-1.1-2.1c0-0.8,0.5-1.5,1.1-2.1c0.2-0.1,0.3-0.2,0.5-0.4l2.6-1.8c0,0,0.1,0,0.1-0.1
	c0.3-0.2,0.3-0.6,0.6-0.9c0.4-0.5,0.5-1,0.5-1.5v0c0-0.5,0.5-1,0.4-1.5c-0.1-1-0.3-2-0.8-2.8c-0.2-0.4-0.5-0.7-0.8-1.1c0,0,0,0,0,0
	c-0.3-0.3-0.5-0.5-0.8-0.7c0,0,0,0,0,0c-1-0.7-2.4-1-3.6-0.7c0,0,0,0-0.1,0c0,0,0,0,0,0c-0.5,0.1-1.1,0.3-1.5,0.7c0,0-2.8,2-2.8,2
	c-0.1,0.1-0.2,0.1-0.3,0.2c-0.8,0.4-1.8,0.7-2.6,0.3c-0.6-0.3-1.2-1-1.4-1.6c-0.4-1.2-0.7-2.3-1.1-3.5c-0.1-0.4-0.3-0.7-0.5-1
	c-0.1-0.2-0.3-0.4-0.4-0.6c-0.3-0.4-0.7-0.7-1.1-1c-0.4-0.2-0.9-0.4-1.3-0.5c-0.2,0-0.6,0-0.9,0c-0.3,0-0.6,0-0.8,0.1
	c-0.4,0-0.9,0.1-1.4,0.3c0,0-0.1,0-0.1,0c0,0,0,0,0,0c-0.7,0.2-1.3,0.6-1.9,1c0,0,0,0,0,0c-1.1,0.9-1.8,2.1-1.8,3.6
	c0,0.5,0,0.9,0.2,1.4l1.1,3.3c0,0.1,0.1,0.3,0.1,0.4c0.1,0.7,0.1,1.5-0.3,2.1c-0.5,0.8-1.6,1.1-2.5,1.1l-3.5,0
	c-0.6,0-1.1,0.1-1.7,0.3c-1.4,0.6-2.3,1.8-2.7,3.2c-0.2,0.6-0.1,1.2-0.1,1.8v0c0,0.6,0,1.2,0.1,1.8c0.5,1.4,1.3,2.6,2.7,3.2
	c0.5,0.2,1.1,0.3,1.6,0.3l3.5,0c0.9,0,1.9,0.3,2.5,1.1c0.3,0.6,0.4,1.4,0.3,2.1c0,0.1-0.1,0.3-0.1,0.4l-1.1,3.3
	c-0.1,0.5-0.2,0.9-0.2,1.4c0,1.5,0.7,2.7,1.8,3.6c0,0,0,0,0,0c0.2,0.1,0.3,0.2,0.5,0.3c0.9,0.6,1.9,0.9,2.9,1c0.5,0.1,1.2,0.1,1.7,0
	c0.5-0.1,0.9-0.3,1.3-0.5c0.4-0.3,0.8-0.6,1.1-1c0.1-0.2,0.3-0.4,0.4-0.6c0.2-0.3,0.4-0.6,0.5-1c0,0,1-3.3,1-3.3
	c0.2-0.7,0.8-1.4,1.4-1.8c0,0,0,0,0,0c0.8-0.4,1.9-0.3,2.6,0.3c0.1,0.1,0.2,0.1,0.3,0.2l2.8,2c0.5,0.4,1.1,0.4,1.6,0.6
	c0.3,0,0.5,0,0.8,0h0c0.9,0,2-0.1,2.8-0.7c0,0,0,0.1,0,0.1c0.2-0.1,0.4-0.3,0.6-0.5c0.3-0.2,0.6-0.5,0.8-0.8c0,0,0,0,0.1-0.1
	c0.4-0.6,0.9-1.2,1-1.9c0-0.1,0-0.1,0.1-0.2c0.1-0.3,0.2-0.7,0.2-1C238.9,58.4,238.8,58,238.7,57.5z"/>
<circle class="st6" cx="126.1" cy="179.7" r="14.1"/>
<circle class="st6" cx="126.1" cy="220.7" r="14.1"/>
<g>
	<rect x="153.1" y="215.5" class="st4" width="99.5" height="32.9"/>
	<text transform="matrix(1 0 0 1 153.0827 226.4133)" class="st7 st25 st29">Groups</text>
</g>
<g>
	<rect x="153.1" y="173.6" class="st4" width="99.5" height="32.9"/>
	<text transform="matrix(1 0 0 1 153.0827 184.4751)" class="st7 st25 st29">Projects</text>
</g>
<g>
	<g>
		<g>
			<circle class="st6" cx="1198.9" cy="181" r="14.1"/>
			<path class="st8" d="M1197.2,182.4c0.1,0.2,0.2,0.4,0.2,0.6v6.4c0,0.4,0.5,0.6,0.7,0.3l1.8-2c0.2-0.3,0.4-0.4,0.4-0.7v-4
				c0-0.2,0.1-0.4,0.2-0.6l5.1-5.6c0.4-0.4,0.1-1.1-0.5-1.1h-12.6c-0.6,0-0.9,0.7-0.5,1.1L1197.2,182.4z M1197.2,182.4"/>
		</g>
		<g>
			<path class="st9" d="M1159.8,195H937.4c-7.8,0-14.1-6.3-14.1-14.1v0c0-7.8,6.3-14.1,14.1-14.1h222.5c7.8,0,14.1,6.3,14.1,14.1v0
				C1173.9,188.7,1167.6,195,1159.8,195z"/>
			<g>
				<path class="st8" d="M949.5,188.6c0.5,0.5,0.5,1.2,0,1.7c-0.5,0.4-1.3,0.4-1.7,0l-4.8-4.8c-1.2,0.9-2.7,1.4-4.2,1.4
					c-4.1,0-7.4-3.3-7.4-7.4c0-4.1,3.3-7.4,7.4-7.4c4.1,0,7.4,3.3,7.4,7.4c0,1.6-0.5,3-1.4,4.2L949.5,188.6L949.5,188.6z
					 M938.7,185.2c3.1,0,5.6-2.5,5.6-5.6c0-3.1-2.5-5.6-5.6-5.6c-3.1,0-5.6,2.5-5.6,5.6C933,182.7,935.5,185.2,938.7,185.2
					L938.7,185.2z M938.7,185.2"/>
			</g>
		</g>
	</g>
</g>
<circle class="st5" cx="126.1" cy="179.7" r="6.5"/>
<circle class="st10" cx="593.1" cy="428.8" r="109.4"/>
<g>
	<g>
		
			<image style="overflow:visible;opacity:0.1;" width="339" height="339" xlink:href="301BB6E7BDC51A02.png"  transform="matrix(0.24 0 0 0.24 553.7374 387.7707)">
		</image>
		<g>
			<g>
				<g>
					<g>
						<defs>
							<circle id="SVGID_13_" cx="592.4" cy="426.5" r="33.9"/>
						</defs>
						<clipPath id="SVGID_2_">
							<use xlink:href="#SVGID_13_"  style="overflow:visible;"/>
						</clipPath>
					</g>
				</g>
			</g>
			<g>
				<g>
					<circle class="st11" cx="592.4" cy="426.4" r="37.6"/>
					<g>
						<defs>
							<circle id="SVGID_15_" cx="592.4" cy="426.5" r="33.9"/>
						</defs>
						<clipPath id="SVGID_4_">
							<use xlink:href="#SVGID_15_"  style="overflow:visible;"/>
						</clipPath>
						<g style="clip-path:url(#SVGID_4_);">
							
								<image style="overflow:visible;" width="384" height="384" xlink:href="301BB6E7BDC51A06.png"  transform="matrix(0.1764 0 0 0.1764 558.5102 392.6105)">
							</image>
						</g>
					</g>
				</g>
				<circle class="st12" cx="592.4" cy="426.4" r="37.6"/>
			</g>
			<g>
				<g>
					<g>
						<defs>
							<circle id="SVGID_17_" cx="592.4" cy="426.5" r="33.9"/>
						</defs>
						<clipPath id="SVGID_6_">
							<use xlink:href="#SVGID_17_"  style="overflow:visible;"/>
						</clipPath>
					</g>
				</g>
			</g>
		</g>
	</g>
	<circle class="st13" cx="592.4" cy="426.8" r="34.4"/>
</g>
<rect x="252.6" y="67.3" class="st4" width="286.3" height="50.1"/>
<text transform="matrix(1 0 0 1 252.5832 101.0528)" class="st8 st30 st31">MyWorld</text>
<path class="st14" d="M1213.7,95.4h-60.6c-6.9,0-12.5-5.6-12.5-12.5v-6c0-6.9,5.6-12.5,12.5-12.5h60.6c6.9,0,12.5,5.6,12.5,12.5v6
	C1226.1,89.8,1220.6,95.4,1213.7,95.4z"/>
<g>
	<rect x="242.2" y="412" class="st4" width="99.5" height="32.9"/>
	<text transform="matrix(1 0 0 1 242.2363 422.9024)" class="st7 st25 st29">Productivity</text>
</g>
<g>
	<rect x="242.2" y="464.3" class="st4" width="99.5" height="32.9"/>
	<text transform="matrix(1 0 0 1 242.2363 475.1435)" class="st7 st25 st29">Games</text>
</g>
<g>
	<rect x="242.2" y="384.1" class="st4" width="99.5" height="32.9"/>
	<text transform="matrix(1 0 0 1 242.2363 394.9596)" class="st15 st25 st29">All</text>
</g>
<g>
	<rect x="242.2" y="437.8" class="st4" width="99.5" height="16.5"/>
	<text transform="matrix(1 0 0 1 242.2363 448.6582)" class="st7 st25 st29">Parts</text>
</g>
<g>
	
		<image style="overflow:visible;opacity:5.000000e-02;" width="109" height="109" xlink:href="301BB6E7BDC51A01.png"  transform="matrix(0.24 0 0 0.24 206.4433 430.7938)">
	</image>
	<g>
		<circle class="st16" cx="218.5" cy="442.8" r="10"/>
	</g>
</g>
<g>
	
		<image style="overflow:visible;opacity:5.000000e-02;" width="109" height="109" xlink:href="301BB6E7BDC51A03.png"  transform="matrix(0.24 0 0 0.24 206.4433 457.6967)">
	</image>
	<g>
		<circle class="st17" cx="218.5" cy="469.7" r="10"/>
	</g>
</g>
<g>
	
		<image style="overflow:visible;opacity:5.000000e-02;" width="109" height="109" xlink:href="301BB6E7BDC51A00.png"  transform="matrix(0.24 0 0 0.24 206.4433 404.3081)">
	</image>
	<g>
		<circle class="st18" cx="218.5" cy="416.3" r="10"/>
	</g>
</g>
<g>
	
		<image style="overflow:visible;opacity:5.000000e-02;" width="109" height="109" xlink:href="301BB6E7BDC51A0E.png"  transform="matrix(0.24 0 0 0.24 206.4433 376.7491)">
	</image>
	<g>
		<g>
			<circle class="st11" cx="218.5" cy="388.8" r="9.1"/>
			<path class="st19" d="M218.5,398.8c-5.5,0-10-4.5-10-10c0-5.5,4.5-10,10-10c5.5,0,10,4.5,10,10
				C228.5,394.3,224,398.8,218.5,398.8z M218.5,380.6c-4.5,0-8.2,3.7-8.2,8.2c0,4.5,3.7,8.2,8.2,8.2s8.2-3.7,8.2-8.2
				C226.7,384.2,223,380.6,218.5,380.6z"/>
		</g>
	</g>
</g>
<g>
	<g>
		
			<image style="overflow:visible;opacity:0.15;" width="261" height="261" xlink:href="301BB6E7BDC51A05.png"  transform="matrix(0.24 0 0 0.24 540.7186 502)">
		</image>
		<g>
			<circle class="st16" cx="570" cy="531.2" r="25.2"/>
		</g>
	</g>
	<g>
		<g>
			<g>
				<g>
					<path class="st11" d="M581.5,526.5c1.2-2.5,0.5-5.2-1.8-6.8c-0.2-0.1-0.5-0.1-0.6,0c-2.3,1.6-3,4.3-1.8,6.8
						c0.1,0.2,0.3,0.3,0.5,0.3c1,0,2.1,0,3.1,0c0.8,0,0.8-1.2,0-1.2c-1,0-2.1,0-3.1,0c0.2,0.1,0.4,0.2,0.5,0.3
						c-0.9-1.9-0.3-4,1.4-5.1c-0.2,0-0.4,0-0.6,0c1.7,1.2,2.3,3.3,1.4,5.1C580.1,526.6,581.2,527.2,581.5,526.5z"/>
					<path class="st11" d="M581,526.8c0.8,0,0.8-1.2,0-1.2C580.2,525.6,580.2,526.8,581,526.8L581,526.8z"/>
				</g>
				<path class="st11" d="M568.8,542.6L568.8,542.6c-5,0-9.4-3.4-10.7-8.2c-0.8-2.9-0.4-5.8,1.1-8.4c1.5-2.6,3.9-4.4,6.7-5.1
					c0.2-0.1,0.4-0.1,0.7-0.2c1.7-0.3,3.4,0.2,4.6,1.5c0.9,1,1.4,2.3,1.3,3.7c-0.2,1.9-0.1,3.5,0.2,4.6c0.3,1.1,1,2.5,2.1,4.1
					c0.9,1.3,1.1,2.8,0.6,4.3c-0.5,1.5-1.6,2.6-3.1,3.1c-0.2,0.1-0.5,0.1-0.7,0.2C570.7,542.5,569.8,542.6,568.8,542.6z
					 M567.6,521.9c-0.2,0-0.5,0-0.7,0.1c-0.2,0-0.4,0.1-0.6,0.1c-2.5,0.7-4.7,2.3-6,4.6c-1.3,2.3-1.7,4.9-1,7.5
					c1.1,4.3,5,7.3,9.5,7.3h0c0.9,0,1.7-0.1,2.5-0.3c0.2-0.1,0.4-0.1,0.6-0.2c1.1-0.4,1.9-1.2,2.3-2.3c0.4-1.1,0.2-2.3-0.5-3.2
					c-1.2-1.7-2-3.2-2.3-4.5c-0.3-1.3-0.4-3-0.2-5c0.1-1-0.2-2-0.9-2.8C569.6,522.3,568.6,521.9,567.6,521.9z"/>
			</g>
			<path class="st11" d="M579.4,542.1c-0.7,0-1.3-0.5-1.4-1.3l-0.9-10.3c0-0.2,0-0.5,0.2-0.7c0.1-0.2,0.4-0.4,0.8-0.4
				c0.1,0,0.3,0,0.8,0c0.7,0,1.6,0,1.6,0h0c0.5,0,1.1,0.4,1.1,1.1l0,0.1l-0.9,10.3C580.8,541.6,580.2,542.1,579.4,542.1z
				 M578.3,530.6l0.9,10.1c0,0.1,0.1,0.1,0.2,0.1c0.1,0,0.2-0.1,0.2-0.1l0.9-10.1c-0.3,0-1,0-1.5,0
				C578.6,530.6,578.4,530.6,578.3,530.6z"/>
		</g>
		<path class="st11" d="M577.8,528.7c1.1,0,2.1,0,3.2,0c0.8,0,0.8-1.2,0-1.2c-1.1,0-2.1,0-3.2,0C577,527.5,577,528.7,577.8,528.7
			L577.8,528.7z"/>
		<circle class="st11" cx="565.4" cy="526.2" r="1.2"/>
		<circle class="st11" cx="562.4" cy="530.2" r="1.2"/>
		<circle class="st11" cx="563.7" cy="535.4" r="1.2"/>
		<circle class="st11" cx="568.4" cy="538.1" r="1.2"/>
	</g>
</g>
<g>
	<g>
		<g>
			
				<image style="overflow:visible;opacity:0.15;" width="264" height="264" xlink:href="301BB6E7BDC51A07.png"  transform="matrix(0.24 0 0 0.24 491.0684 326.8021)">
			</image>
			<g>
				<circle class="st18" cx="520.6" cy="356.4" r="25.6"/>
			</g>
		</g>
		<g>
			<g>
				<path class="st11" d="M519.6,368.6c-0.3,0-0.6-0.1-0.9-0.3c-0.5-0.3-0.7-0.8-0.7-1.4c0-1.9-0.8-3.8-2.2-5
					c-1.2-1.1-2.8-1.7-4.4-1.7c-0.3,0-0.6,0-0.9,0.1c-0.1,0-0.1,0-0.2,0c-0.5,0-1-0.2-1.3-0.6c-0.4-0.4-0.5-1-0.3-1.6
					c0.4-1.1,0.9-2.2,1.7-3.1c1.6-1.8,3.9-2.9,6.4-2.9c0.5,0,1,0,1.5,0.1l4.1-4.6c0.8-0.9,1.8-1.7,3-2.2l4.2-2
					c0.7-0.3,1.5-0.2,2.1,0.3c0.6,0.5,0.8,1.3,0.6,2.1l-1.4,4.4c-0.4,1.2-1,2.3-1.8,3.2l-4.1,4.6c0.9,2.8,0.2,5.9-1.7,8.1
					c-0.8,0.9-1.7,1.6-2.8,2.1C520,368.6,519.8,368.6,519.6,368.6z M511.3,358.6c2,0,4,0.7,5.5,2.1c1.8,1.6,2.8,3.8,2.8,6.2
					c0.8-0.4,1.6-0.9,2.2-1.6c1.7-1.9,2.1-4.5,1.3-6.9l-0.2-0.5l4.7-5.4c0.7-0.8,1.2-1.7,1.5-2.6l1.4-4.5c0-0.1,0-0.2-0.1-0.3
					c-0.1-0.1-0.2-0.1-0.3,0l-4.2,2c-0.9,0.4-1.7,1-2.4,1.8l-4.7,5.4l-0.5-0.1c-0.5-0.1-1.1-0.2-1.6-0.2c-1.9,0-3.8,0.8-5.1,2.3
					c-0.6,0.7-1.1,1.5-1.4,2.4C510.6,358.6,510.9,358.6,511.3,358.6z"/>
			</g>
			<path class="st11" d="M513.5,362.9c0-0.2-0.1-0.4-0.3-0.6c-0.2-0.1-0.4-0.2-0.6-0.2c-0.3,0-0.5,0.1-0.7,0.3l-2.9,3.3
				c-0.2,0.2-0.2,0.4-0.2,0.6c0,0.2,0.1,0.4,0.3,0.6c0.3,0.3,0.9,0.3,1.2-0.1l2.9-3.3C513.4,363.3,513.5,363.1,513.5,362.9z"/>
			<path class="st11" d="M515,364.2c-0.3,0-0.5,0.1-0.7,0.3l-2.9,3.3c-0.2,0.2-0.2,0.4-0.2,0.6c0,0.2,0.1,0.4,0.3,0.6
				c0.4,0.3,0.9,0.3,1.2-0.1l2.9-3.3c0.2-0.2,0.2-0.4,0.2-0.6c0-0.2-0.1-0.4-0.3-0.6C515.5,364.3,515.2,364.2,515,364.2z"/>
			<circle class="st11" cx="525.4" cy="350.9" r="1.5"/>
		</g>
	</g>
</g>
<rect x="419.3" y="292" class="st32" width="487.9" height="308"/>
<circle class="st5" cx="218.5" cy="388.8" r="3.9"/>
<g>
	<g class="st33">
		
			<image style="overflow:visible;opacity:0.15;" width="716" height="716" xlink:href="301BB6E7BDC51A04.png"  transform="matrix(0.24 0 0 0.24 612.0503 318.3079)">
		</image>
		<g>
			<circle class="st34" cx="696" cy="402.2" r="79.9"/>
		</g>
	</g>
	<g>
		
			<image style="overflow:visible;opacity:5.000000e-02;" width="109" height="109" xlink:href="F4016F7E6D7CC295.png"  transform="matrix(0.24 0 0 0.24 716.7762 316.8154)">
		</image>
		<g>
			<circle class="st21" cx="728.8" cy="328.8" r="10"/>
		</g>
	</g>
	<g>
		
			<image style="overflow:visible;opacity:5.000000e-02;" width="175" height="175" xlink:href="F4016F7E6D7CC2AB.png"  transform="matrix(0.24 0 0 0.24 751.7014 353.7155)">
		</image>
		<g>
			<circle class="st21" cx="771.6" cy="373.6" r="17.9"/>
		</g>
	</g>
	<g>
		
			<image style="overflow:visible;opacity:5.000000e-02;" width="109" height="109" xlink:href="F4016F7E6D7CC2AD.png"  transform="matrix(0.24 0 0 0.24 736.8195 450.036)">
		</image>
		<g>
			<circle class="st21" cx="748.8" cy="462.1" r="10"/>
		</g>
	</g>
	<g>
		<path class="st22" d="M777.3,372.5v11.9l3.6-1.6l2.4,5.6l2-1l-2.3-5.5l3.3-1.5L777.3,372.5z M777.3,372.5"/>
	</g>
	<g>
		<g>
			
				<image style="overflow:visible;opacity:0.15;" width="264" height="264" xlink:href="F4016F7E6D7CC2AF.png"  transform="matrix(0.24 0 0 0.24 666.0684 372.5948)">
			</image>
			<g>
				<circle class="st17" cx="695.6" cy="402.2" r="25.6"/>
			</g>
		</g>
		<g>
			<path class="st11" d="M710.5,405.3c-0.1-0.2-0.1-0.4-0.2-0.6c-0.1-0.4-0.2-0.8-0.3-1.2c-0.1-0.4-0.2-0.9-0.3-1.4
				c-0.1-0.4-0.2-0.8-0.3-1.2c-0.3-1.4-0.6-2.9-1.2-4c-0.5-1-1.4-1.8-2.5-2.4c-1.2-0.7-2.5-1-3.8-1c-0.7,0-1.4,0.1-2.1,0.3
				c-0.7,0.2-1.3,0.6-1.8,0.9c-0.4,0.3-0.8,0.5-1.2,0.6c-0.3,0-0.6,0.1-0.9,0.1c-0.8,0-1.3-0.2-1.9-0.6c-0.5-0.3-1.1-0.7-2-0.9
				c-0.6-0.2-1.4-0.2-1.9-0.2c-0.3,0-0.5,0-0.8,0c-2.3,0.2-4.4,1.3-5.4,2.9c-0.7,1.1-1,2.5-1.3,4c-0.1,0.5-0.2,1-0.3,1.4l-0.3,1.2
				c-0.1,0.5-0.2,1-0.3,1.4c-0.1,0.2-0.1,0.5-0.2,0.7c-0.2,0.7-0.4,1.5-0.4,2.2l0,0.1v0c0,1.2,0.6,2.4,1.6,3.2
				c0.9,0.8,2.2,1.3,3.4,1.3c0.7,0,1.5-0.2,2.2-0.5c1.1-0.5,1.9-1.4,2.4-2.2l0.1-0.1c0.1-0.2,0.3-0.4,0.4-0.6
				c0.2-0.3,0.5-0.8,0.7-0.9c0.3-0.1,0.6-0.1,1.1-0.1c0.4,0,0.8,0,1.2,0c0.5,0,1.1,0.1,1.7,0.1c0.5,0,1,0,1.5-0.1
				c0.5,0,1-0.1,1.5-0.1c0.6,0,0.9,0,1.1,0.1c0,0,0.2,0.1,0.4,0.3c0.2,0.2,0.4,0.5,0.6,0.7c0.1,0.1,0.2,0.3,0.3,0.4l0.2,0.2
				c0.5,0.7,1.2,1.7,2.5,2.1c0.6,0.2,1.2,0.3,1.9,0.3c1,0,2.1-0.3,2.9-0.9c0.9-0.6,1.5-1.3,1.8-2.2c0.2-0.5,0.3-0.9,0.3-1.5
				C710.9,406.7,710.7,406,710.5,405.3L710.5,405.3z M709.3,408.6c-0.6,1.5-2.7,2.7-4.7,1.9c-1-0.4-1.5-1.2-2-1.9
				c-0.4-0.5-1.1-1.7-1.9-2c-1.1-0.3-3.1-0.1-4.5-0.1c-1.8,0-3.3-0.2-4.5,0.1c-0.8,0.2-1.4,1.3-1.9,2c-0.5,0.7-1.1,1.5-2,1.8
				c-2.3,1-5-0.6-5.1-2.9c0-0.8,0.3-1.7,0.6-2.7c0.2-0.9,0.4-1.8,0.6-2.6c0.5-1.8,0.7-3.8,1.5-5c0.9-1.3,2.6-2.1,4.3-2.3
				c0.6-0.1,1.6,0,2.2,0.1c1.9,0.6,2.4,2,5.4,1.5c1.2-0.2,2-1.2,3.1-1.5c2.9-0.8,5.6,0.7,6.6,2.5c0.7,1.3,1,3.3,1.3,4.9
				c0.2,0.9,0.4,1.7,0.6,2.5C709.2,406.1,709.8,407.4,709.3,408.6L709.3,408.6z M705.3,400.6 M706.4,401.7c0,0.6-0.5,1-1,1
				c-0.6,0-1-0.5-1-1s0.5-1,1-1C705.9,400.7,706.4,401.2,706.4,401.7z M704.2,399.5c0,0.6-0.5,1-1,1c-0.6,0-1-0.5-1-1s0.5-1,1-1
				C703.8,398.5,704.2,399,704.2,399.5z M704.2,403.8c0,0.6-0.5,1-1,1c-0.6,0-1-0.5-1-1s0.5-1,1-1
				C703.8,402.8,704.2,403.2,704.2,403.8z M702.1,401.7c0,0.6-0.5,1-1,1c-0.6,0-1-0.5-1-1s0.5-1,1-1
				C701.6,400.7,702.1,401.2,702.1,401.7z M689.3,404.8L689.3,404.8c-0.6,0-1.1-0.4-1.1-1v-4.4c0-0.5,0.4-1,1-1h0.1c0.5,0,1,0.4,1,1
				v4.4C690.3,404.4,689.9,404.8,689.3,404.8z M686.1,401.7L686.1,401.7c0-0.6,0.4-1.1,1-1.1h4.4c0.5,0,1,0.4,1,1v0.1
				c0,0.5-0.4,1-1,1h-4.4C686.6,402.7,686.1,402.3,686.1,401.7z"/>
		</g>
	</g>
</g>
<g>
	<g>
		
			<image style="overflow:visible;opacity:0.15;" width="1275" height="871" xlink:href="F4016F7E6D7CC2AC.png"  transform="matrix(0.24 0 0 0.24 826.9991 266.8639)">
		</image>
		<g>
			<path class="st0" d="M1107.2,455.8H846.6c-4.2,0-7.6-3.4-7.6-7.6V284.5c0-4.2,3.4-7.6,7.6-7.6h260.6c4.2,0,7.6,3.4,7.6,7.6v163.7
				C1114.8,452.3,1111.4,455.8,1107.2,455.8z"/>
		</g>
	</g>
	<path class="st0" d="M1111.1,305.8c0-3-2.6-6.8-5.6-6.8H848.4c-0.9,0-2.2,0.9-3,1.3c-1.7,0.9-3.2,3.4-3.2,5.5v57.6V442v4.3
		c0,3.1,3.3,4.7,6.4,4.7h256.8c3.1,0,5.8-1.6,5.8-4.7v-9.2V305.8z"/>
	<g>
		<circle class="st5" cx="1102.5" cy="289.5" r="6.1"/>
		<g>
			<path class="st11" d="M1105.2,292.8c-0.2,0-0.3-0.1-0.4-0.2l-5.3-5.3c-0.2-0.2-0.2-0.6,0-0.9s0.6-0.2,0.9,0l5.3,5.3
				c0.2,0.2,0.2,0.6,0,0.9C1105.5,292.7,1105.4,292.8,1105.2,292.8z"/>
			<path class="st11" d="M1099.9,292.8c-0.2,0-0.3-0.1-0.4-0.2c-0.2-0.2-0.2-0.6,0-0.9l5.3-5.3c0.2-0.2,0.6-0.2,0.9,0
				c0.2,0.2,0.2,0.6,0,0.9l-5.3,5.3C1100.2,292.7,1100.1,292.8,1099.9,292.8z"/>
		</g>
	</g>
	<rect x="866.6" y="288.6" class="st4" width="103.8" height="10.3"/>
	<text transform="matrix(1 0 0 1 866.6063 295.2419)"><tspan x="0" y="0" class="st11 st35 st36">Pon</tspan><tspan x="18.2" y="0" class="st11 st35 st36 st37">g</tspan></text>
	<path class="st0" d="M1104.2,449.4h-99.9c-3.8,0-6.9-3.1-6.9-6.9v-4.7c0-3.8,3.1-6.9,6.9-6.9h99.9c3.8,0,6.9,3.1,6.9,6.9v4.7
		C1111.1,446.3,1108,449.4,1104.2,449.4z"/>
	<g>
		<g>
			<path class="st11" d="M1089.2,445.9l-0.8-0.8c-2.9-2.6-4.8-4.3-4.8-6.4c0-1.7,1.3-3.1,3.1-3.1c1,0,1.9,0.4,2.5,1.2
				c0.6-0.7,1.6-1.2,2.5-1.2c1.7,0,3.1,1.3,3.1,3.1c0,2.1-1.9,3.9-4.8,6.4L1089.2,445.9z M1089.2,445.9"/>
		</g>
	</g>
	<g>
		<rect x="1009.6" y="436.6" class="st4" width="19.1" height="13.9"/>
		<text transform="matrix(1 0 0 1 1009.6199 444.0431)" class="st11 st35 st38">121</text>
	</g>
	<g>
		<rect x="1055.5" y="436.6" class="st4" width="23.1" height="13.9"/>
		<text transform="matrix(1 0 0 1 1055.5487 444.0431)" class="st11 st35 st38">1134</text>
	</g>
	<g>
		<g>
			<path class="st11" d="M1040,436.6c-4.7,0-7.2,3.5-7.2,4c0,0.5,2.5,4,7.2,4c4.7,0,7.2-3.5,7.2-4
				C1047.2,440.1,1044.7,436.6,1040,436.6L1040,436.6z M1040,443.7c-1.8,0-3.2-1.4-3.2-3.1c0-1.7,1.4-3.1,3.2-3.1
				c1.8,0,3.2,1.4,3.2,3.1C1043.2,442.4,1041.8,443.7,1040,443.7L1040,443.7z M1041.6,440.6c0,0.9-0.7,1.5-1.6,1.5
				c-0.9,0-1.6-0.7-1.6-1.5c0-0.9,0.7-1.5,1.6-1.5c0.5,0-0.3,1.2,0,1.5C1040.3,440.9,1041.6,440.3,1041.6,440.6L1041.6,440.6z
				 M1041.6,440.6"/>
		</g>
	</g>
	<g>
		<circle class="st19" cx="856.7" cy="439.5" r="8.9"/>
		<g>
			<path class="st39" d="M856.7,429.6c-5.5,0-9.9,4.4-9.9,9.9s4.4,9.9,9.9,9.9c5.5,0,9.9-4.4,9.9-9.9S862.2,429.6,856.7,429.6
				L856.7,429.6z M856.7,432.6c1.8,0,3.3,1.5,3.3,3.3c0,1.8-1.5,3.3-3.3,3.3c-1.8,0-3.3-1.5-3.3-3.3
				C853.4,434.1,854.9,432.6,856.7,432.6L856.7,432.6z M856.7,446.8c-1.8,0-3.5-0.7-4.7-1.7c-0.3-0.3-0.5-0.7-0.5-1.1
				c0-1.8,1.5-3.3,3.3-3.3h3.8c1.8,0,3.3,1.5,3.3,3.3c0,0.4-0.2,0.8-0.5,1.1C860.2,446.2,858.5,446.8,856.7,446.8L856.7,446.8z
				 M856.7,446.8"/>
		</g>
	</g>
	<rect x="874.7" y="436.4" class="st4" width="124.3" height="18.4"/>
	<text transform="matrix(1 0 0 1 874.6609 443.7814)" class="st11 st35 st38">Camila</text>
	<g>
		<circle class="st17" cx="852" cy="292.3" r="8"/>
		<g>
			<path class="st11" d="M856.7,293.3c0-0.1,0-0.1-0.1-0.2c0-0.1-0.1-0.2-0.1-0.4c0-0.1-0.1-0.3-0.1-0.4c0-0.1-0.1-0.2-0.1-0.4
				c-0.1-0.4-0.2-0.9-0.4-1.3c-0.2-0.3-0.4-0.6-0.8-0.8c-0.4-0.2-0.8-0.3-1.2-0.3c-0.2,0-0.4,0-0.7,0.1c-0.2,0.1-0.4,0.2-0.6,0.3
				c-0.1,0.1-0.3,0.2-0.4,0.2c-0.1,0-0.2,0-0.3,0c-0.3,0-0.4-0.1-0.6-0.2c-0.2-0.1-0.4-0.2-0.6-0.3c-0.2-0.1-0.4-0.1-0.6-0.1
				c-0.1,0-0.2,0-0.2,0c-0.7,0.1-1.4,0.4-1.7,0.9c-0.2,0.4-0.3,0.8-0.4,1.3c0,0.1-0.1,0.3-0.1,0.4l-0.1,0.4c0,0.2-0.1,0.3-0.1,0.5
				c0,0.1,0,0.1-0.1,0.2c-0.1,0.2-0.1,0.5-0.1,0.7l0,0v0c0,0.4,0.2,0.7,0.5,1c0.3,0.3,0.7,0.4,1.1,0.4c0.2,0,0.5,0,0.7-0.1
				c0.4-0.2,0.6-0.4,0.8-0.7l0,0c0-0.1,0.1-0.1,0.1-0.2c0.1-0.1,0.2-0.2,0.2-0.3c0.1,0,0.2,0,0.3,0c0.1,0,0.3,0,0.4,0
				c0.2,0,0.3,0,0.5,0c0.2,0,0.3,0,0.5,0c0.2,0,0.3,0,0.5,0c0.2,0,0.3,0,0.3,0c0,0,0,0,0.1,0.1c0.1,0.1,0.1,0.2,0.2,0.2
				c0,0,0.1,0.1,0.1,0.1l0.1,0.1c0.2,0.2,0.4,0.5,0.8,0.7c0.2,0.1,0.4,0.1,0.6,0.1c0.3,0,0.7-0.1,0.9-0.3c0.3-0.2,0.5-0.4,0.6-0.7
				c0.1-0.1,0.1-0.3,0.1-0.5C856.8,293.8,856.8,293.5,856.7,293.3L856.7,293.3z M856.3,294.3c-0.2,0.5-0.9,0.8-1.5,0.6
				c-0.3-0.1-0.5-0.4-0.6-0.6c-0.1-0.2-0.3-0.5-0.6-0.6c-0.3-0.1-1,0-1.4,0c-0.6,0-1-0.1-1.4,0c-0.3,0.1-0.4,0.4-0.6,0.6
				c-0.2,0.2-0.3,0.5-0.6,0.6c-0.7,0.3-1.6-0.2-1.6-0.9c0-0.2,0.1-0.5,0.2-0.8c0.1-0.3,0.1-0.6,0.2-0.8c0.1-0.6,0.2-1.2,0.5-1.6
				c0.3-0.4,0.8-0.7,1.4-0.7c0.2,0,0.5,0,0.7,0c0.6,0.2,0.8,0.6,1.7,0.5c0.4-0.1,0.6-0.4,1-0.5c0.9-0.3,1.8,0.2,2.1,0.8
				c0.2,0.4,0.3,1.1,0.4,1.5c0.1,0.3,0.1,0.5,0.2,0.8C856.3,293.5,856.5,294,856.3,294.3L856.3,294.3z M855,291.8 M855.4,292.2
				c0,0.2-0.1,0.3-0.3,0.3s-0.3-0.1-0.3-0.3s0.1-0.3,0.3-0.3S855.4,292,855.4,292.2z M854.7,291.5c0,0.2-0.1,0.3-0.3,0.3
				s-0.3-0.1-0.3-0.3c0-0.2,0.1-0.3,0.3-0.3S854.7,291.3,854.7,291.5z M854.7,292.8c0,0.2-0.1,0.3-0.3,0.3s-0.3-0.1-0.3-0.3
				c0-0.2,0.1-0.3,0.3-0.3S854.7,292.7,854.7,292.8z M854,292.2c0,0.2-0.1,0.3-0.3,0.3s-0.3-0.1-0.3-0.3s0.1-0.3,0.3-0.3
				S854,292,854,292.2z M850.1,293.2h-0.2c-0.1,0-0.2-0.1-0.2-0.2v-1.5c0-0.1,0.1-0.2,0.2-0.2h0.2c0.1,0,0.2,0.1,0.2,0.2v1.5
				C850.3,293.1,850.2,293.2,850.1,293.2z M849,292.2v-0.2c0-0.1,0.1-0.2,0.2-0.2h1.5c0.1,0,0.2,0.1,0.2,0.2v0.2
				c0,0.1-0.1,0.2-0.2,0.2h-1.5C849.1,292.5,849,292.4,849,292.2z"/>
		</g>
	</g>
	<g>
		<defs>
			<path id="SVGID_19_" d="M1106.8,307.2H847.1c-2.3,0-4.1,1.8-4.1,4.1v109.4c0,2.3,1.8,4.1,4.1,4.1h259.8c2.3,0,4.1-1.8,4.1-4.1
				V311.4C1111,309.1,1109.1,307.2,1106.8,307.2z"/>
		</defs>
		<clipPath id="SVGID_8_">
			<use xlink:href="#SVGID_19_"  style="overflow:visible;"/>
		</clipPath>
		<g style="clip-path:url(#SVGID_8_);">
			<g>
				<path d="M977.1,442c-44.4,0-88.8,0-133.2,0c-0.8,0-1-0.1-1-1c0-44.2,0-88.4,0-132.5c0-0.8,0.2-0.9,0.9-0.9
					c88.8,0,177.7,0,266.5,0c0.7,0,1,0.1,1,0.9c0,44.2,0,88.4,0,132.6c0,0.7-0.2,0.9-0.9,0.9C1066,442,1021.6,442,977.1,442z"/>
				<path class="st41" d="M848.7,390.8c0-4.5,0-9,0-13.5c0-0.7,0.2-0.9,0.9-0.9c2.7,0,5.3,0,8,0c0.6,0,0.8,0.2,0.8,0.8
					c0,9.1,0,18.2,0,27.3c0,0.6-0.2,0.8-0.8,0.8c-2.7,0-5.4,0-8.1,0c-0.6,0-0.8-0.2-0.8-0.8C848.7,399.9,848.7,395.3,848.7,390.8z"
					/>
				<path class="st41" d="M1096.4,393c0-4.5,0-9,0-13.4c0-0.7,0.2-0.9,0.9-0.9c2.7,0,5.3,0,8,0c0.6,0,0.8,0.2,0.8,0.8
					c0,9.1,0,18.2,0,27.3c0,0.6-0.2,0.8-0.8,0.8c-2.7,0-5.4,0-8.1,0c-0.6,0-0.8-0.2-0.8-0.8C1096.4,402.1,1096.4,397.5,1096.4,393z"
					/>
				<path class="st41" d="M965.8,432c4.4,0,8.9,0,13.3,0c0.7,0,0.9,0.2,0.9,0.9c-0.1,2.2,0,4.4,0,6.5c0,0.5-0.1,0.7-0.7,0.7
					c-9,0-18,0-27.1,0c-0.5,0-0.7-0.1-0.7-0.7c0-2.2,0-4.4,0-6.6c0-0.6,0.2-0.8,0.8-0.8C956.8,432.1,961.3,432,965.8,432z"/>
				<path class="st41" d="M1000.6,439.9c-0.2,0.4-0.5,0.2-0.8,0.2c-5.7,0-11.4,0-17.1,0c-0.6,0-0.8-0.1-0.8-0.8c0-2.2,0-4.4,0-6.6
					c0-0.5,0.1-0.7,0.7-0.7c9,0,18,0,27.1,0c0.5,0,0.7,0.1,0.7,0.7c0,2.3,0,4.5,0,6.8c0,0.3,0,0.6-0.5,0.6c-3,0-5.9,0-8.9,0
					c-0.1,0-0.1-0.1-0.2-0.2c0.1-0.2,0.1-0.5,0.1-0.8c0-0.7,0.3-1,1-0.9c0.7,0.1,1.2-0.2,1.4-0.8c0.3-0.7,0.1-1.8-0.4-2.2
					c-0.6-0.5-1.2-0.2-1.8-0.1c-0.4,0.1-0.3,0.4-0.3,0.7c0,1,0,1.9,0,2.9C1000.8,439.2,1000.8,439.6,1000.6,439.9z"/>
				<path class="st41" d="M976.3,378.7c-2.8,0-4.7-2.1-4.7-4.9c0-2.8,2.1-4.7,4.9-4.7c2.7,0,4.7,2.1,4.7,4.9
					C981.2,376.7,979.1,378.7,976.3,378.7z"/>
				<path class="st42" d="M990.2,320c0,1.2-0.1,2.1-0.6,3.1c-0.5,0.9-1.2,1.3-2.3,1.3c-1,0-1.8-0.5-2.1-1.4c-0.7-1.8-0.8-3.7,0-5.6
					c0.4-1,1.2-1.5,2.3-1.5c1.1,0,1.8,0.6,2.2,1.5C990.1,318.3,990.2,319.2,990.2,320z"/>
				<path class="st42" d="M976.4,320c0,1.2-0.1,2.1-0.5,3c-0.5,0.9-1.3,1.3-2.3,1.3c-1,0-1.8-0.5-2.1-1.4c-0.7-1.8-0.7-3.7,0-5.6
					c0.4-1,1.2-1.5,2.3-1.5c1.1,0,1.8,0.5,2.3,1.5C976.4,318.3,976.4,319.2,976.4,320z"/>
				<path class="st43" d="M1000.6,439.9c0-1.6,0-3.2-0.1-4.8c0-0.1,0-0.4,0.2-0.4c0.8,0.4,1.8-0.5,2.5,0.3c0.6,0.6,0.7,1.3,0.5,2.1
					c-0.3,1.3-1,1.7-2.4,1.2c-0.4,0.4,0.4,1.2-0.5,1.5C1000.7,439.9,1000.6,439.9,1000.6,439.9z"/>
				<path class="st44" d="M980.4,320.7c-0.3,0-0.6,0-1,0c-0.4,0-0.6-0.1-0.6-0.6c0-0.5,0.1-0.7,0.6-0.7c0.7,0,1.3,0,2,0
					c0.5,0,0.7,0.1,0.7,0.6c0,0.5-0.2,0.7-0.7,0.6C981.1,320.6,980.8,320.7,980.4,320.7z"/>
				<path class="st45" d="M967.4,434.3c1.2,0,1.4,0.3,1.5,1.5c0,0.1,0,0.3,0,0.4c-0.2,0.7,0.3,2-0.2,1.9c-0.8-0.1-1.4,0.3-2.1,0.2
					c-0.6-0.1-0.9-0.4-1-1c-0.1-0.6,0.2-1,0.8-1.2c0.4-0.1,0.9-0.2,1.3-0.2c0.2,0,0.5,0,0.5-0.3c0-0.3-0.2-0.5-0.4-0.6
					c-0.5-0.1-1-0.2-1.3,0.4c-0.2,0.3-0.4,0.3-0.6,0.1c-0.2-0.2,0-0.4,0.1-0.6C966.3,434.4,966.9,434.3,967.4,434.3z"/>
				<path class="st45" d="M961.6,438.2c-0.6,0-1.1-0.1-1.4-0.6c-0.1-0.2-0.3-0.4,0-0.6c0.2-0.1,0.4-0.2,0.6,0.1
					c0.1,0.3,0.3,0.5,0.7,0.5c0.4,0.1,0.8,0,1-0.4c0.1-0.5-0.3-0.5-0.6-0.6c-0.3-0.1-0.5-0.2-0.8-0.2c-0.6-0.2-0.8-0.5-0.8-1.1
					c0.1-0.6,0.5-0.9,1-0.9c0.6,0,1.2-0.1,1.6,0.5c0.1,0.2,0.2,0.4,0,0.5c-0.2,0.1-0.4,0.2-0.6,0c-0.1-0.1-0.2-0.3-0.4-0.4
					c-0.4-0.1-0.9-0.2-1,0.2c-0.2,0.5,0.4,0.5,0.6,0.6c0.1,0.1,0.3,0.1,0.5,0.1c0.7,0.2,1.3,0.4,1.1,1.3
					C962.9,438.1,962.3,438.2,961.6,438.2z"/>
				<path class="st46" d="M964.6,433.1c0.2,0.5-0.2,1.2,0.6,1.3c0.1,0,0.1,0.3,0,0.4c-0.7,0.8-0.7,2,0,2.8c0.1,0.1,0.1,0.3,0.1,0.4
					c0,0-0.2,0.1-0.3,0.1c-0.6,0.1-1-0.1-1-0.8c0-0.6,0-1.2,0-1.8c0-0.3,0.1-0.6-0.3-0.7c-0.1,0-0.2-0.3-0.2-0.3
					C964.2,434.4,963.8,433.4,964.6,433.1z"/>
				<path class="st47" d="M971.8,434.5c0.3-0.1,0.7-0.1,0.6-0.7c-0.1-0.4,0.2-0.5,0.6-0.6c0.2,0.5-0.2,1.2,0.6,1.3
					c0.1,0,0.2,0.3-0.1,0.4c-0.7,0.5-0.7,2.2-0.1,2.6c0.2,0.1,0.3,0.2,0.3,0.4c0,0.3-0.3,0.2-0.4,0.2c-0.6,0-0.9-0.2-0.9-0.8
					c0-0.6,0-1.2,0-1.8c0.1-0.5-0.2-0.7-0.6-0.8C971.7,434.7,971.7,434.6,971.8,434.5z"/>
				<path class="st48" d="M971.8,434.5c0,0.1,0,0.2,0,0.3c0,0.1,0,0.2,0,0.2c-1.5,0-1.3,1.1-1.3,2c0,0.3,0,0.6,0,0.9
					c0,0.2-0.1,0.4-0.3,0.3c-0.3,0-0.3-0.2-0.3-0.4c0-1,0-2.1,0-3.1c0-0.1,0-0.3,0.1-0.3C970.6,434.7,971.2,434,971.8,434.5z"/>
				<path class="st45" d="M996.3,436.6c0-1.3,0.6-1.9,1.7-1.9c1.2,0,1.8,0.7,1.8,2c0,1.2-0.6,1.9-1.8,1.9
					C996.9,438.6,996.3,437.9,996.3,436.6z"/>
				<path class="st45" d="M992.3,434.7c0.4,0,0.8,0.1,1.1,0.5c0.1,0.2,0.3,0.4,0.1,0.6c-0.2,0.1-0.4,0.2-0.6-0.1
					c-0.1-0.1-0.2-0.3-0.3-0.3c-0.4-0.1-0.9-0.2-1.1,0.2c-0.2,0.5,0.4,0.5,0.7,0.6c0.3,0.1,0.5,0.2,0.8,0.2c0.5,0.1,0.8,0.5,0.8,1
					c0,0.6-0.4,1-0.9,1.1c-0.8,0.1-1.6,0.2-2-0.6c-0.1-0.2-0.3-0.4,0-0.6c0.2-0.1,0.4-0.1,0.5,0.2c0.2,0.3,0.5,0.5,0.9,0.5
					c0.3,0,0.7-0.1,0.8-0.4c0.1-0.4-0.3-0.5-0.6-0.6c-0.2,0-0.4-0.1-0.5-0.2c-0.7-0.1-1.2-0.5-1.1-1.3
					C991,434.8,991.6,434.7,992.3,434.7z"/>
				<path class="st47" d="M995.2,433.6c0.2,0.5-0.2,1.2,0.7,1.4c0.1,0,0.1,0.3-0.1,0.4c-0.7,0.6-0.8,2.2,0,2.7
					c0.2,0.1,0.2,0.3,0.2,0.5c0,0.2-0.2,0.2-0.4,0.2c-0.6,0.1-1-0.2-1-0.9c0-0.5,0-1,0-1.5c0-0.3,0.2-0.8-0.3-0.9
					c0,0-0.1-0.1-0.1-0.1C994.8,434.8,994.3,433.8,995.2,433.6z"/>
				<path class="st49" d="M988.9,320.1c0,0.8,0,1.5-0.3,2.3c-0.2,0.5-0.6,0.9-1.2,0.9c-0.6,0-1-0.4-1.2-0.9c-0.4-1.5-0.4-3,0-4.5
					c0.2-0.6,0.6-1,1.2-0.9c0.6,0,1,0.4,1.2,0.9C988.9,318.6,988.9,319.4,988.9,320.1z"/>
				<path class="st49" d="M972.2,320.1c-0.1-0.8,0.1-1.4,0.3-2.1c0.2-0.6,0.6-1,1.2-1.1c0.6,0,1.1,0.4,1.2,1c0.4,1.4,0.4,2.9,0,4.3
					c-0.2,0.6-0.6,1-1.2,1.1c-0.7,0-1.1-0.5-1.3-1.1C972.2,321.5,972.1,320.8,972.2,320.1z"/>
				<path class="st50" d="M1001.1,436.8c0-0.9,0.2-1.5,1-1.5c0.8,0,1,0.7,1,1.4c0,0.7-0.2,1.4-1,1.3
					C1001.3,438,1001.1,437.3,1001.1,436.8z"/>
				<path class="st51" d="M966.9,437.6c-0.3,0-0.7-0.1-0.6-0.5c0.2-0.7,0.9-0.5,1.4-0.7c0.3-0.1,0.4-0.1,0.4,0.3
					C968.1,437.4,967.7,437.7,966.9,437.6z"/>
				<path class="st50" d="M999.1,436.9c0,0.5-0.3,1.1-1.1,1.1c-0.6,0-1.1-0.6-1.1-1.4c0-0.7,0.3-1.3,1.1-1.3
					C998.7,435.2,999.1,435.9,999.1,436.9z"/>
			</g>
		</g>
	</g>
	<path class="st12" d="M1104.2,424.9H849.7c-3.7,0-6.8-3-6.8-6.8V314.4c0-3.7,3-6.8,6.8-6.8h254.5c3.7,0,6.8,3,6.8,6.8v103.6
		C1111,421.8,1107.9,424.9,1104.2,424.9z"/>
</g>
</svg>
