<?xml version="1.0" encoding="utf-8"?>
<!-- Generator: Adobe Illustrator 19.1.0, SVG Export Plug-In . SVG Version: 6.00 Build 0)  -->
<svg version="1.1" id="Layer_1" xmlns="http://www.w3.org/2000/svg" xmlns:xlink="http://www.w3.org/1999/xlink" x="0px" y="0px"
	 viewBox="0 0 1280 800" style="enable-background:new 0 0 1280 800;" xml:space="preserve">
<style type="text/css">
	.st0{opacity:0.2;fill:#F1F1F1;}
	.st1{opacity:0.5;fill:#F1F1F1;}
	.st2{fill:#E6E7E8;}
	.st3{opacity:0.2;fill:#EE4036;stroke:#231F20;stroke-width:0.5;stroke-miterlimit:10;}
	.st4{opacity:0.8;fill:#EE4036;stroke:#231F20;stroke-width:0.5;stroke-miterlimit:10;}
	.st5{fill:none;stroke:#231F20;stroke-width:0.5;stroke-miterlimit:10;}
	.st6{opacity:0.2;}
	.st7{opacity:0.25;}
	.st8{fill:#4D4E4E;}
	.st9{opacity:0.8;fill:#F37C20;}
	.st10{opacity:0.8;fill:#4D4E4E;}
	.st11{fill:#F37C20;}
	.st12{opacity:0.5;}
	.st13{opacity:0.8;}
	.st14{fill:#FFFFFF;}
	.st15{fill:#FFFFFF;stroke:#4D4E4E;stroke-width:0.75;stroke-miterlimit:10;}
	.st16{fill:none;}
	.st17{font-family:'Roboto-Regular';}
	.st18{font-size:16.6581px;}
	.st19{opacity:0.8;fill:#4D4E4E;stroke:#4D4E4E;stroke-miterlimit:10;}
	.st20{font-size:6.5478px;}
	.st21{font-size:6.5368px;}
	.st22{fill:#231F20;}
	.st23{font-family:'BloggerSans';}
	.st24{font-size:9px;}
	.st25{fill:#59595C;}
	.st26{font-size:12px;}
	.st27{font-size:10px;}
	.st28{opacity:0.2;fill:none;stroke:#221F1F;stroke-miterlimit:10;}
	.st29{fill:none;stroke:#F6921E;stroke-miterlimit:10;}
	.st30{fill:#F6921E;}
</style>
<rect x="99.7" y="196.6" class="st0" width="408.6" height="408.6"/>
<rect x="537.9" y="195.3" class="st1" width="408.6" height="408.6"/>
<rect x="206.1" y="308.6" class="st2" width="200.7" height="200.7"/>
<rect x="644.2" y="308.6" class="st2" width="200.7" height="200.7"/>
<rect x="975.9" y="195.3" class="st1" width="204.3" height="408.6"/>
<circle class="st3" cx="206.1" cy="308.6" r="4.2"/>
<circle class="st4" cx="644.2" cy="308.6" r="4.2"/>
<g>
	<g>
		<line class="st5" x1="644.2" y1="325.1" x2="644.2" y2="334.8"/>
		<line class="st5" x1="644.2" y1="344.5" x2="644.2" y2="354.2"/>
		<line class="st5" x1="644.2" y1="363.9" x2="644.2" y2="373.6"/>
		<line class="st5" x1="644.2" y1="383.3" x2="644.2" y2="393"/>
		<line class="st5" x1="644.2" y1="402.7" x2="644.2" y2="412.3"/>
		<line class="st5" x1="644.2" y1="422" x2="644.2" y2="431.7"/>
		<line class="st5" x1="644.2" y1="441.4" x2="644.2" y2="451.1"/>
		<line class="st5" x1="644.2" y1="460.8" x2="644.2" y2="470.5"/>
		<line class="st5" x1="644.2" y1="480.2" x2="644.2" y2="489.9"/>
		<line class="st5" x1="644.2" y1="499.6" x2="644.2" y2="509.2"/>
	</g>
	<g>
		<line class="st5" x1="844.9" y1="325.1" x2="844.9" y2="334.8"/>
		<line class="st5" x1="844.9" y1="308.6" x2="844.9" y2="318.3"/>
		<line class="st5" x1="844.9" y1="344.5" x2="844.9" y2="354.2"/>
		<line class="st5" x1="844.9" y1="363.9" x2="844.9" y2="373.6"/>
		<line class="st5" x1="844.9" y1="383.3" x2="844.9" y2="393"/>
		<line class="st5" x1="844.9" y1="402.7" x2="844.9" y2="412.3"/>
		<line class="st5" x1="844.9" y1="422" x2="844.9" y2="431.7"/>
		<line class="st5" x1="844.9" y1="441.4" x2="844.9" y2="451.1"/>
		<line class="st5" x1="844.9" y1="460.8" x2="844.9" y2="470.5"/>
		<line class="st5" x1="844.9" y1="480.2" x2="844.9" y2="489.9"/>
		<line class="st5" x1="844.9" y1="499.6" x2="844.9" y2="509.2"/>
	</g>
	<g>
		<line class="st5" x1="828.4" y1="509.2" x2="818.7" y2="509.2"/>
		<line class="st5" x1="844.9" y1="509.2" x2="835.2" y2="509.2"/>
		<line class="st5" x1="809" y1="509.2" x2="799.3" y2="509.2"/>
		<line class="st5" x1="789.6" y1="509.2" x2="779.9" y2="509.2"/>
		<line class="st5" x1="770.2" y1="509.2" x2="760.5" y2="509.2"/>
		<line class="st5" x1="750.8" y1="509.2" x2="741.1" y2="509.2"/>
		<line class="st5" x1="731.4" y1="509.2" x2="721.8" y2="509.2"/>
		<line class="st5" x1="712.1" y1="509.2" x2="702.4" y2="509.2"/>
		<line class="st5" x1="692.7" y1="509.2" x2="683" y2="509.2"/>
		<line class="st5" x1="673.3" y1="509.2" x2="663.6" y2="509.2"/>
		<line class="st5" x1="653.9" y1="509.2" x2="644.2" y2="509.2"/>
	</g>
	<g>
		<line class="st5" x1="828.4" y1="308.6" x2="818.7" y2="308.6"/>
		<line class="st5" x1="844.9" y1="308.6" x2="835.2" y2="308.6"/>
		<line class="st5" x1="809" y1="308.6" x2="799.3" y2="308.6"/>
		<line class="st5" x1="789.6" y1="308.6" x2="779.9" y2="308.6"/>
		<line class="st5" x1="770.2" y1="308.6" x2="760.5" y2="308.6"/>
		<line class="st5" x1="750.8" y1="308.6" x2="741.1" y2="308.6"/>
		<line class="st5" x1="731.4" y1="308.6" x2="721.8" y2="308.6"/>
		<line class="st5" x1="712.1" y1="308.6" x2="702.4" y2="308.6"/>
		<line class="st5" x1="692.7" y1="308.6" x2="683" y2="308.6"/>
		<line class="st5" x1="673.3" y1="308.6" x2="663.6" y2="308.6"/>
	</g>
</g>
<g class="st6">
	<g>
		<line class="st5" x1="206.3" y1="325.1" x2="206.3" y2="334.8"/>
		<line class="st5" x1="206.3" y1="344.5" x2="206.3" y2="354.2"/>
		<line class="st5" x1="206.3" y1="363.9" x2="206.3" y2="373.6"/>
		<line class="st5" x1="206.3" y1="383.3" x2="206.3" y2="393"/>
		<line class="st5" x1="206.3" y1="402.7" x2="206.3" y2="412.3"/>
		<line class="st5" x1="206.3" y1="422" x2="206.3" y2="431.7"/>
		<line class="st5" x1="206.3" y1="441.4" x2="206.3" y2="451.1"/>
		<line class="st5" x1="206.3" y1="460.8" x2="206.3" y2="470.5"/>
		<line class="st5" x1="206.3" y1="480.2" x2="206.3" y2="489.9"/>
		<line class="st5" x1="206.3" y1="499.6" x2="206.3" y2="509.2"/>
	</g>
	<g>
		<line class="st5" x1="407" y1="325.1" x2="407" y2="334.8"/>
		<line class="st5" x1="407" y1="308.6" x2="407" y2="318.3"/>
		<line class="st5" x1="407" y1="344.5" x2="407" y2="354.2"/>
		<line class="st5" x1="407" y1="363.9" x2="407" y2="373.6"/>
		<line class="st5" x1="407" y1="383.3" x2="407" y2="393"/>
		<line class="st5" x1="407" y1="402.7" x2="407" y2="412.3"/>
		<line class="st5" x1="407" y1="422" x2="407" y2="431.7"/>
		<line class="st5" x1="407" y1="441.4" x2="407" y2="451.1"/>
		<line class="st5" x1="407" y1="460.8" x2="407" y2="470.5"/>
		<line class="st5" x1="407" y1="480.2" x2="407" y2="489.9"/>
		<line class="st5" x1="407" y1="499.6" x2="407" y2="509.2"/>
	</g>
	<g>
		<line class="st5" x1="390.4" y1="509.2" x2="380.7" y2="509.2"/>
		<line class="st5" x1="407" y1="509.2" x2="397.3" y2="509.2"/>
		<line class="st5" x1="371" y1="509.2" x2="361.3" y2="509.2"/>
		<line class="st5" x1="351.6" y1="509.2" x2="341.9" y2="509.2"/>
		<line class="st5" x1="332.2" y1="509.2" x2="322.5" y2="509.2"/>
		<line class="st5" x1="312.9" y1="509.2" x2="303.2" y2="509.2"/>
		<line class="st5" x1="293.5" y1="509.2" x2="283.8" y2="509.2"/>
		<line class="st5" x1="274.1" y1="509.2" x2="264.4" y2="509.2"/>
		<line class="st5" x1="254.7" y1="509.2" x2="245" y2="509.2"/>
		<line class="st5" x1="235.3" y1="509.2" x2="225.6" y2="509.2"/>
		<line class="st5" x1="215.9" y1="509.2" x2="206.3" y2="509.2"/>
	</g>
	<g>
		<line class="st5" x1="390.4" y1="308.6" x2="380.7" y2="308.6"/>
		<line class="st5" x1="407" y1="308.6" x2="397.3" y2="308.6"/>
		<line class="st5" x1="371" y1="308.6" x2="361.3" y2="308.6"/>
		<line class="st5" x1="351.6" y1="308.6" x2="341.9" y2="308.6"/>
		<line class="st5" x1="332.2" y1="308.6" x2="322.5" y2="308.6"/>
		<line class="st5" x1="312.9" y1="308.6" x2="303.2" y2="308.6"/>
		<line class="st5" x1="293.5" y1="308.6" x2="283.8" y2="308.6"/>
		<line class="st5" x1="274.1" y1="308.6" x2="264.4" y2="308.6"/>
		<line class="st5" x1="254.7" y1="308.6" x2="245" y2="308.6"/>
		<line class="st5" x1="235.3" y1="308.6" x2="225.6" y2="308.6"/>
	</g>
</g>
<g class="st7">
	<g>
		<path class="st8" d="M319.6,497.7L319.6,497.7L319.6,497.7z"/>
		<path class="st9" d="M306.8,330.1c10.2,0,20,2,29,5.6l14.3-34.4c-27-11-58-11.7-87,0l14.3,34.6
			C286.5,332.1,296.4,330.1,306.8,330.1z"/>
		<path class="st10" d="M228.4,408.5c0-10.3,2-20.2,5.6-29.2l-34.6-14.4c-11,27-11.7,58,0,87l34.6-14.3
			C230.4,428.6,228.4,418.8,228.4,408.5z"/>
		<path class="st10" d="M378.9,377.5l34.2-14.1c-12.2-28.8-34.7-50.2-61.5-61.5l-14.2,34.4C356,344.1,371,359,378.9,377.5z"/>
		<path class="st10" d="M275.9,336.4l-14.4-34.5c-28.8,12.2-50.2,34.7-61.5,61.5l34.7,14.4C242.6,359.2,257.4,344.4,275.9,336.4z"/>
		<path class="st10" d="M413.6,364.9l-34.1,14.1c3.7,9.1,5.7,19,5.7,29.4c0,10.4-2,20.3-5.7,29.4l34.1,14.1
			C424.6,425,425.5,393.9,413.6,364.9z"/>
		<path class="st9" d="M337.4,480.8l14.2,34.2c28.8-12.2,50.2-34.7,61.5-61.5L379,439.4C371,458,356.1,472.9,337.4,480.8z"/>
		<path class="st10" d="M306.8,487c-10.5,0-20.4-2-29.5-5.7L263,515.7c27,11,58,11.7,87,0l-14.2-34.3C326.9,485,317.1,487,306.8,487
			z"/>
		<path class="st9" d="M234.6,439.2L200,453.5c12.2,28.8,34.7,50.2,61.5,61.5l14.3-34.4C257.2,472.6,242.4,457.7,234.6,439.2z"/>
		<g>
			<path class="st11" d="M306.9,299c14.5,0,28.2,2.8,40.8,7.9l2.4-5.8c-27-11-58-11.7-87,0l2.5,6C278.3,301.9,292.3,299,306.9,299z"
				/>
			<g class="st12">
				<path class="st11" d="M309.7,298.3c-0.2,0-0.3-0.1-0.4-0.2l-3.4-3.4l-3.4,3.4c-0.3,0.3-0.6,0.3-0.9,0c-0.3-0.3-0.3-0.6,0-0.9
					l3.7-3.7c0.3-0.3,0.6-0.3,0.9,0l3.7,3.7c0.3,0.3,0.3,0.6,0,0.9C310.1,298.3,309.8,298.3,309.7,298.3z"/>
			</g>
		</g>
		<g id="Layer_1_77_" class="st13">
			<g>
				<path class="st14" d="M367.6,333.7c4.4,4.4,8.8,8.8,13.2,13.2c0.8,0.8,2-0.4,1.2-1.2c-4.4-4.4-8.8-8.8-13.2-13.2
					C368.1,331.8,366.8,333,367.6,333.7L367.6,333.7z"/>
				<path class="st14" d="M368.8,347c4.4-4.4,8.8-8.8,13.2-13.2c0.8-0.8-0.4-2-1.2-1.2c-4.4,4.4-8.8,8.8-13.2,13.2
					C366.8,346.6,368.1,347.8,368.8,347L368.8,347z"/>
			</g>
		</g>
		<g id="Layer_1_76_" class="st13">
			<g>
				<g>
					<path class="st14" d="M305.3,308.9c0,2.3,0,4.6,0,7c0,0.9,1.4,0.9,1.4,0c0-2.3,0-4.6,0-7C306.7,308,305.3,308,305.3,308.9
						L305.3,308.9z"/>
					<path class="st14" d="M302.6,313.1c2.3,0,4.6,0,7,0c0.9,0,0.9-1.4,0-1.4c-2.3,0-4.6,0-7,0C301.6,311.6,301.6,313.1,302.6,313.1
						L302.6,313.1z"/>
				</g>
				<path class="st14" d="M313.3,321.6h-14.5c-1.1,0-2-0.9-2-2v-14.5c0-1.1,0.9-2,2-2h14.5c1.1,0,2,0.9,2,2v14.5
					C315.3,320.7,314.4,321.6,313.3,321.6z M298.7,304.7c-0.2,0-0.3,0.2-0.3,0.3v14.5c0,0.3,0.2,0.3,0.3,0.3h14.5
					c0.2,0,0.3-0.2,0.3-0.3v-14.5c0-0.2-0.2-0.3-0.3-0.3H298.7L298.7,304.7z"/>
				<path class="st14" d="M304.4,308.5l1.4-1.9c0.2-0.2,0.3-0.2,0.5,0l1.4,1.9c0.2,0.2,0,0.5-0.3,0.5h-2.6
					C304.4,309,304.3,308.6,304.4,308.5z"/>
				<path class="st14" d="M302.1,313.9l-1.9-1.4c-0.2-0.2-0.2-0.3,0-0.5l1.9-1.4c0.2-0.2,0.5,0,0.5,0.3v2.6
					C302.6,313.9,302.3,314.1,302.1,313.9z"/>
				<path class="st14" d="M310,310.8l1.9,1.4c0.2,0.2,0.2,0.3,0,0.5L310,314c-0.2,0.2-0.5,0-0.5-0.3v-2.6
					C309.5,310.8,309.8,310.6,310,310.8z"/>
				<path class="st14" d="M307.6,316.3l-1.4,1.9c-0.2,0.2-0.3,0.2-0.5,0l-1.4-1.9c-0.2-0.2,0-0.5,0.3-0.5h2.6
					C307.6,315.8,307.8,316,307.6,316.3z"/>
			</g>
		</g>
		<g id="Layer_1_75_" class="st13">
			<g>
				<path class="st14" d="M311.6,510.6v3.7c0,0.9-0.8,1.7-1.7,1.7h-11.2c-0.9,0-1.7-0.8-1.7-1.7V503c0-0.9,0.8-1.7,1.7-1.7h3.8v1.6
					h-3.8c-0.1,0-0.1,0.1-0.1,0.1v11.1c0,0.1,0.1,0.1,0.1,0.1h11.1c0.1,0,0.1-0.1,0.1-0.1v-3.7L311.6,510.6"/>
				<g>
					<path class="st14" d="M314.7,499.4"/>
					<path class="st14" d="M313.8,512.3h-11.2c-0.9,0-1.7-0.8-1.7-1.7v-11.2c0-0.9,0.8-1.7,1.7-1.7h11.1c0.9,0,1.7,0.8,1.7,1.7v11.1
						C315.5,511.5,314.7,512.3,313.8,512.3z M302.6,499.3C302.5,499.3,302.5,499.4,302.6,499.3l-0.1,11.2c0,0.1,0.1,0.1,0.1,0.1
						h11.1c0.1,0,0.1-0.1,0.1-0.1v-11.2c0-0.1-0.1-0.1-0.1-0.1L302.6,499.3L302.6,499.3z"/>
				</g>
			</g>
		</g>
		<g id="Layer_1_74_" class="st13">
			<g>
				<path class="st14" d="M381.6,479.8h-11.3c-0.9,0-1.7-0.8-1.7-1.7v-11.2c0-0.9,0.8-1.7,1.7-1.7h11.2c0.9,0,1.7,0.8,1.7,1.7v11.2
					C383.2,479.1,382.5,479.8,381.6,479.8z M370.3,466.8C370.2,466.8,370.2,466.9,370.3,466.8l-0.1,11.3c0,0.1,0.1,0.1,0.1,0.1h11.2
					c0.1,0,0.1-0.1,0.1-0.1v-11.2c0-0.1-0.1-0.1-0.1-0.1H370.3z"/>
				<path class="st14" d="M372.4,483.5h-6.3c-0.8,0-1.3-0.6-1.3-1.3v-6.3c0-0.8,0.6-1.3,1.3-1.3h6.3c0.8,0,1.3,0.6,1.3,1.3v6.3
					C373.7,482.9,373.1,483.5,372.4,483.5z M366.4,481.9h5.7v-5.7h-5.7V481.9z"/>
			</g>
		</g>
		<g id="Layer_1_73_" class="st13">
			<g>
				<path class="st14" d="M242.3,472.9c-0.1-0.8-0.3-1.4-0.6-2.2c-0.3-0.8-0.8-1.4-1.4-1.9c-0.6-0.6-1.2-0.9-1.8-1.3
					c-0.7-0.3-1.4-0.6-2-0.7c-0.7-0.1-1.4-0.1-2.1,0.1c-0.3,0.1-0.4,0.1-0.7,0.2l-0.9,0.3l1.7-1.7c0.2-0.2,0.2-0.3,0.2-0.4
					c0-0.2-0.1-0.3-0.2-0.4c-0.3-0.3-0.7-0.3-0.9,0l-2.5,2.5c-0.2,0.2-0.2,0.3-0.2,0.4c0,0.2,0.1,0.3,0.2,0.4l2.5,2.5
					c0.3,0.3,0.7,0.3,0.9,0c0.2-0.2,0.2-0.3,0.2-0.4c0-0.2-0.1-0.3-0.2-0.4l-1-1l0.4-0.2c0.6-0.2,1.1-0.3,1.7-0.3
					c0.3,0,0.5,0,0.8,0.1c1.2,0.2,2.3,0.7,3.1,1.5c0.4,0.4,0.9,0.9,1.1,1.5c0.3,0.6,0.4,1.2,0.5,1.8c0.2,1.2-0.2,2.5-0.8,3.5
					c-0.2,0.3-0.2,0.6,0.1,0.9c0.1,0.1,0.1,0.1,0.2,0.1c0.1,0.1,0.3,0.1,0.3,0.1c0.3,0,0.4-0.2,0.6-0.3c0.4-0.7,0.7-1.4,0.9-2.1
					C242.3,474.4,242.4,473.6,242.3,472.9z"/>
				<path class="st14" d="M239.9,480.2c0.3-0.3,0.3-0.7,0-0.9l-2.5-2.5c-0.3-0.3-0.7-0.3-0.9,0c-0.3,0.3-0.3,0.7,0,0.9l1,1l-0.4,0.2
					c-0.9,0.3-1.9,0.3-2.7,0.2c-1.1-0.3-2-0.8-2.8-1.5c-0.4-0.4-0.9-0.9-1.1-1.5c-0.3-0.6-0.4-1.2-0.5-1.8c-0.2-1.2,0.2-2.5,0.8-3.5
					c0.2-0.3,0.1-0.8-0.3-0.9c-0.1-0.1-0.3-0.1-0.3-0.1c-0.3,0-0.4,0.2-0.6,0.3c-0.4,0.7-0.7,1.4-0.9,2.1c-0.2,0.8-0.2,1.4-0.1,2.2
					c0.1,0.8,0.3,1.4,0.6,2.2c0.3,0.7,0.8,1.4,1.4,1.9l0,0c0.9,0.9,2.2,1.6,3.5,1.9c1.1,0.3,2.1,0.2,3.1-0.1l0.9-0.3l-1.7,1.8
					c-0.2,0.2-0.2,0.3-0.2,0.4c0,0.2,0.1,0.3,0.2,0.4c0.3,0.3,0.7,0.3,0.9,0L239.9,480.2z"/>
			</g>
		</g>
		<g id="Layer_1_72_" class="st13">
			<g>
				<path class="st14" d="M230.8,334.5c4.5,0,8.9,0,13.4,0c0.9,0,0.9-1.3,0-1.3c-4.5,0-8.9,0-13.4,0
					C230,333.3,229.9,334.5,230.8,334.5L230.8,334.5z"/>
				<path class="st14" d="M230.8,339.1c4.5,0,8.9,0,13.4,0c0.9,0,0.9-1.3,0-1.3c-4.5,0-8.9,0-13.4,0
					C230,337.8,229.9,339.1,230.8,339.1L230.8,339.1z"/>
				<path class="st14" d="M230.8,343.5c4.5,0,8.9,0,13.4,0c0.9,0,0.9-1.3,0-1.3c-4.5,0-8.9,0-13.4,0
					C230,342.4,229.9,343.5,230.8,343.5L230.8,343.5z"/>
			</g>
		</g>
		<g id="Layer_1_71_" class="st13">
			<path class="st14" d="M408.5,418.2L408.5,418.2c-0.7,0-1.4-0.3-1.9-0.7c-0.4-0.3-7.7-7.7-8.4-8.4c-0.2,0-0.3,0-0.3,0
				c-1.2,0-2.3-0.4-3.1-1.3c-0.7-0.7-1.1-1.5-1.3-2.5c-0.1-0.4-0.1-0.9,0-1.3c0.1-0.4,0.5-0.8,0.9-0.8c0.2,0,0.3,0.1,0.4,0.1
				c0.3,0.1,0.3,0.3,0.5,0.3l0.4,0.4c0.3,0.3,0.6,0.6,0.9,0.9c0.1,0.1,0.1,0.1,0.2,0.1s0.1,0,0.1,0c0.2,0,0.3-0.1,0.3-0.2
				c0.1-0.1,0.1-0.1,0.2-0.2c0.1-0.1,0.1-0.1,0.1-0.1c0.1-0.2,0.3-0.3,0.3-0.3c0.1-0.1,0.3-0.3,0.4-0.4c0-0.1,0.1-0.1,0.1-0.1
				c0.1-0.2,0.1-0.3-0.1-0.3c-0.1-0.1-0.3-0.3-0.4-0.4c-0.4-0.3-0.9-0.8-1.2-1.1c-0.3-0.3-0.4-0.7-0.3-1.1v-0.1
				c0.2-0.4,0.5-0.7,1.1-0.8c0.4-0.1,0.9,0,1.4,0.1c1.2,0.3,2.2,0.9,2.9,1.9c0.3,0.6,0.6,1.2,0.7,1.9c0.1,0.3,0.1,0.8,0.1,1.1
				c1.1,1.2,7.7,7.8,8.2,8.3c0.9,0.9,1.2,2.4,0.5,3.5C410.4,417.7,409.5,418.2,408.5,418.2z M398.2,408c0.3,0,0.4,0.1,0.6,0.3
				c1,1,8.2,8.2,8.5,8.4s0.8,0.4,1.2,0.4c0.7,0,1.3-0.3,1.5-0.9c0.4-0.8,0.3-1.7-0.3-2.3c-0.2-0.1-2.2-2.2-4.3-4.3
				c-4.2-4.2-4.2-4.2-4.2-4.4l-0.1-0.1l0.1-0.3c0.1-0.3,0.1-0.6,0-0.9c-0.1-0.6-0.3-1-0.6-1.4c-0.6-0.8-1.3-1.3-2.2-1.4
				c-0.3-0.1-0.7-0.1-1-0.1c-0.2,0-0.2,0.1-0.2,0.1c0,0.1,0,0.1,0.1,0.2c0.2,0.2,0.7,0.7,1.1,1.1c0.3,0.3,0.4,0.4,0.5,0.5
				c0.3,0.4,0.4,0.9,0.3,1.4c-0.1,0.2-0.1,0.3-0.2,0.3l-0.1,0.1c-0.2,0.3-0.3,0.4-0.6,0.6c-0.1,0.1-0.2,0.2-0.3,0.3
				c-0.1,0.1-0.1,0.1-0.2,0.2c-0.1,0.1-0.1,0.1-0.1,0.1c-0.3,0.3-0.9,0.5-1.4,0.4c-0.3-0.1-0.6-0.3-0.8-0.4
				c-0.3-0.3-0.6-0.6-0.9-0.9l-0.4-0.4c-0.1,0.1-0.2-0.1-0.3-0.1c-0.1,0.3-0.1,0.6,0,0.9c0.1,0.8,0.4,1.4,0.9,1.9
				c0.8,0.8,1.7,1.1,2.8,0.9C398.2,408,398.2,408,398.2,408z M408.3,416.2c-0.5,0-0.9-0.4-0.9-0.9c0-0.5,0.4-0.9,0.9-0.9
				c0.5,0,0.9,0.4,0.9,0.9C409.2,415.8,408.8,416.2,408.3,416.2z"/>
		</g>
		<g id="Layer_1_70_" class="st13">
			<g>
				<g>
					<g>
						<path class="st14" d="M217.5,411.3c1.7-3.1,0.3-7.2-3.1-9.4c-1.8-1.1-3.8-1.4-5.8-0.9c-2,0.4-3.7,1.7-4.8,3.4
							c-1.1,1.7-1.4,3.8-0.9,5.8c0.4,2,1.7,3.7,3.4,4.8c0.3,0.3,0.9,0.1,1.2-0.3c0.2-0.3,0.2-0.3,0.1-0.6v-0.1v-0.1
							c0-0.3,0-0.8,0.3-1.2c0.6-0.9,1.7-1.1,2.6-0.6l1.4,0.9c1.2,0.8,2.5,0.8,3.7,0.3l0.9,0.7c-1.5,0.8-3.4,0.8-5-0.3l-1.4-0.9
							c-0.3-0.3-0.9-0.1-1.2,0.3c-0.1,0.2-0.1,0.3-0.1,0.7c0.1,0.4,0,0.9-0.3,1.3c-0.5,0.9-1.7,1.1-2.6,0.6c-2-1.3-3.3-3.1-3.8-5.4
							c-0.6-2.2-0.1-4.5,1.1-6.5c1.2-2,3.1-3.3,5.4-3.8c2.3-0.5,4.5-0.2,6.5,1.1c4,2.5,5.4,7.4,3.2,11L217.5,411.3z"/>
					</g>
				</g>
				<g>
					<path class="st14" d="M220,416c0.1,0.1,0.1,0.1,0.2,0.1l0,0c0.1,0,0.2-0.1,0.3-0.2c0.1-0.2,0-0.3-0.1-0.3l-1.7-1.9
						c-0.6-0.7-1.2-1.3-1.7-2l-1.4-1.6c-0.1-0.1-0.7-0.8-0.7-0.8l-0.2-0.2c-0.1-0.1-0.2-0.2-0.3-0.3c-0.2-0.2-0.3-0.3-0.3-0.4
						c-0.3-0.3-0.4-0.6-0.8-0.8c-0.2-0.2-0.3-0.3-0.6-0.3c-0.3,0-0.7,0.2-0.9,0.5c-0.1,0.3-0.2,0.4-0.1,0.8c0.1,0.1,0.3,0.3,0.6,0.6
						l0.3,0.2c0.3,0.3,0.6,0.6,0.9,0.8c0.3,0.3,0.5,0.4,0.8,0.7l0.1,0.1l4.3,3.8C219,415.3,219.6,415.7,220,416z"/>
					<path class="st14" d="M210.9,405.1L210.9,405.1c-0.3-0.3-0.3-0.3-0.4-0.4l0,0c-0.3-0.3-0.6-0.3-0.9-0.4
						c-0.6-0.2-1.1-0.3-1.5-0.3c0.3,0.3,0.7,0.6,0.9,1.1c0.1,0.3,0.2,0.5,0.2,0.9c0,0.1,0.1,0.2,0.1,0.3l0.1,0.2
						c0.1,0.4,0.4,0.7,0.9,0.8c0.1,0,0.1,0,0.2,0c0.5,0,1-0.3,1.1-0.9c0.1-0.3,0-0.7-0.3-1.1C211,405.2,211,405.1,210.9,405.1z"/>
				</g>
			</g>
		</g>
		<path class="st15" d="M328.2,568h-45.5c-7.4,0-13.4-5.8-13.4-13l0,0c0-7.2,6-13,13.4-13h45.5c7.4,0,13.4,5.8,13.4,13l0,0
			C341.7,562.2,335.6,568,328.2,568z"/>
		<rect x="284.3" y="546" class="st16" width="49.5" height="16.7"/>
		<text transform="matrix(1 0 0 1 281.8488 560.4572)" class="st8 st17 st18">Image</text>
		<g>
			<path class="st11" d="M229.2,485.8c-10.2-10.2-17.9-21.9-23.2-34.4l-5.8,2.4c11.3,26.8,32.7,49.3,61.6,61.6l2.5-6
				C251.4,503.9,239.5,496.1,229.2,485.8z"/>
			<g class="st12">
				<path class="st11" d="M226.7,484.3c0.1,0.1,0.2,0.3,0.2,0.4v4.8h4.8c0.3,0,0.6,0.3,0.6,0.6s-0.3,0.6-0.6,0.6h-5.4
					c-0.3,0-0.6-0.3-0.6-0.6v-5.4c0-0.3,0.3-0.6,0.6-0.6C226.4,484.1,226.6,484.2,226.7,484.3z"/>
			</g>
		</g>
		<g>
			<path class="st11" d="M384,486.2c-10.2,10.2-21.9,17.9-34.4,23.2l2.4,5.8c26.8-11.3,49.3-32.7,61.6-61.6l-6-2.5
				C402.2,463.9,394.3,475.9,384,486.2z"/>
			<g class="st12">
				<path class="st11" d="M382.5,488.7c0.1-0.1,0.3-0.2,0.4-0.2h4.8v-4.8c0-0.3,0.3-0.6,0.6-0.6c0.3,0,0.6,0.3,0.6,0.6v5.4
					c0,0.3-0.3,0.6-0.6,0.6h-5.4c-0.3,0-0.6-0.3-0.6-0.6C382.3,489,382.4,488.9,382.5,488.7z"/>
			</g>
		</g>
		<g class="st12">
			<path class="st8" d="M308.2,297.9c-0.1,0-0.2-0.1-0.3-0.1l-2.3-2.3l-2.3,2.3c-0.2,0.2-0.4,0.2-0.6,0s-0.2-0.4,0-0.6l2.5-2.5
				c0.2-0.2,0.4-0.2,0.6,0l2.5,2.5C308.4,297.4,308.4,297.7,308.2,297.9C308.4,297.9,308.3,297.9,308.2,297.9z"/>
		</g>
		<g class="st12">
			<path class="st8" d="M223.9,482.5c0.1,0.1,0.1,0.2,0.2,0.3v3.2h3.2c0.2,0,0.3,0.2,0.4,0.4c0,0.2-0.2,0.3-0.4,0.4h-3.6
				c-0.2,0-0.3-0.2-0.4-0.4v-3.6c0-0.2,0.2-0.3,0.4-0.4C223.6,482.3,223.8,482.4,223.9,482.5z"/>
		</g>
		<g class="st12">
			<path class="st8" d="M384.2,488.6c0.1-0.1,0.2-0.1,0.3-0.2h3.2v-3.2c0-0.2,0.2-0.3,0.4-0.4c0.2,0,0.3,0.2,0.4,0.4v3.6
				c0,0.2-0.2,0.3-0.4,0.4h-3.6c-0.2,0-0.3-0.2-0.4-0.4C384.1,488.9,384.2,488.7,384.2,488.6z"/>
		</g>
		<circle class="st19" cx="306.6" cy="256.9" r="17.8"/>
		<g id="Layer_1_69_">
			<g>
				<path class="st14" d="M314.2,251c0-0.3-0.1-0.6-0.2-0.8c0-0.1-0.1-0.2-0.2-0.3c-0.5-0.6-1.1-0.8-1.8-0.7c-0.2,0-0.4,0.1-0.6,0.2
					c-0.1,0-0.1,0-0.1,0s0-0.2-0.1-0.2c-0.3-0.6-0.8-1-1.6-1.1c-0.6,0-1.1,0.1-1.6,0.6c0,0,0,0-0.1,0c0-0.1-0.1-0.1-0.2-0.2
					c-0.6-0.4-1.2-0.5-1.9-0.3c-0.4,0.1-0.7,0.4-0.9,0.7c0,0-0.1,0.1-0.1,0l0,0c-0.5-0.4-1.1-0.4-1.7-0.3s-1,0.5-1.2,0.9
					c0,0,0,0.1,0,0.1c-0.1,0.3-0.2,0.6-0.2,0.8c0,1,0,2,0,3c0,0.1,0,0.1-0.1,0.1c-0.2,0-0.5,0-0.7,0c-0.4,0-0.7,0.1-1,0.3
					c-0.5,0.3-0.7,0.7-0.9,1.3c-0.1,0.5-0.2,0.9-0.2,1.4c0,0.4,0,1.5,0,1.9v0.4c0,1.7,0.6,3.4,2.3,4.1c1.6,0.7,4,0.4,5.7,0.4
					c1.5,0,3.1,0,4.2-0.1c2.5-0.2,3.3-2.6,3.3-4.8c0-1.7,0-3.4,0-5.2c0-0.3,0-0.7,0-1C314.2,251.8,314.2,251.4,314.2,251z
					 M313.2,258.2v0.2c0,1.9-0.7,3.7-2.8,3.7c0,0,0,0,0,0h0c0,0-0.2,0-0.2,0c-0.3,0-0.6,0-0.8,0c-0.9,0-1.8,0-2.7,0
					c-1.4,0-2.8,0.1-4.2,0c-2-0.1-2.8-1.9-2.8-3.7V258c0-1.1,0-0.6,0-1.7c0-0.4,0-0.8,0.2-1.2c0.2-0.3,0.4-0.5,0.7-0.6
					c0.3,0,0.5-0.1,0.8-0.1c0.1,0,0.1,0,0.1,0.1c0,0.7,0,1.3,0,2.1c0,0.1,0,0.2,0.1,0.3c0.1,0.2,0.4,0.3,0.6,0.2
					c0.2-0.1,0.4-0.2,0.4-0.4c0-2.1,0-4.1,0-6.1c0-0.2,0-0.4,0.1-0.6c0.2-0.5,0.8-0.6,1.3-0.4c0.4,0.2,0.5,0.5,0.5,0.8
					c0,0.6,0,1.3,0,1.9c0,0.1,0,0.2,0,0.2c0.1,0.2,0.3,0.3,0.5,0.3c0.2,0,0.4-0.2,0.4-0.4c0-0.3,0-0.6,0-0.9c0-0.4,0-0.9,0-1.3
					c0-0.2,0-0.3,0.1-0.5c0.2-0.5,0.8-0.6,1.3-0.5c0.5,0.1,0.6,0.4,0.6,0.8c0,0.7,0,1.5,0,2.2c0,0,0,0,0,0.1c0,0.3,0.2,0.5,0.5,0.4
					c0.3,0,0.5-0.2,0.5-0.5c0-0.7,0-1.3,0-2.1c0-0.2,0-0.5,0.2-0.7c0.3-0.5,1.1-0.6,1.5-0.2c0.2,0.2,0.3,0.4,0.3,0.7
					c0,0.7,0,1.4,0,2.1c0,0.1,0,0.2,0,0.2c0,0.2,0.3,0.4,0.5,0.3c0.2,0,0.4-0.2,0.4-0.4c0-0.4,0-0.8,0-1.2c0-0.4,0.3-0.8,0.8-0.9
					c0.3,0,0.5,0,0.7,0.2c0.3,0.3,0.4,0.6,0.4,1C313.2,253.6,313.2,255.9,313.2,258.2z"/>
				<path class="st14" d="M304,263.4L304,263.4c-0.9,0-2.2,0-3.2-0.5c-1.6-0.7-2.4-2.2-2.4-4.2v-0.4c0-0.4,0-1.5,0-1.9
					c0-0.5,0-0.9,0.2-1.4c0.2-0.6,0.5-1.1,0.9-1.3c0.3-0.2,0.6-0.3,1-0.4c0.3,0,0.5,0,0.7,0c0-1,0-2,0-3c0-0.4,0.1-0.6,0.2-0.9v0
					c0,0,0,0,0-0.1c0.3-0.6,0.7-0.9,1.3-1c0.6-0.2,1.3,0,1.8,0.3l0,0c0.3-0.4,0.6-0.6,1-0.7c0.7-0.2,1.4-0.1,2,0.4
					c0,0,0.1,0.1,0.2,0.1c0.5-0.4,1-0.6,1.6-0.6c0.9,0.1,1.4,0.5,1.7,1.2v0c0,0,0.1,0.1,0.1,0.2c0.2-0.1,0.4-0.1,0.6-0.2
					c0.8-0.1,1.5,0.1,2,0.7c0.1,0.1,0.2,0.2,0.2,0.4c0.1,0.2,0.2,0.5,0.2,0.8c0,0.4,0,0.8,0,1.1c0,0.3,0,0.6,0,0.9v0.2
					c0,1.7,0,3.4,0,5.2c0,1.1-0.4,4.7-3.5,4.9c-1.1,0.1-2.6,0.1-4.2,0.1c-0.4,0-0.7,0-1.2,0C305,263.4,304.5,263.4,304,263.4z
					 M301.3,253.6c-0.2,0-0.4,0-0.6,0c-0.4,0-0.7,0.2-0.9,0.3c-0.4,0.2-0.7,0.6-0.8,1.2c-0.1,0.4-0.2,0.8-0.2,1.3c0,0.4,0,1.5,0,1.9
					v0.4c0,1.9,0.7,3.3,2.2,3.9c0.7,0.3,1.7,0.4,3,0.4l0,0c0.5,0,0.9,0,1.4,0c0.4,0,0.8,0,1.2,0c1.6,0,3.2,0,4.2-0.1
					c2.9-0.2,3.2-3.6,3.2-4.7c0-1.7,0-3.4,0-5.2v-0.2c0-0.3,0-0.6,0-0.9c0-0.4,0-0.7,0-1.1c0-0.3-0.1-0.6-0.2-0.7
					c0-0.1-0.1-0.2-0.2-0.3c-0.4-0.5-1-0.7-1.7-0.6c-0.2,0-0.4,0.1-0.6,0.2c0,0-0.1,0-0.2,0c0,0-0.2,0-0.2-0.2c0,0,0-0.1-0.1-0.2v0
					c-0.3-0.6-0.7-0.9-1.5-1c-0.6,0-1.1,0.1-1.5,0.5c0,0-0.1,0.1-0.2,0.1s-0.1,0-0.2-0.1c0-0.1-0.1-0.1-0.2-0.2
					c-0.5-0.4-1.1-0.5-1.7-0.3c-0.4,0.1-0.6,0.3-0.9,0.6c0,0-0.1,0.1-0.2,0.1c-0.1,0-0.1,0-0.2-0.1h0c-0.5-0.3-1-0.4-1.5-0.3
					c-0.5,0.1-0.9,0.4-1.1,0.9v0c0,0,0,0,0,0.1c-0.1,0.2-0.2,0.4-0.2,0.7c0,1,0,2,0,3c0,0.2-0.2,0.2-0.2,0.2
					C301.4,253.6,301.4,253.6,301.3,253.6z M303.8,262.3c-0.5,0-1,0-1.4,0c-1.4-0.1-3-1.1-2.9-3.9v-0.6c0-0.6,0-0.6,0-0.9l0-0.6
					c0-0.5,0.1-0.9,0.2-1.3c0.2-0.4,0.5-0.6,0.9-0.7c0.3,0,0.6-0.1,0.8-0.1h0c0,0,0.1,0,0.2,0.1c0.1,0.1,0.1,0.1,0.1,0.2
					c0,0.5,0,1,0,1.5v0.5c0,0.1,0,0.2,0,0.2c0.1,0.1,0.2,0.2,0.4,0.2c0.1,0,0.2-0.1,0.2-0.3c0-2.1,0-4.1,0-6.1c0-0.2,0-0.4,0.1-0.7
					c0.2-0.4,0.6-0.6,1-0.6c0.2,0,0.4,0,0.5,0.1c0.4,0.2,0.6,0.5,0.6,0.9c0,0.5,0,0.9,0,1.4v0.5c0,0,0,0.1,0,0.2
					c0,0.1,0.2,0.2,0.4,0.2c0.2,0,0.3-0.1,0.3-0.3c0-0.1,0-0.3,0-0.4c0-0.2,0-0.4,0-0.6c0-0.5,0-0.9,0-1.3c0-0.2,0-0.4,0.1-0.5
					c0.2-0.4,0.6-0.6,1-0.6c0.2,0,0.3,0,0.5,0.1c0.4,0.2,0.6,0.5,0.7,0.9c0,0.5,0,1.1,0,1.6v0.7c0,0,0,0,0,0.1
					c0,0.2,0.2,0.3,0.4,0.3c0.2,0,0.4-0.1,0.4-0.3v-0.4c0-0.6,0-1.1,0-1.6c0-0.2,0-0.5,0.2-0.7c0.2-0.2,0.5-0.4,0.9-0.4
					c0.3,0,0.6,0.1,0.8,0.3c0.2,0.2,0.3,0.5,0.3,0.8v2.1c0,0.1,0,0.1,0,0.2c0,0.1,0.2,0.2,0.4,0.2c0.2,0,0.3-0.2,0.3-0.3
					c0-0.2,0-0.5,0-0.7c0-0.2,0-0.3,0-0.4c0-0.4,0.3-0.9,0.9-1c0.3,0,0.6,0,0.8,0.2c0.3,0.3,0.5,0.6,0.5,1.1c0,1.9,0,3.8,0,5.7v1.5
					c0,2.5-1.1,3.8-2.9,3.9h0l0,0c0,0-0.1,0-0.2,0c-0.1,0-0.2,0-0.3,0h-3.3c-0.5,0-0.9,0-1.4,0C304.7,262.3,304.3,262.3,303.8,262.3
					z M301.4,254.5c-0.3,0-0.5,0-0.7,0.1c-0.3,0.1-0.5,0.2-0.7,0.5c-0.2,0.3-0.2,0.7-0.2,1.2v0.6c0,0.3,0,0.3,0,0.9v0.6
					c0,1.6,0.6,3.5,2.6,3.6c0.4,0,0.9,0,1.4,0c0.5,0,0.9,0,1.4,0c0.5,0,0.9,0,1.4,0h3.3c0.1,0,0.2,0,0.3,0s0.2,0,0.2,0
					c1.7,0,2.6-1.3,2.6-3.6v-0.2V257c0-1.9,0-3.8,0-5.7c0-0.4-0.1-0.6-0.4-0.9c-0.2-0.1-0.4-0.2-0.6-0.1c-0.4,0-0.7,0.4-0.7,0.7
					c0,0.2,0,0.3,0,0.4c0,0.2,0,0.5,0,0.7c0,0.3-0.2,0.5-0.6,0.6c-0.3,0-0.6-0.2-0.7-0.4c0-0.1,0-0.2,0-0.3V250
					c0-0.3-0.1-0.5-0.2-0.6c-0.2-0.2-0.4-0.3-0.6-0.3c-0.3,0-0.6,0.2-0.7,0.4c-0.1,0.2-0.1,0.4-0.1,0.6c0,0.5,0,1.1,0,1.6v0.4
					c0,0.4-0.2,0.6-0.6,0.6l0,0c-0.4,0-0.6-0.2-0.7-0.6c0,0,0,0,0-0.1v-0.7c0-0.5,0-1.1,0-1.6c0-0.4-0.2-0.6-0.5-0.7
					c-0.1,0-0.2-0.1-0.4-0.1c-0.3,0-0.6,0.2-0.7,0.5c0,0.1-0.1,0.2-0.1,0.4c0,0.4,0,0.9,0,1.3c0,0.2,0,0.4,0,0.6c0,0.1,0,0.3,0,0.4
					c0,0.3-0.2,0.5-0.6,0.6c-0.3,0-0.6-0.2-0.7-0.4c0-0.1,0-0.2,0-0.3v-0.5c0-0.5,0-0.9,0-1.4c0-0.3-0.2-0.6-0.4-0.7
					c-0.1,0-0.2-0.1-0.4-0.1c-0.3,0-0.6,0.2-0.7,0.5c-0.1,0.2-0.1,0.3-0.1,0.6c0,2.1,0,4.1,0,6.1c0,0.3-0.2,0.5-0.4,0.6
					c-0.3,0.1-0.6,0-0.7-0.3c-0.1-0.1-0.1-0.3-0.1-0.4V256C301.4,255.5,301.4,255,301.4,254.5z"/>
			</g>
		</g>
	</g>
	<g>
		<circle class="st19" cx="197.7" cy="516.3" r="17.8"/>
		<g id="Layer_1_68_" class="st13">
			<g>
				<path class="st14" d="M204,525.3h-12.4c-0.9,0-1.7-0.8-1.7-1.7v-12.4c0-0.9,0.8-1.7,1.7-1.7H204c0.9,0,1.7,0.8,1.7,1.7v12.4
					C205.7,524.5,204.9,525.3,204,525.3z M191.6,510.8c-0.2,0-0.3,0.2-0.3,0.3v12.4c0,0.2,0.2,0.3,0.3,0.3H204
					c0.2,0,0.3-0.1,0.3-0.3v-12.4c0-0.2-0.2-0.3-0.3-0.3H191.6L191.6,510.8z"/>
				<g>
					<path class="st14" d="M196.4,518c-0.7,0.7-1.3,1.3-2,2c-0.5,0.5,0.3,1.3,0.8,0.8c0.7-0.7,1.3-1.3,2-2
						C197.7,518.2,196.9,517.4,196.4,518L196.4,518z"/>
					<path class="st14" d="M200.4,514c-0.7,0.7-1.3,1.3-2,2c-0.5,0.5,0.3,1.3,0.8,0.8c0.7-0.7,1.3-1.3,2-2
						C201.7,514.2,200.9,513.4,200.4,514L200.4,514z"/>
					<path class="st14" d="M199.8,512.7l2.7-0.4c0.3,0,0.5,0.2,0.4,0.4l-0.4,2.7c0,0.3-0.4,0.4-0.6,0.2l-2.3-2.3
						C199.4,513.1,199.5,512.7,199.8,512.7z"/>
					<path class="st14" d="M195.8,522.1l-2.7,0.4c-0.3,0-0.5-0.2-0.4-0.4l0.4-2.7c0-0.3,0.4-0.4,0.6-0.2l2.3,2.3
						C196.2,521.7,196.1,522,195.8,522.1z"/>
				</g>
			</g>
		</g>
	</g>
	<g>
		<circle class="st19" cx="414.4" cy="516.3" r="17.8"/>
		<g id="Layer_1_67_" class="st13">
			<g>
				<path class="st14" d="M420.7,524.2h-13.1c-1,0-1.8-0.8-1.8-1.8v-13.1c0-1,0.8-1.8,1.8-1.8h13.1c1,0,1.8,0.8,1.8,1.8v13.1
					C422.5,523.4,421.7,524.2,420.7,524.2z M407.6,509.1c-0.2,0-0.3,0.2-0.3,0.3v13.1c0,0.2,0.2,0.3,0.3,0.3h13.1
					c0.2,0,0.3-0.1,0.3-0.3v-13.1c0-0.2-0.2-0.3-0.3-0.3H407.6L407.6,509.1z"/>
				<path class="st14" d="M412.8,524.2h-5.7c-0.7,0-1.2-0.5-1.2-1.2v-5.7c0-0.7,0.5-1.2,1.2-1.2h5.7c0.7,0,1.2,0.5,1.2,1.2v5.7
					C413.9,523.7,413.4,524.2,412.8,524.2z M407.3,522.8h5.2v-5.2h-5.2V522.8z"/>
			</g>
		</g>
	</g>
</g>
<g>
	<g>
		<path class="st8" d="M757.7,496.5L757.7,496.5L757.7,496.5z"/>
		<path class="st9" d="M745,328.8c10.2,0,20,2,29,5.6l14.3-34.4c-27-11-58-11.7-87,0l14.3,34.6C724.7,330.9,734.6,328.8,745,328.8z"
			/>
		<path class="st10" d="M666.6,407.2c0-10.3,2-20.2,5.6-29.2l-34.6-14.4c-11,27-11.7,58,0,87l34.6-14.3
			C668.5,427.4,666.6,417.5,666.6,407.2z"/>
		<path class="st10" d="M817.1,376.3l34.2-14.1c-12.2-28.8-34.7-50.2-61.5-61.5L775.6,335C794.2,342.9,809.1,357.7,817.1,376.3z"/>
		<path class="st10" d="M714,335.2l-14.4-34.5c-28.8,12.2-50.2,34.7-61.5,61.5l34.7,14.4C680.8,358,695.6,343.2,714,335.2z"/>
		<path class="st10" d="M851.8,363.7l-34.1,14.1c3.7,9.1,5.7,19,5.7,29.4c0,10.4-2,20.3-5.7,29.4l34.1,14.1
			C862.8,423.7,863.6,392.7,851.8,363.7z"/>
		<path class="st9" d="M775.6,479.5l14.2,34.2c28.8-12.2,50.2-34.7,61.5-61.5l-34.1-14.1C809.2,456.7,794.2,471.6,775.6,479.5z"/>
		<path class="st10" d="M745,485.7c-10.5,0-20.4-2-29.5-5.7l-14.3,34.4c27,11,58,11.7,87,0L774,480.2
			C765.1,483.7,755.3,485.7,745,485.7z"/>
		<path class="st9" d="M672.8,437.9l-34.6,14.3c12.2,28.8,34.7,50.2,61.5,61.5l14.3-34.4C695.4,471.4,680.6,456.5,672.8,437.9z"/>
		<g>
			<path class="st11" d="M745.1,297.8c14.5,0,28.2,2.8,40.8,7.9l2.4-5.8c-27-11-58-11.7-87,0l2.5,6
				C716.5,300.7,730.4,297.8,745.1,297.8z"/>
			<g class="st12">
				<path class="st11" d="M747.9,297.1c-0.2,0-0.3-0.1-0.4-0.2l-3.4-3.4l-3.4,3.4c-0.3,0.3-0.6,0.3-0.9,0s-0.3-0.6,0-0.9l3.7-3.7
					c0.3-0.3,0.6-0.3,0.9,0l3.7,3.7c0.3,0.3,0.3,0.6,0,0.9C748.2,297,748,297.1,747.9,297.1z"/>
			</g>
		</g>
		<g id="Layer_1_66_" class="st13">
			<g>
				<path class="st14" d="M805.8,332.5c4.4,4.4,8.8,8.8,13.2,13.2c0.8,0.8,2-0.4,1.2-1.2c-4.4-4.4-8.8-8.8-13.2-13.2
					C806.2,330.5,805,331.7,805.8,332.5L805.8,332.5z"/>
				<path class="st14" d="M807,345.7c4.4-4.4,8.8-8.8,13.2-13.2c0.8-0.8-0.4-2-1.2-1.2c-4.4,4.4-8.8,8.8-13.2,13.2
					C805,345.3,806.2,346.5,807,345.7L807,345.7z"/>
			</g>
		</g>
		<g id="Layer_1_65_" class="st13">
			<g>
				<g>
					<path class="st14" d="M743.5,307.6c0,2.3,0,4.6,0,7c0,0.9,1.4,0.9,1.4,0c0-2.3,0-4.6,0-7C744.9,306.7,743.5,306.7,743.5,307.6
						L743.5,307.6z"/>
					<path class="st14" d="M740.7,311.8c2.3,0,4.6,0,7,0c0.9,0,0.9-1.4,0-1.4c-2.3,0-4.6,0-7,0C739.8,310.4,739.8,311.8,740.7,311.8
						L740.7,311.8z"/>
				</g>
				<path class="st14" d="M751.5,320.3h-14.5c-1.1,0-2-0.9-2-2v-14.5c0-1.1,0.9-2,2-2h14.5c1.1,0,2,0.9,2,2v14.5
					C753.5,319.5,752.6,320.3,751.5,320.3z M736.9,303.5c-0.2,0-0.3,0.2-0.3,0.3v14.5c0,0.3,0.2,0.3,0.3,0.3h14.5
					c0.2,0,0.3-0.2,0.3-0.3v-14.5c0-0.2-0.2-0.3-0.3-0.3H736.9L736.9,303.5z"/>
				<path class="st14" d="M742.6,307.2l1.4-1.9c0.2-0.2,0.3-0.2,0.5,0l1.4,1.9c0.2,0.2,0,0.5-0.3,0.5h-2.6
					C742.6,307.7,742.4,307.4,742.6,307.2z"/>
				<path class="st14" d="M740.2,312.7l-1.9-1.4c-0.2-0.2-0.2-0.3,0-0.5l1.9-1.4c0.2-0.2,0.5,0,0.5,0.3v2.6
					C740.7,312.7,740.5,312.8,740.2,312.7z"/>
				<path class="st14" d="M748.1,309.5l1.9,1.4c0.2,0.2,0.2,0.3,0,0.5l-1.9,1.4c-0.2,0.2-0.5,0-0.5-0.3v-2.6
					C747.6,309.5,748,309.3,748.1,309.5z"/>
				<path class="st14" d="M745.8,315l-1.4,1.9c-0.2,0.2-0.3,0.2-0.5,0l-1.4-1.9c-0.2-0.2,0-0.5,0.3-0.5h2.6
					C745.8,314.5,745.9,314.8,745.8,315z"/>
			</g>
		</g>
		<g id="Layer_1_64_" class="st13">
			<g>
				<path class="st14" d="M749.8,509.4v3.7c0,0.9-0.8,1.7-1.7,1.7h-11.2c-0.9,0-1.7-0.8-1.7-1.7v-11.2c0-0.9,0.8-1.7,1.7-1.7h3.8
					v1.6h-3.8c-0.1,0-0.1,0.1-0.1,0.1v11.1c0,0.1,0.1,0.1,0.1,0.1H748c0.1,0,0.1-0.1,0.1-0.1v-3.7L749.8,509.4"/>
				<g>
					<path class="st14" d="M752.8,498.1"/>
					<path class="st14" d="M752,511.1h-11.2c-0.9,0-1.7-0.8-1.7-1.7v-11.2c0-0.9,0.8-1.7,1.7-1.7h11.1c0.9,0,1.7,0.8,1.7,1.7v11.1
						C753.7,510.2,752.9,511.1,752,511.1z M740.8,498.1C740.7,498.1,740.7,498.1,740.8,498.1l-0.1,11.2c0,0.1,0.1,0.1,0.1,0.1h11.1
						c0.1,0,0.1-0.1,0.1-0.1v-11.2c0-0.1-0.1-0.1-0.1-0.1L740.8,498.1L740.8,498.1z"/>
				</g>
			</g>
		</g>
		<g id="Layer_1_63_" class="st13">
			<g>
				<path class="st14" d="M819.8,478.6h-11.3c-0.9,0-1.7-0.8-1.7-1.7v-11.2c0-0.9,0.8-1.7,1.7-1.7h11.2c0.9,0,1.7,0.8,1.7,1.7v11.2
					C821.4,477.8,820.7,478.6,819.8,478.6z M808.4,465.6C808.4,465.6,808.4,465.7,808.4,465.6l-0.1,11.3c0,0.1,0.1,0.1,0.1,0.1h11.2
					c0.1,0,0.1-0.1,0.1-0.1v-11.2c0-0.1-0.1-0.1-0.1-0.1H808.4z"/>
				<path class="st14" d="M810.6,482.3h-6.3c-0.8,0-1.3-0.6-1.3-1.3v-6.3c0-0.8,0.6-1.3,1.3-1.3h6.3c0.8,0,1.3,0.6,1.3,1.3v6.3
					C811.8,481.7,811.2,482.3,810.6,482.3z M804.5,480.6h5.7v-5.7h-5.7V480.6z"/>
			</g>
		</g>
		<g id="Layer_1_62_" class="st13">
			<g>
				<path class="st14" d="M680.4,471.6c-0.1-0.8-0.3-1.4-0.6-2.2c-0.3-0.8-0.8-1.4-1.4-1.9c-0.6-0.6-1.2-0.9-1.8-1.3
					c-0.7-0.3-1.4-0.6-2-0.7c-0.7-0.1-1.4-0.1-2.1,0.1c-0.3,0.1-0.4,0.1-0.7,0.2l-0.9,0.3l1.7-1.7c0.2-0.2,0.2-0.3,0.2-0.4
					c0-0.2-0.1-0.3-0.2-0.4c-0.3-0.3-0.7-0.3-0.9,0l-2.5,2.5c-0.2,0.2-0.2,0.3-0.2,0.4c0,0.2,0.1,0.3,0.2,0.4l2.5,2.5
					c0.3,0.3,0.7,0.3,0.9,0c0.2-0.2,0.2-0.3,0.2-0.4c0-0.2-0.1-0.3-0.2-0.4l-1-1l0.4-0.2c0.6-0.2,1.1-0.3,1.7-0.3
					c0.3,0,0.5,0,0.8,0.1c1.2,0.2,2.3,0.7,3.1,1.5c0.4,0.4,0.9,0.9,1.1,1.5c0.3,0.6,0.4,1.2,0.5,1.8c0.2,1.2-0.2,2.5-0.8,3.5
					c-0.2,0.3-0.2,0.6,0.1,0.9c0.1,0.1,0.1,0.1,0.2,0.1c0.1,0.1,0.3,0.1,0.3,0.1c0.3,0,0.4-0.2,0.6-0.3c0.4-0.7,0.7-1.4,0.9-2.1
					C680.5,473.2,680.6,472.4,680.4,471.6z"/>
				<path class="st14" d="M678.1,478.9c0.3-0.3,0.3-0.7,0-0.9l-2.5-2.5c-0.3-0.3-0.7-0.3-0.9,0c-0.3,0.3-0.3,0.7,0,0.9l1,1l-0.4,0.2
					c-0.9,0.3-1.9,0.3-2.7,0.2c-1.1-0.3-2-0.8-2.8-1.5c-0.4-0.4-0.9-0.9-1.1-1.5c-0.3-0.6-0.4-1.2-0.5-1.8c-0.2-1.2,0.2-2.5,0.8-3.5
					c0.2-0.3,0.1-0.8-0.3-0.9c-0.1-0.1-0.3-0.1-0.3-0.1c-0.3,0-0.4,0.2-0.6,0.3c-0.4,0.7-0.7,1.4-0.9,2.1c-0.2,0.8-0.2,1.4-0.1,2.2
					c0.1,0.8,0.3,1.4,0.6,2.2c0.3,0.7,0.8,1.4,1.4,1.9l0,0c0.9,0.9,2.2,1.6,3.5,1.9c1.1,0.3,2.1,0.2,3.1-0.1l0.9-0.3l-1.7,1.8
					c-0.2,0.2-0.2,0.3-0.2,0.4c0,0.2,0.1,0.3,0.2,0.4c0.3,0.3,0.7,0.3,0.9,0L678.1,478.9z"/>
			</g>
		</g>
		<g id="Layer_1_61_" class="st13">
			<g>
				<path class="st14" d="M668.9,333.3c4.5,0,8.9,0,13.4,0c0.9,0,0.9-1.3,0-1.3c-4.5,0-8.9,0-13.4,0
					C668.2,332.1,668.1,333.3,668.9,333.3L668.9,333.3z"/>
				<path class="st14" d="M668.9,337.9c4.5,0,8.9,0,13.4,0c0.9,0,0.9-1.3,0-1.3c-4.5,0-8.9,0-13.4,0
					C668.2,336.5,668.1,337.9,668.9,337.9L668.9,337.9z"/>
				<path class="st14" d="M668.9,342.3c4.5,0,8.9,0,13.4,0c0.9,0,0.9-1.3,0-1.3c-4.5,0-8.9,0-13.4,0
					C668.2,341.1,668.1,342.3,668.9,342.3L668.9,342.3z"/>
			</g>
		</g>
		<g id="Layer_1_60_" class="st13">
			<path class="st14" d="M846.6,416.9L846.6,416.9c-0.7,0-1.4-0.3-1.9-0.7c-0.4-0.3-7.7-7.7-8.4-8.4c-0.2,0-0.3,0-0.3,0
				c-1.2,0-2.3-0.4-3.1-1.3c-0.7-0.7-1.1-1.5-1.3-2.5c-0.1-0.4-0.1-0.9,0-1.3s0.5-0.8,0.9-0.8c0.2,0,0.3,0.1,0.4,0.1
				c0.3,0.1,0.3,0.3,0.5,0.3l0.4,0.4c0.3,0.3,0.6,0.6,0.9,0.9c0.1,0.1,0.1,0.1,0.2,0.1s0.1,0,0.1,0c0.2,0,0.3-0.1,0.3-0.2
				c0.1-0.1,0.1-0.1,0.2-0.2c0.1-0.1,0.1-0.1,0.1-0.1c0.1-0.2,0.3-0.3,0.3-0.3c0.1-0.1,0.3-0.3,0.4-0.4c0-0.1,0.1-0.1,0.1-0.1
				c0.1-0.2,0.1-0.3-0.1-0.3c-0.1-0.1-0.3-0.3-0.4-0.4c-0.4-0.3-0.9-0.8-1.2-1.1c-0.3-0.3-0.4-0.7-0.3-1.1v-0.1
				c0.2-0.4,0.5-0.7,1.1-0.8c0.4-0.1,0.9,0,1.4,0.1c1.2,0.3,2.2,0.9,2.9,1.9c0.3,0.6,0.6,1.2,0.7,1.9c0.1,0.3,0.1,0.8,0.1,1.1
				c1.1,1.2,7.7,7.8,8.2,8.3c0.9,0.9,1.2,2.4,0.5,3.5C848.6,416.4,847.6,416.9,846.6,416.9z M836.3,406.8c0.3,0,0.4,0.1,0.6,0.3
				c1,1,8.2,8.2,8.5,8.4c0.3,0.3,0.8,0.4,1.2,0.4c0.7,0,1.3-0.3,1.5-0.9c0.4-0.8,0.3-1.7-0.3-2.3c-0.2-0.1-2.2-2.2-4.3-4.3
				c-4.2-4.2-4.2-4.2-4.2-4.4l-0.1-0.1l0.1-0.3c0.1-0.3,0.1-0.6,0-0.9c-0.1-0.6-0.3-1-0.6-1.4c-0.6-0.8-1.3-1.3-2.2-1.4
				c-0.3-0.1-0.7-0.1-1-0.1c-0.2,0-0.2,0.1-0.2,0.1c0,0.1,0,0.1,0.1,0.2c0.2,0.2,0.7,0.7,1.1,1.1c0.3,0.3,0.4,0.4,0.5,0.5
				c0.3,0.4,0.4,0.9,0.3,1.4c-0.1,0.2-0.1,0.3-0.2,0.3l-0.1,0.1c-0.2,0.3-0.3,0.4-0.6,0.6c-0.1,0.1-0.2,0.2-0.3,0.3
				c-0.1,0.1-0.1,0.1-0.2,0.2s-0.1,0.1-0.1,0.1c-0.3,0.3-0.9,0.5-1.4,0.4c-0.3-0.1-0.6-0.3-0.8-0.4c-0.3-0.3-0.6-0.6-0.9-0.9
				l-0.4-0.4c-0.1,0.1-0.2-0.1-0.3-0.1c-0.1,0.3-0.1,0.6,0,0.9c0.1,0.8,0.4,1.4,0.9,1.9c0.8,0.8,1.7,1.1,2.8,0.9
				C836.3,406.8,836.3,406.8,836.3,406.8z M846.4,415c-0.5,0-0.9-0.4-0.9-0.9s0.4-0.9,0.9-0.9s0.9,0.4,0.9,0.9S847,415,846.4,415z"
				/>
		</g>
		<g id="Layer_1_59_" class="st13">
			<g>
				<g>
					<g>
						<path class="st14" d="M655.7,410c1.7-3.1,0.3-7.2-3.1-9.4c-1.8-1.1-3.8-1.4-5.8-0.9c-2,0.4-3.7,1.7-4.8,3.4
							c-1.1,1.7-1.4,3.8-0.9,5.8c0.4,2,1.7,3.7,3.4,4.8c0.3,0.3,0.9,0.1,1.2-0.3c0.2-0.3,0.2-0.3,0.1-0.6v-0.1v-0.1
							c0-0.3,0-0.8,0.3-1.2c0.6-0.9,1.7-1.1,2.6-0.6l1.4,0.9c1.2,0.8,2.5,0.8,3.7,0.3l0.9,0.7c-1.5,0.8-3.4,0.8-5-0.3l-1.4-0.9
							c-0.3-0.3-0.9-0.1-1.2,0.3c-0.1,0.2-0.1,0.3-0.1,0.7c0.1,0.4,0,0.9-0.3,1.3c-0.5,0.9-1.7,1.1-2.6,0.6c-2-1.3-3.3-3.1-3.8-5.4
							c-0.6-2.2-0.1-4.5,1.1-6.5c1.2-2,3.1-3.3,5.4-3.8c2.3-0.5,4.5-0.2,6.5,1.1c4,2.5,5.4,7.4,3.2,11L655.7,410z"/>
					</g>
				</g>
				<g>
					<path class="st14" d="M658.1,414.8c0.1,0.1,0.1,0.1,0.2,0.1l0,0c0.1,0,0.2-0.1,0.3-0.2c0.1-0.2,0-0.3-0.1-0.3l-1.7-1.9
						c-0.6-0.7-1.2-1.3-1.7-2l-1.4-1.6c-0.1-0.1-0.7-0.8-0.7-0.8l-0.2-0.2c-0.1-0.1-0.2-0.2-0.3-0.3c-0.2-0.2-0.3-0.3-0.3-0.4
						c-0.3-0.3-0.4-0.6-0.8-0.8c-0.2-0.2-0.3-0.3-0.6-0.3c-0.3,0-0.7,0.2-0.9,0.5c-0.1,0.3-0.2,0.4-0.1,0.8c0.1,0.1,0.3,0.3,0.6,0.6
						l0.3,0.2c0.3,0.3,0.6,0.6,0.9,0.8c0.3,0.3,0.5,0.4,0.8,0.7l0.1,0.1l4.3,3.8C657.2,414,657.7,414.5,658.1,414.8z"/>
					<path class="st14" d="M649,403.8L649,403.8c-0.3-0.3-0.3-0.3-0.4-0.4l0,0c-0.3-0.3-0.6-0.3-0.9-0.4c-0.6-0.2-1.1-0.3-1.5-0.3
						c0.3,0.3,0.7,0.6,0.9,1.1c0.1,0.3,0.2,0.5,0.2,0.9c0,0.1,0.1,0.2,0.1,0.3l0.1,0.2c0.1,0.4,0.4,0.7,0.9,0.8c0.1,0,0.1,0,0.2,0
						c0.5,0,1-0.3,1.1-0.9c0.1-0.3,0-0.7-0.3-1.1C649.1,403.9,649.1,403.8,649,403.8z"/>
				</g>
			</g>
		</g>
		<path class="st15" d="M766.4,562.4h-45.5c-7.4,0-13.4-5.8-13.4-13l0,0c0-7.2,6-13,13.4-13h45.5c7.4,0,13.4,5.8,13.4,13l0,0
			C779.8,556.6,773.8,562.4,766.4,562.4z"/>
		<rect x="722.4" y="544.8" class="st16" width="49.5" height="16.7"/>
		<text transform="matrix(1 0 0 1 720.0179 554.8422)" class="st8 st17 st18">Image</text>
		<g>
			<path class="st11" d="M667.3,484.6c-10.2-10.2-17.9-21.9-23.2-34.4l-5.8,2.4c11.3,26.8,32.7,49.3,61.6,61.6l2.5-6
				C689.6,502.7,677.7,494.8,667.3,484.6z"/>
			<g class="st12">
				<path class="st11" d="M664.9,483c0.1,0.1,0.2,0.3,0.2,0.4v4.8h4.8c0.3,0,0.6,0.3,0.6,0.6c0,0.3-0.3,0.6-0.6,0.6h-5.4
					c-0.3,0-0.6-0.3-0.6-0.6v-5.4c0-0.3,0.3-0.6,0.6-0.6C664.5,482.9,664.8,482.9,664.9,483z"/>
			</g>
		</g>
		<g>
			<path class="st11" d="M822.1,485c-10.2,10.2-21.9,17.9-34.4,23.2l2.4,5.8c26.8-11.3,49.3-32.7,61.6-61.6l-6-2.5
				C840.3,462.7,832.5,474.7,822.1,485z"/>
			<g class="st12">
				<path class="st11" d="M820.7,487.4c0.1-0.1,0.3-0.2,0.4-0.2h4.8v-4.8c0-0.3,0.3-0.6,0.6-0.6c0.3,0,0.6,0.3,0.6,0.6v5.4
					c0,0.3-0.3,0.6-0.6,0.6h-5.4c-0.3,0-0.6-0.3-0.6-0.6C820.4,487.8,820.6,487.6,820.7,487.4z"/>
			</g>
		</g>
		<g class="st12">
			<path class="st8" d="M746.3,296.7c-0.1,0-0.2-0.1-0.3-0.1l-2.3-2.3l-2.3,2.3c-0.2,0.2-0.4,0.2-0.6,0c-0.2-0.2-0.2-0.4,0-0.6
				l2.5-2.5c0.2-0.2,0.4-0.2,0.6,0l2.5,2.5C746.6,296.2,746.6,296.4,746.3,296.7C746.5,296.7,746.4,296.7,746.3,296.7z"/>
		</g>
		<g class="st12">
			<path class="st8" d="M662.1,481.2c0.1,0.1,0.1,0.2,0.2,0.3v3.2h3.2c0.2,0,0.3,0.2,0.4,0.4c0,0.2-0.2,0.3-0.4,0.4h-3.6
				c-0.2,0-0.3-0.2-0.4-0.4v-3.6c0-0.2,0.2-0.3,0.4-0.4C661.8,481.1,662,481.2,662.1,481.2z"/>
		</g>
		<g class="st12">
			<path class="st8" d="M822.4,487.4c0.1-0.1,0.2-0.1,0.3-0.2h3.2V484c0-0.2,0.2-0.3,0.4-0.4c0.2,0,0.3,0.2,0.4,0.4v3.6
				c0,0.2-0.2,0.3-0.4,0.4h-3.6c-0.2,0-0.3-0.2-0.4-0.4C822.3,487.6,822.4,487.4,822.4,487.4z"/>
		</g>
		<circle class="st19" cx="744.8" cy="254.8" r="17.8"/>
		<g id="Layer_1_58_" class="st13">
			<g>
				<path class="st14" d="M752.3,249.8c0-0.3-0.1-0.6-0.2-0.8c0-0.1-0.1-0.2-0.2-0.3c-0.5-0.6-1.1-0.8-1.8-0.7
					c-0.2,0-0.4,0.1-0.6,0.2c-0.1,0-0.1,0-0.1,0s0-0.2-0.1-0.2c-0.3-0.6-0.8-1-1.6-1.1c-0.6,0-1.1,0.1-1.6,0.6c0,0,0,0-0.1,0
					c0-0.1-0.1-0.1-0.2-0.2c-0.6-0.4-1.2-0.5-1.9-0.3c-0.4,0.1-0.7,0.4-0.9,0.7c0,0-0.1,0.1-0.1,0l0,0c-0.5-0.4-1.1-0.4-1.7-0.3
					c-0.6,0.1-1,0.5-1.2,0.9c0,0,0,0.1,0,0.1c-0.1,0.3-0.2,0.6-0.2,0.8c0,1,0,2,0,3c0,0.1,0,0.1-0.1,0.1c-0.2,0-0.5,0-0.7,0
					c-0.4,0-0.7,0.1-1,0.3c-0.5,0.3-0.7,0.7-0.9,1.3c-0.1,0.5-0.2,0.9-0.2,1.4c0,0.4,0,1.5,0,1.9v0.4c0,1.7,0.6,3.4,2.3,4.1
					c1.6,0.7,4,0.4,5.7,0.4c1.5,0,3.1,0,4.2-0.1c2.5-0.2,3.3-2.6,3.3-4.8c0-1.7,0-3.4,0-5.2c0-0.3,0-0.7,0-1
					C752.4,250.5,752.4,250.2,752.3,249.8z M751.4,257v0.2c0,1.9-0.7,3.7-2.8,3.7c0,0,0,0,0,0h0c0,0-0.2,0-0.2,0c-0.3,0-0.6,0-0.8,0
					c-0.9,0-1.8,0-2.7,0c-1.4,0-2.8,0.1-4.2,0c-2-0.1-2.8-1.9-2.8-3.7v-0.4c0-1.1,0-0.6,0-1.7c0-0.4,0-0.8,0.2-1.2
					c0.2-0.3,0.4-0.5,0.7-0.6c0.3,0,0.5-0.1,0.8-0.1c0.1,0,0.1,0,0.1,0.1c0,0.7,0,1.3,0,2.1c0,0.1,0,0.2,0.1,0.3
					c0.1,0.2,0.4,0.3,0.6,0.2c0.2-0.1,0.4-0.2,0.4-0.4c0-2.1,0-4.1,0-6.1c0-0.2,0-0.4,0.1-0.6c0.2-0.5,0.8-0.6,1.3-0.4
					c0.4,0.2,0.5,0.5,0.5,0.8c0,0.6,0,1.3,0,1.9c0,0.1,0,0.2,0,0.2c0.1,0.2,0.3,0.3,0.5,0.3c0.2,0,0.4-0.2,0.4-0.4
					c0-0.3,0-0.6,0-0.9c0-0.4,0-0.9,0-1.3c0-0.2,0-0.3,0.1-0.5c0.2-0.5,0.8-0.6,1.3-0.5c0.5,0.1,0.6,0.4,0.6,0.8c0,0.7,0,1.5,0,2.2
					c0,0,0,0,0,0.1c0,0.3,0.2,0.5,0.5,0.4c0.3,0,0.5-0.2,0.5-0.5c0-0.7,0-1.3,0-2.1c0-0.2,0-0.5,0.2-0.7c0.3-0.5,1.1-0.6,1.5-0.2
					c0.2,0.2,0.3,0.4,0.3,0.7c0,0.7,0,1.4,0,2.1c0,0.1,0,0.2,0,0.2c0,0.2,0.3,0.4,0.5,0.3c0.2,0,0.4-0.2,0.4-0.4c0-0.4,0-0.8,0-1.2
					c0-0.4,0.3-0.8,0.8-0.9c0.3,0,0.5,0,0.7,0.2c0.3,0.3,0.4,0.6,0.4,1C751.4,252.3,751.4,254.7,751.4,257z"/>
				<path class="st14" d="M742.2,262.2L742.2,262.2c-0.9,0-2.2,0-3.2-0.5c-1.6-0.7-2.4-2.2-2.4-4.2v-0.4c0-0.4,0-1.5,0-1.9
					c0-0.5,0-0.9,0.2-1.4c0.2-0.6,0.5-1.1,0.9-1.3c0.3-0.2,0.6-0.3,1-0.4c0.3,0,0.5,0,0.7,0c0-1,0-2,0-3c0-0.4,0.1-0.6,0.2-0.9v0
					c0,0,0,0,0-0.1c0.3-0.6,0.7-0.9,1.3-1c0.6-0.2,1.3,0,1.8,0.3l0,0c0.3-0.4,0.6-0.6,1-0.7c0.7-0.2,1.4-0.1,2,0.4
					c0,0,0.1,0.1,0.2,0.1c0.5-0.4,1-0.6,1.6-0.6c0.9,0.1,1.4,0.5,1.7,1.2v0c0,0,0.1,0.1,0.1,0.2c0.2-0.1,0.4-0.1,0.6-0.2
					c0.8-0.1,1.5,0.1,2,0.7c0.1,0.1,0.2,0.2,0.2,0.4c0.1,0.2,0.2,0.5,0.2,0.8c0,0.4,0,0.8,0,1.1c0,0.3,0,0.6,0,0.9v0.2
					c0,1.7,0,3.4,0,5.2c0,1.1-0.4,4.7-3.5,4.9c-1.1,0.1-2.6,0.1-4.2,0.1c-0.4,0-0.7,0-1.2,0C743.1,262.2,742.7,262.2,742.2,262.2z
					 M739.5,252.3c-0.2,0-0.4,0-0.6,0c-0.4,0-0.7,0.2-0.9,0.3c-0.4,0.2-0.7,0.6-0.8,1.2c-0.1,0.4-0.2,0.8-0.2,1.3c0,0.4,0,1.5,0,1.9
					v0.4c0,1.9,0.7,3.3,2.2,3.9c0.7,0.3,1.7,0.4,3,0.4l0,0c0.5,0,0.9,0,1.4,0c0.4,0,0.8,0,1.2,0c1.6,0,3.2,0,4.2-0.1
					c2.9-0.2,3.2-3.6,3.2-4.7c0-1.7,0-3.4,0-5.2v-0.2c0-0.3,0-0.6,0-0.9c0-0.4,0-0.7,0-1.1c0-0.3-0.1-0.6-0.2-0.7
					c0-0.1-0.1-0.2-0.2-0.3c-0.4-0.5-1-0.7-1.7-0.6c-0.2,0-0.4,0.1-0.6,0.2c0,0-0.1,0-0.2,0c0,0-0.2,0-0.2-0.2c0,0,0-0.1-0.1-0.2v0
					c-0.3-0.6-0.7-0.9-1.5-1c-0.6,0-1.1,0.1-1.5,0.5c0,0-0.1,0.1-0.2,0.1c-0.1,0-0.1,0-0.2-0.1c0-0.1-0.1-0.1-0.2-0.2
					c-0.5-0.4-1.1-0.5-1.7-0.3c-0.4,0.1-0.6,0.3-0.9,0.6c0,0-0.1,0.1-0.2,0.1c-0.1,0-0.1,0-0.2-0.1h0c-0.5-0.3-1-0.4-1.5-0.3
					c-0.5,0.1-0.9,0.4-1.1,0.9v0c0,0,0,0,0,0.1c-0.1,0.2-0.2,0.4-0.2,0.7c0,1,0,2,0,3c0,0.2-0.2,0.2-0.2,0.2
					C739.6,252.3,739.5,252.3,739.5,252.3z M742,261c-0.5,0-1,0-1.4,0c-1.4-0.1-3-1.1-2.9-3.9v-0.6c0-0.6,0-0.6,0-0.9l0-0.6
					c0-0.5,0.1-0.9,0.2-1.3c0.2-0.4,0.5-0.6,0.9-0.7c0.3,0,0.6-0.1,0.8-0.1h0c0,0,0.1,0,0.2,0.1c0.1,0.1,0.1,0.1,0.1,0.2
					c0,0.5,0,1,0,1.5v0.5c0,0.1,0,0.2,0,0.2c0.1,0.1,0.2,0.2,0.4,0.2c0.1,0,0.2-0.1,0.2-0.3c0-2.1,0-4.1,0-6.1c0-0.2,0-0.4,0.1-0.7
					c0.2-0.4,0.6-0.6,1-0.6c0.2,0,0.4,0,0.5,0.1c0.4,0.2,0.6,0.5,0.6,0.9c0,0.5,0,0.9,0,1.4v0.5c0,0,0,0.1,0,0.2
					c0,0.1,0.2,0.2,0.4,0.2c0.2,0,0.3-0.1,0.3-0.3c0-0.1,0-0.3,0-0.4c0-0.2,0-0.4,0-0.6c0-0.5,0-0.9,0-1.3c0-0.2,0-0.4,0.1-0.5
					c0.2-0.4,0.6-0.6,1-0.6c0.2,0,0.3,0,0.5,0.1c0.4,0.2,0.6,0.5,0.7,0.9c0,0.5,0,1.1,0,1.6v0.7c0,0,0,0,0,0.1
					c0,0.2,0.2,0.3,0.4,0.3c0.2,0,0.4-0.1,0.4-0.3v-0.4c0-0.6,0-1.1,0-1.6c0-0.2,0-0.5,0.2-0.7c0.2-0.2,0.5-0.4,0.9-0.4
					c0.3,0,0.6,0.1,0.8,0.3c0.2,0.2,0.3,0.5,0.3,0.8v2.1c0,0.1,0,0.1,0,0.2c0,0.1,0.2,0.2,0.4,0.2c0.2,0,0.3-0.2,0.3-0.3
					c0-0.2,0-0.5,0-0.7c0-0.2,0-0.3,0-0.4c0-0.4,0.3-0.9,0.9-1c0.3,0,0.6,0,0.8,0.2c0.3,0.3,0.5,0.6,0.5,1.1c0,1.9,0,3.8,0,5.7v1.5
					c0,2.5-1.1,3.8-2.9,3.9h0l0,0c0,0-0.1,0-0.2,0c-0.1,0-0.2,0-0.3,0h-3.3c-0.5,0-0.9,0-1.4,0C742.9,261,742.4,261,742,261z
					 M739.6,253.2c-0.3,0-0.5,0-0.7,0.1c-0.3,0.1-0.5,0.2-0.7,0.5c-0.2,0.3-0.2,0.7-0.2,1.2v0.6c0,0.3,0,0.3,0,0.9v0.6
					c0,1.6,0.6,3.5,2.6,3.6c0.4,0,0.9,0,1.4,0c0.5,0,0.9,0,1.4,0s0.9,0,1.4,0h3.3c0.1,0,0.2,0,0.3,0c0.1,0,0.2,0,0.2,0
					c1.7,0,2.6-1.3,2.6-3.6V257v-1.3c0-1.9,0-3.8,0-5.7c0-0.4-0.1-0.6-0.4-0.9c-0.2-0.1-0.4-0.2-0.6-0.1c-0.4,0-0.7,0.4-0.7,0.7
					c0,0.2,0,0.3,0,0.4c0,0.2,0,0.5,0,0.7c0,0.3-0.2,0.5-0.6,0.6s-0.6-0.2-0.7-0.4c0-0.1,0-0.2,0-0.3v-2.1c0-0.3-0.1-0.5-0.2-0.6
					c-0.2-0.2-0.4-0.3-0.6-0.3c-0.3,0-0.6,0.2-0.7,0.4c-0.1,0.2-0.1,0.4-0.1,0.6c0,0.5,0,1.1,0,1.6v0.4c0,0.4-0.2,0.6-0.6,0.6l0,0
					c-0.4,0-0.6-0.2-0.7-0.6c0,0,0,0,0-0.1v-0.7c0-0.5,0-1.1,0-1.6c0-0.4-0.2-0.6-0.5-0.7c-0.1,0-0.2-0.1-0.4-0.1
					c-0.3,0-0.6,0.2-0.7,0.5c0,0.1-0.1,0.2-0.1,0.4c0,0.4,0,0.9,0,1.3c0,0.2,0,0.4,0,0.6c0,0.1,0,0.3,0,0.4c0,0.3-0.2,0.5-0.6,0.6
					c-0.3,0-0.6-0.2-0.7-0.4c0-0.1,0-0.2,0-0.3v-0.5c0-0.5,0-0.9,0-1.4c0-0.3-0.2-0.6-0.4-0.7c-0.1,0-0.2-0.1-0.4-0.1
					c-0.3,0-0.6,0.2-0.7,0.5c-0.1,0.2-0.1,0.3-0.1,0.6c0,2.1,0,4.1,0,6.1c0,0.3-0.2,0.5-0.4,0.6c-0.3,0.1-0.6,0-0.7-0.3
					c-0.1-0.1-0.1-0.3-0.1-0.4v-0.5C739.6,254.2,739.6,253.7,739.6,253.2z"/>
			</g>
		</g>
	</g>
	<g>
		<circle class="st19" cx="633.9" cy="510.2" r="17.8"/>
		<g id="Layer_1_57_" class="st13">
			<g>
				<path class="st14" d="M640.2,519.2h-12.4c-0.9,0-1.7-0.8-1.7-1.7V505c0-0.9,0.8-1.7,1.7-1.7h12.4c0.9,0,1.7,0.8,1.7,1.7v12.4
					C641.9,518.4,641.1,519.2,640.2,519.2z M627.7,504.7c-0.2,0-0.3,0.2-0.3,0.3v12.4c0,0.2,0.2,0.3,0.3,0.3h12.4
					c0.2,0,0.3-0.1,0.3-0.3V505c0-0.2-0.2-0.3-0.3-0.3H627.7L627.7,504.7z"/>
				<g>
					<path class="st14" d="M632.6,511.8c-0.7,0.7-1.3,1.3-2,2c-0.5,0.5,0.3,1.3,0.8,0.8c0.7-0.7,1.3-1.3,2-2
						C633.9,512.1,633.1,511.3,632.6,511.8L632.6,511.8z"/>
					<path class="st14" d="M636.6,507.9c-0.7,0.7-1.3,1.3-2,2c-0.5,0.5,0.3,1.3,0.8,0.8c0.7-0.7,1.3-1.3,2-2
						C637.9,508.1,637.1,507.3,636.6,507.9L636.6,507.9z"/>
					<path class="st14" d="M636,506.5l2.7-0.4c0.3,0,0.5,0.2,0.4,0.4l-0.4,2.7c0,0.3-0.4,0.4-0.6,0.2l-2.3-2.3
						C635.6,506.9,635.7,506.6,636,506.5z"/>
					<path class="st14" d="M631.9,516l-2.7,0.4c-0.3,0-0.5-0.2-0.4-0.4l0.4-2.7c0-0.3,0.4-0.4,0.6-0.2l2.3,2.3
						C632.4,515.6,632.3,515.9,631.9,516z"/>
				</g>
			</g>
		</g>
	</g>
	<g>
		<circle class="st19" cx="850.5" cy="515" r="17.8"/>
		<g id="Layer_1_56_" class="st13">
			<g>
				<path class="st14" d="M856.9,523h-13.1c-1,0-1.8-0.8-1.8-1.8v-13.1c0-1,0.8-1.8,1.8-1.8h13.1c1,0,1.8,0.8,1.8,1.8v13.1
					C858.7,522.2,857.9,523,856.9,523z M843.8,507.8c-0.2,0-0.3,0.2-0.3,0.3v13.1c0,0.2,0.2,0.3,0.3,0.3h13.1c0.2,0,0.3-0.1,0.3-0.3
					v-13.1c0-0.2-0.2-0.3-0.3-0.3H843.8L843.8,507.8z"/>
				<path class="st14" d="M848.9,523h-5.7c-0.7,0-1.2-0.5-1.2-1.2v-5.7c0-0.7,0.5-1.2,1.2-1.2h5.7c0.7,0,1.2,0.5,1.2,1.2v5.7
					C850.1,522.5,849.6,523,848.9,523z M843.5,521.5h5.2v-5.2h-5.2V521.5z"/>
			</g>
		</g>
	</g>
</g>
<g>
	<g>
		<rect x="1040.5" y="365.3" class="st2" width="77.3" height="77.3"/>
		<rect x="1040.5" y="490.7" class="st2" width="77.3" height="77.3"/>
		<rect x="1040.5" y="237.9" class="st2" width="77.3" height="77.3"/>
		<path class="st8" d="M1084.3,438.8L1084.3,438.8L1084.3,438.8z"/>
		<path class="st10" d="M1079.3,372.9c4,0,7.9,0.8,11.4,2.2l5.6-13.5c-10.6-4.3-22.8-4.6-34.2,0l5.6,13.6
			C1071.3,373.7,1075.2,372.9,1079.3,372.9z"/>
		<path class="st10" d="M1048.5,403.7c0-4,0.8-7.9,2.2-11.5l-13.6-5.7c-4.3,10.6-4.6,22.8,0,34.2l13.6-5.6
			C1049.2,411.6,1048.5,407.8,1048.5,403.7z"/>
		<path class="st10" d="M1107.7,391.6l13.4-5.5c-4.8-11.3-13.6-19.7-24.2-24.2l-5.6,13.5C1098.6,378.4,1104.5,384.3,1107.7,391.6z"
			/>
		<path class="st10" d="M1067.1,375.4l-5.7-13.6c-11.3,4.8-19.7,13.6-24.2,24.2l13.6,5.7C1054.1,384.4,1059.9,378.6,1067.1,375.4z"
			/>
		<path class="st10" d="M1121.3,386.6l-13.4,5.5c1.4,3.6,2.2,7.5,2.2,11.6c0,4.1-0.8,8-2.2,11.6l13.4,5.5
			C1125.6,410.2,1125.9,398,1121.3,386.6z"/>
		<path class="st10" d="M1091.3,432.1l5.6,13.4c11.3-4.8,19.7-13.6,24.2-24.2l-13.4-5.5C1104.5,423.2,1098.7,429,1091.3,432.1z"/>
		<path class="st10" d="M1079.3,434.6c-4.1,0-8-0.8-11.6-2.2l-5.6,13.5c10.6,4.3,22.8,4.6,34.2,0l-5.6-13.5
			C1087.2,433.8,1083.3,434.6,1079.3,434.6z"/>
		<path class="st9" d="M1050.9,415.8l-13.6,5.6c4.8,11.3,13.6,19.7,24.2,24.2l5.6-13.5C1059.8,428.9,1054,423.1,1050.9,415.8z"/>
		<g>
			<path class="st11" d="M1079.3,360.7c5.7,0,11.1,1.1,16,3.1l0.9-2.3c-10.6-4.3-22.8-4.6-34.2,0l1,2.3
				C1068.1,361.8,1073.6,360.7,1079.3,360.7z"/>
			<g class="st12">
				<path class="st11" d="M1080.4,360.4c-0.1,0-0.1,0-0.2-0.1l-1.3-1.3l-1.3,1.3c-0.1,0.1-0.2,0.1-0.3,0c-0.1-0.1-0.1-0.2,0-0.3
					l1.5-1.5c0.1-0.1,0.2-0.1,0.3,0l1.5,1.5c0.1,0.1,0.1,0.2,0,0.3C1080.6,360.4,1080.5,360.4,1080.4,360.4z"/>
			</g>
		</g>
		<g id="Layer_1_55_" class="st13">
			<g>
				<path class="st14" d="M1103.2,374.3c1.7,1.7,3.5,3.5,5.2,5.2c0.3,0.3,0.8-0.2,0.5-0.5c-1.7-1.7-3.5-3.5-5.2-5.2
					C1103.4,373.6,1102.9,374,1103.2,374.3L1103.2,374.3z"/>
				<path class="st14" d="M1103.7,379.6c1.7-1.7,3.5-3.5,5.2-5.2c0.3-0.3-0.2-0.8-0.5-0.5c-1.7,1.7-3.5,3.5-5.2,5.2
					C1102.9,379.4,1103.4,379.9,1103.7,379.6L1103.7,379.6z"/>
			</g>
		</g>
		<g id="Layer_1_54_" class="st13">
			<g>
				<g>
					<path class="st14" d="M1078.7,364.6c0,0.9,0,1.8,0,2.7c0,0.4,0.6,0.4,0.6,0c0-0.9,0-1.8,0-2.7
						C1079.3,364.2,1078.7,364.2,1078.7,364.6L1078.7,364.6z"/>
					<path class="st14" d="M1077.6,366.2c0.9,0,1.8,0,2.7,0c0.4,0,0.4-0.6,0-0.6c-0.9,0-1.8,0-2.7,0
						C1077.3,365.6,1077.3,366.2,1077.6,366.2L1077.6,366.2z"/>
				</g>
				<path class="st14" d="M1081.8,369.6h-5.7c-0.4,0-0.8-0.3-0.8-0.8v-5.7c0-0.4,0.3-0.8,0.8-0.8h5.7c0.4,0,0.8,0.3,0.8,0.8v5.7
					C1082.6,369.2,1082.3,369.6,1081.8,369.6z M1076.1,362.9c-0.1,0-0.1,0.1-0.1,0.1v5.7c0,0.1,0.1,0.1,0.1,0.1h5.7
					c0.1,0,0.1-0.1,0.1-0.1v-5.7c0-0.1-0.1-0.1-0.1-0.1H1076.1L1076.1,362.9z"/>
				<path class="st14" d="M1078.4,364.4l0.5-0.7c0.1-0.1,0.1-0.1,0.2,0l0.5,0.7c0.1,0.1,0,0.2-0.1,0.2h-1
					C1078.4,364.6,1078.3,364.5,1078.4,364.4z"/>
				<path class="st14" d="M1077.4,366.5l-0.7-0.5c-0.1-0.1-0.1-0.1,0-0.2l0.7-0.5c0.1-0.1,0.2,0,0.2,0.1v1
					C1077.6,366.5,1077.5,366.6,1077.4,366.5z"/>
				<path class="st14" d="M1080.5,365.3l0.7,0.5c0.1,0.1,0.1,0.1,0,0.2l-0.7,0.5c-0.1,0.1-0.2,0-0.2-0.1v-1
					C1080.3,365.3,1080.5,365.2,1080.5,365.3z"/>
				<path class="st14" d="M1079.6,367.5l-0.5,0.7c-0.1,0.1-0.1,0.1-0.2,0l-0.5-0.7c-0.1-0.1,0-0.2,0.1-0.2h1
					C1079.6,367.3,1079.7,367.4,1079.6,367.5z"/>
			</g>
		</g>
		<g id="Layer_1_53_" class="st13">
			<g>
				<path class="st14" d="M1081.2,443.9v1.4c0,0.4-0.3,0.7-0.7,0.7h-4.4c-0.4,0-0.7-0.3-0.7-0.7v-4.4c0-0.4,0.3-0.7,0.7-0.7h1.5v0.6
					h-1.5c0,0,0,0,0,0v4.4c0,0,0,0,0,0h4.4c0,0,0,0,0,0v-1.4L1081.2,443.9"/>
				<g>
					<path class="st14" d="M1082.4,439.5"/>
					<path class="st14" d="M1082.1,444.5h-4.4c-0.4,0-0.7-0.3-0.7-0.7v-4.4c0-0.4,0.3-0.7,0.7-0.7h4.4c0.4,0,0.7,0.3,0.7,0.7v4.4
						C1082.7,444.2,1082.4,444.5,1082.1,444.5z M1077.6,439.4C1077.6,439.4,1077.6,439.5,1077.6,439.4l0,4.4c0,0,0,0,0,0h4.4
						c0,0,0,0,0,0v-4.4c0,0,0,0,0,0L1077.6,439.4L1077.6,439.4z"/>
				</g>
			</g>
		</g>
		<g id="Layer_1_52_" class="st13">
			<g>
				<path class="st14" d="M1108.7,431.8h-4.4c-0.4,0-0.7-0.3-0.7-0.7v-4.4c0-0.4,0.3-0.7,0.7-0.7h4.4c0.4,0,0.7,0.3,0.7,0.7v4.4
					C1109.3,431.5,1109.1,431.8,1108.7,431.8z M1104.2,426.7C1104.2,426.7,1104.2,426.7,1104.2,426.7l0,4.4c0,0,0,0,0,0h4.4
					c0,0,0,0,0,0v-4.4c0,0,0,0,0,0H1104.2z"/>
				<path class="st14" d="M1105.1,433.2h-2.5c-0.3,0-0.5-0.2-0.5-0.5v-2.5c0-0.3,0.2-0.5,0.5-0.5h2.5c0.3,0,0.5,0.2,0.5,0.5v2.5
					C1105.6,433,1105.3,433.2,1105.1,433.2z M1102.7,432.6h2.2v-2.2h-2.2V432.6z"/>
			</g>
		</g>
		<g id="Layer_1_51_" class="st13">
			<g>
				<path class="st14" d="M1053.9,429c0-0.3-0.1-0.6-0.2-0.9c-0.1-0.3-0.3-0.5-0.5-0.7c-0.2-0.2-0.5-0.4-0.7-0.5
					c-0.3-0.1-0.5-0.2-0.8-0.3s-0.6,0-0.8,0c-0.1,0-0.2,0-0.3,0.1l-0.4,0.1l0.7-0.7c0.1-0.1,0.1-0.1,0.1-0.2s0-0.1-0.1-0.2
					c-0.1-0.1-0.3-0.1-0.4,0l-1,1c-0.1,0.1-0.1,0.1-0.1,0.2s0,0.1,0.1,0.2l1,1c0.1,0.1,0.3,0.1,0.4,0c0.1-0.1,0.1-0.1,0.1-0.2
					s0-0.1-0.1-0.2l-0.4-0.4l0.2-0.1c0.2-0.1,0.4-0.1,0.7-0.1c0.1,0,0.2,0,0.3,0c0.5,0.1,0.9,0.3,1.2,0.6c0.2,0.2,0.3,0.4,0.4,0.6
					c0.1,0.2,0.2,0.5,0.2,0.7c0.1,0.5-0.1,1-0.3,1.4c-0.1,0.1-0.1,0.2,0,0.3c0,0,0,0,0.1,0c0,0,0.1,0,0.1,0c0.1,0,0.2-0.1,0.2-0.1
					c0.2-0.3,0.3-0.5,0.3-0.8C1054,429.6,1054,429.3,1053.9,429z"/>
				<path class="st14" d="M1053,431.9c0.1-0.1,0.1-0.3,0-0.4l-1-1c-0.1-0.1-0.3-0.1-0.4,0c-0.1,0.1-0.1,0.3,0,0.4l0.4,0.4l-0.2,0.1
					c-0.3,0.1-0.7,0.1-1.1,0.1c-0.4-0.1-0.8-0.3-1.1-0.6c-0.2-0.2-0.3-0.4-0.4-0.6c-0.1-0.2-0.2-0.5-0.2-0.7c-0.1-0.5,0.1-1,0.3-1.4
					c0.1-0.1,0-0.3-0.1-0.4c0,0-0.1,0-0.1,0c-0.1,0-0.2,0.1-0.2,0.1c-0.2,0.3-0.3,0.5-0.3,0.8c-0.1,0.3-0.1,0.6,0,0.9
					c0,0.3,0.1,0.6,0.2,0.9c0.1,0.3,0.3,0.5,0.5,0.7l0,0c0.4,0.4,0.9,0.6,1.4,0.7c0.4,0.1,0.8,0.1,1.2,0l0.4-0.1l-0.7,0.7
					c-0.1,0.1-0.1,0.1-0.1,0.2s0,0.1,0.1,0.2c0.1,0.1,0.3,0.1,0.4,0L1053,431.9z"/>
			</g>
		</g>
		<g id="Layer_1_50_" class="st13">
			<g>
				<path class="st14" d="M1049.4,374.7c1.8,0,3.5,0,5.3,0c0.3,0,0.3-0.5,0-0.5c-1.8,0-3.5,0-5.3,0
					C1049.1,374.2,1049.1,374.7,1049.4,374.7L1049.4,374.7z"/>
				<path class="st14" d="M1049.4,376.5c1.8,0,3.5,0,5.3,0c0.3,0,0.3-0.5,0-0.5c-1.8,0-3.5,0-5.3,0
					C1049.1,375.9,1049.1,376.5,1049.4,376.5L1049.4,376.5z"/>
				<path class="st14" d="M1049.4,378.2c1.8,0,3.5,0,5.3,0c0.3,0,0.3-0.5,0-0.5c-1.8,0-3.5,0-5.3,0
					C1049.1,377.7,1049.1,378.2,1049.4,378.2L1049.4,378.2z"/>
			</g>
		</g>
		<g id="Layer_1_49_" class="st13">
			<path class="st14" d="M1119.3,407.5L1119.3,407.5c-0.3,0-0.5-0.1-0.7-0.3c-0.2-0.1-3-3-3.3-3.3c-0.1,0-0.1,0-0.1,0
				c-0.5,0-0.9-0.2-1.2-0.5c-0.3-0.3-0.4-0.6-0.5-1c0-0.2,0-0.3,0-0.5c0-0.2,0.2-0.3,0.4-0.3c0.1,0,0.1,0,0.2,0
				c0.1,0,0.1,0.1,0.2,0.1l0.2,0.2c0.1,0.1,0.2,0.2,0.4,0.4c0,0,0,0,0.1,0s0,0,0,0c0.1,0,0.1,0,0.1-0.1c0,0,0,0,0.1-0.1c0,0,0,0,0,0
				c0-0.1,0.1-0.1,0.1-0.1c0,0,0.1-0.1,0.2-0.2c0,0,0,0,0,0c0-0.1,0-0.1,0-0.1c0,0-0.1-0.1-0.2-0.2c-0.2-0.1-0.4-0.3-0.5-0.4
				s-0.2-0.3-0.1-0.4v0c0.1-0.2,0.2-0.3,0.4-0.3c0.2,0,0.3,0,0.5,0c0.5,0.1,0.9,0.3,1.1,0.7c0.1,0.2,0.2,0.5,0.3,0.7
				c0,0.1,0,0.3,0,0.4c0.4,0.5,3,3.1,3.2,3.2c0.4,0.4,0.5,0.9,0.2,1.4C1120,407.3,1119.7,407.5,1119.3,407.5z M1115.2,403.6
				c0.1,0,0.2,0,0.2,0.1c0.4,0.4,3.2,3.2,3.3,3.3c0.1,0.1,0.3,0.2,0.5,0.2c0.3,0,0.5-0.1,0.6-0.4c0.2-0.3,0.1-0.7-0.1-0.9
				c-0.1,0-0.9-0.9-1.7-1.7c-1.6-1.6-1.6-1.6-1.6-1.7l0,0l0-0.1c0-0.1,0-0.2,0-0.4c0-0.2-0.1-0.4-0.2-0.6c-0.2-0.3-0.5-0.5-0.9-0.6
				c-0.1,0-0.3,0-0.4,0c-0.1,0-0.1,0-0.1,0c0,0,0,0,0,0.1c0.1,0.1,0.3,0.3,0.4,0.4c0.1,0.1,0.2,0.2,0.2,0.2c0.1,0.2,0.2,0.3,0.1,0.5
				c0,0.1,0,0.1-0.1,0.1l0,0c-0.1,0.1-0.1,0.2-0.2,0.2c0,0-0.1,0.1-0.1,0.1c0,0,0,0-0.1,0.1c0,0,0,0,0,0c-0.1,0.1-0.3,0.2-0.5,0.2
				c-0.1,0-0.2-0.1-0.3-0.2c-0.1-0.1-0.2-0.2-0.4-0.4l-0.2-0.2c0,0-0.1,0-0.1,0c0,0.1,0,0.2,0,0.3c0,0.3,0.2,0.5,0.4,0.7
				c0.3,0.3,0.7,0.4,1.1,0.4C1115.2,403.6,1115.2,403.6,1115.2,403.6z M1119.2,406.8c-0.2,0-0.4-0.2-0.4-0.4c0-0.2,0.2-0.4,0.4-0.4
				c0.2,0,0.4,0.2,0.4,0.4C1119.6,406.6,1119.4,406.8,1119.2,406.8z"/>
		</g>
		<g id="Layer_1_48_" class="st13">
			<g>
				<g>
					<g>
						<path class="st14" d="M1044.2,404.8c0.7-1.2,0.1-2.8-1.2-3.7c-0.7-0.4-1.5-0.6-2.3-0.4c-0.8,0.2-1.4,0.7-1.9,1.3
							s-0.6,1.5-0.4,2.3c0.2,0.8,0.7,1.4,1.3,1.9c0.1,0.1,0.4,0,0.5-0.1c0.1-0.1,0.1-0.1,0-0.2v0v0c0-0.1,0-0.3,0.1-0.5
							c0.2-0.3,0.7-0.4,1-0.2l0.5,0.3c0.5,0.3,1,0.3,1.4,0.1l0.3,0.3c-0.6,0.3-1.3,0.3-2-0.1l-0.5-0.3c-0.1-0.1-0.4,0-0.5,0.1
							c0,0.1,0,0.1,0,0.3c0,0.2,0,0.3-0.1,0.5c-0.2,0.3-0.7,0.4-1,0.2c-0.8-0.5-1.3-1.2-1.5-2.1c-0.2-0.9,0-1.8,0.4-2.6
							c0.5-0.8,1.2-1.3,2.1-1.5c0.9-0.2,1.8-0.1,2.5,0.4c1.6,1,2.1,2.9,1.3,4.3L1044.2,404.8z"/>
					</g>
				</g>
				<g>
					<path class="st14" d="M1045.2,406.7C1045.2,406.7,1045.2,406.7,1045.2,406.7L1045.2,406.7c0.1,0,0.1,0,0.2,0c0-0.1,0-0.1,0-0.1
						l-0.7-0.7c-0.2-0.3-0.5-0.5-0.7-0.8l-0.6-0.6c0,0-0.3-0.3-0.3-0.3l-0.1-0.1c0,0-0.1-0.1-0.1-0.1c-0.1-0.1-0.1-0.1-0.1-0.2
						c-0.1-0.1-0.2-0.2-0.3-0.3c-0.1-0.1-0.1-0.1-0.2-0.1c-0.1,0-0.3,0.1-0.3,0.2c0,0.1-0.1,0.2,0,0.3c0,0,0.1,0.1,0.2,0.2l0.1,0.1
						c0.1,0.1,0.2,0.2,0.4,0.3c0.1,0.1,0.2,0.2,0.3,0.3l0,0l1.7,1.5C1044.8,406.4,1045,406.6,1045.2,406.7z"/>
					<path class="st14" d="M1041.6,402.4L1041.6,402.4c-0.1-0.1-0.1-0.1-0.2-0.2l0,0c-0.1-0.1-0.2-0.1-0.3-0.2
						c-0.2-0.1-0.4-0.1-0.6-0.1c0.1,0.1,0.3,0.2,0.3,0.4c0,0.1,0.1,0.2,0.1,0.3c0,0,0,0.1,0,0.1l0,0.1c0,0.2,0.2,0.3,0.3,0.3
						c0,0,0,0,0.1,0c0.2,0,0.4-0.1,0.4-0.3c0-0.1,0-0.3-0.1-0.4C1041.6,402.4,1041.6,402.4,1041.6,402.4z"/>
				</g>
			</g>
		</g>
		<path class="st15" d="M1087.7,464.7h-17.9c-2.9,0-5.3-2.3-5.3-5.1l0,0c0-2.8,2.4-5.1,5.3-5.1h17.9c2.9,0,5.3,2.3,5.3,5.1l0,0
			C1093,462.4,1090.6,464.7,1087.7,464.7z"/>
		<rect x="1070.4" y="457.8" class="st16" width="19.5" height="6.6"/>
		<text transform="matrix(1 0 0 1 1069.4886 461.7423)" class="st8 st17 st20">Image</text>
		<g>
			<path class="st11" d="M1048.8,434.1c-4-4-7.1-8.6-9.1-13.5l-2.3,0.9c4.4,10.5,12.8,19.4,24.2,24.2l1-2.3
				C1057.5,441.2,1052.9,438.2,1048.8,434.1z"/>
			<g class="st12">
				<path class="st11" d="M1047.8,433.5c0,0,0.1,0.1,0.1,0.2v1.9h1.9c0.1,0,0.2,0.1,0.2,0.2c0,0.1-0.1,0.2-0.2,0.2h-2.1
					c-0.1,0-0.2-0.1-0.2-0.2v-2.1c0-0.1,0.1-0.2,0.2-0.2C1047.7,433.4,1047.8,433.5,1047.8,433.5z"/>
			</g>
		</g>
		<g>
			<path class="st11" d="M1109.6,434.3c-4,4-8.6,7.1-13.5,9.1l0.9,2.3c10.5-4.4,19.4-12.8,24.2-24.2l-2.3-1
				C1116.8,425.5,1113.7,430.2,1109.6,434.3z"/>
			<g class="st12">
				<path class="st11" d="M1109.1,435.3c0,0,0.1-0.1,0.2-0.1h1.9v-1.9c0-0.1,0.1-0.2,0.2-0.2c0.1,0,0.2,0.1,0.2,0.2v2.1
					c0,0.1-0.1,0.2-0.2,0.2h-2.1c-0.1,0-0.2-0.1-0.2-0.2C1109,435.4,1109,435.3,1109.1,435.3z"/>
			</g>
		</g>
		<g class="st12">
			<path class="st8" d="M1079.8,360.3c0,0-0.1,0-0.1,0l-0.9-0.9l-0.9,0.9c-0.1,0.1-0.2,0.1-0.2,0s-0.1-0.2,0-0.2l1-1
				c0.1-0.1,0.2-0.1,0.2,0l1,1C1079.9,360.1,1079.9,360.2,1079.8,360.3C1079.9,360.3,1079.9,360.3,1079.8,360.3z"/>
		</g>
		<g class="st12">
			<path class="st8" d="M1046.7,432.8c0,0,0,0.1,0.1,0.1v1.3h1.3c0.1,0,0.1,0.1,0.2,0.2c0,0.1-0.1,0.1-0.2,0.2h-1.4
				c-0.1,0-0.1-0.1-0.2-0.2v-1.4C1046.5,432.9,1046.5,432.8,1046.7,432.8C1046.6,432.7,1046.7,432.8,1046.7,432.8z"/>
		</g>
		<g class="st12">
			<path class="st8" d="M1109.7,435.2c0,0,0.1,0,0.1-0.1h1.3v-1.3c0-0.1,0.1-0.1,0.2-0.2c0.1,0,0.1,0.1,0.2,0.2v1.4
				c0,0.1-0.1,0.1-0.2,0.2h-1.4C1109.8,435.5,1109.7,435.4,1109.7,435.2C1109.7,435.3,1109.7,435.3,1109.7,435.2z"/>
		</g>
		<g>
			<circle class="st19" cx="1035.6" cy="444.8" r="7"/>
			<g id="Layer_1_47_" class="st13">
				<g>
					<path class="st14" d="M1038,448.4h-4.9c-0.4,0-0.7-0.3-0.7-0.7v-4.9c0-0.4,0.3-0.7,0.7-0.7h4.9c0.4,0,0.7,0.3,0.7,0.7v4.9
						C1038.7,448,1038.4,448.4,1038,448.4z M1033.2,442.7c-0.1,0-0.1,0.1-0.1,0.1v4.9c0,0.1,0.1,0.1,0.1,0.1h4.9
						c0.1,0,0.1,0,0.1-0.1v-4.9c0-0.1-0.1-0.1-0.1-0.1H1033.2L1033.2,442.7z"/>
					<g>
						<path class="st14" d="M1035.1,445.5c-0.3,0.3-0.5,0.5-0.8,0.8c-0.2,0.2,0.1,0.5,0.3,0.3c0.3-0.3,0.5-0.5,0.8-0.8
							C1035.6,445.6,1035.3,445.3,1035.1,445.5L1035.1,445.5z"/>
						<path class="st14" d="M1036.6,443.9c-0.3,0.3-0.5,0.5-0.8,0.8c-0.2,0.2,0.1,0.5,0.3,0.3c0.3-0.3,0.5-0.5,0.8-0.8
							C1037.1,444,1036.8,443.7,1036.6,443.9L1036.6,443.9z"/>
						<path class="st14" d="M1036.4,443.4l1.1-0.2c0.1,0,0.2,0.1,0.2,0.2l-0.2,1.1c0,0.1-0.2,0.2-0.2,0.1l-0.9-0.9
							C1036.2,443.6,1036.3,443.4,1036.4,443.4z"/>
						<path class="st14" d="M1034.8,447.1l-1.1,0.2c-0.1,0-0.2-0.1-0.2-0.2l0.2-1.1c0-0.1,0.2-0.2,0.2-0.1l0.9,0.9
							C1035,446.9,1034.9,447.1,1034.8,447.1z"/>
					</g>
				</g>
			</g>
		</g>
	</g>
	<g>
		<rect x="1044.1" y="493" class="st16" width="70.2" height="70.2"/>
		<path class="st8" d="M1084.3,563.1L1084.3,563.1L1084.3,563.1z"/>
		<g class="st13">
			<path class="st8" d="M1079.3,497.2c4,0,7.9,0.8,11.4,2.2l5.6-13.5c-10.6-4.3-22.8-4.6-34.2,0l5.6,13.6
				C1071.3,498,1075.2,497.2,1079.3,497.2z"/>
			<path class="st8" d="M1048.5,528c0-4,0.8-7.9,2.2-11.5l-13.6-5.7c-4.3,10.6-4.6,22.8,0,34.2l13.6-5.6
				C1049.2,536,1048.5,532.1,1048.5,528z"/>
			<path class="st8" d="M1107.6,515.9l13.4-5.5c-4.8-11.3-13.6-19.7-24.2-24.2l-5.6,13.5C1098.6,502.7,1104.5,508.6,1107.6,515.9z"
				/>
			<path class="st8" d="M1067.1,499.7l-5.7-13.6c-11.3,4.8-19.7,13.6-24.2,24.2l13.6,5.7C1054,508.7,1059.9,502.9,1067.1,499.7z"/>
			<path class="st8" d="M1121.3,510.9l-13.4,5.5c1.4,3.6,2.2,7.5,2.2,11.6c0,4.1-0.8,8-2.2,11.6l13.4,5.5
				C1125.6,534.5,1125.9,522.3,1121.3,510.9z"/>
			<path class="st11" d="M1091.3,556.5l5.6,13.4c11.3-4.8,19.7-13.6,24.2-24.2l-13.4-5.5C1104.5,547.5,1098.6,553.3,1091.3,556.5z"
				/>
			<path class="st8" d="M1079.3,558.9c-4.1,0-8-0.8-11.6-2.2l-5.6,13.5c10.6,4.3,22.8,4.6,34.2,0l-5.6-13.5
				C1087.2,558.1,1083.3,558.9,1079.3,558.9z"/>
			<path class="st8" d="M1050.9,540.1l-13.6,5.6c4.8,11.3,13.6,19.7,24.2,24.2l5.6-13.5C1059.8,553.2,1054,547.4,1050.9,540.1z"/>
		</g>
		<g>
			<path class="st11" d="M1079.3,485c5.7,0,11.1,1.1,16,3.1l0.9-2.3c-10.6-4.3-22.8-4.6-34.2,0l1,2.3
				C1068.1,486.1,1073.6,485,1079.3,485z"/>
			<g class="st12">
				<path class="st11" d="M1080.4,484.7c-0.1,0-0.1,0-0.2-0.1l-1.3-1.3l-1.3,1.3c-0.1,0.1-0.2,0.1-0.3,0c-0.1-0.1-0.1-0.2,0-0.3
					l1.5-1.5c0.1-0.1,0.2-0.1,0.3,0l1.5,1.5c0.1,0.1,0.1,0.2,0,0.3C1080.5,484.7,1080.4,484.7,1080.4,484.7z"/>
			</g>
		</g>
		<g id="Layer_1_46_" class="st13">
			<g>
				<path class="st14" d="M1103.2,498.6c1.7,1.7,3.5,3.5,5.2,5.2c0.3,0.3,0.8-0.2,0.5-0.5c-1.7-1.7-3.5-3.5-5.2-5.2
					C1103.3,497.9,1102.8,498.3,1103.2,498.6L1103.2,498.6z"/>
				<path class="st14" d="M1103.6,503.9c1.7-1.7,3.5-3.5,5.2-5.2c0.3-0.3-0.2-0.8-0.5-0.5c-1.7,1.7-3.5,3.5-5.2,5.2
					C1102.8,503.7,1103.3,504.2,1103.6,503.9L1103.6,503.9z"/>
			</g>
		</g>
		<g id="Layer_1_45_" class="st13">
			<g>
				<g>
					<path class="st14" d="M1078.7,488.9c0,0.9,0,1.8,0,2.7c0,0.4,0.6,0.4,0.6,0c0-0.9,0-1.8,0-2.7
						C1079.2,488.5,1078.7,488.5,1078.7,488.9L1078.7,488.9z"/>
					<path class="st14" d="M1077.6,490.5c0.9,0,1.8,0,2.7,0c0.4,0,0.4-0.6,0-0.6c-0.9,0-1.8,0-2.7,0
						C1077.2,490,1077.2,490.5,1077.6,490.5L1077.6,490.5z"/>
				</g>
				<path class="st14" d="M1081.8,493.9h-5.7c-0.4,0-0.8-0.3-0.8-0.8v-5.7c0-0.4,0.3-0.8,0.8-0.8h5.7c0.4,0,0.8,0.3,0.8,0.8v5.7
					C1082.6,493.5,1082.3,493.9,1081.8,493.9z M1076.1,487.2c-0.1,0-0.1,0.1-0.1,0.1v5.7c0,0.1,0.1,0.1,0.1,0.1h5.7
					c0.1,0,0.1-0.1,0.1-0.1v-5.7c0-0.1-0.1-0.1-0.1-0.1H1076.1L1076.1,487.2z"/>
				<path class="st14" d="M1078.3,488.7l0.5-0.7c0.1-0.1,0.1-0.1,0.2,0l0.5,0.7c0.1,0.1,0,0.2-0.1,0.2h-1
					C1078.3,488.9,1078.3,488.8,1078.3,488.7z"/>
				<path class="st14" d="M1077.4,490.9l-0.7-0.5c-0.1-0.1-0.1-0.1,0-0.2l0.7-0.5c0.1-0.1,0.2,0,0.2,0.1v1
					C1077.6,490.9,1077.5,490.9,1077.4,490.9z"/>
				<path class="st14" d="M1080.5,489.6l0.7,0.5c0.1,0.1,0.1,0.1,0,0.2l-0.7,0.5c-0.1,0.1-0.2,0-0.2-0.1v-1
					C1080.3,489.6,1080.4,489.6,1080.5,489.6z"/>
				<path class="st14" d="M1079.6,491.8l-0.5,0.7c-0.1,0.1-0.1,0.1-0.2,0l-0.5-0.7c-0.1-0.1,0-0.2,0.1-0.2h1
					C1079.6,491.6,1079.6,491.7,1079.6,491.8z"/>
			</g>
		</g>
		<g id="Layer_1_44_" class="st13">
			<g>
				<path class="st14" d="M1081.2,568.2v1.4c0,0.4-0.3,0.7-0.7,0.7h-4.4c-0.4,0-0.7-0.3-0.7-0.7v-4.4c0-0.4,0.3-0.7,0.7-0.7h1.5v0.6
					h-1.5c0,0,0,0,0,0v4.4c0,0,0,0,0,0h4.4c0,0,0,0,0,0v-1.4L1081.2,568.2"/>
				<g>
					<path class="st14" d="M1082.4,563.8"/>
					<path class="st14" d="M1082,568.8h-4.4c-0.4,0-0.7-0.3-0.7-0.7v-4.4c0-0.4,0.3-0.7,0.7-0.7h4.4c0.4,0,0.7,0.3,0.7,0.7v4.4
						C1082.7,568.5,1082.4,568.8,1082,568.8z M1077.6,563.7C1077.6,563.7,1077.6,563.8,1077.6,563.7l0,4.4c0,0,0,0,0,0h4.4
						c0,0,0,0,0,0v-4.4c0,0,0,0,0,0L1077.6,563.7L1077.6,563.7z"/>
				</g>
			</g>
		</g>
		<g id="Layer_1_43_" class="st13">
			<g>
				<path class="st14" d="M1108.7,556.1h-4.4c-0.4,0-0.7-0.3-0.7-0.7V551c0-0.4,0.3-0.7,0.7-0.7h4.4c0.4,0,0.7,0.3,0.7,0.7v4.4
					C1109.3,555.8,1109,556.1,1108.7,556.1z M1104.2,551C1104.2,551,1104.2,551,1104.2,551l0,4.4c0,0,0,0,0,0h4.4c0,0,0,0,0,0V551
					c0,0,0,0,0,0H1104.2z"/>
				<path class="st14" d="M1105.1,557.5h-2.5c-0.3,0-0.5-0.2-0.5-0.5v-2.5c0-0.3,0.2-0.5,0.5-0.5h2.5c0.3,0,0.5,0.2,0.5,0.5v2.5
					C1105.6,557.3,1105.3,557.5,1105.1,557.5z M1102.7,556.9h2.2v-2.2h-2.2V556.9z"/>
			</g>
		</g>
		<g id="Layer_1_42_" class="st13">
			<g>
				<path class="st14" d="M1053.9,553.3c0-0.3-0.1-0.6-0.2-0.9c-0.1-0.3-0.3-0.5-0.5-0.7c-0.2-0.2-0.5-0.4-0.7-0.5
					c-0.3-0.1-0.5-0.2-0.8-0.3s-0.6,0-0.8,0c-0.1,0-0.2,0-0.3,0.1l-0.4,0.1l0.7-0.7c0.1-0.1,0.1-0.1,0.1-0.2s0-0.1-0.1-0.2
					c-0.1-0.1-0.3-0.1-0.4,0l-1,1c-0.1,0.1-0.1,0.1-0.1,0.2c0,0.1,0,0.1,0.1,0.2l1,1c0.1,0.1,0.3,0.1,0.4,0c0.1-0.1,0.1-0.1,0.1-0.2
					c0-0.1,0-0.1-0.1-0.2l-0.4-0.4l0.2-0.1c0.2-0.1,0.4-0.1,0.7-0.1c0.1,0,0.2,0,0.3,0c0.5,0.1,0.9,0.3,1.2,0.6
					c0.2,0.2,0.3,0.4,0.4,0.6c0.1,0.2,0.2,0.5,0.2,0.7c0.1,0.5-0.1,1-0.3,1.4c-0.1,0.1-0.1,0.2,0,0.3c0,0,0,0,0.1,0c0,0,0.1,0,0.1,0
					c0.1,0,0.2-0.1,0.2-0.1c0.2-0.3,0.3-0.5,0.3-0.8C1053.9,553.9,1054,553.6,1053.9,553.3z"/>
				<path class="st14" d="M1053,556.2c0.1-0.1,0.1-0.3,0-0.4l-1-1c-0.1-0.1-0.3-0.1-0.4,0c-0.1,0.1-0.1,0.3,0,0.4l0.4,0.4l-0.2,0.1
					c-0.3,0.1-0.7,0.1-1.1,0.1c-0.4-0.1-0.8-0.3-1.1-0.6c-0.2-0.2-0.3-0.4-0.4-0.6c-0.1-0.2-0.2-0.5-0.2-0.7c-0.1-0.5,0.1-1,0.3-1.4
					c0.1-0.1,0-0.3-0.1-0.4c0,0-0.1,0-0.1,0c-0.1,0-0.2,0.1-0.2,0.1c-0.2,0.3-0.3,0.5-0.3,0.8c-0.1,0.3-0.1,0.6,0,0.9
					s0.1,0.6,0.2,0.9c0.1,0.3,0.3,0.5,0.5,0.7l0,0c0.4,0.4,0.9,0.6,1.4,0.7c0.4,0.1,0.8,0.1,1.2,0l0.4-0.1l-0.7,0.7
					c-0.1,0.1-0.1,0.1-0.1,0.2c0,0.1,0,0.1,0.1,0.2c0.1,0.1,0.3,0.1,0.4,0L1053,556.2z"/>
			</g>
		</g>
		<g id="Layer_1_21_" class="st13">
			<g>
				<path class="st14" d="M1049.4,499c1.8,0,3.5,0,5.3,0c0.3,0,0.3-0.5,0-0.5c-1.8,0-3.5,0-5.3,0C1049.1,498.5,1049,499,1049.4,499
					L1049.4,499z"/>
				<path class="st14" d="M1049.4,500.8c1.8,0,3.5,0,5.3,0c0.3,0,0.3-0.5,0-0.5c-1.8,0-3.5,0-5.3,0
					C1049.1,500.2,1049,500.8,1049.4,500.8L1049.4,500.8z"/>
				<path class="st14" d="M1049.4,502.5c1.8,0,3.5,0,5.3,0c0.3,0,0.3-0.5,0-0.5c-1.8,0-3.5,0-5.3,0
					C1049.1,502,1049,502.5,1049.4,502.5L1049.4,502.5z"/>
			</g>
		</g>
		<g id="Layer_1_13_" class="st13">
			<path class="st14" d="M1119.2,531.8L1119.2,531.8c-0.3,0-0.5-0.1-0.7-0.3c-0.2-0.1-3-3-3.3-3.3c-0.1,0-0.1,0-0.1,0
				c-0.5,0-0.9-0.2-1.2-0.5c-0.3-0.3-0.4-0.6-0.5-1c0-0.2,0-0.3,0-0.5s0.2-0.3,0.4-0.3c0.1,0,0.1,0,0.2,0c0.1,0,0.1,0.1,0.2,0.1
				l0.2,0.2c0.1,0.1,0.2,0.2,0.4,0.4c0,0,0,0,0.1,0c0,0,0,0,0,0c0.1,0,0.1,0,0.1-0.1s0,0,0.1-0.1c0,0,0,0,0,0c0-0.1,0.1-0.1,0.1-0.1
				s0.1-0.1,0.2-0.2c0,0,0,0,0,0c0-0.1,0-0.1,0-0.1c0,0-0.1-0.1-0.2-0.2c-0.2-0.1-0.4-0.3-0.5-0.4c-0.1-0.1-0.2-0.3-0.1-0.4v0
				c0.1-0.2,0.2-0.3,0.4-0.3c0.2,0,0.3,0,0.5,0c0.5,0.1,0.9,0.3,1.1,0.7c0.1,0.2,0.2,0.5,0.3,0.7c0,0.1,0,0.3,0,0.4
				c0.4,0.5,3,3.1,3.2,3.2c0.4,0.4,0.5,0.9,0.2,1.4C1120,531.6,1119.6,531.8,1119.2,531.8z M1115.2,527.9c0.1,0,0.2,0,0.2,0.1
				c0.4,0.4,3.2,3.2,3.3,3.3c0.1,0.1,0.3,0.2,0.5,0.2c0.3,0,0.5-0.1,0.6-0.4c0.2-0.3,0.1-0.7-0.1-0.9c-0.1,0-0.9-0.9-1.7-1.7
				c-1.6-1.6-1.6-1.6-1.6-1.7l0,0l0-0.1c0-0.1,0-0.2,0-0.4c0-0.2-0.1-0.4-0.2-0.6c-0.2-0.3-0.5-0.5-0.9-0.6c-0.1,0-0.3,0-0.4,0
				c-0.1,0-0.1,0-0.1,0c0,0,0,0,0,0.1c0.1,0.1,0.3,0.3,0.4,0.4c0.1,0.1,0.2,0.2,0.2,0.2c0.1,0.2,0.2,0.3,0.1,0.5
				c0,0.1,0,0.1-0.1,0.1l0,0c-0.1,0.1-0.1,0.2-0.2,0.2c0,0-0.1,0.1-0.1,0.1c0,0,0,0-0.1,0.1s0,0,0,0c-0.1,0.1-0.3,0.2-0.5,0.2
				c-0.1,0-0.2-0.1-0.3-0.2c-0.1-0.1-0.2-0.2-0.4-0.4l-0.2-0.2c0,0-0.1,0-0.1,0c0,0.1,0,0.2,0,0.3c0,0.3,0.2,0.5,0.4,0.7
				c0.3,0.3,0.7,0.4,1.1,0.4C1115.2,527.9,1115.2,527.9,1115.2,527.9z M1119.2,531.1c-0.2,0-0.4-0.2-0.4-0.4c0-0.2,0.2-0.4,0.4-0.4
				c0.2,0,0.4,0.2,0.4,0.4C1119.5,530.9,1119.4,531.1,1119.2,531.1z"/>
		</g>
		<g id="Layer_1_12_" class="st13">
			<g>
				<g>
					<g>
						<path class="st14" d="M1044.2,529.1c0.7-1.2,0.1-2.8-1.2-3.7c-0.7-0.4-1.5-0.6-2.3-0.4c-0.8,0.2-1.4,0.7-1.9,1.3
							c-0.4,0.7-0.6,1.5-0.4,2.3c0.2,0.8,0.7,1.4,1.3,1.9c0.1,0.1,0.4,0,0.5-0.1c0.1-0.1,0.1-0.1,0-0.2v0v0c0-0.1,0-0.3,0.1-0.5
							c0.2-0.3,0.7-0.4,1-0.2l0.5,0.3c0.5,0.3,1,0.3,1.4,0.1l0.3,0.3c-0.6,0.3-1.3,0.3-2-0.1l-0.5-0.3c-0.1-0.1-0.4,0-0.5,0.1
							c0,0.1,0,0.1,0,0.3c0,0.2,0,0.3-0.1,0.5c-0.2,0.3-0.7,0.4-1,0.2c-0.8-0.5-1.3-1.2-1.5-2.1c-0.2-0.9,0-1.8,0.4-2.6
							c0.5-0.8,1.2-1.3,2.1-1.5s1.8-0.1,2.5,0.4c1.6,1,2.1,2.9,1.3,4.3L1044.2,529.1z"/>
					</g>
				</g>
				<g>
					<path class="st14" d="M1045.1,531C1045.2,531,1045.2,531,1045.1,531L1045.1,531c0.1,0,0.1,0,0.2,0c0-0.1,0-0.1,0-0.1l-0.7-0.7
						c-0.2-0.3-0.5-0.5-0.7-0.8l-0.6-0.6c0,0-0.3-0.3-0.3-0.3l-0.1-0.1c0,0-0.1-0.1-0.1-0.1c-0.1-0.1-0.1-0.1-0.1-0.2
						c-0.1-0.1-0.2-0.2-0.3-0.3c-0.1-0.1-0.1-0.1-0.2-0.1c-0.1,0-0.3,0.1-0.3,0.2c0,0.1-0.1,0.2,0,0.3c0,0,0.1,0.1,0.2,0.2l0.1,0.1
						c0.1,0.1,0.2,0.2,0.4,0.3c0.1,0.1,0.2,0.2,0.3,0.3l0,0l1.7,1.5C1044.8,530.7,1045,530.9,1045.1,531z"/>
					<path class="st14" d="M1041.6,526.7L1041.6,526.7c-0.1-0.1-0.1-0.1-0.2-0.2l0,0c-0.1-0.1-0.2-0.1-0.3-0.2
						c-0.2-0.1-0.4-0.1-0.6-0.1c0.1,0.1,0.3,0.2,0.3,0.4c0,0.1,0.1,0.2,0.1,0.3c0,0,0,0.1,0,0.1l0,0.1c0,0.2,0.2,0.3,0.3,0.3
						c0,0,0,0,0.1,0c0.2,0,0.4-0.1,0.4-0.3c0-0.1,0-0.3-0.1-0.4C1041.6,526.7,1041.6,526.7,1041.6,526.7z"/>
				</g>
			</g>
		</g>
		<path class="st15" d="M1087.7,589h-17.9c-2.9,0-5.3-2.3-5.3-5.1l0,0c0-2.8,2.4-5.1,5.3-5.1h17.9c2.9,0,5.3,2.3,5.3,5.1l0,0
			C1093,586.7,1090.6,589,1087.7,589z"/>
		<rect x="1070.4" y="582.1" class="st16" width="19.5" height="6.6"/>
		<text transform="matrix(1 0 0 1 1069.4603 586.0538)" class="st8 st17 st20">Image</text>
		<g>
			<path class="st11" d="M1048.8,558.4c-4-4-7.1-8.6-9.1-13.5l-2.3,0.9c4.4,10.5,12.8,19.4,24.2,24.2l1-2.3
				C1057.5,565.5,1052.8,562.5,1048.8,558.4z"/>
			<g class="st12">
				<path class="st11" d="M1047.8,557.8c0,0,0.1,0.1,0.1,0.2v1.9h1.9c0.1,0,0.2,0.1,0.2,0.2s-0.1,0.2-0.2,0.2h-2.1
					c-0.1,0-0.2-0.1-0.2-0.2V558c0-0.1,0.1-0.2,0.2-0.2C1047.6,557.8,1047.7,557.8,1047.8,557.8z"/>
			</g>
		</g>
		<g>
			<path class="st11" d="M1109.6,558.6c-4,4-8.6,7.1-13.5,9.1l0.9,2.3c10.5-4.4,19.4-12.8,24.2-24.2l-2.3-1
				C1116.8,549.8,1113.7,554.5,1109.6,558.6z"/>
			<g class="st12">
				<path class="st11" d="M1109,559.6c0,0,0.1-0.1,0.2-0.1h1.9v-1.9c0-0.1,0.1-0.2,0.2-0.2c0.1,0,0.2,0.1,0.2,0.2v2.1
					c0,0.1-0.1,0.2-0.2,0.2h-2.1c-0.1,0-0.2-0.1-0.2-0.2C1108.9,559.7,1109,559.6,1109,559.6z"/>
			</g>
		</g>
		<g class="st12">
			<path class="st8" d="M1079.8,484.6c0,0-0.1,0-0.1,0l-0.9-0.9l-0.9,0.9c-0.1,0.1-0.2,0.1-0.2,0c-0.1-0.1-0.1-0.2,0-0.2l1-1
				c0.1-0.1,0.2-0.1,0.2,0l1,1C1079.9,484.4,1079.9,484.5,1079.8,484.6C1079.9,484.6,1079.8,484.6,1079.8,484.6z"/>
		</g>
		<g class="st12">
			<path class="st8" d="M1046.7,557.1c0,0,0,0.1,0.1,0.1v1.3h1.3c0.1,0,0.1,0.1,0.2,0.2c0,0.1-0.1,0.1-0.2,0.2h-1.4
				c-0.1,0-0.1-0.1-0.2-0.2v-1.4C1046.4,557.2,1046.5,557.1,1046.7,557.1C1046.6,557.1,1046.6,557.1,1046.7,557.1z"/>
		</g>
		<g class="st12">
			<path class="st8" d="M1109.7,559.5c0,0,0.1,0,0.1-0.1h1.3v-1.3c0-0.1,0.1-0.1,0.2-0.2c0.1,0,0.1,0.1,0.2,0.2v1.4
				c0,0.1-0.1,0.1-0.2,0.2h-1.4C1109.8,559.8,1109.7,559.7,1109.7,559.5C1109.7,559.6,1109.7,559.6,1109.7,559.5z"/>
		</g>
		<g>
			<circle class="st19" cx="1120.6" cy="570.4" r="7"/>
			<g id="Layer_1_11_" class="st13">
				<g>
					<path class="st14" d="M1123.1,573.5h-5.1c-0.4,0-0.7-0.3-0.7-0.7v-5.1c0-0.4,0.3-0.7,0.7-0.7h5.1c0.4,0,0.7,0.3,0.7,0.7v5.1
						C1123.8,573.2,1123.5,573.5,1123.1,573.5z M1118,567.6c-0.1,0-0.1,0.1-0.1,0.1v5.1c0,0.1,0.1,0.1,0.1,0.1h5.1
						c0.1,0,0.1,0,0.1-0.1v-5.1c0-0.1-0.1-0.1-0.1-0.1L1118,567.6L1118,567.6z"/>
					<path class="st14" d="M1120,573.5h-2.2c-0.3,0-0.5-0.2-0.5-0.5v-2.2c0-0.3,0.2-0.5,0.5-0.5h2.2c0.3,0,0.5,0.2,0.5,0.5v2.2
						C1120.5,573.3,1120.2,573.5,1120,573.5z M1117.9,573h2v-2h-2V573z"/>
				</g>
			</g>
		</g>
	</g>
	<g>
		<g>
			<path class="st8" d="M1084.3,312.1L1084.3,312.1L1084.3,312.1z"/>
			<path class="st9" d="M1079.2,246.4c4,0,7.8,0.8,11.4,2.2l5.6-13.5c-10.6-4.3-22.8-4.6-34.1,0l5.6,13.6
				C1071.3,247.2,1075.2,246.4,1079.2,246.4z"/>
			<path class="st10" d="M1048.5,277.1c0-4,0.8-7.9,2.2-11.4l-13.6-5.6c-4.3,10.6-4.6,22.8,0,34.1l13.6-5.6
				C1049.2,285,1048.5,281.2,1048.5,277.1z"/>
			<path class="st10" d="M1107.5,265l13.4-5.5c-4.8-11.3-13.6-19.7-24.1-24.1l-5.6,13.5C1098.5,251.9,1104.4,257.7,1107.5,265z"/>
			<path class="st10" d="M1067.1,248.9l-5.6-13.6c-11.3,4.8-19.7,13.6-24.1,24.1l13.6,5.6C1054,257.8,1059.9,252,1067.1,248.9z"/>
			<path class="st10" d="M1121.2,260l-13.4,5.5c1.4,3.6,2.2,7.4,2.2,11.5c0,4.1-0.8,8-2.2,11.5l13.4,5.5
				C1125.5,283.6,1125.8,271.4,1121.2,260z"/>
			<path class="st10" d="M1091.3,305.5l5.6,13.4c11.3-4.8,19.7-13.6,24.1-24.1l-13.4-5.5C1104.4,296.5,1098.6,302.4,1091.3,305.5z"
				/>
			<path class="st10" d="M1079.2,307.9c-4.1,0-8-0.8-11.6-2.2l-5.6,13.5c10.6,4.3,22.8,4.6,34.1,0l-5.6-13.5
				C1087.1,307.1,1083.3,307.9,1079.2,307.9z"/>
			<path class="st10" d="M1050.9,289.2l-13.6,5.6c4.8,11.3,13.6,19.7,24.1,24.1l5.6-13.5C1059.8,302.3,1054,296.4,1050.9,289.2z"/>
			<g>
				<path class="st11" d="M1079.3,234.2c5.7,0,11.1,1.1,16,3.1l0.9-2.3c-10.6-4.3-22.8-4.6-34.1,0l1,2.3
					C1068.1,235.3,1073.5,234.2,1079.3,234.2z"/>
				<g class="st12">
					<path class="st11" d="M1080.4,233.9c-0.1,0-0.1,0-0.2-0.1l-1.3-1.3l-1.3,1.3c-0.1,0.1-0.2,0.1-0.3,0c-0.1-0.1-0.1-0.2,0-0.3
						l1.5-1.5c0.1-0.1,0.2-0.1,0.3,0l1.5,1.5c0.1,0.1,0.1,0.2,0,0.3C1080.5,233.9,1080.4,233.9,1080.4,233.9z"/>
				</g>
			</g>
			<g id="Layer_1_10_" class="st13">
				<g>
					<path class="st14" d="M1103.1,247.8c1.7,1.7,3.5,3.5,5.2,5.2c0.3,0.3,0.8-0.2,0.5-0.5c-1.7-1.7-3.5-3.5-5.2-5.2
						C1103.3,247,1102.8,247.5,1103.1,247.8L1103.1,247.8z"/>
					<path class="st14" d="M1103.6,253c1.7-1.7,3.5-3.5,5.2-5.2c0.3-0.3-0.2-0.8-0.5-0.5c-1.7,1.7-3.5,3.5-5.2,5.2
						C1102.8,252.8,1103.3,253.3,1103.6,253L1103.6,253z"/>
				</g>
			</g>
			<g id="Layer_1_9_" class="st13">
				<g>
					<g>
						<path class="st14" d="M1078.6,238c0,0.9,0,1.8,0,2.7c0,0.4,0.6,0.4,0.6,0c0-0.9,0-1.8,0-2.7
							C1079.2,237.7,1078.6,237.7,1078.6,238L1078.6,238z"/>
						<path class="st14" d="M1077.6,239.7c0.9,0,1.8,0,2.7,0c0.4,0,0.4-0.6,0-0.6c-0.9,0-1.8,0-2.7,0
							C1077.2,239.1,1077.2,239.7,1077.6,239.7L1077.6,239.7z"/>
					</g>
					<path class="st14" d="M1081.8,243h-5.7c-0.4,0-0.8-0.3-0.8-0.8v-5.7c0-0.4,0.3-0.8,0.8-0.8h5.7c0.4,0,0.8,0.3,0.8,0.8v5.7
						C1082.6,242.7,1082.2,243,1081.8,243z M1076.1,236.4c-0.1,0-0.1,0.1-0.1,0.1v5.7c0,0.1,0.1,0.1,0.1,0.1h5.7
						c0.1,0,0.1-0.1,0.1-0.1v-5.7c0-0.1-0.1-0.1-0.1-0.1H1076.1L1076.1,236.4z"/>
					<path class="st14" d="M1078.3,237.9l0.5-0.7c0.1-0.1,0.1-0.1,0.2,0l0.5,0.7c0.1,0.1,0,0.2-0.1,0.2h-1
						C1078.3,238.1,1078.2,237.9,1078.3,237.9z"/>
					<path class="st14" d="M1077.4,240l-0.7-0.5c-0.1-0.1-0.1-0.1,0-0.2l0.7-0.5c0.1-0.1,0.2,0,0.2,0.1v1
						C1077.6,240,1077.5,240.1,1077.4,240z"/>
					<path class="st14" d="M1080.5,238.8l0.7,0.5c0.1,0.1,0.1,0.1,0,0.2l-0.7,0.5c-0.1,0.1-0.2,0-0.2-0.1v-1
						C1080.3,238.8,1080.4,238.7,1080.5,238.8z"/>
					<path class="st14" d="M1079.5,240.9l-0.5,0.7c-0.1,0.1-0.1,0.1-0.2,0l-0.5-0.7c-0.1-0.1,0-0.2,0.1-0.2h1
						C1079.5,240.7,1079.6,240.8,1079.5,240.9z"/>
				</g>
			</g>
			<g id="Layer_1_8_" class="st13">
				<g>
					<path class="st14" d="M1081.1,317.2v1.4c0,0.4-0.3,0.7-0.7,0.7h-4.4c-0.4,0-0.7-0.3-0.7-0.7v-4.4c0-0.4,0.3-0.7,0.7-0.7h1.5
						v0.6h-1.5c0,0,0,0,0,0v4.4c0,0,0,0,0,0h4.4c0,0,0,0,0,0v-1.4L1081.1,317.2"/>
					<g>
						<path class="st14" d="M1082.3,312.8"/>
						<path class="st14" d="M1082,317.9h-4.4c-0.4,0-0.7-0.3-0.7-0.7v-4.4c0-0.4,0.3-0.7,0.7-0.7h4.4c0.4,0,0.7,0.3,0.7,0.7v4.4
							C1082.7,317.5,1082.4,317.9,1082,317.9z M1077.6,312.8C1077.5,312.8,1077.5,312.8,1077.6,312.8l0,4.4c0,0,0,0,0,0h4.4
							c0,0,0,0,0,0v-4.4c0,0,0,0,0,0L1077.6,312.8L1077.6,312.8z"/>
					</g>
				</g>
			</g>
			<g id="Layer_1_7_" class="st13">
				<g>
					<path class="st14" d="M1108.6,305.1h-4.4c-0.4,0-0.7-0.3-0.7-0.7v-4.4c0-0.4,0.3-0.7,0.7-0.7h4.4c0.4,0,0.7,0.3,0.7,0.7v4.4
						C1109.2,304.8,1109,305.1,1108.6,305.1z M1104.1,300C1104.1,300,1104.1,300.1,1104.1,300l0,4.4c0,0,0,0,0,0h4.4c0,0,0,0,0,0
						v-4.4c0,0,0,0,0,0H1104.1z"/>
					<path class="st14" d="M1105,306.6h-2.5c-0.3,0-0.5-0.2-0.5-0.5v-2.5c0-0.3,0.2-0.5,0.5-0.5h2.5c0.3,0,0.5,0.2,0.5,0.5v2.5
						C1105.5,306.3,1105.2,306.6,1105,306.6z M1102.6,305.9h2.2v-2.2h-2.2V305.9z"/>
				</g>
			</g>
			<g id="Layer_1_6_" class="st13">
				<g>
					<path class="st14" d="M1053.9,302.4c0-0.3-0.1-0.6-0.2-0.9c-0.1-0.3-0.3-0.5-0.5-0.7c-0.2-0.2-0.5-0.4-0.7-0.5
						c-0.3-0.1-0.5-0.2-0.8-0.3c-0.3,0-0.6,0-0.8,0c-0.1,0-0.2,0-0.3,0.1l-0.4,0.1l0.7-0.7c0.1-0.1,0.1-0.1,0.1-0.2
						c0-0.1,0-0.1-0.1-0.2c-0.1-0.1-0.3-0.1-0.4,0l-1,1c-0.1,0.1-0.1,0.1-0.1,0.2s0,0.1,0.1,0.2l1,1c0.1,0.1,0.3,0.1,0.4,0
						c0.1-0.1,0.1-0.1,0.1-0.2c0-0.1,0-0.1-0.1-0.2l-0.4-0.4l0.2-0.1c0.2-0.1,0.4-0.1,0.7-0.1c0.1,0,0.2,0,0.3,0
						c0.5,0.1,0.9,0.3,1.2,0.6c0.2,0.2,0.3,0.4,0.4,0.6c0.1,0.2,0.2,0.5,0.2,0.7c0.1,0.5-0.1,1-0.3,1.4c-0.1,0.1-0.1,0.2,0,0.3
						c0,0,0,0,0.1,0c0,0,0.1,0,0.1,0c0.1,0,0.2-0.1,0.2-0.1c0.2-0.3,0.3-0.5,0.3-0.8C1053.9,303,1054,302.7,1053.9,302.4z"/>
					<path class="st14" d="M1053,305.3c0.1-0.1,0.1-0.3,0-0.4l-1-1c-0.1-0.1-0.3-0.1-0.4,0s-0.1,0.3,0,0.4l0.4,0.4l-0.2,0.1
						c-0.3,0.1-0.7,0.1-1.1,0.1c-0.4-0.1-0.8-0.3-1.1-0.6c-0.2-0.2-0.3-0.4-0.4-0.6c-0.1-0.2-0.2-0.5-0.2-0.7
						c-0.1-0.5,0.1-1,0.3-1.4c0.1-0.1,0-0.3-0.1-0.4c0,0-0.1,0-0.1,0c-0.1,0-0.2,0.1-0.2,0.1c-0.2,0.3-0.3,0.5-0.3,0.8
						c-0.1,0.3-0.1,0.6,0,0.9s0.1,0.6,0.2,0.9c0.1,0.3,0.3,0.5,0.5,0.7l0,0c0.4,0.4,0.9,0.6,1.4,0.7c0.4,0.1,0.8,0.1,1.2,0l0.4-0.1
						l-0.7,0.7c-0.1,0.1-0.1,0.1-0.1,0.2s0,0.1,0.1,0.2c0.1,0.1,0.3,0.1,0.4,0L1053,305.3z"/>
				</g>
			</g>
			<g id="Layer_1_5_" class="st13">
				<g>
					<path class="st14" d="M1049.4,248.1c1.8,0,3.5,0,5.3,0c0.3,0,0.3-0.5,0-0.5c-1.8,0-3.5,0-5.3,0
						C1049.1,247.6,1049.1,248.1,1049.4,248.1L1049.4,248.1z"/>
					<path class="st14" d="M1049.4,249.9c1.8,0,3.5,0,5.3,0c0.3,0,0.3-0.5,0-0.5c-1.8,0-3.5,0-5.3,0
						C1049.1,249.4,1049.1,249.9,1049.4,249.9L1049.4,249.9z"/>
					<path class="st14" d="M1049.4,251.6c1.8,0,3.5,0,5.3,0c0.3,0,0.3-0.5,0-0.5c-1.8,0-3.5,0-5.3,0
						C1049.1,251.2,1049.1,251.6,1049.4,251.6L1049.4,251.6z"/>
				</g>
			</g>
			<g id="Layer_1_4_" class="st13">
				<path class="st14" d="M1119.1,280.9L1119.1,280.9c-0.3,0-0.5-0.1-0.7-0.3c-0.2-0.1-3-3-3.3-3.3c-0.1,0-0.1,0-0.1,0
					c-0.5,0-0.9-0.2-1.2-0.5c-0.3-0.3-0.4-0.6-0.5-1c0-0.2,0-0.3,0-0.5c0-0.2,0.2-0.3,0.4-0.3c0.1,0,0.1,0,0.2,0
					c0.1,0,0.1,0.1,0.2,0.1l0.2,0.2c0.1,0.1,0.2,0.2,0.4,0.4c0,0,0,0,0.1,0c0,0,0,0,0,0c0.1,0,0.1,0,0.1-0.1c0,0,0,0,0.1-0.1
					c0,0,0,0,0,0c0-0.1,0.1-0.1,0.1-0.1c0,0,0.1-0.1,0.2-0.2c0,0,0,0,0,0c0-0.1,0-0.1,0-0.1c0,0-0.1-0.1-0.2-0.2
					c-0.2-0.1-0.4-0.3-0.5-0.4c-0.1-0.1-0.2-0.3-0.1-0.4v0c0.1-0.2,0.2-0.3,0.4-0.3c0.2,0,0.3,0,0.5,0c0.5,0.1,0.9,0.3,1.1,0.7
					c0.1,0.2,0.2,0.5,0.3,0.7c0,0.1,0,0.3,0,0.4c0.4,0.5,3,3.1,3.2,3.2c0.4,0.4,0.5,0.9,0.2,1.4
					C1119.9,280.7,1119.5,280.9,1119.1,280.9z M1115.1,277c0.1,0,0.2,0,0.2,0.1c0.4,0.4,3.2,3.2,3.3,3.3s0.3,0.2,0.5,0.2
					c0.3,0,0.5-0.1,0.6-0.4c0.2-0.3,0.1-0.7-0.1-0.9c-0.1,0-0.9-0.9-1.7-1.7c-1.6-1.6-1.6-1.6-1.6-1.7l0,0l0-0.1c0-0.1,0-0.2,0-0.4
					c0-0.2-0.1-0.4-0.2-0.6c-0.2-0.3-0.5-0.5-0.9-0.6c-0.1,0-0.3,0-0.4,0c-0.1,0-0.1,0-0.1,0c0,0,0,0,0,0.1c0.1,0.1,0.3,0.3,0.4,0.4
					c0.1,0.1,0.2,0.2,0.2,0.2c0.1,0.2,0.2,0.3,0.1,0.5c0,0.1,0,0.1-0.1,0.1l0,0c-0.1,0.1-0.1,0.2-0.2,0.2c0,0-0.1,0.1-0.1,0.1
					c0,0,0,0-0.1,0.1c0,0,0,0,0,0c-0.1,0.1-0.3,0.2-0.5,0.2c-0.1,0-0.2-0.1-0.3-0.2c-0.1-0.1-0.2-0.2-0.4-0.4l-0.2-0.2
					c0,0-0.1,0-0.1,0c0,0.1,0,0.2,0,0.3c0,0.3,0.2,0.5,0.4,0.7c0.3,0.3,0.7,0.4,1.1,0.4C1115.1,277,1115.1,277,1115.1,277z
					 M1119.1,280.2c-0.2,0-0.4-0.2-0.4-0.4s0.2-0.4,0.4-0.4c0.2,0,0.4,0.2,0.4,0.4S1119.3,280.2,1119.1,280.2z"/>
			</g>
			<g id="Layer_1_3_" class="st13">
				<g>
					<g>
						<g>
							<path class="st14" d="M1044.2,278.2c0.7-1.2,0.1-2.8-1.2-3.7c-0.7-0.4-1.5-0.6-2.3-0.4c-0.8,0.2-1.4,0.7-1.9,1.3
								c-0.4,0.7-0.6,1.5-0.4,2.3c0.2,0.8,0.7,1.4,1.3,1.9c0.1,0.1,0.4,0,0.5-0.1c0.1-0.1,0.1-0.1,0-0.2v0v0c0-0.1,0-0.3,0.1-0.5
								c0.2-0.3,0.7-0.4,1-0.2l0.5,0.3c0.5,0.3,1,0.3,1.4,0.1l0.3,0.3c-0.6,0.3-1.3,0.3-2-0.1l-0.5-0.3c-0.1-0.1-0.4,0-0.5,0.1
								c0,0.1,0,0.1,0,0.3c0,0.2,0,0.3-0.1,0.5c-0.2,0.3-0.7,0.4-1,0.2c-0.8-0.5-1.3-1.2-1.5-2.1c-0.2-0.9,0-1.8,0.4-2.6
								c0.5-0.8,1.2-1.3,2.1-1.5c0.9-0.2,1.8-0.1,2.5,0.4c1.6,1,2.1,2.9,1.3,4.3L1044.2,278.2z"/>
						</g>
					</g>
					<g>
						<path class="st14" d="M1045.2,280.1C1045.2,280.1,1045.2,280.1,1045.2,280.1L1045.2,280.1c0.1,0,0.1,0,0.2,0
							c0-0.1,0-0.1,0-0.1l-0.7-0.7c-0.2-0.3-0.5-0.5-0.7-0.8l-0.6-0.6c0,0-0.3-0.3-0.3-0.3l-0.1-0.1c0,0-0.1-0.1-0.1-0.1
							c-0.1-0.1-0.1-0.1-0.1-0.2c-0.1-0.1-0.2-0.2-0.3-0.3c-0.1-0.1-0.1-0.1-0.2-0.1c-0.1,0-0.3,0.1-0.3,0.2c0,0.1-0.1,0.2,0,0.3
							c0,0,0.1,0.1,0.2,0.2l0.1,0.1c0.1,0.1,0.2,0.2,0.4,0.3c0.1,0.1,0.2,0.2,0.3,0.3l0,0l1.7,1.5
							C1044.8,279.8,1045,280,1045.2,280.1z"/>
						<path class="st14" d="M1041.6,275.8L1041.6,275.8c-0.1-0.1-0.1-0.1-0.2-0.2l0,0c-0.1-0.1-0.2-0.1-0.3-0.2
							c-0.2-0.1-0.4-0.1-0.6-0.1c0.1,0.1,0.3,0.2,0.3,0.4c0,0.1,0.1,0.2,0.1,0.3c0,0,0,0.1,0,0.1l0,0.1c0,0.2,0.2,0.3,0.3,0.3
							c0,0,0,0,0.1,0c0.2,0,0.4-0.1,0.4-0.3c0-0.1,0-0.3-0.1-0.4C1041.6,275.8,1041.6,275.8,1041.6,275.8z"/>
					</g>
				</g>
			</g>
			<path class="st15" d="M1087.6,338h-17.9c-2.9,0-5.3-2.3-5.3-5.1l0,0c0-2.8,2.4-5.1,5.3-5.1h17.9c2.9,0,5.3,2.3,5.3,5.1l0,0
				C1092.9,335.7,1090.6,338,1087.6,338z"/>
			<rect x="1070.4" y="331.1" class="st16" width="19.4" height="6.5"/>
			<text transform="matrix(1 0 0 1 1069.4465 335.0439)" class="st8 st17 st21">Image</text>
			<g>
				<path class="st11" d="M1048.8,307.5c-4-4-7-8.6-9.1-13.5l-2.3,0.9c4.4,10.5,12.8,19.4,24.2,24.2l1-2.3
					C1057.5,314.6,1052.8,311.5,1048.8,307.5z"/>
				<g class="st12">
					<path class="st11" d="M1047.8,306.9c0,0,0.1,0.1,0.1,0.2v1.9h1.9c0.1,0,0.2,0.1,0.2,0.2s-0.1,0.2-0.2,0.2h-2.1
						c-0.1,0-0.2-0.1-0.2-0.2V307c0-0.1,0.1-0.2,0.2-0.2C1047.7,306.8,1047.8,306.8,1047.8,306.9z"/>
				</g>
			</g>
			<g>
				<path class="st11" d="M1109.5,307.6c-4,4-8.6,7-13.5,9.1l0.9,2.3c10.5-4.4,19.4-12.8,24.2-24.2l-2.3-1
					C1116.7,298.9,1113.6,303.6,1109.5,307.6z"/>
				<g class="st12">
					<path class="st11" d="M1109,308.6c0,0,0.1-0.1,0.2-0.1h1.9v-1.9c0-0.1,0.1-0.2,0.2-0.2c0.1,0,0.2,0.1,0.2,0.2v2.1
						c0,0.1-0.1,0.2-0.2,0.2h-2.1c-0.1,0-0.2-0.1-0.2-0.2C1108.9,308.7,1108.9,308.7,1109,308.6z"/>
				</g>
			</g>
			<g class="st12">
				<path class="st8" d="M1079.8,233.7c0,0-0.1,0-0.1,0l-0.9-0.9l-0.9,0.9c-0.1,0.1-0.2,0.1-0.2,0c-0.1-0.1-0.1-0.2,0-0.2l1-1
					c0.1-0.1,0.2-0.1,0.2,0l1,1C1079.9,233.5,1079.9,233.6,1079.8,233.7C1079.8,233.7,1079.8,233.7,1079.8,233.7z"/>
			</g>
			<g class="st12">
				<path class="st8" d="M1046.7,306.2c0,0,0,0.1,0.1,0.1v1.3h1.3c0.1,0,0.1,0.1,0.2,0.2c0,0.1-0.1,0.1-0.2,0.2h-1.4
					c-0.1,0-0.1-0.1-0.2-0.2v-1.4C1046.5,306.2,1046.5,306.2,1046.7,306.2C1046.6,306.1,1046.7,306.1,1046.7,306.2z"/>
			</g>
			<g class="st12">
				<path class="st8" d="M1109.6,308.6c0,0,0.1,0,0.1-0.1h1.3v-1.3c0-0.1,0.1-0.1,0.2-0.2c0.1,0,0.1,0.1,0.2,0.2v1.4
					c0,0.1-0.1,0.1-0.2,0.2h-1.4C1109.7,308.8,1109.6,308.7,1109.6,308.6C1109.6,308.7,1109.6,308.6,1109.6,308.6z"/>
			</g>
			<circle class="st19" cx="1079.2" cy="217.3" r="7"/>
			<g id="Layer_1_2_">
				<g>
					<path class="st14" d="M1082.1,215.3c0-0.1,0-0.2-0.1-0.3c0,0,0-0.1-0.1-0.1c-0.2-0.2-0.4-0.3-0.7-0.3c-0.1,0-0.2,0-0.2,0.1
						c0,0,0,0,0,0c0,0,0-0.1,0-0.1c-0.1-0.2-0.3-0.4-0.6-0.4c-0.2,0-0.4,0-0.6,0.2c0,0,0,0,0,0c0,0,0,0-0.1-0.1
						c-0.2-0.2-0.5-0.2-0.7-0.1c-0.2,0-0.3,0.1-0.4,0.3c0,0,0,0,0,0l0,0c-0.2-0.1-0.4-0.2-0.7-0.1c-0.2,0-0.4,0.2-0.5,0.4
						c0,0,0,0,0,0c0,0.1-0.1,0.2-0.1,0.3c0,0.4,0,0.8,0,1.2c0,0,0,0,0,0c-0.1,0-0.2,0-0.3,0c-0.1,0-0.3,0-0.4,0.1
						c-0.2,0.1-0.3,0.3-0.4,0.5c0,0.2-0.1,0.4-0.1,0.5c0,0.2,0,0.6,0,0.7v0.1c0,0.7,0.2,1.3,0.9,1.6c0.6,0.3,1.6,0.2,2.2,0.2
						c0.6,0,1.2,0,1.7,0c1-0.1,1.3-1,1.3-1.9c0-0.7,0-1.3,0-2c0-0.1,0-0.3,0-0.4C1082.1,215.6,1082.1,215.5,1082.1,215.3z
						 M1081.7,218.2L1081.7,218.2c0,0.8-0.3,1.5-1.1,1.5c0,0,0,0,0,0h0c0,0-0.1,0-0.1,0c-0.1,0-0.2,0-0.3,0c-0.4,0-0.7,0-1.1,0
						c-0.5,0-1.1,0-1.7,0c-0.8,0-1.1-0.8-1.1-1.5v-0.2c0-0.4,0-0.2,0-0.7c0-0.2,0-0.3,0.1-0.5c0.1-0.1,0.2-0.2,0.3-0.2
						c0.1,0,0.2,0,0.3,0c0,0,0,0,0,0c0,0.3,0,0.5,0,0.8c0,0,0,0.1,0,0.1c0,0.1,0.1,0.1,0.2,0.1c0.1,0,0.1-0.1,0.1-0.2
						c0-0.8,0-1.6,0-2.4c0-0.1,0-0.2,0-0.2c0.1-0.2,0.3-0.2,0.5-0.2c0.1,0.1,0.2,0.2,0.2,0.3c0,0.2,0,0.5,0,0.7c0,0,0,0.1,0,0.1
						c0,0.1,0.1,0.1,0.2,0.1c0.1,0,0.2-0.1,0.2-0.2c0-0.1,0-0.2,0-0.4c0-0.2,0-0.4,0-0.5c0-0.1,0-0.1,0-0.2c0.1-0.2,0.3-0.2,0.5-0.2
						c0.2,0,0.2,0.2,0.2,0.3c0,0.3,0,0.6,0,0.9c0,0,0,0,0,0c0,0.1,0.1,0.2,0.2,0.2c0.1,0,0.2-0.1,0.2-0.2c0-0.3,0-0.5,0-0.8
						c0-0.1,0-0.2,0.1-0.3c0.1-0.2,0.4-0.2,0.6-0.1c0.1,0.1,0.1,0.2,0.1,0.3c0,0.3,0,0.6,0,0.8c0,0,0,0.1,0,0.1
						c0,0.1,0.1,0.1,0.2,0.1c0.1,0,0.2-0.1,0.2-0.2c0-0.2,0-0.3,0-0.5c0-0.2,0.1-0.3,0.3-0.3c0.1,0,0.2,0,0.3,0.1
						c0.1,0.1,0.2,0.2,0.2,0.4C1081.7,216.3,1081.7,217.3,1081.7,218.2z"/>
					<path class="st14" d="M1078.2,220.2L1078.2,220.2c-0.4,0-0.9,0-1.2-0.2c-0.6-0.3-1-0.9-0.9-1.7v-0.1c0-0.2,0-0.6,0-0.7
						c0-0.2,0-0.4,0.1-0.6c0.1-0.2,0.2-0.4,0.4-0.5c0.1-0.1,0.2-0.1,0.4-0.1c0.1,0,0.2,0,0.3,0c0-0.4,0-0.8,0-1.2
						c0-0.1,0-0.2,0.1-0.3v0c0,0,0,0,0,0c0.1-0.2,0.3-0.3,0.5-0.4c0.2-0.1,0.5,0,0.7,0.1l0,0c0.1-0.1,0.2-0.2,0.4-0.3
						c0.3-0.1,0.6,0,0.8,0.1c0,0,0,0,0.1,0c0.2-0.2,0.4-0.2,0.6-0.2c0.3,0,0.6,0.2,0.7,0.5v0c0,0,0,0,0,0.1c0.1,0,0.1,0,0.2-0.1
						c0.3,0,0.6,0,0.8,0.3c0,0,0.1,0.1,0.1,0.1c0,0.1,0.1,0.2,0.1,0.3c0,0.2,0,0.3,0,0.4c0,0.1,0,0.2,0,0.3v0.1c0,0.7,0,1.3,0,2
						c0,0.4-0.1,1.9-1.4,1.9c-0.4,0-1,0-1.7,0c-0.1,0-0.3,0-0.5,0C1078.5,220.2,1078.3,220.2,1078.2,220.2z M1077.1,216.3
						c-0.1,0-0.1,0-0.2,0c-0.1,0-0.3,0.1-0.4,0.1c-0.2,0.1-0.3,0.2-0.3,0.5c0,0.2-0.1,0.3-0.1,0.5c0,0.2,0,0.6,0,0.7v0.1
						c0,0.7,0.3,1.3,0.9,1.5c0.3,0.1,0.7,0.2,1.2,0.2l0,0c0.2,0,0.4,0,0.6,0c0.2,0,0.3,0,0.5,0c0.6,0,1.2,0,1.6,0
						c1.1-0.1,1.2-1.4,1.3-1.8c0-0.7,0-1.3,0-2v-0.1c0-0.1,0-0.2,0-0.3c0-0.2,0-0.3,0-0.4c0-0.1,0-0.2-0.1-0.3c0,0,0-0.1-0.1-0.1
						c-0.2-0.2-0.4-0.3-0.7-0.2c-0.1,0-0.2,0-0.2,0.1c0,0,0,0-0.1,0c0,0-0.1,0-0.1-0.1c0,0,0,0,0-0.1v0c-0.1-0.2-0.3-0.4-0.6-0.4
						c-0.2,0-0.4,0-0.6,0.2c0,0,0,0-0.1,0s0,0-0.1,0c0,0,0,0-0.1-0.1c-0.2-0.2-0.4-0.2-0.7-0.1c-0.1,0-0.2,0.1-0.3,0.2
						c0,0,0,0-0.1,0c0,0,0,0-0.1,0h0c-0.2-0.1-0.4-0.2-0.6-0.1c-0.2,0-0.4,0.2-0.4,0.3v0c0,0,0,0,0,0c0,0.1-0.1,0.2-0.1,0.3
						c0,0.4,0,0.8,0,1.2C1077.2,216.3,1077.2,216.3,1077.1,216.3C1077.1,216.3,1077.1,216.3,1077.1,216.3z M1078.1,219.7
						c-0.2,0-0.4,0-0.6,0c-0.5,0-1.2-0.4-1.1-1.5V218c0-0.2,0-0.2,0-0.4l0-0.2c0-0.2,0-0.4,0.1-0.5c0.1-0.1,0.2-0.2,0.3-0.3
						c0.1,0,0.2,0,0.3,0h0c0,0,0,0,0.1,0c0,0,0,0,0,0.1c0,0.2,0,0.4,0,0.6v0.2c0,0,0,0.1,0,0.1c0,0,0.1,0.1,0.2,0.1
						c0,0,0.1,0,0.1-0.1c0-0.8,0-1.6,0-2.4c0-0.1,0-0.2,0-0.3c0.1-0.2,0.2-0.2,0.4-0.2c0.1,0,0.1,0,0.2,0c0.2,0.1,0.2,0.2,0.2,0.4
						c0,0.2,0,0.4,0,0.5v0.2c0,0,0,0,0,0.1c0,0,0.1,0.1,0.1,0.1c0.1,0,0.1,0,0.1-0.1c0,0,0-0.1,0-0.2c0-0.1,0-0.1,0-0.2
						c0-0.2,0-0.4,0-0.5c0-0.1,0-0.1,0-0.2c0.1-0.2,0.2-0.2,0.4-0.2c0.1,0,0.1,0,0.2,0c0.2,0.1,0.2,0.2,0.3,0.4c0,0.2,0,0.4,0,0.6
						v0.3c0,0,0,0,0,0c0,0.1,0.1,0.1,0.1,0.1s0.1,0,0.1-0.1v-0.2c0-0.2,0-0.4,0-0.6c0-0.1,0-0.2,0.1-0.3c0.1-0.1,0.2-0.2,0.4-0.2
						c0.1,0,0.2,0,0.3,0.1c0.1,0.1,0.1,0.2,0.1,0.3v0.8c0,0,0,0,0,0.1c0,0,0.1,0.1,0.1,0.1s0.1-0.1,0.1-0.1c0-0.1,0-0.2,0-0.3
						c0-0.1,0-0.1,0-0.2c0-0.2,0.1-0.4,0.4-0.4c0.1,0,0.2,0,0.3,0.1c0.1,0.1,0.2,0.2,0.2,0.4c0,0.7,0,1.5,0,2.2v0.6
						c0,1-0.4,1.5-1.1,1.5h0l0,0c0,0,0,0-0.1,0c0,0-0.1,0-0.1,0h-1.3c-0.2,0-0.4,0-0.5,0C1078.4,219.7,1078.2,219.7,1078.1,219.7z
						 M1077.1,216.7c-0.1,0-0.2,0-0.3,0c-0.1,0-0.2,0.1-0.3,0.2c-0.1,0.1-0.1,0.3-0.1,0.5v0.2c0,0.1,0,0.1,0,0.4v0.2
						c0,0.6,0.2,1.4,1,1.4c0.2,0,0.3,0,0.5,0c0.2,0,0.4,0,0.6,0c0.2,0,0.4,0,0.6,0h1.3c0,0,0.1,0,0.1,0c0,0,0.1,0,0.1,0
						c0.7,0,1-0.5,1-1.4v-0.1v-0.5c0-0.7,0-1.5,0-2.2c0-0.1,0-0.2-0.1-0.3c-0.1,0-0.1-0.1-0.2,0c-0.2,0-0.3,0.2-0.3,0.3
						c0,0.1,0,0.1,0,0.2c0,0.1,0,0.2,0,0.3c0,0.1-0.1,0.2-0.2,0.2c-0.1,0-0.2-0.1-0.3-0.2c0,0,0-0.1,0-0.1v-0.8c0-0.1,0-0.2-0.1-0.2
						c-0.1-0.1-0.1-0.1-0.2-0.1c-0.1,0-0.2,0.1-0.3,0.2c0,0.1,0,0.2,0,0.2c0,0.2,0,0.4,0,0.6v0.2c0,0.1-0.1,0.2-0.2,0.2l0,0
						c-0.1,0-0.2-0.1-0.3-0.2c0,0,0,0,0,0v-0.3c0-0.2,0-0.4,0-0.6c0-0.1-0.1-0.2-0.2-0.3c0,0-0.1,0-0.1,0c-0.1,0-0.2,0.1-0.3,0.2
						c0,0,0,0.1,0,0.2c0,0.2,0,0.3,0,0.5c0,0.1,0,0.1,0,0.2c0,0,0,0.1,0,0.2c0,0.1-0.1,0.2-0.2,0.2c-0.1,0-0.2-0.1-0.3-0.2
						c0,0,0-0.1,0-0.1v-0.2c0-0.2,0-0.4,0-0.5c0-0.1-0.1-0.2-0.2-0.3c0,0-0.1,0-0.1,0c-0.1,0-0.2,0.1-0.3,0.2c0,0.1,0,0.1,0,0.2
						c0,0.8,0,1.6,0,2.4c0,0.1-0.1,0.2-0.2,0.2c-0.1,0-0.2,0-0.3-0.1c0,0,0-0.1,0-0.1v-0.2C1077.1,217.1,1077.1,216.9,1077.1,216.7z
						"/>
				</g>
			</g>
		</g>
	</g>
</g>
<g>
	
		<image style="overflow:visible;opacity:5.000000e-02;" width="204" height="30" xlink:href="692975C17B3FDBB4.png"  transform="matrix(0.24 0 0 0.24 830.653 475.3366)">
	</image>
	<g>
		<g>
			<path class="st22" d="M833.1,478.3c14,0,28,0,42,0c0.6,0,0.6-1,0-1c-14,0-28,0-42,0C832.5,477.3,832.5,478.3,833.1,478.3
				L833.1,478.3z"/>
		</g>
	</g>
</g>
<g>
	
		<image style="overflow:visible;opacity:5.000000e-02;" width="204" height="30" xlink:href="692975C17B3FDBB5.png"  transform="matrix(0.24 0 0 0.24 766.3729 548.6644)">
	</image>
	<g>
		<g>
			<path class="st22" d="M768.9,551.7c14,0,28,0,42,0c0.6,0,0.6-1,0-1c-14,0-28,0-42,0C768.2,550.7,768.2,551.7,768.9,551.7
				L768.9,551.7z"/>
		</g>
	</g>
</g>
<g>
	
		<image style="overflow:visible;opacity:5.000000e-02;" width="231" height="30" xlink:href="692975C17B3FDBB3.png"  transform="matrix(0.24 0 0 0.24 824.2433 455.2854)">
	</image>
	<g>
		<g>
			<path class="st22" d="M826.7,458.3c16.1,0,32.3,0,48.4,0c0.6,0,0.6-1,0-1c-16.1,0-32.3,0-48.4,0
				C826.1,457.3,826.1,458.3,826.7,458.3L826.7,458.3z"/>
		</g>
	</g>
</g>
<g>
	
		<image style="overflow:visible;opacity:5.000000e-02;" width="168" height="30" xlink:href="692975C17B3FDBBC.png"  transform="matrix(0.24 0 0 0.24 839.475 430.3125)">
	</image>
	<g>
		<g>
			<path class="st22" d="M842,433.3c11.1,0,22.1,0,33.2,0c0.6,0,0.6-1,0-1c-11.1,0-22.1,0-33.2,0C841.3,432.3,841.3,433.3,842,433.3
				L842,433.3z"/>
		</g>
	</g>
</g>
<g>
	
		<image style="overflow:visible;opacity:5.000000e-02;" width="200" height="30" xlink:href="692975C17B3FDBBF.png"  transform="matrix(0.24 0 0 0.24 742.0998 252.2592)">
	</image>
	<g>
		<g>
			<path class="st22" d="M744.6,255.3c13.6,0,27.2,0,40.8,0c0.6,0,0.6-1,0-1c-13.6,0-27.2,0-40.8,0
				C743.9,254.3,743.9,255.3,744.6,255.3L744.6,255.3z"/>
		</g>
	</g>
</g>
<g>
	
		<image style="overflow:visible;opacity:5.000000e-02;" width="135" height="30" xlink:href="692975C17B3FDBBD.png"  transform="matrix(0.24 0 0 0.24 616.4269 306.087)">
	</image>
	<g>
		<g>
			<path class="st22" d="M618.9,309.1c8.4,0,16.9,0,25.3,0c0.6,0,0.6-1,0-1c-8.4,0-16.9,0-25.3,0
				C618.3,308.1,618.3,309.1,618.9,309.1L618.9,309.1z"/>
		</g>
	</g>
</g>
<rect x="881.1" y="428.8" class="st16" width="64.1" height="13.3"/>
<text transform="matrix(1 0 0 1 881.0745 435.3377)" class="st10 st23 st24">#4d4d4d 80%</text>
<rect x="819.2" y="547.4" class="st16" width="134.1" height="10.7"/>
<text transform="matrix(1 0 0 1 819.2457 553.9109)" class="st10 st23 st24">Text Font: Roboto regular </text>
<rect x="861" y="559.5" class="st16" width="94.3" height="11.3"/>
<text transform="matrix(1 0 0 1 861.0396 565.9897)" class="st10 st23 st24">12pt</text>
<rect x="791" y="251.1" class="st16" width="112.1" height="13.3"/>
<text transform="matrix(1 0 0 1 791.0292 257.6232)" class="st10 st23 st24">Icon: #ffffff 80%</text>
<rect x="562.1" y="305.2" class="st16" width="56.5" height="68.3"/>
<text transform="matrix(1 0 0 1 562.0651 311.7636)" class="st13"><tspan x="0" y="0" class="st8 st23 st24">Background:</tspan><tspan x="0" y="10.8" class="st8 st23 st24">#ef4136 80%</tspan><tspan x="0" y="32.4" class="st8 st23 st24">Border:</tspan><tspan x="0" y="43.2" class="st8 st23 st24">#00000 80%</tspan><tspan x="0" y="54" class="st8 st23 st24">0.5px</tspan></text>
<rect x="881.1" y="454.4" class="st16" width="64.1" height="13.3"/>
<text transform="matrix(1 0 0 1 881.0745 460.9258)" class="st9 st23 st24">#f57c00 80%</text>
<rect x="881.1" y="474.4" class="st16" width="64.1" height="13.3"/>
<text transform="matrix(1 0 0 1 881.0745 480.9121)" class="st11 st23 st24">#f25c00 80%</text>
<text transform="matrix(1 0 0 1 111.1758 316.5657)" class="st25 st23 st26">115px</text>
<text transform="matrix(1 0 0 1 133.176 362.9225)" class="st25 st23 st26">75px</text>
<text transform="matrix(1 0 0 1 455.8427 288.2559)" class="st25 st23 st26">10px</text>
<text transform="matrix(1 0 0 1 400.5568 310.6077)" class="st25 st23 st26">8px</text>
<text transform="matrix(1 0 0 1 446.0511 367.6068)" class="st25 st23 st26">1.5px</text>
<text transform="matrix(1 0 0 1 345.9166 265.7675)" class="st25 st23 st27">24*24 px</text>
<text transform="matrix(1 0 0 1 345.9166 254.4855)" class="st25 st23 st27">Icon Size</text>
<line class="st28" x1="179.5" y1="196.2" x2="179.5" y2="604.7"/>
<line class="st28" x1="508.5" y1="292.6" x2="100" y2="292.6"/>
<line class="st28" x1="508.5" y1="299.1" x2="100" y2="299.1"/>
<line class="st28" x1="508.5" y1="304.4" x2="100" y2="304.4"/>
<line class="st28" x1="508.5" y1="312.9" x2="100" y2="312.9"/>
<line class="st28" x1="508.5" y1="330.1" x2="100" y2="330.1"/>
<line class="st28" x1="508.5" y1="487" x2="100" y2="487"/>
<line class="st28" x1="508.5" y1="497.7" x2="100" y2="497.7"/>
<line class="st28" x1="508.5" y1="534.1" x2="100" y2="534.1"/>
<line class="st28" x1="508.5" y1="274.9" x2="100" y2="274.9"/>
<line class="st28" x1="508.5" y1="239" x2="100" y2="239"/>
<line class="st28" x1="508.5" y1="524.3" x2="100" y2="524.3"/>
<line class="st28" x1="508.5" y1="542.1" x2="100" y2="542.1"/>
<line class="st28" x1="508.5" y1="568" x2="100" y2="568"/>
<line class="st28" x1="216.3" y1="196.2" x2="216.3" y2="604.7"/>
<line class="st28" x1="228.5" y1="196.2" x2="228.5" y2="604.7"/>
<line class="st28" x1="385.6" y1="196.2" x2="385.6" y2="604.7"/>
<line class="st28" x1="190.9" y1="196.2" x2="190.9" y2="604.7"/>
<line class="st28" x1="396.5" y1="196.2" x2="396.5" y2="604.7"/>
<line class="st28" x1="422.2" y1="196.2" x2="422.2" y2="604.7"/>
<line class="st28" x1="432.5" y1="196.2" x2="432.5" y2="604.7"/>
<line class="st28" x1="288.9" y1="196.2" x2="288.9" y2="604.7"/>
<line class="st28" x1="269.3" y1="196.2" x2="269.3" y2="604.7"/>
<line class="st28" x1="324.6" y1="196.2" x2="324.6" y2="604.7"/>
<line class="st28" x1="341.7" y1="196.2" x2="341.7" y2="604.7"/>
<circle class="st28" cx="306.5" cy="408.8" r="115.4"/>
<circle class="st28" cx="306.5" cy="408.7" r="78.7"/>
<circle class="st28" cx="306.5" cy="408.5" r="109.3"/>
<g>
	<line class="st29" x1="108.3" y1="292.6" x2="108.3" y2="524.2"/>
	<line class="st29" x1="105.4" y1="292.6" x2="111.2" y2="292.6"/>
	<line class="st29" x1="105.4" y1="524.2" x2="111.2" y2="524.2"/>
</g>
<g>
	<line class="st29" x1="128.3" y1="330.1" x2="128.3" y2="487"/>
	<line class="st29" x1="125.4" y1="330.1" x2="131.2" y2="330.1"/>
	<line class="st29" x1="125.4" y1="487" x2="131.2" y2="487"/>
</g>
<g>
	<line class="st29" x1="451" y1="274.9" x2="451" y2="292.6"/>
	<line class="st29" x1="448.1" y1="274.9" x2="453.8" y2="274.9"/>
	<line class="st29" x1="448.1" y1="292.6" x2="453.8" y2="292.6"/>
</g>
<g>
	<line class="st29" x1="408.7" y1="292.6" x2="408.7" y2="299.1"/>
	<line class="st29" x1="405.8" y1="292.6" x2="411.6" y2="292.6"/>
	<line class="st29" x1="405.8" y1="299.1" x2="411.6" y2="299.1"/>
</g>
<text transform="matrix(1 0 0 1 185.3768 324.7675)" class="st25 st23 st26">4px</text>
<g>
	<line class="st29" x1="193.5" y1="304.4" x2="193.5" y2="312.9"/>
	<line class="st29" x1="190.6" y1="304.4" x2="196.4" y2="304.4"/>
	<line class="st29" x1="190.6" y1="312.8" x2="196.4" y2="312.8"/>
</g>
<g>
	<line class="st29" x1="451" y1="524.2" x2="451" y2="542"/>
	<line class="st29" x1="448.1" y1="524.2" x2="453.8" y2="524.2"/>
	<line class="st29" x1="448.1" y1="542" x2="453.8" y2="542"/>
</g>
<g>
	<line class="st29" x1="352.9" y1="542" x2="352.9" y2="568"/>
	<line class="st29" x1="350" y1="542" x2="355.8" y2="542"/>
	<line class="st29" x1="350" y1="568" x2="355.8" y2="568"/>
</g>
<g>
	<line class="st29" x1="341.7" y1="579.2" x2="269.3" y2="579.2"/>
	<line class="st29" x1="341.7" y1="576.3" x2="341.7" y2="582.1"/>
	<line class="st29" x1="269.3" y1="576.3" x2="269.3" y2="582.1"/>
</g>
<text transform="matrix(1 0 0 1 455.8427 539.1475)" class="st25 st23 st26">10px</text>
<text transform="matrix(1 0 0 1 355.8051 560.4573)" class="st25 st23 st26">15px</text>
<text transform="matrix(1 0 0 1 295.0551 593.2073)" class="st25 st23 st26">40px</text>
<text transform="matrix(1 0 0 1 243.3708 261.1266)" class="st25 st23 st26">20px</text>
<g>
	<line class="st29" x1="237.2" y1="239" x2="237.2" y2="274.7"/>
	<line class="st29" x1="234.3" y1="239" x2="240.1" y2="239"/>
	<line class="st29" x1="234.3" y1="274.7" x2="240.1" y2="274.7"/>
</g>
<g>
	<g>
		<path class="st30" d="M417.2,364.5c8.3,0,16.6,0,24.9,0c0.6,0,0.6-1,0-1c-8.3,0-16.6,0-24.9,0
			C416.5,363.5,416.5,364.5,417.2,364.5L417.2,364.5z"/>
	</g>
</g>
<g>
	<g>
		<path class="st30" d="M307.1,257.4c12.3,0,24.5,0,36.8,0c0.6,0,0.6-1,0-1c-12.3,0-24.5,0-36.8,0
			C306.5,256.4,306.5,257.4,307.1,257.4L307.1,257.4z"/>
	</g>
</g>
</svg>
